<?xml version="1.0" encoding="utf-8" standalone="no"?>
<!DOCTYPE svg PUBLIC "-//W3C//DTD SVG 1.1//EN"
  "http://www.w3.org/Graphics/SVG/1.1/DTD/svg11.dtd">
<!-- Created with matplotlib (https://matplotlib.org/) -->
<svg height="218.783844pt" version="1.1" viewBox="0 0 1130.4 218.783844" width="1130.4pt" xmlns="http://www.w3.org/2000/svg" xmlns:xlink="http://www.w3.org/1999/xlink">
 <defs>
  <style type="text/css">
*{stroke-linecap:butt;stroke-linejoin:round;}
  </style>
 </defs>
 <g id="figure_1">
  <g id="patch_1">
   <path d="M 0 218.783844 
L 1130.4 218.783844 
L 1130.4 0 
L 0 0 
z
" style="fill:#ffffff;"/>
  </g>
  <g id="axes_1">
   <g id="line2d_1">
    <path clip-path="url(#pbbea9887d6)" d="M 7.2 165.620571 
L 1123.2 165.620571 
" style="fill:none;stroke:#1a1a1a;stroke-linecap:round;stroke-width:1.5;"/>
   </g>
   <g id="patch_2">
    <path clip-path="url(#pbbea9887d6)" d="M 100.930883 158.620571 
Q 136.987165 158.620571 173.043446 158.620571 
L 173.043446 158.620571 
Q 177.242437 162.120571 181.441427 165.620571 
Q 177.242437 169.120571 173.043446 172.620571 
L 173.043446 172.620571 
Q 136.987165 172.620571 100.930883 172.620571 
L 100.930883 158.620571 
z
" style="fill:#ffffff;fill-opacity:0.85;stroke:#000000;stroke-linecap:round;"/>
   </g>
   <g id="patch_3">
    <path clip-path="url(#pbbea9887d6)" d="M 186.596393 158.620571 
Q 195.211714 158.620571 203.827035 158.620571 
L 203.827035 158.620571 
Q 208.027532 162.120571 212.228029 165.620571 
Q 208.027532 169.120571 203.827035 172.620571 
L 203.827035 172.620571 
Q 195.211714 172.620571 186.596393 172.620571 
L 186.596393 158.620571 
z
" style="fill:#ffffff;fill-opacity:0.85;stroke:#000000;stroke-linecap:round;"/>
   </g>
   <g id="patch_4">
    <path clip-path="url(#pbbea9887d6)" d="M 304.731028 172.620571 
Q 264.003632 172.620571 223.276235 172.620571 
L 223.276235 172.620571 
Q 219.076672 169.120571 214.877109 165.620571 
Q 219.076672 162.120571 223.276235 158.620571 
L 223.276235 158.620571 
Q 264.003632 158.620571 304.731028 158.620571 
L 304.731028 172.620571 
z
" style="fill:#ffffff;fill-opacity:0.85;stroke:#000000;stroke-linecap:round;"/>
   </g>
   <g id="patch_5">
    <path clip-path="url(#pbbea9887d6)" d="M 321.842651 158.620571 
Q 353.763402 158.620571 385.684153 158.620571 
L 385.684153 158.620571 
Q 389.883962 162.120571 394.083771 165.620571 
Q 389.883962 169.120571 385.684153 172.620571 
L 385.684153 172.620571 
Q 353.763402 172.620571 321.842651 172.620571 
L 321.842651 158.620571 
z
" style="fill:#ffffff;fill-opacity:0.85;stroke:#000000;stroke-linecap:round;"/>
   </g>
   <g id="patch_6">
    <path clip-path="url(#pbbea9887d6)" d="M 394.298561 158.620571 
Q 400.445127 158.620571 406.591693 158.620571 
L 406.591693 158.620571 
Q 410.790857 162.120571 414.990021 165.620571 
Q 410.790857 169.120571 406.591693 172.620571 
L 406.591693 172.620571 
Q 400.445127 172.620571 394.298561 172.620571 
L 394.298561 158.620571 
z
" style="fill:#ffffff;fill-opacity:0.85;stroke:#000000;stroke-linecap:round;"/>
   </g>
   <g id="patch_7">
    <path clip-path="url(#pbbea9887d6)" d="M 427.591049 158.620571 
Q 475.351779 158.620571 523.11251 158.620571 
L 523.11251 158.620571 
Q 527.31312 162.120571 531.51373 165.620571 
Q 527.31312 169.120571 523.11251 172.620571 
L 523.11251 172.620571 
Q 475.351779 172.620571 427.591049 172.620571 
L 427.591049 158.620571 
z
" style="fill:#ff0000;fill-opacity:0.85;stroke:#000000;stroke-linecap:round;"/>
   </g>
   <g id="patch_8">
    <path clip-path="url(#pbbea9887d6)" d="M 536.919284 158.620571 
Q 559.604789 158.620571 582.290293 158.620571 
L 582.290293 158.620571 
Q 586.489368 162.120571 590.688443 165.620571 
Q 586.489368 169.120571 582.290293 172.620571 
L 582.290293 172.620571 
Q 559.604789 172.620571 536.919284 172.620571 
L 536.919284 158.620571 
z
" style="fill:#ffffff;fill-opacity:0.85;stroke:#000000;stroke-linecap:round;"/>
   </g>
   <g id="patch_9">
    <path clip-path="url(#pbbea9887d6)" d="M 627.95455 172.620571 
Q 613.807102 172.620571 599.659654 172.620571 
L 599.659654 172.620571 
Q 595.460435 169.120571 591.261217 165.620571 
Q 595.460435 162.120571 599.659654 158.620571 
L 599.659654 158.620571 
Q 613.807102 158.620571 627.95455 158.620571 
L 627.95455 172.620571 
z
" style="fill:#ffffff;fill-opacity:0.85;stroke:#000000;stroke-linecap:round;"/>
   </g>
   <g id="patch_10">
    <path clip-path="url(#pbbea9887d6)" d="M 657.130225 172.620571 
Q 650.072992 172.620571 643.015759 172.620571 
L 643.015759 172.620571 
Q 638.814403 169.120571 634.613048 165.620571 
Q 638.814403 162.120571 643.015759 158.620571 
L 643.015759 158.620571 
Q 650.072992 158.620571 657.130225 158.620571 
L 657.130225 172.620571 
z
" style="fill:#ffffff;fill-opacity:0.85;stroke:#000000;stroke-linecap:round;"/>
   </g>
   <g id="patch_11">
    <path clip-path="url(#pbbea9887d6)" d="M 668.90789 158.620571 
Q 687.671798 158.620571 706.435706 158.620571 
L 706.435706 158.620571 
Q 710.636455 162.120571 714.837205 165.620571 
Q 710.636455 169.120571 706.435706 172.620571 
L 706.435706 172.620571 
Q 687.671798 172.620571 668.90789 172.620571 
L 668.90789 158.620571 
z
" style="fill:#ffffff;fill-opacity:0.85;stroke:#000000;stroke-linecap:round;"/>
   </g>
   <g id="patch_12">
    <path clip-path="url(#pbbea9887d6)" d="M 719.992171 158.620571 
Q 722.648299 158.620571 725.304427 158.620571 
L 725.304427 158.620571 
Q 729.503688 162.120571 733.702948 165.620571 
Q 729.503688 169.120571 725.304427 172.620571 
L 725.304427 172.620571 
Q 722.648299 172.620571 719.992171 172.620571 
L 719.992171 158.620571 
z
" style="fill:#ffffff;fill-opacity:0.85;stroke:#000000;stroke-linecap:round;"/>
   </g>
   <g id="patch_13">
    <path clip-path="url(#pbbea9887d6)" d="M 749.942792 172.620571 
Q 745.742792 169.120571 741.542792 165.620571 
Q 745.742792 162.120571 749.942792 158.620571 
z
" style="fill:#ffffff;fill-opacity:0.85;stroke:#000000;stroke-linecap:round;"/>
   </g>
   <g id="patch_14">
    <path clip-path="url(#pbbea9887d6)" d="M 780.921004 172.620571 
Q 775.956217 172.620571 770.99143 172.620571 
L 770.99143 172.620571 
Q 766.791833 169.120571 762.592236 165.620571 
Q 766.791833 162.120571 770.99143 158.620571 
L 770.99143 158.620571 
Q 775.956217 158.620571 780.921004 158.620571 
L 780.921004 172.620571 
z
" style="fill:#ffffff;fill-opacity:0.85;stroke:#000000;stroke-linecap:round;"/>
   </g>
   <g id="patch_15">
    <path clip-path="url(#pbbea9887d6)" d="M 855.274227 172.620571 
Q 822.547007 172.620571 789.819786 172.620571 
L 789.819786 172.620571 
Q 785.620983 169.120571 781.422181 165.620571 
Q 785.620983 162.120571 789.819786 158.620571 
L 789.819786 158.620571 
Q 822.547007 158.620571 855.274227 158.620571 
L 855.274227 172.620571 
z
" style="fill:#ffffff;fill-opacity:0.85;stroke:#000000;stroke-linecap:round;"/>
   </g>
   <g id="patch_16">
    <path clip-path="url(#pbbea9887d6)" d="M 894.61664 172.620571 
Q 880.846791 172.620571 867.076941 172.620571 
L 867.076941 172.620571 
Q 862.876007 169.120571 858.675073 165.620571 
Q 862.876007 162.120571 867.076941 158.620571 
L 867.076941 158.620571 
Q 880.846791 158.620571 894.61664 158.620571 
L 894.61664 172.620571 
z
" style="fill:#ffffff;fill-opacity:0.85;stroke:#000000;stroke-linecap:round;"/>
   </g>
   <g id="patch_17">
    <path clip-path="url(#pbbea9887d6)" d="M 924.007106 172.620571 
Q 914.211483 172.620571 904.41586 172.620571 
L 904.41586 172.620571 
Q 900.214318 169.120571 896.012777 165.620571 
Q 900.214318 162.120571 904.41586 158.620571 
L 904.41586 158.620571 
Q 914.211483 158.620571 924.007106 158.620571 
L 924.007106 172.620571 
z
" style="fill:#ffffff;fill-opacity:0.85;stroke:#000000;stroke-linecap:round;"/>
   </g>
   <g id="patch_18">
    <path clip-path="url(#pbbea9887d6)" d="M 941.261922 172.620571 
Q 940.002402 172.620571 938.742883 172.620571 
L 938.742883 172.620571 
Q 934.54315 169.120571 930.343418 165.620571 
Q 934.54315 162.120571 938.742883 158.620571 
L 938.742883 158.620571 
Q 940.002402 158.620571 941.261922 158.620571 
L 941.261922 172.620571 
z
" style="fill:#ffffff;fill-opacity:0.85;stroke:#000000;stroke-linecap:round;"/>
   </g>
   <g id="patch_19">
    <path clip-path="url(#pbbea9887d6)" d="M 951.500257 172.620571 
Q 950.672621 172.620571 949.844984 172.620571 
L 949.844984 172.620571 
Q 945.642949 169.120571 941.440914 165.620571 
Q 945.642949 162.120571 949.844984 158.620571 
L 949.844984 158.620571 
Q 950.672621 158.620571 951.500257 158.620571 
L 951.500257 172.620571 
z
" style="fill:#ffffff;fill-opacity:0.85;stroke:#000000;stroke-linecap:round;"/>
   </g>
   <g id="patch_20">
    <path clip-path="url(#pbbea9887d6)" d="M 1029.469117 172.620571 
Q 997.280001 172.620571 965.090886 172.620571 
L 965.090886 172.620571 
Q 960.890954 169.120571 956.691022 165.620571 
Q 960.890954 162.120571 965.090886 158.620571 
L 965.090886 158.620571 
Q 997.280001 158.620571 1029.469117 158.620571 
L 1029.469117 172.620571 
z
" style="fill:#ffffff;fill-opacity:0.85;stroke:#000000;stroke-linecap:round;"/>
   </g>
   <g id="matplotlib.axis_1">
    <g id="xtick_1">
     <g id="line2d_2">
      <path clip-path="url(#pbbea9887d6)" d="M 89.027924 192.024 
L 89.027924 7.2 
" style="fill:none;stroke:#ffffff;stroke-linecap:round;"/>
     </g>
     <g id="line2d_3">
      <defs>
       <path d="M 0 0 
L 0 6 
" id="m67834f158f" style="stroke:#262626;stroke-width:1.25;"/>
      </defs>
      <g>
       <use style="fill:#262626;stroke:#262626;stroke-width:1.25;" x="89.027924" xlink:href="#m67834f158f" y="192.024"/>
      </g>
     </g>
     <g id="text_1">
      <!-- 3092000 -->
      <defs>
       <path d="M 4.203125 18.890625 
L 12.984375 20.0625 
Q 14.5 12.59375 18.140625 9.296875 
Q 21.78125 6 27 6 
Q 33.203125 6 37.46875 10.296875 
Q 41.75 14.59375 41.75 20.953125 
Q 41.75 27 37.796875 30.921875 
Q 33.84375 34.859375 27.734375 34.859375 
Q 25.25 34.859375 21.53125 33.890625 
L 22.515625 41.609375 
Q 23.390625 41.5 23.921875 41.5 
Q 29.546875 41.5 34.03125 44.421875 
Q 38.53125 47.359375 38.53125 53.46875 
Q 38.53125 58.296875 35.25 61.46875 
Q 31.984375 64.65625 26.8125 64.65625 
Q 21.6875 64.65625 18.265625 61.421875 
Q 14.84375 58.203125 13.875 51.765625 
L 5.078125 53.328125 
Q 6.6875 62.15625 12.390625 67.015625 
Q 18.109375 71.875 26.609375 71.875 
Q 32.46875 71.875 37.390625 69.359375 
Q 42.328125 66.84375 44.9375 62.5 
Q 47.5625 58.15625 47.5625 53.265625 
Q 47.5625 48.640625 45.0625 44.828125 
Q 42.578125 41.015625 37.703125 38.765625 
Q 44.046875 37.3125 47.5625 32.6875 
Q 51.078125 28.078125 51.078125 21.140625 
Q 51.078125 11.765625 44.234375 5.25 
Q 37.40625 -1.265625 26.953125 -1.265625 
Q 17.53125 -1.265625 11.296875 4.34375 
Q 5.078125 9.96875 4.203125 18.890625 
z
" id="ArialMT-51"/>
       <path d="M 4.15625 35.296875 
Q 4.15625 48 6.765625 55.734375 
Q 9.375 63.484375 14.515625 67.671875 
Q 19.671875 71.875 27.484375 71.875 
Q 33.25 71.875 37.59375 69.546875 
Q 41.9375 67.234375 44.765625 62.859375 
Q 47.609375 58.5 49.21875 52.21875 
Q 50.828125 45.953125 50.828125 35.296875 
Q 50.828125 22.703125 48.234375 14.96875 
Q 45.65625 7.234375 40.5 3 
Q 35.359375 -1.21875 27.484375 -1.21875 
Q 17.140625 -1.21875 11.234375 6.203125 
Q 4.15625 15.140625 4.15625 35.296875 
z
M 13.1875 35.296875 
Q 13.1875 17.671875 17.3125 11.828125 
Q 21.4375 6 27.484375 6 
Q 33.546875 6 37.671875 11.859375 
Q 41.796875 17.71875 41.796875 35.296875 
Q 41.796875 52.984375 37.671875 58.78125 
Q 33.546875 64.59375 27.390625 64.59375 
Q 21.34375 64.59375 17.71875 59.46875 
Q 13.1875 52.9375 13.1875 35.296875 
z
" id="ArialMT-48"/>
       <path d="M 5.46875 16.546875 
L 13.921875 17.328125 
Q 14.984375 11.375 18.015625 8.6875 
Q 21.046875 6 25.78125 6 
Q 29.828125 6 32.875 7.859375 
Q 35.9375 9.71875 37.890625 12.8125 
Q 39.84375 15.921875 41.15625 21.1875 
Q 42.484375 26.46875 42.484375 31.9375 
Q 42.484375 32.515625 42.4375 33.6875 
Q 39.796875 29.5 35.234375 26.875 
Q 30.671875 24.265625 25.34375 24.265625 
Q 16.453125 24.265625 10.296875 30.703125 
Q 4.15625 37.15625 4.15625 47.703125 
Q 4.15625 58.59375 10.578125 65.234375 
Q 17 71.875 26.65625 71.875 
Q 33.640625 71.875 39.421875 68.109375 
Q 45.21875 64.359375 48.21875 57.390625 
Q 51.21875 50.4375 51.21875 37.25 
Q 51.21875 23.53125 48.234375 15.40625 
Q 45.265625 7.28125 39.375 3.03125 
Q 33.5 -1.21875 25.59375 -1.21875 
Q 17.1875 -1.21875 11.859375 3.4375 
Q 6.546875 8.109375 5.46875 16.546875 
z
M 41.453125 48.140625 
Q 41.453125 55.71875 37.421875 60.15625 
Q 33.40625 64.59375 27.734375 64.59375 
Q 21.875 64.59375 17.53125 59.8125 
Q 13.1875 55.03125 13.1875 47.40625 
Q 13.1875 40.578125 17.3125 36.296875 
Q 21.4375 32.03125 27.484375 32.03125 
Q 33.59375 32.03125 37.515625 36.296875 
Q 41.453125 40.578125 41.453125 48.140625 
z
" id="ArialMT-57"/>
       <path d="M 50.34375 8.453125 
L 50.34375 0 
L 3.03125 0 
Q 2.9375 3.171875 4.046875 6.109375 
Q 5.859375 10.9375 9.828125 15.625 
Q 13.8125 20.3125 21.34375 26.46875 
Q 33.015625 36.03125 37.109375 41.625 
Q 41.21875 47.21875 41.21875 52.203125 
Q 41.21875 57.421875 37.46875 61 
Q 33.734375 64.59375 27.734375 64.59375 
Q 21.390625 64.59375 17.578125 60.78125 
Q 13.765625 56.984375 13.71875 50.25 
L 4.6875 51.171875 
Q 5.609375 61.28125 11.65625 66.578125 
Q 17.71875 71.875 27.9375 71.875 
Q 38.234375 71.875 44.234375 66.15625 
Q 50.25 60.453125 50.25 52 
Q 50.25 47.703125 48.484375 43.546875 
Q 46.734375 39.40625 42.65625 34.8125 
Q 38.578125 30.21875 29.109375 22.21875 
Q 21.1875 15.578125 18.9375 13.203125 
Q 16.703125 10.84375 15.234375 8.453125 
z
" id="ArialMT-50"/>
      </defs>
      <g style="fill:#262626;" transform="translate(67.618315 209.397594)scale(0.11 -0.11)">
       <use xlink:href="#ArialMT-51"/>
       <use x="55.615234" xlink:href="#ArialMT-48"/>
       <use x="111.230469" xlink:href="#ArialMT-57"/>
       <use x="166.845703" xlink:href="#ArialMT-50"/>
       <use x="222.460938" xlink:href="#ArialMT-48"/>
       <use x="278.076172" xlink:href="#ArialMT-48"/>
       <use x="333.691406" xlink:href="#ArialMT-48"/>
      </g>
     </g>
    </g>
    <g id="xtick_2">
     <g id="line2d_4">
      <path clip-path="url(#pbbea9887d6)" d="M 232.221421 192.024 
L 232.221421 7.2 
" style="fill:none;stroke:#ffffff;stroke-linecap:round;"/>
     </g>
     <g id="line2d_5">
      <g>
       <use style="fill:#262626;stroke:#262626;stroke-width:1.25;" x="232.221421" xlink:href="#m67834f158f" y="192.024"/>
      </g>
     </g>
     <g id="text_2">
      <!-- 3096000 -->
      <defs>
       <path d="M 49.75 54.046875 
L 41.015625 53.375 
Q 39.84375 58.546875 37.703125 60.890625 
Q 34.125 64.65625 28.90625 64.65625 
Q 24.703125 64.65625 21.53125 62.3125 
Q 17.390625 59.28125 14.984375 53.46875 
Q 12.59375 47.65625 12.5 36.921875 
Q 15.671875 41.75 20.265625 44.09375 
Q 24.859375 46.4375 29.890625 46.4375 
Q 38.671875 46.4375 44.84375 39.96875 
Q 51.03125 33.5 51.03125 23.25 
Q 51.03125 16.5 48.125 10.71875 
Q 45.21875 4.9375 40.140625 1.859375 
Q 35.0625 -1.21875 28.609375 -1.21875 
Q 17.625 -1.21875 10.6875 6.859375 
Q 3.765625 14.9375 3.765625 33.5 
Q 3.765625 54.25 11.421875 63.671875 
Q 18.109375 71.875 29.4375 71.875 
Q 37.890625 71.875 43.28125 67.140625 
Q 48.6875 62.40625 49.75 54.046875 
z
M 13.875 23.1875 
Q 13.875 18.65625 15.796875 14.5 
Q 17.71875 10.359375 21.1875 8.171875 
Q 24.65625 6 28.46875 6 
Q 34.03125 6 38.03125 10.484375 
Q 42.046875 14.984375 42.046875 22.703125 
Q 42.046875 30.125 38.078125 34.390625 
Q 34.125 38.671875 28.125 38.671875 
Q 22.171875 38.671875 18.015625 34.390625 
Q 13.875 30.125 13.875 23.1875 
z
" id="ArialMT-54"/>
      </defs>
      <g style="fill:#262626;" transform="translate(210.811812 209.397594)scale(0.11 -0.11)">
       <use xlink:href="#ArialMT-51"/>
       <use x="55.615234" xlink:href="#ArialMT-48"/>
       <use x="111.230469" xlink:href="#ArialMT-57"/>
       <use x="166.845703" xlink:href="#ArialMT-54"/>
       <use x="222.460938" xlink:href="#ArialMT-48"/>
       <use x="278.076172" xlink:href="#ArialMT-48"/>
       <use x="333.691406" xlink:href="#ArialMT-48"/>
      </g>
     </g>
    </g>
    <g id="xtick_3">
     <g id="line2d_6">
      <path clip-path="url(#pbbea9887d6)" d="M 375.414919 192.024 
L 375.414919 7.2 
" style="fill:none;stroke:#ffffff;stroke-linecap:round;"/>
     </g>
     <g id="line2d_7">
      <g>
       <use style="fill:#262626;stroke:#262626;stroke-width:1.25;" x="375.414919" xlink:href="#m67834f158f" y="192.024"/>
      </g>
     </g>
     <g id="text_3">
      <!-- 3100000 -->
      <defs>
       <path d="M 37.25 0 
L 28.46875 0 
L 28.46875 56 
Q 25.296875 52.984375 20.140625 49.953125 
Q 14.984375 46.921875 10.890625 45.40625 
L 10.890625 53.90625 
Q 18.265625 57.375 23.78125 62.296875 
Q 29.296875 67.234375 31.59375 71.875 
L 37.25 71.875 
z
" id="ArialMT-49"/>
      </defs>
      <g style="fill:#262626;" transform="translate(354.005309 209.397594)scale(0.11 -0.11)">
       <use xlink:href="#ArialMT-51"/>
       <use x="55.615234" xlink:href="#ArialMT-49"/>
       <use x="111.230469" xlink:href="#ArialMT-48"/>
       <use x="166.845703" xlink:href="#ArialMT-48"/>
       <use x="222.460938" xlink:href="#ArialMT-48"/>
       <use x="278.076172" xlink:href="#ArialMT-48"/>
       <use x="333.691406" xlink:href="#ArialMT-48"/>
      </g>
     </g>
    </g>
    <g id="xtick_4">
     <g id="line2d_8">
      <path clip-path="url(#pbbea9887d6)" d="M 518.608416 192.024 
L 518.608416 7.2 
" style="fill:none;stroke:#ffffff;stroke-linecap:round;"/>
     </g>
     <g id="line2d_9">
      <g>
       <use style="fill:#262626;stroke:#262626;stroke-width:1.25;" x="518.608416" xlink:href="#m67834f158f" y="192.024"/>
      </g>
     </g>
     <g id="text_4">
      <!-- 3104000 -->
      <defs>
       <path d="M 32.328125 0 
L 32.328125 17.140625 
L 1.265625 17.140625 
L 1.265625 25.203125 
L 33.9375 71.578125 
L 41.109375 71.578125 
L 41.109375 25.203125 
L 50.78125 25.203125 
L 50.78125 17.140625 
L 41.109375 17.140625 
L 41.109375 0 
z
M 32.328125 25.203125 
L 32.328125 57.46875 
L 9.90625 25.203125 
z
" id="ArialMT-52"/>
      </defs>
      <g style="fill:#262626;" transform="translate(497.198806 209.397594)scale(0.11 -0.11)">
       <use xlink:href="#ArialMT-51"/>
       <use x="55.615234" xlink:href="#ArialMT-49"/>
       <use x="111.230469" xlink:href="#ArialMT-48"/>
       <use x="166.845703" xlink:href="#ArialMT-52"/>
       <use x="222.460938" xlink:href="#ArialMT-48"/>
       <use x="278.076172" xlink:href="#ArialMT-48"/>
       <use x="333.691406" xlink:href="#ArialMT-48"/>
      </g>
     </g>
    </g>
    <g id="xtick_5">
     <g id="line2d_10">
      <path clip-path="url(#pbbea9887d6)" d="M 661.801913 192.024 
L 661.801913 7.2 
" style="fill:none;stroke:#ffffff;stroke-linecap:round;"/>
     </g>
     <g id="line2d_11">
      <g>
       <use style="fill:#262626;stroke:#262626;stroke-width:1.25;" x="661.801913" xlink:href="#m67834f158f" y="192.024"/>
      </g>
     </g>
     <g id="text_5">
      <!-- 3108000 -->
      <defs>
       <path d="M 17.671875 38.8125 
Q 12.203125 40.828125 9.5625 44.53125 
Q 6.9375 48.25 6.9375 53.421875 
Q 6.9375 61.234375 12.546875 66.546875 
Q 18.171875 71.875 27.484375 71.875 
Q 36.859375 71.875 42.578125 66.421875 
Q 48.296875 60.984375 48.296875 53.171875 
Q 48.296875 48.1875 45.671875 44.5 
Q 43.0625 40.828125 37.75 38.8125 
Q 44.34375 36.671875 47.78125 31.875 
Q 51.21875 27.09375 51.21875 20.453125 
Q 51.21875 11.28125 44.71875 5.03125 
Q 38.234375 -1.21875 27.640625 -1.21875 
Q 17.046875 -1.21875 10.546875 5.046875 
Q 4.046875 11.328125 4.046875 20.703125 
Q 4.046875 27.6875 7.59375 32.390625 
Q 11.140625 37.109375 17.671875 38.8125 
z
M 15.921875 53.71875 
Q 15.921875 48.640625 19.1875 45.40625 
Q 22.46875 42.1875 27.6875 42.1875 
Q 32.765625 42.1875 36.015625 45.375 
Q 39.265625 48.578125 39.265625 53.21875 
Q 39.265625 58.0625 35.90625 61.359375 
Q 32.5625 64.65625 27.59375 64.65625 
Q 22.5625 64.65625 19.234375 61.421875 
Q 15.921875 58.203125 15.921875 53.71875 
z
M 13.09375 20.65625 
Q 13.09375 16.890625 14.875 13.375 
Q 16.65625 9.859375 20.171875 7.921875 
Q 23.6875 6 27.734375 6 
Q 34.03125 6 38.125 10.046875 
Q 42.234375 14.109375 42.234375 20.359375 
Q 42.234375 26.703125 38.015625 30.859375 
Q 33.796875 35.015625 27.4375 35.015625 
Q 21.234375 35.015625 17.15625 30.90625 
Q 13.09375 26.8125 13.09375 20.65625 
z
" id="ArialMT-56"/>
      </defs>
      <g style="fill:#262626;" transform="translate(640.392304 209.397594)scale(0.11 -0.11)">
       <use xlink:href="#ArialMT-51"/>
       <use x="55.615234" xlink:href="#ArialMT-49"/>
       <use x="111.230469" xlink:href="#ArialMT-48"/>
       <use x="166.845703" xlink:href="#ArialMT-56"/>
       <use x="222.460938" xlink:href="#ArialMT-48"/>
       <use x="278.076172" xlink:href="#ArialMT-48"/>
       <use x="333.691406" xlink:href="#ArialMT-48"/>
      </g>
     </g>
    </g>
    <g id="xtick_6">
     <g id="line2d_12">
      <path clip-path="url(#pbbea9887d6)" d="M 804.99541 192.024 
L 804.99541 7.2 
" style="fill:none;stroke:#ffffff;stroke-linecap:round;"/>
     </g>
     <g id="line2d_13">
      <g>
       <use style="fill:#262626;stroke:#262626;stroke-width:1.25;" x="804.99541" xlink:href="#m67834f158f" y="192.024"/>
      </g>
     </g>
     <g id="text_6">
      <!-- 3112000 -->
      <g style="fill:#262626;" transform="translate(783.591817 209.397594)scale(0.11 -0.11)">
       <use xlink:href="#ArialMT-51"/>
       <use x="55.615234" xlink:href="#ArialMT-49"/>
       <use x="111.121094" xlink:href="#ArialMT-49"/>
       <use x="166.736328" xlink:href="#ArialMT-50"/>
       <use x="222.351562" xlink:href="#ArialMT-48"/>
       <use x="277.966797" xlink:href="#ArialMT-48"/>
       <use x="333.582031" xlink:href="#ArialMT-48"/>
      </g>
     </g>
    </g>
    <g id="xtick_7">
     <g id="line2d_14">
      <path clip-path="url(#pbbea9887d6)" d="M 948.188908 192.024 
L 948.188908 7.2 
" style="fill:none;stroke:#ffffff;stroke-linecap:round;"/>
     </g>
     <g id="line2d_15">
      <g>
       <use style="fill:#262626;stroke:#262626;stroke-width:1.25;" x="948.188908" xlink:href="#m67834f158f" y="192.024"/>
      </g>
     </g>
     <g id="text_7">
      <!-- 3116000 -->
      <g style="fill:#262626;" transform="translate(926.785314 209.397594)scale(0.11 -0.11)">
       <use xlink:href="#ArialMT-51"/>
       <use x="55.615234" xlink:href="#ArialMT-49"/>
       <use x="111.121094" xlink:href="#ArialMT-49"/>
       <use x="166.736328" xlink:href="#ArialMT-54"/>
       <use x="222.351562" xlink:href="#ArialMT-48"/>
       <use x="277.966797" xlink:href="#ArialMT-48"/>
       <use x="333.582031" xlink:href="#ArialMT-48"/>
      </g>
     </g>
    </g>
    <g id="xtick_8">
     <g id="line2d_16">
      <path clip-path="url(#pbbea9887d6)" d="M 1091.382405 192.024 
L 1091.382405 7.2 
" style="fill:none;stroke:#ffffff;stroke-linecap:round;"/>
     </g>
     <g id="line2d_17">
      <g>
       <use style="fill:#262626;stroke:#262626;stroke-width:1.25;" x="1091.382405" xlink:href="#m67834f158f" y="192.024"/>
      </g>
     </g>
     <g id="text_8">
      <!-- 3120000 -->
      <g style="fill:#262626;" transform="translate(1069.972796 209.397594)scale(0.11 -0.11)">
       <use xlink:href="#ArialMT-51"/>
       <use x="55.615234" xlink:href="#ArialMT-49"/>
       <use x="111.230469" xlink:href="#ArialMT-50"/>
       <use x="166.845703" xlink:href="#ArialMT-48"/>
       <use x="222.460938" xlink:href="#ArialMT-48"/>
       <use x="278.076172" xlink:href="#ArialMT-48"/>
       <use x="333.691406" xlink:href="#ArialMT-48"/>
      </g>
     </g>
    </g>
   </g>
   <g id="line2d_18">
    <path clip-path="url(#pbbea9887d6)" d="M 141.204055 112.813714 
L 141.204055 165.620571 
" style="fill:none;stroke:#1a1a1a;stroke-linecap:round;stroke-width:0.5;"/>
   </g>
   <g id="line2d_19">
    <path clip-path="url(#pbbea9887d6)" d="M 199.43011 86.410286 
L 199.43011 165.620571 
" style="fill:none;stroke:#1a1a1a;stroke-linecap:round;stroke-width:0.5;"/>
   </g>
   <g id="line2d_20">
    <path clip-path="url(#pbbea9887d6)" d="M 259.821968 112.813714 
L 259.821968 165.620571 
" style="fill:none;stroke:#1a1a1a;stroke-linecap:round;stroke-width:0.5;"/>
   </g>
   <g id="line2d_21">
    <path clip-path="url(#pbbea9887d6)" d="M 357.98111 112.813714 
L 357.98111 165.620571 
" style="fill:none;stroke:#1a1a1a;stroke-linecap:round;stroke-width:0.5;"/>
   </g>
   <g id="line2d_22">
    <path clip-path="url(#pbbea9887d6)" d="M 404.66219 86.410286 
L 404.66219 165.620571 
" style="fill:none;stroke:#1a1a1a;stroke-linecap:round;stroke-width:0.5;"/>
   </g>
   <g id="line2d_23">
    <path clip-path="url(#pbbea9887d6)" d="M 479.570289 112.813714 
L 479.570289 165.620571 
" style="fill:none;stroke:#1a1a1a;stroke-linecap:round;stroke-width:0.5;"/>
   </g>
   <g id="line2d_24">
    <path clip-path="url(#pbbea9887d6)" d="M 563.821763 86.410286 
L 563.821763 165.620571 
" style="fill:none;stroke:#1a1a1a;stroke-linecap:round;stroke-width:0.5;"/>
   </g>
   <g id="line2d_25">
    <path clip-path="url(#pbbea9887d6)" d="M 609.625783 112.813714 
L 609.625783 165.620571 
" style="fill:none;stroke:#1a1a1a;stroke-linecap:round;stroke-width:0.5;"/>
   </g>
   <g id="line2d_26">
    <path clip-path="url(#pbbea9887d6)" d="M 645.889536 60.006857 
L 645.889536 165.620571 
" style="fill:none;stroke:#1a1a1a;stroke-linecap:round;stroke-width:0.5;"/>
   </g>
   <g id="line2d_27">
    <path clip-path="url(#pbbea9887d6)" d="M 691.890447 86.410286 
L 691.890447 165.620571 
" style="fill:none;stroke:#1a1a1a;stroke-linecap:round;stroke-width:0.5;"/>
   </g>
   <g id="line2d_28">
    <path clip-path="url(#pbbea9887d6)" d="M 726.865458 112.813714 
L 726.865458 165.620571 
" style="fill:none;stroke:#1a1a1a;stroke-linecap:round;stroke-width:0.5;"/>
   </g>
   <g id="line2d_29">
    <path clip-path="url(#pbbea9887d6)" d="M 745.516411 60.006857 
L 745.516411 165.620571 
" style="fill:none;stroke:#1a1a1a;stroke-linecap:round;stroke-width:0.5;"/>
   </g>
   <g id="line2d_30">
    <path clip-path="url(#pbbea9887d6)" d="M 771.774519 33.603429 
L 771.774519 165.620571 
" style="fill:none;stroke:#1a1a1a;stroke-linecap:round;stroke-width:0.5;"/>
   </g>
   <g id="line2d_31">
    <path clip-path="url(#pbbea9887d6)" d="M 818.366103 112.813714 
L 818.366103 165.620571 
" style="fill:none;stroke:#1a1a1a;stroke-linecap:round;stroke-width:0.5;"/>
   </g>
   <g id="line2d_32">
    <path clip-path="url(#pbbea9887d6)" d="M 876.663756 86.410286 
L 876.663756 165.620571 
" style="fill:none;stroke:#1a1a1a;stroke-linecap:round;stroke-width:0.5;"/>
   </g>
   <g id="line2d_33">
    <path clip-path="url(#pbbea9887d6)" d="M 910.027841 112.813714 
L 910.027841 165.620571 
" style="fill:none;stroke:#1a1a1a;stroke-linecap:round;stroke-width:0.5;"/>
   </g>
   <g id="line2d_34">
    <path clip-path="url(#pbbea9887d6)" d="M 935.820569 60.006857 
L 935.820569 165.620571 
" style="fill:none;stroke:#1a1a1a;stroke-linecap:round;stroke-width:0.5;"/>
   </g>
   <g id="line2d_35">
    <path clip-path="url(#pbbea9887d6)" d="M 946.488485 33.603429 
L 946.488485 165.620571 
" style="fill:none;stroke:#1a1a1a;stroke-linecap:round;stroke-width:0.5;"/>
   </g>
   <g id="line2d_36">
    <path clip-path="url(#pbbea9887d6)" d="M 993.097968 86.410286 
L 993.097968 165.620571 
" style="fill:none;stroke:#1a1a1a;stroke-linecap:round;stroke-width:0.5;"/>
   </g>
   <g id="text_9">
    <g id="patch_21">
     <path d="M 107.265617 121.210667 
L 175.142492 121.210667 
Q 178.442492 121.210667 178.442492 117.910667 
L 178.442492 107.716761 
Q 178.442492 104.416761 175.142492 104.416761 
L 107.265617 104.416761 
Q 103.965617 104.416761 103.965617 107.716761 
L 103.965617 117.910667 
Q 103.965617 121.210667 107.265617 121.210667 
z
" style="fill:#ffffff;stroke:#808080;stroke-linejoin:miter;"/>
    </g>
    <!-- MASE_13300 -->
    <defs>
     <path d="M 7.421875 0 
L 7.421875 71.578125 
L 21.6875 71.578125 
L 38.625 20.90625 
Q 40.96875 13.8125 42.046875 10.296875 
Q 43.265625 14.203125 45.84375 21.78125 
L 62.984375 71.578125 
L 75.734375 71.578125 
L 75.734375 0 
L 66.609375 0 
L 66.609375 59.90625 
L 45.796875 0 
L 37.25 0 
L 16.546875 60.9375 
L 16.546875 0 
z
" id="ArialMT-77"/>
     <path d="M -0.140625 0 
L 27.34375 71.578125 
L 37.546875 71.578125 
L 66.84375 0 
L 56.0625 0 
L 47.703125 21.6875 
L 17.78125 21.6875 
L 9.90625 0 
z
M 20.515625 29.390625 
L 44.78125 29.390625 
L 37.3125 49.21875 
Q 33.890625 58.25 32.234375 64.0625 
Q 30.859375 57.171875 28.375 50.390625 
z
" id="ArialMT-65"/>
     <path d="M 4.5 23 
L 13.421875 23.78125 
Q 14.0625 18.40625 16.375 14.96875 
Q 18.703125 11.53125 23.578125 9.40625 
Q 28.46875 7.28125 34.578125 7.28125 
Q 39.984375 7.28125 44.140625 8.890625 
Q 48.296875 10.5 50.3125 13.296875 
Q 52.34375 16.109375 52.34375 19.4375 
Q 52.34375 22.796875 50.390625 25.3125 
Q 48.4375 27.828125 43.953125 29.546875 
Q 41.0625 30.671875 31.203125 33.03125 
Q 21.34375 35.40625 17.390625 37.5 
Q 12.25 40.1875 9.734375 44.15625 
Q 7.234375 48.140625 7.234375 53.078125 
Q 7.234375 58.5 10.296875 63.203125 
Q 13.375 67.921875 19.28125 70.359375 
Q 25.203125 72.796875 32.421875 72.796875 
Q 40.375 72.796875 46.453125 70.234375 
Q 52.546875 67.671875 55.8125 62.6875 
Q 59.078125 57.71875 59.328125 51.421875 
L 50.25 50.734375 
Q 49.515625 57.515625 45.28125 60.984375 
Q 41.0625 64.453125 32.8125 64.453125 
Q 24.21875 64.453125 20.28125 61.296875 
Q 16.359375 58.15625 16.359375 53.71875 
Q 16.359375 49.859375 19.140625 47.359375 
Q 21.875 44.875 33.421875 42.265625 
Q 44.96875 39.65625 49.265625 37.703125 
Q 55.515625 34.8125 58.484375 30.390625 
Q 61.46875 25.984375 61.46875 20.21875 
Q 61.46875 14.5 58.203125 9.4375 
Q 54.9375 4.390625 48.796875 1.578125 
Q 42.671875 -1.21875 35.015625 -1.21875 
Q 25.296875 -1.21875 18.71875 1.609375 
Q 12.15625 4.4375 8.421875 10.125 
Q 4.6875 15.828125 4.5 23 
z
" id="ArialMT-83"/>
     <path d="M 7.90625 0 
L 7.90625 71.578125 
L 59.671875 71.578125 
L 59.671875 63.140625 
L 17.390625 63.140625 
L 17.390625 41.21875 
L 56.984375 41.21875 
L 56.984375 32.8125 
L 17.390625 32.8125 
L 17.390625 8.453125 
L 61.328125 8.453125 
L 61.328125 0 
z
" id="ArialMT-69"/>
     <path d="M -1.515625 -19.875 
L -1.515625 -13.53125 
L 56.734375 -13.53125 
L 56.734375 -19.875 
z
" id="ArialMT-95"/>
    </defs>
    <g style="fill:#262626;" transform="translate(107.265617 115.724417)scale(0.11 -0.11)">
     <use xlink:href="#ArialMT-77"/>
     <use x="83.300781" xlink:href="#ArialMT-65"/>
     <use x="150" xlink:href="#ArialMT-83"/>
     <use x="216.699219" xlink:href="#ArialMT-69"/>
     <use x="283.398438" xlink:href="#ArialMT-95"/>
     <use x="339.013672" xlink:href="#ArialMT-49"/>
     <use x="394.628906" xlink:href="#ArialMT-51"/>
     <use x="450.244141" xlink:href="#ArialMT-51"/>
     <use x="505.859375" xlink:href="#ArialMT-48"/>
     <use x="561.474609" xlink:href="#ArialMT-48"/>
    </g>
   </g>
   <g id="text_10">
    <g id="patch_22">
     <path d="M 165.491673 94.807239 
L 233.368548 94.807239 
Q 236.668548 94.807239 236.668548 91.507239 
L 236.668548 81.313333 
Q 236.668548 78.013333 233.368548 78.013333 
L 165.491673 78.013333 
Q 162.191673 78.013333 162.191673 81.313333 
L 162.191673 91.507239 
Q 162.191673 94.807239 165.491673 94.807239 
z
" style="fill:#ffffff;stroke:#808080;stroke-linejoin:miter;"/>
    </g>
    <!-- MASE_13305 -->
    <defs>
     <path d="M 4.15625 18.75 
L 13.375 19.53125 
Q 14.40625 12.796875 18.140625 9.390625 
Q 21.875 6 27.15625 6 
Q 33.5 6 37.890625 10.78125 
Q 42.28125 15.578125 42.28125 23.484375 
Q 42.28125 31 38.0625 35.34375 
Q 33.84375 39.703125 27 39.703125 
Q 22.75 39.703125 19.328125 37.765625 
Q 15.921875 35.84375 13.96875 32.765625 
L 5.71875 33.84375 
L 12.640625 70.609375 
L 48.25 70.609375 
L 48.25 62.203125 
L 19.671875 62.203125 
L 15.828125 42.96875 
Q 22.265625 47.46875 29.34375 47.46875 
Q 38.71875 47.46875 45.15625 40.96875 
Q 51.609375 34.46875 51.609375 24.265625 
Q 51.609375 14.546875 45.953125 7.46875 
Q 39.0625 -1.21875 27.15625 -1.21875 
Q 17.390625 -1.21875 11.203125 4.25 
Q 5.03125 9.71875 4.15625 18.75 
z
" id="ArialMT-53"/>
    </defs>
    <g style="fill:#262626;" transform="translate(165.491673 89.320989)scale(0.11 -0.11)">
     <use xlink:href="#ArialMT-77"/>
     <use x="83.300781" xlink:href="#ArialMT-65"/>
     <use x="150" xlink:href="#ArialMT-83"/>
     <use x="216.699219" xlink:href="#ArialMT-69"/>
     <use x="283.398438" xlink:href="#ArialMT-95"/>
     <use x="339.013672" xlink:href="#ArialMT-49"/>
     <use x="394.628906" xlink:href="#ArialMT-51"/>
     <use x="450.244141" xlink:href="#ArialMT-51"/>
     <use x="505.859375" xlink:href="#ArialMT-48"/>
     <use x="561.474609" xlink:href="#ArialMT-53"/>
    </g>
   </g>
   <g id="text_11">
    <g id="patch_23">
     <path d="M 225.88353 121.210667 
L 293.760405 121.210667 
Q 297.060405 121.210667 297.060405 117.910667 
L 297.060405 107.716761 
Q 297.060405 104.416761 293.760405 104.416761 
L 225.88353 104.416761 
Q 222.58353 104.416761 222.58353 107.716761 
L 222.58353 117.910667 
Q 222.58353 121.210667 225.88353 121.210667 
z
" style="fill:#ffffff;stroke:#808080;stroke-linejoin:miter;"/>
    </g>
    <!-- MASE_13310 -->
    <g style="fill:#262626;" transform="translate(225.88353 115.724417)scale(0.11 -0.11)">
     <use xlink:href="#ArialMT-77"/>
     <use x="83.300781" xlink:href="#ArialMT-65"/>
     <use x="150" xlink:href="#ArialMT-83"/>
     <use x="216.699219" xlink:href="#ArialMT-69"/>
     <use x="283.398438" xlink:href="#ArialMT-95"/>
     <use x="339.013672" xlink:href="#ArialMT-49"/>
     <use x="394.628906" xlink:href="#ArialMT-51"/>
     <use x="450.244141" xlink:href="#ArialMT-51"/>
     <use x="505.859375" xlink:href="#ArialMT-49"/>
     <use x="561.474609" xlink:href="#ArialMT-48"/>
    </g>
   </g>
   <g id="text_12">
    <g id="patch_24">
     <path d="M 324.042673 121.210667 
L 391.919548 121.210667 
Q 395.219548 121.210667 395.219548 117.910667 
L 395.219548 107.716761 
Q 395.219548 104.416761 391.919548 104.416761 
L 324.042673 104.416761 
Q 320.742673 104.416761 320.742673 107.716761 
L 320.742673 117.910667 
Q 320.742673 121.210667 324.042673 121.210667 
z
" style="fill:#ffffff;stroke:#808080;stroke-linejoin:miter;"/>
    </g>
    <!-- MASE_13315 -->
    <g style="fill:#262626;" transform="translate(324.042673 115.724417)scale(0.11 -0.11)">
     <use xlink:href="#ArialMT-77"/>
     <use x="83.300781" xlink:href="#ArialMT-65"/>
     <use x="150" xlink:href="#ArialMT-83"/>
     <use x="216.699219" xlink:href="#ArialMT-69"/>
     <use x="283.398438" xlink:href="#ArialMT-95"/>
     <use x="339.013672" xlink:href="#ArialMT-49"/>
     <use x="394.628906" xlink:href="#ArialMT-51"/>
     <use x="450.244141" xlink:href="#ArialMT-51"/>
     <use x="505.859375" xlink:href="#ArialMT-49"/>
     <use x="561.474609" xlink:href="#ArialMT-53"/>
    </g>
   </g>
   <g id="text_13">
    <g id="patch_25">
     <path d="M 370.723753 94.807239 
L 438.600628 94.807239 
Q 441.900628 94.807239 441.900628 91.507239 
L 441.900628 81.313333 
Q 441.900628 78.013333 438.600628 78.013333 
L 370.723753 78.013333 
Q 367.423753 78.013333 367.423753 81.313333 
L 367.423753 91.507239 
Q 367.423753 94.807239 370.723753 94.807239 
z
" style="fill:#ffffff;stroke:#808080;stroke-linejoin:miter;"/>
    </g>
    <!-- MASE_13320 -->
    <g style="fill:#262626;" transform="translate(370.723753 89.320989)scale(0.11 -0.11)">
     <use xlink:href="#ArialMT-77"/>
     <use x="83.300781" xlink:href="#ArialMT-65"/>
     <use x="150" xlink:href="#ArialMT-83"/>
     <use x="216.699219" xlink:href="#ArialMT-69"/>
     <use x="283.398438" xlink:href="#ArialMT-95"/>
     <use x="339.013672" xlink:href="#ArialMT-49"/>
     <use x="394.628906" xlink:href="#ArialMT-51"/>
     <use x="450.244141" xlink:href="#ArialMT-51"/>
     <use x="505.859375" xlink:href="#ArialMT-50"/>
     <use x="561.474609" xlink:href="#ArialMT-48"/>
    </g>
   </g>
   <g id="text_14">
    <g id="patch_26">
     <path d="M 445.631851 121.210667 
L 513.508726 121.210667 
Q 516.808726 121.210667 516.808726 117.910667 
L 516.808726 107.716761 
Q 516.808726 104.416761 513.508726 104.416761 
L 445.631851 104.416761 
Q 442.331851 104.416761 442.331851 107.716761 
L 442.331851 117.910667 
Q 442.331851 121.210667 445.631851 121.210667 
z
" style="fill:#ffecec;stroke:#808080;stroke-linejoin:miter;"/>
    </g>
    <!-- MASE_13325 -->
    <g style="fill:#262626;" transform="translate(445.631851 115.724417)scale(0.11 -0.11)">
     <use xlink:href="#ArialMT-77"/>
     <use x="83.300781" xlink:href="#ArialMT-65"/>
     <use x="150" xlink:href="#ArialMT-83"/>
     <use x="216.699219" xlink:href="#ArialMT-69"/>
     <use x="283.398438" xlink:href="#ArialMT-95"/>
     <use x="339.013672" xlink:href="#ArialMT-49"/>
     <use x="394.628906" xlink:href="#ArialMT-51"/>
     <use x="450.244141" xlink:href="#ArialMT-51"/>
     <use x="505.859375" xlink:href="#ArialMT-50"/>
     <use x="561.474609" xlink:href="#ArialMT-53"/>
    </g>
   </g>
   <g id="text_15">
    <g id="patch_27">
     <path d="M 529.883325 94.807239 
L 597.7602 94.807239 
Q 601.0602 94.807239 601.0602 91.507239 
L 601.0602 81.313333 
Q 601.0602 78.013333 597.7602 78.013333 
L 529.883325 78.013333 
Q 526.583325 78.013333 526.583325 81.313333 
L 526.583325 91.507239 
Q 526.583325 94.807239 529.883325 94.807239 
z
" style="fill:#ffffff;stroke:#808080;stroke-linejoin:miter;"/>
    </g>
    <!-- MASE_13330 -->
    <g style="fill:#262626;" transform="translate(529.883325 89.320989)scale(0.11 -0.11)">
     <use xlink:href="#ArialMT-77"/>
     <use x="83.300781" xlink:href="#ArialMT-65"/>
     <use x="150" xlink:href="#ArialMT-83"/>
     <use x="216.699219" xlink:href="#ArialMT-69"/>
     <use x="283.398438" xlink:href="#ArialMT-95"/>
     <use x="339.013672" xlink:href="#ArialMT-49"/>
     <use x="394.628906" xlink:href="#ArialMT-51"/>
     <use x="450.244141" xlink:href="#ArialMT-51"/>
     <use x="505.859375" xlink:href="#ArialMT-51"/>
     <use x="561.474609" xlink:href="#ArialMT-48"/>
    </g>
   </g>
   <g id="text_16">
    <g id="patch_28">
     <path d="M 575.687345 121.210667 
L 643.56422 121.210667 
Q 646.86422 121.210667 646.86422 117.910667 
L 646.86422 107.716761 
Q 646.86422 104.416761 643.56422 104.416761 
L 575.687345 104.416761 
Q 572.387345 104.416761 572.387345 107.716761 
L 572.387345 117.910667 
Q 572.387345 121.210667 575.687345 121.210667 
z
" style="fill:#ffffff;stroke:#808080;stroke-linejoin:miter;"/>
    </g>
    <!-- MASE_13335 -->
    <g style="fill:#262626;" transform="translate(575.687345 115.724417)scale(0.11 -0.11)">
     <use xlink:href="#ArialMT-77"/>
     <use x="83.300781" xlink:href="#ArialMT-65"/>
     <use x="150" xlink:href="#ArialMT-83"/>
     <use x="216.699219" xlink:href="#ArialMT-69"/>
     <use x="283.398438" xlink:href="#ArialMT-95"/>
     <use x="339.013672" xlink:href="#ArialMT-49"/>
     <use x="394.628906" xlink:href="#ArialMT-51"/>
     <use x="450.244141" xlink:href="#ArialMT-51"/>
     <use x="505.859375" xlink:href="#ArialMT-51"/>
     <use x="561.474609" xlink:href="#ArialMT-53"/>
    </g>
   </g>
   <g id="text_17">
    <g id="patch_29">
     <path d="M 611.951098 68.40381 
L 679.827973 68.40381 
Q 683.127973 68.40381 683.127973 65.10381 
L 683.127973 54.909904 
Q 683.127973 51.609904 679.827973 51.609904 
L 611.951098 51.609904 
Q 608.651098 51.609904 608.651098 54.909904 
L 608.651098 65.10381 
Q 608.651098 68.40381 611.951098 68.40381 
z
" style="fill:#ffffff;stroke:#808080;stroke-linejoin:miter;"/>
    </g>
    <!-- MASE_13340 -->
    <g style="fill:#262626;" transform="translate(611.951098 62.91756)scale(0.11 -0.11)">
     <use xlink:href="#ArialMT-77"/>
     <use x="83.300781" xlink:href="#ArialMT-65"/>
     <use x="150" xlink:href="#ArialMT-83"/>
     <use x="216.699219" xlink:href="#ArialMT-69"/>
     <use x="283.398438" xlink:href="#ArialMT-95"/>
     <use x="339.013672" xlink:href="#ArialMT-49"/>
     <use x="394.628906" xlink:href="#ArialMT-51"/>
     <use x="450.244141" xlink:href="#ArialMT-51"/>
     <use x="505.859375" xlink:href="#ArialMT-52"/>
     <use x="561.474609" xlink:href="#ArialMT-48"/>
    </g>
   </g>
   <g id="text_18">
    <g id="patch_30">
     <path d="M 657.952009 94.807239 
L 725.828884 94.807239 
Q 729.128884 94.807239 729.128884 91.507239 
L 729.128884 81.313333 
Q 729.128884 78.013333 725.828884 78.013333 
L 657.952009 78.013333 
Q 654.652009 78.013333 654.652009 81.313333 
L 654.652009 91.507239 
Q 654.652009 94.807239 657.952009 94.807239 
z
" style="fill:#ffffff;stroke:#808080;stroke-linejoin:miter;"/>
    </g>
    <!-- MASE_13345 -->
    <g style="fill:#262626;" transform="translate(657.952009 89.320989)scale(0.11 -0.11)">
     <use xlink:href="#ArialMT-77"/>
     <use x="83.300781" xlink:href="#ArialMT-65"/>
     <use x="150" xlink:href="#ArialMT-83"/>
     <use x="216.699219" xlink:href="#ArialMT-69"/>
     <use x="283.398438" xlink:href="#ArialMT-95"/>
     <use x="339.013672" xlink:href="#ArialMT-49"/>
     <use x="394.628906" xlink:href="#ArialMT-51"/>
     <use x="450.244141" xlink:href="#ArialMT-51"/>
     <use x="505.859375" xlink:href="#ArialMT-52"/>
     <use x="561.474609" xlink:href="#ArialMT-53"/>
    </g>
   </g>
   <g id="text_19">
    <g id="patch_31">
     <path d="M 692.927021 121.210667 
L 760.803896 121.210667 
Q 764.103896 121.210667 764.103896 117.910667 
L 764.103896 107.716761 
Q 764.103896 104.416761 760.803896 104.416761 
L 692.927021 104.416761 
Q 689.627021 104.416761 689.627021 107.716761 
L 689.627021 117.910667 
Q 689.627021 121.210667 692.927021 121.210667 
z
" style="fill:#ffffff;stroke:#808080;stroke-linejoin:miter;"/>
    </g>
    <!-- MASE_13350 -->
    <g style="fill:#262626;" transform="translate(692.927021 115.724417)scale(0.11 -0.11)">
     <use xlink:href="#ArialMT-77"/>
     <use x="83.300781" xlink:href="#ArialMT-65"/>
     <use x="150" xlink:href="#ArialMT-83"/>
     <use x="216.699219" xlink:href="#ArialMT-69"/>
     <use x="283.398438" xlink:href="#ArialMT-95"/>
     <use x="339.013672" xlink:href="#ArialMT-49"/>
     <use x="394.628906" xlink:href="#ArialMT-51"/>
     <use x="450.244141" xlink:href="#ArialMT-51"/>
     <use x="505.859375" xlink:href="#ArialMT-53"/>
     <use x="561.474609" xlink:href="#ArialMT-48"/>
    </g>
   </g>
   <g id="text_20">
    <g id="patch_32">
     <path d="M 711.577974 68.40381 
L 779.454849 68.40381 
Q 782.754849 68.40381 782.754849 65.10381 
L 782.754849 54.909904 
Q 782.754849 51.609904 779.454849 51.609904 
L 711.577974 51.609904 
Q 708.277974 51.609904 708.277974 54.909904 
L 708.277974 65.10381 
Q 708.277974 68.40381 711.577974 68.40381 
z
" style="fill:#ffffff;stroke:#808080;stroke-linejoin:miter;"/>
    </g>
    <!-- MASE_13355 -->
    <g style="fill:#262626;" transform="translate(711.577974 62.91756)scale(0.11 -0.11)">
     <use xlink:href="#ArialMT-77"/>
     <use x="83.300781" xlink:href="#ArialMT-65"/>
     <use x="150" xlink:href="#ArialMT-83"/>
     <use x="216.699219" xlink:href="#ArialMT-69"/>
     <use x="283.398438" xlink:href="#ArialMT-95"/>
     <use x="339.013672" xlink:href="#ArialMT-49"/>
     <use x="394.628906" xlink:href="#ArialMT-51"/>
     <use x="450.244141" xlink:href="#ArialMT-51"/>
     <use x="505.859375" xlink:href="#ArialMT-53"/>
     <use x="561.474609" xlink:href="#ArialMT-53"/>
    </g>
   </g>
   <g id="text_21">
    <g id="patch_33">
     <path d="M 737.836081 42.000382 
L 805.712956 42.000382 
Q 809.012956 42.000382 809.012956 38.700382 
L 809.012956 28.506475 
Q 809.012956 25.206475 805.712956 25.206475 
L 737.836081 25.206475 
Q 734.536081 25.206475 734.536081 28.506475 
L 734.536081 38.700382 
Q 734.536081 42.000382 737.836081 42.000382 
z
" style="fill:#ffffff;stroke:#808080;stroke-linejoin:miter;"/>
    </g>
    <!-- MASE_13360 -->
    <g style="fill:#262626;" transform="translate(737.836081 36.514132)scale(0.11 -0.11)">
     <use xlink:href="#ArialMT-77"/>
     <use x="83.300781" xlink:href="#ArialMT-65"/>
     <use x="150" xlink:href="#ArialMT-83"/>
     <use x="216.699219" xlink:href="#ArialMT-69"/>
     <use x="283.398438" xlink:href="#ArialMT-95"/>
     <use x="339.013672" xlink:href="#ArialMT-49"/>
     <use x="394.628906" xlink:href="#ArialMT-51"/>
     <use x="450.244141" xlink:href="#ArialMT-51"/>
     <use x="505.859375" xlink:href="#ArialMT-54"/>
     <use x="561.474609" xlink:href="#ArialMT-48"/>
    </g>
   </g>
   <g id="text_22">
    <g id="patch_34">
     <path d="M 784.427666 121.210667 
L 852.304541 121.210667 
Q 855.604541 121.210667 855.604541 117.910667 
L 855.604541 107.716761 
Q 855.604541 104.416761 852.304541 104.416761 
L 784.427666 104.416761 
Q 781.127666 104.416761 781.127666 107.716761 
L 781.127666 117.910667 
Q 781.127666 121.210667 784.427666 121.210667 
z
" style="fill:#ffffff;stroke:#808080;stroke-linejoin:miter;"/>
    </g>
    <!-- MASE_13365 -->
    <g style="fill:#262626;" transform="translate(784.427666 115.724417)scale(0.11 -0.11)">
     <use xlink:href="#ArialMT-77"/>
     <use x="83.300781" xlink:href="#ArialMT-65"/>
     <use x="150" xlink:href="#ArialMT-83"/>
     <use x="216.699219" xlink:href="#ArialMT-69"/>
     <use x="283.398438" xlink:href="#ArialMT-95"/>
     <use x="339.013672" xlink:href="#ArialMT-49"/>
     <use x="394.628906" xlink:href="#ArialMT-51"/>
     <use x="450.244141" xlink:href="#ArialMT-51"/>
     <use x="505.859375" xlink:href="#ArialMT-54"/>
     <use x="561.474609" xlink:href="#ArialMT-53"/>
    </g>
   </g>
   <g id="text_23">
    <g id="patch_35">
     <path d="M 842.725318 94.807239 
L 910.602193 94.807239 
Q 913.902193 94.807239 913.902193 91.507239 
L 913.902193 81.313333 
Q 913.902193 78.013333 910.602193 78.013333 
L 842.725318 78.013333 
Q 839.425318 78.013333 839.425318 81.313333 
L 839.425318 91.507239 
Q 839.425318 94.807239 842.725318 94.807239 
z
" style="fill:#ffffff;stroke:#808080;stroke-linejoin:miter;"/>
    </g>
    <!-- MASE_13370 -->
    <defs>
     <path d="M 4.734375 62.203125 
L 4.734375 70.65625 
L 51.078125 70.65625 
L 51.078125 63.8125 
Q 44.234375 56.546875 37.515625 44.484375 
Q 30.8125 32.421875 27.15625 19.671875 
Q 24.515625 10.6875 23.78125 0 
L 14.75 0 
Q 14.890625 8.453125 18.0625 20.40625 
Q 21.234375 32.375 27.171875 43.484375 
Q 33.109375 54.59375 39.796875 62.203125 
z
" id="ArialMT-55"/>
    </defs>
    <g style="fill:#262626;" transform="translate(842.725318 89.320989)scale(0.11 -0.11)">
     <use xlink:href="#ArialMT-77"/>
     <use x="83.300781" xlink:href="#ArialMT-65"/>
     <use x="150" xlink:href="#ArialMT-83"/>
     <use x="216.699219" xlink:href="#ArialMT-69"/>
     <use x="283.398438" xlink:href="#ArialMT-95"/>
     <use x="339.013672" xlink:href="#ArialMT-49"/>
     <use x="394.628906" xlink:href="#ArialMT-51"/>
     <use x="450.244141" xlink:href="#ArialMT-51"/>
     <use x="505.859375" xlink:href="#ArialMT-55"/>
     <use x="561.474609" xlink:href="#ArialMT-48"/>
    </g>
   </g>
   <g id="text_24">
    <g id="patch_36">
     <path d="M 876.089403 121.210667 
L 943.966278 121.210667 
Q 947.266278 121.210667 947.266278 117.910667 
L 947.266278 107.716761 
Q 947.266278 104.416761 943.966278 104.416761 
L 876.089403 104.416761 
Q 872.789403 104.416761 872.789403 107.716761 
L 872.789403 117.910667 
Q 872.789403 121.210667 876.089403 121.210667 
z
" style="fill:#ffffff;stroke:#808080;stroke-linejoin:miter;"/>
    </g>
    <!-- MASE_13375 -->
    <g style="fill:#262626;" transform="translate(876.089403 115.724417)scale(0.11 -0.11)">
     <use xlink:href="#ArialMT-77"/>
     <use x="83.300781" xlink:href="#ArialMT-65"/>
     <use x="150" xlink:href="#ArialMT-83"/>
     <use x="216.699219" xlink:href="#ArialMT-69"/>
     <use x="283.398438" xlink:href="#ArialMT-95"/>
     <use x="339.013672" xlink:href="#ArialMT-49"/>
     <use x="394.628906" xlink:href="#ArialMT-51"/>
     <use x="450.244141" xlink:href="#ArialMT-51"/>
     <use x="505.859375" xlink:href="#ArialMT-55"/>
     <use x="561.474609" xlink:href="#ArialMT-53"/>
    </g>
   </g>
   <g id="text_25">
    <g id="patch_37">
     <path d="M 901.882132 68.40381 
L 969.759007 68.40381 
Q 973.059007 68.40381 973.059007 65.10381 
L 973.059007 54.909904 
Q 973.059007 51.609904 969.759007 51.609904 
L 901.882132 51.609904 
Q 898.582132 51.609904 898.582132 54.909904 
L 898.582132 65.10381 
Q 898.582132 68.40381 901.882132 68.40381 
z
" style="fill:#ffffff;stroke:#808080;stroke-linejoin:miter;"/>
    </g>
    <!-- MASE_13380 -->
    <g style="fill:#262626;" transform="translate(901.882132 62.91756)scale(0.11 -0.11)">
     <use xlink:href="#ArialMT-77"/>
     <use x="83.300781" xlink:href="#ArialMT-65"/>
     <use x="150" xlink:href="#ArialMT-83"/>
     <use x="216.699219" xlink:href="#ArialMT-69"/>
     <use x="283.398438" xlink:href="#ArialMT-95"/>
     <use x="339.013672" xlink:href="#ArialMT-49"/>
     <use x="394.628906" xlink:href="#ArialMT-51"/>
     <use x="450.244141" xlink:href="#ArialMT-51"/>
     <use x="505.859375" xlink:href="#ArialMT-56"/>
     <use x="561.474609" xlink:href="#ArialMT-48"/>
    </g>
   </g>
   <g id="text_26">
    <g id="patch_38">
     <path d="M 912.550047 42.000382 
L 980.426922 42.000382 
Q 983.726922 42.000382 983.726922 38.700382 
L 983.726922 28.506475 
Q 983.726922 25.206475 980.426922 25.206475 
L 912.550047 25.206475 
Q 909.250047 25.206475 909.250047 28.506475 
L 909.250047 38.700382 
Q 909.250047 42.000382 912.550047 42.000382 
z
" style="fill:#ffffff;stroke:#808080;stroke-linejoin:miter;"/>
    </g>
    <!-- MASE_13385 -->
    <g style="fill:#262626;" transform="translate(912.550047 36.514132)scale(0.11 -0.11)">
     <use xlink:href="#ArialMT-77"/>
     <use x="83.300781" xlink:href="#ArialMT-65"/>
     <use x="150" xlink:href="#ArialMT-83"/>
     <use x="216.699219" xlink:href="#ArialMT-69"/>
     <use x="283.398438" xlink:href="#ArialMT-95"/>
     <use x="339.013672" xlink:href="#ArialMT-49"/>
     <use x="394.628906" xlink:href="#ArialMT-51"/>
     <use x="450.244141" xlink:href="#ArialMT-51"/>
     <use x="505.859375" xlink:href="#ArialMT-56"/>
     <use x="561.474609" xlink:href="#ArialMT-53"/>
    </g>
   </g>
   <g id="text_27">
    <g id="patch_39">
     <path d="M 959.159531 94.807239 
L 1027.036406 94.807239 
Q 1030.336406 94.807239 1030.336406 91.507239 
L 1030.336406 81.313333 
Q 1030.336406 78.013333 1027.036406 78.013333 
L 959.159531 78.013333 
Q 955.859531 78.013333 955.859531 81.313333 
L 955.859531 91.507239 
Q 955.859531 94.807239 959.159531 94.807239 
z
" style="fill:#ffffff;stroke:#808080;stroke-linejoin:miter;"/>
    </g>
    <!-- MASE_13390 -->
    <g style="fill:#262626;" transform="translate(959.159531 89.320989)scale(0.11 -0.11)">
     <use xlink:href="#ArialMT-77"/>
     <use x="83.300781" xlink:href="#ArialMT-65"/>
     <use x="150" xlink:href="#ArialMT-83"/>
     <use x="216.699219" xlink:href="#ArialMT-69"/>
     <use x="283.398438" xlink:href="#ArialMT-95"/>
     <use x="339.013672" xlink:href="#ArialMT-49"/>
     <use x="394.628906" xlink:href="#ArialMT-51"/>
     <use x="450.244141" xlink:href="#ArialMT-51"/>
     <use x="505.859375" xlink:href="#ArialMT-57"/>
     <use x="561.474609" xlink:href="#ArialMT-48"/>
    </g>
   </g>
  </g>
 </g>
 <defs>
  <clipPath id="pbbea9887d6">
   <rect height="184.824" width="1116" x="7.2" y="7.2"/>
  </clipPath>
 </defs>
</svg>
