<?xml version="1.0" encoding="utf-8" standalone="no"?>
<!DOCTYPE svg PUBLIC "-//W3C//DTD SVG 1.1//EN"
  "http://www.w3.org/Graphics/SVG/1.1/DTD/svg11.dtd">
<!-- Created with matplotlib (https://matplotlib.org/) -->
<svg height="218.783844pt" version="1.1" viewBox="0 0 1156.961971 218.783844" width="1156.961971pt" xmlns="http://www.w3.org/2000/svg" xmlns:xlink="http://www.w3.org/1999/xlink">
 <defs>
  <style type="text/css">
*{stroke-linecap:butt;stroke-linejoin:round;}
  </style>
 </defs>
 <g id="figure_1">
  <g id="patch_1">
   <path d="M 0 218.783844 
L 1156.961971 218.783844 
L 1156.961971 0 
L 0 0 
z
" style="fill:#ffffff;"/>
  </g>
  <g id="axes_1">
   <g id="line2d_1">
    <path clip-path="url(#pc5e5191516)" d="M 26.718852 165.620571 
L 1142.718852 165.620571 
" style="fill:none;stroke:#1a1a1a;stroke-linecap:round;stroke-width:1.5;"/>
   </g>
   <g id="patch_2">
    <path clip-path="url(#pc5e5191516)" d="M 27.069676 158.620571 
Q 36.92003 158.620571 46.770384 158.620571 
L 46.770384 158.620571 
Q 50.970892 162.120571 55.1714 165.620571 
Q 50.970892 169.120571 46.770384 172.620571 
L 46.770384 172.620571 
Q 36.92003 172.620571 27.069676 172.620571 
L 27.069676 158.620571 
z
" style="fill:#ffffff;fill-opacity:0.85;stroke:#000000;stroke-linecap:round;"/>
   </g>
   <g id="patch_3">
    <path clip-path="url(#pc5e5191516)" d="M 73.714958 172.620571 
Q 73.423196 172.620571 73.131434 172.620571 
L 73.131434 172.620571 
Q 68.9305 169.120571 64.729566 165.620571 
Q 68.9305 162.120571 73.131434 158.620571 
L 73.131434 158.620571 
Q 73.423196 158.620571 73.714958 158.620571 
L 73.714958 172.620571 
z
" style="fill:#ffffff;fill-opacity:0.85;stroke:#000000;stroke-linecap:round;"/>
   </g>
   <g id="patch_4">
    <path clip-path="url(#pc5e5191516)" d="M 80.624044 158.620571 
Q 85.106598 158.620571 89.589151 158.620571 
L 89.589151 158.620571 
Q 93.787704 162.120571 97.986256 165.620571 
Q 93.787704 169.120571 89.589151 172.620571 
L 89.589151 172.620571 
Q 85.106598 172.620571 80.624044 172.620571 
L 80.624044 158.620571 
z
" style="fill:#ffffff;fill-opacity:0.85;stroke:#000000;stroke-linecap:round;"/>
   </g>
   <g id="patch_5">
    <path clip-path="url(#pc5e5191516)" d="M 104.394165 158.620571 
Q 142.221036 158.620571 180.047907 158.620571 
L 180.047907 158.620571 
Q 184.248327 162.120571 188.448748 165.620571 
Q 184.248327 169.120571 180.047907 172.620571 
L 180.047907 172.620571 
Q 142.221036 172.620571 104.394165 172.620571 
L 104.394165 158.620571 
z
" style="fill:#ffffff;fill-opacity:0.85;stroke:#000000;stroke-linecap:round;"/>
   </g>
   <g id="patch_6">
    <path clip-path="url(#pc5e5191516)" d="M 245.582953 172.620571 
Q 223.27287 172.620571 200.962786 172.620571 
L 200.962786 172.620571 
Q 196.764173 169.120571 192.565561 165.620571 
Q 196.764173 162.120571 200.962786 158.620571 
L 200.962786 158.620571 
Q 223.27287 158.620571 245.582953 158.620571 
L 245.582953 172.620571 
z
" style="fill:#ffffff;fill-opacity:0.85;stroke:#000000;stroke-linecap:round;"/>
   </g>
   <g id="patch_7">
    <path clip-path="url(#pc5e5191516)" d="M 283.207045 172.620571 
Q 268.899227 172.620571 254.59141 172.620571 
L 254.59141 172.620571 
Q 250.391468 169.120571 246.191526 165.620571 
Q 250.391468 162.120571 254.59141 158.620571 
L 254.59141 158.620571 
Q 268.899227 158.620571 283.207045 158.620571 
L 283.207045 172.620571 
z
" style="fill:#ffffff;fill-opacity:0.85;stroke:#000000;stroke-linecap:round;"/>
   </g>
   <g id="patch_8">
    <path clip-path="url(#pc5e5191516)" d="M 302.072788 172.620571 
Q 297.056405 172.620571 292.040023 172.620571 
L 292.040023 172.620571 
Q 287.838324 169.120571 283.636625 165.620571 
Q 287.838324 162.120571 292.040023 158.620571 
L 292.040023 158.620571 
Q 297.056405 158.620571 302.072788 158.620571 
L 302.072788 172.620571 
z
" style="fill:#ffffff;fill-opacity:0.85;stroke:#000000;stroke-linecap:round;"/>
   </g>
   <g id="patch_9">
    <path clip-path="url(#pc5e5191516)" d="M 310.150603 146.217143 
Q 305.950603 142.717143 301.750603 139.217143 
Q 305.950603 135.717143 310.150603 132.217143 
z
" style="fill:#ffffff;fill-opacity:0.85;stroke:#000000;stroke-linecap:round;"/>
   </g>
   <g id="patch_10">
    <path clip-path="url(#pc5e5191516)" d="M 425.469784 172.620571 
Q 375.292189 172.620571 325.114594 172.620571 
L 325.114594 172.620571 
Q 320.914458 169.120571 316.714323 165.620571 
Q 320.914458 162.120571 325.114594 158.620571 
L 325.114594 158.620571 
Q 375.292189 158.620571 425.469784 158.620571 
L 425.469784 172.620571 
z
" style="fill:#ff0000;fill-opacity:0.85;stroke:#000000;stroke-linecap:round;"/>
   </g>
   <g id="patch_11">
    <path clip-path="url(#pc5e5191516)" d="M 479.167346 172.620571 
Q 461.960655 172.620571 444.753965 172.620571 
L 444.753965 172.620571 
Q 440.553227 169.120571 436.35249 165.620571 
Q 440.553227 162.120571 444.753965 158.620571 
L 444.753965 158.620571 
Q 461.960655 158.620571 479.167346 158.620571 
L 479.167346 172.620571 
z
" style="fill:#ffffff;fill-opacity:0.85;stroke:#000000;stroke-linecap:round;"/>
   </g>
   <g id="patch_12">
    <path clip-path="url(#pc5e5191516)" d="M 487.400972 158.620571 
Q 509.711055 158.620571 532.021139 158.620571 
L 532.021139 158.620571 
Q 536.219752 162.120571 540.418364 165.620571 
Q 536.219752 169.120571 532.021139 172.620571 
L 532.021139 172.620571 
Q 509.711055 172.620571 487.400972 172.620571 
L 487.400972 158.620571 
z
" style="fill:#ffffff;fill-opacity:0.85;stroke:#000000;stroke-linecap:round;"/>
   </g>
   <g id="patch_13">
    <path clip-path="url(#pc5e5191516)" d="M 540.812146 158.620571 
Q 555.014478 158.620571 569.21681 158.620571 
L 569.21681 158.620571 
Q 573.414843 162.120571 577.612875 165.620571 
Q 573.414843 169.120571 569.21681 172.620571 
L 569.21681 172.620571 
Q 555.014478 172.620571 540.812146 172.620571 
L 540.812146 158.620571 
z
" style="fill:#ffffff;fill-opacity:0.85;stroke:#000000;stroke-linecap:round;"/>
   </g>
   <g id="patch_14">
    <path clip-path="url(#pc5e5191516)" d="M 584.641974 158.620571 
Q 588.841974 162.120571 593.041974 165.620571 
Q 588.841974 169.120571 584.641974 172.620571 
z
" style="fill:#ffffff;fill-opacity:0.85;stroke:#000000;stroke-linecap:round;"/>
   </g>
   <g id="patch_15">
    <path clip-path="url(#pc5e5191516)" d="M 697.143647 172.620571 
Q 649.86483 172.620571 602.586012 172.620571 
L 602.586012 172.620571 
Q 598.386767 169.120571 594.187522 165.620571 
Q 598.386767 162.120571 602.586012 158.620571 
L 602.586012 158.620571 
Q 649.86483 158.620571 697.143647 158.620571 
L 697.143647 172.620571 
z
" style="fill:#ffffff;fill-opacity:0.85;stroke:#000000;stroke-linecap:round;"/>
   </g>
   <g id="patch_16">
    <path clip-path="url(#pc5e5191516)" d="M 778.11957 172.620571 
Q 747.700786 172.620571 717.282002 172.620571 
L 717.282002 172.620571 
Q 713.083758 169.120571 708.885514 165.620571 
Q 713.083758 162.120571 717.282002 158.620571 
L 717.282002 158.620571 
Q 747.700786 158.620571 778.11957 158.620571 
L 778.11957 172.620571 
z
" style="fill:#ffffff;fill-opacity:0.85;stroke:#000000;stroke-linecap:round;"/>
   </g>
   <g id="patch_17">
    <path clip-path="url(#pc5e5191516)" d="M 786.424792 158.620571 
Q 794.824965 158.620571 803.225137 158.620571 
L 803.225137 158.620571 
Q 807.425993 162.120571 811.626848 165.620571 
Q 807.425993 169.120571 803.225137 172.620571 
L 803.225137 172.620571 
Q 794.824965 172.620571 786.424792 172.620571 
L 786.424792 158.620571 
z
" style="fill:#ffffff;fill-opacity:0.85;stroke:#000000;stroke-linecap:round;"/>
   </g>
   <g id="patch_18">
    <path clip-path="url(#pc5e5191516)" d="M 811.80584 158.620571 
Q 864.293997 158.620571 916.782155 158.620571 
L 916.782155 158.620571 
Q 920.980723 162.120571 925.179291 165.620571 
Q 920.980723 169.120571 916.782155 172.620571 
L 916.782155 172.620571 
Q 864.293997 172.620571 811.80584 172.620571 
L 811.80584 158.620571 
z
" style="fill:#ffffff;fill-opacity:0.85;stroke:#000000;stroke-linecap:round;"/>
   </g>
   <g id="patch_19">
    <path clip-path="url(#pc5e5191516)" d="M 963.73414 172.620571 
Q 950.391948 172.620571 937.049756 172.620571 
L 937.049756 172.620571 
Q 932.850745 169.120571 928.651734 165.620571 
Q 932.850745 162.120571 937.049756 158.620571 
L 937.049756 158.620571 
Q 950.391948 158.620571 963.73414 158.620571 
L 963.73414 172.620571 
z
" style="fill:#ffffff;fill-opacity:0.85;stroke:#000000;stroke-linecap:round;"/>
   </g>
   <g id="patch_20">
    <path clip-path="url(#pc5e5191516)" d="M 1038.123162 172.620571 
Q 1006.254268 172.620571 974.385374 172.620571 
L 974.385374 172.620571 
Q 970.187406 169.120571 965.989438 165.620571 
Q 970.187406 162.120571 974.385374 158.620571 
L 974.385374 158.620571 
Q 1006.254268 158.620571 1038.123162 158.620571 
L 1038.123162 172.620571 
z
" style="fill:#ffffff;fill-opacity:0.85;stroke:#000000;stroke-linecap:round;"/>
   </g>
   <g id="patch_21">
    <path clip-path="url(#pc5e5191516)" d="M 1089.100047 172.620571 
Q 1069.691478 172.620571 1050.282909 172.620571 
L 1050.282909 172.620571 
Q 1046.08245 169.120571 1041.881992 165.620571 
Q 1046.08245 162.120571 1050.282909 158.620571 
L 1050.282909 158.620571 
Q 1069.691478 158.620571 1089.100047 158.620571 
L 1089.100047 172.620571 
z
" style="fill:#ffffff;fill-opacity:0.85;stroke:#000000;stroke-linecap:round;"/>
   </g>
   <g id="patch_22">
    <path clip-path="url(#pc5e5191516)" d="M 1142.368028 172.620571 
Q 1120.006267 172.620571 1097.644506 172.620571 
L 1097.644506 172.620571 
Q 1093.443873 169.120571 1089.243241 165.620571 
Q 1093.443873 162.120571 1097.644506 158.620571 
L 1097.644506 158.620571 
Q 1120.006267 158.620571 1142.368028 158.620571 
L 1142.368028 172.620571 
z
" style="fill:#ffffff;fill-opacity:0.85;stroke:#000000;stroke-linecap:round;"/>
   </g>
   <g id="matplotlib.axis_1">
    <g id="xtick_1">
     <g id="line2d_2">
      <path clip-path="url(#pc5e5191516)" d="M 84.006991 192.024 
L 84.006991 7.2 
" style="fill:none;stroke:#ffffff;stroke-linecap:round;"/>
     </g>
     <g id="line2d_3">
      <defs>
       <path d="M 0 0 
L 0 6 
" id="m12ad366149" style="stroke:#262626;stroke-width:1.25;"/>
      </defs>
      <g>
       <use style="fill:#262626;stroke:#262626;stroke-width:1.25;" x="84.006991" xlink:href="#m12ad366149" y="192.024"/>
      </g>
     </g>
     <g id="text_1">
      <!-- 4472000 -->
      <defs>
       <path d="M 32.328125 0 
L 32.328125 17.140625 
L 1.265625 17.140625 
L 1.265625 25.203125 
L 33.9375 71.578125 
L 41.109375 71.578125 
L 41.109375 25.203125 
L 50.78125 25.203125 
L 50.78125 17.140625 
L 41.109375 17.140625 
L 41.109375 0 
z
M 32.328125 25.203125 
L 32.328125 57.46875 
L 9.90625 25.203125 
z
" id="ArialMT-52"/>
       <path d="M 4.734375 62.203125 
L 4.734375 70.65625 
L 51.078125 70.65625 
L 51.078125 63.8125 
Q 44.234375 56.546875 37.515625 44.484375 
Q 30.8125 32.421875 27.15625 19.671875 
Q 24.515625 10.6875 23.78125 0 
L 14.75 0 
Q 14.890625 8.453125 18.0625 20.40625 
Q 21.234375 32.375 27.171875 43.484375 
Q 33.109375 54.59375 39.796875 62.203125 
z
" id="ArialMT-55"/>
       <path d="M 50.34375 8.453125 
L 50.34375 0 
L 3.03125 0 
Q 2.9375 3.171875 4.046875 6.109375 
Q 5.859375 10.9375 9.828125 15.625 
Q 13.8125 20.3125 21.34375 26.46875 
Q 33.015625 36.03125 37.109375 41.625 
Q 41.21875 47.21875 41.21875 52.203125 
Q 41.21875 57.421875 37.46875 61 
Q 33.734375 64.59375 27.734375 64.59375 
Q 21.390625 64.59375 17.578125 60.78125 
Q 13.765625 56.984375 13.71875 50.25 
L 4.6875 51.171875 
Q 5.609375 61.28125 11.65625 66.578125 
Q 17.71875 71.875 27.9375 71.875 
Q 38.234375 71.875 44.234375 66.15625 
Q 50.25 60.453125 50.25 52 
Q 50.25 47.703125 48.484375 43.546875 
Q 46.734375 39.40625 42.65625 34.8125 
Q 38.578125 30.21875 29.109375 22.21875 
Q 21.1875 15.578125 18.9375 13.203125 
Q 16.703125 10.84375 15.234375 8.453125 
z
" id="ArialMT-50"/>
       <path d="M 4.15625 35.296875 
Q 4.15625 48 6.765625 55.734375 
Q 9.375 63.484375 14.515625 67.671875 
Q 19.671875 71.875 27.484375 71.875 
Q 33.25 71.875 37.59375 69.546875 
Q 41.9375 67.234375 44.765625 62.859375 
Q 47.609375 58.5 49.21875 52.21875 
Q 50.828125 45.953125 50.828125 35.296875 
Q 50.828125 22.703125 48.234375 14.96875 
Q 45.65625 7.234375 40.5 3 
Q 35.359375 -1.21875 27.484375 -1.21875 
Q 17.140625 -1.21875 11.234375 6.203125 
Q 4.15625 15.140625 4.15625 35.296875 
z
M 13.1875 35.296875 
Q 13.1875 17.671875 17.3125 11.828125 
Q 21.4375 6 27.484375 6 
Q 33.546875 6 37.671875 11.859375 
Q 41.796875 17.71875 41.796875 35.296875 
Q 41.796875 52.984375 37.671875 58.78125 
Q 33.546875 64.59375 27.390625 64.59375 
Q 21.34375 64.59375 17.71875 59.46875 
Q 13.1875 52.9375 13.1875 35.296875 
z
" id="ArialMT-48"/>
      </defs>
      <g style="fill:#262626;" transform="translate(62.597381 209.397594)scale(0.11 -0.11)">
       <use xlink:href="#ArialMT-52"/>
       <use x="55.615234" xlink:href="#ArialMT-52"/>
       <use x="111.230469" xlink:href="#ArialMT-55"/>
       <use x="166.845703" xlink:href="#ArialMT-50"/>
       <use x="222.460938" xlink:href="#ArialMT-48"/>
       <use x="278.076172" xlink:href="#ArialMT-48"/>
       <use x="333.691406" xlink:href="#ArialMT-48"/>
      </g>
     </g>
    </g>
    <g id="xtick_2">
     <g id="line2d_4">
      <path clip-path="url(#pc5e5191516)" d="M 227.200488 192.024 
L 227.200488 7.2 
" style="fill:none;stroke:#ffffff;stroke-linecap:round;"/>
     </g>
     <g id="line2d_5">
      <g>
       <use style="fill:#262626;stroke:#262626;stroke-width:1.25;" x="227.200488" xlink:href="#m12ad366149" y="192.024"/>
      </g>
     </g>
     <g id="text_2">
      <!-- 4476000 -->
      <defs>
       <path d="M 49.75 54.046875 
L 41.015625 53.375 
Q 39.84375 58.546875 37.703125 60.890625 
Q 34.125 64.65625 28.90625 64.65625 
Q 24.703125 64.65625 21.53125 62.3125 
Q 17.390625 59.28125 14.984375 53.46875 
Q 12.59375 47.65625 12.5 36.921875 
Q 15.671875 41.75 20.265625 44.09375 
Q 24.859375 46.4375 29.890625 46.4375 
Q 38.671875 46.4375 44.84375 39.96875 
Q 51.03125 33.5 51.03125 23.25 
Q 51.03125 16.5 48.125 10.71875 
Q 45.21875 4.9375 40.140625 1.859375 
Q 35.0625 -1.21875 28.609375 -1.21875 
Q 17.625 -1.21875 10.6875 6.859375 
Q 3.765625 14.9375 3.765625 33.5 
Q 3.765625 54.25 11.421875 63.671875 
Q 18.109375 71.875 29.4375 71.875 
Q 37.890625 71.875 43.28125 67.140625 
Q 48.6875 62.40625 49.75 54.046875 
z
M 13.875 23.1875 
Q 13.875 18.65625 15.796875 14.5 
Q 17.71875 10.359375 21.1875 8.171875 
Q 24.65625 6 28.46875 6 
Q 34.03125 6 38.03125 10.484375 
Q 42.046875 14.984375 42.046875 22.703125 
Q 42.046875 30.125 38.078125 34.390625 
Q 34.125 38.671875 28.125 38.671875 
Q 22.171875 38.671875 18.015625 34.390625 
Q 13.875 30.125 13.875 23.1875 
z
" id="ArialMT-54"/>
      </defs>
      <g style="fill:#262626;" transform="translate(205.790879 209.397594)scale(0.11 -0.11)">
       <use xlink:href="#ArialMT-52"/>
       <use x="55.615234" xlink:href="#ArialMT-52"/>
       <use x="111.230469" xlink:href="#ArialMT-55"/>
       <use x="166.845703" xlink:href="#ArialMT-54"/>
       <use x="222.460938" xlink:href="#ArialMT-48"/>
       <use x="278.076172" xlink:href="#ArialMT-48"/>
       <use x="333.691406" xlink:href="#ArialMT-48"/>
      </g>
     </g>
    </g>
    <g id="xtick_3">
     <g id="line2d_6">
      <path clip-path="url(#pc5e5191516)" d="M 370.393985 192.024 
L 370.393985 7.2 
" style="fill:none;stroke:#ffffff;stroke-linecap:round;"/>
     </g>
     <g id="line2d_7">
      <g>
       <use style="fill:#262626;stroke:#262626;stroke-width:1.25;" x="370.393985" xlink:href="#m12ad366149" y="192.024"/>
      </g>
     </g>
     <g id="text_3">
      <!-- 4480000 -->
      <defs>
       <path d="M 17.671875 38.8125 
Q 12.203125 40.828125 9.5625 44.53125 
Q 6.9375 48.25 6.9375 53.421875 
Q 6.9375 61.234375 12.546875 66.546875 
Q 18.171875 71.875 27.484375 71.875 
Q 36.859375 71.875 42.578125 66.421875 
Q 48.296875 60.984375 48.296875 53.171875 
Q 48.296875 48.1875 45.671875 44.5 
Q 43.0625 40.828125 37.75 38.8125 
Q 44.34375 36.671875 47.78125 31.875 
Q 51.21875 27.09375 51.21875 20.453125 
Q 51.21875 11.28125 44.71875 5.03125 
Q 38.234375 -1.21875 27.640625 -1.21875 
Q 17.046875 -1.21875 10.546875 5.046875 
Q 4.046875 11.328125 4.046875 20.703125 
Q 4.046875 27.6875 7.59375 32.390625 
Q 11.140625 37.109375 17.671875 38.8125 
z
M 15.921875 53.71875 
Q 15.921875 48.640625 19.1875 45.40625 
Q 22.46875 42.1875 27.6875 42.1875 
Q 32.765625 42.1875 36.015625 45.375 
Q 39.265625 48.578125 39.265625 53.21875 
Q 39.265625 58.0625 35.90625 61.359375 
Q 32.5625 64.65625 27.59375 64.65625 
Q 22.5625 64.65625 19.234375 61.421875 
Q 15.921875 58.203125 15.921875 53.71875 
z
M 13.09375 20.65625 
Q 13.09375 16.890625 14.875 13.375 
Q 16.65625 9.859375 20.171875 7.921875 
Q 23.6875 6 27.734375 6 
Q 34.03125 6 38.125 10.046875 
Q 42.234375 14.109375 42.234375 20.359375 
Q 42.234375 26.703125 38.015625 30.859375 
Q 33.796875 35.015625 27.4375 35.015625 
Q 21.234375 35.015625 17.15625 30.90625 
Q 13.09375 26.8125 13.09375 20.65625 
z
" id="ArialMT-56"/>
      </defs>
      <g style="fill:#262626;" transform="translate(348.984376 209.397594)scale(0.11 -0.11)">
       <use xlink:href="#ArialMT-52"/>
       <use x="55.615234" xlink:href="#ArialMT-52"/>
       <use x="111.230469" xlink:href="#ArialMT-56"/>
       <use x="166.845703" xlink:href="#ArialMT-48"/>
       <use x="222.460938" xlink:href="#ArialMT-48"/>
       <use x="278.076172" xlink:href="#ArialMT-48"/>
       <use x="333.691406" xlink:href="#ArialMT-48"/>
      </g>
     </g>
    </g>
    <g id="xtick_4">
     <g id="line2d_8">
      <path clip-path="url(#pc5e5191516)" d="M 513.587483 192.024 
L 513.587483 7.2 
" style="fill:none;stroke:#ffffff;stroke-linecap:round;"/>
     </g>
     <g id="line2d_9">
      <g>
       <use style="fill:#262626;stroke:#262626;stroke-width:1.25;" x="513.587483" xlink:href="#m12ad366149" y="192.024"/>
      </g>
     </g>
     <g id="text_4">
      <!-- 4484000 -->
      <g style="fill:#262626;" transform="translate(492.177873 209.397594)scale(0.11 -0.11)">
       <use xlink:href="#ArialMT-52"/>
       <use x="55.615234" xlink:href="#ArialMT-52"/>
       <use x="111.230469" xlink:href="#ArialMT-56"/>
       <use x="166.845703" xlink:href="#ArialMT-52"/>
       <use x="222.460938" xlink:href="#ArialMT-48"/>
       <use x="278.076172" xlink:href="#ArialMT-48"/>
       <use x="333.691406" xlink:href="#ArialMT-48"/>
      </g>
     </g>
    </g>
    <g id="xtick_5">
     <g id="line2d_10">
      <path clip-path="url(#pc5e5191516)" d="M 656.78098 192.024 
L 656.78098 7.2 
" style="fill:none;stroke:#ffffff;stroke-linecap:round;"/>
     </g>
     <g id="line2d_11">
      <g>
       <use style="fill:#262626;stroke:#262626;stroke-width:1.25;" x="656.78098" xlink:href="#m12ad366149" y="192.024"/>
      </g>
     </g>
     <g id="text_5">
      <!-- 4488000 -->
      <g style="fill:#262626;" transform="translate(635.37137 209.397594)scale(0.11 -0.11)">
       <use xlink:href="#ArialMT-52"/>
       <use x="55.615234" xlink:href="#ArialMT-52"/>
       <use x="111.230469" xlink:href="#ArialMT-56"/>
       <use x="166.845703" xlink:href="#ArialMT-56"/>
       <use x="222.460938" xlink:href="#ArialMT-48"/>
       <use x="278.076172" xlink:href="#ArialMT-48"/>
       <use x="333.691406" xlink:href="#ArialMT-48"/>
      </g>
     </g>
    </g>
    <g id="xtick_6">
     <g id="line2d_12">
      <path clip-path="url(#pc5e5191516)" d="M 799.974477 192.024 
L 799.974477 7.2 
" style="fill:none;stroke:#ffffff;stroke-linecap:round;"/>
     </g>
     <g id="line2d_13">
      <g>
       <use style="fill:#262626;stroke:#262626;stroke-width:1.25;" x="799.974477" xlink:href="#m12ad366149" y="192.024"/>
      </g>
     </g>
     <g id="text_6">
      <!-- 4492000 -->
      <defs>
       <path d="M 5.46875 16.546875 
L 13.921875 17.328125 
Q 14.984375 11.375 18.015625 8.6875 
Q 21.046875 6 25.78125 6 
Q 29.828125 6 32.875 7.859375 
Q 35.9375 9.71875 37.890625 12.8125 
Q 39.84375 15.921875 41.15625 21.1875 
Q 42.484375 26.46875 42.484375 31.9375 
Q 42.484375 32.515625 42.4375 33.6875 
Q 39.796875 29.5 35.234375 26.875 
Q 30.671875 24.265625 25.34375 24.265625 
Q 16.453125 24.265625 10.296875 30.703125 
Q 4.15625 37.15625 4.15625 47.703125 
Q 4.15625 58.59375 10.578125 65.234375 
Q 17 71.875 26.65625 71.875 
Q 33.640625 71.875 39.421875 68.109375 
Q 45.21875 64.359375 48.21875 57.390625 
Q 51.21875 50.4375 51.21875 37.25 
Q 51.21875 23.53125 48.234375 15.40625 
Q 45.265625 7.28125 39.375 3.03125 
Q 33.5 -1.21875 25.59375 -1.21875 
Q 17.1875 -1.21875 11.859375 3.4375 
Q 6.546875 8.109375 5.46875 16.546875 
z
M 41.453125 48.140625 
Q 41.453125 55.71875 37.421875 60.15625 
Q 33.40625 64.59375 27.734375 64.59375 
Q 21.875 64.59375 17.53125 59.8125 
Q 13.1875 55.03125 13.1875 47.40625 
Q 13.1875 40.578125 17.3125 36.296875 
Q 21.4375 32.03125 27.484375 32.03125 
Q 33.59375 32.03125 37.515625 36.296875 
Q 41.453125 40.578125 41.453125 48.140625 
z
" id="ArialMT-57"/>
      </defs>
      <g style="fill:#262626;" transform="translate(778.564868 209.397594)scale(0.11 -0.11)">
       <use xlink:href="#ArialMT-52"/>
       <use x="55.615234" xlink:href="#ArialMT-52"/>
       <use x="111.230469" xlink:href="#ArialMT-57"/>
       <use x="166.845703" xlink:href="#ArialMT-50"/>
       <use x="222.460938" xlink:href="#ArialMT-48"/>
       <use x="278.076172" xlink:href="#ArialMT-48"/>
       <use x="333.691406" xlink:href="#ArialMT-48"/>
      </g>
     </g>
    </g>
    <g id="xtick_7">
     <g id="line2d_14">
      <path clip-path="url(#pc5e5191516)" d="M 943.167974 192.024 
L 943.167974 7.2 
" style="fill:none;stroke:#ffffff;stroke-linecap:round;"/>
     </g>
     <g id="line2d_15">
      <g>
       <use style="fill:#262626;stroke:#262626;stroke-width:1.25;" x="943.167974" xlink:href="#m12ad366149" y="192.024"/>
      </g>
     </g>
     <g id="text_7">
      <!-- 4496000 -->
      <g style="fill:#262626;" transform="translate(921.758365 209.397594)scale(0.11 -0.11)">
       <use xlink:href="#ArialMT-52"/>
       <use x="55.615234" xlink:href="#ArialMT-52"/>
       <use x="111.230469" xlink:href="#ArialMT-57"/>
       <use x="166.845703" xlink:href="#ArialMT-54"/>
       <use x="222.460938" xlink:href="#ArialMT-48"/>
       <use x="278.076172" xlink:href="#ArialMT-48"/>
       <use x="333.691406" xlink:href="#ArialMT-48"/>
      </g>
     </g>
    </g>
    <g id="xtick_8">
     <g id="line2d_16">
      <path clip-path="url(#pc5e5191516)" d="M 1086.361472 192.024 
L 1086.361472 7.2 
" style="fill:none;stroke:#ffffff;stroke-linecap:round;"/>
     </g>
     <g id="line2d_17">
      <g>
       <use style="fill:#262626;stroke:#262626;stroke-width:1.25;" x="1086.361472" xlink:href="#m12ad366149" y="192.024"/>
      </g>
     </g>
     <g id="text_8">
      <!-- 4500000 -->
      <defs>
       <path d="M 4.15625 18.75 
L 13.375 19.53125 
Q 14.40625 12.796875 18.140625 9.390625 
Q 21.875 6 27.15625 6 
Q 33.5 6 37.890625 10.78125 
Q 42.28125 15.578125 42.28125 23.484375 
Q 42.28125 31 38.0625 35.34375 
Q 33.84375 39.703125 27 39.703125 
Q 22.75 39.703125 19.328125 37.765625 
Q 15.921875 35.84375 13.96875 32.765625 
L 5.71875 33.84375 
L 12.640625 70.609375 
L 48.25 70.609375 
L 48.25 62.203125 
L 19.671875 62.203125 
L 15.828125 42.96875 
Q 22.265625 47.46875 29.34375 47.46875 
Q 38.71875 47.46875 45.15625 40.96875 
Q 51.609375 34.46875 51.609375 24.265625 
Q 51.609375 14.546875 45.953125 7.46875 
Q 39.0625 -1.21875 27.15625 -1.21875 
Q 17.390625 -1.21875 11.203125 4.25 
Q 5.03125 9.71875 4.15625 18.75 
z
" id="ArialMT-53"/>
      </defs>
      <g style="fill:#262626;" transform="translate(1064.951862 209.397594)scale(0.11 -0.11)">
       <use xlink:href="#ArialMT-52"/>
       <use x="55.615234" xlink:href="#ArialMT-53"/>
       <use x="111.230469" xlink:href="#ArialMT-48"/>
       <use x="166.845703" xlink:href="#ArialMT-48"/>
       <use x="222.460938" xlink:href="#ArialMT-48"/>
       <use x="278.076172" xlink:href="#ArialMT-48"/>
       <use x="333.691406" xlink:href="#ArialMT-48"/>
      </g>
     </g>
    </g>
   </g>
   <g id="line2d_18">
    <path clip-path="url(#pc5e5191516)" d="M 41.138437 112.813714 
L 41.138437 165.620571 
" style="fill:none;stroke:#1a1a1a;stroke-linecap:round;stroke-width:0.5;"/>
   </g>
   <g id="line2d_19">
    <path clip-path="url(#pc5e5191516)" d="M 69.240161 86.410286 
L 69.240161 165.620571 
" style="fill:none;stroke:#1a1a1a;stroke-linecap:round;stroke-width:0.5;"/>
   </g>
   <g id="line2d_20">
    <path clip-path="url(#pc5e5191516)" d="M 89.323049 60.006857 
L 89.323049 165.620571 
" style="fill:none;stroke:#1a1a1a;stroke-linecap:round;stroke-width:0.5;"/>
   </g>
   <g id="line2d_21">
    <path clip-path="url(#pc5e5191516)" d="M 146.439356 112.813714 
L 146.439356 165.620571 
" style="fill:none;stroke:#1a1a1a;stroke-linecap:round;stroke-width:0.5;"/>
   </g>
   <g id="line2d_22">
    <path clip-path="url(#pc5e5191516)" d="M 219.092156 86.410286 
L 219.092156 165.620571 
" style="fill:none;stroke:#1a1a1a;stroke-linecap:round;stroke-width:0.5;"/>
   </g>
   <g id="line2d_23">
    <path clip-path="url(#pc5e5191516)" d="M 264.717184 112.813714 
L 264.717184 165.620571 
" style="fill:none;stroke:#1a1a1a;stroke-linecap:round;stroke-width:0.5;"/>
   </g>
   <g id="line2d_24">
    <path clip-path="url(#pc5e5191516)" d="M 292.872606 60.006857 
L 292.872606 165.620571 
" style="fill:none;stroke:#1a1a1a;stroke-linecap:round;stroke-width:0.5;"/>
   </g>
   <g id="line2d_25">
    <path clip-path="url(#pc5e5191516)" d="M 305.77792 33.603429 
L 305.77792 139.217143 
" style="fill:none;stroke:#1a1a1a;stroke-linecap:round;stroke-width:0.5;"/>
   </g>
   <g id="line2d_26">
    <path clip-path="url(#pc5e5191516)" d="M 371.109953 112.813714 
L 371.109953 165.620571 
" style="fill:none;stroke:#1a1a1a;stroke-linecap:round;stroke-width:0.5;"/>
   </g>
   <g id="line2d_27">
    <path clip-path="url(#pc5e5191516)" d="M 457.777817 86.410286 
L 457.777817 165.620571 
" style="fill:none;stroke:#1a1a1a;stroke-linecap:round;stroke-width:0.5;"/>
   </g>
   <g id="line2d_28">
    <path clip-path="url(#pc5e5191516)" d="M 513.927567 112.813714 
L 513.927567 165.620571 
" style="fill:none;stroke:#1a1a1a;stroke-linecap:round;stroke-width:0.5;"/>
   </g>
   <g id="line2d_29">
    <path clip-path="url(#pc5e5191516)" d="M 559.23041 86.410286 
L 559.23041 165.620571 
" style="fill:none;stroke:#1a1a1a;stroke-linecap:round;stroke-width:0.5;"/>
   </g>
   <g id="line2d_30">
    <path clip-path="url(#pc5e5191516)" d="M 589.587431 60.006857 
L 589.587431 165.620571 
" style="fill:none;stroke:#1a1a1a;stroke-linecap:round;stroke-width:0.5;"/>
   </g>
   <g id="line2d_31">
    <path clip-path="url(#pc5e5191516)" d="M 645.683484 112.813714 
L 645.683484 165.620571 
" style="fill:none;stroke:#1a1a1a;stroke-linecap:round;stroke-width:0.5;"/>
   </g>
   <g id="line2d_32">
    <path clip-path="url(#pc5e5191516)" d="M 743.520441 112.813714 
L 743.520441 165.620571 
" style="fill:none;stroke:#1a1a1a;stroke-linecap:round;stroke-width:0.5;"/>
   </g>
   <g id="line2d_33">
    <path clip-path="url(#pc5e5191516)" d="M 799.043719 86.410286 
L 799.043719 165.620571 
" style="fill:none;stroke:#1a1a1a;stroke-linecap:round;stroke-width:0.5;"/>
   </g>
   <g id="line2d_34">
    <path clip-path="url(#pc5e5191516)" d="M 868.510465 112.813714 
L 868.510465 165.620571 
" style="fill:none;stroke:#1a1a1a;stroke-linecap:round;stroke-width:0.5;"/>
   </g>
   <g id="line2d_35">
    <path clip-path="url(#pc5e5191516)" d="M 946.210836 86.410286 
L 946.210836 165.620571 
" style="fill:none;stroke:#1a1a1a;stroke-linecap:round;stroke-width:0.5;"/>
   </g>
   <g id="line2d_36">
    <path clip-path="url(#pc5e5191516)" d="M 1002.074199 112.813714 
L 1002.074199 165.620571 
" style="fill:none;stroke:#1a1a1a;stroke-linecap:round;stroke-width:0.5;"/>
   </g>
   <g id="line2d_37">
    <path clip-path="url(#pc5e5191516)" d="M 1065.508919 86.410286 
L 1065.508919 165.620571 
" style="fill:none;stroke:#1a1a1a;stroke-linecap:round;stroke-width:0.5;"/>
   </g>
   <g id="line2d_38">
    <path clip-path="url(#pc5e5191516)" d="M 1115.823534 112.813714 
L 1115.823534 165.620571 
" style="fill:none;stroke:#1a1a1a;stroke-linecap:round;stroke-width:0.5;"/>
   </g>
   <g id="text_9">
    <g id="patch_23">
     <path d="M 7.2 121.210667 
L 75.076875 121.210667 
Q 78.376875 121.210667 78.376875 117.910667 
L 78.376875 107.716761 
Q 78.376875 104.416761 75.076875 104.416761 
L 7.2 104.416761 
Q 3.9 104.416761 3.9 107.716761 
L 3.9 117.910667 
Q 3.9 121.210667 7.2 121.210667 
z
" style="fill:#ffffff;stroke:#808080;stroke-linejoin:miter;"/>
    </g>
    <!-- MASE_19080 -->
    <defs>
     <path d="M 7.421875 0 
L 7.421875 71.578125 
L 21.6875 71.578125 
L 38.625 20.90625 
Q 40.96875 13.8125 42.046875 10.296875 
Q 43.265625 14.203125 45.84375 21.78125 
L 62.984375 71.578125 
L 75.734375 71.578125 
L 75.734375 0 
L 66.609375 0 
L 66.609375 59.90625 
L 45.796875 0 
L 37.25 0 
L 16.546875 60.9375 
L 16.546875 0 
z
" id="ArialMT-77"/>
     <path d="M -0.140625 0 
L 27.34375 71.578125 
L 37.546875 71.578125 
L 66.84375 0 
L 56.0625 0 
L 47.703125 21.6875 
L 17.78125 21.6875 
L 9.90625 0 
z
M 20.515625 29.390625 
L 44.78125 29.390625 
L 37.3125 49.21875 
Q 33.890625 58.25 32.234375 64.0625 
Q 30.859375 57.171875 28.375 50.390625 
z
" id="ArialMT-65"/>
     <path d="M 4.5 23 
L 13.421875 23.78125 
Q 14.0625 18.40625 16.375 14.96875 
Q 18.703125 11.53125 23.578125 9.40625 
Q 28.46875 7.28125 34.578125 7.28125 
Q 39.984375 7.28125 44.140625 8.890625 
Q 48.296875 10.5 50.3125 13.296875 
Q 52.34375 16.109375 52.34375 19.4375 
Q 52.34375 22.796875 50.390625 25.3125 
Q 48.4375 27.828125 43.953125 29.546875 
Q 41.0625 30.671875 31.203125 33.03125 
Q 21.34375 35.40625 17.390625 37.5 
Q 12.25 40.1875 9.734375 44.15625 
Q 7.234375 48.140625 7.234375 53.078125 
Q 7.234375 58.5 10.296875 63.203125 
Q 13.375 67.921875 19.28125 70.359375 
Q 25.203125 72.796875 32.421875 72.796875 
Q 40.375 72.796875 46.453125 70.234375 
Q 52.546875 67.671875 55.8125 62.6875 
Q 59.078125 57.71875 59.328125 51.421875 
L 50.25 50.734375 
Q 49.515625 57.515625 45.28125 60.984375 
Q 41.0625 64.453125 32.8125 64.453125 
Q 24.21875 64.453125 20.28125 61.296875 
Q 16.359375 58.15625 16.359375 53.71875 
Q 16.359375 49.859375 19.140625 47.359375 
Q 21.875 44.875 33.421875 42.265625 
Q 44.96875 39.65625 49.265625 37.703125 
Q 55.515625 34.8125 58.484375 30.390625 
Q 61.46875 25.984375 61.46875 20.21875 
Q 61.46875 14.5 58.203125 9.4375 
Q 54.9375 4.390625 48.796875 1.578125 
Q 42.671875 -1.21875 35.015625 -1.21875 
Q 25.296875 -1.21875 18.71875 1.609375 
Q 12.15625 4.4375 8.421875 10.125 
Q 4.6875 15.828125 4.5 23 
z
" id="ArialMT-83"/>
     <path d="M 7.90625 0 
L 7.90625 71.578125 
L 59.671875 71.578125 
L 59.671875 63.140625 
L 17.390625 63.140625 
L 17.390625 41.21875 
L 56.984375 41.21875 
L 56.984375 32.8125 
L 17.390625 32.8125 
L 17.390625 8.453125 
L 61.328125 8.453125 
L 61.328125 0 
z
" id="ArialMT-69"/>
     <path d="M -1.515625 -19.875 
L -1.515625 -13.53125 
L 56.734375 -13.53125 
L 56.734375 -19.875 
z
" id="ArialMT-95"/>
     <path d="M 37.25 0 
L 28.46875 0 
L 28.46875 56 
Q 25.296875 52.984375 20.140625 49.953125 
Q 14.984375 46.921875 10.890625 45.40625 
L 10.890625 53.90625 
Q 18.265625 57.375 23.78125 62.296875 
Q 29.296875 67.234375 31.59375 71.875 
L 37.25 71.875 
z
" id="ArialMT-49"/>
    </defs>
    <g style="fill:#262626;" transform="translate(7.2 115.724417)scale(0.11 -0.11)">
     <use xlink:href="#ArialMT-77"/>
     <use x="83.300781" xlink:href="#ArialMT-65"/>
     <use x="150" xlink:href="#ArialMT-83"/>
     <use x="216.699219" xlink:href="#ArialMT-69"/>
     <use x="283.398438" xlink:href="#ArialMT-95"/>
     <use x="339.013672" xlink:href="#ArialMT-49"/>
     <use x="394.628906" xlink:href="#ArialMT-57"/>
     <use x="450.244141" xlink:href="#ArialMT-48"/>
     <use x="505.859375" xlink:href="#ArialMT-56"/>
     <use x="561.474609" xlink:href="#ArialMT-48"/>
    </g>
   </g>
   <g id="text_10">
    <g id="patch_24">
     <path d="M 35.301724 94.807239 
L 103.178599 94.807239 
Q 106.478599 94.807239 106.478599 91.507239 
L 106.478599 81.313333 
Q 106.478599 78.013333 103.178599 78.013333 
L 35.301724 78.013333 
Q 32.001724 78.013333 32.001724 81.313333 
L 32.001724 91.507239 
Q 32.001724 94.807239 35.301724 94.807239 
z
" style="fill:#ffffff;stroke:#808080;stroke-linejoin:miter;"/>
    </g>
    <!-- MASE_19085 -->
    <g style="fill:#262626;" transform="translate(35.301724 89.320989)scale(0.11 -0.11)">
     <use xlink:href="#ArialMT-77"/>
     <use x="83.300781" xlink:href="#ArialMT-65"/>
     <use x="150" xlink:href="#ArialMT-83"/>
     <use x="216.699219" xlink:href="#ArialMT-69"/>
     <use x="283.398438" xlink:href="#ArialMT-95"/>
     <use x="339.013672" xlink:href="#ArialMT-49"/>
     <use x="394.628906" xlink:href="#ArialMT-57"/>
     <use x="450.244141" xlink:href="#ArialMT-48"/>
     <use x="505.859375" xlink:href="#ArialMT-56"/>
     <use x="561.474609" xlink:href="#ArialMT-53"/>
    </g>
   </g>
   <g id="text_11">
    <g id="patch_25">
     <path d="M 55.384612 68.40381 
L 123.261487 68.40381 
Q 126.561487 68.40381 126.561487 65.10381 
L 126.561487 54.909904 
Q 126.561487 51.609904 123.261487 51.609904 
L 55.384612 51.609904 
Q 52.084612 51.609904 52.084612 54.909904 
L 52.084612 65.10381 
Q 52.084612 68.40381 55.384612 68.40381 
z
" style="fill:#ffffff;stroke:#808080;stroke-linejoin:miter;"/>
    </g>
    <!-- MASE_19090 -->
    <g style="fill:#262626;" transform="translate(55.384612 62.91756)scale(0.11 -0.11)">
     <use xlink:href="#ArialMT-77"/>
     <use x="83.300781" xlink:href="#ArialMT-65"/>
     <use x="150" xlink:href="#ArialMT-83"/>
     <use x="216.699219" xlink:href="#ArialMT-69"/>
     <use x="283.398438" xlink:href="#ArialMT-95"/>
     <use x="339.013672" xlink:href="#ArialMT-49"/>
     <use x="394.628906" xlink:href="#ArialMT-57"/>
     <use x="450.244141" xlink:href="#ArialMT-48"/>
     <use x="505.859375" xlink:href="#ArialMT-57"/>
     <use x="561.474609" xlink:href="#ArialMT-48"/>
    </g>
   </g>
   <g id="text_12">
    <g id="patch_26">
     <path d="M 112.500918 121.210667 
L 180.377793 121.210667 
Q 183.677793 121.210667 183.677793 117.910667 
L 183.677793 107.716761 
Q 183.677793 104.416761 180.377793 104.416761 
L 112.500918 104.416761 
Q 109.200918 104.416761 109.200918 107.716761 
L 109.200918 117.910667 
Q 109.200918 121.210667 112.500918 121.210667 
z
" style="fill:#ffffff;stroke:#808080;stroke-linejoin:miter;"/>
    </g>
    <!-- MASE_19095 -->
    <g style="fill:#262626;" transform="translate(112.500918 115.724417)scale(0.11 -0.11)">
     <use xlink:href="#ArialMT-77"/>
     <use x="83.300781" xlink:href="#ArialMT-65"/>
     <use x="150" xlink:href="#ArialMT-83"/>
     <use x="216.699219" xlink:href="#ArialMT-69"/>
     <use x="283.398438" xlink:href="#ArialMT-95"/>
     <use x="339.013672" xlink:href="#ArialMT-49"/>
     <use x="394.628906" xlink:href="#ArialMT-57"/>
     <use x="450.244141" xlink:href="#ArialMT-48"/>
     <use x="505.859375" xlink:href="#ArialMT-57"/>
     <use x="561.474609" xlink:href="#ArialMT-53"/>
    </g>
   </g>
   <g id="text_13">
    <g id="patch_27">
     <path d="M 185.153719 94.807239 
L 253.030594 94.807239 
Q 256.330594 94.807239 256.330594 91.507239 
L 256.330594 81.313333 
Q 256.330594 78.013333 253.030594 78.013333 
L 185.153719 78.013333 
Q 181.853719 78.013333 181.853719 81.313333 
L 181.853719 91.507239 
Q 181.853719 94.807239 185.153719 94.807239 
z
" style="fill:#ffffff;stroke:#808080;stroke-linejoin:miter;"/>
    </g>
    <!-- MASE_19100 -->
    <g style="fill:#262626;" transform="translate(185.153719 89.320989)scale(0.11 -0.11)">
     <use xlink:href="#ArialMT-77"/>
     <use x="83.300781" xlink:href="#ArialMT-65"/>
     <use x="150" xlink:href="#ArialMT-83"/>
     <use x="216.699219" xlink:href="#ArialMT-69"/>
     <use x="283.398438" xlink:href="#ArialMT-95"/>
     <use x="339.013672" xlink:href="#ArialMT-49"/>
     <use x="394.628906" xlink:href="#ArialMT-57"/>
     <use x="450.244141" xlink:href="#ArialMT-49"/>
     <use x="505.859375" xlink:href="#ArialMT-48"/>
     <use x="561.474609" xlink:href="#ArialMT-48"/>
    </g>
   </g>
   <g id="text_14">
    <g id="patch_28">
     <path d="M 230.778747 121.210667 
L 298.655622 121.210667 
Q 301.955622 121.210667 301.955622 117.910667 
L 301.955622 107.716761 
Q 301.955622 104.416761 298.655622 104.416761 
L 230.778747 104.416761 
Q 227.478747 104.416761 227.478747 107.716761 
L 227.478747 117.910667 
Q 227.478747 121.210667 230.778747 121.210667 
z
" style="fill:#ffffff;stroke:#808080;stroke-linejoin:miter;"/>
    </g>
    <!-- MASE_19105 -->
    <g style="fill:#262626;" transform="translate(230.778747 115.724417)scale(0.11 -0.11)">
     <use xlink:href="#ArialMT-77"/>
     <use x="83.300781" xlink:href="#ArialMT-65"/>
     <use x="150" xlink:href="#ArialMT-83"/>
     <use x="216.699219" xlink:href="#ArialMT-69"/>
     <use x="283.398438" xlink:href="#ArialMT-95"/>
     <use x="339.013672" xlink:href="#ArialMT-49"/>
     <use x="394.628906" xlink:href="#ArialMT-57"/>
     <use x="450.244141" xlink:href="#ArialMT-49"/>
     <use x="505.859375" xlink:href="#ArialMT-48"/>
     <use x="561.474609" xlink:href="#ArialMT-53"/>
    </g>
   </g>
   <g id="text_15">
    <g id="patch_29">
     <path d="M 258.940184 68.40381 
L 326.805028 68.40381 
Q 330.105028 68.40381 330.105028 65.10381 
L 330.105028 54.909904 
Q 330.105028 51.609904 326.805028 51.609904 
L 258.940184 51.609904 
Q 255.640184 51.609904 255.640184 54.909904 
L 255.640184 65.10381 
Q 255.640184 68.40381 258.940184 68.40381 
z
" style="fill:#ffffff;stroke:#808080;stroke-linejoin:miter;"/>
    </g>
    <!-- MASE_19110 -->
    <g style="fill:#262626;" transform="translate(258.940184 62.91756)scale(0.11 -0.11)">
     <use xlink:href="#ArialMT-77"/>
     <use x="83.300781" xlink:href="#ArialMT-65"/>
     <use x="150" xlink:href="#ArialMT-83"/>
     <use x="216.699219" xlink:href="#ArialMT-69"/>
     <use x="283.398438" xlink:href="#ArialMT-95"/>
     <use x="339.013672" xlink:href="#ArialMT-49"/>
     <use x="394.628906" xlink:href="#ArialMT-57"/>
     <use x="450.244141" xlink:href="#ArialMT-49"/>
     <use x="505.75" xlink:href="#ArialMT-49"/>
     <use x="561.365234" xlink:href="#ArialMT-48"/>
    </g>
   </g>
   <g id="text_16">
    <g id="patch_30">
     <path d="M 271.845498 42.000382 
L 339.710342 42.000382 
Q 343.010342 42.000382 343.010342 38.700382 
L 343.010342 28.506475 
Q 343.010342 25.206475 339.710342 25.206475 
L 271.845498 25.206475 
Q 268.545498 25.206475 268.545498 28.506475 
L 268.545498 38.700382 
Q 268.545498 42.000382 271.845498 42.000382 
z
" style="fill:#ffffff;stroke:#808080;stroke-linejoin:miter;"/>
    </g>
    <!-- MASE_19115 -->
    <g style="fill:#262626;" transform="translate(271.845498 36.514132)scale(0.11 -0.11)">
     <use xlink:href="#ArialMT-77"/>
     <use x="83.300781" xlink:href="#ArialMT-65"/>
     <use x="150" xlink:href="#ArialMT-83"/>
     <use x="216.699219" xlink:href="#ArialMT-69"/>
     <use x="283.398438" xlink:href="#ArialMT-95"/>
     <use x="339.013672" xlink:href="#ArialMT-49"/>
     <use x="394.628906" xlink:href="#ArialMT-57"/>
     <use x="450.244141" xlink:href="#ArialMT-49"/>
     <use x="505.75" xlink:href="#ArialMT-49"/>
     <use x="561.365234" xlink:href="#ArialMT-53"/>
    </g>
   </g>
   <g id="text_17">
    <g id="patch_31">
     <path d="M 337.171515 121.210667 
L 405.04839 121.210667 
Q 408.34839 121.210667 408.34839 117.910667 
L 408.34839 107.716761 
Q 408.34839 104.416761 405.04839 104.416761 
L 337.171515 104.416761 
Q 333.871515 104.416761 333.871515 107.716761 
L 333.871515 117.910667 
Q 333.871515 121.210667 337.171515 121.210667 
z
" style="fill:#ffecec;stroke:#808080;stroke-linejoin:miter;"/>
    </g>
    <!-- MASE_19120 -->
    <g style="fill:#262626;" transform="translate(337.171515 115.724417)scale(0.11 -0.11)">
     <use xlink:href="#ArialMT-77"/>
     <use x="83.300781" xlink:href="#ArialMT-65"/>
     <use x="150" xlink:href="#ArialMT-83"/>
     <use x="216.699219" xlink:href="#ArialMT-69"/>
     <use x="283.398438" xlink:href="#ArialMT-95"/>
     <use x="339.013672" xlink:href="#ArialMT-49"/>
     <use x="394.628906" xlink:href="#ArialMT-57"/>
     <use x="450.244141" xlink:href="#ArialMT-49"/>
     <use x="505.859375" xlink:href="#ArialMT-50"/>
     <use x="561.474609" xlink:href="#ArialMT-48"/>
    </g>
   </g>
   <g id="text_18">
    <g id="patch_32">
     <path d="M 423.839379 94.807239 
L 491.716254 94.807239 
Q 495.016254 94.807239 495.016254 91.507239 
L 495.016254 81.313333 
Q 495.016254 78.013333 491.716254 78.013333 
L 423.839379 78.013333 
Q 420.539379 78.013333 420.539379 81.313333 
L 420.539379 91.507239 
Q 420.539379 94.807239 423.839379 94.807239 
z
" style="fill:#ffffff;stroke:#808080;stroke-linejoin:miter;"/>
    </g>
    <!-- MASE_19125 -->
    <g style="fill:#262626;" transform="translate(423.839379 89.320989)scale(0.11 -0.11)">
     <use xlink:href="#ArialMT-77"/>
     <use x="83.300781" xlink:href="#ArialMT-65"/>
     <use x="150" xlink:href="#ArialMT-83"/>
     <use x="216.699219" xlink:href="#ArialMT-69"/>
     <use x="283.398438" xlink:href="#ArialMT-95"/>
     <use x="339.013672" xlink:href="#ArialMT-49"/>
     <use x="394.628906" xlink:href="#ArialMT-57"/>
     <use x="450.244141" xlink:href="#ArialMT-49"/>
     <use x="505.859375" xlink:href="#ArialMT-50"/>
     <use x="561.474609" xlink:href="#ArialMT-53"/>
    </g>
   </g>
   <g id="text_19">
    <g id="patch_33">
     <path d="M 479.98913 121.210667 
L 547.866005 121.210667 
Q 551.166005 121.210667 551.166005 117.910667 
L 551.166005 107.716761 
Q 551.166005 104.416761 547.866005 104.416761 
L 479.98913 104.416761 
Q 476.68913 104.416761 476.68913 107.716761 
L 476.68913 117.910667 
Q 476.68913 121.210667 479.98913 121.210667 
z
" style="fill:#ffffff;stroke:#808080;stroke-linejoin:miter;"/>
    </g>
    <!-- MASE_19130 -->
    <defs>
     <path d="M 4.203125 18.890625 
L 12.984375 20.0625 
Q 14.5 12.59375 18.140625 9.296875 
Q 21.78125 6 27 6 
Q 33.203125 6 37.46875 10.296875 
Q 41.75 14.59375 41.75 20.953125 
Q 41.75 27 37.796875 30.921875 
Q 33.84375 34.859375 27.734375 34.859375 
Q 25.25 34.859375 21.53125 33.890625 
L 22.515625 41.609375 
Q 23.390625 41.5 23.921875 41.5 
Q 29.546875 41.5 34.03125 44.421875 
Q 38.53125 47.359375 38.53125 53.46875 
Q 38.53125 58.296875 35.25 61.46875 
Q 31.984375 64.65625 26.8125 64.65625 
Q 21.6875 64.65625 18.265625 61.421875 
Q 14.84375 58.203125 13.875 51.765625 
L 5.078125 53.328125 
Q 6.6875 62.15625 12.390625 67.015625 
Q 18.109375 71.875 26.609375 71.875 
Q 32.46875 71.875 37.390625 69.359375 
Q 42.328125 66.84375 44.9375 62.5 
Q 47.5625 58.15625 47.5625 53.265625 
Q 47.5625 48.640625 45.0625 44.828125 
Q 42.578125 41.015625 37.703125 38.765625 
Q 44.046875 37.3125 47.5625 32.6875 
Q 51.078125 28.078125 51.078125 21.140625 
Q 51.078125 11.765625 44.234375 5.25 
Q 37.40625 -1.265625 26.953125 -1.265625 
Q 17.53125 -1.265625 11.296875 4.34375 
Q 5.078125 9.96875 4.203125 18.890625 
z
" id="ArialMT-51"/>
    </defs>
    <g style="fill:#262626;" transform="translate(479.98913 115.724417)scale(0.11 -0.11)">
     <use xlink:href="#ArialMT-77"/>
     <use x="83.300781" xlink:href="#ArialMT-65"/>
     <use x="150" xlink:href="#ArialMT-83"/>
     <use x="216.699219" xlink:href="#ArialMT-69"/>
     <use x="283.398438" xlink:href="#ArialMT-95"/>
     <use x="339.013672" xlink:href="#ArialMT-49"/>
     <use x="394.628906" xlink:href="#ArialMT-57"/>
     <use x="450.244141" xlink:href="#ArialMT-49"/>
     <use x="505.859375" xlink:href="#ArialMT-51"/>
     <use x="561.474609" xlink:href="#ArialMT-48"/>
    </g>
   </g>
   <g id="text_20">
    <g id="patch_34">
     <path d="M 525.291972 94.807239 
L 593.168847 94.807239 
Q 596.468847 94.807239 596.468847 91.507239 
L 596.468847 81.313333 
Q 596.468847 78.013333 593.168847 78.013333 
L 525.291972 78.013333 
Q 521.991972 78.013333 521.991972 81.313333 
L 521.991972 91.507239 
Q 521.991972 94.807239 525.291972 94.807239 
z
" style="fill:#ffffff;stroke:#808080;stroke-linejoin:miter;"/>
    </g>
    <!-- MASE_19135 -->
    <g style="fill:#262626;" transform="translate(525.291972 89.320989)scale(0.11 -0.11)">
     <use xlink:href="#ArialMT-77"/>
     <use x="83.300781" xlink:href="#ArialMT-65"/>
     <use x="150" xlink:href="#ArialMT-83"/>
     <use x="216.699219" xlink:href="#ArialMT-69"/>
     <use x="283.398438" xlink:href="#ArialMT-95"/>
     <use x="339.013672" xlink:href="#ArialMT-49"/>
     <use x="394.628906" xlink:href="#ArialMT-57"/>
     <use x="450.244141" xlink:href="#ArialMT-49"/>
     <use x="505.859375" xlink:href="#ArialMT-51"/>
     <use x="561.474609" xlink:href="#ArialMT-53"/>
    </g>
   </g>
   <g id="text_21">
    <g id="patch_35">
     <path d="M 555.648994 68.40381 
L 623.525869 68.40381 
Q 626.825869 68.40381 626.825869 65.10381 
L 626.825869 54.909904 
Q 626.825869 51.609904 623.525869 51.609904 
L 555.648994 51.609904 
Q 552.348994 51.609904 552.348994 54.909904 
L 552.348994 65.10381 
Q 552.348994 68.40381 555.648994 68.40381 
z
" style="fill:#ffffff;stroke:#808080;stroke-linejoin:miter;"/>
    </g>
    <!-- MASE_19140 -->
    <g style="fill:#262626;" transform="translate(555.648994 62.91756)scale(0.11 -0.11)">
     <use xlink:href="#ArialMT-77"/>
     <use x="83.300781" xlink:href="#ArialMT-65"/>
     <use x="150" xlink:href="#ArialMT-83"/>
     <use x="216.699219" xlink:href="#ArialMT-69"/>
     <use x="283.398438" xlink:href="#ArialMT-95"/>
     <use x="339.013672" xlink:href="#ArialMT-49"/>
     <use x="394.628906" xlink:href="#ArialMT-57"/>
     <use x="450.244141" xlink:href="#ArialMT-49"/>
     <use x="505.859375" xlink:href="#ArialMT-52"/>
     <use x="561.474609" xlink:href="#ArialMT-48"/>
    </g>
   </g>
   <g id="text_22">
    <g id="patch_36">
     <path d="M 611.745046 121.210667 
L 679.621921 121.210667 
Q 682.921921 121.210667 682.921921 117.910667 
L 682.921921 107.716761 
Q 682.921921 104.416761 679.621921 104.416761 
L 611.745046 104.416761 
Q 608.445046 104.416761 608.445046 107.716761 
L 608.445046 117.910667 
Q 608.445046 121.210667 611.745046 121.210667 
z
" style="fill:#ffffff;stroke:#808080;stroke-linejoin:miter;"/>
    </g>
    <!-- MASE_19145 -->
    <g style="fill:#262626;" transform="translate(611.745046 115.724417)scale(0.11 -0.11)">
     <use xlink:href="#ArialMT-77"/>
     <use x="83.300781" xlink:href="#ArialMT-65"/>
     <use x="150" xlink:href="#ArialMT-83"/>
     <use x="216.699219" xlink:href="#ArialMT-69"/>
     <use x="283.398438" xlink:href="#ArialMT-95"/>
     <use x="339.013672" xlink:href="#ArialMT-49"/>
     <use x="394.628906" xlink:href="#ArialMT-57"/>
     <use x="450.244141" xlink:href="#ArialMT-49"/>
     <use x="505.859375" xlink:href="#ArialMT-52"/>
     <use x="561.474609" xlink:href="#ArialMT-53"/>
    </g>
   </g>
   <g id="text_23">
    <g id="patch_37">
     <path d="M 709.582003 121.210667 
L 777.458878 121.210667 
Q 780.758878 121.210667 780.758878 117.910667 
L 780.758878 107.716761 
Q 780.758878 104.416761 777.458878 104.416761 
L 709.582003 104.416761 
Q 706.282003 104.416761 706.282003 107.716761 
L 706.282003 117.910667 
Q 706.282003 121.210667 709.582003 121.210667 
z
" style="fill:#ffffff;stroke:#808080;stroke-linejoin:miter;"/>
    </g>
    <!-- MASE_19150 -->
    <g style="fill:#262626;" transform="translate(709.582003 115.724417)scale(0.11 -0.11)">
     <use xlink:href="#ArialMT-77"/>
     <use x="83.300781" xlink:href="#ArialMT-65"/>
     <use x="150" xlink:href="#ArialMT-83"/>
     <use x="216.699219" xlink:href="#ArialMT-69"/>
     <use x="283.398438" xlink:href="#ArialMT-95"/>
     <use x="339.013672" xlink:href="#ArialMT-49"/>
     <use x="394.628906" xlink:href="#ArialMT-57"/>
     <use x="450.244141" xlink:href="#ArialMT-49"/>
     <use x="505.859375" xlink:href="#ArialMT-53"/>
     <use x="561.474609" xlink:href="#ArialMT-48"/>
    </g>
   </g>
   <g id="text_24">
    <g id="patch_38">
     <path d="M 765.105282 94.807239 
L 832.982157 94.807239 
Q 836.282157 94.807239 836.282157 91.507239 
L 836.282157 81.313333 
Q 836.282157 78.013333 832.982157 78.013333 
L 765.105282 78.013333 
Q 761.805282 78.013333 761.805282 81.313333 
L 761.805282 91.507239 
Q 761.805282 94.807239 765.105282 94.807239 
z
" style="fill:#ffffff;stroke:#808080;stroke-linejoin:miter;"/>
    </g>
    <!-- MASE_19155 -->
    <g style="fill:#262626;" transform="translate(765.105282 89.320989)scale(0.11 -0.11)">
     <use xlink:href="#ArialMT-77"/>
     <use x="83.300781" xlink:href="#ArialMT-65"/>
     <use x="150" xlink:href="#ArialMT-83"/>
     <use x="216.699219" xlink:href="#ArialMT-69"/>
     <use x="283.398438" xlink:href="#ArialMT-95"/>
     <use x="339.013672" xlink:href="#ArialMT-49"/>
     <use x="394.628906" xlink:href="#ArialMT-57"/>
     <use x="450.244141" xlink:href="#ArialMT-49"/>
     <use x="505.859375" xlink:href="#ArialMT-53"/>
     <use x="561.474609" xlink:href="#ArialMT-53"/>
    </g>
   </g>
   <g id="text_25">
    <g id="patch_39">
     <path d="M 834.572027 121.210667 
L 902.448902 121.210667 
Q 905.748902 121.210667 905.748902 117.910667 
L 905.748902 107.716761 
Q 905.748902 104.416761 902.448902 104.416761 
L 834.572027 104.416761 
Q 831.272027 104.416761 831.272027 107.716761 
L 831.272027 117.910667 
Q 831.272027 121.210667 834.572027 121.210667 
z
" style="fill:#ffffff;stroke:#808080;stroke-linejoin:miter;"/>
    </g>
    <!-- MASE_19160 -->
    <g style="fill:#262626;" transform="translate(834.572027 115.724417)scale(0.11 -0.11)">
     <use xlink:href="#ArialMT-77"/>
     <use x="83.300781" xlink:href="#ArialMT-65"/>
     <use x="150" xlink:href="#ArialMT-83"/>
     <use x="216.699219" xlink:href="#ArialMT-69"/>
     <use x="283.398438" xlink:href="#ArialMT-95"/>
     <use x="339.013672" xlink:href="#ArialMT-49"/>
     <use x="394.628906" xlink:href="#ArialMT-57"/>
     <use x="450.244141" xlink:href="#ArialMT-49"/>
     <use x="505.859375" xlink:href="#ArialMT-54"/>
     <use x="561.474609" xlink:href="#ArialMT-48"/>
    </g>
   </g>
   <g id="text_26">
    <g id="patch_40">
     <path d="M 912.272399 94.807239 
L 980.149274 94.807239 
Q 983.449274 94.807239 983.449274 91.507239 
L 983.449274 81.313333 
Q 983.449274 78.013333 980.149274 78.013333 
L 912.272399 78.013333 
Q 908.972399 78.013333 908.972399 81.313333 
L 908.972399 91.507239 
Q 908.972399 94.807239 912.272399 94.807239 
z
" style="fill:#ffffff;stroke:#808080;stroke-linejoin:miter;"/>
    </g>
    <!-- MASE_19165 -->
    <g style="fill:#262626;" transform="translate(912.272399 89.320989)scale(0.11 -0.11)">
     <use xlink:href="#ArialMT-77"/>
     <use x="83.300781" xlink:href="#ArialMT-65"/>
     <use x="150" xlink:href="#ArialMT-83"/>
     <use x="216.699219" xlink:href="#ArialMT-69"/>
     <use x="283.398438" xlink:href="#ArialMT-95"/>
     <use x="339.013672" xlink:href="#ArialMT-49"/>
     <use x="394.628906" xlink:href="#ArialMT-57"/>
     <use x="450.244141" xlink:href="#ArialMT-49"/>
     <use x="505.859375" xlink:href="#ArialMT-54"/>
     <use x="561.474609" xlink:href="#ArialMT-53"/>
    </g>
   </g>
   <g id="text_27">
    <g id="patch_41">
     <path d="M 968.135762 121.210667 
L 1036.012637 121.210667 
Q 1039.312637 121.210667 1039.312637 117.910667 
L 1039.312637 107.716761 
Q 1039.312637 104.416761 1036.012637 104.416761 
L 968.135762 104.416761 
Q 964.835762 104.416761 964.835762 107.716761 
L 964.835762 117.910667 
Q 964.835762 121.210667 968.135762 121.210667 
z
" style="fill:#ffffff;stroke:#808080;stroke-linejoin:miter;"/>
    </g>
    <!-- MASE_19170 -->
    <g style="fill:#262626;" transform="translate(968.135762 115.724417)scale(0.11 -0.11)">
     <use xlink:href="#ArialMT-77"/>
     <use x="83.300781" xlink:href="#ArialMT-65"/>
     <use x="150" xlink:href="#ArialMT-83"/>
     <use x="216.699219" xlink:href="#ArialMT-69"/>
     <use x="283.398438" xlink:href="#ArialMT-95"/>
     <use x="339.013672" xlink:href="#ArialMT-49"/>
     <use x="394.628906" xlink:href="#ArialMT-57"/>
     <use x="450.244141" xlink:href="#ArialMT-49"/>
     <use x="505.859375" xlink:href="#ArialMT-55"/>
     <use x="561.474609" xlink:href="#ArialMT-48"/>
    </g>
   </g>
   <g id="text_28">
    <g id="patch_42">
     <path d="M 1031.570481 94.807239 
L 1099.447356 94.807239 
Q 1102.747356 94.807239 1102.747356 91.507239 
L 1102.747356 81.313333 
Q 1102.747356 78.013333 1099.447356 78.013333 
L 1031.570481 78.013333 
Q 1028.270481 78.013333 1028.270481 81.313333 
L 1028.270481 91.507239 
Q 1028.270481 94.807239 1031.570481 94.807239 
z
" style="fill:#ffffff;stroke:#808080;stroke-linejoin:miter;"/>
    </g>
    <!-- MASE_19175 -->
    <g style="fill:#262626;" transform="translate(1031.570481 89.320989)scale(0.11 -0.11)">
     <use xlink:href="#ArialMT-77"/>
     <use x="83.300781" xlink:href="#ArialMT-65"/>
     <use x="150" xlink:href="#ArialMT-83"/>
     <use x="216.699219" xlink:href="#ArialMT-69"/>
     <use x="283.398438" xlink:href="#ArialMT-95"/>
     <use x="339.013672" xlink:href="#ArialMT-49"/>
     <use x="394.628906" xlink:href="#ArialMT-57"/>
     <use x="450.244141" xlink:href="#ArialMT-49"/>
     <use x="505.859375" xlink:href="#ArialMT-55"/>
     <use x="561.474609" xlink:href="#ArialMT-53"/>
    </g>
   </g>
   <g id="text_29">
    <g id="patch_43">
     <path d="M 1081.885096 121.210667 
L 1149.761971 121.210667 
Q 1153.061971 121.210667 1153.061971 117.910667 
L 1153.061971 107.716761 
Q 1153.061971 104.416761 1149.761971 104.416761 
L 1081.885096 104.416761 
Q 1078.585096 104.416761 1078.585096 107.716761 
L 1078.585096 117.910667 
Q 1078.585096 121.210667 1081.885096 121.210667 
z
" style="fill:#ffffff;stroke:#808080;stroke-linejoin:miter;"/>
    </g>
    <!-- MASE_19180 -->
    <g style="fill:#262626;" transform="translate(1081.885096 115.724417)scale(0.11 -0.11)">
     <use xlink:href="#ArialMT-77"/>
     <use x="83.300781" xlink:href="#ArialMT-65"/>
     <use x="150" xlink:href="#ArialMT-83"/>
     <use x="216.699219" xlink:href="#ArialMT-69"/>
     <use x="283.398438" xlink:href="#ArialMT-95"/>
     <use x="339.013672" xlink:href="#ArialMT-49"/>
     <use x="394.628906" xlink:href="#ArialMT-57"/>
     <use x="450.244141" xlink:href="#ArialMT-49"/>
     <use x="505.859375" xlink:href="#ArialMT-56"/>
     <use x="561.474609" xlink:href="#ArialMT-48"/>
    </g>
   </g>
  </g>
 </g>
 <defs>
  <clipPath id="pc5e5191516">
   <rect height="184.824" width="1116" x="26.718852" y="7.2"/>
  </clipPath>
 </defs>
</svg>
