<?xml version="1.0" encoding="utf-8" standalone="no"?>
<!DOCTYPE svg PUBLIC "-//W3C//DTD SVG 1.1//EN"
  "http://www.w3.org/Graphics/SVG/1.1/DTD/svg11.dtd">
<!-- Created with matplotlib (https://matplotlib.org/) -->
<svg height="218.783844pt" version="1.1" viewBox="0 0 1130.4 218.783844" width="1130.4pt" xmlns="http://www.w3.org/2000/svg" xmlns:xlink="http://www.w3.org/1999/xlink">
 <defs>
  <style type="text/css">
*{stroke-linecap:butt;stroke-linejoin:round;}
  </style>
 </defs>
 <g id="figure_1">
  <g id="patch_1">
   <path d="M 0 218.783844 
L 1130.4 218.783844 
L 1130.4 0 
L 0 0 
z
" style="fill:#ffffff;"/>
  </g>
  <g id="axes_1">
   <g id="line2d_1">
    <path clip-path="url(#pf320be9d56)" d="M 7.2 165.620571 
L 1123.2 165.620571 
" style="fill:none;stroke:#1a1a1a;stroke-linecap:round;stroke-width:1.5;"/>
   </g>
   <g id="patch_2">
    <path clip-path="url(#pf320be9d56)" d="M 268.735763 158.620571 
Q 319.022435 158.620571 369.309106 158.620571 
L 369.309106 158.620571 
Q 373.50756 162.120571 377.706015 165.620571 
Q 373.50756 169.120571 369.309106 172.620571 
L 369.309106 172.620571 
Q 319.022435 172.620571 268.735763 172.620571 
L 268.735763 158.620571 
z
" style="fill:#ffffff;fill-opacity:0.85;stroke:#000000;stroke-linecap:round;"/>
   </g>
   <g id="patch_3">
    <path clip-path="url(#pf320be9d56)" d="M 378.314587 158.620571 
Q 407.658637 158.620571 437.002687 158.620571 
L 437.002687 158.620571 
Q 441.201714 162.120571 445.40074 165.620571 
Q 441.201714 169.120571 437.002687 172.620571 
L 437.002687 172.620571 
Q 407.658637 172.620571 378.314587 172.620571 
L 378.314587 158.620571 
z
" style="fill:#ffffff;fill-opacity:0.85;stroke:#000000;stroke-linecap:round;"/>
   </g>
   <g id="patch_4">
    <path clip-path="url(#pf320be9d56)" d="M 479.659785 172.620571 
Q 467.714564 172.620571 455.769343 172.620571 
L 455.769343 172.620571 
Q 451.569497 169.120571 447.369651 165.620571 
Q 451.569497 162.120571 455.769343 158.620571 
L 455.769343 158.620571 
Q 467.714564 158.620571 479.659785 158.620571 
L 479.659785 172.620571 
z
" style="fill:#ffffff;fill-opacity:0.85;stroke:#000000;stroke-linecap:round;"/>
   </g>
   <g id="patch_5">
    <path clip-path="url(#pf320be9d56)" d="M 487.965007 158.620571 
Q 491.8009 158.620571 495.636793 158.620571 
L 495.636793 158.620571 
Q 499.837635 162.120571 504.038477 165.620571 
Q 499.837635 169.120571 495.636793 172.620571 
L 495.636793 172.620571 
Q 491.8009 172.620571 487.965007 172.620571 
L 487.965007 158.620571 
z
" style="fill:#ffffff;fill-opacity:0.85;stroke:#000000;stroke-linecap:round;"/>
   </g>
   <g id="patch_6">
    <path clip-path="url(#pf320be9d56)" d="M 522.28303 172.620571 
Q 518.08303 169.120571 513.88303 165.620571 
Q 518.08303 162.120571 522.28303 158.620571 
z
" style="fill:#ffffff;fill-opacity:0.85;stroke:#000000;stroke-linecap:round;"/>
   </g>
   <g id="patch_7">
    <path clip-path="url(#pf320be9d56)" d="M 555.695532 172.620571 
Q 542.2458 172.620571 528.796069 172.620571 
L 528.796069 172.620571 
Q 524.597202 169.120571 520.398335 165.620571 
Q 524.597202 162.120571 528.796069 158.620571 
L 528.796069 158.620571 
Q 542.2458 158.620571 555.695532 158.620571 
L 555.695532 172.620571 
z
" style="fill:#ffffff;fill-opacity:0.85;stroke:#000000;stroke-linecap:round;"/>
   </g>
   <g id="patch_8">
    <path clip-path="url(#pf320be9d56)" d="M 570.802446 158.620571 
Q 615.01899 158.620571 659.235535 158.620571 
L 659.235535 158.620571 
Q 663.436292 162.120571 667.637048 165.620571 
Q 663.436292 169.120571 659.235535 172.620571 
L 659.235535 172.620571 
Q 615.01899 172.620571 570.802446 172.620571 
L 570.802446 158.620571 
z
" style="fill:#ff0000;fill-opacity:0.85;stroke:#000000;stroke-linecap:round;"/>
   </g>
   <g id="patch_9">
    <path clip-path="url(#pf320be9d56)" d="M 674.474538 158.620571 
Q 675.679438 158.620571 676.884338 158.620571 
L 676.884338 158.620571 
Q 681.084992 162.120571 685.285647 165.620571 
Q 681.084992 169.120571 676.884338 172.620571 
L 676.884338 172.620571 
Q 675.679438 172.620571 674.474538 172.620571 
L 674.474538 158.620571 
z
" style="fill:#ffffff;fill-opacity:0.85;stroke:#000000;stroke-linecap:round;"/>
   </g>
   <g id="patch_10">
    <path clip-path="url(#pf320be9d56)" d="M 705.941309 158.620571 
Q 759.931738 158.620571 813.922168 158.620571 
L 813.922168 158.620571 
Q 818.121996 162.120571 822.321824 165.620571 
Q 818.121996 169.120571 813.922168 172.620571 
L 813.922168 172.620571 
Q 759.931738 172.620571 705.941309 172.620571 
L 705.941309 158.620571 
z
" style="fill:#ffffff;fill-opacity:0.85;stroke:#000000;stroke-linecap:round;"/>
   </g>
   <g id="patch_11">
    <path clip-path="url(#pf320be9d56)" d="M 825.830064 158.620571 
Q 839.545646 158.620571 853.261228 158.620571 
L 853.261228 158.620571 
Q 857.462733 162.120571 861.664237 165.620571 
Q 857.462733 169.120571 853.261228 172.620571 
L 853.261228 172.620571 
Q 839.545646 172.620571 825.830064 172.620571 
L 825.830064 158.620571 
z
" style="fill:#ffffff;fill-opacity:0.85;stroke:#000000;stroke-linecap:round;"/>
   </g>
   <g id="matplotlib.axis_1">
    <g id="xtick_1">
     <g id="line2d_2">
      <path clip-path="url(#pf320be9d56)" d="M 75.299247 192.024 
L 75.299247 7.2 
" style="fill:none;stroke:#ffffff;stroke-linecap:round;"/>
     </g>
     <g id="line2d_3">
      <defs>
       <path d="M 0 0 
L 0 6 
" id="mfd74951b37" style="stroke:#262626;stroke-width:1.25;"/>
      </defs>
      <g>
       <use style="fill:#262626;stroke:#262626;stroke-width:1.25;" x="75.299247" xlink:href="#mfd74951b37" y="192.024"/>
      </g>
     </g>
     <g id="text_1">
      <!-- 1884000 -->
      <defs>
       <path d="M 37.25 0 
L 28.46875 0 
L 28.46875 56 
Q 25.296875 52.984375 20.140625 49.953125 
Q 14.984375 46.921875 10.890625 45.40625 
L 10.890625 53.90625 
Q 18.265625 57.375 23.78125 62.296875 
Q 29.296875 67.234375 31.59375 71.875 
L 37.25 71.875 
z
" id="ArialMT-49"/>
       <path d="M 17.671875 38.8125 
Q 12.203125 40.828125 9.5625 44.53125 
Q 6.9375 48.25 6.9375 53.421875 
Q 6.9375 61.234375 12.546875 66.546875 
Q 18.171875 71.875 27.484375 71.875 
Q 36.859375 71.875 42.578125 66.421875 
Q 48.296875 60.984375 48.296875 53.171875 
Q 48.296875 48.1875 45.671875 44.5 
Q 43.0625 40.828125 37.75 38.8125 
Q 44.34375 36.671875 47.78125 31.875 
Q 51.21875 27.09375 51.21875 20.453125 
Q 51.21875 11.28125 44.71875 5.03125 
Q 38.234375 -1.21875 27.640625 -1.21875 
Q 17.046875 -1.21875 10.546875 5.046875 
Q 4.046875 11.328125 4.046875 20.703125 
Q 4.046875 27.6875 7.59375 32.390625 
Q 11.140625 37.109375 17.671875 38.8125 
z
M 15.921875 53.71875 
Q 15.921875 48.640625 19.1875 45.40625 
Q 22.46875 42.1875 27.6875 42.1875 
Q 32.765625 42.1875 36.015625 45.375 
Q 39.265625 48.578125 39.265625 53.21875 
Q 39.265625 58.0625 35.90625 61.359375 
Q 32.5625 64.65625 27.59375 64.65625 
Q 22.5625 64.65625 19.234375 61.421875 
Q 15.921875 58.203125 15.921875 53.71875 
z
M 13.09375 20.65625 
Q 13.09375 16.890625 14.875 13.375 
Q 16.65625 9.859375 20.171875 7.921875 
Q 23.6875 6 27.734375 6 
Q 34.03125 6 38.125 10.046875 
Q 42.234375 14.109375 42.234375 20.359375 
Q 42.234375 26.703125 38.015625 30.859375 
Q 33.796875 35.015625 27.4375 35.015625 
Q 21.234375 35.015625 17.15625 30.90625 
Q 13.09375 26.8125 13.09375 20.65625 
z
" id="ArialMT-56"/>
       <path d="M 32.328125 0 
L 32.328125 17.140625 
L 1.265625 17.140625 
L 1.265625 25.203125 
L 33.9375 71.578125 
L 41.109375 71.578125 
L 41.109375 25.203125 
L 50.78125 25.203125 
L 50.78125 17.140625 
L 41.109375 17.140625 
L 41.109375 0 
z
M 32.328125 25.203125 
L 32.328125 57.46875 
L 9.90625 25.203125 
z
" id="ArialMT-52"/>
       <path d="M 4.15625 35.296875 
Q 4.15625 48 6.765625 55.734375 
Q 9.375 63.484375 14.515625 67.671875 
Q 19.671875 71.875 27.484375 71.875 
Q 33.25 71.875 37.59375 69.546875 
Q 41.9375 67.234375 44.765625 62.859375 
Q 47.609375 58.5 49.21875 52.21875 
Q 50.828125 45.953125 50.828125 35.296875 
Q 50.828125 22.703125 48.234375 14.96875 
Q 45.65625 7.234375 40.5 3 
Q 35.359375 -1.21875 27.484375 -1.21875 
Q 17.140625 -1.21875 11.234375 6.203125 
Q 4.15625 15.140625 4.15625 35.296875 
z
M 13.1875 35.296875 
Q 13.1875 17.671875 17.3125 11.828125 
Q 21.4375 6 27.484375 6 
Q 33.546875 6 37.671875 11.859375 
Q 41.796875 17.71875 41.796875 35.296875 
Q 41.796875 52.984375 37.671875 58.78125 
Q 33.546875 64.59375 27.390625 64.59375 
Q 21.34375 64.59375 17.71875 59.46875 
Q 13.1875 52.9375 13.1875 35.296875 
z
" id="ArialMT-48"/>
      </defs>
      <g style="fill:#262626;" transform="translate(53.889638 209.397594)scale(0.11 -0.11)">
       <use xlink:href="#ArialMT-49"/>
       <use x="55.615234" xlink:href="#ArialMT-56"/>
       <use x="111.230469" xlink:href="#ArialMT-56"/>
       <use x="166.845703" xlink:href="#ArialMT-52"/>
       <use x="222.460938" xlink:href="#ArialMT-48"/>
       <use x="278.076172" xlink:href="#ArialMT-48"/>
       <use x="333.691406" xlink:href="#ArialMT-48"/>
      </g>
     </g>
    </g>
    <g id="xtick_2">
     <g id="line2d_4">
      <path clip-path="url(#pf320be9d56)" d="M 218.492745 192.024 
L 218.492745 7.2 
" style="fill:none;stroke:#ffffff;stroke-linecap:round;"/>
     </g>
     <g id="line2d_5">
      <g>
       <use style="fill:#262626;stroke:#262626;stroke-width:1.25;" x="218.492745" xlink:href="#mfd74951b37" y="192.024"/>
      </g>
     </g>
     <g id="text_2">
      <!-- 1888000 -->
      <g style="fill:#262626;" transform="translate(197.083135 209.397594)scale(0.11 -0.11)">
       <use xlink:href="#ArialMT-49"/>
       <use x="55.615234" xlink:href="#ArialMT-56"/>
       <use x="111.230469" xlink:href="#ArialMT-56"/>
       <use x="166.845703" xlink:href="#ArialMT-56"/>
       <use x="222.460938" xlink:href="#ArialMT-48"/>
       <use x="278.076172" xlink:href="#ArialMT-48"/>
       <use x="333.691406" xlink:href="#ArialMT-48"/>
      </g>
     </g>
    </g>
    <g id="xtick_3">
     <g id="line2d_6">
      <path clip-path="url(#pf320be9d56)" d="M 361.686242 192.024 
L 361.686242 7.2 
" style="fill:none;stroke:#ffffff;stroke-linecap:round;"/>
     </g>
     <g id="line2d_7">
      <g>
       <use style="fill:#262626;stroke:#262626;stroke-width:1.25;" x="361.686242" xlink:href="#mfd74951b37" y="192.024"/>
      </g>
     </g>
     <g id="text_3">
      <!-- 1892000 -->
      <defs>
       <path d="M 5.46875 16.546875 
L 13.921875 17.328125 
Q 14.984375 11.375 18.015625 8.6875 
Q 21.046875 6 25.78125 6 
Q 29.828125 6 32.875 7.859375 
Q 35.9375 9.71875 37.890625 12.8125 
Q 39.84375 15.921875 41.15625 21.1875 
Q 42.484375 26.46875 42.484375 31.9375 
Q 42.484375 32.515625 42.4375 33.6875 
Q 39.796875 29.5 35.234375 26.875 
Q 30.671875 24.265625 25.34375 24.265625 
Q 16.453125 24.265625 10.296875 30.703125 
Q 4.15625 37.15625 4.15625 47.703125 
Q 4.15625 58.59375 10.578125 65.234375 
Q 17 71.875 26.65625 71.875 
Q 33.640625 71.875 39.421875 68.109375 
Q 45.21875 64.359375 48.21875 57.390625 
Q 51.21875 50.4375 51.21875 37.25 
Q 51.21875 23.53125 48.234375 15.40625 
Q 45.265625 7.28125 39.375 3.03125 
Q 33.5 -1.21875 25.59375 -1.21875 
Q 17.1875 -1.21875 11.859375 3.4375 
Q 6.546875 8.109375 5.46875 16.546875 
z
M 41.453125 48.140625 
Q 41.453125 55.71875 37.421875 60.15625 
Q 33.40625 64.59375 27.734375 64.59375 
Q 21.875 64.59375 17.53125 59.8125 
Q 13.1875 55.03125 13.1875 47.40625 
Q 13.1875 40.578125 17.3125 36.296875 
Q 21.4375 32.03125 27.484375 32.03125 
Q 33.59375 32.03125 37.515625 36.296875 
Q 41.453125 40.578125 41.453125 48.140625 
z
" id="ArialMT-57"/>
       <path d="M 50.34375 8.453125 
L 50.34375 0 
L 3.03125 0 
Q 2.9375 3.171875 4.046875 6.109375 
Q 5.859375 10.9375 9.828125 15.625 
Q 13.8125 20.3125 21.34375 26.46875 
Q 33.015625 36.03125 37.109375 41.625 
Q 41.21875 47.21875 41.21875 52.203125 
Q 41.21875 57.421875 37.46875 61 
Q 33.734375 64.59375 27.734375 64.59375 
Q 21.390625 64.59375 17.578125 60.78125 
Q 13.765625 56.984375 13.71875 50.25 
L 4.6875 51.171875 
Q 5.609375 61.28125 11.65625 66.578125 
Q 17.71875 71.875 27.9375 71.875 
Q 38.234375 71.875 44.234375 66.15625 
Q 50.25 60.453125 50.25 52 
Q 50.25 47.703125 48.484375 43.546875 
Q 46.734375 39.40625 42.65625 34.8125 
Q 38.578125 30.21875 29.109375 22.21875 
Q 21.1875 15.578125 18.9375 13.203125 
Q 16.703125 10.84375 15.234375 8.453125 
z
" id="ArialMT-50"/>
      </defs>
      <g style="fill:#262626;" transform="translate(340.276633 209.397594)scale(0.11 -0.11)">
       <use xlink:href="#ArialMT-49"/>
       <use x="55.615234" xlink:href="#ArialMT-56"/>
       <use x="111.230469" xlink:href="#ArialMT-57"/>
       <use x="166.845703" xlink:href="#ArialMT-50"/>
       <use x="222.460938" xlink:href="#ArialMT-48"/>
       <use x="278.076172" xlink:href="#ArialMT-48"/>
       <use x="333.691406" xlink:href="#ArialMT-48"/>
      </g>
     </g>
    </g>
    <g id="xtick_4">
     <g id="line2d_8">
      <path clip-path="url(#pf320be9d56)" d="M 504.879739 192.024 
L 504.879739 7.2 
" style="fill:none;stroke:#ffffff;stroke-linecap:round;"/>
     </g>
     <g id="line2d_9">
      <g>
       <use style="fill:#262626;stroke:#262626;stroke-width:1.25;" x="504.879739" xlink:href="#mfd74951b37" y="192.024"/>
      </g>
     </g>
     <g id="text_4">
      <!-- 1896000 -->
      <defs>
       <path d="M 49.75 54.046875 
L 41.015625 53.375 
Q 39.84375 58.546875 37.703125 60.890625 
Q 34.125 64.65625 28.90625 64.65625 
Q 24.703125 64.65625 21.53125 62.3125 
Q 17.390625 59.28125 14.984375 53.46875 
Q 12.59375 47.65625 12.5 36.921875 
Q 15.671875 41.75 20.265625 44.09375 
Q 24.859375 46.4375 29.890625 46.4375 
Q 38.671875 46.4375 44.84375 39.96875 
Q 51.03125 33.5 51.03125 23.25 
Q 51.03125 16.5 48.125 10.71875 
Q 45.21875 4.9375 40.140625 1.859375 
Q 35.0625 -1.21875 28.609375 -1.21875 
Q 17.625 -1.21875 10.6875 6.859375 
Q 3.765625 14.9375 3.765625 33.5 
Q 3.765625 54.25 11.421875 63.671875 
Q 18.109375 71.875 29.4375 71.875 
Q 37.890625 71.875 43.28125 67.140625 
Q 48.6875 62.40625 49.75 54.046875 
z
M 13.875 23.1875 
Q 13.875 18.65625 15.796875 14.5 
Q 17.71875 10.359375 21.1875 8.171875 
Q 24.65625 6 28.46875 6 
Q 34.03125 6 38.03125 10.484375 
Q 42.046875 14.984375 42.046875 22.703125 
Q 42.046875 30.125 38.078125 34.390625 
Q 34.125 38.671875 28.125 38.671875 
Q 22.171875 38.671875 18.015625 34.390625 
Q 13.875 30.125 13.875 23.1875 
z
" id="ArialMT-54"/>
      </defs>
      <g style="fill:#262626;" transform="translate(483.47013 209.397594)scale(0.11 -0.11)">
       <use xlink:href="#ArialMT-49"/>
       <use x="55.615234" xlink:href="#ArialMT-56"/>
       <use x="111.230469" xlink:href="#ArialMT-57"/>
       <use x="166.845703" xlink:href="#ArialMT-54"/>
       <use x="222.460938" xlink:href="#ArialMT-48"/>
       <use x="278.076172" xlink:href="#ArialMT-48"/>
       <use x="333.691406" xlink:href="#ArialMT-48"/>
      </g>
     </g>
    </g>
    <g id="xtick_5">
     <g id="line2d_10">
      <path clip-path="url(#pf320be9d56)" d="M 648.073237 192.024 
L 648.073237 7.2 
" style="fill:none;stroke:#ffffff;stroke-linecap:round;"/>
     </g>
     <g id="line2d_11">
      <g>
       <use style="fill:#262626;stroke:#262626;stroke-width:1.25;" x="648.073237" xlink:href="#mfd74951b37" y="192.024"/>
      </g>
     </g>
     <g id="text_5">
      <!-- 1900000 -->
      <g style="fill:#262626;" transform="translate(626.663627 209.397594)scale(0.11 -0.11)">
       <use xlink:href="#ArialMT-49"/>
       <use x="55.615234" xlink:href="#ArialMT-57"/>
       <use x="111.230469" xlink:href="#ArialMT-48"/>
       <use x="166.845703" xlink:href="#ArialMT-48"/>
       <use x="222.460938" xlink:href="#ArialMT-48"/>
       <use x="278.076172" xlink:href="#ArialMT-48"/>
       <use x="333.691406" xlink:href="#ArialMT-48"/>
      </g>
     </g>
    </g>
    <g id="xtick_6">
     <g id="line2d_12">
      <path clip-path="url(#pf320be9d56)" d="M 791.266734 192.024 
L 791.266734 7.2 
" style="fill:none;stroke:#ffffff;stroke-linecap:round;"/>
     </g>
     <g id="line2d_13">
      <g>
       <use style="fill:#262626;stroke:#262626;stroke-width:1.25;" x="791.266734" xlink:href="#mfd74951b37" y="192.024"/>
      </g>
     </g>
     <g id="text_6">
      <!-- 1904000 -->
      <g style="fill:#262626;" transform="translate(769.857124 209.397594)scale(0.11 -0.11)">
       <use xlink:href="#ArialMT-49"/>
       <use x="55.615234" xlink:href="#ArialMT-57"/>
       <use x="111.230469" xlink:href="#ArialMT-48"/>
       <use x="166.845703" xlink:href="#ArialMT-52"/>
       <use x="222.460938" xlink:href="#ArialMT-48"/>
       <use x="278.076172" xlink:href="#ArialMT-48"/>
       <use x="333.691406" xlink:href="#ArialMT-48"/>
      </g>
     </g>
    </g>
    <g id="xtick_7">
     <g id="line2d_14">
      <path clip-path="url(#pf320be9d56)" d="M 934.460231 192.024 
L 934.460231 7.2 
" style="fill:none;stroke:#ffffff;stroke-linecap:round;"/>
     </g>
     <g id="line2d_15">
      <g>
       <use style="fill:#262626;stroke:#262626;stroke-width:1.25;" x="934.460231" xlink:href="#mfd74951b37" y="192.024"/>
      </g>
     </g>
     <g id="text_7">
      <!-- 1908000 -->
      <g style="fill:#262626;" transform="translate(913.050622 209.397594)scale(0.11 -0.11)">
       <use xlink:href="#ArialMT-49"/>
       <use x="55.615234" xlink:href="#ArialMT-57"/>
       <use x="111.230469" xlink:href="#ArialMT-48"/>
       <use x="166.845703" xlink:href="#ArialMT-56"/>
       <use x="222.460938" xlink:href="#ArialMT-48"/>
       <use x="278.076172" xlink:href="#ArialMT-48"/>
       <use x="333.691406" xlink:href="#ArialMT-48"/>
      </g>
     </g>
    </g>
    <g id="xtick_8">
     <g id="line2d_16">
      <path clip-path="url(#pf320be9d56)" d="M 1077.653728 192.024 
L 1077.653728 7.2 
" style="fill:none;stroke:#ffffff;stroke-linecap:round;"/>
     </g>
     <g id="line2d_17">
      <g>
       <use style="fill:#262626;stroke:#262626;stroke-width:1.25;" x="1077.653728" xlink:href="#mfd74951b37" y="192.024"/>
      </g>
     </g>
     <g id="text_8">
      <!-- 1912000 -->
      <g style="fill:#262626;" transform="translate(1056.244119 209.397594)scale(0.11 -0.11)">
       <use xlink:href="#ArialMT-49"/>
       <use x="55.615234" xlink:href="#ArialMT-57"/>
       <use x="111.230469" xlink:href="#ArialMT-49"/>
       <use x="166.845703" xlink:href="#ArialMT-50"/>
       <use x="222.460938" xlink:href="#ArialMT-48"/>
       <use x="278.076172" xlink:href="#ArialMT-48"/>
       <use x="333.691406" xlink:href="#ArialMT-48"/>
      </g>
     </g>
    </g>
   </g>
   <g id="line2d_18">
    <path clip-path="url(#pf320be9d56)" d="M 323.238788 112.813714 
L 323.238788 165.620571 
" style="fill:none;stroke:#1a1a1a;stroke-linecap:round;stroke-width:0.5;"/>
   </g>
   <g id="line2d_19">
    <path clip-path="url(#pf320be9d56)" d="M 411.875563 112.813714 
L 411.875563 165.620571 
" style="fill:none;stroke:#1a1a1a;stroke-linecap:round;stroke-width:0.5;"/>
   </g>
   <g id="line2d_20">
    <path clip-path="url(#pf320be9d56)" d="M 463.532617 86.410286 
L 463.532617 165.620571 
" style="fill:none;stroke:#1a1a1a;stroke-linecap:round;stroke-width:0.5;"/>
   </g>
   <g id="line2d_21">
    <path clip-path="url(#pf320be9d56)" d="M 496.019642 60.006857 
L 496.019642 165.620571 
" style="fill:none;stroke:#1a1a1a;stroke-linecap:round;stroke-width:0.5;"/>
   </g>
   <g id="line2d_22">
    <path clip-path="url(#pf320be9d56)" d="M 516.836396 112.813714 
L 516.836396 165.620571 
" style="fill:none;stroke:#1a1a1a;stroke-linecap:round;stroke-width:0.5;"/>
   </g>
   <g id="line2d_23">
    <path clip-path="url(#pf320be9d56)" d="M 538.064832 33.603429 
L 538.064832 165.620571 
" style="fill:none;stroke:#1a1a1a;stroke-linecap:round;stroke-width:0.5;"/>
   </g>
   <g id="line2d_24">
    <path clip-path="url(#pf320be9d56)" d="M 619.237646 112.813714 
L 619.237646 165.620571 
" style="fill:none;stroke:#1a1a1a;stroke-linecap:round;stroke-width:0.5;"/>
   </g>
   <g id="line2d_25">
    <path clip-path="url(#pf320be9d56)" d="M 679.897991 86.410286 
L 679.897991 165.620571 
" style="fill:none;stroke:#1a1a1a;stroke-linecap:round;stroke-width:0.5;"/>
   </g>
   <g id="line2d_26">
    <path clip-path="url(#pf320be9d56)" d="M 764.149465 112.813714 
L 764.149465 165.620571 
" style="fill:none;stroke:#1a1a1a;stroke-linecap:round;stroke-width:0.5;"/>
   </g>
   <g id="line2d_27">
    <path clip-path="url(#pf320be9d56)" d="M 843.76505 86.410286 
L 843.76505 165.620571 
" style="fill:none;stroke:#1a1a1a;stroke-linecap:round;stroke-width:0.5;"/>
   </g>
   <g id="text_9">
    <g id="patch_12">
     <path d="M 289.30035 121.210667 
L 357.177225 121.210667 
Q 360.477225 121.210667 360.477225 117.910667 
L 360.477225 107.716761 
Q 360.477225 104.416761 357.177225 104.416761 
L 289.30035 104.416761 
Q 286.00035 104.416761 286.00035 107.716761 
L 286.00035 117.910667 
Q 286.00035 121.210667 289.30035 121.210667 
z
" style="fill:#ffffff;stroke:#808080;stroke-linejoin:miter;"/>
    </g>
    <!-- MASE_08065 -->
    <defs>
     <path d="M 7.421875 0 
L 7.421875 71.578125 
L 21.6875 71.578125 
L 38.625 20.90625 
Q 40.96875 13.8125 42.046875 10.296875 
Q 43.265625 14.203125 45.84375 21.78125 
L 62.984375 71.578125 
L 75.734375 71.578125 
L 75.734375 0 
L 66.609375 0 
L 66.609375 59.90625 
L 45.796875 0 
L 37.25 0 
L 16.546875 60.9375 
L 16.546875 0 
z
" id="ArialMT-77"/>
     <path d="M -0.140625 0 
L 27.34375 71.578125 
L 37.546875 71.578125 
L 66.84375 0 
L 56.0625 0 
L 47.703125 21.6875 
L 17.78125 21.6875 
L 9.90625 0 
z
M 20.515625 29.390625 
L 44.78125 29.390625 
L 37.3125 49.21875 
Q 33.890625 58.25 32.234375 64.0625 
Q 30.859375 57.171875 28.375 50.390625 
z
" id="ArialMT-65"/>
     <path d="M 4.5 23 
L 13.421875 23.78125 
Q 14.0625 18.40625 16.375 14.96875 
Q 18.703125 11.53125 23.578125 9.40625 
Q 28.46875 7.28125 34.578125 7.28125 
Q 39.984375 7.28125 44.140625 8.890625 
Q 48.296875 10.5 50.3125 13.296875 
Q 52.34375 16.109375 52.34375 19.4375 
Q 52.34375 22.796875 50.390625 25.3125 
Q 48.4375 27.828125 43.953125 29.546875 
Q 41.0625 30.671875 31.203125 33.03125 
Q 21.34375 35.40625 17.390625 37.5 
Q 12.25 40.1875 9.734375 44.15625 
Q 7.234375 48.140625 7.234375 53.078125 
Q 7.234375 58.5 10.296875 63.203125 
Q 13.375 67.921875 19.28125 70.359375 
Q 25.203125 72.796875 32.421875 72.796875 
Q 40.375 72.796875 46.453125 70.234375 
Q 52.546875 67.671875 55.8125 62.6875 
Q 59.078125 57.71875 59.328125 51.421875 
L 50.25 50.734375 
Q 49.515625 57.515625 45.28125 60.984375 
Q 41.0625 64.453125 32.8125 64.453125 
Q 24.21875 64.453125 20.28125 61.296875 
Q 16.359375 58.15625 16.359375 53.71875 
Q 16.359375 49.859375 19.140625 47.359375 
Q 21.875 44.875 33.421875 42.265625 
Q 44.96875 39.65625 49.265625 37.703125 
Q 55.515625 34.8125 58.484375 30.390625 
Q 61.46875 25.984375 61.46875 20.21875 
Q 61.46875 14.5 58.203125 9.4375 
Q 54.9375 4.390625 48.796875 1.578125 
Q 42.671875 -1.21875 35.015625 -1.21875 
Q 25.296875 -1.21875 18.71875 1.609375 
Q 12.15625 4.4375 8.421875 10.125 
Q 4.6875 15.828125 4.5 23 
z
" id="ArialMT-83"/>
     <path d="M 7.90625 0 
L 7.90625 71.578125 
L 59.671875 71.578125 
L 59.671875 63.140625 
L 17.390625 63.140625 
L 17.390625 41.21875 
L 56.984375 41.21875 
L 56.984375 32.8125 
L 17.390625 32.8125 
L 17.390625 8.453125 
L 61.328125 8.453125 
L 61.328125 0 
z
" id="ArialMT-69"/>
     <path d="M -1.515625 -19.875 
L -1.515625 -13.53125 
L 56.734375 -13.53125 
L 56.734375 -19.875 
z
" id="ArialMT-95"/>
     <path d="M 4.15625 18.75 
L 13.375 19.53125 
Q 14.40625 12.796875 18.140625 9.390625 
Q 21.875 6 27.15625 6 
Q 33.5 6 37.890625 10.78125 
Q 42.28125 15.578125 42.28125 23.484375 
Q 42.28125 31 38.0625 35.34375 
Q 33.84375 39.703125 27 39.703125 
Q 22.75 39.703125 19.328125 37.765625 
Q 15.921875 35.84375 13.96875 32.765625 
L 5.71875 33.84375 
L 12.640625 70.609375 
L 48.25 70.609375 
L 48.25 62.203125 
L 19.671875 62.203125 
L 15.828125 42.96875 
Q 22.265625 47.46875 29.34375 47.46875 
Q 38.71875 47.46875 45.15625 40.96875 
Q 51.609375 34.46875 51.609375 24.265625 
Q 51.609375 14.546875 45.953125 7.46875 
Q 39.0625 -1.21875 27.15625 -1.21875 
Q 17.390625 -1.21875 11.203125 4.25 
Q 5.03125 9.71875 4.15625 18.75 
z
" id="ArialMT-53"/>
    </defs>
    <g style="fill:#262626;" transform="translate(289.30035 115.724417)scale(0.11 -0.11)">
     <use xlink:href="#ArialMT-77"/>
     <use x="83.300781" xlink:href="#ArialMT-65"/>
     <use x="150" xlink:href="#ArialMT-83"/>
     <use x="216.699219" xlink:href="#ArialMT-69"/>
     <use x="283.398438" xlink:href="#ArialMT-95"/>
     <use x="339.013672" xlink:href="#ArialMT-48"/>
     <use x="394.628906" xlink:href="#ArialMT-56"/>
     <use x="450.244141" xlink:href="#ArialMT-48"/>
     <use x="505.859375" xlink:href="#ArialMT-54"/>
     <use x="561.474609" xlink:href="#ArialMT-53"/>
    </g>
   </g>
   <g id="text_10">
    <g id="patch_13">
     <path d="M 377.937125 121.210667 
L 445.814 121.210667 
Q 449.114 121.210667 449.114 117.910667 
L 449.114 107.716761 
Q 449.114 104.416761 445.814 104.416761 
L 377.937125 104.416761 
Q 374.637125 104.416761 374.637125 107.716761 
L 374.637125 117.910667 
Q 374.637125 121.210667 377.937125 121.210667 
z
" style="fill:#ffffff;stroke:#808080;stroke-linejoin:miter;"/>
    </g>
    <!-- MASE_08070 -->
    <defs>
     <path d="M 4.734375 62.203125 
L 4.734375 70.65625 
L 51.078125 70.65625 
L 51.078125 63.8125 
Q 44.234375 56.546875 37.515625 44.484375 
Q 30.8125 32.421875 27.15625 19.671875 
Q 24.515625 10.6875 23.78125 0 
L 14.75 0 
Q 14.890625 8.453125 18.0625 20.40625 
Q 21.234375 32.375 27.171875 43.484375 
Q 33.109375 54.59375 39.796875 62.203125 
z
" id="ArialMT-55"/>
    </defs>
    <g style="fill:#262626;" transform="translate(377.937125 115.724417)scale(0.11 -0.11)">
     <use xlink:href="#ArialMT-77"/>
     <use x="83.300781" xlink:href="#ArialMT-65"/>
     <use x="150" xlink:href="#ArialMT-83"/>
     <use x="216.699219" xlink:href="#ArialMT-69"/>
     <use x="283.398438" xlink:href="#ArialMT-95"/>
     <use x="339.013672" xlink:href="#ArialMT-48"/>
     <use x="394.628906" xlink:href="#ArialMT-56"/>
     <use x="450.244141" xlink:href="#ArialMT-48"/>
     <use x="505.859375" xlink:href="#ArialMT-55"/>
     <use x="561.474609" xlink:href="#ArialMT-48"/>
    </g>
   </g>
   <g id="text_11">
    <g id="patch_14">
     <path d="M 429.594179 94.807239 
L 497.471054 94.807239 
Q 500.771054 94.807239 500.771054 91.507239 
L 500.771054 81.313333 
Q 500.771054 78.013333 497.471054 78.013333 
L 429.594179 78.013333 
Q 426.294179 78.013333 426.294179 81.313333 
L 426.294179 91.507239 
Q 426.294179 94.807239 429.594179 94.807239 
z
" style="fill:#ffffff;stroke:#808080;stroke-linejoin:miter;"/>
    </g>
    <!-- MASE_08075 -->
    <g style="fill:#262626;" transform="translate(429.594179 89.320989)scale(0.11 -0.11)">
     <use xlink:href="#ArialMT-77"/>
     <use x="83.300781" xlink:href="#ArialMT-65"/>
     <use x="150" xlink:href="#ArialMT-83"/>
     <use x="216.699219" xlink:href="#ArialMT-69"/>
     <use x="283.398438" xlink:href="#ArialMT-95"/>
     <use x="339.013672" xlink:href="#ArialMT-48"/>
     <use x="394.628906" xlink:href="#ArialMT-56"/>
     <use x="450.244141" xlink:href="#ArialMT-48"/>
     <use x="505.859375" xlink:href="#ArialMT-55"/>
     <use x="561.474609" xlink:href="#ArialMT-53"/>
    </g>
   </g>
   <g id="text_12">
    <g id="patch_15">
     <path d="M 462.081204 68.40381 
L 529.958079 68.40381 
Q 533.258079 68.40381 533.258079 65.10381 
L 533.258079 54.909904 
Q 533.258079 51.609904 529.958079 51.609904 
L 462.081204 51.609904 
Q 458.781204 51.609904 458.781204 54.909904 
L 458.781204 65.10381 
Q 458.781204 68.40381 462.081204 68.40381 
z
" style="fill:#ffffff;stroke:#808080;stroke-linejoin:miter;"/>
    </g>
    <!-- MASE_08080 -->
    <g style="fill:#262626;" transform="translate(462.081204 62.91756)scale(0.11 -0.11)">
     <use xlink:href="#ArialMT-77"/>
     <use x="83.300781" xlink:href="#ArialMT-65"/>
     <use x="150" xlink:href="#ArialMT-83"/>
     <use x="216.699219" xlink:href="#ArialMT-69"/>
     <use x="283.398438" xlink:href="#ArialMT-95"/>
     <use x="339.013672" xlink:href="#ArialMT-48"/>
     <use x="394.628906" xlink:href="#ArialMT-56"/>
     <use x="450.244141" xlink:href="#ArialMT-48"/>
     <use x="505.859375" xlink:href="#ArialMT-56"/>
     <use x="561.474609" xlink:href="#ArialMT-48"/>
    </g>
   </g>
   <g id="text_13">
    <g id="patch_16">
     <path d="M 482.897959 121.210667 
L 550.774834 121.210667 
Q 554.074834 121.210667 554.074834 117.910667 
L 554.074834 107.716761 
Q 554.074834 104.416761 550.774834 104.416761 
L 482.897959 104.416761 
Q 479.597959 104.416761 479.597959 107.716761 
L 479.597959 117.910667 
Q 479.597959 121.210667 482.897959 121.210667 
z
" style="fill:#ffffff;stroke:#808080;stroke-linejoin:miter;"/>
    </g>
    <!-- MASE_08085 -->
    <g style="fill:#262626;" transform="translate(482.897959 115.724417)scale(0.11 -0.11)">
     <use xlink:href="#ArialMT-77"/>
     <use x="83.300781" xlink:href="#ArialMT-65"/>
     <use x="150" xlink:href="#ArialMT-83"/>
     <use x="216.699219" xlink:href="#ArialMT-69"/>
     <use x="283.398438" xlink:href="#ArialMT-95"/>
     <use x="339.013672" xlink:href="#ArialMT-48"/>
     <use x="394.628906" xlink:href="#ArialMT-56"/>
     <use x="450.244141" xlink:href="#ArialMT-48"/>
     <use x="505.859375" xlink:href="#ArialMT-56"/>
     <use x="561.474609" xlink:href="#ArialMT-53"/>
    </g>
   </g>
   <g id="text_14">
    <g id="patch_17">
     <path d="M 504.126395 42.000382 
L 572.00327 42.000382 
Q 575.30327 42.000382 575.30327 38.700382 
L 575.30327 28.506475 
Q 575.30327 25.206475 572.00327 25.206475 
L 504.126395 25.206475 
Q 500.826395 25.206475 500.826395 28.506475 
L 500.826395 38.700382 
Q 500.826395 42.000382 504.126395 42.000382 
z
" style="fill:#ffffff;stroke:#808080;stroke-linejoin:miter;"/>
    </g>
    <!-- MASE_08090 -->
    <g style="fill:#262626;" transform="translate(504.126395 36.514132)scale(0.11 -0.11)">
     <use xlink:href="#ArialMT-77"/>
     <use x="83.300781" xlink:href="#ArialMT-65"/>
     <use x="150" xlink:href="#ArialMT-83"/>
     <use x="216.699219" xlink:href="#ArialMT-69"/>
     <use x="283.398438" xlink:href="#ArialMT-95"/>
     <use x="339.013672" xlink:href="#ArialMT-48"/>
     <use x="394.628906" xlink:href="#ArialMT-56"/>
     <use x="450.244141" xlink:href="#ArialMT-48"/>
     <use x="505.859375" xlink:href="#ArialMT-57"/>
     <use x="561.474609" xlink:href="#ArialMT-48"/>
    </g>
   </g>
   <g id="text_15">
    <g id="patch_18">
     <path d="M 585.299209 121.210667 
L 653.176084 121.210667 
Q 656.476084 121.210667 656.476084 117.910667 
L 656.476084 107.716761 
Q 656.476084 104.416761 653.176084 104.416761 
L 585.299209 104.416761 
Q 581.999209 104.416761 581.999209 107.716761 
L 581.999209 117.910667 
Q 581.999209 121.210667 585.299209 121.210667 
z
" style="fill:#ffecec;stroke:#808080;stroke-linejoin:miter;"/>
    </g>
    <!-- MASE_08095 -->
    <g style="fill:#262626;" transform="translate(585.299209 115.724417)scale(0.11 -0.11)">
     <use xlink:href="#ArialMT-77"/>
     <use x="83.300781" xlink:href="#ArialMT-65"/>
     <use x="150" xlink:href="#ArialMT-83"/>
     <use x="216.699219" xlink:href="#ArialMT-69"/>
     <use x="283.398438" xlink:href="#ArialMT-95"/>
     <use x="339.013672" xlink:href="#ArialMT-48"/>
     <use x="394.628906" xlink:href="#ArialMT-56"/>
     <use x="450.244141" xlink:href="#ArialMT-48"/>
     <use x="505.859375" xlink:href="#ArialMT-57"/>
     <use x="561.474609" xlink:href="#ArialMT-53"/>
    </g>
   </g>
   <g id="text_16">
    <g id="patch_19">
     <path d="M 645.959554 94.807239 
L 713.836429 94.807239 
Q 717.136429 94.807239 717.136429 91.507239 
L 717.136429 81.313333 
Q 717.136429 78.013333 713.836429 78.013333 
L 645.959554 78.013333 
Q 642.659554 78.013333 642.659554 81.313333 
L 642.659554 91.507239 
Q 642.659554 94.807239 645.959554 94.807239 
z
" style="fill:#ffffff;stroke:#808080;stroke-linejoin:miter;"/>
    </g>
    <!-- MASE_08100 -->
    <g style="fill:#262626;" transform="translate(645.959554 89.320989)scale(0.11 -0.11)">
     <use xlink:href="#ArialMT-77"/>
     <use x="83.300781" xlink:href="#ArialMT-65"/>
     <use x="150" xlink:href="#ArialMT-83"/>
     <use x="216.699219" xlink:href="#ArialMT-69"/>
     <use x="283.398438" xlink:href="#ArialMT-95"/>
     <use x="339.013672" xlink:href="#ArialMT-48"/>
     <use x="394.628906" xlink:href="#ArialMT-56"/>
     <use x="450.244141" xlink:href="#ArialMT-49"/>
     <use x="505.859375" xlink:href="#ArialMT-48"/>
     <use x="561.474609" xlink:href="#ArialMT-48"/>
    </g>
   </g>
   <g id="text_17">
    <g id="patch_20">
     <path d="M 730.211028 121.210667 
L 798.087903 121.210667 
Q 801.387903 121.210667 801.387903 117.910667 
L 801.387903 107.716761 
Q 801.387903 104.416761 798.087903 104.416761 
L 730.211028 104.416761 
Q 726.911028 104.416761 726.911028 107.716761 
L 726.911028 117.910667 
Q 726.911028 121.210667 730.211028 121.210667 
z
" style="fill:#ffffff;stroke:#808080;stroke-linejoin:miter;"/>
    </g>
    <!-- MASE_08105 -->
    <g style="fill:#262626;" transform="translate(730.211028 115.724417)scale(0.11 -0.11)">
     <use xlink:href="#ArialMT-77"/>
     <use x="83.300781" xlink:href="#ArialMT-65"/>
     <use x="150" xlink:href="#ArialMT-83"/>
     <use x="216.699219" xlink:href="#ArialMT-69"/>
     <use x="283.398438" xlink:href="#ArialMT-95"/>
     <use x="339.013672" xlink:href="#ArialMT-48"/>
     <use x="394.628906" xlink:href="#ArialMT-56"/>
     <use x="450.244141" xlink:href="#ArialMT-49"/>
     <use x="505.859375" xlink:href="#ArialMT-48"/>
     <use x="561.474609" xlink:href="#ArialMT-53"/>
    </g>
   </g>
   <g id="text_18">
    <g id="patch_21">
     <path d="M 809.832628 94.807239 
L 877.697472 94.807239 
Q 880.997472 94.807239 880.997472 91.507239 
L 880.997472 81.313333 
Q 880.997472 78.013333 877.697472 78.013333 
L 809.832628 78.013333 
Q 806.532628 78.013333 806.532628 81.313333 
L 806.532628 91.507239 
Q 806.532628 94.807239 809.832628 94.807239 
z
" style="fill:#ffffff;stroke:#808080;stroke-linejoin:miter;"/>
    </g>
    <!-- MASE_08110 -->
    <g style="fill:#262626;" transform="translate(809.832628 89.320989)scale(0.11 -0.11)">
     <use xlink:href="#ArialMT-77"/>
     <use x="83.300781" xlink:href="#ArialMT-65"/>
     <use x="150" xlink:href="#ArialMT-83"/>
     <use x="216.699219" xlink:href="#ArialMT-69"/>
     <use x="283.398438" xlink:href="#ArialMT-95"/>
     <use x="339.013672" xlink:href="#ArialMT-48"/>
     <use x="394.628906" xlink:href="#ArialMT-56"/>
     <use x="450.244141" xlink:href="#ArialMT-49"/>
     <use x="505.75" xlink:href="#ArialMT-49"/>
     <use x="561.365234" xlink:href="#ArialMT-48"/>
    </g>
   </g>
  </g>
 </g>
 <defs>
  <clipPath id="pf320be9d56">
   <rect height="184.824" width="1116" x="7.2" y="7.2"/>
  </clipPath>
 </defs>
</svg>
