<?xml version="1.0" encoding="utf-8" standalone="no"?>
<!DOCTYPE svg PUBLIC "-//W3C//DTD SVG 1.1//EN"
  "http://www.w3.org/Graphics/SVG/1.1/DTD/svg11.dtd">
<!-- Created with matplotlib (https://matplotlib.org/) -->
<svg height="240.527844pt" version="1.1" viewBox="0 0 1130.4 240.527844" width="1130.4pt" xmlns="http://www.w3.org/2000/svg" xmlns:xlink="http://www.w3.org/1999/xlink">
 <defs>
  <style type="text/css">
*{stroke-linecap:butt;stroke-linejoin:round;}
  </style>
 </defs>
 <g id="figure_1">
  <g id="patch_1">
   <path d="M 0 240.527844 
L 1130.4 240.527844 
L 1130.4 0 
L 0 0 
z
" style="fill:#ffffff;"/>
  </g>
  <g id="axes_1">
   <g id="line2d_1">
    <path clip-path="url(#pd622784e1b)" d="M 7.2 187.947 
L 1123.2 187.947 
" style="fill:none;stroke:#1a1a1a;stroke-linecap:round;stroke-width:1.5;"/>
   </g>
   <g id="patch_2">
    <path clip-path="url(#pd622784e1b)" d="M 110.632243 194.947 
Q 76.723104 194.947 42.813964 194.947 
L 42.813964 194.947 
Q 38.615734 191.447 34.417504 187.947 
Q 38.615734 184.447 42.813964 180.947 
L 42.813964 180.947 
Q 76.723104 180.947 110.632243 180.947 
L 110.632243 194.947 
z
" style="fill:#ffffff;fill-opacity:0.85;stroke:#000000;stroke-linecap:round;"/>
   </g>
   <g id="patch_3">
    <path clip-path="url(#pd622784e1b)" d="M 173.780575 194.947 
Q 151.956648 194.947 130.132721 194.947 
L 130.132721 194.947 
Q 125.93123 191.447 121.729739 187.947 
Q 125.93123 184.447 130.132721 180.947 
L 130.132721 180.947 
Q 151.956648 180.947 173.780575 180.947 
L 173.780575 194.947 
z
" style="fill:#ffffff;fill-opacity:0.85;stroke:#000000;stroke-linecap:round;"/>
   </g>
   <g id="patch_4">
    <path clip-path="url(#pd622784e1b)" d="M 274.409805 194.947 
Q 229.495802 194.947 184.581799 194.947 
L 184.581799 194.947 
Q 180.380433 191.447 176.179066 187.947 
Q 180.380433 184.447 184.581799 180.947 
L 184.581799 180.947 
Q 229.495802 180.947 274.409805 180.947 
L 274.409805 194.947 
z
" style="fill:#ff0000;fill-opacity:0.85;stroke:#000000;stroke-linecap:round;"/>
   </g>
   <g id="patch_5">
    <path clip-path="url(#pd622784e1b)" d="M 338.488895 194.947 
Q 316.127134 194.947 293.765373 194.947 
L 293.765373 194.947 
Q 289.56474 191.447 285.364108 187.947 
Q 289.56474 184.447 293.765373 180.947 
L 293.765373 180.947 
Q 316.127134 180.947 338.488895 180.947 
L 338.488895 194.947 
z
" style="fill:#ffffff;fill-opacity:0.85;stroke:#000000;stroke-linecap:round;"/>
   </g>
   <g id="patch_6">
    <path clip-path="url(#pd622784e1b)" d="M 344.252434 180.947 
Q 353.621553 180.947 362.990671 180.947 
L 362.990671 180.947 
Q 367.189136 184.447 371.387601 187.947 
Q 367.189136 191.447 362.990671 194.947 
L 362.990671 194.947 
Q 353.621553 194.947 344.252434 194.947 
L 344.252434 180.947 
z
" style="fill:#ffffff;fill-opacity:0.85;stroke:#000000;stroke-linecap:round;"/>
   </g>
   <g id="patch_7">
    <path clip-path="url(#pd622784e1b)" d="M 382.306106 180.947 
Q 405.796334 180.947 429.286562 180.947 
L 429.286562 180.947 
Q 433.486376 184.447 437.686191 187.947 
Q 433.486376 191.447 429.286562 194.947 
L 429.286562 194.947 
Q 405.796334 194.947 382.306106 194.947 
L 382.306106 180.947 
z
" style="fill:#ffffff;fill-opacity:0.85;stroke:#000000;stroke-linecap:round;"/>
   </g>
   <g id="patch_8">
    <path clip-path="url(#pd622784e1b)" d="M 441.552415 180.947 
Q 447.806171 180.947 454.059927 180.947 
L 454.059927 180.947 
Q 458.259296 184.447 462.458666 187.947 
Q 458.259296 191.447 454.059927 194.947 
L 454.059927 194.947 
Q 447.806171 194.947 441.552415 194.947 
L 441.552415 180.947 
z
" style="fill:#ffffff;fill-opacity:0.85;stroke:#000000;stroke-linecap:round;"/>
   </g>
   <g id="patch_9">
    <path clip-path="url(#pd622784e1b)" d="M 467.327245 180.947 
Q 472.130026 180.947 476.932807 180.947 
L 476.932807 180.947 
Q 481.133317 184.447 485.333827 187.947 
Q 481.133317 191.447 476.932807 194.947 
L 476.932807 194.947 
Q 472.130026 194.947 467.327245 194.947 
L 467.327245 180.947 
z
" style="fill:#ffffff;fill-opacity:0.85;stroke:#000000;stroke-linecap:round;"/>
   </g>
   <g id="patch_10">
    <path clip-path="url(#pd622784e1b)" d="M 491.312155 180.947 
Q 503.47221 180.947 515.632265 180.947 
L 515.632265 180.947 
Q 519.832067 184.447 524.03187 187.947 
Q 519.832067 191.447 515.632265 194.947 
L 515.632265 194.947 
Q 503.47221 194.947 491.312155 194.947 
L 491.312155 180.947 
z
" style="fill:#ffffff;fill-opacity:0.85;stroke:#000000;stroke-linecap:round;"/>
   </g>
   <g id="patch_11">
    <path clip-path="url(#pd622784e1b)" d="M 523.924474 155.126 
Q 530.928899 155.126 537.933324 155.126 
L 537.933324 155.126 
Q 542.13379 158.626 546.334257 162.126 
Q 542.13379 165.626 537.933324 169.126 
L 537.933324 169.126 
Q 530.928899 169.126 523.924474 169.126 
L 523.924474 155.126 
z
" style="fill:#ffffff;fill-opacity:0.85;stroke:#000000;stroke-linecap:round;"/>
   </g>
   <g id="patch_12">
    <path clip-path="url(#pd622784e1b)" d="M 545.439297 180.947 
Q 552.820062 180.947 560.200826 180.947 
L 560.200826 180.947 
Q 564.400836 184.447 568.600846 187.947 
Q 564.400836 191.447 560.200826 194.947 
L 560.200826 194.947 
Q 552.820062 194.947 545.439297 194.947 
L 545.439297 180.947 
z
" style="fill:#ffffff;fill-opacity:0.85;stroke:#000000;stroke-linecap:round;"/>
   </g>
   <g id="patch_13">
    <path clip-path="url(#pd622784e1b)" d="M 568.958829 155.126 
Q 570.487252 155.126 572.015675 155.126 
L 572.015675 155.126 
Q 576.214992 158.626 580.414309 162.126 
Q 576.214992 165.626 572.015675 169.126 
L 572.015675 169.126 
Q 570.487252 169.126 568.958829 169.126 
L 568.958829 155.126 
z
" style="fill:#ffffff;fill-opacity:0.85;stroke:#000000;stroke-linecap:round;"/>
   </g>
   <g id="patch_14">
    <path clip-path="url(#pd622784e1b)" d="M 579.841535 180.947 
Q 606.929984 180.947 634.018433 180.947 
L 634.018433 180.947 
Q 638.217763 184.447 642.417093 187.947 
Q 638.217763 191.447 634.018433 194.947 
L 634.018433 194.947 
Q 606.929984 194.947 579.841535 194.947 
L 579.841535 180.947 
z
" style="fill:#ffffff;fill-opacity:0.85;stroke:#000000;stroke-linecap:round;"/>
   </g>
   <g id="patch_15">
    <path clip-path="url(#pd622784e1b)" d="M 642.524489 155.126 
Q 654.469709 155.126 666.41493 155.126 
L 666.41493 155.126 
Q 670.614776 158.626 674.814622 162.126 
Q 670.614776 165.626 666.41493 169.126 
L 666.41493 169.126 
Q 654.469709 169.126 642.524489 169.126 
L 642.524489 155.126 
z
" style="fill:#ffffff;fill-opacity:0.85;stroke:#000000;stroke-linecap:round;"/>
   </g>
   <g id="patch_16">
    <path clip-path="url(#pd622784e1b)" d="M 674.707227 180.947 
Q 692.452674 180.947 710.198121 180.947 
L 710.198121 180.947 
Q 714.397077 184.447 718.596034 187.947 
Q 714.397077 191.447 710.198121 194.947 
L 710.198121 194.947 
Q 692.452674 194.947 674.707227 194.947 
L 674.707227 180.947 
z
" style="fill:#ffffff;fill-opacity:0.85;stroke:#000000;stroke-linecap:round;"/>
   </g>
   <g id="patch_17">
    <path clip-path="url(#pd622784e1b)" d="M 718.596034 180.947 
Q 745.040562 180.947 771.485091 180.947 
L 771.485091 180.947 
Q 775.683971 184.447 779.882851 187.947 
Q 775.683971 191.447 771.485091 194.947 
L 771.485091 194.947 
Q 745.040562 194.947 718.596034 194.947 
L 718.596034 180.947 
z
" style="fill:#ffffff;fill-opacity:0.85;stroke:#000000;stroke-linecap:round;"/>
   </g>
   <g id="patch_18">
    <path clip-path="url(#pd622784e1b)" d="M 779.882851 180.947 
Q 797.788249 180.947 815.693647 180.947 
L 815.693647 180.947 
Q 819.893745 184.447 824.093843 187.947 
Q 819.893745 191.447 815.693647 194.947 
L 815.693647 194.947 
Q 797.788249 194.947 779.882851 194.947 
L 779.882851 180.947 
z
" style="fill:#ffffff;fill-opacity:0.85;stroke:#000000;stroke-linecap:round;"/>
   </g>
   <g id="patch_19">
    <path clip-path="url(#pd622784e1b)" d="M 825.096198 180.947 
Q 829.739647 180.947 834.383096 180.947 
L 834.383096 180.947 
Q 838.581845 184.447 842.780594 187.947 
Q 838.581845 191.447 834.383096 194.947 
L 834.383096 194.947 
Q 829.739647 194.947 825.096198 194.947 
L 825.096198 180.947 
z
" style="fill:#ffffff;fill-opacity:0.85;stroke:#000000;stroke-linecap:round;"/>
   </g>
   <g id="patch_20">
    <path clip-path="url(#pd622784e1b)" d="M 844.42732 180.947 
Q 850.733722 180.947 857.040124 180.947 
L 857.040124 180.947 
Q 861.240545 184.447 865.440965 187.947 
Q 861.240545 191.447 857.040124 194.947 
L 857.040124 194.947 
Q 850.733722 194.947 844.42732 194.947 
L 844.42732 180.947 
z
" style="fill:#ffffff;fill-opacity:0.85;stroke:#000000;stroke-linecap:round;"/>
   </g>
   <g id="patch_21">
    <path clip-path="url(#pd622784e1b)" d="M 866.264328 180.947 
Q 871.012245 180.947 875.760161 180.947 
L 875.760161 180.947 
Q 879.961838 184.447 884.163515 187.947 
Q 879.961838 191.447 875.760161 194.947 
L 875.760161 194.947 
Q 871.012245 194.947 866.264328 194.947 
L 866.264328 180.947 
z
" style="fill:#ffffff;fill-opacity:0.85;stroke:#000000;stroke-linecap:round;"/>
   </g>
   <g id="patch_22">
    <path clip-path="url(#pd622784e1b)" d="M 884.235112 155.126 
Q 888.286337 155.126 892.337562 155.126 
L 892.337562 155.126 
Q 896.537862 158.626 900.738162 162.126 
Q 896.537862 165.626 892.337562 169.126 
L 892.337562 169.126 
Q 888.286337 169.126 884.235112 169.126 
L 884.235112 155.126 
z
" style="fill:#ffffff;fill-opacity:0.85;stroke:#000000;stroke-linecap:round;"/>
   </g>
   <g id="patch_23">
    <path clip-path="url(#pd622784e1b)" d="M 900.380179 180.947 
Q 905.505093 180.947 910.630007 180.947 
L 910.630007 180.947 
Q 914.830569 184.447 919.031132 187.947 
Q 914.830569 191.447 910.630007 194.947 
L 910.630007 194.947 
Q 905.505093 194.947 900.380179 194.947 
L 900.380179 180.947 
z
" style="fill:#ffffff;fill-opacity:0.85;stroke:#000000;stroke-linecap:round;"/>
   </g>
   <g id="patch_24">
    <path clip-path="url(#pd622784e1b)" d="M 919.031132 180.947 
Q 928.130428 180.947 937.229724 180.947 
L 937.229724 180.947 
Q 941.429524 184.447 945.629324 187.947 
Q 941.429524 191.447 937.229724 194.947 
L 937.229724 194.947 
Q 928.130428 194.947 919.031132 194.947 
L 919.031132 180.947 
z
" style="fill:#ffffff;fill-opacity:0.85;stroke:#000000;stroke-linecap:round;"/>
   </g>
   <g id="patch_25">
    <path clip-path="url(#pd622784e1b)" d="M 945.27134 155.126 
Q 949.807211 155.126 954.343082 155.126 
L 954.343082 155.126 
Q 958.542014 158.626 962.740947 162.126 
Q 958.542014 165.626 954.343082 169.126 
L 954.343082 169.126 
Q 949.807211 169.126 945.27134 169.126 
L 945.27134 155.126 
z
" style="fill:#ffffff;fill-opacity:0.85;stroke:#000000;stroke-linecap:round;"/>
   </g>
   <g id="patch_26">
    <path clip-path="url(#pd622784e1b)" d="M 962.740947 180.947 
Q 1025.16336 180.947 1087.585774 180.947 
L 1087.585774 180.947 
Q 1091.784135 184.447 1095.982496 187.947 
Q 1091.784135 191.447 1087.585774 194.947 
L 1087.585774 194.947 
Q 1025.16336 194.947 962.740947 194.947 
L 962.740947 180.947 
z
" style="fill:#ffffff;fill-opacity:0.85;stroke:#000000;stroke-linecap:round;"/>
   </g>
   <g id="matplotlib.axis_1">
    <g id="xtick_1">
     <g id="line2d_2">
      <path clip-path="url(#pd622784e1b)" d="M 147.379274 213.768 
L 147.379274 7.2 
" style="fill:none;stroke:#ffffff;stroke-linecap:round;"/>
     </g>
     <g id="line2d_3">
      <defs>
       <path d="M 0 0 
L 0 6 
" id="m8b7efc0a80" style="stroke:#262626;stroke-width:1.25;"/>
      </defs>
      <g>
       <use style="fill:#262626;stroke:#262626;stroke-width:1.25;" x="147.379274" xlink:href="#m8b7efc0a80" y="213.768"/>
      </g>
     </g>
     <g id="text_1">
      <!-- 208000 -->
      <defs>
       <path d="M 50.34375 8.453125 
L 50.34375 0 
L 3.03125 0 
Q 2.9375 3.171875 4.046875 6.109375 
Q 5.859375 10.9375 9.828125 15.625 
Q 13.8125 20.3125 21.34375 26.46875 
Q 33.015625 36.03125 37.109375 41.625 
Q 41.21875 47.21875 41.21875 52.203125 
Q 41.21875 57.421875 37.46875 61 
Q 33.734375 64.59375 27.734375 64.59375 
Q 21.390625 64.59375 17.578125 60.78125 
Q 13.765625 56.984375 13.71875 50.25 
L 4.6875 51.171875 
Q 5.609375 61.28125 11.65625 66.578125 
Q 17.71875 71.875 27.9375 71.875 
Q 38.234375 71.875 44.234375 66.15625 
Q 50.25 60.453125 50.25 52 
Q 50.25 47.703125 48.484375 43.546875 
Q 46.734375 39.40625 42.65625 34.8125 
Q 38.578125 30.21875 29.109375 22.21875 
Q 21.1875 15.578125 18.9375 13.203125 
Q 16.703125 10.84375 15.234375 8.453125 
z
" id="ArialMT-50"/>
       <path d="M 4.15625 35.296875 
Q 4.15625 48 6.765625 55.734375 
Q 9.375 63.484375 14.515625 67.671875 
Q 19.671875 71.875 27.484375 71.875 
Q 33.25 71.875 37.59375 69.546875 
Q 41.9375 67.234375 44.765625 62.859375 
Q 47.609375 58.5 49.21875 52.21875 
Q 50.828125 45.953125 50.828125 35.296875 
Q 50.828125 22.703125 48.234375 14.96875 
Q 45.65625 7.234375 40.5 3 
Q 35.359375 -1.21875 27.484375 -1.21875 
Q 17.140625 -1.21875 11.234375 6.203125 
Q 4.15625 15.140625 4.15625 35.296875 
z
M 13.1875 35.296875 
Q 13.1875 17.671875 17.3125 11.828125 
Q 21.4375 6 27.484375 6 
Q 33.546875 6 37.671875 11.859375 
Q 41.796875 17.71875 41.796875 35.296875 
Q 41.796875 52.984375 37.671875 58.78125 
Q 33.546875 64.59375 27.390625 64.59375 
Q 21.34375 64.59375 17.71875 59.46875 
Q 13.1875 52.9375 13.1875 35.296875 
z
" id="ArialMT-48"/>
       <path d="M 17.671875 38.8125 
Q 12.203125 40.828125 9.5625 44.53125 
Q 6.9375 48.25 6.9375 53.421875 
Q 6.9375 61.234375 12.546875 66.546875 
Q 18.171875 71.875 27.484375 71.875 
Q 36.859375 71.875 42.578125 66.421875 
Q 48.296875 60.984375 48.296875 53.171875 
Q 48.296875 48.1875 45.671875 44.5 
Q 43.0625 40.828125 37.75 38.8125 
Q 44.34375 36.671875 47.78125 31.875 
Q 51.21875 27.09375 51.21875 20.453125 
Q 51.21875 11.28125 44.71875 5.03125 
Q 38.234375 -1.21875 27.640625 -1.21875 
Q 17.046875 -1.21875 10.546875 5.046875 
Q 4.046875 11.328125 4.046875 20.703125 
Q 4.046875 27.6875 7.59375 32.390625 
Q 11.140625 37.109375 17.671875 38.8125 
z
M 15.921875 53.71875 
Q 15.921875 48.640625 19.1875 45.40625 
Q 22.46875 42.1875 27.6875 42.1875 
Q 32.765625 42.1875 36.015625 45.375 
Q 39.265625 48.578125 39.265625 53.21875 
Q 39.265625 58.0625 35.90625 61.359375 
Q 32.5625 64.65625 27.59375 64.65625 
Q 22.5625 64.65625 19.234375 61.421875 
Q 15.921875 58.203125 15.921875 53.71875 
z
M 13.09375 20.65625 
Q 13.09375 16.890625 14.875 13.375 
Q 16.65625 9.859375 20.171875 7.921875 
Q 23.6875 6 27.734375 6 
Q 34.03125 6 38.125 10.046875 
Q 42.234375 14.109375 42.234375 20.359375 
Q 42.234375 26.703125 38.015625 30.859375 
Q 33.796875 35.015625 27.4375 35.015625 
Q 21.234375 35.015625 17.15625 30.90625 
Q 13.09375 26.8125 13.09375 20.65625 
z
" id="ArialMT-56"/>
      </defs>
      <g style="fill:#262626;" transform="translate(129.02818 231.141594)scale(0.11 -0.11)">
       <use xlink:href="#ArialMT-50"/>
       <use x="55.615234" xlink:href="#ArialMT-48"/>
       <use x="111.230469" xlink:href="#ArialMT-56"/>
       <use x="166.845703" xlink:href="#ArialMT-48"/>
       <use x="222.460938" xlink:href="#ArialMT-48"/>
       <use x="278.076172" xlink:href="#ArialMT-48"/>
      </g>
     </g>
    </g>
    <g id="xtick_2">
     <g id="line2d_4">
      <path clip-path="url(#pd622784e1b)" d="M 290.572771 213.768 
L 290.572771 7.2 
" style="fill:none;stroke:#ffffff;stroke-linecap:round;"/>
     </g>
     <g id="line2d_5">
      <g>
       <use style="fill:#262626;stroke:#262626;stroke-width:1.25;" x="290.572771" xlink:href="#m8b7efc0a80" y="213.768"/>
      </g>
     </g>
     <g id="text_2">
      <!-- 212000 -->
      <defs>
       <path d="M 37.25 0 
L 28.46875 0 
L 28.46875 56 
Q 25.296875 52.984375 20.140625 49.953125 
Q 14.984375 46.921875 10.890625 45.40625 
L 10.890625 53.90625 
Q 18.265625 57.375 23.78125 62.296875 
Q 29.296875 67.234375 31.59375 71.875 
L 37.25 71.875 
z
" id="ArialMT-49"/>
      </defs>
      <g style="fill:#262626;" transform="translate(272.221678 231.141594)scale(0.11 -0.11)">
       <use xlink:href="#ArialMT-50"/>
       <use x="55.615234" xlink:href="#ArialMT-49"/>
       <use x="111.230469" xlink:href="#ArialMT-50"/>
       <use x="166.845703" xlink:href="#ArialMT-48"/>
       <use x="222.460938" xlink:href="#ArialMT-48"/>
       <use x="278.076172" xlink:href="#ArialMT-48"/>
      </g>
     </g>
    </g>
    <g id="xtick_3">
     <g id="line2d_6">
      <path clip-path="url(#pd622784e1b)" d="M 433.766269 213.768 
L 433.766269 7.2 
" style="fill:none;stroke:#ffffff;stroke-linecap:round;"/>
     </g>
     <g id="line2d_7">
      <g>
       <use style="fill:#262626;stroke:#262626;stroke-width:1.25;" x="433.766269" xlink:href="#m8b7efc0a80" y="213.768"/>
      </g>
     </g>
     <g id="text_3">
      <!-- 216000 -->
      <defs>
       <path d="M 49.75 54.046875 
L 41.015625 53.375 
Q 39.84375 58.546875 37.703125 60.890625 
Q 34.125 64.65625 28.90625 64.65625 
Q 24.703125 64.65625 21.53125 62.3125 
Q 17.390625 59.28125 14.984375 53.46875 
Q 12.59375 47.65625 12.5 36.921875 
Q 15.671875 41.75 20.265625 44.09375 
Q 24.859375 46.4375 29.890625 46.4375 
Q 38.671875 46.4375 44.84375 39.96875 
Q 51.03125 33.5 51.03125 23.25 
Q 51.03125 16.5 48.125 10.71875 
Q 45.21875 4.9375 40.140625 1.859375 
Q 35.0625 -1.21875 28.609375 -1.21875 
Q 17.625 -1.21875 10.6875 6.859375 
Q 3.765625 14.9375 3.765625 33.5 
Q 3.765625 54.25 11.421875 63.671875 
Q 18.109375 71.875 29.4375 71.875 
Q 37.890625 71.875 43.28125 67.140625 
Q 48.6875 62.40625 49.75 54.046875 
z
M 13.875 23.1875 
Q 13.875 18.65625 15.796875 14.5 
Q 17.71875 10.359375 21.1875 8.171875 
Q 24.65625 6 28.46875 6 
Q 34.03125 6 38.03125 10.484375 
Q 42.046875 14.984375 42.046875 22.703125 
Q 42.046875 30.125 38.078125 34.390625 
Q 34.125 38.671875 28.125 38.671875 
Q 22.171875 38.671875 18.015625 34.390625 
Q 13.875 30.125 13.875 23.1875 
z
" id="ArialMT-54"/>
      </defs>
      <g style="fill:#262626;" transform="translate(415.415175 231.141594)scale(0.11 -0.11)">
       <use xlink:href="#ArialMT-50"/>
       <use x="55.615234" xlink:href="#ArialMT-49"/>
       <use x="111.230469" xlink:href="#ArialMT-54"/>
       <use x="166.845703" xlink:href="#ArialMT-48"/>
       <use x="222.460938" xlink:href="#ArialMT-48"/>
       <use x="278.076172" xlink:href="#ArialMT-48"/>
      </g>
     </g>
    </g>
    <g id="xtick_4">
     <g id="line2d_8">
      <path clip-path="url(#pd622784e1b)" d="M 576.959766 213.768 
L 576.959766 7.2 
" style="fill:none;stroke:#ffffff;stroke-linecap:round;"/>
     </g>
     <g id="line2d_9">
      <g>
       <use style="fill:#262626;stroke:#262626;stroke-width:1.25;" x="576.959766" xlink:href="#m8b7efc0a80" y="213.768"/>
      </g>
     </g>
     <g id="text_4">
      <!-- 220000 -->
      <g style="fill:#262626;" transform="translate(558.608672 231.141594)scale(0.11 -0.11)">
       <use xlink:href="#ArialMT-50"/>
       <use x="55.615234" xlink:href="#ArialMT-50"/>
       <use x="111.230469" xlink:href="#ArialMT-48"/>
       <use x="166.845703" xlink:href="#ArialMT-48"/>
       <use x="222.460938" xlink:href="#ArialMT-48"/>
       <use x="278.076172" xlink:href="#ArialMT-48"/>
      </g>
     </g>
    </g>
    <g id="xtick_5">
     <g id="line2d_10">
      <path clip-path="url(#pd622784e1b)" d="M 720.153263 213.768 
L 720.153263 7.2 
" style="fill:none;stroke:#ffffff;stroke-linecap:round;"/>
     </g>
     <g id="line2d_11">
      <g>
       <use style="fill:#262626;stroke:#262626;stroke-width:1.25;" x="720.153263" xlink:href="#m8b7efc0a80" y="213.768"/>
      </g>
     </g>
     <g id="text_5">
      <!-- 224000 -->
      <defs>
       <path d="M 32.328125 0 
L 32.328125 17.140625 
L 1.265625 17.140625 
L 1.265625 25.203125 
L 33.9375 71.578125 
L 41.109375 71.578125 
L 41.109375 25.203125 
L 50.78125 25.203125 
L 50.78125 17.140625 
L 41.109375 17.140625 
L 41.109375 0 
z
M 32.328125 25.203125 
L 32.328125 57.46875 
L 9.90625 25.203125 
z
" id="ArialMT-52"/>
      </defs>
      <g style="fill:#262626;" transform="translate(701.802169 231.141594)scale(0.11 -0.11)">
       <use xlink:href="#ArialMT-50"/>
       <use x="55.615234" xlink:href="#ArialMT-50"/>
       <use x="111.230469" xlink:href="#ArialMT-52"/>
       <use x="166.845703" xlink:href="#ArialMT-48"/>
       <use x="222.460938" xlink:href="#ArialMT-48"/>
       <use x="278.076172" xlink:href="#ArialMT-48"/>
      </g>
     </g>
    </g>
    <g id="xtick_6">
     <g id="line2d_12">
      <path clip-path="url(#pd622784e1b)" d="M 863.346761 213.768 
L 863.346761 7.2 
" style="fill:none;stroke:#ffffff;stroke-linecap:round;"/>
     </g>
     <g id="line2d_13">
      <g>
       <use style="fill:#262626;stroke:#262626;stroke-width:1.25;" x="863.346761" xlink:href="#m8b7efc0a80" y="213.768"/>
      </g>
     </g>
     <g id="text_6">
      <!-- 228000 -->
      <g style="fill:#262626;" transform="translate(844.995667 231.141594)scale(0.11 -0.11)">
       <use xlink:href="#ArialMT-50"/>
       <use x="55.615234" xlink:href="#ArialMT-50"/>
       <use x="111.230469" xlink:href="#ArialMT-56"/>
       <use x="166.845703" xlink:href="#ArialMT-48"/>
       <use x="222.460938" xlink:href="#ArialMT-48"/>
       <use x="278.076172" xlink:href="#ArialMT-48"/>
      </g>
     </g>
    </g>
    <g id="xtick_7">
     <g id="line2d_14">
      <path clip-path="url(#pd622784e1b)" d="M 1006.540258 213.768 
L 1006.540258 7.2 
" style="fill:none;stroke:#ffffff;stroke-linecap:round;"/>
     </g>
     <g id="line2d_15">
      <g>
       <use style="fill:#262626;stroke:#262626;stroke-width:1.25;" x="1006.540258" xlink:href="#m8b7efc0a80" y="213.768"/>
      </g>
     </g>
     <g id="text_7">
      <!-- 232000 -->
      <defs>
       <path d="M 4.203125 18.890625 
L 12.984375 20.0625 
Q 14.5 12.59375 18.140625 9.296875 
Q 21.78125 6 27 6 
Q 33.203125 6 37.46875 10.296875 
Q 41.75 14.59375 41.75 20.953125 
Q 41.75 27 37.796875 30.921875 
Q 33.84375 34.859375 27.734375 34.859375 
Q 25.25 34.859375 21.53125 33.890625 
L 22.515625 41.609375 
Q 23.390625 41.5 23.921875 41.5 
Q 29.546875 41.5 34.03125 44.421875 
Q 38.53125 47.359375 38.53125 53.46875 
Q 38.53125 58.296875 35.25 61.46875 
Q 31.984375 64.65625 26.8125 64.65625 
Q 21.6875 64.65625 18.265625 61.421875 
Q 14.84375 58.203125 13.875 51.765625 
L 5.078125 53.328125 
Q 6.6875 62.15625 12.390625 67.015625 
Q 18.109375 71.875 26.609375 71.875 
Q 32.46875 71.875 37.390625 69.359375 
Q 42.328125 66.84375 44.9375 62.5 
Q 47.5625 58.15625 47.5625 53.265625 
Q 47.5625 48.640625 45.0625 44.828125 
Q 42.578125 41.015625 37.703125 38.765625 
Q 44.046875 37.3125 47.5625 32.6875 
Q 51.078125 28.078125 51.078125 21.140625 
Q 51.078125 11.765625 44.234375 5.25 
Q 37.40625 -1.265625 26.953125 -1.265625 
Q 17.53125 -1.265625 11.296875 4.34375 
Q 5.078125 9.96875 4.203125 18.890625 
z
" id="ArialMT-51"/>
      </defs>
      <g style="fill:#262626;" transform="translate(988.189164 231.141594)scale(0.11 -0.11)">
       <use xlink:href="#ArialMT-50"/>
       <use x="55.615234" xlink:href="#ArialMT-51"/>
       <use x="111.230469" xlink:href="#ArialMT-50"/>
       <use x="166.845703" xlink:href="#ArialMT-48"/>
       <use x="222.460938" xlink:href="#ArialMT-48"/>
       <use x="278.076172" xlink:href="#ArialMT-48"/>
      </g>
     </g>
    </g>
   </g>
   <g id="line2d_16">
    <path clip-path="url(#pd622784e1b)" d="M 72.542773 136.305 
L 72.542773 187.947 
" style="fill:none;stroke:#1a1a1a;stroke-linecap:round;stroke-width:0.5;"/>
   </g>
   <g id="line2d_17">
    <path clip-path="url(#pd622784e1b)" d="M 147.773056 110.484 
L 147.773056 187.947 
" style="fill:none;stroke:#1a1a1a;stroke-linecap:round;stroke-width:0.5;"/>
   </g>
   <g id="line2d_18">
    <path clip-path="url(#pd622784e1b)" d="M 225.312335 136.305 
L 225.312335 187.947 
" style="fill:none;stroke:#1a1a1a;stroke-linecap:round;stroke-width:0.5;"/>
   </g>
   <g id="line2d_19">
    <path clip-path="url(#pd622784e1b)" d="M 311.944401 110.484 
L 311.944401 187.947 
" style="fill:none;stroke:#1a1a1a;stroke-linecap:round;stroke-width:0.5;"/>
   </g>
   <g id="line2d_20">
    <path clip-path="url(#pd622784e1b)" d="M 357.837917 136.305 
L 357.837917 187.947 
" style="fill:none;stroke:#1a1a1a;stroke-linecap:round;stroke-width:0.5;"/>
   </g>
   <g id="line2d_21">
    <path clip-path="url(#pd622784e1b)" d="M 410.014047 110.484 
L 410.014047 187.947 
" style="fill:none;stroke:#1a1a1a;stroke-linecap:round;stroke-width:0.5;"/>
   </g>
   <g id="line2d_22">
    <path clip-path="url(#pd622784e1b)" d="M 452.02344 136.305 
L 452.02344 187.947 
" style="fill:none;stroke:#1a1a1a;stroke-linecap:round;stroke-width:0.5;"/>
   </g>
   <g id="line2d_23">
    <path clip-path="url(#pd622784e1b)" d="M 476.348435 84.663 
L 476.348435 187.947 
" style="fill:none;stroke:#1a1a1a;stroke-linecap:round;stroke-width:0.5;"/>
   </g>
   <g id="line2d_24">
    <path clip-path="url(#pd622784e1b)" d="M 507.689912 110.484 
L 507.689912 187.947 
" style="fill:none;stroke:#1a1a1a;stroke-linecap:round;stroke-width:0.5;"/>
   </g>
   <g id="line2d_25">
    <path clip-path="url(#pd622784e1b)" d="M 535.147265 58.842 
L 535.147265 162.126 
" style="fill:none;stroke:#1a1a1a;stroke-linecap:round;stroke-width:0.5;"/>
   </g>
   <g id="line2d_26">
    <path clip-path="url(#pd622784e1b)" d="M 557.037971 136.305 
L 557.037971 187.947 
" style="fill:none;stroke:#1a1a1a;stroke-linecap:round;stroke-width:0.5;"/>
   </g>
   <g id="line2d_27">
    <path clip-path="url(#pd622784e1b)" d="M 574.704468 84.663 
L 574.704468 162.126 
" style="fill:none;stroke:#1a1a1a;stroke-linecap:round;stroke-width:0.5;"/>
   </g>
   <g id="line2d_28">
    <path clip-path="url(#pd622784e1b)" d="M 611.147213 110.484 
L 611.147213 187.947 
" style="fill:none;stroke:#1a1a1a;stroke-linecap:round;stroke-width:0.5;"/>
   </g>
   <g id="line2d_29">
    <path clip-path="url(#pd622784e1b)" d="M 658.687455 136.305 
L 658.687455 162.126 
" style="fill:none;stroke:#1a1a1a;stroke-linecap:round;stroke-width:0.5;"/>
   </g>
   <g id="line2d_30">
    <path clip-path="url(#pd622784e1b)" d="M 696.66953 84.663 
L 696.66953 187.947 
" style="fill:none;stroke:#1a1a1a;stroke-linecap:round;stroke-width:0.5;"/>
   </g>
   <g id="line2d_31">
    <path clip-path="url(#pd622784e1b)" d="M 749.257342 136.305 
L 749.257342 187.947 
" style="fill:none;stroke:#1a1a1a;stroke-linecap:round;stroke-width:0.5;"/>
   </g>
   <g id="line2d_32">
    <path clip-path="url(#pd622784e1b)" d="M 802.006246 110.484 
L 802.006246 187.947 
" style="fill:none;stroke:#1a1a1a;stroke-linecap:round;stroke-width:0.5;"/>
   </g>
   <g id="line2d_33">
    <path clip-path="url(#pd622784e1b)" d="M 833.956295 84.663 
L 833.956295 187.947 
" style="fill:none;stroke:#1a1a1a;stroke-linecap:round;stroke-width:0.5;"/>
   </g>
   <g id="line2d_34">
    <path clip-path="url(#pd622784e1b)" d="M 854.952042 136.305 
L 854.952042 187.947 
" style="fill:none;stroke:#1a1a1a;stroke-linecap:round;stroke-width:0.5;"/>
   </g>
   <g id="line2d_35">
    <path clip-path="url(#pd622784e1b)" d="M 875.231821 58.842 
L 875.231821 187.947 
" style="fill:none;stroke:#1a1a1a;stroke-linecap:round;stroke-width:0.5;"/>
   </g>
   <g id="line2d_36">
    <path clip-path="url(#pd622784e1b)" d="M 892.504536 110.484 
L 892.504536 162.126 
" style="fill:none;stroke:#1a1a1a;stroke-linecap:round;stroke-width:0.5;"/>
   </g>
   <g id="line2d_37">
    <path clip-path="url(#pd622784e1b)" d="M 909.723554 33.021 
L 909.723554 187.947 
" style="fill:none;stroke:#1a1a1a;stroke-linecap:round;stroke-width:0.5;"/>
   </g>
   <g id="line2d_38">
    <path clip-path="url(#pd622784e1b)" d="M 932.348127 84.663 
L 932.348127 187.947 
" style="fill:none;stroke:#1a1a1a;stroke-linecap:round;stroke-width:0.5;"/>
   </g>
   <g id="line2d_39">
    <path clip-path="url(#pd622784e1b)" d="M 954.024043 136.305 
L 954.024043 162.126 
" style="fill:none;stroke:#1a1a1a;stroke-linecap:round;stroke-width:0.5;"/>
   </g>
   <g id="line2d_40">
    <path clip-path="url(#pd622784e1b)" d="M 1029.379621 110.484 
L 1029.379621 187.947 
" style="fill:none;stroke:#1a1a1a;stroke-linecap:round;stroke-width:0.5;"/>
   </g>
   <g id="text_8">
    <g id="patch_27">
     <path d="M 38.604335 144.701953 
L 106.48121 144.701953 
Q 109.78121 144.701953 109.78121 141.401953 
L 109.78121 131.208047 
Q 109.78121 127.908047 106.48121 127.908047 
L 38.604335 127.908047 
Q 35.304335 127.908047 35.304335 131.208047 
L 35.304335 141.401953 
Q 35.304335 144.701953 38.604335 144.701953 
z
" style="fill:#ffffff;stroke:#808080;stroke-linejoin:miter;"/>
    </g>
    <!-- MASE_00925 -->
    <defs>
     <path d="M 7.421875 0 
L 7.421875 71.578125 
L 21.6875 71.578125 
L 38.625 20.90625 
Q 40.96875 13.8125 42.046875 10.296875 
Q 43.265625 14.203125 45.84375 21.78125 
L 62.984375 71.578125 
L 75.734375 71.578125 
L 75.734375 0 
L 66.609375 0 
L 66.609375 59.90625 
L 45.796875 0 
L 37.25 0 
L 16.546875 60.9375 
L 16.546875 0 
z
" id="ArialMT-77"/>
     <path d="M -0.140625 0 
L 27.34375 71.578125 
L 37.546875 71.578125 
L 66.84375 0 
L 56.0625 0 
L 47.703125 21.6875 
L 17.78125 21.6875 
L 9.90625 0 
z
M 20.515625 29.390625 
L 44.78125 29.390625 
L 37.3125 49.21875 
Q 33.890625 58.25 32.234375 64.0625 
Q 30.859375 57.171875 28.375 50.390625 
z
" id="ArialMT-65"/>
     <path d="M 4.5 23 
L 13.421875 23.78125 
Q 14.0625 18.40625 16.375 14.96875 
Q 18.703125 11.53125 23.578125 9.40625 
Q 28.46875 7.28125 34.578125 7.28125 
Q 39.984375 7.28125 44.140625 8.890625 
Q 48.296875 10.5 50.3125 13.296875 
Q 52.34375 16.109375 52.34375 19.4375 
Q 52.34375 22.796875 50.390625 25.3125 
Q 48.4375 27.828125 43.953125 29.546875 
Q 41.0625 30.671875 31.203125 33.03125 
Q 21.34375 35.40625 17.390625 37.5 
Q 12.25 40.1875 9.734375 44.15625 
Q 7.234375 48.140625 7.234375 53.078125 
Q 7.234375 58.5 10.296875 63.203125 
Q 13.375 67.921875 19.28125 70.359375 
Q 25.203125 72.796875 32.421875 72.796875 
Q 40.375 72.796875 46.453125 70.234375 
Q 52.546875 67.671875 55.8125 62.6875 
Q 59.078125 57.71875 59.328125 51.421875 
L 50.25 50.734375 
Q 49.515625 57.515625 45.28125 60.984375 
Q 41.0625 64.453125 32.8125 64.453125 
Q 24.21875 64.453125 20.28125 61.296875 
Q 16.359375 58.15625 16.359375 53.71875 
Q 16.359375 49.859375 19.140625 47.359375 
Q 21.875 44.875 33.421875 42.265625 
Q 44.96875 39.65625 49.265625 37.703125 
Q 55.515625 34.8125 58.484375 30.390625 
Q 61.46875 25.984375 61.46875 20.21875 
Q 61.46875 14.5 58.203125 9.4375 
Q 54.9375 4.390625 48.796875 1.578125 
Q 42.671875 -1.21875 35.015625 -1.21875 
Q 25.296875 -1.21875 18.71875 1.609375 
Q 12.15625 4.4375 8.421875 10.125 
Q 4.6875 15.828125 4.5 23 
z
" id="ArialMT-83"/>
     <path d="M 7.90625 0 
L 7.90625 71.578125 
L 59.671875 71.578125 
L 59.671875 63.140625 
L 17.390625 63.140625 
L 17.390625 41.21875 
L 56.984375 41.21875 
L 56.984375 32.8125 
L 17.390625 32.8125 
L 17.390625 8.453125 
L 61.328125 8.453125 
L 61.328125 0 
z
" id="ArialMT-69"/>
     <path d="M -1.515625 -19.875 
L -1.515625 -13.53125 
L 56.734375 -13.53125 
L 56.734375 -19.875 
z
" id="ArialMT-95"/>
     <path d="M 5.46875 16.546875 
L 13.921875 17.328125 
Q 14.984375 11.375 18.015625 8.6875 
Q 21.046875 6 25.78125 6 
Q 29.828125 6 32.875 7.859375 
Q 35.9375 9.71875 37.890625 12.8125 
Q 39.84375 15.921875 41.15625 21.1875 
Q 42.484375 26.46875 42.484375 31.9375 
Q 42.484375 32.515625 42.4375 33.6875 
Q 39.796875 29.5 35.234375 26.875 
Q 30.671875 24.265625 25.34375 24.265625 
Q 16.453125 24.265625 10.296875 30.703125 
Q 4.15625 37.15625 4.15625 47.703125 
Q 4.15625 58.59375 10.578125 65.234375 
Q 17 71.875 26.65625 71.875 
Q 33.640625 71.875 39.421875 68.109375 
Q 45.21875 64.359375 48.21875 57.390625 
Q 51.21875 50.4375 51.21875 37.25 
Q 51.21875 23.53125 48.234375 15.40625 
Q 45.265625 7.28125 39.375 3.03125 
Q 33.5 -1.21875 25.59375 -1.21875 
Q 17.1875 -1.21875 11.859375 3.4375 
Q 6.546875 8.109375 5.46875 16.546875 
z
M 41.453125 48.140625 
Q 41.453125 55.71875 37.421875 60.15625 
Q 33.40625 64.59375 27.734375 64.59375 
Q 21.875 64.59375 17.53125 59.8125 
Q 13.1875 55.03125 13.1875 47.40625 
Q 13.1875 40.578125 17.3125 36.296875 
Q 21.4375 32.03125 27.484375 32.03125 
Q 33.59375 32.03125 37.515625 36.296875 
Q 41.453125 40.578125 41.453125 48.140625 
z
" id="ArialMT-57"/>
     <path d="M 4.15625 18.75 
L 13.375 19.53125 
Q 14.40625 12.796875 18.140625 9.390625 
Q 21.875 6 27.15625 6 
Q 33.5 6 37.890625 10.78125 
Q 42.28125 15.578125 42.28125 23.484375 
Q 42.28125 31 38.0625 35.34375 
Q 33.84375 39.703125 27 39.703125 
Q 22.75 39.703125 19.328125 37.765625 
Q 15.921875 35.84375 13.96875 32.765625 
L 5.71875 33.84375 
L 12.640625 70.609375 
L 48.25 70.609375 
L 48.25 62.203125 
L 19.671875 62.203125 
L 15.828125 42.96875 
Q 22.265625 47.46875 29.34375 47.46875 
Q 38.71875 47.46875 45.15625 40.96875 
Q 51.609375 34.46875 51.609375 24.265625 
Q 51.609375 14.546875 45.953125 7.46875 
Q 39.0625 -1.21875 27.15625 -1.21875 
Q 17.390625 -1.21875 11.203125 4.25 
Q 5.03125 9.71875 4.15625 18.75 
z
" id="ArialMT-53"/>
    </defs>
    <g style="fill:#262626;" transform="translate(38.604335 139.215703)scale(0.11 -0.11)">
     <use xlink:href="#ArialMT-77"/>
     <use x="83.300781" xlink:href="#ArialMT-65"/>
     <use x="150" xlink:href="#ArialMT-83"/>
     <use x="216.699219" xlink:href="#ArialMT-69"/>
     <use x="283.398438" xlink:href="#ArialMT-95"/>
     <use x="339.013672" xlink:href="#ArialMT-48"/>
     <use x="394.628906" xlink:href="#ArialMT-48"/>
     <use x="450.244141" xlink:href="#ArialMT-57"/>
     <use x="505.859375" xlink:href="#ArialMT-50"/>
     <use x="561.474609" xlink:href="#ArialMT-53"/>
    </g>
   </g>
   <g id="text_9">
    <g id="patch_28">
     <path d="M 113.834619 118.880953 
L 181.711494 118.880953 
Q 185.011494 118.880953 185.011494 115.580953 
L 185.011494 105.387047 
Q 185.011494 102.087047 181.711494 102.087047 
L 113.834619 102.087047 
Q 110.534619 102.087047 110.534619 105.387047 
L 110.534619 115.580953 
Q 110.534619 118.880953 113.834619 118.880953 
z
" style="fill:#ffffff;stroke:#808080;stroke-linejoin:miter;"/>
    </g>
    <!-- MASE_00930 -->
    <g style="fill:#262626;" transform="translate(113.834619 113.394703)scale(0.11 -0.11)">
     <use xlink:href="#ArialMT-77"/>
     <use x="83.300781" xlink:href="#ArialMT-65"/>
     <use x="150" xlink:href="#ArialMT-83"/>
     <use x="216.699219" xlink:href="#ArialMT-69"/>
     <use x="283.398438" xlink:href="#ArialMT-95"/>
     <use x="339.013672" xlink:href="#ArialMT-48"/>
     <use x="394.628906" xlink:href="#ArialMT-48"/>
     <use x="450.244141" xlink:href="#ArialMT-57"/>
     <use x="505.859375" xlink:href="#ArialMT-51"/>
     <use x="561.474609" xlink:href="#ArialMT-48"/>
    </g>
   </g>
   <g id="text_10">
    <g id="patch_29">
     <path d="M 191.373898 144.701953 
L 259.250773 144.701953 
Q 262.550773 144.701953 262.550773 141.401953 
L 262.550773 131.208047 
Q 262.550773 127.908047 259.250773 127.908047 
L 191.373898 127.908047 
Q 188.073898 127.908047 188.073898 131.208047 
L 188.073898 141.401953 
Q 188.073898 144.701953 191.373898 144.701953 
z
" style="fill:#ffecec;stroke:#808080;stroke-linejoin:miter;"/>
    </g>
    <!-- MASE_00935 -->
    <g style="fill:#262626;" transform="translate(191.373898 139.215703)scale(0.11 -0.11)">
     <use xlink:href="#ArialMT-77"/>
     <use x="83.300781" xlink:href="#ArialMT-65"/>
     <use x="150" xlink:href="#ArialMT-83"/>
     <use x="216.699219" xlink:href="#ArialMT-69"/>
     <use x="283.398438" xlink:href="#ArialMT-95"/>
     <use x="339.013672" xlink:href="#ArialMT-48"/>
     <use x="394.628906" xlink:href="#ArialMT-48"/>
     <use x="450.244141" xlink:href="#ArialMT-57"/>
     <use x="505.859375" xlink:href="#ArialMT-51"/>
     <use x="561.474609" xlink:href="#ArialMT-53"/>
    </g>
   </g>
   <g id="text_11">
    <g id="patch_30">
     <path d="M 278.005963 118.880953 
L 345.882838 118.880953 
Q 349.182838 118.880953 349.182838 115.580953 
L 349.182838 105.387047 
Q 349.182838 102.087047 345.882838 102.087047 
L 278.005963 102.087047 
Q 274.705963 102.087047 274.705963 105.387047 
L 274.705963 115.580953 
Q 274.705963 118.880953 278.005963 118.880953 
z
" style="fill:#ffffff;stroke:#808080;stroke-linejoin:miter;"/>
    </g>
    <!-- MASE_00940 -->
    <g style="fill:#262626;" transform="translate(278.005963 113.394703)scale(0.11 -0.11)">
     <use xlink:href="#ArialMT-77"/>
     <use x="83.300781" xlink:href="#ArialMT-65"/>
     <use x="150" xlink:href="#ArialMT-83"/>
     <use x="216.699219" xlink:href="#ArialMT-69"/>
     <use x="283.398438" xlink:href="#ArialMT-95"/>
     <use x="339.013672" xlink:href="#ArialMT-48"/>
     <use x="394.628906" xlink:href="#ArialMT-48"/>
     <use x="450.244141" xlink:href="#ArialMT-57"/>
     <use x="505.859375" xlink:href="#ArialMT-52"/>
     <use x="561.474609" xlink:href="#ArialMT-48"/>
    </g>
   </g>
   <g id="text_12">
    <g id="patch_31">
     <path d="M 323.899479 144.701953 
L 391.776354 144.701953 
Q 395.076354 144.701953 395.076354 141.401953 
L 395.076354 131.208047 
Q 395.076354 127.908047 391.776354 127.908047 
L 323.899479 127.908047 
Q 320.599479 127.908047 320.599479 131.208047 
L 320.599479 141.401953 
Q 320.599479 144.701953 323.899479 144.701953 
z
" style="fill:#ffffff;stroke:#808080;stroke-linejoin:miter;"/>
    </g>
    <!-- MASE_00945 -->
    <g style="fill:#262626;" transform="translate(323.899479 139.215703)scale(0.11 -0.11)">
     <use xlink:href="#ArialMT-77"/>
     <use x="83.300781" xlink:href="#ArialMT-65"/>
     <use x="150" xlink:href="#ArialMT-83"/>
     <use x="216.699219" xlink:href="#ArialMT-69"/>
     <use x="283.398438" xlink:href="#ArialMT-95"/>
     <use x="339.013672" xlink:href="#ArialMT-48"/>
     <use x="394.628906" xlink:href="#ArialMT-48"/>
     <use x="450.244141" xlink:href="#ArialMT-57"/>
     <use x="505.859375" xlink:href="#ArialMT-52"/>
     <use x="561.474609" xlink:href="#ArialMT-53"/>
    </g>
   </g>
   <g id="text_13">
    <g id="patch_32">
     <path d="M 376.07561 118.880953 
L 443.952485 118.880953 
Q 447.252485 118.880953 447.252485 115.580953 
L 447.252485 105.387047 
Q 447.252485 102.087047 443.952485 102.087047 
L 376.07561 102.087047 
Q 372.77561 102.087047 372.77561 105.387047 
L 372.77561 115.580953 
Q 372.77561 118.880953 376.07561 118.880953 
z
" style="fill:#ffffff;stroke:#808080;stroke-linejoin:miter;"/>
    </g>
    <!-- MASE_00950 -->
    <g style="fill:#262626;" transform="translate(376.07561 113.394703)scale(0.11 -0.11)">
     <use xlink:href="#ArialMT-77"/>
     <use x="83.300781" xlink:href="#ArialMT-65"/>
     <use x="150" xlink:href="#ArialMT-83"/>
     <use x="216.699219" xlink:href="#ArialMT-69"/>
     <use x="283.398438" xlink:href="#ArialMT-95"/>
     <use x="339.013672" xlink:href="#ArialMT-48"/>
     <use x="394.628906" xlink:href="#ArialMT-48"/>
     <use x="450.244141" xlink:href="#ArialMT-57"/>
     <use x="505.859375" xlink:href="#ArialMT-53"/>
     <use x="561.474609" xlink:href="#ArialMT-48"/>
    </g>
   </g>
   <g id="text_14">
    <g id="patch_33">
     <path d="M 418.085002 144.701953 
L 485.961877 144.701953 
Q 489.261877 144.701953 489.261877 141.401953 
L 489.261877 131.208047 
Q 489.261877 127.908047 485.961877 127.908047 
L 418.085002 127.908047 
Q 414.785002 127.908047 414.785002 131.208047 
L 414.785002 141.401953 
Q 414.785002 144.701953 418.085002 144.701953 
z
" style="fill:#ffffff;stroke:#808080;stroke-linejoin:miter;"/>
    </g>
    <!-- MASE_00955 -->
    <g style="fill:#262626;" transform="translate(418.085002 139.215703)scale(0.11 -0.11)">
     <use xlink:href="#ArialMT-77"/>
     <use x="83.300781" xlink:href="#ArialMT-65"/>
     <use x="150" xlink:href="#ArialMT-83"/>
     <use x="216.699219" xlink:href="#ArialMT-69"/>
     <use x="283.398438" xlink:href="#ArialMT-95"/>
     <use x="339.013672" xlink:href="#ArialMT-48"/>
     <use x="394.628906" xlink:href="#ArialMT-48"/>
     <use x="450.244141" xlink:href="#ArialMT-57"/>
     <use x="505.859375" xlink:href="#ArialMT-53"/>
     <use x="561.474609" xlink:href="#ArialMT-53"/>
    </g>
   </g>
   <g id="text_15">
    <g id="patch_34">
     <path d="M 442.409997 93.059953 
L 510.286872 93.059953 
Q 513.586872 93.059953 513.586872 89.759953 
L 513.586872 79.566047 
Q 513.586872 76.266047 510.286872 76.266047 
L 442.409997 76.266047 
Q 439.109997 76.266047 439.109997 79.566047 
L 439.109997 89.759953 
Q 439.109997 93.059953 442.409997 93.059953 
z
" style="fill:#ffffff;stroke:#808080;stroke-linejoin:miter;"/>
    </g>
    <!-- MASE_00960 -->
    <g style="fill:#262626;" transform="translate(442.409997 87.573703)scale(0.11 -0.11)">
     <use xlink:href="#ArialMT-77"/>
     <use x="83.300781" xlink:href="#ArialMT-65"/>
     <use x="150" xlink:href="#ArialMT-83"/>
     <use x="216.699219" xlink:href="#ArialMT-69"/>
     <use x="283.398438" xlink:href="#ArialMT-95"/>
     <use x="339.013672" xlink:href="#ArialMT-48"/>
     <use x="394.628906" xlink:href="#ArialMT-48"/>
     <use x="450.244141" xlink:href="#ArialMT-57"/>
     <use x="505.859375" xlink:href="#ArialMT-54"/>
     <use x="561.474609" xlink:href="#ArialMT-48"/>
    </g>
   </g>
   <g id="text_16">
    <g id="patch_35">
     <path d="M 473.751474 118.880953 
L 541.628349 118.880953 
Q 544.928349 118.880953 544.928349 115.580953 
L 544.928349 105.387047 
Q 544.928349 102.087047 541.628349 102.087047 
L 473.751474 102.087047 
Q 470.451474 102.087047 470.451474 105.387047 
L 470.451474 115.580953 
Q 470.451474 118.880953 473.751474 118.880953 
z
" style="fill:#ffffff;stroke:#808080;stroke-linejoin:miter;"/>
    </g>
    <!-- MASE_00965 -->
    <g style="fill:#262626;" transform="translate(473.751474 113.394703)scale(0.11 -0.11)">
     <use xlink:href="#ArialMT-77"/>
     <use x="83.300781" xlink:href="#ArialMT-65"/>
     <use x="150" xlink:href="#ArialMT-83"/>
     <use x="216.699219" xlink:href="#ArialMT-69"/>
     <use x="283.398438" xlink:href="#ArialMT-95"/>
     <use x="339.013672" xlink:href="#ArialMT-48"/>
     <use x="394.628906" xlink:href="#ArialMT-48"/>
     <use x="450.244141" xlink:href="#ArialMT-57"/>
     <use x="505.859375" xlink:href="#ArialMT-54"/>
     <use x="561.474609" xlink:href="#ArialMT-53"/>
    </g>
   </g>
   <g id="text_17">
    <g id="patch_36">
     <path d="M 501.208827 67.238953 
L 569.085702 67.238953 
Q 572.385702 67.238953 572.385702 63.938953 
L 572.385702 53.745047 
Q 572.385702 50.445047 569.085702 50.445047 
L 501.208827 50.445047 
Q 497.908827 50.445047 497.908827 53.745047 
L 497.908827 63.938953 
Q 497.908827 67.238953 501.208827 67.238953 
z
" style="fill:#ffffff;stroke:#808080;stroke-linejoin:miter;"/>
    </g>
    <!-- MASE_00970 -->
    <defs>
     <path d="M 4.734375 62.203125 
L 4.734375 70.65625 
L 51.078125 70.65625 
L 51.078125 63.8125 
Q 44.234375 56.546875 37.515625 44.484375 
Q 30.8125 32.421875 27.15625 19.671875 
Q 24.515625 10.6875 23.78125 0 
L 14.75 0 
Q 14.890625 8.453125 18.0625 20.40625 
Q 21.234375 32.375 27.171875 43.484375 
Q 33.109375 54.59375 39.796875 62.203125 
z
" id="ArialMT-55"/>
    </defs>
    <g style="fill:#262626;" transform="translate(501.208827 61.752703)scale(0.11 -0.11)">
     <use xlink:href="#ArialMT-77"/>
     <use x="83.300781" xlink:href="#ArialMT-65"/>
     <use x="150" xlink:href="#ArialMT-83"/>
     <use x="216.699219" xlink:href="#ArialMT-69"/>
     <use x="283.398438" xlink:href="#ArialMT-95"/>
     <use x="339.013672" xlink:href="#ArialMT-48"/>
     <use x="394.628906" xlink:href="#ArialMT-48"/>
     <use x="450.244141" xlink:href="#ArialMT-57"/>
     <use x="505.859375" xlink:href="#ArialMT-55"/>
     <use x="561.474609" xlink:href="#ArialMT-48"/>
    </g>
   </g>
   <g id="text_18">
    <g id="patch_37">
     <path d="M 523.099533 144.701953 
L 590.976408 144.701953 
Q 594.276408 144.701953 594.276408 141.401953 
L 594.276408 131.208047 
Q 594.276408 127.908047 590.976408 127.908047 
L 523.099533 127.908047 
Q 519.799533 127.908047 519.799533 131.208047 
L 519.799533 141.401953 
Q 519.799533 144.701953 523.099533 144.701953 
z
" style="fill:#ffffff;stroke:#808080;stroke-linejoin:miter;"/>
    </g>
    <!-- MASE_00975 -->
    <g style="fill:#262626;" transform="translate(523.099533 139.215703)scale(0.11 -0.11)">
     <use xlink:href="#ArialMT-77"/>
     <use x="83.300781" xlink:href="#ArialMT-65"/>
     <use x="150" xlink:href="#ArialMT-83"/>
     <use x="216.699219" xlink:href="#ArialMT-69"/>
     <use x="283.398438" xlink:href="#ArialMT-95"/>
     <use x="339.013672" xlink:href="#ArialMT-48"/>
     <use x="394.628906" xlink:href="#ArialMT-48"/>
     <use x="450.244141" xlink:href="#ArialMT-57"/>
     <use x="505.859375" xlink:href="#ArialMT-55"/>
     <use x="561.474609" xlink:href="#ArialMT-53"/>
    </g>
   </g>
   <g id="text_19">
    <g id="patch_38">
     <path d="M 540.766031 93.059953 
L 608.642906 93.059953 
Q 611.942906 93.059953 611.942906 89.759953 
L 611.942906 79.566047 
Q 611.942906 76.266047 608.642906 76.266047 
L 540.766031 76.266047 
Q 537.466031 76.266047 537.466031 79.566047 
L 537.466031 89.759953 
Q 537.466031 93.059953 540.766031 93.059953 
z
" style="fill:#ffffff;stroke:#808080;stroke-linejoin:miter;"/>
    </g>
    <!-- MASE_00980 -->
    <g style="fill:#262626;" transform="translate(540.766031 87.573703)scale(0.11 -0.11)">
     <use xlink:href="#ArialMT-77"/>
     <use x="83.300781" xlink:href="#ArialMT-65"/>
     <use x="150" xlink:href="#ArialMT-83"/>
     <use x="216.699219" xlink:href="#ArialMT-69"/>
     <use x="283.398438" xlink:href="#ArialMT-95"/>
     <use x="339.013672" xlink:href="#ArialMT-48"/>
     <use x="394.628906" xlink:href="#ArialMT-48"/>
     <use x="450.244141" xlink:href="#ArialMT-57"/>
     <use x="505.859375" xlink:href="#ArialMT-56"/>
     <use x="561.474609" xlink:href="#ArialMT-48"/>
    </g>
   </g>
   <g id="text_20">
    <g id="patch_39">
     <path d="M 577.208776 118.880953 
L 645.085651 118.880953 
Q 648.385651 118.880953 648.385651 115.580953 
L 648.385651 105.387047 
Q 648.385651 102.087047 645.085651 102.087047 
L 577.208776 102.087047 
Q 573.908776 102.087047 573.908776 105.387047 
L 573.908776 115.580953 
Q 573.908776 118.880953 577.208776 118.880953 
z
" style="fill:#ffffff;stroke:#808080;stroke-linejoin:miter;"/>
    </g>
    <!-- MASE_00985 -->
    <g style="fill:#262626;" transform="translate(577.208776 113.394703)scale(0.11 -0.11)">
     <use xlink:href="#ArialMT-77"/>
     <use x="83.300781" xlink:href="#ArialMT-65"/>
     <use x="150" xlink:href="#ArialMT-83"/>
     <use x="216.699219" xlink:href="#ArialMT-69"/>
     <use x="283.398438" xlink:href="#ArialMT-95"/>
     <use x="339.013672" xlink:href="#ArialMT-48"/>
     <use x="394.628906" xlink:href="#ArialMT-48"/>
     <use x="450.244141" xlink:href="#ArialMT-57"/>
     <use x="505.859375" xlink:href="#ArialMT-56"/>
     <use x="561.474609" xlink:href="#ArialMT-53"/>
    </g>
   </g>
   <g id="text_21">
    <g id="patch_40">
     <path d="M 624.749017 144.701953 
L 692.625892 144.701953 
Q 695.925892 144.701953 695.925892 141.401953 
L 695.925892 131.208047 
Q 695.925892 127.908047 692.625892 127.908047 
L 624.749017 127.908047 
Q 621.449017 127.908047 621.449017 131.208047 
L 621.449017 141.401953 
Q 621.449017 144.701953 624.749017 144.701953 
z
" style="fill:#ffffff;stroke:#808080;stroke-linejoin:miter;"/>
    </g>
    <!-- MASE_00990 -->
    <g style="fill:#262626;" transform="translate(624.749017 139.215703)scale(0.11 -0.11)">
     <use xlink:href="#ArialMT-77"/>
     <use x="83.300781" xlink:href="#ArialMT-65"/>
     <use x="150" xlink:href="#ArialMT-83"/>
     <use x="216.699219" xlink:href="#ArialMT-69"/>
     <use x="283.398438" xlink:href="#ArialMT-95"/>
     <use x="339.013672" xlink:href="#ArialMT-48"/>
     <use x="394.628906" xlink:href="#ArialMT-48"/>
     <use x="450.244141" xlink:href="#ArialMT-57"/>
     <use x="505.859375" xlink:href="#ArialMT-57"/>
     <use x="561.474609" xlink:href="#ArialMT-48"/>
    </g>
   </g>
   <g id="text_22">
    <g id="patch_41">
     <path d="M 662.731092 93.059953 
L 730.607967 93.059953 
Q 733.907967 93.059953 733.907967 89.759953 
L 733.907967 79.566047 
Q 733.907967 76.266047 730.607967 76.266047 
L 662.731092 76.266047 
Q 659.431092 76.266047 659.431092 79.566047 
L 659.431092 89.759953 
Q 659.431092 93.059953 662.731092 93.059953 
z
" style="fill:#ffffff;stroke:#808080;stroke-linejoin:miter;"/>
    </g>
    <!-- MASE_00995 -->
    <g style="fill:#262626;" transform="translate(662.731092 87.573703)scale(0.11 -0.11)">
     <use xlink:href="#ArialMT-77"/>
     <use x="83.300781" xlink:href="#ArialMT-65"/>
     <use x="150" xlink:href="#ArialMT-83"/>
     <use x="216.699219" xlink:href="#ArialMT-69"/>
     <use x="283.398438" xlink:href="#ArialMT-95"/>
     <use x="339.013672" xlink:href="#ArialMT-48"/>
     <use x="394.628906" xlink:href="#ArialMT-48"/>
     <use x="450.244141" xlink:href="#ArialMT-57"/>
     <use x="505.859375" xlink:href="#ArialMT-57"/>
     <use x="561.474609" xlink:href="#ArialMT-53"/>
    </g>
   </g>
   <g id="text_23">
    <g id="patch_42">
     <path d="M 715.318904 144.701953 
L 783.195779 144.701953 
Q 786.495779 144.701953 786.495779 141.401953 
L 786.495779 131.208047 
Q 786.495779 127.908047 783.195779 127.908047 
L 715.318904 127.908047 
Q 712.018904 127.908047 712.018904 131.208047 
L 712.018904 141.401953 
Q 712.018904 144.701953 715.318904 144.701953 
z
" style="fill:#ffffff;stroke:#808080;stroke-linejoin:miter;"/>
    </g>
    <!-- MASE_01000 -->
    <g style="fill:#262626;" transform="translate(715.318904 139.215703)scale(0.11 -0.11)">
     <use xlink:href="#ArialMT-77"/>
     <use x="83.300781" xlink:href="#ArialMT-65"/>
     <use x="150" xlink:href="#ArialMT-83"/>
     <use x="216.699219" xlink:href="#ArialMT-69"/>
     <use x="283.398438" xlink:href="#ArialMT-95"/>
     <use x="339.013672" xlink:href="#ArialMT-48"/>
     <use x="394.628906" xlink:href="#ArialMT-49"/>
     <use x="450.244141" xlink:href="#ArialMT-48"/>
     <use x="505.859375" xlink:href="#ArialMT-48"/>
     <use x="561.474609" xlink:href="#ArialMT-48"/>
    </g>
   </g>
   <g id="text_24">
    <g id="patch_43">
     <path d="M 768.067809 118.880953 
L 835.944684 118.880953 
Q 839.244684 118.880953 839.244684 115.580953 
L 839.244684 105.387047 
Q 839.244684 102.087047 835.944684 102.087047 
L 768.067809 102.087047 
Q 764.767809 102.087047 764.767809 105.387047 
L 764.767809 115.580953 
Q 764.767809 118.880953 768.067809 118.880953 
z
" style="fill:#ffffff;stroke:#808080;stroke-linejoin:miter;"/>
    </g>
    <!-- MASE_01005 -->
    <g style="fill:#262626;" transform="translate(768.067809 113.394703)scale(0.11 -0.11)">
     <use xlink:href="#ArialMT-77"/>
     <use x="83.300781" xlink:href="#ArialMT-65"/>
     <use x="150" xlink:href="#ArialMT-83"/>
     <use x="216.699219" xlink:href="#ArialMT-69"/>
     <use x="283.398438" xlink:href="#ArialMT-95"/>
     <use x="339.013672" xlink:href="#ArialMT-48"/>
     <use x="394.628906" xlink:href="#ArialMT-49"/>
     <use x="450.244141" xlink:href="#ArialMT-48"/>
     <use x="505.859375" xlink:href="#ArialMT-48"/>
     <use x="561.474609" xlink:href="#ArialMT-53"/>
    </g>
   </g>
   <g id="text_25">
    <g id="patch_44">
     <path d="M 800.017858 93.059953 
L 867.894733 93.059953 
Q 871.194733 93.059953 871.194733 89.759953 
L 871.194733 79.566047 
Q 871.194733 76.266047 867.894733 76.266047 
L 800.017858 76.266047 
Q 796.717858 76.266047 796.717858 79.566047 
L 796.717858 89.759953 
Q 796.717858 93.059953 800.017858 93.059953 
z
" style="fill:#ffffff;stroke:#808080;stroke-linejoin:miter;"/>
    </g>
    <!-- MASE_01010 -->
    <g style="fill:#262626;" transform="translate(800.017858 87.573703)scale(0.11 -0.11)">
     <use xlink:href="#ArialMT-77"/>
     <use x="83.300781" xlink:href="#ArialMT-65"/>
     <use x="150" xlink:href="#ArialMT-83"/>
     <use x="216.699219" xlink:href="#ArialMT-69"/>
     <use x="283.398438" xlink:href="#ArialMT-95"/>
     <use x="339.013672" xlink:href="#ArialMT-48"/>
     <use x="394.628906" xlink:href="#ArialMT-49"/>
     <use x="450.244141" xlink:href="#ArialMT-48"/>
     <use x="505.859375" xlink:href="#ArialMT-49"/>
     <use x="561.474609" xlink:href="#ArialMT-48"/>
    </g>
   </g>
   <g id="text_26">
    <g id="patch_45">
     <path d="M 821.013604 144.701953 
L 888.890479 144.701953 
Q 892.190479 144.701953 892.190479 141.401953 
L 892.190479 131.208047 
Q 892.190479 127.908047 888.890479 127.908047 
L 821.013604 127.908047 
Q 817.713604 127.908047 817.713604 131.208047 
L 817.713604 141.401953 
Q 817.713604 144.701953 821.013604 144.701953 
z
" style="fill:#ffffff;stroke:#808080;stroke-linejoin:miter;"/>
    </g>
    <!-- MASE_01015 -->
    <g style="fill:#262626;" transform="translate(821.013604 139.215703)scale(0.11 -0.11)">
     <use xlink:href="#ArialMT-77"/>
     <use x="83.300781" xlink:href="#ArialMT-65"/>
     <use x="150" xlink:href="#ArialMT-83"/>
     <use x="216.699219" xlink:href="#ArialMT-69"/>
     <use x="283.398438" xlink:href="#ArialMT-95"/>
     <use x="339.013672" xlink:href="#ArialMT-48"/>
     <use x="394.628906" xlink:href="#ArialMT-49"/>
     <use x="450.244141" xlink:href="#ArialMT-48"/>
     <use x="505.859375" xlink:href="#ArialMT-49"/>
     <use x="561.474609" xlink:href="#ArialMT-53"/>
    </g>
   </g>
   <g id="text_27">
    <g id="patch_46">
     <path d="M 841.293383 67.238953 
L 909.170258 67.238953 
Q 912.470258 67.238953 912.470258 63.938953 
L 912.470258 53.745047 
Q 912.470258 50.445047 909.170258 50.445047 
L 841.293383 50.445047 
Q 837.993383 50.445047 837.993383 53.745047 
L 837.993383 63.938953 
Q 837.993383 67.238953 841.293383 67.238953 
z
" style="fill:#ffffff;stroke:#808080;stroke-linejoin:miter;"/>
    </g>
    <!-- MASE_01020 -->
    <g style="fill:#262626;" transform="translate(841.293383 61.752703)scale(0.11 -0.11)">
     <use xlink:href="#ArialMT-77"/>
     <use x="83.300781" xlink:href="#ArialMT-65"/>
     <use x="150" xlink:href="#ArialMT-83"/>
     <use x="216.699219" xlink:href="#ArialMT-69"/>
     <use x="283.398438" xlink:href="#ArialMT-95"/>
     <use x="339.013672" xlink:href="#ArialMT-48"/>
     <use x="394.628906" xlink:href="#ArialMT-49"/>
     <use x="450.244141" xlink:href="#ArialMT-48"/>
     <use x="505.859375" xlink:href="#ArialMT-50"/>
     <use x="561.474609" xlink:href="#ArialMT-48"/>
    </g>
   </g>
   <g id="text_28">
    <g id="patch_47">
     <path d="M 858.566099 118.880953 
L 926.442974 118.880953 
Q 929.742974 118.880953 929.742974 115.580953 
L 929.742974 105.387047 
Q 929.742974 102.087047 926.442974 102.087047 
L 858.566099 102.087047 
Q 855.266099 102.087047 855.266099 105.387047 
L 855.266099 115.580953 
Q 855.266099 118.880953 858.566099 118.880953 
z
" style="fill:#ffffff;stroke:#808080;stroke-linejoin:miter;"/>
    </g>
    <!-- MASE_01025 -->
    <g style="fill:#262626;" transform="translate(858.566099 113.394703)scale(0.11 -0.11)">
     <use xlink:href="#ArialMT-77"/>
     <use x="83.300781" xlink:href="#ArialMT-65"/>
     <use x="150" xlink:href="#ArialMT-83"/>
     <use x="216.699219" xlink:href="#ArialMT-69"/>
     <use x="283.398438" xlink:href="#ArialMT-95"/>
     <use x="339.013672" xlink:href="#ArialMT-48"/>
     <use x="394.628906" xlink:href="#ArialMT-49"/>
     <use x="450.244141" xlink:href="#ArialMT-48"/>
     <use x="505.859375" xlink:href="#ArialMT-50"/>
     <use x="561.474609" xlink:href="#ArialMT-53"/>
    </g>
   </g>
   <g id="text_29">
    <g id="patch_48">
     <path d="M 875.785117 41.417953 
L 943.661992 41.417953 
Q 946.961992 41.417953 946.961992 38.117953 
L 946.961992 27.924047 
Q 946.961992 24.624047 943.661992 24.624047 
L 875.785117 24.624047 
Q 872.485117 24.624047 872.485117 27.924047 
L 872.485117 38.117953 
Q 872.485117 41.417953 875.785117 41.417953 
z
" style="fill:#ffffff;stroke:#808080;stroke-linejoin:miter;"/>
    </g>
    <!-- MASE_01030 -->
    <g style="fill:#262626;" transform="translate(875.785117 35.931703)scale(0.11 -0.11)">
     <use xlink:href="#ArialMT-77"/>
     <use x="83.300781" xlink:href="#ArialMT-65"/>
     <use x="150" xlink:href="#ArialMT-83"/>
     <use x="216.699219" xlink:href="#ArialMT-69"/>
     <use x="283.398438" xlink:href="#ArialMT-95"/>
     <use x="339.013672" xlink:href="#ArialMT-48"/>
     <use x="394.628906" xlink:href="#ArialMT-49"/>
     <use x="450.244141" xlink:href="#ArialMT-48"/>
     <use x="505.859375" xlink:href="#ArialMT-51"/>
     <use x="561.474609" xlink:href="#ArialMT-48"/>
    </g>
   </g>
   <g id="text_30">
    <g id="patch_49">
     <path d="M 898.40969 93.059953 
L 966.286565 93.059953 
Q 969.586565 93.059953 969.586565 89.759953 
L 969.586565 79.566047 
Q 969.586565 76.266047 966.286565 76.266047 
L 898.40969 76.266047 
Q 895.10969 76.266047 895.10969 79.566047 
L 895.10969 89.759953 
Q 895.10969 93.059953 898.40969 93.059953 
z
" style="fill:#ffffff;stroke:#808080;stroke-linejoin:miter;"/>
    </g>
    <!-- MASE_01035 -->
    <g style="fill:#262626;" transform="translate(898.40969 87.573703)scale(0.11 -0.11)">
     <use xlink:href="#ArialMT-77"/>
     <use x="83.300781" xlink:href="#ArialMT-65"/>
     <use x="150" xlink:href="#ArialMT-83"/>
     <use x="216.699219" xlink:href="#ArialMT-69"/>
     <use x="283.398438" xlink:href="#ArialMT-95"/>
     <use x="339.013672" xlink:href="#ArialMT-48"/>
     <use x="394.628906" xlink:href="#ArialMT-49"/>
     <use x="450.244141" xlink:href="#ArialMT-48"/>
     <use x="505.859375" xlink:href="#ArialMT-51"/>
     <use x="561.474609" xlink:href="#ArialMT-53"/>
    </g>
   </g>
   <g id="text_31">
    <g id="patch_50">
     <path d="M 920.085605 144.701953 
L 987.96248 144.701953 
Q 991.26248 144.701953 991.26248 141.401953 
L 991.26248 131.208047 
Q 991.26248 127.908047 987.96248 127.908047 
L 920.085605 127.908047 
Q 916.785605 127.908047 916.785605 131.208047 
L 916.785605 141.401953 
Q 916.785605 144.701953 920.085605 144.701953 
z
" style="fill:#ffffff;stroke:#808080;stroke-linejoin:miter;"/>
    </g>
    <!-- MASE_01040 -->
    <g style="fill:#262626;" transform="translate(920.085605 139.215703)scale(0.11 -0.11)">
     <use xlink:href="#ArialMT-77"/>
     <use x="83.300781" xlink:href="#ArialMT-65"/>
     <use x="150" xlink:href="#ArialMT-83"/>
     <use x="216.699219" xlink:href="#ArialMT-69"/>
     <use x="283.398438" xlink:href="#ArialMT-95"/>
     <use x="339.013672" xlink:href="#ArialMT-48"/>
     <use x="394.628906" xlink:href="#ArialMT-49"/>
     <use x="450.244141" xlink:href="#ArialMT-48"/>
     <use x="505.859375" xlink:href="#ArialMT-52"/>
     <use x="561.474609" xlink:href="#ArialMT-48"/>
    </g>
   </g>
   <g id="text_32">
    <g id="patch_51">
     <path d="M 995.441183 118.880953 
L 1063.318058 118.880953 
Q 1066.618058 118.880953 1066.618058 115.580953 
L 1066.618058 105.387047 
Q 1066.618058 102.087047 1063.318058 102.087047 
L 995.441183 102.087047 
Q 992.141183 102.087047 992.141183 105.387047 
L 992.141183 115.580953 
Q 992.141183 118.880953 995.441183 118.880953 
z
" style="fill:#ffffff;stroke:#808080;stroke-linejoin:miter;"/>
    </g>
    <!-- MASE_01045 -->
    <g style="fill:#262626;" transform="translate(995.441183 113.394703)scale(0.11 -0.11)">
     <use xlink:href="#ArialMT-77"/>
     <use x="83.300781" xlink:href="#ArialMT-65"/>
     <use x="150" xlink:href="#ArialMT-83"/>
     <use x="216.699219" xlink:href="#ArialMT-69"/>
     <use x="283.398438" xlink:href="#ArialMT-95"/>
     <use x="339.013672" xlink:href="#ArialMT-48"/>
     <use x="394.628906" xlink:href="#ArialMT-49"/>
     <use x="450.244141" xlink:href="#ArialMT-48"/>
     <use x="505.859375" xlink:href="#ArialMT-52"/>
     <use x="561.474609" xlink:href="#ArialMT-53"/>
    </g>
   </g>
  </g>
 </g>
 <defs>
  <clipPath id="pd622784e1b">
   <rect height="206.568" width="1116" x="7.2" y="7.2"/>
  </clipPath>
 </defs>
</svg>
