<?xml version="1.0" encoding="utf-8" standalone="no"?>
<!DOCTYPE svg PUBLIC "-//W3C//DTD SVG 1.1//EN"
  "http://www.w3.org/Graphics/SVG/1.1/DTD/svg11.dtd">
<!-- Created with matplotlib (https://matplotlib.org/) -->
<svg height="262.271844pt" version="1.1" viewBox="0 0 1130.4 262.271844" width="1130.4pt" xmlns="http://www.w3.org/2000/svg" xmlns:xlink="http://www.w3.org/1999/xlink">
 <defs>
  <style type="text/css">
*{stroke-linecap:butt;stroke-linejoin:round;}
  </style>
 </defs>
 <g id="figure_1">
  <g id="patch_1">
   <path d="M 0 262.271844 
L 1130.4 262.271844 
L 1130.4 0 
L 0 0 
z
" style="fill:#ffffff;"/>
  </g>
  <g id="axes_1">
   <g id="line2d_1">
    <path clip-path="url(#pfc709a4e65)" d="M 7.2 210.144 
L 1123.2 210.144 
" style="fill:none;stroke:#1a1a1a;stroke-linecap:round;stroke-width:1.5;"/>
   </g>
   <g id="patch_2">
    <path clip-path="url(#pfc709a4e65)" d="M 231.666546 217.144 
Q 230.35426 217.144 229.041973 217.144 
L 229.041973 217.144 
Q 224.84131 213.644 220.640647 210.144 
Q 224.84131 206.644 229.041973 203.144 
L 229.041973 203.144 
Q 230.35426 203.144 231.666546 203.144 
L 231.666546 217.144 
z
" style="fill:#ffffff;fill-opacity:0.85;stroke:#000000;stroke-linecap:round;"/>
   </g>
   <g id="patch_3">
    <path clip-path="url(#pfc709a4e65)" d="M 248.957161 217.144 
Q 246.139263 217.144 243.321364 217.144 
L 243.321364 217.144 
Q 239.122782 213.644 234.924199 210.144 
Q 239.122782 206.644 243.321364 203.144 
L 243.321364 203.144 
Q 246.139263 203.144 248.957161 203.144 
L 248.957161 217.144 
z
" style="fill:#ffffff;fill-opacity:0.85;stroke:#000000;stroke-linecap:round;"/>
   </g>
   <g id="patch_4">
    <path clip-path="url(#pfc709a4e65)" d="M 262.63214 203.144 
Q 273.825731 203.144 285.019321 203.144 
L 285.019321 203.144 
Q 289.219032 206.644 293.418742 210.144 
Q 289.219032 213.644 285.019321 217.144 
L 285.019321 217.144 
Q 273.825731 217.144 262.63214 217.144 
L 262.63214 203.144 
z
" style="fill:#ffffff;fill-opacity:0.85;stroke:#000000;stroke-linecap:round;"/>
   </g>
   <g id="patch_5">
    <path clip-path="url(#pfc709a4e65)" d="M 292.953363 177.776 
Q 299.207119 177.776 305.460875 177.776 
L 305.460875 177.776 
Q 309.660244 181.276 313.859614 184.776 
Q 309.660244 188.276 305.460875 191.776 
L 305.460875 191.776 
Q 299.207119 191.776 292.953363 191.776 
L 292.953363 177.776 
z
" style="fill:#ffffff;fill-opacity:0.85;stroke:#000000;stroke-linecap:round;"/>
   </g>
   <g id="patch_6">
    <path clip-path="url(#pfc709a4e65)" d="M 319.22937 203.144 
Q 338.155956 203.144 357.082541 203.144 
L 357.082541 203.144 
Q 361.281706 206.644 365.48087 210.144 
Q 361.281706 213.644 357.082541 217.144 
L 357.082541 217.144 
Q 338.155956 217.144 319.22937 217.144 
L 319.22937 203.144 
z
" style="fill:#ffffff;fill-opacity:0.85;stroke:#000000;stroke-linecap:round;"/>
   </g>
   <g id="patch_7">
    <path clip-path="url(#pfc709a4e65)" d="M 366.375829 203.144 
Q 372.735088 203.144 379.094346 203.144 
L 379.094346 203.144 
Q 383.295608 206.644 387.49687 210.144 
Q 383.295608 213.644 379.094346 217.144 
L 379.094346 217.144 
Q 372.735088 217.144 366.375829 217.144 
L 366.375829 203.144 
z
" style="fill:#ffffff;fill-opacity:0.85;stroke:#000000;stroke-linecap:round;"/>
   </g>
   <g id="patch_8">
    <path clip-path="url(#pfc709a4e65)" d="M 393.332005 203.144 
Q 397.38323 203.144 401.434455 203.144 
L 401.434455 203.144 
Q 405.634755 206.644 409.835055 210.144 
Q 405.634755 213.644 401.434455 217.144 
L 401.434455 217.144 
Q 397.38323 217.144 393.332005 217.144 
L 393.332005 203.144 
z
" style="fill:#ffffff;fill-opacity:0.85;stroke:#000000;stroke-linecap:round;"/>
   </g>
   <g id="patch_9">
    <path clip-path="url(#pfc709a4e65)" d="M 408.773722 203.144 
Q 412.973722 206.644 417.173722 210.144 
Q 412.973722 213.644 408.773722 217.144 
z
" style="fill:#ffffff;fill-opacity:0.85;stroke:#000000;stroke-linecap:round;"/>
   </g>
   <g id="patch_10">
    <path clip-path="url(#pfc709a4e65)" d="M 427.268864 191.776 
Q 426.816665 191.776 426.364465 191.776 
L 426.364465 191.776 
Q 422.162876 188.276 417.961286 184.776 
Q 422.162876 181.276 426.364465 177.776 
L 426.364465 177.776 
Q 426.816665 177.776 427.268864 177.776 
L 427.268864 191.776 
z
" style="fill:#ffffff;fill-opacity:0.85;stroke:#000000;stroke-linecap:round;"/>
   </g>
   <g id="patch_11">
    <path clip-path="url(#pfc709a4e65)" d="M 449.857638 217.144 
Q 442.584535 217.144 435.311433 217.144 
L 435.311433 217.144 
Q 431.111156 213.644 426.91088 210.144 
Q 431.111156 206.644 435.311433 203.144 
L 435.311433 203.144 
Q 442.584535 203.144 449.857638 203.144 
L 449.857638 217.144 
z
" style="fill:#ffffff;fill-opacity:0.85;stroke:#000000;stroke-linecap:round;"/>
   </g>
   <g id="patch_12">
    <path clip-path="url(#pfc709a4e65)" d="M 477.458185 217.144 
Q 468.89454 217.144 460.330895 217.144 
L 460.330895 217.144 
Q 456.13242 213.644 451.933944 210.144 
Q 456.13242 206.644 460.330895 203.144 
L 460.330895 203.144 
Q 468.89454 203.144 477.458185 203.144 
L 477.458185 217.144 
z
" style="fill:#ffffff;fill-opacity:0.85;stroke:#000000;stroke-linecap:round;"/>
   </g>
   <g id="patch_13">
    <path clip-path="url(#pfc709a4e65)" d="M 488.269294 203.144 
Q 499.517017 203.144 510.764739 203.144 
L 510.764739 203.144 
Q 514.964015 206.644 519.163291 210.144 
Q 514.964015 213.644 510.764739 217.144 
L 510.764739 217.144 
Q 499.517017 217.144 488.269294 217.144 
L 488.269294 203.144 
z
" style="fill:#ffffff;fill-opacity:0.85;stroke:#000000;stroke-linecap:round;"/>
   </g>
   <g id="patch_14">
    <path clip-path="url(#pfc709a4e65)" d="M 578.767584 191.776 
Q 556.030192 191.776 533.2928 191.776 
L 533.2928 191.776 
Q 529.091915 188.276 524.891031 184.776 
Q 529.091915 181.276 533.2928 177.776 
L 533.2928 177.776 
Q 556.030192 177.776 578.767584 177.776 
L 578.767584 191.776 
z
" style="fill:#ffffff;fill-opacity:0.85;stroke:#000000;stroke-linecap:round;"/>
   </g>
   <g id="patch_15">
    <path clip-path="url(#pfc709a4e65)" d="M 637.8707 217.144 
Q 612.123629 217.144 586.376558 217.144 
L 586.376558 217.144 
Q 582.178289 213.644 577.98002 210.144 
Q 582.178289 206.644 586.376558 203.144 
L 586.376558 203.144 
Q 612.123629 203.144 637.8707 203.144 
L 637.8707 217.144 
z
" style="fill:#ffffff;fill-opacity:0.85;stroke:#000000;stroke-linecap:round;"/>
   </g>
   <g id="patch_16">
    <path clip-path="url(#pfc709a4e65)" d="M 747.914903 217.144 
Q 699.671551 217.144 651.4282 217.144 
L 651.4282 217.144 
Q 647.226933 213.644 643.025666 210.144 
Q 647.226933 206.644 651.4282 203.144 
L 651.4282 203.144 
Q 699.671551 203.144 747.914903 203.144 
L 747.914903 217.144 
z
" style="fill:#ff0000;fill-opacity:0.85;stroke:#000000;stroke-linecap:round;"/>
   </g>
   <g id="patch_17">
    <path clip-path="url(#pfc709a4e65)" d="M 766.780646 203.144 
Q 786.512504 203.144 806.244362 203.144 
L 806.244362 203.144 
Q 810.443717 206.644 814.643072 210.144 
Q 810.443717 213.644 806.244362 217.144 
L 806.244362 217.144 
Q 786.512504 217.144 766.780646 217.144 
L 766.780646 203.144 
z
" style="fill:#ffffff;fill-opacity:0.85;stroke:#000000;stroke-linecap:round;"/>
   </g>
   <g id="patch_18">
    <path clip-path="url(#pfc709a4e65)" d="M 815.287443 203.144 
Q 839.85025 203.144 864.413058 203.144 
L 864.413058 203.144 
Q 868.614244 206.644 872.815431 210.144 
Q 868.614244 213.644 864.413058 217.144 
L 864.413058 217.144 
Q 839.85025 217.144 815.287443 217.144 
L 815.287443 203.144 
z
" style="fill:#ffffff;fill-opacity:0.85;stroke:#000000;stroke-linecap:round;"/>
   </g>
   <g id="patch_19">
    <path clip-path="url(#pfc709a4e65)" d="M 874.462156 203.144 
Q 887.911887 203.144 901.361619 203.144 
L 901.361619 203.144 
Q 905.560486 206.644 909.759353 210.144 
Q 905.560486 213.644 901.361619 217.144 
L 901.361619 217.144 
Q 887.911887 217.144 874.462156 217.144 
L 874.462156 203.144 
z
" style="fill:#ffffff;fill-opacity:0.85;stroke:#000000;stroke-linecap:round;"/>
   </g>
   <g id="matplotlib.axis_1">
    <g id="xtick_1">
     <g id="line2d_2">
      <path clip-path="url(#pfc709a4e65)" d="M 80.543709 235.512 
L 80.543709 7.2 
" style="fill:none;stroke:#ffffff;stroke-linecap:round;"/>
     </g>
     <g id="line2d_3">
      <defs>
       <path d="M 0 0 
L 0 6 
" id="m0393719c26" style="stroke:#262626;stroke-width:1.25;"/>
      </defs>
      <g>
       <use style="fill:#262626;stroke:#262626;stroke-width:1.25;" x="80.543709" xlink:href="#m0393719c26" y="235.512"/>
      </g>
     </g>
     <g id="text_1">
      <!-- 4604000 -->
      <defs>
       <path d="M 32.328125 0 
L 32.328125 17.140625 
L 1.265625 17.140625 
L 1.265625 25.203125 
L 33.9375 71.578125 
L 41.109375 71.578125 
L 41.109375 25.203125 
L 50.78125 25.203125 
L 50.78125 17.140625 
L 41.109375 17.140625 
L 41.109375 0 
z
M 32.328125 25.203125 
L 32.328125 57.46875 
L 9.90625 25.203125 
z
" id="ArialMT-52"/>
       <path d="M 49.75 54.046875 
L 41.015625 53.375 
Q 39.84375 58.546875 37.703125 60.890625 
Q 34.125 64.65625 28.90625 64.65625 
Q 24.703125 64.65625 21.53125 62.3125 
Q 17.390625 59.28125 14.984375 53.46875 
Q 12.59375 47.65625 12.5 36.921875 
Q 15.671875 41.75 20.265625 44.09375 
Q 24.859375 46.4375 29.890625 46.4375 
Q 38.671875 46.4375 44.84375 39.96875 
Q 51.03125 33.5 51.03125 23.25 
Q 51.03125 16.5 48.125 10.71875 
Q 45.21875 4.9375 40.140625 1.859375 
Q 35.0625 -1.21875 28.609375 -1.21875 
Q 17.625 -1.21875 10.6875 6.859375 
Q 3.765625 14.9375 3.765625 33.5 
Q 3.765625 54.25 11.421875 63.671875 
Q 18.109375 71.875 29.4375 71.875 
Q 37.890625 71.875 43.28125 67.140625 
Q 48.6875 62.40625 49.75 54.046875 
z
M 13.875 23.1875 
Q 13.875 18.65625 15.796875 14.5 
Q 17.71875 10.359375 21.1875 8.171875 
Q 24.65625 6 28.46875 6 
Q 34.03125 6 38.03125 10.484375 
Q 42.046875 14.984375 42.046875 22.703125 
Q 42.046875 30.125 38.078125 34.390625 
Q 34.125 38.671875 28.125 38.671875 
Q 22.171875 38.671875 18.015625 34.390625 
Q 13.875 30.125 13.875 23.1875 
z
" id="ArialMT-54"/>
       <path d="M 4.15625 35.296875 
Q 4.15625 48 6.765625 55.734375 
Q 9.375 63.484375 14.515625 67.671875 
Q 19.671875 71.875 27.484375 71.875 
Q 33.25 71.875 37.59375 69.546875 
Q 41.9375 67.234375 44.765625 62.859375 
Q 47.609375 58.5 49.21875 52.21875 
Q 50.828125 45.953125 50.828125 35.296875 
Q 50.828125 22.703125 48.234375 14.96875 
Q 45.65625 7.234375 40.5 3 
Q 35.359375 -1.21875 27.484375 -1.21875 
Q 17.140625 -1.21875 11.234375 6.203125 
Q 4.15625 15.140625 4.15625 35.296875 
z
M 13.1875 35.296875 
Q 13.1875 17.671875 17.3125 11.828125 
Q 21.4375 6 27.484375 6 
Q 33.546875 6 37.671875 11.859375 
Q 41.796875 17.71875 41.796875 35.296875 
Q 41.796875 52.984375 37.671875 58.78125 
Q 33.546875 64.59375 27.390625 64.59375 
Q 21.34375 64.59375 17.71875 59.46875 
Q 13.1875 52.9375 13.1875 35.296875 
z
" id="ArialMT-48"/>
      </defs>
      <g style="fill:#262626;" transform="translate(59.1341 252.885594)scale(0.11 -0.11)">
       <use xlink:href="#ArialMT-52"/>
       <use x="55.615234" xlink:href="#ArialMT-54"/>
       <use x="111.230469" xlink:href="#ArialMT-48"/>
       <use x="166.845703" xlink:href="#ArialMT-52"/>
       <use x="222.460938" xlink:href="#ArialMT-48"/>
       <use x="278.076172" xlink:href="#ArialMT-48"/>
       <use x="333.691406" xlink:href="#ArialMT-48"/>
      </g>
     </g>
    </g>
    <g id="xtick_2">
     <g id="line2d_4">
      <path clip-path="url(#pfc709a4e65)" d="M 223.737207 235.512 
L 223.737207 7.2 
" style="fill:none;stroke:#ffffff;stroke-linecap:round;"/>
     </g>
     <g id="line2d_5">
      <g>
       <use style="fill:#262626;stroke:#262626;stroke-width:1.25;" x="223.737207" xlink:href="#m0393719c26" y="235.512"/>
      </g>
     </g>
     <g id="text_2">
      <!-- 4608000 -->
      <defs>
       <path d="M 17.671875 38.8125 
Q 12.203125 40.828125 9.5625 44.53125 
Q 6.9375 48.25 6.9375 53.421875 
Q 6.9375 61.234375 12.546875 66.546875 
Q 18.171875 71.875 27.484375 71.875 
Q 36.859375 71.875 42.578125 66.421875 
Q 48.296875 60.984375 48.296875 53.171875 
Q 48.296875 48.1875 45.671875 44.5 
Q 43.0625 40.828125 37.75 38.8125 
Q 44.34375 36.671875 47.78125 31.875 
Q 51.21875 27.09375 51.21875 20.453125 
Q 51.21875 11.28125 44.71875 5.03125 
Q 38.234375 -1.21875 27.640625 -1.21875 
Q 17.046875 -1.21875 10.546875 5.046875 
Q 4.046875 11.328125 4.046875 20.703125 
Q 4.046875 27.6875 7.59375 32.390625 
Q 11.140625 37.109375 17.671875 38.8125 
z
M 15.921875 53.71875 
Q 15.921875 48.640625 19.1875 45.40625 
Q 22.46875 42.1875 27.6875 42.1875 
Q 32.765625 42.1875 36.015625 45.375 
Q 39.265625 48.578125 39.265625 53.21875 
Q 39.265625 58.0625 35.90625 61.359375 
Q 32.5625 64.65625 27.59375 64.65625 
Q 22.5625 64.65625 19.234375 61.421875 
Q 15.921875 58.203125 15.921875 53.71875 
z
M 13.09375 20.65625 
Q 13.09375 16.890625 14.875 13.375 
Q 16.65625 9.859375 20.171875 7.921875 
Q 23.6875 6 27.734375 6 
Q 34.03125 6 38.125 10.046875 
Q 42.234375 14.109375 42.234375 20.359375 
Q 42.234375 26.703125 38.015625 30.859375 
Q 33.796875 35.015625 27.4375 35.015625 
Q 21.234375 35.015625 17.15625 30.90625 
Q 13.09375 26.8125 13.09375 20.65625 
z
" id="ArialMT-56"/>
      </defs>
      <g style="fill:#262626;" transform="translate(202.327597 252.885594)scale(0.11 -0.11)">
       <use xlink:href="#ArialMT-52"/>
       <use x="55.615234" xlink:href="#ArialMT-54"/>
       <use x="111.230469" xlink:href="#ArialMT-48"/>
       <use x="166.845703" xlink:href="#ArialMT-56"/>
       <use x="222.460938" xlink:href="#ArialMT-48"/>
       <use x="278.076172" xlink:href="#ArialMT-48"/>
       <use x="333.691406" xlink:href="#ArialMT-48"/>
      </g>
     </g>
    </g>
    <g id="xtick_3">
     <g id="line2d_6">
      <path clip-path="url(#pfc709a4e65)" d="M 366.930704 235.512 
L 366.930704 7.2 
" style="fill:none;stroke:#ffffff;stroke-linecap:round;"/>
     </g>
     <g id="line2d_7">
      <g>
       <use style="fill:#262626;stroke:#262626;stroke-width:1.25;" x="366.930704" xlink:href="#m0393719c26" y="235.512"/>
      </g>
     </g>
     <g id="text_3">
      <!-- 4612000 -->
      <defs>
       <path d="M 37.25 0 
L 28.46875 0 
L 28.46875 56 
Q 25.296875 52.984375 20.140625 49.953125 
Q 14.984375 46.921875 10.890625 45.40625 
L 10.890625 53.90625 
Q 18.265625 57.375 23.78125 62.296875 
Q 29.296875 67.234375 31.59375 71.875 
L 37.25 71.875 
z
" id="ArialMT-49"/>
       <path d="M 50.34375 8.453125 
L 50.34375 0 
L 3.03125 0 
Q 2.9375 3.171875 4.046875 6.109375 
Q 5.859375 10.9375 9.828125 15.625 
Q 13.8125 20.3125 21.34375 26.46875 
Q 33.015625 36.03125 37.109375 41.625 
Q 41.21875 47.21875 41.21875 52.203125 
Q 41.21875 57.421875 37.46875 61 
Q 33.734375 64.59375 27.734375 64.59375 
Q 21.390625 64.59375 17.578125 60.78125 
Q 13.765625 56.984375 13.71875 50.25 
L 4.6875 51.171875 
Q 5.609375 61.28125 11.65625 66.578125 
Q 17.71875 71.875 27.9375 71.875 
Q 38.234375 71.875 44.234375 66.15625 
Q 50.25 60.453125 50.25 52 
Q 50.25 47.703125 48.484375 43.546875 
Q 46.734375 39.40625 42.65625 34.8125 
Q 38.578125 30.21875 29.109375 22.21875 
Q 21.1875 15.578125 18.9375 13.203125 
Q 16.703125 10.84375 15.234375 8.453125 
z
" id="ArialMT-50"/>
      </defs>
      <g style="fill:#262626;" transform="translate(345.521094 252.885594)scale(0.11 -0.11)">
       <use xlink:href="#ArialMT-52"/>
       <use x="55.615234" xlink:href="#ArialMT-54"/>
       <use x="111.230469" xlink:href="#ArialMT-49"/>
       <use x="166.845703" xlink:href="#ArialMT-50"/>
       <use x="222.460938" xlink:href="#ArialMT-48"/>
       <use x="278.076172" xlink:href="#ArialMT-48"/>
       <use x="333.691406" xlink:href="#ArialMT-48"/>
      </g>
     </g>
    </g>
    <g id="xtick_4">
     <g id="line2d_8">
      <path clip-path="url(#pfc709a4e65)" d="M 510.124201 235.512 
L 510.124201 7.2 
" style="fill:none;stroke:#ffffff;stroke-linecap:round;"/>
     </g>
     <g id="line2d_9">
      <g>
       <use style="fill:#262626;stroke:#262626;stroke-width:1.25;" x="510.124201" xlink:href="#m0393719c26" y="235.512"/>
      </g>
     </g>
     <g id="text_4">
      <!-- 4616000 -->
      <g style="fill:#262626;" transform="translate(488.714592 252.885594)scale(0.11 -0.11)">
       <use xlink:href="#ArialMT-52"/>
       <use x="55.615234" xlink:href="#ArialMT-54"/>
       <use x="111.230469" xlink:href="#ArialMT-49"/>
       <use x="166.845703" xlink:href="#ArialMT-54"/>
       <use x="222.460938" xlink:href="#ArialMT-48"/>
       <use x="278.076172" xlink:href="#ArialMT-48"/>
       <use x="333.691406" xlink:href="#ArialMT-48"/>
      </g>
     </g>
    </g>
    <g id="xtick_5">
     <g id="line2d_10">
      <path clip-path="url(#pfc709a4e65)" d="M 653.317698 235.512 
L 653.317698 7.2 
" style="fill:none;stroke:#ffffff;stroke-linecap:round;"/>
     </g>
     <g id="line2d_11">
      <g>
       <use style="fill:#262626;stroke:#262626;stroke-width:1.25;" x="653.317698" xlink:href="#m0393719c26" y="235.512"/>
      </g>
     </g>
     <g id="text_5">
      <!-- 4620000 -->
      <g style="fill:#262626;" transform="translate(631.908089 252.885594)scale(0.11 -0.11)">
       <use xlink:href="#ArialMT-52"/>
       <use x="55.615234" xlink:href="#ArialMT-54"/>
       <use x="111.230469" xlink:href="#ArialMT-50"/>
       <use x="166.845703" xlink:href="#ArialMT-48"/>
       <use x="222.460938" xlink:href="#ArialMT-48"/>
       <use x="278.076172" xlink:href="#ArialMT-48"/>
       <use x="333.691406" xlink:href="#ArialMT-48"/>
      </g>
     </g>
    </g>
    <g id="xtick_6">
     <g id="line2d_12">
      <path clip-path="url(#pfc709a4e65)" d="M 796.511196 235.512 
L 796.511196 7.2 
" style="fill:none;stroke:#ffffff;stroke-linecap:round;"/>
     </g>
     <g id="line2d_13">
      <g>
       <use style="fill:#262626;stroke:#262626;stroke-width:1.25;" x="796.511196" xlink:href="#m0393719c26" y="235.512"/>
      </g>
     </g>
     <g id="text_6">
      <!-- 4624000 -->
      <g style="fill:#262626;" transform="translate(775.101586 252.885594)scale(0.11 -0.11)">
       <use xlink:href="#ArialMT-52"/>
       <use x="55.615234" xlink:href="#ArialMT-54"/>
       <use x="111.230469" xlink:href="#ArialMT-50"/>
       <use x="166.845703" xlink:href="#ArialMT-52"/>
       <use x="222.460938" xlink:href="#ArialMT-48"/>
       <use x="278.076172" xlink:href="#ArialMT-48"/>
       <use x="333.691406" xlink:href="#ArialMT-48"/>
      </g>
     </g>
    </g>
    <g id="xtick_7">
     <g id="line2d_14">
      <path clip-path="url(#pfc709a4e65)" d="M 939.704693 235.512 
L 939.704693 7.2 
" style="fill:none;stroke:#ffffff;stroke-linecap:round;"/>
     </g>
     <g id="line2d_15">
      <g>
       <use style="fill:#262626;stroke:#262626;stroke-width:1.25;" x="939.704693" xlink:href="#m0393719c26" y="235.512"/>
      </g>
     </g>
     <g id="text_7">
      <!-- 4628000 -->
      <g style="fill:#262626;" transform="translate(918.295084 252.885594)scale(0.11 -0.11)">
       <use xlink:href="#ArialMT-52"/>
       <use x="55.615234" xlink:href="#ArialMT-54"/>
       <use x="111.230469" xlink:href="#ArialMT-50"/>
       <use x="166.845703" xlink:href="#ArialMT-56"/>
       <use x="222.460938" xlink:href="#ArialMT-48"/>
       <use x="278.076172" xlink:href="#ArialMT-48"/>
       <use x="333.691406" xlink:href="#ArialMT-48"/>
      </g>
     </g>
    </g>
    <g id="xtick_8">
     <g id="line2d_16">
      <path clip-path="url(#pfc709a4e65)" d="M 1082.89819 235.512 
L 1082.89819 7.2 
" style="fill:none;stroke:#ffffff;stroke-linecap:round;"/>
     </g>
     <g id="line2d_17">
      <g>
       <use style="fill:#262626;stroke:#262626;stroke-width:1.25;" x="1082.89819" xlink:href="#m0393719c26" y="235.512"/>
      </g>
     </g>
     <g id="text_8">
      <!-- 4632000 -->
      <defs>
       <path d="M 4.203125 18.890625 
L 12.984375 20.0625 
Q 14.5 12.59375 18.140625 9.296875 
Q 21.78125 6 27 6 
Q 33.203125 6 37.46875 10.296875 
Q 41.75 14.59375 41.75 20.953125 
Q 41.75 27 37.796875 30.921875 
Q 33.84375 34.859375 27.734375 34.859375 
Q 25.25 34.859375 21.53125 33.890625 
L 22.515625 41.609375 
Q 23.390625 41.5 23.921875 41.5 
Q 29.546875 41.5 34.03125 44.421875 
Q 38.53125 47.359375 38.53125 53.46875 
Q 38.53125 58.296875 35.25 61.46875 
Q 31.984375 64.65625 26.8125 64.65625 
Q 21.6875 64.65625 18.265625 61.421875 
Q 14.84375 58.203125 13.875 51.765625 
L 5.078125 53.328125 
Q 6.6875 62.15625 12.390625 67.015625 
Q 18.109375 71.875 26.609375 71.875 
Q 32.46875 71.875 37.390625 69.359375 
Q 42.328125 66.84375 44.9375 62.5 
Q 47.5625 58.15625 47.5625 53.265625 
Q 47.5625 48.640625 45.0625 44.828125 
Q 42.578125 41.015625 37.703125 38.765625 
Q 44.046875 37.3125 47.5625 32.6875 
Q 51.078125 28.078125 51.078125 21.140625 
Q 51.078125 11.765625 44.234375 5.25 
Q 37.40625 -1.265625 26.953125 -1.265625 
Q 17.53125 -1.265625 11.296875 4.34375 
Q 5.078125 9.96875 4.203125 18.890625 
z
" id="ArialMT-51"/>
      </defs>
      <g style="fill:#262626;" transform="translate(1061.488581 252.885594)scale(0.11 -0.11)">
       <use xlink:href="#ArialMT-52"/>
       <use x="55.615234" xlink:href="#ArialMT-54"/>
       <use x="111.230469" xlink:href="#ArialMT-51"/>
       <use x="166.845703" xlink:href="#ArialMT-50"/>
       <use x="222.460938" xlink:href="#ArialMT-48"/>
       <use x="278.076172" xlink:href="#ArialMT-48"/>
       <use x="333.691406" xlink:href="#ArialMT-48"/>
      </g>
     </g>
    </g>
   </g>
   <g id="line2d_18">
    <path clip-path="url(#pfc709a4e65)" d="M 226.171496 159.408 
L 226.171496 210.144 
" style="fill:none;stroke:#1a1a1a;stroke-linecap:round;stroke-width:0.5;"/>
   </g>
   <g id="line2d_19">
    <path clip-path="url(#pfc709a4e65)" d="M 241.958579 134.04 
L 241.958579 210.144 
" style="fill:none;stroke:#1a1a1a;stroke-linecap:round;stroke-width:0.5;"/>
   </g>
   <g id="line2d_20">
    <path clip-path="url(#pfc709a4e65)" d="M 278.04334 108.672 
L 278.04334 210.144 
" style="fill:none;stroke:#1a1a1a;stroke-linecap:round;stroke-width:0.5;"/>
   </g>
   <g id="line2d_21">
    <path clip-path="url(#pfc709a4e65)" d="M 303.424388 83.304 
L 303.424388 184.776 
" style="fill:none;stroke:#1a1a1a;stroke-linecap:round;stroke-width:0.5;"/>
   </g>
   <g id="line2d_22">
    <path clip-path="url(#pfc709a4e65)" d="M 342.373019 159.408 
L 342.373019 210.144 
" style="fill:none;stroke:#1a1a1a;stroke-linecap:round;stroke-width:0.5;"/>
   </g>
   <g id="line2d_23">
    <path clip-path="url(#pfc709a4e65)" d="M 376.954249 134.04 
L 376.954249 210.144 
" style="fill:none;stroke:#1a1a1a;stroke-linecap:round;stroke-width:0.5;"/>
   </g>
   <g id="line2d_24">
    <path clip-path="url(#pfc709a4e65)" d="M 401.601429 108.672 
L 401.601429 210.144 
" style="fill:none;stroke:#1a1a1a;stroke-linecap:round;stroke-width:0.5;"/>
   </g>
   <g id="line2d_25">
    <path clip-path="url(#pfc709a4e65)" d="M 413.987667 83.304 
L 413.987667 210.144 
" style="fill:none;stroke:#1a1a1a;stroke-linecap:round;stroke-width:0.5;"/>
   </g>
   <g id="line2d_26">
    <path clip-path="url(#pfc709a4e65)" d="M 422.632974 57.936 
L 422.632974 184.776 
" style="fill:none;stroke:#1a1a1a;stroke-linecap:round;stroke-width:0.5;"/>
   </g>
   <g id="line2d_27">
    <path clip-path="url(#pfc709a4e65)" d="M 438.402158 159.408 
L 438.402158 210.144 
" style="fill:none;stroke:#1a1a1a;stroke-linecap:round;stroke-width:0.5;"/>
   </g>
   <g id="line2d_28">
    <path clip-path="url(#pfc709a4e65)" d="M 464.713963 32.568 
L 464.713963 210.144 
" style="fill:none;stroke:#1a1a1a;stroke-linecap:round;stroke-width:0.5;"/>
   </g>
   <g id="line2d_29">
    <path clip-path="url(#pfc709a4e65)" d="M 503.734191 134.04 
L 503.734191 210.144 
" style="fill:none;stroke:#1a1a1a;stroke-linecap:round;stroke-width:0.5;"/>
   </g>
   <g id="line2d_30">
    <path clip-path="url(#pfc709a4e65)" d="M 551.847206 159.408 
L 551.847206 184.776 
" style="fill:none;stroke:#1a1a1a;stroke-linecap:round;stroke-width:0.5;"/>
   </g>
   <g id="line2d_31">
    <path clip-path="url(#pfc709a4e65)" d="M 607.943259 134.04 
L 607.943259 210.144 
" style="fill:none;stroke:#1a1a1a;stroke-linecap:round;stroke-width:0.5;"/>
   </g>
   <g id="line2d_32">
    <path clip-path="url(#pfc709a4e65)" d="M 695.488183 159.408 
L 695.488183 210.144 
" style="fill:none;stroke:#1a1a1a;stroke-linecap:round;stroke-width:0.5;"/>
   </g>
   <g id="line2d_33">
    <path clip-path="url(#pfc709a4e65)" d="M 790.729758 159.408 
L 790.729758 210.144 
" style="fill:none;stroke:#1a1a1a;stroke-linecap:round;stroke-width:0.5;"/>
   </g>
   <g id="line2d_34">
    <path clip-path="url(#pfc709a4e65)" d="M 844.069336 134.04 
L 844.069336 210.144 
" style="fill:none;stroke:#1a1a1a;stroke-linecap:round;stroke-width:0.5;"/>
   </g>
   <g id="line2d_35">
    <path clip-path="url(#pfc709a4e65)" d="M 892.128653 159.408 
L 892.128653 210.144 
" style="fill:none;stroke:#1a1a1a;stroke-linecap:round;stroke-width:0.5;"/>
   </g>
   <g id="text_9">
    <g id="patch_20">
     <path d="M 192.233059 167.804953 
L 260.109934 167.804953 
Q 263.409934 167.804953 263.409934 164.504953 
L 263.409934 154.311047 
Q 263.409934 151.011047 260.109934 151.011047 
L 192.233059 151.011047 
Q 188.933059 151.011047 188.933059 154.311047 
L 188.933059 164.504953 
Q 188.933059 167.804953 192.233059 167.804953 
z
" style="fill:#ffffff;stroke:#808080;stroke-linejoin:miter;"/>
    </g>
    <!-- MASE_19600 -->
    <defs>
     <path d="M 7.421875 0 
L 7.421875 71.578125 
L 21.6875 71.578125 
L 38.625 20.90625 
Q 40.96875 13.8125 42.046875 10.296875 
Q 43.265625 14.203125 45.84375 21.78125 
L 62.984375 71.578125 
L 75.734375 71.578125 
L 75.734375 0 
L 66.609375 0 
L 66.609375 59.90625 
L 45.796875 0 
L 37.25 0 
L 16.546875 60.9375 
L 16.546875 0 
z
" id="ArialMT-77"/>
     <path d="M -0.140625 0 
L 27.34375 71.578125 
L 37.546875 71.578125 
L 66.84375 0 
L 56.0625 0 
L 47.703125 21.6875 
L 17.78125 21.6875 
L 9.90625 0 
z
M 20.515625 29.390625 
L 44.78125 29.390625 
L 37.3125 49.21875 
Q 33.890625 58.25 32.234375 64.0625 
Q 30.859375 57.171875 28.375 50.390625 
z
" id="ArialMT-65"/>
     <path d="M 4.5 23 
L 13.421875 23.78125 
Q 14.0625 18.40625 16.375 14.96875 
Q 18.703125 11.53125 23.578125 9.40625 
Q 28.46875 7.28125 34.578125 7.28125 
Q 39.984375 7.28125 44.140625 8.890625 
Q 48.296875 10.5 50.3125 13.296875 
Q 52.34375 16.109375 52.34375 19.4375 
Q 52.34375 22.796875 50.390625 25.3125 
Q 48.4375 27.828125 43.953125 29.546875 
Q 41.0625 30.671875 31.203125 33.03125 
Q 21.34375 35.40625 17.390625 37.5 
Q 12.25 40.1875 9.734375 44.15625 
Q 7.234375 48.140625 7.234375 53.078125 
Q 7.234375 58.5 10.296875 63.203125 
Q 13.375 67.921875 19.28125 70.359375 
Q 25.203125 72.796875 32.421875 72.796875 
Q 40.375 72.796875 46.453125 70.234375 
Q 52.546875 67.671875 55.8125 62.6875 
Q 59.078125 57.71875 59.328125 51.421875 
L 50.25 50.734375 
Q 49.515625 57.515625 45.28125 60.984375 
Q 41.0625 64.453125 32.8125 64.453125 
Q 24.21875 64.453125 20.28125 61.296875 
Q 16.359375 58.15625 16.359375 53.71875 
Q 16.359375 49.859375 19.140625 47.359375 
Q 21.875 44.875 33.421875 42.265625 
Q 44.96875 39.65625 49.265625 37.703125 
Q 55.515625 34.8125 58.484375 30.390625 
Q 61.46875 25.984375 61.46875 20.21875 
Q 61.46875 14.5 58.203125 9.4375 
Q 54.9375 4.390625 48.796875 1.578125 
Q 42.671875 -1.21875 35.015625 -1.21875 
Q 25.296875 -1.21875 18.71875 1.609375 
Q 12.15625 4.4375 8.421875 10.125 
Q 4.6875 15.828125 4.5 23 
z
" id="ArialMT-83"/>
     <path d="M 7.90625 0 
L 7.90625 71.578125 
L 59.671875 71.578125 
L 59.671875 63.140625 
L 17.390625 63.140625 
L 17.390625 41.21875 
L 56.984375 41.21875 
L 56.984375 32.8125 
L 17.390625 32.8125 
L 17.390625 8.453125 
L 61.328125 8.453125 
L 61.328125 0 
z
" id="ArialMT-69"/>
     <path d="M -1.515625 -19.875 
L -1.515625 -13.53125 
L 56.734375 -13.53125 
L 56.734375 -19.875 
z
" id="ArialMT-95"/>
     <path d="M 5.46875 16.546875 
L 13.921875 17.328125 
Q 14.984375 11.375 18.015625 8.6875 
Q 21.046875 6 25.78125 6 
Q 29.828125 6 32.875 7.859375 
Q 35.9375 9.71875 37.890625 12.8125 
Q 39.84375 15.921875 41.15625 21.1875 
Q 42.484375 26.46875 42.484375 31.9375 
Q 42.484375 32.515625 42.4375 33.6875 
Q 39.796875 29.5 35.234375 26.875 
Q 30.671875 24.265625 25.34375 24.265625 
Q 16.453125 24.265625 10.296875 30.703125 
Q 4.15625 37.15625 4.15625 47.703125 
Q 4.15625 58.59375 10.578125 65.234375 
Q 17 71.875 26.65625 71.875 
Q 33.640625 71.875 39.421875 68.109375 
Q 45.21875 64.359375 48.21875 57.390625 
Q 51.21875 50.4375 51.21875 37.25 
Q 51.21875 23.53125 48.234375 15.40625 
Q 45.265625 7.28125 39.375 3.03125 
Q 33.5 -1.21875 25.59375 -1.21875 
Q 17.1875 -1.21875 11.859375 3.4375 
Q 6.546875 8.109375 5.46875 16.546875 
z
M 41.453125 48.140625 
Q 41.453125 55.71875 37.421875 60.15625 
Q 33.40625 64.59375 27.734375 64.59375 
Q 21.875 64.59375 17.53125 59.8125 
Q 13.1875 55.03125 13.1875 47.40625 
Q 13.1875 40.578125 17.3125 36.296875 
Q 21.4375 32.03125 27.484375 32.03125 
Q 33.59375 32.03125 37.515625 36.296875 
Q 41.453125 40.578125 41.453125 48.140625 
z
" id="ArialMT-57"/>
    </defs>
    <g style="fill:#262626;" transform="translate(192.233059 162.318703)scale(0.11 -0.11)">
     <use xlink:href="#ArialMT-77"/>
     <use x="83.300781" xlink:href="#ArialMT-65"/>
     <use x="150" xlink:href="#ArialMT-83"/>
     <use x="216.699219" xlink:href="#ArialMT-69"/>
     <use x="283.398438" xlink:href="#ArialMT-95"/>
     <use x="339.013672" xlink:href="#ArialMT-49"/>
     <use x="394.628906" xlink:href="#ArialMT-57"/>
     <use x="450.244141" xlink:href="#ArialMT-54"/>
     <use x="505.859375" xlink:href="#ArialMT-48"/>
     <use x="561.474609" xlink:href="#ArialMT-48"/>
    </g>
   </g>
   <g id="text_10">
    <g id="patch_21">
     <path d="M 208.020142 142.436953 
L 275.897017 142.436953 
Q 279.197017 142.436953 279.197017 139.136953 
L 279.197017 128.943047 
Q 279.197017 125.643047 275.897017 125.643047 
L 208.020142 125.643047 
Q 204.720142 125.643047 204.720142 128.943047 
L 204.720142 139.136953 
Q 204.720142 142.436953 208.020142 142.436953 
z
" style="fill:#ffffff;stroke:#808080;stroke-linejoin:miter;"/>
    </g>
    <!-- MASE_19605 -->
    <defs>
     <path d="M 4.15625 18.75 
L 13.375 19.53125 
Q 14.40625 12.796875 18.140625 9.390625 
Q 21.875 6 27.15625 6 
Q 33.5 6 37.890625 10.78125 
Q 42.28125 15.578125 42.28125 23.484375 
Q 42.28125 31 38.0625 35.34375 
Q 33.84375 39.703125 27 39.703125 
Q 22.75 39.703125 19.328125 37.765625 
Q 15.921875 35.84375 13.96875 32.765625 
L 5.71875 33.84375 
L 12.640625 70.609375 
L 48.25 70.609375 
L 48.25 62.203125 
L 19.671875 62.203125 
L 15.828125 42.96875 
Q 22.265625 47.46875 29.34375 47.46875 
Q 38.71875 47.46875 45.15625 40.96875 
Q 51.609375 34.46875 51.609375 24.265625 
Q 51.609375 14.546875 45.953125 7.46875 
Q 39.0625 -1.21875 27.15625 -1.21875 
Q 17.390625 -1.21875 11.203125 4.25 
Q 5.03125 9.71875 4.15625 18.75 
z
" id="ArialMT-53"/>
    </defs>
    <g style="fill:#262626;" transform="translate(208.020142 136.950703)scale(0.11 -0.11)">
     <use xlink:href="#ArialMT-77"/>
     <use x="83.300781" xlink:href="#ArialMT-65"/>
     <use x="150" xlink:href="#ArialMT-83"/>
     <use x="216.699219" xlink:href="#ArialMT-69"/>
     <use x="283.398438" xlink:href="#ArialMT-95"/>
     <use x="339.013672" xlink:href="#ArialMT-49"/>
     <use x="394.628906" xlink:href="#ArialMT-57"/>
     <use x="450.244141" xlink:href="#ArialMT-54"/>
     <use x="505.859375" xlink:href="#ArialMT-48"/>
     <use x="561.474609" xlink:href="#ArialMT-53"/>
    </g>
   </g>
   <g id="text_11">
    <g id="patch_22">
     <path d="M 244.104903 117.068953 
L 311.981778 117.068953 
Q 315.281778 117.068953 315.281778 113.768953 
L 315.281778 103.575047 
Q 315.281778 100.275047 311.981778 100.275047 
L 244.104903 100.275047 
Q 240.804903 100.275047 240.804903 103.575047 
L 240.804903 113.768953 
Q 240.804903 117.068953 244.104903 117.068953 
z
" style="fill:#ffffff;stroke:#808080;stroke-linejoin:miter;"/>
    </g>
    <!-- MASE_19610 -->
    <g style="fill:#262626;" transform="translate(244.104903 111.582703)scale(0.11 -0.11)">
     <use xlink:href="#ArialMT-77"/>
     <use x="83.300781" xlink:href="#ArialMT-65"/>
     <use x="150" xlink:href="#ArialMT-83"/>
     <use x="216.699219" xlink:href="#ArialMT-69"/>
     <use x="283.398438" xlink:href="#ArialMT-95"/>
     <use x="339.013672" xlink:href="#ArialMT-49"/>
     <use x="394.628906" xlink:href="#ArialMT-57"/>
     <use x="450.244141" xlink:href="#ArialMT-54"/>
     <use x="505.859375" xlink:href="#ArialMT-49"/>
     <use x="561.474609" xlink:href="#ArialMT-48"/>
    </g>
   </g>
   <g id="text_12">
    <g id="patch_23">
     <path d="M 269.48595 91.700953 
L 337.362825 91.700953 
Q 340.662825 91.700953 340.662825 88.400953 
L 340.662825 78.207047 
Q 340.662825 74.907047 337.362825 74.907047 
L 269.48595 74.907047 
Q 266.18595 74.907047 266.18595 78.207047 
L 266.18595 88.400953 
Q 266.18595 91.700953 269.48595 91.700953 
z
" style="fill:#ffffff;stroke:#808080;stroke-linejoin:miter;"/>
    </g>
    <!-- MASE_19615 -->
    <g style="fill:#262626;" transform="translate(269.48595 86.214703)scale(0.11 -0.11)">
     <use xlink:href="#ArialMT-77"/>
     <use x="83.300781" xlink:href="#ArialMT-65"/>
     <use x="150" xlink:href="#ArialMT-83"/>
     <use x="216.699219" xlink:href="#ArialMT-69"/>
     <use x="283.398438" xlink:href="#ArialMT-95"/>
     <use x="339.013672" xlink:href="#ArialMT-49"/>
     <use x="394.628906" xlink:href="#ArialMT-57"/>
     <use x="450.244141" xlink:href="#ArialMT-54"/>
     <use x="505.859375" xlink:href="#ArialMT-49"/>
     <use x="561.474609" xlink:href="#ArialMT-53"/>
    </g>
   </g>
   <g id="text_13">
    <g id="patch_24">
     <path d="M 308.434582 167.804953 
L 376.311457 167.804953 
Q 379.611457 167.804953 379.611457 164.504953 
L 379.611457 154.311047 
Q 379.611457 151.011047 376.311457 151.011047 
L 308.434582 151.011047 
Q 305.134582 151.011047 305.134582 154.311047 
L 305.134582 164.504953 
Q 305.134582 167.804953 308.434582 167.804953 
z
" style="fill:#ffffff;stroke:#808080;stroke-linejoin:miter;"/>
    </g>
    <!-- MASE_19620 -->
    <g style="fill:#262626;" transform="translate(308.434582 162.318703)scale(0.11 -0.11)">
     <use xlink:href="#ArialMT-77"/>
     <use x="83.300781" xlink:href="#ArialMT-65"/>
     <use x="150" xlink:href="#ArialMT-83"/>
     <use x="216.699219" xlink:href="#ArialMT-69"/>
     <use x="283.398438" xlink:href="#ArialMT-95"/>
     <use x="339.013672" xlink:href="#ArialMT-49"/>
     <use x="394.628906" xlink:href="#ArialMT-57"/>
     <use x="450.244141" xlink:href="#ArialMT-54"/>
     <use x="505.859375" xlink:href="#ArialMT-50"/>
     <use x="561.474609" xlink:href="#ArialMT-48"/>
    </g>
   </g>
   <g id="text_14">
    <g id="patch_25">
     <path d="M 343.015811 142.436953 
L 410.892686 142.436953 
Q 414.192686 142.436953 414.192686 139.136953 
L 414.192686 128.943047 
Q 414.192686 125.643047 410.892686 125.643047 
L 343.015811 125.643047 
Q 339.715811 125.643047 339.715811 128.943047 
L 339.715811 139.136953 
Q 339.715811 142.436953 343.015811 142.436953 
z
" style="fill:#ffffff;stroke:#808080;stroke-linejoin:miter;"/>
    </g>
    <!-- MASE_19625 -->
    <g style="fill:#262626;" transform="translate(343.015811 136.950703)scale(0.11 -0.11)">
     <use xlink:href="#ArialMT-77"/>
     <use x="83.300781" xlink:href="#ArialMT-65"/>
     <use x="150" xlink:href="#ArialMT-83"/>
     <use x="216.699219" xlink:href="#ArialMT-69"/>
     <use x="283.398438" xlink:href="#ArialMT-95"/>
     <use x="339.013672" xlink:href="#ArialMT-49"/>
     <use x="394.628906" xlink:href="#ArialMT-57"/>
     <use x="450.244141" xlink:href="#ArialMT-54"/>
     <use x="505.859375" xlink:href="#ArialMT-50"/>
     <use x="561.474609" xlink:href="#ArialMT-53"/>
    </g>
   </g>
   <g id="text_15">
    <g id="patch_26">
     <path d="M 367.662992 117.068953 
L 435.539867 117.068953 
Q 438.839867 117.068953 438.839867 113.768953 
L 438.839867 103.575047 
Q 438.839867 100.275047 435.539867 100.275047 
L 367.662992 100.275047 
Q 364.362992 100.275047 364.362992 103.575047 
L 364.362992 113.768953 
Q 364.362992 117.068953 367.662992 117.068953 
z
" style="fill:#ffffff;stroke:#808080;stroke-linejoin:miter;"/>
    </g>
    <!-- MASE_19630 -->
    <g style="fill:#262626;" transform="translate(367.662992 111.582703)scale(0.11 -0.11)">
     <use xlink:href="#ArialMT-77"/>
     <use x="83.300781" xlink:href="#ArialMT-65"/>
     <use x="150" xlink:href="#ArialMT-83"/>
     <use x="216.699219" xlink:href="#ArialMT-69"/>
     <use x="283.398438" xlink:href="#ArialMT-95"/>
     <use x="339.013672" xlink:href="#ArialMT-49"/>
     <use x="394.628906" xlink:href="#ArialMT-57"/>
     <use x="450.244141" xlink:href="#ArialMT-54"/>
     <use x="505.859375" xlink:href="#ArialMT-51"/>
     <use x="561.474609" xlink:href="#ArialMT-48"/>
    </g>
   </g>
   <g id="text_16">
    <g id="patch_27">
     <path d="M 380.049229 91.700953 
L 447.926104 91.700953 
Q 451.226104 91.700953 451.226104 88.400953 
L 451.226104 78.207047 
Q 451.226104 74.907047 447.926104 74.907047 
L 380.049229 74.907047 
Q 376.749229 74.907047 376.749229 78.207047 
L 376.749229 88.400953 
Q 376.749229 91.700953 380.049229 91.700953 
z
" style="fill:#ffffff;stroke:#808080;stroke-linejoin:miter;"/>
    </g>
    <!-- MASE_19635 -->
    <g style="fill:#262626;" transform="translate(380.049229 86.214703)scale(0.11 -0.11)">
     <use xlink:href="#ArialMT-77"/>
     <use x="83.300781" xlink:href="#ArialMT-65"/>
     <use x="150" xlink:href="#ArialMT-83"/>
     <use x="216.699219" xlink:href="#ArialMT-69"/>
     <use x="283.398438" xlink:href="#ArialMT-95"/>
     <use x="339.013672" xlink:href="#ArialMT-49"/>
     <use x="394.628906" xlink:href="#ArialMT-57"/>
     <use x="450.244141" xlink:href="#ArialMT-54"/>
     <use x="505.859375" xlink:href="#ArialMT-51"/>
     <use x="561.474609" xlink:href="#ArialMT-53"/>
    </g>
   </g>
   <g id="text_17">
    <g id="patch_28">
     <path d="M 388.694537 66.332953 
L 456.571412 66.332953 
Q 459.871412 66.332953 459.871412 63.032953 
L 459.871412 52.839047 
Q 459.871412 49.539047 456.571412 49.539047 
L 388.694537 49.539047 
Q 385.394537 49.539047 385.394537 52.839047 
L 385.394537 63.032953 
Q 385.394537 66.332953 388.694537 66.332953 
z
" style="fill:#ffffff;stroke:#808080;stroke-linejoin:miter;"/>
    </g>
    <!-- MASE_19640 -->
    <g style="fill:#262626;" transform="translate(388.694537 60.846703)scale(0.11 -0.11)">
     <use xlink:href="#ArialMT-77"/>
     <use x="83.300781" xlink:href="#ArialMT-65"/>
     <use x="150" xlink:href="#ArialMT-83"/>
     <use x="216.699219" xlink:href="#ArialMT-69"/>
     <use x="283.398438" xlink:href="#ArialMT-95"/>
     <use x="339.013672" xlink:href="#ArialMT-49"/>
     <use x="394.628906" xlink:href="#ArialMT-57"/>
     <use x="450.244141" xlink:href="#ArialMT-54"/>
     <use x="505.859375" xlink:href="#ArialMT-52"/>
     <use x="561.474609" xlink:href="#ArialMT-48"/>
    </g>
   </g>
   <g id="text_18">
    <g id="patch_29">
     <path d="M 404.463721 167.804953 
L 472.340596 167.804953 
Q 475.640596 167.804953 475.640596 164.504953 
L 475.640596 154.311047 
Q 475.640596 151.011047 472.340596 151.011047 
L 404.463721 151.011047 
Q 401.163721 151.011047 401.163721 154.311047 
L 401.163721 164.504953 
Q 401.163721 167.804953 404.463721 167.804953 
z
" style="fill:#ffffff;stroke:#808080;stroke-linejoin:miter;"/>
    </g>
    <!-- MASE_19645 -->
    <g style="fill:#262626;" transform="translate(404.463721 162.318703)scale(0.11 -0.11)">
     <use xlink:href="#ArialMT-77"/>
     <use x="83.300781" xlink:href="#ArialMT-65"/>
     <use x="150" xlink:href="#ArialMT-83"/>
     <use x="216.699219" xlink:href="#ArialMT-69"/>
     <use x="283.398438" xlink:href="#ArialMT-95"/>
     <use x="339.013672" xlink:href="#ArialMT-49"/>
     <use x="394.628906" xlink:href="#ArialMT-57"/>
     <use x="450.244141" xlink:href="#ArialMT-54"/>
     <use x="505.859375" xlink:href="#ArialMT-52"/>
     <use x="561.474609" xlink:href="#ArialMT-53"/>
    </g>
   </g>
   <g id="text_19">
    <g id="patch_30">
     <path d="M 430.775526 40.964953 
L 498.652401 40.964953 
Q 501.952401 40.964953 501.952401 37.664953 
L 501.952401 27.471047 
Q 501.952401 24.171047 498.652401 24.171047 
L 430.775526 24.171047 
Q 427.475526 24.171047 427.475526 27.471047 
L 427.475526 37.664953 
Q 427.475526 40.964953 430.775526 40.964953 
z
" style="fill:#ffffff;stroke:#808080;stroke-linejoin:miter;"/>
    </g>
    <!-- MASE_19650 -->
    <g style="fill:#262626;" transform="translate(430.775526 35.478703)scale(0.11 -0.11)">
     <use xlink:href="#ArialMT-77"/>
     <use x="83.300781" xlink:href="#ArialMT-65"/>
     <use x="150" xlink:href="#ArialMT-83"/>
     <use x="216.699219" xlink:href="#ArialMT-69"/>
     <use x="283.398438" xlink:href="#ArialMT-95"/>
     <use x="339.013672" xlink:href="#ArialMT-49"/>
     <use x="394.628906" xlink:href="#ArialMT-57"/>
     <use x="450.244141" xlink:href="#ArialMT-54"/>
     <use x="505.859375" xlink:href="#ArialMT-53"/>
     <use x="561.474609" xlink:href="#ArialMT-48"/>
    </g>
   </g>
   <g id="text_20">
    <g id="patch_31">
     <path d="M 469.795754 142.436953 
L 537.672629 142.436953 
Q 540.972629 142.436953 540.972629 139.136953 
L 540.972629 128.943047 
Q 540.972629 125.643047 537.672629 125.643047 
L 469.795754 125.643047 
Q 466.495754 125.643047 466.495754 128.943047 
L 466.495754 139.136953 
Q 466.495754 142.436953 469.795754 142.436953 
z
" style="fill:#ffffff;stroke:#808080;stroke-linejoin:miter;"/>
    </g>
    <!-- MASE_19655 -->
    <g style="fill:#262626;" transform="translate(469.795754 136.950703)scale(0.11 -0.11)">
     <use xlink:href="#ArialMT-77"/>
     <use x="83.300781" xlink:href="#ArialMT-65"/>
     <use x="150" xlink:href="#ArialMT-83"/>
     <use x="216.699219" xlink:href="#ArialMT-69"/>
     <use x="283.398438" xlink:href="#ArialMT-95"/>
     <use x="339.013672" xlink:href="#ArialMT-49"/>
     <use x="394.628906" xlink:href="#ArialMT-57"/>
     <use x="450.244141" xlink:href="#ArialMT-54"/>
     <use x="505.859375" xlink:href="#ArialMT-53"/>
     <use x="561.474609" xlink:href="#ArialMT-53"/>
    </g>
   </g>
   <g id="text_21">
    <g id="patch_32">
     <path d="M 517.908769 167.804953 
L 585.785644 167.804953 
Q 589.085644 167.804953 589.085644 164.504953 
L 589.085644 154.311047 
Q 589.085644 151.011047 585.785644 151.011047 
L 517.908769 151.011047 
Q 514.608769 151.011047 514.608769 154.311047 
L 514.608769 164.504953 
Q 514.608769 167.804953 517.908769 167.804953 
z
" style="fill:#ffffff;stroke:#808080;stroke-linejoin:miter;"/>
    </g>
    <!-- MASE_19660 -->
    <g style="fill:#262626;" transform="translate(517.908769 162.318703)scale(0.11 -0.11)">
     <use xlink:href="#ArialMT-77"/>
     <use x="83.300781" xlink:href="#ArialMT-65"/>
     <use x="150" xlink:href="#ArialMT-83"/>
     <use x="216.699219" xlink:href="#ArialMT-69"/>
     <use x="283.398438" xlink:href="#ArialMT-95"/>
     <use x="339.013672" xlink:href="#ArialMT-49"/>
     <use x="394.628906" xlink:href="#ArialMT-57"/>
     <use x="450.244141" xlink:href="#ArialMT-54"/>
     <use x="505.859375" xlink:href="#ArialMT-54"/>
     <use x="561.474609" xlink:href="#ArialMT-48"/>
    </g>
   </g>
   <g id="text_22">
    <g id="patch_33">
     <path d="M 574.004821 142.436953 
L 641.881696 142.436953 
Q 645.181696 142.436953 645.181696 139.136953 
L 645.181696 128.943047 
Q 645.181696 125.643047 641.881696 125.643047 
L 574.004821 125.643047 
Q 570.704821 125.643047 570.704821 128.943047 
L 570.704821 139.136953 
Q 570.704821 142.436953 574.004821 142.436953 
z
" style="fill:#ffffff;stroke:#808080;stroke-linejoin:miter;"/>
    </g>
    <!-- MASE_19665 -->
    <g style="fill:#262626;" transform="translate(574.004821 136.950703)scale(0.11 -0.11)">
     <use xlink:href="#ArialMT-77"/>
     <use x="83.300781" xlink:href="#ArialMT-65"/>
     <use x="150" xlink:href="#ArialMT-83"/>
     <use x="216.699219" xlink:href="#ArialMT-69"/>
     <use x="283.398438" xlink:href="#ArialMT-95"/>
     <use x="339.013672" xlink:href="#ArialMT-49"/>
     <use x="394.628906" xlink:href="#ArialMT-57"/>
     <use x="450.244141" xlink:href="#ArialMT-54"/>
     <use x="505.859375" xlink:href="#ArialMT-54"/>
     <use x="561.474609" xlink:href="#ArialMT-53"/>
    </g>
   </g>
   <g id="text_23">
    <g id="patch_34">
     <path d="M 661.549746 167.804953 
L 729.426621 167.804953 
Q 732.726621 167.804953 732.726621 164.504953 
L 732.726621 154.311047 
Q 732.726621 151.011047 729.426621 151.011047 
L 661.549746 151.011047 
Q 658.249746 151.011047 658.249746 154.311047 
L 658.249746 164.504953 
Q 658.249746 167.804953 661.549746 167.804953 
z
" style="fill:#ffecec;stroke:#808080;stroke-linejoin:miter;"/>
    </g>
    <!-- MASE_19670 -->
    <defs>
     <path d="M 4.734375 62.203125 
L 4.734375 70.65625 
L 51.078125 70.65625 
L 51.078125 63.8125 
Q 44.234375 56.546875 37.515625 44.484375 
Q 30.8125 32.421875 27.15625 19.671875 
Q 24.515625 10.6875 23.78125 0 
L 14.75 0 
Q 14.890625 8.453125 18.0625 20.40625 
Q 21.234375 32.375 27.171875 43.484375 
Q 33.109375 54.59375 39.796875 62.203125 
z
" id="ArialMT-55"/>
    </defs>
    <g style="fill:#262626;" transform="translate(661.549746 162.318703)scale(0.11 -0.11)">
     <use xlink:href="#ArialMT-77"/>
     <use x="83.300781" xlink:href="#ArialMT-65"/>
     <use x="150" xlink:href="#ArialMT-83"/>
     <use x="216.699219" xlink:href="#ArialMT-69"/>
     <use x="283.398438" xlink:href="#ArialMT-95"/>
     <use x="339.013672" xlink:href="#ArialMT-49"/>
     <use x="394.628906" xlink:href="#ArialMT-57"/>
     <use x="450.244141" xlink:href="#ArialMT-54"/>
     <use x="505.859375" xlink:href="#ArialMT-55"/>
     <use x="561.474609" xlink:href="#ArialMT-48"/>
    </g>
   </g>
   <g id="text_24">
    <g id="patch_35">
     <path d="M 756.791321 167.804953 
L 824.668196 167.804953 
Q 827.968196 167.804953 827.968196 164.504953 
L 827.968196 154.311047 
Q 827.968196 151.011047 824.668196 151.011047 
L 756.791321 151.011047 
Q 753.491321 151.011047 753.491321 154.311047 
L 753.491321 164.504953 
Q 753.491321 167.804953 756.791321 167.804953 
z
" style="fill:#ffffff;stroke:#808080;stroke-linejoin:miter;"/>
    </g>
    <!-- MASE_19675 -->
    <g style="fill:#262626;" transform="translate(756.791321 162.318703)scale(0.11 -0.11)">
     <use xlink:href="#ArialMT-77"/>
     <use x="83.300781" xlink:href="#ArialMT-65"/>
     <use x="150" xlink:href="#ArialMT-83"/>
     <use x="216.699219" xlink:href="#ArialMT-69"/>
     <use x="283.398438" xlink:href="#ArialMT-95"/>
     <use x="339.013672" xlink:href="#ArialMT-49"/>
     <use x="394.628906" xlink:href="#ArialMT-57"/>
     <use x="450.244141" xlink:href="#ArialMT-54"/>
     <use x="505.859375" xlink:href="#ArialMT-55"/>
     <use x="561.474609" xlink:href="#ArialMT-53"/>
    </g>
   </g>
   <g id="text_25">
    <g id="patch_36">
     <path d="M 810.130898 142.436953 
L 878.007773 142.436953 
Q 881.307773 142.436953 881.307773 139.136953 
L 881.307773 128.943047 
Q 881.307773 125.643047 878.007773 125.643047 
L 810.130898 125.643047 
Q 806.830898 125.643047 806.830898 128.943047 
L 806.830898 139.136953 
Q 806.830898 142.436953 810.130898 142.436953 
z
" style="fill:#ffffff;stroke:#808080;stroke-linejoin:miter;"/>
    </g>
    <!-- MASE_19680 -->
    <g style="fill:#262626;" transform="translate(810.130898 136.950703)scale(0.11 -0.11)">
     <use xlink:href="#ArialMT-77"/>
     <use x="83.300781" xlink:href="#ArialMT-65"/>
     <use x="150" xlink:href="#ArialMT-83"/>
     <use x="216.699219" xlink:href="#ArialMT-69"/>
     <use x="283.398438" xlink:href="#ArialMT-95"/>
     <use x="339.013672" xlink:href="#ArialMT-49"/>
     <use x="394.628906" xlink:href="#ArialMT-57"/>
     <use x="450.244141" xlink:href="#ArialMT-54"/>
     <use x="505.859375" xlink:href="#ArialMT-56"/>
     <use x="561.474609" xlink:href="#ArialMT-48"/>
    </g>
   </g>
   <g id="text_26">
    <g id="patch_37">
     <path d="M 858.190216 167.804953 
L 926.067091 167.804953 
Q 929.367091 167.804953 929.367091 164.504953 
L 929.367091 154.311047 
Q 929.367091 151.011047 926.067091 151.011047 
L 858.190216 151.011047 
Q 854.890216 151.011047 854.890216 154.311047 
L 854.890216 164.504953 
Q 854.890216 167.804953 858.190216 167.804953 
z
" style="fill:#ffffff;stroke:#808080;stroke-linejoin:miter;"/>
    </g>
    <!-- MASE_19685 -->
    <g style="fill:#262626;" transform="translate(858.190216 162.318703)scale(0.11 -0.11)">
     <use xlink:href="#ArialMT-77"/>
     <use x="83.300781" xlink:href="#ArialMT-65"/>
     <use x="150" xlink:href="#ArialMT-83"/>
     <use x="216.699219" xlink:href="#ArialMT-69"/>
     <use x="283.398438" xlink:href="#ArialMT-95"/>
     <use x="339.013672" xlink:href="#ArialMT-49"/>
     <use x="394.628906" xlink:href="#ArialMT-57"/>
     <use x="450.244141" xlink:href="#ArialMT-54"/>
     <use x="505.859375" xlink:href="#ArialMT-56"/>
     <use x="561.474609" xlink:href="#ArialMT-53"/>
    </g>
   </g>
  </g>
 </g>
 <defs>
  <clipPath id="pfc709a4e65">
   <rect height="228.312" width="1116" x="7.2" y="7.2"/>
  </clipPath>
 </defs>
</svg>
