<?xml version="1.0" encoding="utf-8" standalone="no"?>
<!DOCTYPE svg PUBLIC "-//W3C//DTD SVG 1.1//EN"
  "http://www.w3.org/Graphics/SVG/1.1/DTD/svg11.dtd">
<!-- Created with matplotlib (https://matplotlib.org/) -->
<svg height="197.039844pt" version="1.1" viewBox="0 0 1130.4 197.039844" width="1130.4pt" xmlns="http://www.w3.org/2000/svg" xmlns:xlink="http://www.w3.org/1999/xlink">
 <defs>
  <style type="text/css">
*{stroke-linecap:butt;stroke-linejoin:round;}
  </style>
 </defs>
 <g id="figure_1">
  <g id="patch_1">
   <path d="M 0 197.039844 
L 1130.4 197.039844 
L 1130.4 0 
L 0 0 
z
" style="fill:#ffffff;"/>
  </g>
  <g id="axes_1">
   <g id="line2d_1">
    <path clip-path="url(#p775b51bf55)" d="M 7.2 143.1 
L 1123.2 143.1 
" style="fill:none;stroke:#1a1a1a;stroke-linecap:round;stroke-width:1.5;"/>
   </g>
   <g id="patch_2">
    <path clip-path="url(#p775b51bf55)" d="M 72.489075 150.1 
Q 68.972702 150.1 65.456329 150.1 
L 65.456329 150.1 
Q 61.258152 146.6 57.059976 143.1 
Q 61.258152 139.6 65.456329 136.1 
L 65.456329 136.1 
Q 68.972702 136.1 72.489075 136.1 
L 72.489075 150.1 
z
" style="fill:#ffffff;fill-opacity:0.85;stroke:#000000;stroke-linecap:round;"/>
   </g>
   <g id="patch_3">
    <path clip-path="url(#p775b51bf55)" d="M 106.855514 150.1 
Q 94.103303 150.1 81.351091 150.1 
L 81.351091 150.1 
Q 77.152773 146.6 72.954454 143.1 
Q 77.152773 139.6 81.351091 136.1 
L 81.351091 136.1 
Q 94.103303 136.1 106.855514 136.1 
L 106.855514 150.1 
z
" style="fill:#ffffff;fill-opacity:0.85;stroke:#000000;stroke-linecap:round;"/>
   </g>
   <g id="patch_4">
    <path clip-path="url(#p775b51bf55)" d="M 116.664269 136.1 
Q 124.205036 136.1 131.745802 136.1 
L 131.745802 136.1 
Q 135.946903 139.6 140.148003 143.1 
Q 135.946903 146.6 131.745802 150.1 
L 131.745802 150.1 
Q 124.205036 150.1 116.664269 150.1 
L 116.664269 136.1 
z
" style="fill:#ffffff;fill-opacity:0.85;stroke:#000000;stroke-linecap:round;"/>
   </g>
   <g id="patch_5">
    <path clip-path="url(#p775b51bf55)" d="M 178.595457 150.1 
Q 166.327434 150.1 154.059412 150.1 
L 154.059412 150.1 
Q 149.860182 146.6 145.660952 143.1 
Q 149.860182 139.6 154.059412 136.1 
L 154.059412 136.1 
Q 166.327434 136.1 178.595457 136.1 
L 178.595457 150.1 
z
" style="fill:#ffffff;fill-opacity:0.85;stroke:#000000;stroke-linecap:round;"/>
   </g>
   <g id="patch_6">
    <path clip-path="url(#p775b51bf55)" d="M 231.827639 150.1 
Q 209.627278 150.1 187.426916 150.1 
L 187.426916 150.1 
Q 183.225976 146.6 179.025037 143.1 
Q 183.225976 139.6 187.426916 136.1 
L 187.426916 136.1 
Q 209.627278 136.1 231.827639 136.1 
L 231.827639 150.1 
z
" style="fill:#ffffff;fill-opacity:0.85;stroke:#000000;stroke-linecap:round;"/>
   </g>
   <g id="patch_7">
    <path clip-path="url(#p775b51bf55)" d="M 263.652394 122.92 
Q 252.136273 122.92 240.620152 122.92 
L 240.620152 122.92 
Q 236.420786 119.42 232.221421 115.92 
Q 236.420786 112.42 240.620152 108.92 
L 240.620152 108.92 
Q 252.136273 108.92 263.652394 108.92 
L 263.652394 122.92 
z
" style="fill:#ffffff;fill-opacity:0.85;stroke:#000000;stroke-linecap:round;"/>
   </g>
   <g id="patch_8">
    <path clip-path="url(#p775b51bf55)" d="M 355.976401 150.1 
Q 313.959435 150.1 271.942468 150.1 
L 271.942468 150.1 
Q 267.743734 146.6 263.544999 143.1 
Q 267.743734 139.6 271.942468 136.1 
L 271.942468 136.1 
Q 313.959435 136.1 355.976401 136.1 
L 355.976401 150.1 
z
" style="fill:#ffffff;fill-opacity:0.85;stroke:#000000;stroke-linecap:round;"/>
   </g>
   <g id="patch_9">
    <path clip-path="url(#p775b51bf55)" d="M 472.679102 150.1 
Q 418.902114 150.1 365.125127 150.1 
L 365.125127 150.1 
Q 360.926647 146.6 356.728167 143.1 
Q 360.926647 139.6 365.125127 136.1 
L 365.125127 136.1 
Q 418.902114 136.1 472.679102 136.1 
L 472.679102 150.1 
z
" style="fill:#ffffff;fill-opacity:0.85;stroke:#000000;stroke-linecap:round;"/>
   </g>
   <g id="patch_10">
    <path clip-path="url(#p775b51bf55)" d="M 484.743154 136.1 
Q 486.377162 136.1 488.011171 136.1 
L 488.011171 136.1 
Q 492.212297 139.6 496.413424 143.1 
Q 492.212297 146.6 488.011171 150.1 
L 488.011171 150.1 
Q 486.377162 150.1 484.743154 150.1 
L 484.743154 136.1 
z
" style="fill:#ffffff;fill-opacity:0.85;stroke:#000000;stroke-linecap:round;"/>
   </g>
   <g id="patch_11">
    <path clip-path="url(#p775b51bf55)" d="M 499.492084 136.1 
Q 541.239715 136.1 582.987347 136.1 
L 582.987347 136.1 
Q 587.186929 139.6 591.386511 143.1 
Q 587.186929 146.6 582.987347 150.1 
L 582.987347 150.1 
Q 541.239715 150.1 499.492084 150.1 
L 499.492084 136.1 
z
" style="fill:#ffffff;fill-opacity:0.85;stroke:#000000;stroke-linecap:round;"/>
   </g>
   <g id="patch_12">
    <path clip-path="url(#p775b51bf55)" d="M 597.185847 136.1 
Q 619.17363 136.1 641.161413 136.1 
L 641.161413 136.1 
Q 645.360141 139.6 649.558869 143.1 
Q 645.360141 146.6 641.161413 150.1 
L 641.161413 150.1 
Q 619.17363 150.1 597.185847 150.1 
L 597.185847 136.1 
z
" style="fill:#ffffff;fill-opacity:0.85;stroke:#000000;stroke-linecap:round;"/>
   </g>
   <g id="patch_13">
    <path clip-path="url(#p775b51bf55)" d="M 645.812658 136.1 
Q 650.012658 139.6 654.212658 143.1 
Q 650.012658 146.6 645.812658 150.1 
z
" style="fill:#ffffff;fill-opacity:0.85;stroke:#000000;stroke-linecap:round;"/>
   </g>
   <g id="patch_14">
    <path clip-path="url(#p775b51bf55)" d="M 754.483904 150.1 
Q 714.400107 150.1 674.316309 150.1 
L 674.316309 150.1 
Q 670.117518 146.6 665.918726 143.1 
Q 670.117518 139.6 674.316309 136.1 
L 674.316309 136.1 
Q 714.400107 136.1 754.483904 136.1 
L 754.483904 150.1 
z
" style="fill:#ff0000;fill-opacity:0.85;stroke:#000000;stroke-linecap:round;"/>
   </g>
   <g id="patch_15">
    <path clip-path="url(#p775b51bf55)" d="M 766.046779 136.1 
Q 778.742092 136.1 791.437405 136.1 
L 791.437405 136.1 
Q 795.638925 139.6 799.840444 143.1 
Q 795.638925 146.6 791.437405 150.1 
L 791.437405 150.1 
Q 778.742092 150.1 766.046779 150.1 
L 766.046779 136.1 
z
" style="fill:#ffffff;fill-opacity:0.85;stroke:#000000;stroke-linecap:round;"/>
   </g>
   <g id="patch_16">
    <path clip-path="url(#p775b51bf55)" d="M 827.90637 150.1 
Q 818.433042 150.1 808.959713 150.1 
L 808.959713 150.1 
Q 804.758063 146.6 800.556412 143.1 
Q 804.758063 139.6 808.959713 136.1 
L 808.959713 136.1 
Q 818.433042 136.1 827.90637 136.1 
L 827.90637 150.1 
z
" style="fill:#ffffff;fill-opacity:0.85;stroke:#000000;stroke-linecap:round;"/>
   </g>
   <g id="patch_17">
    <path clip-path="url(#p775b51bf55)" d="M 931.721655 150.1 
Q 884.442838 150.1 837.164021 150.1 
L 837.164021 150.1 
Q 832.964776 146.6 828.765531 143.1 
Q 832.964776 139.6 837.164021 136.1 
L 837.164021 136.1 
Q 884.442838 136.1 931.721655 136.1 
L 931.721655 150.1 
z
" style="fill:#ffffff;fill-opacity:0.85;stroke:#000000;stroke-linecap:round;"/>
   </g>
   <g id="patch_18">
    <path clip-path="url(#p775b51bf55)" d="M 973.89214 150.1 
Q 957.006187 150.1 940.120233 150.1 
L 940.120233 150.1 
Q 935.920944 146.6 931.721655 143.1 
Q 935.920944 139.6 940.120233 136.1 
L 940.120233 136.1 
Q 957.006187 136.1 973.89214 136.1 
L 973.89214 150.1 
z
" style="fill:#ffffff;fill-opacity:0.85;stroke:#000000;stroke-linecap:round;"/>
   </g>
   <g id="patch_19">
    <path clip-path="url(#p775b51bf55)" d="M 985.956193 136.1 
Q 990.653903 136.1 995.351614 136.1 
L 995.351614 136.1 
Q 999.549799 139.6 1003.747985 143.1 
Q 999.549799 146.6 995.351614 150.1 
L 995.351614 150.1 
Q 990.653903 150.1 985.956193 150.1 
L 985.956193 136.1 
z
" style="fill:#ffffff;fill-opacity:0.85;stroke:#000000;stroke-linecap:round;"/>
   </g>
   <g id="patch_20">
    <path clip-path="url(#p775b51bf55)" d="M 1023.759276 150.1 
Q 1019.546805 150.1 1015.334335 150.1 
L 1015.334335 150.1 
Q 1011.134187 146.6 1006.93404 143.1 
Q 1011.134187 139.6 1015.334335 136.1 
L 1015.334335 136.1 
Q 1019.546805 136.1 1023.759276 136.1 
L 1023.759276 150.1 
z
" style="fill:#ffffff;fill-opacity:0.85;stroke:#000000;stroke-linecap:round;"/>
   </g>
   <g id="patch_21">
    <path clip-path="url(#p775b51bf55)" d="M 1073.340024 150.1 
Q 1057.04469 150.1 1040.749356 150.1 
L 1040.749356 150.1 
Q 1036.550121 146.6 1032.350886 143.1 
Q 1036.550121 139.6 1040.749356 136.1 
L 1040.749356 136.1 
Q 1057.04469 136.1 1073.340024 136.1 
L 1073.340024 150.1 
z
" style="fill:#ffffff;fill-opacity:0.85;stroke:#000000;stroke-linecap:round;"/>
   </g>
   <g id="matplotlib.axis_1">
    <g id="xtick_1">
     <g id="line2d_2">
      <path clip-path="url(#p775b51bf55)" d="M 73.294539 170.28 
L 73.294539 7.2 
" style="fill:none;stroke:#ffffff;stroke-linecap:round;"/>
     </g>
     <g id="line2d_3">
      <defs>
       <path d="M 0 0 
L 0 6 
" id="m0f414a14bf" style="stroke:#262626;stroke-width:1.25;"/>
      </defs>
      <g>
       <use style="fill:#262626;stroke:#262626;stroke-width:1.25;" x="73.294539" xlink:href="#m0f414a14bf" y="170.28"/>
      </g>
     </g>
     <g id="text_1">
      <!-- 788000 -->
      <defs>
       <path d="M 4.734375 62.203125 
L 4.734375 70.65625 
L 51.078125 70.65625 
L 51.078125 63.8125 
Q 44.234375 56.546875 37.515625 44.484375 
Q 30.8125 32.421875 27.15625 19.671875 
Q 24.515625 10.6875 23.78125 0 
L 14.75 0 
Q 14.890625 8.453125 18.0625 20.40625 
Q 21.234375 32.375 27.171875 43.484375 
Q 33.109375 54.59375 39.796875 62.203125 
z
" id="ArialMT-55"/>
       <path d="M 17.671875 38.8125 
Q 12.203125 40.828125 9.5625 44.53125 
Q 6.9375 48.25 6.9375 53.421875 
Q 6.9375 61.234375 12.546875 66.546875 
Q 18.171875 71.875 27.484375 71.875 
Q 36.859375 71.875 42.578125 66.421875 
Q 48.296875 60.984375 48.296875 53.171875 
Q 48.296875 48.1875 45.671875 44.5 
Q 43.0625 40.828125 37.75 38.8125 
Q 44.34375 36.671875 47.78125 31.875 
Q 51.21875 27.09375 51.21875 20.453125 
Q 51.21875 11.28125 44.71875 5.03125 
Q 38.234375 -1.21875 27.640625 -1.21875 
Q 17.046875 -1.21875 10.546875 5.046875 
Q 4.046875 11.328125 4.046875 20.703125 
Q 4.046875 27.6875 7.59375 32.390625 
Q 11.140625 37.109375 17.671875 38.8125 
z
M 15.921875 53.71875 
Q 15.921875 48.640625 19.1875 45.40625 
Q 22.46875 42.1875 27.6875 42.1875 
Q 32.765625 42.1875 36.015625 45.375 
Q 39.265625 48.578125 39.265625 53.21875 
Q 39.265625 58.0625 35.90625 61.359375 
Q 32.5625 64.65625 27.59375 64.65625 
Q 22.5625 64.65625 19.234375 61.421875 
Q 15.921875 58.203125 15.921875 53.71875 
z
M 13.09375 20.65625 
Q 13.09375 16.890625 14.875 13.375 
Q 16.65625 9.859375 20.171875 7.921875 
Q 23.6875 6 27.734375 6 
Q 34.03125 6 38.125 10.046875 
Q 42.234375 14.109375 42.234375 20.359375 
Q 42.234375 26.703125 38.015625 30.859375 
Q 33.796875 35.015625 27.4375 35.015625 
Q 21.234375 35.015625 17.15625 30.90625 
Q 13.09375 26.8125 13.09375 20.65625 
z
" id="ArialMT-56"/>
       <path d="M 4.15625 35.296875 
Q 4.15625 48 6.765625 55.734375 
Q 9.375 63.484375 14.515625 67.671875 
Q 19.671875 71.875 27.484375 71.875 
Q 33.25 71.875 37.59375 69.546875 
Q 41.9375 67.234375 44.765625 62.859375 
Q 47.609375 58.5 49.21875 52.21875 
Q 50.828125 45.953125 50.828125 35.296875 
Q 50.828125 22.703125 48.234375 14.96875 
Q 45.65625 7.234375 40.5 3 
Q 35.359375 -1.21875 27.484375 -1.21875 
Q 17.140625 -1.21875 11.234375 6.203125 
Q 4.15625 15.140625 4.15625 35.296875 
z
M 13.1875 35.296875 
Q 13.1875 17.671875 17.3125 11.828125 
Q 21.4375 6 27.484375 6 
Q 33.546875 6 37.671875 11.859375 
Q 41.796875 17.71875 41.796875 35.296875 
Q 41.796875 52.984375 37.671875 58.78125 
Q 33.546875 64.59375 27.390625 64.59375 
Q 21.34375 64.59375 17.71875 59.46875 
Q 13.1875 52.9375 13.1875 35.296875 
z
" id="ArialMT-48"/>
      </defs>
      <g style="fill:#262626;" transform="translate(54.943445 187.653594)scale(0.11 -0.11)">
       <use xlink:href="#ArialMT-55"/>
       <use x="55.615234" xlink:href="#ArialMT-56"/>
       <use x="111.230469" xlink:href="#ArialMT-56"/>
       <use x="166.845703" xlink:href="#ArialMT-48"/>
       <use x="222.460938" xlink:href="#ArialMT-48"/>
       <use x="278.076172" xlink:href="#ArialMT-48"/>
      </g>
     </g>
    </g>
    <g id="xtick_2">
     <g id="line2d_4">
      <path clip-path="url(#p775b51bf55)" d="M 216.488036 170.28 
L 216.488036 7.2 
" style="fill:none;stroke:#ffffff;stroke-linecap:round;"/>
     </g>
     <g id="line2d_5">
      <g>
       <use style="fill:#262626;stroke:#262626;stroke-width:1.25;" x="216.488036" xlink:href="#m0f414a14bf" y="170.28"/>
      </g>
     </g>
     <g id="text_2">
      <!-- 792000 -->
      <defs>
       <path d="M 5.46875 16.546875 
L 13.921875 17.328125 
Q 14.984375 11.375 18.015625 8.6875 
Q 21.046875 6 25.78125 6 
Q 29.828125 6 32.875 7.859375 
Q 35.9375 9.71875 37.890625 12.8125 
Q 39.84375 15.921875 41.15625 21.1875 
Q 42.484375 26.46875 42.484375 31.9375 
Q 42.484375 32.515625 42.4375 33.6875 
Q 39.796875 29.5 35.234375 26.875 
Q 30.671875 24.265625 25.34375 24.265625 
Q 16.453125 24.265625 10.296875 30.703125 
Q 4.15625 37.15625 4.15625 47.703125 
Q 4.15625 58.59375 10.578125 65.234375 
Q 17 71.875 26.65625 71.875 
Q 33.640625 71.875 39.421875 68.109375 
Q 45.21875 64.359375 48.21875 57.390625 
Q 51.21875 50.4375 51.21875 37.25 
Q 51.21875 23.53125 48.234375 15.40625 
Q 45.265625 7.28125 39.375 3.03125 
Q 33.5 -1.21875 25.59375 -1.21875 
Q 17.1875 -1.21875 11.859375 3.4375 
Q 6.546875 8.109375 5.46875 16.546875 
z
M 41.453125 48.140625 
Q 41.453125 55.71875 37.421875 60.15625 
Q 33.40625 64.59375 27.734375 64.59375 
Q 21.875 64.59375 17.53125 59.8125 
Q 13.1875 55.03125 13.1875 47.40625 
Q 13.1875 40.578125 17.3125 36.296875 
Q 21.4375 32.03125 27.484375 32.03125 
Q 33.59375 32.03125 37.515625 36.296875 
Q 41.453125 40.578125 41.453125 48.140625 
z
" id="ArialMT-57"/>
       <path d="M 50.34375 8.453125 
L 50.34375 0 
L 3.03125 0 
Q 2.9375 3.171875 4.046875 6.109375 
Q 5.859375 10.9375 9.828125 15.625 
Q 13.8125 20.3125 21.34375 26.46875 
Q 33.015625 36.03125 37.109375 41.625 
Q 41.21875 47.21875 41.21875 52.203125 
Q 41.21875 57.421875 37.46875 61 
Q 33.734375 64.59375 27.734375 64.59375 
Q 21.390625 64.59375 17.578125 60.78125 
Q 13.765625 56.984375 13.71875 50.25 
L 4.6875 51.171875 
Q 5.609375 61.28125 11.65625 66.578125 
Q 17.71875 71.875 27.9375 71.875 
Q 38.234375 71.875 44.234375 66.15625 
Q 50.25 60.453125 50.25 52 
Q 50.25 47.703125 48.484375 43.546875 
Q 46.734375 39.40625 42.65625 34.8125 
Q 38.578125 30.21875 29.109375 22.21875 
Q 21.1875 15.578125 18.9375 13.203125 
Q 16.703125 10.84375 15.234375 8.453125 
z
" id="ArialMT-50"/>
      </defs>
      <g style="fill:#262626;" transform="translate(198.136942 187.653594)scale(0.11 -0.11)">
       <use xlink:href="#ArialMT-55"/>
       <use x="55.615234" xlink:href="#ArialMT-57"/>
       <use x="111.230469" xlink:href="#ArialMT-50"/>
       <use x="166.845703" xlink:href="#ArialMT-48"/>
       <use x="222.460938" xlink:href="#ArialMT-48"/>
       <use x="278.076172" xlink:href="#ArialMT-48"/>
      </g>
     </g>
    </g>
    <g id="xtick_3">
     <g id="line2d_6">
      <path clip-path="url(#p775b51bf55)" d="M 359.681533 170.28 
L 359.681533 7.2 
" style="fill:none;stroke:#ffffff;stroke-linecap:round;"/>
     </g>
     <g id="line2d_7">
      <g>
       <use style="fill:#262626;stroke:#262626;stroke-width:1.25;" x="359.681533" xlink:href="#m0f414a14bf" y="170.28"/>
      </g>
     </g>
     <g id="text_3">
      <!-- 796000 -->
      <defs>
       <path d="M 49.75 54.046875 
L 41.015625 53.375 
Q 39.84375 58.546875 37.703125 60.890625 
Q 34.125 64.65625 28.90625 64.65625 
Q 24.703125 64.65625 21.53125 62.3125 
Q 17.390625 59.28125 14.984375 53.46875 
Q 12.59375 47.65625 12.5 36.921875 
Q 15.671875 41.75 20.265625 44.09375 
Q 24.859375 46.4375 29.890625 46.4375 
Q 38.671875 46.4375 44.84375 39.96875 
Q 51.03125 33.5 51.03125 23.25 
Q 51.03125 16.5 48.125 10.71875 
Q 45.21875 4.9375 40.140625 1.859375 
Q 35.0625 -1.21875 28.609375 -1.21875 
Q 17.625 -1.21875 10.6875 6.859375 
Q 3.765625 14.9375 3.765625 33.5 
Q 3.765625 54.25 11.421875 63.671875 
Q 18.109375 71.875 29.4375 71.875 
Q 37.890625 71.875 43.28125 67.140625 
Q 48.6875 62.40625 49.75 54.046875 
z
M 13.875 23.1875 
Q 13.875 18.65625 15.796875 14.5 
Q 17.71875 10.359375 21.1875 8.171875 
Q 24.65625 6 28.46875 6 
Q 34.03125 6 38.03125 10.484375 
Q 42.046875 14.984375 42.046875 22.703125 
Q 42.046875 30.125 38.078125 34.390625 
Q 34.125 38.671875 28.125 38.671875 
Q 22.171875 38.671875 18.015625 34.390625 
Q 13.875 30.125 13.875 23.1875 
z
" id="ArialMT-54"/>
      </defs>
      <g style="fill:#262626;" transform="translate(341.330439 187.653594)scale(0.11 -0.11)">
       <use xlink:href="#ArialMT-55"/>
       <use x="55.615234" xlink:href="#ArialMT-57"/>
       <use x="111.230469" xlink:href="#ArialMT-54"/>
       <use x="166.845703" xlink:href="#ArialMT-48"/>
       <use x="222.460938" xlink:href="#ArialMT-48"/>
       <use x="278.076172" xlink:href="#ArialMT-48"/>
      </g>
     </g>
    </g>
    <g id="xtick_4">
     <g id="line2d_8">
      <path clip-path="url(#p775b51bf55)" d="M 502.87503 170.28 
L 502.87503 7.2 
" style="fill:none;stroke:#ffffff;stroke-linecap:round;"/>
     </g>
     <g id="line2d_9">
      <g>
       <use style="fill:#262626;stroke:#262626;stroke-width:1.25;" x="502.87503" xlink:href="#m0f414a14bf" y="170.28"/>
      </g>
     </g>
     <g id="text_4">
      <!-- 800000 -->
      <g style="fill:#262626;" transform="translate(484.523937 187.653594)scale(0.11 -0.11)">
       <use xlink:href="#ArialMT-56"/>
       <use x="55.615234" xlink:href="#ArialMT-48"/>
       <use x="111.230469" xlink:href="#ArialMT-48"/>
       <use x="166.845703" xlink:href="#ArialMT-48"/>
       <use x="222.460938" xlink:href="#ArialMT-48"/>
       <use x="278.076172" xlink:href="#ArialMT-48"/>
      </g>
     </g>
    </g>
    <g id="xtick_5">
     <g id="line2d_10">
      <path clip-path="url(#p775b51bf55)" d="M 646.068528 170.28 
L 646.068528 7.2 
" style="fill:none;stroke:#ffffff;stroke-linecap:round;"/>
     </g>
     <g id="line2d_11">
      <g>
       <use style="fill:#262626;stroke:#262626;stroke-width:1.25;" x="646.068528" xlink:href="#m0f414a14bf" y="170.28"/>
      </g>
     </g>
     <g id="text_5">
      <!-- 804000 -->
      <defs>
       <path d="M 32.328125 0 
L 32.328125 17.140625 
L 1.265625 17.140625 
L 1.265625 25.203125 
L 33.9375 71.578125 
L 41.109375 71.578125 
L 41.109375 25.203125 
L 50.78125 25.203125 
L 50.78125 17.140625 
L 41.109375 17.140625 
L 41.109375 0 
z
M 32.328125 25.203125 
L 32.328125 57.46875 
L 9.90625 25.203125 
z
" id="ArialMT-52"/>
      </defs>
      <g style="fill:#262626;" transform="translate(627.717434 187.653594)scale(0.11 -0.11)">
       <use xlink:href="#ArialMT-56"/>
       <use x="55.615234" xlink:href="#ArialMT-48"/>
       <use x="111.230469" xlink:href="#ArialMT-52"/>
       <use x="166.845703" xlink:href="#ArialMT-48"/>
       <use x="222.460938" xlink:href="#ArialMT-48"/>
       <use x="278.076172" xlink:href="#ArialMT-48"/>
      </g>
     </g>
    </g>
    <g id="xtick_6">
     <g id="line2d_12">
      <path clip-path="url(#p775b51bf55)" d="M 789.262025 170.28 
L 789.262025 7.2 
" style="fill:none;stroke:#ffffff;stroke-linecap:round;"/>
     </g>
     <g id="line2d_13">
      <g>
       <use style="fill:#262626;stroke:#262626;stroke-width:1.25;" x="789.262025" xlink:href="#m0f414a14bf" y="170.28"/>
      </g>
     </g>
     <g id="text_6">
      <!-- 808000 -->
      <g style="fill:#262626;" transform="translate(770.910931 187.653594)scale(0.11 -0.11)">
       <use xlink:href="#ArialMT-56"/>
       <use x="55.615234" xlink:href="#ArialMT-48"/>
       <use x="111.230469" xlink:href="#ArialMT-56"/>
       <use x="166.845703" xlink:href="#ArialMT-48"/>
       <use x="222.460938" xlink:href="#ArialMT-48"/>
       <use x="278.076172" xlink:href="#ArialMT-48"/>
      </g>
     </g>
    </g>
    <g id="xtick_7">
     <g id="line2d_14">
      <path clip-path="url(#p775b51bf55)" d="M 932.455522 170.28 
L 932.455522 7.2 
" style="fill:none;stroke:#ffffff;stroke-linecap:round;"/>
     </g>
     <g id="line2d_15">
      <g>
       <use style="fill:#262626;stroke:#262626;stroke-width:1.25;" x="932.455522" xlink:href="#m0f414a14bf" y="170.28"/>
      </g>
     </g>
     <g id="text_7">
      <!-- 812000 -->
      <defs>
       <path d="M 37.25 0 
L 28.46875 0 
L 28.46875 56 
Q 25.296875 52.984375 20.140625 49.953125 
Q 14.984375 46.921875 10.890625 45.40625 
L 10.890625 53.90625 
Q 18.265625 57.375 23.78125 62.296875 
Q 29.296875 67.234375 31.59375 71.875 
L 37.25 71.875 
z
" id="ArialMT-49"/>
      </defs>
      <g style="fill:#262626;" transform="translate(914.104428 187.653594)scale(0.11 -0.11)">
       <use xlink:href="#ArialMT-56"/>
       <use x="55.615234" xlink:href="#ArialMT-49"/>
       <use x="111.230469" xlink:href="#ArialMT-50"/>
       <use x="166.845703" xlink:href="#ArialMT-48"/>
       <use x="222.460938" xlink:href="#ArialMT-48"/>
       <use x="278.076172" xlink:href="#ArialMT-48"/>
      </g>
     </g>
    </g>
    <g id="xtick_8">
     <g id="line2d_16">
      <path clip-path="url(#p775b51bf55)" d="M 1075.649019 170.28 
L 1075.649019 7.2 
" style="fill:none;stroke:#ffffff;stroke-linecap:round;"/>
     </g>
     <g id="line2d_17">
      <g>
       <use style="fill:#262626;stroke:#262626;stroke-width:1.25;" x="1075.649019" xlink:href="#m0f414a14bf" y="170.28"/>
      </g>
     </g>
     <g id="text_8">
      <!-- 816000 -->
      <g style="fill:#262626;" transform="translate(1057.297926 187.653594)scale(0.11 -0.11)">
       <use xlink:href="#ArialMT-56"/>
       <use x="55.615234" xlink:href="#ArialMT-49"/>
       <use x="111.230469" xlink:href="#ArialMT-54"/>
       <use x="166.845703" xlink:href="#ArialMT-48"/>
       <use x="222.460938" xlink:href="#ArialMT-48"/>
       <use x="278.076172" xlink:href="#ArialMT-48"/>
      </g>
     </g>
    </g>
   </g>
   <g id="line2d_18">
    <path clip-path="url(#p775b51bf55)" d="M 64.792425 88.74 
L 64.792425 143.1 
" style="fill:none;stroke:#1a1a1a;stroke-linecap:round;stroke-width:0.5;"/>
   </g>
   <g id="line2d_19">
    <path clip-path="url(#p775b51bf55)" d="M 89.922883 61.56 
L 89.922883 143.1 
" style="fill:none;stroke:#1a1a1a;stroke-linecap:round;stroke-width:0.5;"/>
   </g>
   <g id="line2d_20">
    <path clip-path="url(#p775b51bf55)" d="M 128.424035 34.38 
L 128.424035 143.1 
" style="fill:none;stroke:#1a1a1a;stroke-linecap:round;stroke-width:0.5;"/>
   </g>
   <g id="line2d_21">
    <path clip-path="url(#p775b51bf55)" d="M 162.146104 88.74 
L 162.146104 143.1 
" style="fill:none;stroke:#1a1a1a;stroke-linecap:round;stroke-width:0.5;"/>
   </g>
   <g id="line2d_22">
    <path clip-path="url(#p775b51bf55)" d="M 205.444237 61.56 
L 205.444237 143.1 
" style="fill:none;stroke:#1a1a1a;stroke-linecap:round;stroke-width:0.5;"/>
   </g>
   <g id="line2d_23">
    <path clip-path="url(#p775b51bf55)" d="M 247.954807 34.38 
L 247.954807 115.92 
" style="fill:none;stroke:#1a1a1a;stroke-linecap:round;stroke-width:0.5;"/>
   </g>
   <g id="line2d_24">
    <path clip-path="url(#p775b51bf55)" d="M 309.778599 88.74 
L 309.778599 143.1 
" style="fill:none;stroke:#1a1a1a;stroke-linecap:round;stroke-width:0.5;"/>
   </g>
   <g id="line2d_25">
    <path clip-path="url(#p775b51bf55)" d="M 414.721534 88.74 
L 414.721534 143.1 
" style="fill:none;stroke:#1a1a1a;stroke-linecap:round;stroke-width:0.5;"/>
   </g>
   <g id="line2d_26">
    <path clip-path="url(#p775b51bf55)" d="M 490.596188 61.56 
L 490.596188 143.1 
" style="fill:none;stroke:#1a1a1a;stroke-linecap:round;stroke-width:0.5;"/>
   </g>
   <g id="line2d_27">
    <path clip-path="url(#p775b51bf55)" d="M 545.457197 88.74 
L 545.457197 143.1 
" style="fill:none;stroke:#1a1a1a;stroke-linecap:round;stroke-width:0.5;"/>
   </g>
   <g id="line2d_28">
    <path clip-path="url(#p775b51bf55)" d="M 623.390257 61.56 
L 623.390257 143.1 
" style="fill:none;stroke:#1a1a1a;stroke-linecap:round;stroke-width:0.5;"/>
   </g>
   <g id="line2d_29">
    <path clip-path="url(#p775b51bf55)" d="M 652.422739 88.74 
L 652.422739 143.1 
" style="fill:none;stroke:#1a1a1a;stroke-linecap:round;stroke-width:0.5;"/>
   </g>
   <g id="line2d_30">
    <path clip-path="url(#p775b51bf55)" d="M 710.219214 34.38 
L 710.219214 143.1 
" style="fill:none;stroke:#1a1a1a;stroke-linecap:round;stroke-width:0.5;"/>
   </g>
   <g id="line2d_31">
    <path clip-path="url(#p775b51bf55)" d="M 782.961511 88.74 
L 782.961511 143.1 
" style="fill:none;stroke:#1a1a1a;stroke-linecap:round;stroke-width:0.5;"/>
   </g>
   <g id="line2d_32">
    <path clip-path="url(#p775b51bf55)" d="M 814.24929 61.56 
L 814.24929 143.1 
" style="fill:none;stroke:#1a1a1a;stroke-linecap:round;stroke-width:0.5;"/>
   </g>
   <g id="line2d_33">
    <path clip-path="url(#p775b51bf55)" d="M 880.261492 88.74 
L 880.261492 143.1 
" style="fill:none;stroke:#1a1a1a;stroke-linecap:round;stroke-width:0.5;"/>
   </g>
   <g id="line2d_34">
    <path clip-path="url(#p775b51bf55)" d="M 952.824797 61.56 
L 952.824797 143.1 
" style="fill:none;stroke:#1a1a1a;stroke-linecap:round;stroke-width:0.5;"/>
   </g>
   <g id="line2d_35">
    <path clip-path="url(#p775b51bf55)" d="M 994.869988 88.74 
L 994.869988 143.1 
" style="fill:none;stroke:#1a1a1a;stroke-linecap:round;stroke-width:0.5;"/>
   </g>
   <g id="line2d_36">
    <path clip-path="url(#p775b51bf55)" d="M 1015.364557 34.38 
L 1015.364557 143.1 
" style="fill:none;stroke:#1a1a1a;stroke-linecap:round;stroke-width:0.5;"/>
   </g>
   <g id="line2d_37">
    <path clip-path="url(#p775b51bf55)" d="M 1052.863354 61.56 
L 1052.863354 143.1 
" style="fill:none;stroke:#1a1a1a;stroke-linecap:round;stroke-width:0.5;"/>
   </g>
   <g id="text_9">
    <g id="patch_22">
     <path d="M 30.853987 97.136953 
L 98.730862 97.136953 
Q 102.030862 97.136953 102.030862 93.836953 
L 102.030862 83.643047 
Q 102.030862 80.343047 98.730862 80.343047 
L 30.853987 80.343047 
Q 27.553987 80.343047 27.553987 83.643047 
L 27.553987 93.836953 
Q 27.553987 97.136953 30.853987 97.136953 
z
" style="fill:#ffffff;stroke:#808080;stroke-linejoin:miter;"/>
    </g>
    <!-- MASE_03470 -->
    <defs>
     <path d="M 7.421875 0 
L 7.421875 71.578125 
L 21.6875 71.578125 
L 38.625 20.90625 
Q 40.96875 13.8125 42.046875 10.296875 
Q 43.265625 14.203125 45.84375 21.78125 
L 62.984375 71.578125 
L 75.734375 71.578125 
L 75.734375 0 
L 66.609375 0 
L 66.609375 59.90625 
L 45.796875 0 
L 37.25 0 
L 16.546875 60.9375 
L 16.546875 0 
z
" id="ArialMT-77"/>
     <path d="M -0.140625 0 
L 27.34375 71.578125 
L 37.546875 71.578125 
L 66.84375 0 
L 56.0625 0 
L 47.703125 21.6875 
L 17.78125 21.6875 
L 9.90625 0 
z
M 20.515625 29.390625 
L 44.78125 29.390625 
L 37.3125 49.21875 
Q 33.890625 58.25 32.234375 64.0625 
Q 30.859375 57.171875 28.375 50.390625 
z
" id="ArialMT-65"/>
     <path d="M 4.5 23 
L 13.421875 23.78125 
Q 14.0625 18.40625 16.375 14.96875 
Q 18.703125 11.53125 23.578125 9.40625 
Q 28.46875 7.28125 34.578125 7.28125 
Q 39.984375 7.28125 44.140625 8.890625 
Q 48.296875 10.5 50.3125 13.296875 
Q 52.34375 16.109375 52.34375 19.4375 
Q 52.34375 22.796875 50.390625 25.3125 
Q 48.4375 27.828125 43.953125 29.546875 
Q 41.0625 30.671875 31.203125 33.03125 
Q 21.34375 35.40625 17.390625 37.5 
Q 12.25 40.1875 9.734375 44.15625 
Q 7.234375 48.140625 7.234375 53.078125 
Q 7.234375 58.5 10.296875 63.203125 
Q 13.375 67.921875 19.28125 70.359375 
Q 25.203125 72.796875 32.421875 72.796875 
Q 40.375 72.796875 46.453125 70.234375 
Q 52.546875 67.671875 55.8125 62.6875 
Q 59.078125 57.71875 59.328125 51.421875 
L 50.25 50.734375 
Q 49.515625 57.515625 45.28125 60.984375 
Q 41.0625 64.453125 32.8125 64.453125 
Q 24.21875 64.453125 20.28125 61.296875 
Q 16.359375 58.15625 16.359375 53.71875 
Q 16.359375 49.859375 19.140625 47.359375 
Q 21.875 44.875 33.421875 42.265625 
Q 44.96875 39.65625 49.265625 37.703125 
Q 55.515625 34.8125 58.484375 30.390625 
Q 61.46875 25.984375 61.46875 20.21875 
Q 61.46875 14.5 58.203125 9.4375 
Q 54.9375 4.390625 48.796875 1.578125 
Q 42.671875 -1.21875 35.015625 -1.21875 
Q 25.296875 -1.21875 18.71875 1.609375 
Q 12.15625 4.4375 8.421875 10.125 
Q 4.6875 15.828125 4.5 23 
z
" id="ArialMT-83"/>
     <path d="M 7.90625 0 
L 7.90625 71.578125 
L 59.671875 71.578125 
L 59.671875 63.140625 
L 17.390625 63.140625 
L 17.390625 41.21875 
L 56.984375 41.21875 
L 56.984375 32.8125 
L 17.390625 32.8125 
L 17.390625 8.453125 
L 61.328125 8.453125 
L 61.328125 0 
z
" id="ArialMT-69"/>
     <path d="M -1.515625 -19.875 
L -1.515625 -13.53125 
L 56.734375 -13.53125 
L 56.734375 -19.875 
z
" id="ArialMT-95"/>
     <path d="M 4.203125 18.890625 
L 12.984375 20.0625 
Q 14.5 12.59375 18.140625 9.296875 
Q 21.78125 6 27 6 
Q 33.203125 6 37.46875 10.296875 
Q 41.75 14.59375 41.75 20.953125 
Q 41.75 27 37.796875 30.921875 
Q 33.84375 34.859375 27.734375 34.859375 
Q 25.25 34.859375 21.53125 33.890625 
L 22.515625 41.609375 
Q 23.390625 41.5 23.921875 41.5 
Q 29.546875 41.5 34.03125 44.421875 
Q 38.53125 47.359375 38.53125 53.46875 
Q 38.53125 58.296875 35.25 61.46875 
Q 31.984375 64.65625 26.8125 64.65625 
Q 21.6875 64.65625 18.265625 61.421875 
Q 14.84375 58.203125 13.875 51.765625 
L 5.078125 53.328125 
Q 6.6875 62.15625 12.390625 67.015625 
Q 18.109375 71.875 26.609375 71.875 
Q 32.46875 71.875 37.390625 69.359375 
Q 42.328125 66.84375 44.9375 62.5 
Q 47.5625 58.15625 47.5625 53.265625 
Q 47.5625 48.640625 45.0625 44.828125 
Q 42.578125 41.015625 37.703125 38.765625 
Q 44.046875 37.3125 47.5625 32.6875 
Q 51.078125 28.078125 51.078125 21.140625 
Q 51.078125 11.765625 44.234375 5.25 
Q 37.40625 -1.265625 26.953125 -1.265625 
Q 17.53125 -1.265625 11.296875 4.34375 
Q 5.078125 9.96875 4.203125 18.890625 
z
" id="ArialMT-51"/>
    </defs>
    <g style="fill:#262626;" transform="translate(30.853987 91.650703)scale(0.11 -0.11)">
     <use xlink:href="#ArialMT-77"/>
     <use x="83.300781" xlink:href="#ArialMT-65"/>
     <use x="150" xlink:href="#ArialMT-83"/>
     <use x="216.699219" xlink:href="#ArialMT-69"/>
     <use x="283.398438" xlink:href="#ArialMT-95"/>
     <use x="339.013672" xlink:href="#ArialMT-48"/>
     <use x="394.628906" xlink:href="#ArialMT-51"/>
     <use x="450.244141" xlink:href="#ArialMT-52"/>
     <use x="505.859375" xlink:href="#ArialMT-55"/>
     <use x="561.474609" xlink:href="#ArialMT-48"/>
    </g>
   </g>
   <g id="text_10">
    <g id="patch_23">
     <path d="M 55.984446 69.956953 
L 123.861321 69.956953 
Q 127.161321 69.956953 127.161321 66.656953 
L 127.161321 56.463047 
Q 127.161321 53.163047 123.861321 53.163047 
L 55.984446 53.163047 
Q 52.684446 53.163047 52.684446 56.463047 
L 52.684446 66.656953 
Q 52.684446 69.956953 55.984446 69.956953 
z
" style="fill:#ffffff;stroke:#808080;stroke-linejoin:miter;"/>
    </g>
    <!-- MASE_03475 -->
    <defs>
     <path d="M 4.15625 18.75 
L 13.375 19.53125 
Q 14.40625 12.796875 18.140625 9.390625 
Q 21.875 6 27.15625 6 
Q 33.5 6 37.890625 10.78125 
Q 42.28125 15.578125 42.28125 23.484375 
Q 42.28125 31 38.0625 35.34375 
Q 33.84375 39.703125 27 39.703125 
Q 22.75 39.703125 19.328125 37.765625 
Q 15.921875 35.84375 13.96875 32.765625 
L 5.71875 33.84375 
L 12.640625 70.609375 
L 48.25 70.609375 
L 48.25 62.203125 
L 19.671875 62.203125 
L 15.828125 42.96875 
Q 22.265625 47.46875 29.34375 47.46875 
Q 38.71875 47.46875 45.15625 40.96875 
Q 51.609375 34.46875 51.609375 24.265625 
Q 51.609375 14.546875 45.953125 7.46875 
Q 39.0625 -1.21875 27.15625 -1.21875 
Q 17.390625 -1.21875 11.203125 4.25 
Q 5.03125 9.71875 4.15625 18.75 
z
" id="ArialMT-53"/>
    </defs>
    <g style="fill:#262626;" transform="translate(55.984446 64.470703)scale(0.11 -0.11)">
     <use xlink:href="#ArialMT-77"/>
     <use x="83.300781" xlink:href="#ArialMT-65"/>
     <use x="150" xlink:href="#ArialMT-83"/>
     <use x="216.699219" xlink:href="#ArialMT-69"/>
     <use x="283.398438" xlink:href="#ArialMT-95"/>
     <use x="339.013672" xlink:href="#ArialMT-48"/>
     <use x="394.628906" xlink:href="#ArialMT-51"/>
     <use x="450.244141" xlink:href="#ArialMT-52"/>
     <use x="505.859375" xlink:href="#ArialMT-55"/>
     <use x="561.474609" xlink:href="#ArialMT-53"/>
    </g>
   </g>
   <g id="text_11">
    <g id="patch_24">
     <path d="M 94.485597 42.776953 
L 162.362472 42.776953 
Q 165.662472 42.776953 165.662472 39.476953 
L 165.662472 29.283047 
Q 165.662472 25.983047 162.362472 25.983047 
L 94.485597 25.983047 
Q 91.185597 25.983047 91.185597 29.283047 
L 91.185597 39.476953 
Q 91.185597 42.776953 94.485597 42.776953 
z
" style="fill:#ffffff;stroke:#808080;stroke-linejoin:miter;"/>
    </g>
    <!-- MASE_03480 -->
    <g style="fill:#262626;" transform="translate(94.485597 37.290703)scale(0.11 -0.11)">
     <use xlink:href="#ArialMT-77"/>
     <use x="83.300781" xlink:href="#ArialMT-65"/>
     <use x="150" xlink:href="#ArialMT-83"/>
     <use x="216.699219" xlink:href="#ArialMT-69"/>
     <use x="283.398438" xlink:href="#ArialMT-95"/>
     <use x="339.013672" xlink:href="#ArialMT-48"/>
     <use x="394.628906" xlink:href="#ArialMT-51"/>
     <use x="450.244141" xlink:href="#ArialMT-52"/>
     <use x="505.859375" xlink:href="#ArialMT-56"/>
     <use x="561.474609" xlink:href="#ArialMT-48"/>
    </g>
   </g>
   <g id="text_12">
    <g id="patch_25">
     <path d="M 128.207666 97.136953 
L 196.084541 97.136953 
Q 199.384541 97.136953 199.384541 93.836953 
L 199.384541 83.643047 
Q 199.384541 80.343047 196.084541 80.343047 
L 128.207666 80.343047 
Q 124.907666 80.343047 124.907666 83.643047 
L 124.907666 93.836953 
Q 124.907666 97.136953 128.207666 97.136953 
z
" style="fill:#ffffff;stroke:#808080;stroke-linejoin:miter;"/>
    </g>
    <!-- MASE_03485 -->
    <g style="fill:#262626;" transform="translate(128.207666 91.650703)scale(0.11 -0.11)">
     <use xlink:href="#ArialMT-77"/>
     <use x="83.300781" xlink:href="#ArialMT-65"/>
     <use x="150" xlink:href="#ArialMT-83"/>
     <use x="216.699219" xlink:href="#ArialMT-69"/>
     <use x="283.398438" xlink:href="#ArialMT-95"/>
     <use x="339.013672" xlink:href="#ArialMT-48"/>
     <use x="394.628906" xlink:href="#ArialMT-51"/>
     <use x="450.244141" xlink:href="#ArialMT-52"/>
     <use x="505.859375" xlink:href="#ArialMT-56"/>
     <use x="561.474609" xlink:href="#ArialMT-53"/>
    </g>
   </g>
   <g id="text_13">
    <g id="patch_26">
     <path d="M 171.5058 69.956953 
L 239.382675 69.956953 
Q 242.682675 69.956953 242.682675 66.656953 
L 242.682675 56.463047 
Q 242.682675 53.163047 239.382675 53.163047 
L 171.5058 53.163047 
Q 168.2058 53.163047 168.2058 56.463047 
L 168.2058 66.656953 
Q 168.2058 69.956953 171.5058 69.956953 
z
" style="fill:#ffffff;stroke:#808080;stroke-linejoin:miter;"/>
    </g>
    <!-- MASE_03490 -->
    <g style="fill:#262626;" transform="translate(171.5058 64.470703)scale(0.11 -0.11)">
     <use xlink:href="#ArialMT-77"/>
     <use x="83.300781" xlink:href="#ArialMT-65"/>
     <use x="150" xlink:href="#ArialMT-83"/>
     <use x="216.699219" xlink:href="#ArialMT-69"/>
     <use x="283.398438" xlink:href="#ArialMT-95"/>
     <use x="339.013672" xlink:href="#ArialMT-48"/>
     <use x="394.628906" xlink:href="#ArialMT-51"/>
     <use x="450.244141" xlink:href="#ArialMT-52"/>
     <use x="505.859375" xlink:href="#ArialMT-57"/>
     <use x="561.474609" xlink:href="#ArialMT-48"/>
    </g>
   </g>
   <g id="text_14">
    <g id="patch_27">
     <path d="M 214.016369 42.776953 
L 281.893244 42.776953 
Q 285.193244 42.776953 285.193244 39.476953 
L 285.193244 29.283047 
Q 285.193244 25.983047 281.893244 25.983047 
L 214.016369 25.983047 
Q 210.716369 25.983047 210.716369 29.283047 
L 210.716369 39.476953 
Q 210.716369 42.776953 214.016369 42.776953 
z
" style="fill:#ffffff;stroke:#808080;stroke-linejoin:miter;"/>
    </g>
    <!-- MASE_03495 -->
    <g style="fill:#262626;" transform="translate(214.016369 37.290703)scale(0.11 -0.11)">
     <use xlink:href="#ArialMT-77"/>
     <use x="83.300781" xlink:href="#ArialMT-65"/>
     <use x="150" xlink:href="#ArialMT-83"/>
     <use x="216.699219" xlink:href="#ArialMT-69"/>
     <use x="283.398438" xlink:href="#ArialMT-95"/>
     <use x="339.013672" xlink:href="#ArialMT-48"/>
     <use x="394.628906" xlink:href="#ArialMT-51"/>
     <use x="450.244141" xlink:href="#ArialMT-52"/>
     <use x="505.859375" xlink:href="#ArialMT-57"/>
     <use x="561.474609" xlink:href="#ArialMT-53"/>
    </g>
   </g>
   <g id="text_15">
    <g id="patch_28">
     <path d="M 275.840162 97.136953 
L 343.717037 97.136953 
Q 347.017037 97.136953 347.017037 93.836953 
L 347.017037 83.643047 
Q 347.017037 80.343047 343.717037 80.343047 
L 275.840162 80.343047 
Q 272.540162 80.343047 272.540162 83.643047 
L 272.540162 93.836953 
Q 272.540162 97.136953 275.840162 97.136953 
z
" style="fill:#ffffff;stroke:#808080;stroke-linejoin:miter;"/>
    </g>
    <!-- MASE_03500 -->
    <g style="fill:#262626;" transform="translate(275.840162 91.650703)scale(0.11 -0.11)">
     <use xlink:href="#ArialMT-77"/>
     <use x="83.300781" xlink:href="#ArialMT-65"/>
     <use x="150" xlink:href="#ArialMT-83"/>
     <use x="216.699219" xlink:href="#ArialMT-69"/>
     <use x="283.398438" xlink:href="#ArialMT-95"/>
     <use x="339.013672" xlink:href="#ArialMT-48"/>
     <use x="394.628906" xlink:href="#ArialMT-51"/>
     <use x="450.244141" xlink:href="#ArialMT-53"/>
     <use x="505.859375" xlink:href="#ArialMT-48"/>
     <use x="561.474609" xlink:href="#ArialMT-48"/>
    </g>
   </g>
   <g id="text_16">
    <g id="patch_29">
     <path d="M 380.783096 97.136953 
L 448.659971 97.136953 
Q 451.959971 97.136953 451.959971 93.836953 
L 451.959971 83.643047 
Q 451.959971 80.343047 448.659971 80.343047 
L 380.783096 80.343047 
Q 377.483096 80.343047 377.483096 83.643047 
L 377.483096 93.836953 
Q 377.483096 97.136953 380.783096 97.136953 
z
" style="fill:#ffffff;stroke:#808080;stroke-linejoin:miter;"/>
    </g>
    <!-- MASE_03505 -->
    <g style="fill:#262626;" transform="translate(380.783096 91.650703)scale(0.11 -0.11)">
     <use xlink:href="#ArialMT-77"/>
     <use x="83.300781" xlink:href="#ArialMT-65"/>
     <use x="150" xlink:href="#ArialMT-83"/>
     <use x="216.699219" xlink:href="#ArialMT-69"/>
     <use x="283.398438" xlink:href="#ArialMT-95"/>
     <use x="339.013672" xlink:href="#ArialMT-48"/>
     <use x="394.628906" xlink:href="#ArialMT-51"/>
     <use x="450.244141" xlink:href="#ArialMT-53"/>
     <use x="505.859375" xlink:href="#ArialMT-48"/>
     <use x="561.474609" xlink:href="#ArialMT-53"/>
    </g>
   </g>
   <g id="text_17">
    <g id="patch_30">
     <path d="M 456.65775 69.956953 
L 524.534625 69.956953 
Q 527.834625 69.956953 527.834625 66.656953 
L 527.834625 56.463047 
Q 527.834625 53.163047 524.534625 53.163047 
L 456.65775 53.163047 
Q 453.35775 53.163047 453.35775 56.463047 
L 453.35775 66.656953 
Q 453.35775 69.956953 456.65775 69.956953 
z
" style="fill:#ffffff;stroke:#808080;stroke-linejoin:miter;"/>
    </g>
    <!-- MASE_03510 -->
    <g style="fill:#262626;" transform="translate(456.65775 64.470703)scale(0.11 -0.11)">
     <use xlink:href="#ArialMT-77"/>
     <use x="83.300781" xlink:href="#ArialMT-65"/>
     <use x="150" xlink:href="#ArialMT-83"/>
     <use x="216.699219" xlink:href="#ArialMT-69"/>
     <use x="283.398438" xlink:href="#ArialMT-95"/>
     <use x="339.013672" xlink:href="#ArialMT-48"/>
     <use x="394.628906" xlink:href="#ArialMT-51"/>
     <use x="450.244141" xlink:href="#ArialMT-53"/>
     <use x="505.859375" xlink:href="#ArialMT-49"/>
     <use x="561.474609" xlink:href="#ArialMT-48"/>
    </g>
   </g>
   <g id="text_18">
    <g id="patch_31">
     <path d="M 511.518759 97.136953 
L 579.395634 97.136953 
Q 582.695634 97.136953 582.695634 93.836953 
L 582.695634 83.643047 
Q 582.695634 80.343047 579.395634 80.343047 
L 511.518759 80.343047 
Q 508.218759 80.343047 508.218759 83.643047 
L 508.218759 93.836953 
Q 508.218759 97.136953 511.518759 97.136953 
z
" style="fill:#ffffff;stroke:#808080;stroke-linejoin:miter;"/>
    </g>
    <!-- MASE_03515 -->
    <g style="fill:#262626;" transform="translate(511.518759 91.650703)scale(0.11 -0.11)">
     <use xlink:href="#ArialMT-77"/>
     <use x="83.300781" xlink:href="#ArialMT-65"/>
     <use x="150" xlink:href="#ArialMT-83"/>
     <use x="216.699219" xlink:href="#ArialMT-69"/>
     <use x="283.398438" xlink:href="#ArialMT-95"/>
     <use x="339.013672" xlink:href="#ArialMT-48"/>
     <use x="394.628906" xlink:href="#ArialMT-51"/>
     <use x="450.244141" xlink:href="#ArialMT-53"/>
     <use x="505.859375" xlink:href="#ArialMT-49"/>
     <use x="561.474609" xlink:href="#ArialMT-53"/>
    </g>
   </g>
   <g id="text_19">
    <g id="patch_32">
     <path d="M 589.45182 69.956953 
L 657.328695 69.956953 
Q 660.628695 69.956953 660.628695 66.656953 
L 660.628695 56.463047 
Q 660.628695 53.163047 657.328695 53.163047 
L 589.45182 53.163047 
Q 586.15182 53.163047 586.15182 56.463047 
L 586.15182 66.656953 
Q 586.15182 69.956953 589.45182 69.956953 
z
" style="fill:#ffffff;stroke:#808080;stroke-linejoin:miter;"/>
    </g>
    <!-- MASE_03520 -->
    <g style="fill:#262626;" transform="translate(589.45182 64.470703)scale(0.11 -0.11)">
     <use xlink:href="#ArialMT-77"/>
     <use x="83.300781" xlink:href="#ArialMT-65"/>
     <use x="150" xlink:href="#ArialMT-83"/>
     <use x="216.699219" xlink:href="#ArialMT-69"/>
     <use x="283.398438" xlink:href="#ArialMT-95"/>
     <use x="339.013672" xlink:href="#ArialMT-48"/>
     <use x="394.628906" xlink:href="#ArialMT-51"/>
     <use x="450.244141" xlink:href="#ArialMT-53"/>
     <use x="505.859375" xlink:href="#ArialMT-50"/>
     <use x="561.474609" xlink:href="#ArialMT-48"/>
    </g>
   </g>
   <g id="text_20">
    <g id="patch_33">
     <path d="M 618.484302 97.136953 
L 686.361177 97.136953 
Q 689.661177 97.136953 689.661177 93.836953 
L 689.661177 83.643047 
Q 689.661177 80.343047 686.361177 80.343047 
L 618.484302 80.343047 
Q 615.184302 80.343047 615.184302 83.643047 
L 615.184302 93.836953 
Q 615.184302 97.136953 618.484302 97.136953 
z
" style="fill:#ffffff;stroke:#808080;stroke-linejoin:miter;"/>
    </g>
    <!-- MASE_03525 -->
    <g style="fill:#262626;" transform="translate(618.484302 91.650703)scale(0.11 -0.11)">
     <use xlink:href="#ArialMT-77"/>
     <use x="83.300781" xlink:href="#ArialMT-65"/>
     <use x="150" xlink:href="#ArialMT-83"/>
     <use x="216.699219" xlink:href="#ArialMT-69"/>
     <use x="283.398438" xlink:href="#ArialMT-95"/>
     <use x="339.013672" xlink:href="#ArialMT-48"/>
     <use x="394.628906" xlink:href="#ArialMT-51"/>
     <use x="450.244141" xlink:href="#ArialMT-53"/>
     <use x="505.859375" xlink:href="#ArialMT-50"/>
     <use x="561.474609" xlink:href="#ArialMT-53"/>
    </g>
   </g>
   <g id="text_21">
    <g id="patch_34">
     <path d="M 676.280777 42.776953 
L 744.157652 42.776953 
Q 747.457652 42.776953 747.457652 39.476953 
L 747.457652 29.283047 
Q 747.457652 25.983047 744.157652 25.983047 
L 676.280777 25.983047 
Q 672.980777 25.983047 672.980777 29.283047 
L 672.980777 39.476953 
Q 672.980777 42.776953 676.280777 42.776953 
z
" style="fill:#ffecec;stroke:#808080;stroke-linejoin:miter;"/>
    </g>
    <!-- MASE_03530 -->
    <g style="fill:#262626;" transform="translate(676.280777 37.290703)scale(0.11 -0.11)">
     <use xlink:href="#ArialMT-77"/>
     <use x="83.300781" xlink:href="#ArialMT-65"/>
     <use x="150" xlink:href="#ArialMT-83"/>
     <use x="216.699219" xlink:href="#ArialMT-69"/>
     <use x="283.398438" xlink:href="#ArialMT-95"/>
     <use x="339.013672" xlink:href="#ArialMT-48"/>
     <use x="394.628906" xlink:href="#ArialMT-51"/>
     <use x="450.244141" xlink:href="#ArialMT-53"/>
     <use x="505.859375" xlink:href="#ArialMT-51"/>
     <use x="561.474609" xlink:href="#ArialMT-48"/>
    </g>
   </g>
   <g id="text_22">
    <g id="patch_35">
     <path d="M 749.023073 97.136953 
L 816.899948 97.136953 
Q 820.199948 97.136953 820.199948 93.836953 
L 820.199948 83.643047 
Q 820.199948 80.343047 816.899948 80.343047 
L 749.023073 80.343047 
Q 745.723073 80.343047 745.723073 83.643047 
L 745.723073 93.836953 
Q 745.723073 97.136953 749.023073 97.136953 
z
" style="fill:#ffffff;stroke:#808080;stroke-linejoin:miter;"/>
    </g>
    <!-- MASE_03535 -->
    <g style="fill:#262626;" transform="translate(749.023073 91.650703)scale(0.11 -0.11)">
     <use xlink:href="#ArialMT-77"/>
     <use x="83.300781" xlink:href="#ArialMT-65"/>
     <use x="150" xlink:href="#ArialMT-83"/>
     <use x="216.699219" xlink:href="#ArialMT-69"/>
     <use x="283.398438" xlink:href="#ArialMT-95"/>
     <use x="339.013672" xlink:href="#ArialMT-48"/>
     <use x="394.628906" xlink:href="#ArialMT-51"/>
     <use x="450.244141" xlink:href="#ArialMT-53"/>
     <use x="505.859375" xlink:href="#ArialMT-51"/>
     <use x="561.474609" xlink:href="#ArialMT-53"/>
    </g>
   </g>
   <g id="text_23">
    <g id="patch_36">
     <path d="M 780.310853 69.956953 
L 848.187728 69.956953 
Q 851.487728 69.956953 851.487728 66.656953 
L 851.487728 56.463047 
Q 851.487728 53.163047 848.187728 53.163047 
L 780.310853 53.163047 
Q 777.010853 53.163047 777.010853 56.463047 
L 777.010853 66.656953 
Q 777.010853 69.956953 780.310853 69.956953 
z
" style="fill:#ffffff;stroke:#808080;stroke-linejoin:miter;"/>
    </g>
    <!-- MASE_03540 -->
    <g style="fill:#262626;" transform="translate(780.310853 64.470703)scale(0.11 -0.11)">
     <use xlink:href="#ArialMT-77"/>
     <use x="83.300781" xlink:href="#ArialMT-65"/>
     <use x="150" xlink:href="#ArialMT-83"/>
     <use x="216.699219" xlink:href="#ArialMT-69"/>
     <use x="283.398438" xlink:href="#ArialMT-95"/>
     <use x="339.013672" xlink:href="#ArialMT-48"/>
     <use x="394.628906" xlink:href="#ArialMT-51"/>
     <use x="450.244141" xlink:href="#ArialMT-53"/>
     <use x="505.859375" xlink:href="#ArialMT-52"/>
     <use x="561.474609" xlink:href="#ArialMT-48"/>
    </g>
   </g>
   <g id="text_24">
    <g id="patch_37">
     <path d="M 846.323055 97.136953 
L 914.19993 97.136953 
Q 917.49993 97.136953 917.49993 93.836953 
L 917.49993 83.643047 
Q 917.49993 80.343047 914.19993 80.343047 
L 846.323055 80.343047 
Q 843.023055 80.343047 843.023055 83.643047 
L 843.023055 93.836953 
Q 843.023055 97.136953 846.323055 97.136953 
z
" style="fill:#ffffff;stroke:#808080;stroke-linejoin:miter;"/>
    </g>
    <!-- MASE_03545 -->
    <g style="fill:#262626;" transform="translate(846.323055 91.650703)scale(0.11 -0.11)">
     <use xlink:href="#ArialMT-77"/>
     <use x="83.300781" xlink:href="#ArialMT-65"/>
     <use x="150" xlink:href="#ArialMT-83"/>
     <use x="216.699219" xlink:href="#ArialMT-69"/>
     <use x="283.398438" xlink:href="#ArialMT-95"/>
     <use x="339.013672" xlink:href="#ArialMT-48"/>
     <use x="394.628906" xlink:href="#ArialMT-51"/>
     <use x="450.244141" xlink:href="#ArialMT-53"/>
     <use x="505.859375" xlink:href="#ArialMT-52"/>
     <use x="561.474609" xlink:href="#ArialMT-53"/>
    </g>
   </g>
   <g id="text_25">
    <g id="patch_38">
     <path d="M 918.88636 69.956953 
L 986.763235 69.956953 
Q 990.063235 69.956953 990.063235 66.656953 
L 990.063235 56.463047 
Q 990.063235 53.163047 986.763235 53.163047 
L 918.88636 53.163047 
Q 915.58636 53.163047 915.58636 56.463047 
L 915.58636 66.656953 
Q 915.58636 69.956953 918.88636 69.956953 
z
" style="fill:#ffffff;stroke:#808080;stroke-linejoin:miter;"/>
    </g>
    <!-- MASE_03550 -->
    <g style="fill:#262626;" transform="translate(918.88636 64.470703)scale(0.11 -0.11)">
     <use xlink:href="#ArialMT-77"/>
     <use x="83.300781" xlink:href="#ArialMT-65"/>
     <use x="150" xlink:href="#ArialMT-83"/>
     <use x="216.699219" xlink:href="#ArialMT-69"/>
     <use x="283.398438" xlink:href="#ArialMT-95"/>
     <use x="339.013672" xlink:href="#ArialMT-48"/>
     <use x="394.628906" xlink:href="#ArialMT-51"/>
     <use x="450.244141" xlink:href="#ArialMT-53"/>
     <use x="505.859375" xlink:href="#ArialMT-53"/>
     <use x="561.474609" xlink:href="#ArialMT-48"/>
    </g>
   </g>
   <g id="text_26">
    <g id="patch_39">
     <path d="M 960.93155 97.136953 
L 1028.808425 97.136953 
Q 1032.108425 97.136953 1032.108425 93.836953 
L 1032.108425 83.643047 
Q 1032.108425 80.343047 1028.808425 80.343047 
L 960.93155 80.343047 
Q 957.63155 80.343047 957.63155 83.643047 
L 957.63155 93.836953 
Q 957.63155 97.136953 960.93155 97.136953 
z
" style="fill:#ffffff;stroke:#808080;stroke-linejoin:miter;"/>
    </g>
    <!-- MASE_03555 -->
    <g style="fill:#262626;" transform="translate(960.93155 91.650703)scale(0.11 -0.11)">
     <use xlink:href="#ArialMT-77"/>
     <use x="83.300781" xlink:href="#ArialMT-65"/>
     <use x="150" xlink:href="#ArialMT-83"/>
     <use x="216.699219" xlink:href="#ArialMT-69"/>
     <use x="283.398438" xlink:href="#ArialMT-95"/>
     <use x="339.013672" xlink:href="#ArialMT-48"/>
     <use x="394.628906" xlink:href="#ArialMT-51"/>
     <use x="450.244141" xlink:href="#ArialMT-53"/>
     <use x="505.859375" xlink:href="#ArialMT-53"/>
     <use x="561.474609" xlink:href="#ArialMT-53"/>
    </g>
   </g>
   <g id="text_27">
    <g id="patch_40">
     <path d="M 981.42612 42.776953 
L 1049.302995 42.776953 
Q 1052.602995 42.776953 1052.602995 39.476953 
L 1052.602995 29.283047 
Q 1052.602995 25.983047 1049.302995 25.983047 
L 981.42612 25.983047 
Q 978.12612 25.983047 978.12612 29.283047 
L 978.12612 39.476953 
Q 978.12612 42.776953 981.42612 42.776953 
z
" style="fill:#ffffff;stroke:#808080;stroke-linejoin:miter;"/>
    </g>
    <!-- MASE_03560 -->
    <g style="fill:#262626;" transform="translate(981.42612 37.290703)scale(0.11 -0.11)">
     <use xlink:href="#ArialMT-77"/>
     <use x="83.300781" xlink:href="#ArialMT-65"/>
     <use x="150" xlink:href="#ArialMT-83"/>
     <use x="216.699219" xlink:href="#ArialMT-69"/>
     <use x="283.398438" xlink:href="#ArialMT-95"/>
     <use x="339.013672" xlink:href="#ArialMT-48"/>
     <use x="394.628906" xlink:href="#ArialMT-51"/>
     <use x="450.244141" xlink:href="#ArialMT-53"/>
     <use x="505.859375" xlink:href="#ArialMT-54"/>
     <use x="561.474609" xlink:href="#ArialMT-48"/>
    </g>
   </g>
   <g id="text_28">
    <g id="patch_41">
     <path d="M 1018.924917 69.956953 
L 1086.801792 69.956953 
Q 1090.101792 69.956953 1090.101792 66.656953 
L 1090.101792 56.463047 
Q 1090.101792 53.163047 1086.801792 53.163047 
L 1018.924917 53.163047 
Q 1015.624917 53.163047 1015.624917 56.463047 
L 1015.624917 66.656953 
Q 1015.624917 69.956953 1018.924917 69.956953 
z
" style="fill:#ffffff;stroke:#808080;stroke-linejoin:miter;"/>
    </g>
    <!-- MASE_03565 -->
    <g style="fill:#262626;" transform="translate(1018.924917 64.470703)scale(0.11 -0.11)">
     <use xlink:href="#ArialMT-77"/>
     <use x="83.300781" xlink:href="#ArialMT-65"/>
     <use x="150" xlink:href="#ArialMT-83"/>
     <use x="216.699219" xlink:href="#ArialMT-69"/>
     <use x="283.398438" xlink:href="#ArialMT-95"/>
     <use x="339.013672" xlink:href="#ArialMT-48"/>
     <use x="394.628906" xlink:href="#ArialMT-51"/>
     <use x="450.244141" xlink:href="#ArialMT-53"/>
     <use x="505.859375" xlink:href="#ArialMT-54"/>
     <use x="561.474609" xlink:href="#ArialMT-53"/>
    </g>
   </g>
  </g>
 </g>
 <defs>
  <clipPath id="p775b51bf55">
   <rect height="163.08" width="1116" x="7.2" y="7.2"/>
  </clipPath>
 </defs>
</svg>
