<?xml version="1.0" encoding="utf-8" standalone="no"?>
<!DOCTYPE svg PUBLIC "-//W3C//DTD SVG 1.1//EN"
  "http://www.w3.org/Graphics/SVG/1.1/DTD/svg11.dtd">
<!-- Created with matplotlib (https://matplotlib.org/) -->
<svg height="218.783844pt" version="1.1" viewBox="0 0 1142.234688 218.783844" width="1142.234688pt" xmlns="http://www.w3.org/2000/svg" xmlns:xlink="http://www.w3.org/1999/xlink">
 <defs>
  <style type="text/css">
*{stroke-linecap:butt;stroke-linejoin:round;}
  </style>
 </defs>
 <g id="figure_1">
  <g id="patch_1">
   <path d="M 0 218.783844 
L 1142.234688 218.783844 
L 1142.234688 0 
L 0 0 
z
" style="fill:#ffffff;"/>
  </g>
  <g id="axes_1">
   <g id="line2d_1">
    <path clip-path="url(#p37f2221300)" d="M 19.034688 165.620571 
L 1135.034688 165.620571 
" style="fill:none;stroke:#1a1a1a;stroke-linecap:round;stroke-width:1.5;"/>
   </g>
   <g id="patch_2">
    <path clip-path="url(#p37f2221300)" d="M 69.43164 158.620571 
Q 77.455883 158.620571 85.480127 158.620571 
L 85.480127 158.620571 
Q 89.681028 162.120571 93.881929 165.620571 
Q 89.681028 169.120571 85.480127 172.620571 
L 85.480127 172.620571 
Q 77.455883 172.620571 69.43164 172.620571 
L 69.43164 158.620571 
z
" style="fill:#ffffff;fill-opacity:0.85;stroke:#000000;stroke-linecap:round;"/>
   </g>
   <g id="patch_3">
    <path clip-path="url(#p37f2221300)" d="M 96.602606 132.217143 
Q 96.679892 132.217143 96.757179 132.217143 
L 96.757179 132.217143 
Q 100.957798 135.717143 105.158417 139.217143 
Q 100.957798 142.717143 96.757179 146.217143 
L 96.757179 146.217143 
Q 96.679892 146.217143 96.602606 146.217143 
L 96.602606 132.217143 
z
" style="fill:#ffffff;fill-opacity:0.85;stroke:#000000;stroke-linecap:round;"/>
   </g>
   <g id="patch_4">
    <path clip-path="url(#p37f2221300)" d="M 105.051022 158.620571 
Q 108.834 158.620571 112.616977 158.620571 
L 112.616977 158.620571 
Q 116.817037 162.120571 121.017097 165.620571 
Q 116.817037 169.120571 112.616977 172.620571 
L 112.616977 172.620571 
Q 108.834 172.620571 105.051022 172.620571 
L 105.051022 158.620571 
z
" style="fill:#ffffff;fill-opacity:0.85;stroke:#000000;stroke-linecap:round;"/>
   </g>
   <g id="patch_5">
    <path clip-path="url(#p37f2221300)" d="M 128.319965 158.620571 
Q 138.438949 158.620571 148.557933 158.620571 
L 148.557933 158.620571 
Q 152.758299 162.120571 156.958665 165.620571 
Q 152.758299 169.120571 148.557933 172.620571 
L 148.557933 172.620571 
Q 138.438949 172.620571 128.319965 172.620571 
L 128.319965 158.620571 
z
" style="fill:#ffffff;fill-opacity:0.85;stroke:#000000;stroke-linecap:round;"/>
   </g>
   <g id="patch_6">
    <path clip-path="url(#p37f2221300)" d="M 164.691114 158.620571 
Q 188.3418 158.620571 211.992486 158.620571 
L 211.992486 158.620571 
Q 216.192935 162.120571 220.393384 165.620571 
Q 216.192935 169.120571 211.992486 172.620571 
L 211.992486 172.620571 
Q 188.3418 172.620571 164.691114 172.620571 
L 164.691114 158.620571 
z
" style="fill:#ffffff;fill-opacity:0.85;stroke:#000000;stroke-linecap:round;"/>
   </g>
   <g id="patch_7">
    <path clip-path="url(#p37f2221300)" d="M 235.321306 158.620571 
Q 249.199928 158.620571 263.078549 158.620571 
L 263.078549 158.620571 
Q 267.278107 162.120571 271.477664 165.620571 
Q 267.278107 169.120571 263.078549 172.620571 
L 263.078549 172.620571 
Q 249.199928 172.620571 235.321306 172.620571 
L 235.321306 158.620571 
z
" style="fill:#ffffff;fill-opacity:0.85;stroke:#000000;stroke-linecap:round;"/>
   </g>
   <g id="patch_8">
    <path clip-path="url(#p37f2221300)" d="M 277.062211 158.620571 
Q 284.551371 158.620571 292.040531 158.620571 
L 292.040531 158.620571 
Q 296.23954 162.120571 300.438549 165.620571 
Q 296.23954 169.120571 292.040531 172.620571 
L 292.040531 172.620571 
Q 284.551371 172.620571 277.062211 172.620571 
L 277.062211 158.620571 
z
" style="fill:#ffffff;fill-opacity:0.85;stroke:#000000;stroke-linecap:round;"/>
   </g>
   <g id="patch_9">
    <path clip-path="url(#p37f2221300)" d="M 318.803115 172.620571 
Q 314.646103 172.620571 310.489091 172.620571 
L 310.489091 172.620571 
Q 306.287183 169.120571 302.085274 165.620571 
Q 306.287183 162.120571 310.489091 158.620571 
L 310.489091 158.620571 
Q 314.646103 158.620571 318.803115 158.620571 
L 318.803115 172.620571 
z
" style="fill:#ffffff;fill-opacity:0.85;stroke:#000000;stroke-linecap:round;"/>
   </g>
   <g id="patch_10">
    <path clip-path="url(#p37f2221300)" d="M 329.864813 158.620571 
Q 344.601818 158.620571 359.338822 158.620571 
L 359.338822 158.620571 
Q 363.539158 162.120571 367.739493 165.620571 
Q 363.539158 169.120571 359.338822 172.620571 
L 359.338822 172.620571 
Q 344.601818 172.620571 329.864813 172.620571 
L 329.864813 158.620571 
z
" style="fill:#ffffff;fill-opacity:0.85;stroke:#000000;stroke-linecap:round;"/>
   </g>
   <g id="patch_11">
    <path clip-path="url(#p37f2221300)" d="M 384.922713 172.620571 
Q 384.095076 172.620571 383.26744 172.620571 
L 383.26744 172.620571 
Q 379.065405 169.120571 374.863369 165.620571 
Q 379.065405 162.120571 383.26744 158.620571 
L 383.26744 158.620571 
Q 384.095076 158.620571 384.922713 158.620571 
L 384.922713 172.620571 
z
" style="fill:#ffffff;fill-opacity:0.85;stroke:#000000;stroke-linecap:round;"/>
   </g>
   <g id="patch_12">
    <path clip-path="url(#p37f2221300)" d="M 395.519031 158.620571 
Q 409.771821 158.620571 424.02461 158.620571 
L 424.02461 158.620571 
Q 428.225883 162.120571 432.427155 165.620571 
Q 428.225883 169.120571 424.02461 172.620571 
L 424.02461 172.620571 
Q 409.771821 172.620571 395.519031 172.620571 
L 395.519031 158.620571 
z
" style="fill:#ffffff;fill-opacity:0.85;stroke:#000000;stroke-linecap:round;"/>
   </g>
   <g id="patch_13">
    <path clip-path="url(#p37f2221300)" d="M 442.880281 158.620571 
Q 491.445772 158.620571 540.011264 158.620571 
L 540.011264 158.620571 
Q 544.212576 162.120571 548.413888 165.620571 
Q 544.212576 169.120571 540.011264 172.620571 
L 540.011264 172.620571 
Q 491.445772 172.620571 442.880281 172.620571 
L 442.880281 158.620571 
z
" style="fill:#ffffff;fill-opacity:0.85;stroke:#000000;stroke-linecap:round;"/>
   </g>
   <g id="patch_14">
    <path clip-path="url(#p37f2221300)" d="M 549.237251 158.620571 
Q 571.922755 158.620571 594.60826 158.620571 
L 594.60826 158.620571 
Q 598.807334 162.120571 603.006409 165.620571 
Q 598.807334 169.120571 594.60826 172.620571 
L 594.60826 172.620571 
Q 571.922755 172.620571 549.237251 172.620571 
L 549.237251 158.620571 
z
" style="fill:#ffffff;fill-opacity:0.85;stroke:#000000;stroke-linecap:round;"/>
   </g>
   <g id="patch_15">
    <path clip-path="url(#p37f2221300)" d="M 615.106259 158.620571 
Q 661.685064 158.620571 708.263869 158.620571 
L 708.263869 158.620571 
Q 712.465058 162.120571 716.666247 165.620571 
Q 712.465058 169.120571 708.263869 172.620571 
L 708.263869 172.620571 
Q 661.685064 172.620571 615.106259 172.620571 
L 615.106259 158.620571 
z
" style="fill:#ff0000;fill-opacity:0.85;stroke:#000000;stroke-linecap:round;"/>
   </g>
   <g id="patch_16">
    <path clip-path="url(#p37f2221300)" d="M 719.172134 158.620571 
Q 735.198439 158.620571 751.224745 158.620571 
L 751.224745 158.620571 
Q 755.424521 162.120571 759.624297 165.620571 
Q 755.424521 169.120571 751.224745 172.620571 
L 751.224745 172.620571 
Q 735.198439 172.620571 719.172134 172.620571 
L 719.172134 158.620571 
z
" style="fill:#ffffff;fill-opacity:0.85;stroke:#000000;stroke-linecap:round;"/>
   </g>
   <g id="patch_17">
    <path clip-path="url(#p37f2221300)" d="M 760.590853 158.620571 
Q 761.365919 158.620571 762.140985 158.620571 
L 762.140985 158.620571 
Q 766.341893 162.120571 770.542801 165.620571 
Q 766.341893 169.120571 762.140985 172.620571 
L 762.140985 172.620571 
Q 761.365919 172.620571 760.590853 172.620571 
L 760.590853 158.620571 
z
" style="fill:#ffffff;fill-opacity:0.85;stroke:#000000;stroke-linecap:round;"/>
   </g>
   <g id="patch_18">
    <path clip-path="url(#p37f2221300)" d="M 770.614397 158.620571 
Q 773.591619 158.620571 776.56884 158.620571 
L 776.56884 158.620571 
Q 780.769193 162.120571 784.969546 165.620571 
Q 780.769193 169.120571 776.56884 172.620571 
L 776.56884 172.620571 
Q 773.591619 172.620571 770.614397 172.620571 
L 770.614397 158.620571 
z
" style="fill:#ffffff;fill-opacity:0.85;stroke:#000000;stroke-linecap:round;"/>
   </g>
   <g id="patch_19">
    <path clip-path="url(#p37f2221300)" d="M 785.613916 132.217143 
Q 792.028832 132.217143 798.443749 132.217143 
L 798.443749 132.217143 
Q 802.64305 135.717143 806.842352 139.217143 
Q 802.64305 142.717143 798.443749 146.217143 
L 798.443749 146.217143 
Q 792.028832 146.217143 785.613916 146.217143 
L 785.613916 132.217143 
z
" style="fill:#ffffff;fill-opacity:0.85;stroke:#000000;stroke-linecap:round;"/>
   </g>
   <g id="patch_20">
    <path clip-path="url(#p37f2221300)" d="M 806.054788 158.620571 
Q 834.324568 158.620571 862.594348 158.620571 
L 862.594348 158.620571 
Q 866.793693 162.120571 870.993039 165.620571 
Q 866.793693 169.120571 862.594348 172.620571 
L 862.594348 172.620571 
Q 834.324568 172.620571 806.054788 172.620571 
L 806.054788 158.620571 
z
" style="fill:#ffffff;fill-opacity:0.85;stroke:#000000;stroke-linecap:round;"/>
   </g>
   <g id="patch_21">
    <path clip-path="url(#p37f2221300)" d="M 891.183322 172.620571 
Q 885.412202 172.620571 879.641082 172.620571 
L 879.641082 172.620571 
Q 875.442355 169.120571 871.243628 165.620571 
Q 875.442355 162.120571 879.641082 158.620571 
L 879.641082 158.620571 
Q 885.412202 158.620571 891.183322 158.620571 
L 891.183322 172.620571 
z
" style="fill:#ffffff;fill-opacity:0.85;stroke:#000000;stroke-linecap:round;"/>
   </g>
   <g id="patch_22">
    <path clip-path="url(#p37f2221300)" d="M 907.686373 158.620571 
Q 917.1092 158.620571 926.532027 158.620571 
L 926.532027 158.620571 
Q 930.730481 162.120571 934.928936 165.620571 
Q 930.730481 169.120571 926.532027 172.620571 
L 926.532027 172.620571 
Q 917.1092 172.620571 907.686373 172.620571 
L 907.686373 158.620571 
z
" style="fill:#ffffff;fill-opacity:0.85;stroke:#000000;stroke-linecap:round;"/>
   </g>
   <g id="patch_23">
    <path clip-path="url(#p37f2221300)" d="M 935.179524 158.620571 
Q 955.286584 158.620571 975.393645 158.620571 
L 975.393645 158.620571 
Q 979.593681 162.120571 983.793716 165.620571 
Q 979.593681 169.120571 975.393645 172.620571 
L 975.393645 172.620571 
Q 955.286584 172.620571 935.179524 172.620571 
L 935.179524 158.620571 
z
" style="fill:#ffffff;fill-opacity:0.85;stroke:#000000;stroke-linecap:round;"/>
   </g>
   <g id="patch_24">
    <path clip-path="url(#p37f2221300)" d="M 983.865313 158.620571 
Q 989.042636 158.620571 994.219958 158.620571 
L 994.219958 158.620571 
Q 998.42181 162.120571 1002.623661 165.620571 
Q 998.42181 169.120571 994.219958 172.620571 
L 994.219958 172.620571 
Q 989.042636 172.620571 983.865313 172.620571 
L 983.865313 158.620571 
z
" style="fill:#ffffff;fill-opacity:0.85;stroke:#000000;stroke-linecap:round;"/>
   </g>
   <g id="patch_25">
    <path clip-path="url(#p37f2221300)" d="M 1003.053242 158.620571 
Q 1005.976884 158.620571 1008.900525 158.620571 
L 1008.900525 158.620571 
Q 1013.10076 162.120571 1017.300995 165.620571 
Q 1013.10076 169.120571 1008.900525 172.620571 
L 1008.900525 172.620571 
Q 1005.976884 172.620571 1003.053242 172.620571 
L 1003.053242 158.620571 
z
" style="fill:#ffffff;fill-opacity:0.85;stroke:#000000;stroke-linecap:round;"/>
   </g>
   <g id="patch_26">
    <path clip-path="url(#p37f2221300)" d="M 1017.372592 132.217143 
Q 1024.107718 132.217143 1030.842844 132.217143 
L 1030.842844 132.217143 
Q 1035.044121 135.717143 1039.245398 139.217143 
Q 1035.044121 142.717143 1030.842844 146.217143 
L 1030.842844 146.217143 
Q 1024.107718 146.217143 1017.372592 146.217143 
L 1017.372592 132.217143 
z
" style="fill:#ffffff;fill-opacity:0.85;stroke:#000000;stroke-linecap:round;"/>
   </g>
   <g id="patch_27">
    <path clip-path="url(#p37f2221300)" d="M 1039.138003 158.620571 
Q 1057.687531 158.620571 1076.23706 158.620571 
L 1076.23706 158.620571 
Q 1080.437398 162.120571 1084.637737 165.620571 
Q 1080.437398 169.120571 1076.23706 172.620571 
L 1076.23706 172.620571 
Q 1057.687531 172.620571 1039.138003 172.620571 
L 1039.138003 158.620571 
z
" style="fill:#ffffff;fill-opacity:0.85;stroke:#000000;stroke-linecap:round;"/>
   </g>
   <g id="matplotlib.axis_1">
    <g id="xtick_1">
     <g id="line2d_2">
      <path clip-path="url(#p37f2221300)" d="M 28.603594 192.024 
L 28.603594 7.2 
" style="fill:none;stroke:#ffffff;stroke-linecap:round;"/>
     </g>
     <g id="line2d_3">
      <defs>
       <path d="M 0 0 
L 0 6 
" id="m98643c1e69" style="stroke:#262626;stroke-width:1.25;"/>
      </defs>
      <g>
       <use style="fill:#262626;stroke:#262626;stroke-width:1.25;" x="28.603594" xlink:href="#m98643c1e69" y="192.024"/>
      </g>
     </g>
     <g id="text_1">
      <!-- 1196000 -->
      <defs>
       <path d="M 37.25 0 
L 28.46875 0 
L 28.46875 56 
Q 25.296875 52.984375 20.140625 49.953125 
Q 14.984375 46.921875 10.890625 45.40625 
L 10.890625 53.90625 
Q 18.265625 57.375 23.78125 62.296875 
Q 29.296875 67.234375 31.59375 71.875 
L 37.25 71.875 
z
" id="ArialMT-49"/>
       <path d="M 5.46875 16.546875 
L 13.921875 17.328125 
Q 14.984375 11.375 18.015625 8.6875 
Q 21.046875 6 25.78125 6 
Q 29.828125 6 32.875 7.859375 
Q 35.9375 9.71875 37.890625 12.8125 
Q 39.84375 15.921875 41.15625 21.1875 
Q 42.484375 26.46875 42.484375 31.9375 
Q 42.484375 32.515625 42.4375 33.6875 
Q 39.796875 29.5 35.234375 26.875 
Q 30.671875 24.265625 25.34375 24.265625 
Q 16.453125 24.265625 10.296875 30.703125 
Q 4.15625 37.15625 4.15625 47.703125 
Q 4.15625 58.59375 10.578125 65.234375 
Q 17 71.875 26.65625 71.875 
Q 33.640625 71.875 39.421875 68.109375 
Q 45.21875 64.359375 48.21875 57.390625 
Q 51.21875 50.4375 51.21875 37.25 
Q 51.21875 23.53125 48.234375 15.40625 
Q 45.265625 7.28125 39.375 3.03125 
Q 33.5 -1.21875 25.59375 -1.21875 
Q 17.1875 -1.21875 11.859375 3.4375 
Q 6.546875 8.109375 5.46875 16.546875 
z
M 41.453125 48.140625 
Q 41.453125 55.71875 37.421875 60.15625 
Q 33.40625 64.59375 27.734375 64.59375 
Q 21.875 64.59375 17.53125 59.8125 
Q 13.1875 55.03125 13.1875 47.40625 
Q 13.1875 40.578125 17.3125 36.296875 
Q 21.4375 32.03125 27.484375 32.03125 
Q 33.59375 32.03125 37.515625 36.296875 
Q 41.453125 40.578125 41.453125 48.140625 
z
" id="ArialMT-57"/>
       <path d="M 49.75 54.046875 
L 41.015625 53.375 
Q 39.84375 58.546875 37.703125 60.890625 
Q 34.125 64.65625 28.90625 64.65625 
Q 24.703125 64.65625 21.53125 62.3125 
Q 17.390625 59.28125 14.984375 53.46875 
Q 12.59375 47.65625 12.5 36.921875 
Q 15.671875 41.75 20.265625 44.09375 
Q 24.859375 46.4375 29.890625 46.4375 
Q 38.671875 46.4375 44.84375 39.96875 
Q 51.03125 33.5 51.03125 23.25 
Q 51.03125 16.5 48.125 10.71875 
Q 45.21875 4.9375 40.140625 1.859375 
Q 35.0625 -1.21875 28.609375 -1.21875 
Q 17.625 -1.21875 10.6875 6.859375 
Q 3.765625 14.9375 3.765625 33.5 
Q 3.765625 54.25 11.421875 63.671875 
Q 18.109375 71.875 29.4375 71.875 
Q 37.890625 71.875 43.28125 67.140625 
Q 48.6875 62.40625 49.75 54.046875 
z
M 13.875 23.1875 
Q 13.875 18.65625 15.796875 14.5 
Q 17.71875 10.359375 21.1875 8.171875 
Q 24.65625 6 28.46875 6 
Q 34.03125 6 38.03125 10.484375 
Q 42.046875 14.984375 42.046875 22.703125 
Q 42.046875 30.125 38.078125 34.390625 
Q 34.125 38.671875 28.125 38.671875 
Q 22.171875 38.671875 18.015625 34.390625 
Q 13.875 30.125 13.875 23.1875 
z
" id="ArialMT-54"/>
       <path d="M 4.15625 35.296875 
Q 4.15625 48 6.765625 55.734375 
Q 9.375 63.484375 14.515625 67.671875 
Q 19.671875 71.875 27.484375 71.875 
Q 33.25 71.875 37.59375 69.546875 
Q 41.9375 67.234375 44.765625 62.859375 
Q 47.609375 58.5 49.21875 52.21875 
Q 50.828125 45.953125 50.828125 35.296875 
Q 50.828125 22.703125 48.234375 14.96875 
Q 45.65625 7.234375 40.5 3 
Q 35.359375 -1.21875 27.484375 -1.21875 
Q 17.140625 -1.21875 11.234375 6.203125 
Q 4.15625 15.140625 4.15625 35.296875 
z
M 13.1875 35.296875 
Q 13.1875 17.671875 17.3125 11.828125 
Q 21.4375 6 27.484375 6 
Q 33.546875 6 37.671875 11.859375 
Q 41.796875 17.71875 41.796875 35.296875 
Q 41.796875 52.984375 37.671875 58.78125 
Q 33.546875 64.59375 27.390625 64.59375 
Q 21.34375 64.59375 17.71875 59.46875 
Q 13.1875 52.9375 13.1875 35.296875 
z
" id="ArialMT-48"/>
      </defs>
      <g style="fill:#262626;" transform="translate(7.2 209.397594)scale(0.11 -0.11)">
       <use xlink:href="#ArialMT-49"/>
       <use x="55.505859" xlink:href="#ArialMT-49"/>
       <use x="111.121094" xlink:href="#ArialMT-57"/>
       <use x="166.736328" xlink:href="#ArialMT-54"/>
       <use x="222.351562" xlink:href="#ArialMT-48"/>
       <use x="277.966797" xlink:href="#ArialMT-48"/>
       <use x="333.582031" xlink:href="#ArialMT-48"/>
      </g>
     </g>
    </g>
    <g id="xtick_2">
     <g id="line2d_4">
      <path clip-path="url(#p37f2221300)" d="M 171.797091 192.024 
L 171.797091 7.2 
" style="fill:none;stroke:#ffffff;stroke-linecap:round;"/>
     </g>
     <g id="line2d_5">
      <g>
       <use style="fill:#262626;stroke:#262626;stroke-width:1.25;" x="171.797091" xlink:href="#m98643c1e69" y="192.024"/>
      </g>
     </g>
     <g id="text_2">
      <!-- 1200000 -->
      <defs>
       <path d="M 50.34375 8.453125 
L 50.34375 0 
L 3.03125 0 
Q 2.9375 3.171875 4.046875 6.109375 
Q 5.859375 10.9375 9.828125 15.625 
Q 13.8125 20.3125 21.34375 26.46875 
Q 33.015625 36.03125 37.109375 41.625 
Q 41.21875 47.21875 41.21875 52.203125 
Q 41.21875 57.421875 37.46875 61 
Q 33.734375 64.59375 27.734375 64.59375 
Q 21.390625 64.59375 17.578125 60.78125 
Q 13.765625 56.984375 13.71875 50.25 
L 4.6875 51.171875 
Q 5.609375 61.28125 11.65625 66.578125 
Q 17.71875 71.875 27.9375 71.875 
Q 38.234375 71.875 44.234375 66.15625 
Q 50.25 60.453125 50.25 52 
Q 50.25 47.703125 48.484375 43.546875 
Q 46.734375 39.40625 42.65625 34.8125 
Q 38.578125 30.21875 29.109375 22.21875 
Q 21.1875 15.578125 18.9375 13.203125 
Q 16.703125 10.84375 15.234375 8.453125 
z
" id="ArialMT-50"/>
      </defs>
      <g style="fill:#262626;" transform="translate(150.387482 209.397594)scale(0.11 -0.11)">
       <use xlink:href="#ArialMT-49"/>
       <use x="55.615234" xlink:href="#ArialMT-50"/>
       <use x="111.230469" xlink:href="#ArialMT-48"/>
       <use x="166.845703" xlink:href="#ArialMT-48"/>
       <use x="222.460938" xlink:href="#ArialMT-48"/>
       <use x="278.076172" xlink:href="#ArialMT-48"/>
       <use x="333.691406" xlink:href="#ArialMT-48"/>
      </g>
     </g>
    </g>
    <g id="xtick_3">
     <g id="line2d_6">
      <path clip-path="url(#p37f2221300)" d="M 314.990588 192.024 
L 314.990588 7.2 
" style="fill:none;stroke:#ffffff;stroke-linecap:round;"/>
     </g>
     <g id="line2d_7">
      <g>
       <use style="fill:#262626;stroke:#262626;stroke-width:1.25;" x="314.990588" xlink:href="#m98643c1e69" y="192.024"/>
      </g>
     </g>
     <g id="text_3">
      <!-- 1204000 -->
      <defs>
       <path d="M 32.328125 0 
L 32.328125 17.140625 
L 1.265625 17.140625 
L 1.265625 25.203125 
L 33.9375 71.578125 
L 41.109375 71.578125 
L 41.109375 25.203125 
L 50.78125 25.203125 
L 50.78125 17.140625 
L 41.109375 17.140625 
L 41.109375 0 
z
M 32.328125 25.203125 
L 32.328125 57.46875 
L 9.90625 25.203125 
z
" id="ArialMT-52"/>
      </defs>
      <g style="fill:#262626;" transform="translate(293.580979 209.397594)scale(0.11 -0.11)">
       <use xlink:href="#ArialMT-49"/>
       <use x="55.615234" xlink:href="#ArialMT-50"/>
       <use x="111.230469" xlink:href="#ArialMT-48"/>
       <use x="166.845703" xlink:href="#ArialMT-52"/>
       <use x="222.460938" xlink:href="#ArialMT-48"/>
       <use x="278.076172" xlink:href="#ArialMT-48"/>
       <use x="333.691406" xlink:href="#ArialMT-48"/>
      </g>
     </g>
    </g>
    <g id="xtick_4">
     <g id="line2d_8">
      <path clip-path="url(#p37f2221300)" d="M 458.184086 192.024 
L 458.184086 7.2 
" style="fill:none;stroke:#ffffff;stroke-linecap:round;"/>
     </g>
     <g id="line2d_9">
      <g>
       <use style="fill:#262626;stroke:#262626;stroke-width:1.25;" x="458.184086" xlink:href="#m98643c1e69" y="192.024"/>
      </g>
     </g>
     <g id="text_4">
      <!-- 1208000 -->
      <defs>
       <path d="M 17.671875 38.8125 
Q 12.203125 40.828125 9.5625 44.53125 
Q 6.9375 48.25 6.9375 53.421875 
Q 6.9375 61.234375 12.546875 66.546875 
Q 18.171875 71.875 27.484375 71.875 
Q 36.859375 71.875 42.578125 66.421875 
Q 48.296875 60.984375 48.296875 53.171875 
Q 48.296875 48.1875 45.671875 44.5 
Q 43.0625 40.828125 37.75 38.8125 
Q 44.34375 36.671875 47.78125 31.875 
Q 51.21875 27.09375 51.21875 20.453125 
Q 51.21875 11.28125 44.71875 5.03125 
Q 38.234375 -1.21875 27.640625 -1.21875 
Q 17.046875 -1.21875 10.546875 5.046875 
Q 4.046875 11.328125 4.046875 20.703125 
Q 4.046875 27.6875 7.59375 32.390625 
Q 11.140625 37.109375 17.671875 38.8125 
z
M 15.921875 53.71875 
Q 15.921875 48.640625 19.1875 45.40625 
Q 22.46875 42.1875 27.6875 42.1875 
Q 32.765625 42.1875 36.015625 45.375 
Q 39.265625 48.578125 39.265625 53.21875 
Q 39.265625 58.0625 35.90625 61.359375 
Q 32.5625 64.65625 27.59375 64.65625 
Q 22.5625 64.65625 19.234375 61.421875 
Q 15.921875 58.203125 15.921875 53.71875 
z
M 13.09375 20.65625 
Q 13.09375 16.890625 14.875 13.375 
Q 16.65625 9.859375 20.171875 7.921875 
Q 23.6875 6 27.734375 6 
Q 34.03125 6 38.125 10.046875 
Q 42.234375 14.109375 42.234375 20.359375 
Q 42.234375 26.703125 38.015625 30.859375 
Q 33.796875 35.015625 27.4375 35.015625 
Q 21.234375 35.015625 17.15625 30.90625 
Q 13.09375 26.8125 13.09375 20.65625 
z
" id="ArialMT-56"/>
      </defs>
      <g style="fill:#262626;" transform="translate(436.774476 209.397594)scale(0.11 -0.11)">
       <use xlink:href="#ArialMT-49"/>
       <use x="55.615234" xlink:href="#ArialMT-50"/>
       <use x="111.230469" xlink:href="#ArialMT-48"/>
       <use x="166.845703" xlink:href="#ArialMT-56"/>
       <use x="222.460938" xlink:href="#ArialMT-48"/>
       <use x="278.076172" xlink:href="#ArialMT-48"/>
       <use x="333.691406" xlink:href="#ArialMT-48"/>
      </g>
     </g>
    </g>
    <g id="xtick_5">
     <g id="line2d_10">
      <path clip-path="url(#p37f2221300)" d="M 601.377583 192.024 
L 601.377583 7.2 
" style="fill:none;stroke:#ffffff;stroke-linecap:round;"/>
     </g>
     <g id="line2d_11">
      <g>
       <use style="fill:#262626;stroke:#262626;stroke-width:1.25;" x="601.377583" xlink:href="#m98643c1e69" y="192.024"/>
      </g>
     </g>
     <g id="text_5">
      <!-- 1212000 -->
      <g style="fill:#262626;" transform="translate(579.967973 209.397594)scale(0.11 -0.11)">
       <use xlink:href="#ArialMT-49"/>
       <use x="55.615234" xlink:href="#ArialMT-50"/>
       <use x="111.230469" xlink:href="#ArialMT-49"/>
       <use x="166.845703" xlink:href="#ArialMT-50"/>
       <use x="222.460938" xlink:href="#ArialMT-48"/>
       <use x="278.076172" xlink:href="#ArialMT-48"/>
       <use x="333.691406" xlink:href="#ArialMT-48"/>
      </g>
     </g>
    </g>
    <g id="xtick_6">
     <g id="line2d_12">
      <path clip-path="url(#p37f2221300)" d="M 744.57108 192.024 
L 744.57108 7.2 
" style="fill:none;stroke:#ffffff;stroke-linecap:round;"/>
     </g>
     <g id="line2d_13">
      <g>
       <use style="fill:#262626;stroke:#262626;stroke-width:1.25;" x="744.57108" xlink:href="#m98643c1e69" y="192.024"/>
      </g>
     </g>
     <g id="text_6">
      <!-- 1216000 -->
      <g style="fill:#262626;" transform="translate(723.161471 209.397594)scale(0.11 -0.11)">
       <use xlink:href="#ArialMT-49"/>
       <use x="55.615234" xlink:href="#ArialMT-50"/>
       <use x="111.230469" xlink:href="#ArialMT-49"/>
       <use x="166.845703" xlink:href="#ArialMT-54"/>
       <use x="222.460938" xlink:href="#ArialMT-48"/>
       <use x="278.076172" xlink:href="#ArialMT-48"/>
       <use x="333.691406" xlink:href="#ArialMT-48"/>
      </g>
     </g>
    </g>
    <g id="xtick_7">
     <g id="line2d_14">
      <path clip-path="url(#p37f2221300)" d="M 887.764577 192.024 
L 887.764577 7.2 
" style="fill:none;stroke:#ffffff;stroke-linecap:round;"/>
     </g>
     <g id="line2d_15">
      <g>
       <use style="fill:#262626;stroke:#262626;stroke-width:1.25;" x="887.764577" xlink:href="#m98643c1e69" y="192.024"/>
      </g>
     </g>
     <g id="text_7">
      <!-- 1220000 -->
      <g style="fill:#262626;" transform="translate(866.354968 209.397594)scale(0.11 -0.11)">
       <use xlink:href="#ArialMT-49"/>
       <use x="55.615234" xlink:href="#ArialMT-50"/>
       <use x="111.230469" xlink:href="#ArialMT-50"/>
       <use x="166.845703" xlink:href="#ArialMT-48"/>
       <use x="222.460938" xlink:href="#ArialMT-48"/>
       <use x="278.076172" xlink:href="#ArialMT-48"/>
       <use x="333.691406" xlink:href="#ArialMT-48"/>
      </g>
     </g>
    </g>
    <g id="xtick_8">
     <g id="line2d_16">
      <path clip-path="url(#p37f2221300)" d="M 1030.958075 192.024 
L 1030.958075 7.2 
" style="fill:none;stroke:#ffffff;stroke-linecap:round;"/>
     </g>
     <g id="line2d_17">
      <g>
       <use style="fill:#262626;stroke:#262626;stroke-width:1.25;" x="1030.958075" xlink:href="#m98643c1e69" y="192.024"/>
      </g>
     </g>
     <g id="text_8">
      <!-- 1224000 -->
      <g style="fill:#262626;" transform="translate(1009.548465 209.397594)scale(0.11 -0.11)">
       <use xlink:href="#ArialMT-49"/>
       <use x="55.615234" xlink:href="#ArialMT-50"/>
       <use x="111.230469" xlink:href="#ArialMT-50"/>
       <use x="166.845703" xlink:href="#ArialMT-52"/>
       <use x="222.460938" xlink:href="#ArialMT-48"/>
       <use x="278.076172" xlink:href="#ArialMT-48"/>
       <use x="333.691406" xlink:href="#ArialMT-48"/>
      </g>
     </g>
    </g>
   </g>
   <g id="line2d_18">
    <path clip-path="url(#p37f2221300)" d="M 81.674684 112.813714 
L 81.674684 165.620571 
" style="fill:none;stroke:#1a1a1a;stroke-linecap:round;stroke-width:0.5;"/>
   </g>
   <g id="line2d_19">
    <path clip-path="url(#p37f2221300)" d="M 100.898411 86.410286 
L 100.898411 139.217143 
" style="fill:none;stroke:#1a1a1a;stroke-linecap:round;stroke-width:0.5;"/>
   </g>
   <g id="line2d_20">
    <path clip-path="url(#p37f2221300)" d="M 113.051959 60.006857 
L 113.051959 165.620571 
" style="fill:none;stroke:#1a1a1a;stroke-linecap:round;stroke-width:0.5;"/>
   </g>
   <g id="line2d_21">
    <path clip-path="url(#p37f2221300)" d="M 142.657214 33.603429 
L 142.657214 165.620571 
" style="fill:none;stroke:#1a1a1a;stroke-linecap:round;stroke-width:0.5;"/>
   </g>
   <g id="line2d_22">
    <path clip-path="url(#p37f2221300)" d="M 192.560148 112.813714 
L 192.560148 165.620571 
" style="fill:none;stroke:#1a1a1a;stroke-linecap:round;stroke-width:0.5;"/>
   </g>
   <g id="line2d_23">
    <path clip-path="url(#p37f2221300)" d="M 253.417384 86.410286 
L 253.417384 165.620571 
" style="fill:none;stroke:#1a1a1a;stroke-linecap:round;stroke-width:0.5;"/>
   </g>
   <g id="line2d_24">
    <path clip-path="url(#p37f2221300)" d="M 288.768279 112.813714 
L 288.768279 165.620571 
" style="fill:none;stroke:#1a1a1a;stroke-linecap:round;stroke-width:0.5;"/>
   </g>
   <g id="line2d_25">
    <path clip-path="url(#p37f2221300)" d="M 310.462094 60.006857 
L 310.462094 165.620571 
" style="fill:none;stroke:#1a1a1a;stroke-linecap:round;stroke-width:0.5;"/>
   </g>
   <g id="line2d_26">
    <path clip-path="url(#p37f2221300)" d="M 348.820052 86.410286 
L 348.820052 165.620571 
" style="fill:none;stroke:#1a1a1a;stroke-linecap:round;stroke-width:0.5;"/>
   </g>
   <g id="line2d_27">
    <path clip-path="url(#p37f2221300)" d="M 379.91094 112.813714 
L 379.91094 165.620571 
" style="fill:none;stroke:#1a1a1a;stroke-linecap:round;stroke-width:0.5;"/>
   </g>
   <g id="line2d_28">
    <path clip-path="url(#p37f2221300)" d="M 413.990992 60.006857 
L 413.990992 165.620571 
" style="fill:none;stroke:#1a1a1a;stroke-linecap:round;stroke-width:0.5;"/>
   </g>
   <g id="line2d_29">
    <path clip-path="url(#p37f2221300)" d="M 495.664983 112.813714 
L 495.664983 165.620571 
" style="fill:none;stroke:#1a1a1a;stroke-linecap:round;stroke-width:0.5;"/>
   </g>
   <g id="line2d_30">
    <path clip-path="url(#p37f2221300)" d="M 576.139729 86.410286 
L 576.139729 165.620571 
" style="fill:none;stroke:#1a1a1a;stroke-linecap:round;stroke-width:0.5;"/>
   </g>
   <g id="line2d_31">
    <path clip-path="url(#p37f2221300)" d="M 665.904153 112.813714 
L 665.904153 165.620571 
" style="fill:none;stroke:#1a1a1a;stroke-linecap:round;stroke-width:0.5;"/>
   </g>
   <g id="line2d_32">
    <path clip-path="url(#p37f2221300)" d="M 739.416114 86.410286 
L 739.416114 165.620571 
" style="fill:none;stroke:#1a1a1a;stroke-linecap:round;stroke-width:0.5;"/>
   </g>
   <g id="line2d_33">
    <path clip-path="url(#p37f2221300)" d="M 765.584726 112.813714 
L 765.584726 165.620571 
" style="fill:none;stroke:#1a1a1a;stroke-linecap:round;stroke-width:0.5;"/>
   </g>
   <g id="line2d_34">
    <path clip-path="url(#p37f2221300)" d="M 777.809871 60.006857 
L 777.809871 165.620571 
" style="fill:none;stroke:#1a1a1a;stroke-linecap:round;stroke-width:0.5;"/>
   </g>
   <g id="line2d_35">
    <path clip-path="url(#p37f2221300)" d="M 796.246033 33.603429 
L 796.246033 139.217143 
" style="fill:none;stroke:#1a1a1a;stroke-linecap:round;stroke-width:0.5;"/>
   </g>
   <g id="line2d_36">
    <path clip-path="url(#p37f2221300)" d="M 838.541813 86.410286 
L 838.541813 165.620571 
" style="fill:none;stroke:#1a1a1a;stroke-linecap:round;stroke-width:0.5;"/>
   </g>
   <g id="line2d_37">
    <path clip-path="url(#p37f2221300)" d="M 881.231374 112.813714 
L 881.231374 165.620571 
" style="fill:none;stroke:#1a1a1a;stroke-linecap:round;stroke-width:0.5;"/>
   </g>
   <g id="line2d_38">
    <path clip-path="url(#p37f2221300)" d="M 921.325553 60.006857 
L 921.325553 165.620571 
" style="fill:none;stroke:#1a1a1a;stroke-linecap:round;stroke-width:0.5;"/>
   </g>
   <g id="line2d_39">
    <path clip-path="url(#p37f2221300)" d="M 959.50452 86.410286 
L 959.50452 165.620571 
" style="fill:none;stroke:#1a1a1a;stroke-linecap:round;stroke-width:0.5;"/>
   </g>
   <g id="line2d_40">
    <path clip-path="url(#p37f2221300)" d="M 993.262386 112.813714 
L 993.262386 165.620571 
" style="fill:none;stroke:#1a1a1a;stroke-linecap:round;stroke-width:0.5;"/>
   </g>
   <g id="line2d_41">
    <path clip-path="url(#p37f2221300)" d="M 1010.195018 60.006857 
L 1010.195018 165.620571 
" style="fill:none;stroke:#1a1a1a;stroke-linecap:round;stroke-width:0.5;"/>
   </g>
   <g id="line2d_42">
    <path clip-path="url(#p37f2221300)" d="M 1028.326894 33.603429 
L 1028.326894 139.217143 
" style="fill:none;stroke:#1a1a1a;stroke-linecap:round;stroke-width:0.5;"/>
   </g>
   <g id="line2d_43">
    <path clip-path="url(#p37f2221300)" d="M 1061.905769 86.410286 
L 1061.905769 165.620571 
" style="fill:none;stroke:#1a1a1a;stroke-linecap:round;stroke-width:0.5;"/>
   </g>
   <g id="text_9">
    <g id="patch_28">
     <path d="M 47.736246 121.210667 
L 115.613121 121.210667 
Q 118.913121 121.210667 118.913121 117.910667 
L 118.913121 107.716761 
Q 118.913121 104.416761 115.613121 104.416761 
L 47.736246 104.416761 
Q 44.436246 104.416761 44.436246 107.716761 
L 44.436246 117.910667 
Q 44.436246 121.210667 47.736246 121.210667 
z
" style="fill:#ffffff;stroke:#808080;stroke-linejoin:miter;"/>
    </g>
    <!-- MASE_05120 -->
    <defs>
     <path d="M 7.421875 0 
L 7.421875 71.578125 
L 21.6875 71.578125 
L 38.625 20.90625 
Q 40.96875 13.8125 42.046875 10.296875 
Q 43.265625 14.203125 45.84375 21.78125 
L 62.984375 71.578125 
L 75.734375 71.578125 
L 75.734375 0 
L 66.609375 0 
L 66.609375 59.90625 
L 45.796875 0 
L 37.25 0 
L 16.546875 60.9375 
L 16.546875 0 
z
" id="ArialMT-77"/>
     <path d="M -0.140625 0 
L 27.34375 71.578125 
L 37.546875 71.578125 
L 66.84375 0 
L 56.0625 0 
L 47.703125 21.6875 
L 17.78125 21.6875 
L 9.90625 0 
z
M 20.515625 29.390625 
L 44.78125 29.390625 
L 37.3125 49.21875 
Q 33.890625 58.25 32.234375 64.0625 
Q 30.859375 57.171875 28.375 50.390625 
z
" id="ArialMT-65"/>
     <path d="M 4.5 23 
L 13.421875 23.78125 
Q 14.0625 18.40625 16.375 14.96875 
Q 18.703125 11.53125 23.578125 9.40625 
Q 28.46875 7.28125 34.578125 7.28125 
Q 39.984375 7.28125 44.140625 8.890625 
Q 48.296875 10.5 50.3125 13.296875 
Q 52.34375 16.109375 52.34375 19.4375 
Q 52.34375 22.796875 50.390625 25.3125 
Q 48.4375 27.828125 43.953125 29.546875 
Q 41.0625 30.671875 31.203125 33.03125 
Q 21.34375 35.40625 17.390625 37.5 
Q 12.25 40.1875 9.734375 44.15625 
Q 7.234375 48.140625 7.234375 53.078125 
Q 7.234375 58.5 10.296875 63.203125 
Q 13.375 67.921875 19.28125 70.359375 
Q 25.203125 72.796875 32.421875 72.796875 
Q 40.375 72.796875 46.453125 70.234375 
Q 52.546875 67.671875 55.8125 62.6875 
Q 59.078125 57.71875 59.328125 51.421875 
L 50.25 50.734375 
Q 49.515625 57.515625 45.28125 60.984375 
Q 41.0625 64.453125 32.8125 64.453125 
Q 24.21875 64.453125 20.28125 61.296875 
Q 16.359375 58.15625 16.359375 53.71875 
Q 16.359375 49.859375 19.140625 47.359375 
Q 21.875 44.875 33.421875 42.265625 
Q 44.96875 39.65625 49.265625 37.703125 
Q 55.515625 34.8125 58.484375 30.390625 
Q 61.46875 25.984375 61.46875 20.21875 
Q 61.46875 14.5 58.203125 9.4375 
Q 54.9375 4.390625 48.796875 1.578125 
Q 42.671875 -1.21875 35.015625 -1.21875 
Q 25.296875 -1.21875 18.71875 1.609375 
Q 12.15625 4.4375 8.421875 10.125 
Q 4.6875 15.828125 4.5 23 
z
" id="ArialMT-83"/>
     <path d="M 7.90625 0 
L 7.90625 71.578125 
L 59.671875 71.578125 
L 59.671875 63.140625 
L 17.390625 63.140625 
L 17.390625 41.21875 
L 56.984375 41.21875 
L 56.984375 32.8125 
L 17.390625 32.8125 
L 17.390625 8.453125 
L 61.328125 8.453125 
L 61.328125 0 
z
" id="ArialMT-69"/>
     <path d="M -1.515625 -19.875 
L -1.515625 -13.53125 
L 56.734375 -13.53125 
L 56.734375 -19.875 
z
" id="ArialMT-95"/>
     <path d="M 4.15625 18.75 
L 13.375 19.53125 
Q 14.40625 12.796875 18.140625 9.390625 
Q 21.875 6 27.15625 6 
Q 33.5 6 37.890625 10.78125 
Q 42.28125 15.578125 42.28125 23.484375 
Q 42.28125 31 38.0625 35.34375 
Q 33.84375 39.703125 27 39.703125 
Q 22.75 39.703125 19.328125 37.765625 
Q 15.921875 35.84375 13.96875 32.765625 
L 5.71875 33.84375 
L 12.640625 70.609375 
L 48.25 70.609375 
L 48.25 62.203125 
L 19.671875 62.203125 
L 15.828125 42.96875 
Q 22.265625 47.46875 29.34375 47.46875 
Q 38.71875 47.46875 45.15625 40.96875 
Q 51.609375 34.46875 51.609375 24.265625 
Q 51.609375 14.546875 45.953125 7.46875 
Q 39.0625 -1.21875 27.15625 -1.21875 
Q 17.390625 -1.21875 11.203125 4.25 
Q 5.03125 9.71875 4.15625 18.75 
z
" id="ArialMT-53"/>
    </defs>
    <g style="fill:#262626;" transform="translate(47.736246 115.724417)scale(0.11 -0.11)">
     <use xlink:href="#ArialMT-77"/>
     <use x="83.300781" xlink:href="#ArialMT-65"/>
     <use x="150" xlink:href="#ArialMT-83"/>
     <use x="216.699219" xlink:href="#ArialMT-69"/>
     <use x="283.398438" xlink:href="#ArialMT-95"/>
     <use x="339.013672" xlink:href="#ArialMT-48"/>
     <use x="394.628906" xlink:href="#ArialMT-53"/>
     <use x="450.244141" xlink:href="#ArialMT-49"/>
     <use x="505.859375" xlink:href="#ArialMT-50"/>
     <use x="561.474609" xlink:href="#ArialMT-48"/>
    </g>
   </g>
   <g id="text_10">
    <g id="patch_29">
     <path d="M 66.959973 94.807239 
L 134.836848 94.807239 
Q 138.136848 94.807239 138.136848 91.507239 
L 138.136848 81.313333 
Q 138.136848 78.013333 134.836848 78.013333 
L 66.959973 78.013333 
Q 63.659973 78.013333 63.659973 81.313333 
L 63.659973 91.507239 
Q 63.659973 94.807239 66.959973 94.807239 
z
" style="fill:#ffffff;stroke:#808080;stroke-linejoin:miter;"/>
    </g>
    <!-- MASE_05125 -->
    <g style="fill:#262626;" transform="translate(66.959973 89.320989)scale(0.11 -0.11)">
     <use xlink:href="#ArialMT-77"/>
     <use x="83.300781" xlink:href="#ArialMT-65"/>
     <use x="150" xlink:href="#ArialMT-83"/>
     <use x="216.699219" xlink:href="#ArialMT-69"/>
     <use x="283.398438" xlink:href="#ArialMT-95"/>
     <use x="339.013672" xlink:href="#ArialMT-48"/>
     <use x="394.628906" xlink:href="#ArialMT-53"/>
     <use x="450.244141" xlink:href="#ArialMT-49"/>
     <use x="505.859375" xlink:href="#ArialMT-50"/>
     <use x="561.474609" xlink:href="#ArialMT-53"/>
    </g>
   </g>
   <g id="text_11">
    <g id="patch_30">
     <path d="M 79.113521 68.40381 
L 146.990396 68.40381 
Q 150.290396 68.40381 150.290396 65.10381 
L 150.290396 54.909904 
Q 150.290396 51.609904 146.990396 51.609904 
L 79.113521 51.609904 
Q 75.813521 51.609904 75.813521 54.909904 
L 75.813521 65.10381 
Q 75.813521 68.40381 79.113521 68.40381 
z
" style="fill:#ffffff;stroke:#808080;stroke-linejoin:miter;"/>
    </g>
    <!-- MASE_05130 -->
    <defs>
     <path d="M 4.203125 18.890625 
L 12.984375 20.0625 
Q 14.5 12.59375 18.140625 9.296875 
Q 21.78125 6 27 6 
Q 33.203125 6 37.46875 10.296875 
Q 41.75 14.59375 41.75 20.953125 
Q 41.75 27 37.796875 30.921875 
Q 33.84375 34.859375 27.734375 34.859375 
Q 25.25 34.859375 21.53125 33.890625 
L 22.515625 41.609375 
Q 23.390625 41.5 23.921875 41.5 
Q 29.546875 41.5 34.03125 44.421875 
Q 38.53125 47.359375 38.53125 53.46875 
Q 38.53125 58.296875 35.25 61.46875 
Q 31.984375 64.65625 26.8125 64.65625 
Q 21.6875 64.65625 18.265625 61.421875 
Q 14.84375 58.203125 13.875 51.765625 
L 5.078125 53.328125 
Q 6.6875 62.15625 12.390625 67.015625 
Q 18.109375 71.875 26.609375 71.875 
Q 32.46875 71.875 37.390625 69.359375 
Q 42.328125 66.84375 44.9375 62.5 
Q 47.5625 58.15625 47.5625 53.265625 
Q 47.5625 48.640625 45.0625 44.828125 
Q 42.578125 41.015625 37.703125 38.765625 
Q 44.046875 37.3125 47.5625 32.6875 
Q 51.078125 28.078125 51.078125 21.140625 
Q 51.078125 11.765625 44.234375 5.25 
Q 37.40625 -1.265625 26.953125 -1.265625 
Q 17.53125 -1.265625 11.296875 4.34375 
Q 5.078125 9.96875 4.203125 18.890625 
z
" id="ArialMT-51"/>
    </defs>
    <g style="fill:#262626;" transform="translate(79.113521 62.91756)scale(0.11 -0.11)">
     <use xlink:href="#ArialMT-77"/>
     <use x="83.300781" xlink:href="#ArialMT-65"/>
     <use x="150" xlink:href="#ArialMT-83"/>
     <use x="216.699219" xlink:href="#ArialMT-69"/>
     <use x="283.398438" xlink:href="#ArialMT-95"/>
     <use x="339.013672" xlink:href="#ArialMT-48"/>
     <use x="394.628906" xlink:href="#ArialMT-53"/>
     <use x="450.244141" xlink:href="#ArialMT-49"/>
     <use x="505.859375" xlink:href="#ArialMT-51"/>
     <use x="561.474609" xlink:href="#ArialMT-48"/>
    </g>
   </g>
   <g id="text_12">
    <g id="patch_31">
     <path d="M 108.718777 42.000382 
L 176.595652 42.000382 
Q 179.895652 42.000382 179.895652 38.700382 
L 179.895652 28.506475 
Q 179.895652 25.206475 176.595652 25.206475 
L 108.718777 25.206475 
Q 105.418777 25.206475 105.418777 28.506475 
L 105.418777 38.700382 
Q 105.418777 42.000382 108.718777 42.000382 
z
" style="fill:#ffffff;stroke:#808080;stroke-linejoin:miter;"/>
    </g>
    <!-- MASE_05135 -->
    <g style="fill:#262626;" transform="translate(108.718777 36.514132)scale(0.11 -0.11)">
     <use xlink:href="#ArialMT-77"/>
     <use x="83.300781" xlink:href="#ArialMT-65"/>
     <use x="150" xlink:href="#ArialMT-83"/>
     <use x="216.699219" xlink:href="#ArialMT-69"/>
     <use x="283.398438" xlink:href="#ArialMT-95"/>
     <use x="339.013672" xlink:href="#ArialMT-48"/>
     <use x="394.628906" xlink:href="#ArialMT-53"/>
     <use x="450.244141" xlink:href="#ArialMT-49"/>
     <use x="505.859375" xlink:href="#ArialMT-51"/>
     <use x="561.474609" xlink:href="#ArialMT-53"/>
    </g>
   </g>
   <g id="text_13">
    <g id="patch_32">
     <path d="M 158.621711 121.210667 
L 226.498586 121.210667 
Q 229.798586 121.210667 229.798586 117.910667 
L 229.798586 107.716761 
Q 229.798586 104.416761 226.498586 104.416761 
L 158.621711 104.416761 
Q 155.321711 104.416761 155.321711 107.716761 
L 155.321711 117.910667 
Q 155.321711 121.210667 158.621711 121.210667 
z
" style="fill:#ffffff;stroke:#808080;stroke-linejoin:miter;"/>
    </g>
    <!-- MASE_05140 -->
    <g style="fill:#262626;" transform="translate(158.621711 115.724417)scale(0.11 -0.11)">
     <use xlink:href="#ArialMT-77"/>
     <use x="83.300781" xlink:href="#ArialMT-65"/>
     <use x="150" xlink:href="#ArialMT-83"/>
     <use x="216.699219" xlink:href="#ArialMT-69"/>
     <use x="283.398438" xlink:href="#ArialMT-95"/>
     <use x="339.013672" xlink:href="#ArialMT-48"/>
     <use x="394.628906" xlink:href="#ArialMT-53"/>
     <use x="450.244141" xlink:href="#ArialMT-49"/>
     <use x="505.859375" xlink:href="#ArialMT-52"/>
     <use x="561.474609" xlink:href="#ArialMT-48"/>
    </g>
   </g>
   <g id="text_14">
    <g id="patch_33">
     <path d="M 219.478947 94.807239 
L 287.355822 94.807239 
Q 290.655822 94.807239 290.655822 91.507239 
L 290.655822 81.313333 
Q 290.655822 78.013333 287.355822 78.013333 
L 219.478947 78.013333 
Q 216.178947 78.013333 216.178947 81.313333 
L 216.178947 91.507239 
Q 216.178947 94.807239 219.478947 94.807239 
z
" style="fill:#ffffff;stroke:#808080;stroke-linejoin:miter;"/>
    </g>
    <!-- MASE_05145 -->
    <g style="fill:#262626;" transform="translate(219.478947 89.320989)scale(0.11 -0.11)">
     <use xlink:href="#ArialMT-77"/>
     <use x="83.300781" xlink:href="#ArialMT-65"/>
     <use x="150" xlink:href="#ArialMT-83"/>
     <use x="216.699219" xlink:href="#ArialMT-69"/>
     <use x="283.398438" xlink:href="#ArialMT-95"/>
     <use x="339.013672" xlink:href="#ArialMT-48"/>
     <use x="394.628906" xlink:href="#ArialMT-53"/>
     <use x="450.244141" xlink:href="#ArialMT-49"/>
     <use x="505.859375" xlink:href="#ArialMT-52"/>
     <use x="561.474609" xlink:href="#ArialMT-53"/>
    </g>
   </g>
   <g id="text_15">
    <g id="patch_34">
     <path d="M 254.829842 121.210667 
L 322.706717 121.210667 
Q 326.006717 121.210667 326.006717 117.910667 
L 326.006717 107.716761 
Q 326.006717 104.416761 322.706717 104.416761 
L 254.829842 104.416761 
Q 251.529842 104.416761 251.529842 107.716761 
L 251.529842 117.910667 
Q 251.529842 121.210667 254.829842 121.210667 
z
" style="fill:#ffffff;stroke:#808080;stroke-linejoin:miter;"/>
    </g>
    <!-- MASE_05150 -->
    <g style="fill:#262626;" transform="translate(254.829842 115.724417)scale(0.11 -0.11)">
     <use xlink:href="#ArialMT-77"/>
     <use x="83.300781" xlink:href="#ArialMT-65"/>
     <use x="150" xlink:href="#ArialMT-83"/>
     <use x="216.699219" xlink:href="#ArialMT-69"/>
     <use x="283.398438" xlink:href="#ArialMT-95"/>
     <use x="339.013672" xlink:href="#ArialMT-48"/>
     <use x="394.628906" xlink:href="#ArialMT-53"/>
     <use x="450.244141" xlink:href="#ArialMT-49"/>
     <use x="505.859375" xlink:href="#ArialMT-53"/>
     <use x="561.474609" xlink:href="#ArialMT-48"/>
    </g>
   </g>
   <g id="text_16">
    <g id="patch_35">
     <path d="M 276.523656 68.40381 
L 344.400531 68.40381 
Q 347.700531 68.40381 347.700531 65.10381 
L 347.700531 54.909904 
Q 347.700531 51.609904 344.400531 51.609904 
L 276.523656 51.609904 
Q 273.223656 51.609904 273.223656 54.909904 
L 273.223656 65.10381 
Q 273.223656 68.40381 276.523656 68.40381 
z
" style="fill:#ffffff;stroke:#808080;stroke-linejoin:miter;"/>
    </g>
    <!-- MASE_05155 -->
    <g style="fill:#262626;" transform="translate(276.523656 62.91756)scale(0.11 -0.11)">
     <use xlink:href="#ArialMT-77"/>
     <use x="83.300781" xlink:href="#ArialMT-65"/>
     <use x="150" xlink:href="#ArialMT-83"/>
     <use x="216.699219" xlink:href="#ArialMT-69"/>
     <use x="283.398438" xlink:href="#ArialMT-95"/>
     <use x="339.013672" xlink:href="#ArialMT-48"/>
     <use x="394.628906" xlink:href="#ArialMT-53"/>
     <use x="450.244141" xlink:href="#ArialMT-49"/>
     <use x="505.859375" xlink:href="#ArialMT-53"/>
     <use x="561.474609" xlink:href="#ArialMT-53"/>
    </g>
   </g>
   <g id="text_17">
    <g id="patch_36">
     <path d="M 314.881615 94.807239 
L 382.75849 94.807239 
Q 386.05849 94.807239 386.05849 91.507239 
L 386.05849 81.313333 
Q 386.05849 78.013333 382.75849 78.013333 
L 314.881615 78.013333 
Q 311.581615 78.013333 311.581615 81.313333 
L 311.581615 91.507239 
Q 311.581615 94.807239 314.881615 94.807239 
z
" style="fill:#ffffff;stroke:#808080;stroke-linejoin:miter;"/>
    </g>
    <!-- MASE_05160 -->
    <g style="fill:#262626;" transform="translate(314.881615 89.320989)scale(0.11 -0.11)">
     <use xlink:href="#ArialMT-77"/>
     <use x="83.300781" xlink:href="#ArialMT-65"/>
     <use x="150" xlink:href="#ArialMT-83"/>
     <use x="216.699219" xlink:href="#ArialMT-69"/>
     <use x="283.398438" xlink:href="#ArialMT-95"/>
     <use x="339.013672" xlink:href="#ArialMT-48"/>
     <use x="394.628906" xlink:href="#ArialMT-53"/>
     <use x="450.244141" xlink:href="#ArialMT-49"/>
     <use x="505.859375" xlink:href="#ArialMT-54"/>
     <use x="561.474609" xlink:href="#ArialMT-48"/>
    </g>
   </g>
   <g id="text_18">
    <g id="patch_37">
     <path d="M 345.972503 121.210667 
L 413.849378 121.210667 
Q 417.149378 121.210667 417.149378 117.910667 
L 417.149378 107.716761 
Q 417.149378 104.416761 413.849378 104.416761 
L 345.972503 104.416761 
Q 342.672503 104.416761 342.672503 107.716761 
L 342.672503 117.910667 
Q 342.672503 121.210667 345.972503 121.210667 
z
" style="fill:#ffffff;stroke:#808080;stroke-linejoin:miter;"/>
    </g>
    <!-- MASE_05165 -->
    <g style="fill:#262626;" transform="translate(345.972503 115.724417)scale(0.11 -0.11)">
     <use xlink:href="#ArialMT-77"/>
     <use x="83.300781" xlink:href="#ArialMT-65"/>
     <use x="150" xlink:href="#ArialMT-83"/>
     <use x="216.699219" xlink:href="#ArialMT-69"/>
     <use x="283.398438" xlink:href="#ArialMT-95"/>
     <use x="339.013672" xlink:href="#ArialMT-48"/>
     <use x="394.628906" xlink:href="#ArialMT-53"/>
     <use x="450.244141" xlink:href="#ArialMT-49"/>
     <use x="505.859375" xlink:href="#ArialMT-54"/>
     <use x="561.474609" xlink:href="#ArialMT-53"/>
    </g>
   </g>
   <g id="text_19">
    <g id="patch_38">
     <path d="M 380.052555 68.40381 
L 447.92943 68.40381 
Q 451.22943 68.40381 451.22943 65.10381 
L 451.22943 54.909904 
Q 451.22943 51.609904 447.92943 51.609904 
L 380.052555 51.609904 
Q 376.752555 51.609904 376.752555 54.909904 
L 376.752555 65.10381 
Q 376.752555 68.40381 380.052555 68.40381 
z
" style="fill:#ffffff;stroke:#808080;stroke-linejoin:miter;"/>
    </g>
    <!-- MASE_05170 -->
    <defs>
     <path d="M 4.734375 62.203125 
L 4.734375 70.65625 
L 51.078125 70.65625 
L 51.078125 63.8125 
Q 44.234375 56.546875 37.515625 44.484375 
Q 30.8125 32.421875 27.15625 19.671875 
Q 24.515625 10.6875 23.78125 0 
L 14.75 0 
Q 14.890625 8.453125 18.0625 20.40625 
Q 21.234375 32.375 27.171875 43.484375 
Q 33.109375 54.59375 39.796875 62.203125 
z
" id="ArialMT-55"/>
    </defs>
    <g style="fill:#262626;" transform="translate(380.052555 62.91756)scale(0.11 -0.11)">
     <use xlink:href="#ArialMT-77"/>
     <use x="83.300781" xlink:href="#ArialMT-65"/>
     <use x="150" xlink:href="#ArialMT-83"/>
     <use x="216.699219" xlink:href="#ArialMT-69"/>
     <use x="283.398438" xlink:href="#ArialMT-95"/>
     <use x="339.013672" xlink:href="#ArialMT-48"/>
     <use x="394.628906" xlink:href="#ArialMT-53"/>
     <use x="450.244141" xlink:href="#ArialMT-49"/>
     <use x="505.859375" xlink:href="#ArialMT-55"/>
     <use x="561.474609" xlink:href="#ArialMT-48"/>
    </g>
   </g>
   <g id="text_20">
    <g id="patch_39">
     <path d="M 461.726546 121.210667 
L 529.603421 121.210667 
Q 532.903421 121.210667 532.903421 117.910667 
L 532.903421 107.716761 
Q 532.903421 104.416761 529.603421 104.416761 
L 461.726546 104.416761 
Q 458.426546 104.416761 458.426546 107.716761 
L 458.426546 117.910667 
Q 458.426546 121.210667 461.726546 121.210667 
z
" style="fill:#ffffff;stroke:#808080;stroke-linejoin:miter;"/>
    </g>
    <!-- MASE_05175 -->
    <g style="fill:#262626;" transform="translate(461.726546 115.724417)scale(0.11 -0.11)">
     <use xlink:href="#ArialMT-77"/>
     <use x="83.300781" xlink:href="#ArialMT-65"/>
     <use x="150" xlink:href="#ArialMT-83"/>
     <use x="216.699219" xlink:href="#ArialMT-69"/>
     <use x="283.398438" xlink:href="#ArialMT-95"/>
     <use x="339.013672" xlink:href="#ArialMT-48"/>
     <use x="394.628906" xlink:href="#ArialMT-53"/>
     <use x="450.244141" xlink:href="#ArialMT-49"/>
     <use x="505.859375" xlink:href="#ArialMT-55"/>
     <use x="561.474609" xlink:href="#ArialMT-53"/>
    </g>
   </g>
   <g id="text_21">
    <g id="patch_40">
     <path d="M 542.201291 94.807239 
L 610.078166 94.807239 
Q 613.378166 94.807239 613.378166 91.507239 
L 613.378166 81.313333 
Q 613.378166 78.013333 610.078166 78.013333 
L 542.201291 78.013333 
Q 538.901291 78.013333 538.901291 81.313333 
L 538.901291 91.507239 
Q 538.901291 94.807239 542.201291 94.807239 
z
" style="fill:#ffffff;stroke:#808080;stroke-linejoin:miter;"/>
    </g>
    <!-- MASE_05180 -->
    <g style="fill:#262626;" transform="translate(542.201291 89.320989)scale(0.11 -0.11)">
     <use xlink:href="#ArialMT-77"/>
     <use x="83.300781" xlink:href="#ArialMT-65"/>
     <use x="150" xlink:href="#ArialMT-83"/>
     <use x="216.699219" xlink:href="#ArialMT-69"/>
     <use x="283.398438" xlink:href="#ArialMT-95"/>
     <use x="339.013672" xlink:href="#ArialMT-48"/>
     <use x="394.628906" xlink:href="#ArialMT-53"/>
     <use x="450.244141" xlink:href="#ArialMT-49"/>
     <use x="505.859375" xlink:href="#ArialMT-56"/>
     <use x="561.474609" xlink:href="#ArialMT-48"/>
    </g>
   </g>
   <g id="text_22">
    <g id="patch_41">
     <path d="M 631.965715 121.210667 
L 699.84259 121.210667 
Q 703.14259 121.210667 703.14259 117.910667 
L 703.14259 107.716761 
Q 703.14259 104.416761 699.84259 104.416761 
L 631.965715 104.416761 
Q 628.665715 104.416761 628.665715 107.716761 
L 628.665715 117.910667 
Q 628.665715 121.210667 631.965715 121.210667 
z
" style="fill:#ffecec;stroke:#808080;stroke-linejoin:miter;"/>
    </g>
    <!-- MASE_05185 -->
    <g style="fill:#262626;" transform="translate(631.965715 115.724417)scale(0.11 -0.11)">
     <use xlink:href="#ArialMT-77"/>
     <use x="83.300781" xlink:href="#ArialMT-65"/>
     <use x="150" xlink:href="#ArialMT-83"/>
     <use x="216.699219" xlink:href="#ArialMT-69"/>
     <use x="283.398438" xlink:href="#ArialMT-95"/>
     <use x="339.013672" xlink:href="#ArialMT-48"/>
     <use x="394.628906" xlink:href="#ArialMT-53"/>
     <use x="450.244141" xlink:href="#ArialMT-49"/>
     <use x="505.859375" xlink:href="#ArialMT-56"/>
     <use x="561.474609" xlink:href="#ArialMT-53"/>
    </g>
   </g>
   <g id="text_23">
    <g id="patch_42">
     <path d="M 705.477677 94.807239 
L 773.354552 94.807239 
Q 776.654552 94.807239 776.654552 91.507239 
L 776.654552 81.313333 
Q 776.654552 78.013333 773.354552 78.013333 
L 705.477677 78.013333 
Q 702.177677 78.013333 702.177677 81.313333 
L 702.177677 91.507239 
Q 702.177677 94.807239 705.477677 94.807239 
z
" style="fill:#ffffff;stroke:#808080;stroke-linejoin:miter;"/>
    </g>
    <!-- MASE_05190 -->
    <g style="fill:#262626;" transform="translate(705.477677 89.320989)scale(0.11 -0.11)">
     <use xlink:href="#ArialMT-77"/>
     <use x="83.300781" xlink:href="#ArialMT-65"/>
     <use x="150" xlink:href="#ArialMT-83"/>
     <use x="216.699219" xlink:href="#ArialMT-69"/>
     <use x="283.398438" xlink:href="#ArialMT-95"/>
     <use x="339.013672" xlink:href="#ArialMT-48"/>
     <use x="394.628906" xlink:href="#ArialMT-53"/>
     <use x="450.244141" xlink:href="#ArialMT-49"/>
     <use x="505.859375" xlink:href="#ArialMT-57"/>
     <use x="561.474609" xlink:href="#ArialMT-48"/>
    </g>
   </g>
   <g id="text_24">
    <g id="patch_43">
     <path d="M 731.646288 121.210667 
L 799.523163 121.210667 
Q 802.823163 121.210667 802.823163 117.910667 
L 802.823163 107.716761 
Q 802.823163 104.416761 799.523163 104.416761 
L 731.646288 104.416761 
Q 728.346288 104.416761 728.346288 107.716761 
L 728.346288 117.910667 
Q 728.346288 121.210667 731.646288 121.210667 
z
" style="fill:#ffffff;stroke:#808080;stroke-linejoin:miter;"/>
    </g>
    <!-- MASE_05195 -->
    <g style="fill:#262626;" transform="translate(731.646288 115.724417)scale(0.11 -0.11)">
     <use xlink:href="#ArialMT-77"/>
     <use x="83.300781" xlink:href="#ArialMT-65"/>
     <use x="150" xlink:href="#ArialMT-83"/>
     <use x="216.699219" xlink:href="#ArialMT-69"/>
     <use x="283.398438" xlink:href="#ArialMT-95"/>
     <use x="339.013672" xlink:href="#ArialMT-48"/>
     <use x="394.628906" xlink:href="#ArialMT-53"/>
     <use x="450.244141" xlink:href="#ArialMT-49"/>
     <use x="505.859375" xlink:href="#ArialMT-57"/>
     <use x="561.474609" xlink:href="#ArialMT-53"/>
    </g>
   </g>
   <g id="text_25">
    <g id="patch_44">
     <path d="M 743.871433 68.40381 
L 811.748308 68.40381 
Q 815.048308 68.40381 815.048308 65.10381 
L 815.048308 54.909904 
Q 815.048308 51.609904 811.748308 51.609904 
L 743.871433 51.609904 
Q 740.571433 51.609904 740.571433 54.909904 
L 740.571433 65.10381 
Q 740.571433 68.40381 743.871433 68.40381 
z
" style="fill:#ffffff;stroke:#808080;stroke-linejoin:miter;"/>
    </g>
    <!-- MASE_05200 -->
    <g style="fill:#262626;" transform="translate(743.871433 62.91756)scale(0.11 -0.11)">
     <use xlink:href="#ArialMT-77"/>
     <use x="83.300781" xlink:href="#ArialMT-65"/>
     <use x="150" xlink:href="#ArialMT-83"/>
     <use x="216.699219" xlink:href="#ArialMT-69"/>
     <use x="283.398438" xlink:href="#ArialMT-95"/>
     <use x="339.013672" xlink:href="#ArialMT-48"/>
     <use x="394.628906" xlink:href="#ArialMT-53"/>
     <use x="450.244141" xlink:href="#ArialMT-50"/>
     <use x="505.859375" xlink:href="#ArialMT-48"/>
     <use x="561.474609" xlink:href="#ArialMT-48"/>
    </g>
   </g>
   <g id="text_26">
    <g id="patch_45">
     <path d="M 762.307596 42.000382 
L 830.184471 42.000382 
Q 833.484471 42.000382 833.484471 38.700382 
L 833.484471 28.506475 
Q 833.484471 25.206475 830.184471 25.206475 
L 762.307596 25.206475 
Q 759.007596 25.206475 759.007596 28.506475 
L 759.007596 38.700382 
Q 759.007596 42.000382 762.307596 42.000382 
z
" style="fill:#ffffff;stroke:#808080;stroke-linejoin:miter;"/>
    </g>
    <!-- MASE_05205 -->
    <g style="fill:#262626;" transform="translate(762.307596 36.514132)scale(0.11 -0.11)">
     <use xlink:href="#ArialMT-77"/>
     <use x="83.300781" xlink:href="#ArialMT-65"/>
     <use x="150" xlink:href="#ArialMT-83"/>
     <use x="216.699219" xlink:href="#ArialMT-69"/>
     <use x="283.398438" xlink:href="#ArialMT-95"/>
     <use x="339.013672" xlink:href="#ArialMT-48"/>
     <use x="394.628906" xlink:href="#ArialMT-53"/>
     <use x="450.244141" xlink:href="#ArialMT-50"/>
     <use x="505.859375" xlink:href="#ArialMT-48"/>
     <use x="561.474609" xlink:href="#ArialMT-53"/>
    </g>
   </g>
   <g id="text_27">
    <g id="patch_46">
     <path d="M 804.603375 94.807239 
L 872.48025 94.807239 
Q 875.78025 94.807239 875.78025 91.507239 
L 875.78025 81.313333 
Q 875.78025 78.013333 872.48025 78.013333 
L 804.603375 78.013333 
Q 801.303375 78.013333 801.303375 81.313333 
L 801.303375 91.507239 
Q 801.303375 94.807239 804.603375 94.807239 
z
" style="fill:#ffffff;stroke:#808080;stroke-linejoin:miter;"/>
    </g>
    <!-- MASE_05210 -->
    <g style="fill:#262626;" transform="translate(804.603375 89.320989)scale(0.11 -0.11)">
     <use xlink:href="#ArialMT-77"/>
     <use x="83.300781" xlink:href="#ArialMT-65"/>
     <use x="150" xlink:href="#ArialMT-83"/>
     <use x="216.699219" xlink:href="#ArialMT-69"/>
     <use x="283.398438" xlink:href="#ArialMT-95"/>
     <use x="339.013672" xlink:href="#ArialMT-48"/>
     <use x="394.628906" xlink:href="#ArialMT-53"/>
     <use x="450.244141" xlink:href="#ArialMT-50"/>
     <use x="505.859375" xlink:href="#ArialMT-49"/>
     <use x="561.474609" xlink:href="#ArialMT-48"/>
    </g>
   </g>
   <g id="text_28">
    <g id="patch_47">
     <path d="M 847.292937 121.210667 
L 915.169812 121.210667 
Q 918.469812 121.210667 918.469812 117.910667 
L 918.469812 107.716761 
Q 918.469812 104.416761 915.169812 104.416761 
L 847.292937 104.416761 
Q 843.992937 104.416761 843.992937 107.716761 
L 843.992937 117.910667 
Q 843.992937 121.210667 847.292937 121.210667 
z
" style="fill:#ffffff;stroke:#808080;stroke-linejoin:miter;"/>
    </g>
    <!-- MASE_05215 -->
    <g style="fill:#262626;" transform="translate(847.292937 115.724417)scale(0.11 -0.11)">
     <use xlink:href="#ArialMT-77"/>
     <use x="83.300781" xlink:href="#ArialMT-65"/>
     <use x="150" xlink:href="#ArialMT-83"/>
     <use x="216.699219" xlink:href="#ArialMT-69"/>
     <use x="283.398438" xlink:href="#ArialMT-95"/>
     <use x="339.013672" xlink:href="#ArialMT-48"/>
     <use x="394.628906" xlink:href="#ArialMT-53"/>
     <use x="450.244141" xlink:href="#ArialMT-50"/>
     <use x="505.859375" xlink:href="#ArialMT-49"/>
     <use x="561.474609" xlink:href="#ArialMT-53"/>
    </g>
   </g>
   <g id="text_29">
    <g id="patch_48">
     <path d="M 887.387116 68.40381 
L 955.263991 68.40381 
Q 958.563991 68.40381 958.563991 65.10381 
L 958.563991 54.909904 
Q 958.563991 51.609904 955.263991 51.609904 
L 887.387116 51.609904 
Q 884.087116 51.609904 884.087116 54.909904 
L 884.087116 65.10381 
Q 884.087116 68.40381 887.387116 68.40381 
z
" style="fill:#ffffff;stroke:#808080;stroke-linejoin:miter;"/>
    </g>
    <!-- MASE_05220 -->
    <g style="fill:#262626;" transform="translate(887.387116 62.91756)scale(0.11 -0.11)">
     <use xlink:href="#ArialMT-77"/>
     <use x="83.300781" xlink:href="#ArialMT-65"/>
     <use x="150" xlink:href="#ArialMT-83"/>
     <use x="216.699219" xlink:href="#ArialMT-69"/>
     <use x="283.398438" xlink:href="#ArialMT-95"/>
     <use x="339.013672" xlink:href="#ArialMT-48"/>
     <use x="394.628906" xlink:href="#ArialMT-53"/>
     <use x="450.244141" xlink:href="#ArialMT-50"/>
     <use x="505.859375" xlink:href="#ArialMT-50"/>
     <use x="561.474609" xlink:href="#ArialMT-48"/>
    </g>
   </g>
   <g id="text_30">
    <g id="patch_49">
     <path d="M 925.566082 94.807239 
L 993.442957 94.807239 
Q 996.742957 94.807239 996.742957 91.507239 
L 996.742957 81.313333 
Q 996.742957 78.013333 993.442957 78.013333 
L 925.566082 78.013333 
Q 922.266082 78.013333 922.266082 81.313333 
L 922.266082 91.507239 
Q 922.266082 94.807239 925.566082 94.807239 
z
" style="fill:#ffffff;stroke:#808080;stroke-linejoin:miter;"/>
    </g>
    <!-- MASE_05225 -->
    <g style="fill:#262626;" transform="translate(925.566082 89.320989)scale(0.11 -0.11)">
     <use xlink:href="#ArialMT-77"/>
     <use x="83.300781" xlink:href="#ArialMT-65"/>
     <use x="150" xlink:href="#ArialMT-83"/>
     <use x="216.699219" xlink:href="#ArialMT-69"/>
     <use x="283.398438" xlink:href="#ArialMT-95"/>
     <use x="339.013672" xlink:href="#ArialMT-48"/>
     <use x="394.628906" xlink:href="#ArialMT-53"/>
     <use x="450.244141" xlink:href="#ArialMT-50"/>
     <use x="505.859375" xlink:href="#ArialMT-50"/>
     <use x="561.474609" xlink:href="#ArialMT-53"/>
    </g>
   </g>
   <g id="text_31">
    <g id="patch_50">
     <path d="M 959.323949 121.210667 
L 1027.200824 121.210667 
Q 1030.500824 121.210667 1030.500824 117.910667 
L 1030.500824 107.716761 
Q 1030.500824 104.416761 1027.200824 104.416761 
L 959.323949 104.416761 
Q 956.023949 104.416761 956.023949 107.716761 
L 956.023949 117.910667 
Q 956.023949 121.210667 959.323949 121.210667 
z
" style="fill:#ffffff;stroke:#808080;stroke-linejoin:miter;"/>
    </g>
    <!-- MASE_05230 -->
    <g style="fill:#262626;" transform="translate(959.323949 115.724417)scale(0.11 -0.11)">
     <use xlink:href="#ArialMT-77"/>
     <use x="83.300781" xlink:href="#ArialMT-65"/>
     <use x="150" xlink:href="#ArialMT-83"/>
     <use x="216.699219" xlink:href="#ArialMT-69"/>
     <use x="283.398438" xlink:href="#ArialMT-95"/>
     <use x="339.013672" xlink:href="#ArialMT-48"/>
     <use x="394.628906" xlink:href="#ArialMT-53"/>
     <use x="450.244141" xlink:href="#ArialMT-50"/>
     <use x="505.859375" xlink:href="#ArialMT-51"/>
     <use x="561.474609" xlink:href="#ArialMT-48"/>
    </g>
   </g>
   <g id="text_32">
    <g id="patch_51">
     <path d="M 976.25658 68.40381 
L 1044.133455 68.40381 
Q 1047.433455 68.40381 1047.433455 65.10381 
L 1047.433455 54.909904 
Q 1047.433455 51.609904 1044.133455 51.609904 
L 976.25658 51.609904 
Q 972.95658 51.609904 972.95658 54.909904 
L 972.95658 65.10381 
Q 972.95658 68.40381 976.25658 68.40381 
z
" style="fill:#ffffff;stroke:#808080;stroke-linejoin:miter;"/>
    </g>
    <!-- MASE_05235 -->
    <g style="fill:#262626;" transform="translate(976.25658 62.91756)scale(0.11 -0.11)">
     <use xlink:href="#ArialMT-77"/>
     <use x="83.300781" xlink:href="#ArialMT-65"/>
     <use x="150" xlink:href="#ArialMT-83"/>
     <use x="216.699219" xlink:href="#ArialMT-69"/>
     <use x="283.398438" xlink:href="#ArialMT-95"/>
     <use x="339.013672" xlink:href="#ArialMT-48"/>
     <use x="394.628906" xlink:href="#ArialMT-53"/>
     <use x="450.244141" xlink:href="#ArialMT-50"/>
     <use x="505.859375" xlink:href="#ArialMT-51"/>
     <use x="561.474609" xlink:href="#ArialMT-53"/>
    </g>
   </g>
   <g id="text_33">
    <g id="patch_52">
     <path d="M 994.388457 42.000382 
L 1062.265332 42.000382 
Q 1065.565332 42.000382 1065.565332 38.700382 
L 1065.565332 28.506475 
Q 1065.565332 25.206475 1062.265332 25.206475 
L 994.388457 25.206475 
Q 991.088457 25.206475 991.088457 28.506475 
L 991.088457 38.700382 
Q 991.088457 42.000382 994.388457 42.000382 
z
" style="fill:#ffffff;stroke:#808080;stroke-linejoin:miter;"/>
    </g>
    <!-- MASE_05240 -->
    <g style="fill:#262626;" transform="translate(994.388457 36.514132)scale(0.11 -0.11)">
     <use xlink:href="#ArialMT-77"/>
     <use x="83.300781" xlink:href="#ArialMT-65"/>
     <use x="150" xlink:href="#ArialMT-83"/>
     <use x="216.699219" xlink:href="#ArialMT-69"/>
     <use x="283.398438" xlink:href="#ArialMT-95"/>
     <use x="339.013672" xlink:href="#ArialMT-48"/>
     <use x="394.628906" xlink:href="#ArialMT-53"/>
     <use x="450.244141" xlink:href="#ArialMT-50"/>
     <use x="505.859375" xlink:href="#ArialMT-52"/>
     <use x="561.474609" xlink:href="#ArialMT-48"/>
    </g>
   </g>
   <g id="text_34">
    <g id="patch_53">
     <path d="M 1027.967332 94.807239 
L 1095.844207 94.807239 
Q 1099.144207 94.807239 1099.144207 91.507239 
L 1099.144207 81.313333 
Q 1099.144207 78.013333 1095.844207 78.013333 
L 1027.967332 78.013333 
Q 1024.667332 78.013333 1024.667332 81.313333 
L 1024.667332 91.507239 
Q 1024.667332 94.807239 1027.967332 94.807239 
z
" style="fill:#ffffff;stroke:#808080;stroke-linejoin:miter;"/>
    </g>
    <!-- MASE_05245 -->
    <g style="fill:#262626;" transform="translate(1027.967332 89.320989)scale(0.11 -0.11)">
     <use xlink:href="#ArialMT-77"/>
     <use x="83.300781" xlink:href="#ArialMT-65"/>
     <use x="150" xlink:href="#ArialMT-83"/>
     <use x="216.699219" xlink:href="#ArialMT-69"/>
     <use x="283.398438" xlink:href="#ArialMT-95"/>
     <use x="339.013672" xlink:href="#ArialMT-48"/>
     <use x="394.628906" xlink:href="#ArialMT-53"/>
     <use x="450.244141" xlink:href="#ArialMT-50"/>
     <use x="505.859375" xlink:href="#ArialMT-52"/>
     <use x="561.474609" xlink:href="#ArialMT-53"/>
    </g>
   </g>
  </g>
 </g>
 <defs>
  <clipPath id="p37f2221300">
   <rect height="184.824" width="1116" x="19.034688" y="7.2"/>
  </clipPath>
 </defs>
</svg>
