<?xml version="1.0" encoding="utf-8" standalone="no"?>
<!DOCTYPE svg PUBLIC "-//W3C//DTD SVG 1.1//EN"
  "http://www.w3.org/Graphics/SVG/1.1/DTD/svg11.dtd">
<!-- Created with matplotlib (https://matplotlib.org/) -->
<svg height="197.039844pt" version="1.1" viewBox="0 0 1130.4 197.039844" width="1130.4pt" xmlns="http://www.w3.org/2000/svg" xmlns:xlink="http://www.w3.org/1999/xlink">
 <defs>
  <style type="text/css">
*{stroke-linecap:butt;stroke-linejoin:round;}
  </style>
 </defs>
 <g id="figure_1">
  <g id="patch_1">
   <path d="M 0 197.039844 
L 1130.4 197.039844 
L 1130.4 0 
L 0 0 
z
" style="fill:#ffffff;"/>
  </g>
  <g id="axes_1">
   <g id="line2d_1">
    <path clip-path="url(#pa1c1c2bfc6)" d="M 7.2 143.1 
L 1123.2 143.1 
" style="fill:none;stroke:#1a1a1a;stroke-linecap:round;stroke-width:1.5;"/>
   </g>
   <g id="patch_2">
    <path clip-path="url(#pa1c1c2bfc6)" d="M 118.078305 136.1 
Q 131.689935 136.1 145.301566 136.1 
L 145.301566 136.1 
Q 149.499626 139.6 153.697687 143.1 
Q 149.499626 146.6 145.301566 150.1 
L 145.301566 150.1 
Q 131.689935 150.1 118.078305 150.1 
L 118.078305 136.1 
z
" style="fill:#ffffff;fill-opacity:0.85;stroke:#000000;stroke-linecap:round;"/>
   </g>
   <g id="patch_3">
    <path clip-path="url(#pa1c1c2bfc6)" d="M 153.697687 136.1 
Q 158.662474 136.1 163.627261 136.1 
L 163.627261 136.1 
Q 167.826858 139.6 172.026455 143.1 
Q 167.826858 146.6 163.627261 150.1 
L 163.627261 150.1 
Q 158.662474 150.1 153.697687 150.1 
L 153.697687 136.1 
z
" style="fill:#ffffff;fill-opacity:0.85;stroke:#000000;stroke-linecap:round;"/>
   </g>
   <g id="patch_4">
    <path clip-path="url(#pa1c1c2bfc6)" d="M 176.035873 136.1 
Q 203.659154 136.1 231.282435 136.1 
L 231.282435 136.1 
Q 235.483909 139.6 239.685382 143.1 
Q 235.483909 146.6 231.282435 150.1 
L 231.282435 150.1 
Q 203.659154 150.1 176.035873 150.1 
L 176.035873 136.1 
z
" style="fill:#ffffff;fill-opacity:0.85;stroke:#000000;stroke-linecap:round;"/>
   </g>
   <g id="patch_5">
    <path clip-path="url(#pa1c1c2bfc6)" d="M 239.792777 136.1 
Q 245.829296 136.1 251.865814 136.1 
L 251.865814 136.1 
Q 256.067631 139.6 260.269448 143.1 
Q 256.067631 146.6 251.865814 150.1 
L 251.865814 150.1 
Q 245.829296 150.1 239.792777 150.1 
L 239.792777 136.1 
z
" style="fill:#ffffff;fill-opacity:0.85;stroke:#000000;stroke-linecap:round;"/>
   </g>
   <g id="patch_6">
    <path clip-path="url(#pa1c1c2bfc6)" d="M 271.187952 136.1 
Q 281.306936 136.1 291.425919 136.1 
L 291.425919 136.1 
Q 295.626285 139.6 299.826651 143.1 
Q 295.626285 146.6 291.425919 150.1 
L 291.425919 150.1 
Q 281.306936 150.1 271.187952 150.1 
L 271.187952 136.1 
z
" style="fill:#ffffff;fill-opacity:0.85;stroke:#000000;stroke-linecap:round;"/>
   </g>
   <g id="patch_7">
    <path clip-path="url(#pa1c1c2bfc6)" d="M 344.252434 150.1 
Q 328.063644 150.1 311.874854 150.1 
L 311.874854 150.1 
Q 307.676469 146.6 303.478085 143.1 
Q 307.676469 139.6 311.874854 136.1 
L 311.874854 136.1 
Q 328.063644 136.1 344.252434 136.1 
L 344.252434 150.1 
z
" style="fill:#ffffff;fill-opacity:0.85;stroke:#000000;stroke-linecap:round;"/>
   </g>
   <g id="patch_8">
    <path clip-path="url(#pa1c1c2bfc6)" d="M 365.552466 122.92 
Q 358.977054 122.92 352.401642 122.92 
L 352.401642 122.92 
Q 348.201743 119.42 344.001845 115.92 
Q 348.201743 112.42 352.401642 108.92 
L 352.401642 108.92 
Q 358.977054 108.92 365.552466 108.92 
L 365.552466 122.92 
z
" style="fill:#ffffff;fill-opacity:0.85;stroke:#000000;stroke-linecap:round;"/>
   </g>
   <g id="patch_9">
    <path clip-path="url(#pa1c1c2bfc6)" d="M 417.352714 150.1 
Q 399.607267 150.1 381.86182 150.1 
L 381.86182 150.1 
Q 377.662864 146.6 373.463907 143.1 
Q 377.662864 139.6 381.86182 136.1 
L 381.86182 136.1 
Q 399.607267 136.1 417.352714 136.1 
L 417.352714 150.1 
z
" style="fill:#ffffff;fill-opacity:0.85;stroke:#000000;stroke-linecap:round;"/>
   </g>
   <g id="patch_10">
    <path clip-path="url(#pa1c1c2bfc6)" d="M 445.526035 150.1 
Q 436.96239 150.1 428.398746 150.1 
L 428.398746 150.1 
Q 424.20027 146.6 420.001794 143.1 
Q 424.20027 139.6 428.398746 136.1 
L 428.398746 136.1 
Q 436.96239 136.1 445.526035 136.1 
L 445.526035 150.1 
z
" style="fill:#ffffff;fill-opacity:0.85;stroke:#000000;stroke-linecap:round;"/>
   </g>
   <g id="patch_11">
    <path clip-path="url(#pa1c1c2bfc6)" d="M 492.386107 150.1 
Q 478.078289 150.1 463.770472 150.1 
L 463.770472 150.1 
Q 459.57053 146.6 455.370588 143.1 
Q 459.57053 139.6 463.770472 136.1 
L 463.770472 136.1 
Q 478.078289 136.1 492.386107 136.1 
L 492.386107 150.1 
z
" style="fill:#ffffff;fill-opacity:0.85;stroke:#000000;stroke-linecap:round;"/>
   </g>
   <g id="patch_12">
    <path clip-path="url(#pa1c1c2bfc6)" d="M 535.057769 150.1 
Q 518.171815 150.1 501.285861 150.1 
L 501.285861 150.1 
Q 497.086573 146.6 492.887284 143.1 
Q 497.086573 139.6 501.285861 136.1 
L 501.285861 136.1 
Q 518.171815 136.1 535.057769 136.1 
L 535.057769 150.1 
z
" style="fill:#ffffff;fill-opacity:0.85;stroke:#000000;stroke-linecap:round;"/>
   </g>
   <g id="patch_13">
    <path clip-path="url(#pa1c1c2bfc6)" d="M 542.933411 108.92 
Q 555.037629 108.92 567.141848 108.92 
L 567.141848 108.92 
Q 571.343789 112.42 575.54573 115.92 
Q 571.343789 119.42 567.141848 122.92 
L 567.141848 122.92 
Q 555.037629 122.92 542.933411 122.92 
L 542.933411 108.92 
z
" style="fill:#ffffff;fill-opacity:0.85;stroke:#000000;stroke-linecap:round;"/>
   </g>
   <g id="patch_14">
    <path clip-path="url(#pa1c1c2bfc6)" d="M 575.295142 136.1 
Q 594.059049 136.1 612.822957 136.1 
L 612.822957 136.1 
Q 617.023706 139.6 621.224456 143.1 
Q 617.023706 146.6 612.822957 150.1 
L 612.822957 150.1 
Q 594.059049 150.1 575.295142 150.1 
L 575.295142 136.1 
z
" style="fill:#ffffff;fill-opacity:0.85;stroke:#000000;stroke-linecap:round;"/>
   </g>
   <g id="patch_15">
    <path clip-path="url(#pa1c1c2bfc6)" d="M 667.296964 150.1 
Q 650.090273 150.1 632.883583 150.1 
L 632.883583 150.1 
Q 628.682845 146.6 624.482108 143.1 
Q 628.682845 139.6 632.883583 136.1 
L 632.883583 136.1 
Q 650.090273 136.1 667.296964 136.1 
L 667.296964 150.1 
z
" style="fill:#ffffff;fill-opacity:0.85;stroke:#000000;stroke-linecap:round;"/>
   </g>
   <g id="patch_16">
    <path clip-path="url(#pa1c1c2bfc6)" d="M 701.377016 150.1 
Q 694.747685 150.1 688.118355 150.1 
L 688.118355 150.1 
Q 683.918677 146.6 679.718999 143.1 
Q 683.918677 139.6 688.118355 136.1 
L 688.118355 136.1 
Q 694.747685 136.1 701.377016 136.1 
L 701.377016 150.1 
z
" style="fill:#ffffff;fill-opacity:0.85;stroke:#000000;stroke-linecap:round;"/>
   </g>
   <g id="patch_17">
    <path clip-path="url(#pa1c1c2bfc6)" d="M 791.230935 150.1 
Q 775.797294 150.1 760.363652 150.1 
L 760.363652 150.1 
Q 756.161885 146.6 751.960119 143.1 
Q 756.161885 139.6 760.363652 136.1 
L 760.363652 136.1 
Q 775.797294 136.1 791.230935 136.1 
L 791.230935 150.1 
z
" style="fill:#ffffff;fill-opacity:0.85;stroke:#000000;stroke-linecap:round;"/>
   </g>
   <g id="patch_18">
    <path clip-path="url(#pa1c1c2bfc6)" d="M 847.076399 150.1 
Q 823.369895 150.1 799.663391 150.1 
L 799.663391 150.1 
Q 795.465062 146.6 791.266734 143.1 
Q 795.465062 139.6 799.663391 136.1 
L 799.663391 136.1 
Q 823.369895 136.1 847.076399 136.1 
L 847.076399 150.1 
z
" style="fill:#ffffff;fill-opacity:0.85;stroke:#000000;stroke-linecap:round;"/>
   </g>
   <g id="patch_19">
    <path clip-path="url(#pa1c1c2bfc6)" d="M 888.960497 150.1 
Q 880.238275 150.1 871.516053 150.1 
L 871.516053 150.1 
Q 867.315062 146.6 863.114071 143.1 
Q 867.315062 139.6 871.516053 136.1 
L 871.516053 136.1 
Q 880.238275 136.1 888.960497 136.1 
L 888.960497 150.1 
z
" style="fill:#ffffff;fill-opacity:0.85;stroke:#000000;stroke-linecap:round;"/>
   </g>
   <g id="patch_20">
    <path clip-path="url(#pa1c1c2bfc6)" d="M 906.609096 108.92 
Q 908.459818 108.92 910.310539 108.92 
L 910.310539 108.92 
Q 914.509743 112.42 918.708946 115.92 
Q 914.509743 119.42 910.310539 122.92 
L 910.310539 122.92 
Q 908.459818 122.92 906.609096 122.92 
L 906.609096 108.92 
z
" style="fill:#ffffff;fill-opacity:0.85;stroke:#000000;stroke-linecap:round;"/>
   </g>
   <g id="patch_21">
    <path clip-path="url(#pa1c1c2bfc6)" d="M 917.31281 136.1 
Q 960.617412 136.1 1003.922014 136.1 
L 1003.922014 136.1 
Q 1008.121855 139.6 1012.321695 143.1 
Q 1008.121855 146.6 1003.922014 150.1 
L 1003.922014 150.1 
Q 960.617412 150.1 917.31281 150.1 
L 917.31281 136.1 
z
" style="fill:#ff0000;fill-opacity:0.85;stroke:#000000;stroke-linecap:round;"/>
   </g>
   <g id="matplotlib.axis_1">
    <g id="xtick_1">
     <g id="line2d_2">
      <path clip-path="url(#pa1c1c2bfc6)" d="M 64.040659 170.28 
L 64.040659 7.2 
" style="fill:none;stroke:#ffffff;stroke-linecap:round;"/>
     </g>
     <g id="line2d_3">
      <defs>
       <path d="M 0 0 
L 0 6 
" id="mcab4444179" style="stroke:#262626;stroke-width:1.25;"/>
      </defs>
      <g>
       <use style="fill:#262626;stroke:#262626;stroke-width:1.25;" x="64.040659" xlink:href="#mcab4444179" y="170.28"/>
      </g>
     </g>
     <g id="text_1">
      <!-- 924000 -->
      <defs>
       <path d="M 5.46875 16.546875 
L 13.921875 17.328125 
Q 14.984375 11.375 18.015625 8.6875 
Q 21.046875 6 25.78125 6 
Q 29.828125 6 32.875 7.859375 
Q 35.9375 9.71875 37.890625 12.8125 
Q 39.84375 15.921875 41.15625 21.1875 
Q 42.484375 26.46875 42.484375 31.9375 
Q 42.484375 32.515625 42.4375 33.6875 
Q 39.796875 29.5 35.234375 26.875 
Q 30.671875 24.265625 25.34375 24.265625 
Q 16.453125 24.265625 10.296875 30.703125 
Q 4.15625 37.15625 4.15625 47.703125 
Q 4.15625 58.59375 10.578125 65.234375 
Q 17 71.875 26.65625 71.875 
Q 33.640625 71.875 39.421875 68.109375 
Q 45.21875 64.359375 48.21875 57.390625 
Q 51.21875 50.4375 51.21875 37.25 
Q 51.21875 23.53125 48.234375 15.40625 
Q 45.265625 7.28125 39.375 3.03125 
Q 33.5 -1.21875 25.59375 -1.21875 
Q 17.1875 -1.21875 11.859375 3.4375 
Q 6.546875 8.109375 5.46875 16.546875 
z
M 41.453125 48.140625 
Q 41.453125 55.71875 37.421875 60.15625 
Q 33.40625 64.59375 27.734375 64.59375 
Q 21.875 64.59375 17.53125 59.8125 
Q 13.1875 55.03125 13.1875 47.40625 
Q 13.1875 40.578125 17.3125 36.296875 
Q 21.4375 32.03125 27.484375 32.03125 
Q 33.59375 32.03125 37.515625 36.296875 
Q 41.453125 40.578125 41.453125 48.140625 
z
" id="ArialMT-57"/>
       <path d="M 50.34375 8.453125 
L 50.34375 0 
L 3.03125 0 
Q 2.9375 3.171875 4.046875 6.109375 
Q 5.859375 10.9375 9.828125 15.625 
Q 13.8125 20.3125 21.34375 26.46875 
Q 33.015625 36.03125 37.109375 41.625 
Q 41.21875 47.21875 41.21875 52.203125 
Q 41.21875 57.421875 37.46875 61 
Q 33.734375 64.59375 27.734375 64.59375 
Q 21.390625 64.59375 17.578125 60.78125 
Q 13.765625 56.984375 13.71875 50.25 
L 4.6875 51.171875 
Q 5.609375 61.28125 11.65625 66.578125 
Q 17.71875 71.875 27.9375 71.875 
Q 38.234375 71.875 44.234375 66.15625 
Q 50.25 60.453125 50.25 52 
Q 50.25 47.703125 48.484375 43.546875 
Q 46.734375 39.40625 42.65625 34.8125 
Q 38.578125 30.21875 29.109375 22.21875 
Q 21.1875 15.578125 18.9375 13.203125 
Q 16.703125 10.84375 15.234375 8.453125 
z
" id="ArialMT-50"/>
       <path d="M 32.328125 0 
L 32.328125 17.140625 
L 1.265625 17.140625 
L 1.265625 25.203125 
L 33.9375 71.578125 
L 41.109375 71.578125 
L 41.109375 25.203125 
L 50.78125 25.203125 
L 50.78125 17.140625 
L 41.109375 17.140625 
L 41.109375 0 
z
M 32.328125 25.203125 
L 32.328125 57.46875 
L 9.90625 25.203125 
z
" id="ArialMT-52"/>
       <path d="M 4.15625 35.296875 
Q 4.15625 48 6.765625 55.734375 
Q 9.375 63.484375 14.515625 67.671875 
Q 19.671875 71.875 27.484375 71.875 
Q 33.25 71.875 37.59375 69.546875 
Q 41.9375 67.234375 44.765625 62.859375 
Q 47.609375 58.5 49.21875 52.21875 
Q 50.828125 45.953125 50.828125 35.296875 
Q 50.828125 22.703125 48.234375 14.96875 
Q 45.65625 7.234375 40.5 3 
Q 35.359375 -1.21875 27.484375 -1.21875 
Q 17.140625 -1.21875 11.234375 6.203125 
Q 4.15625 15.140625 4.15625 35.296875 
z
M 13.1875 35.296875 
Q 13.1875 17.671875 17.3125 11.828125 
Q 21.4375 6 27.484375 6 
Q 33.546875 6 37.671875 11.859375 
Q 41.796875 17.71875 41.796875 35.296875 
Q 41.796875 52.984375 37.671875 58.78125 
Q 33.546875 64.59375 27.390625 64.59375 
Q 21.34375 64.59375 17.71875 59.46875 
Q 13.1875 52.9375 13.1875 35.296875 
z
" id="ArialMT-48"/>
      </defs>
      <g style="fill:#262626;" transform="translate(45.689565 187.653594)scale(0.11 -0.11)">
       <use xlink:href="#ArialMT-57"/>
       <use x="55.615234" xlink:href="#ArialMT-50"/>
       <use x="111.230469" xlink:href="#ArialMT-52"/>
       <use x="166.845703" xlink:href="#ArialMT-48"/>
       <use x="222.460938" xlink:href="#ArialMT-48"/>
       <use x="278.076172" xlink:href="#ArialMT-48"/>
      </g>
     </g>
    </g>
    <g id="xtick_2">
     <g id="line2d_4">
      <path clip-path="url(#pa1c1c2bfc6)" d="M 207.234156 170.28 
L 207.234156 7.2 
" style="fill:none;stroke:#ffffff;stroke-linecap:round;"/>
     </g>
     <g id="line2d_5">
      <g>
       <use style="fill:#262626;stroke:#262626;stroke-width:1.25;" x="207.234156" xlink:href="#mcab4444179" y="170.28"/>
      </g>
     </g>
     <g id="text_2">
      <!-- 928000 -->
      <defs>
       <path d="M 17.671875 38.8125 
Q 12.203125 40.828125 9.5625 44.53125 
Q 6.9375 48.25 6.9375 53.421875 
Q 6.9375 61.234375 12.546875 66.546875 
Q 18.171875 71.875 27.484375 71.875 
Q 36.859375 71.875 42.578125 66.421875 
Q 48.296875 60.984375 48.296875 53.171875 
Q 48.296875 48.1875 45.671875 44.5 
Q 43.0625 40.828125 37.75 38.8125 
Q 44.34375 36.671875 47.78125 31.875 
Q 51.21875 27.09375 51.21875 20.453125 
Q 51.21875 11.28125 44.71875 5.03125 
Q 38.234375 -1.21875 27.640625 -1.21875 
Q 17.046875 -1.21875 10.546875 5.046875 
Q 4.046875 11.328125 4.046875 20.703125 
Q 4.046875 27.6875 7.59375 32.390625 
Q 11.140625 37.109375 17.671875 38.8125 
z
M 15.921875 53.71875 
Q 15.921875 48.640625 19.1875 45.40625 
Q 22.46875 42.1875 27.6875 42.1875 
Q 32.765625 42.1875 36.015625 45.375 
Q 39.265625 48.578125 39.265625 53.21875 
Q 39.265625 58.0625 35.90625 61.359375 
Q 32.5625 64.65625 27.59375 64.65625 
Q 22.5625 64.65625 19.234375 61.421875 
Q 15.921875 58.203125 15.921875 53.71875 
z
M 13.09375 20.65625 
Q 13.09375 16.890625 14.875 13.375 
Q 16.65625 9.859375 20.171875 7.921875 
Q 23.6875 6 27.734375 6 
Q 34.03125 6 38.125 10.046875 
Q 42.234375 14.109375 42.234375 20.359375 
Q 42.234375 26.703125 38.015625 30.859375 
Q 33.796875 35.015625 27.4375 35.015625 
Q 21.234375 35.015625 17.15625 30.90625 
Q 13.09375 26.8125 13.09375 20.65625 
z
" id="ArialMT-56"/>
      </defs>
      <g style="fill:#262626;" transform="translate(188.883062 187.653594)scale(0.11 -0.11)">
       <use xlink:href="#ArialMT-57"/>
       <use x="55.615234" xlink:href="#ArialMT-50"/>
       <use x="111.230469" xlink:href="#ArialMT-56"/>
       <use x="166.845703" xlink:href="#ArialMT-48"/>
       <use x="222.460938" xlink:href="#ArialMT-48"/>
       <use x="278.076172" xlink:href="#ArialMT-48"/>
      </g>
     </g>
    </g>
    <g id="xtick_3">
     <g id="line2d_6">
      <path clip-path="url(#pa1c1c2bfc6)" d="M 350.427653 170.28 
L 350.427653 7.2 
" style="fill:none;stroke:#ffffff;stroke-linecap:round;"/>
     </g>
     <g id="line2d_7">
      <g>
       <use style="fill:#262626;stroke:#262626;stroke-width:1.25;" x="350.427653" xlink:href="#mcab4444179" y="170.28"/>
      </g>
     </g>
     <g id="text_3">
      <!-- 932000 -->
      <defs>
       <path d="M 4.203125 18.890625 
L 12.984375 20.0625 
Q 14.5 12.59375 18.140625 9.296875 
Q 21.78125 6 27 6 
Q 33.203125 6 37.46875 10.296875 
Q 41.75 14.59375 41.75 20.953125 
Q 41.75 27 37.796875 30.921875 
Q 33.84375 34.859375 27.734375 34.859375 
Q 25.25 34.859375 21.53125 33.890625 
L 22.515625 41.609375 
Q 23.390625 41.5 23.921875 41.5 
Q 29.546875 41.5 34.03125 44.421875 
Q 38.53125 47.359375 38.53125 53.46875 
Q 38.53125 58.296875 35.25 61.46875 
Q 31.984375 64.65625 26.8125 64.65625 
Q 21.6875 64.65625 18.265625 61.421875 
Q 14.84375 58.203125 13.875 51.765625 
L 5.078125 53.328125 
Q 6.6875 62.15625 12.390625 67.015625 
Q 18.109375 71.875 26.609375 71.875 
Q 32.46875 71.875 37.390625 69.359375 
Q 42.328125 66.84375 44.9375 62.5 
Q 47.5625 58.15625 47.5625 53.265625 
Q 47.5625 48.640625 45.0625 44.828125 
Q 42.578125 41.015625 37.703125 38.765625 
Q 44.046875 37.3125 47.5625 32.6875 
Q 51.078125 28.078125 51.078125 21.140625 
Q 51.078125 11.765625 44.234375 5.25 
Q 37.40625 -1.265625 26.953125 -1.265625 
Q 17.53125 -1.265625 11.296875 4.34375 
Q 5.078125 9.96875 4.203125 18.890625 
z
" id="ArialMT-51"/>
      </defs>
      <g style="fill:#262626;" transform="translate(332.07656 187.653594)scale(0.11 -0.11)">
       <use xlink:href="#ArialMT-57"/>
       <use x="55.615234" xlink:href="#ArialMT-51"/>
       <use x="111.230469" xlink:href="#ArialMT-50"/>
       <use x="166.845703" xlink:href="#ArialMT-48"/>
       <use x="222.460938" xlink:href="#ArialMT-48"/>
       <use x="278.076172" xlink:href="#ArialMT-48"/>
      </g>
     </g>
    </g>
    <g id="xtick_4">
     <g id="line2d_8">
      <path clip-path="url(#pa1c1c2bfc6)" d="M 493.621151 170.28 
L 493.621151 7.2 
" style="fill:none;stroke:#ffffff;stroke-linecap:round;"/>
     </g>
     <g id="line2d_9">
      <g>
       <use style="fill:#262626;stroke:#262626;stroke-width:1.25;" x="493.621151" xlink:href="#mcab4444179" y="170.28"/>
      </g>
     </g>
     <g id="text_4">
      <!-- 936000 -->
      <defs>
       <path d="M 49.75 54.046875 
L 41.015625 53.375 
Q 39.84375 58.546875 37.703125 60.890625 
Q 34.125 64.65625 28.90625 64.65625 
Q 24.703125 64.65625 21.53125 62.3125 
Q 17.390625 59.28125 14.984375 53.46875 
Q 12.59375 47.65625 12.5 36.921875 
Q 15.671875 41.75 20.265625 44.09375 
Q 24.859375 46.4375 29.890625 46.4375 
Q 38.671875 46.4375 44.84375 39.96875 
Q 51.03125 33.5 51.03125 23.25 
Q 51.03125 16.5 48.125 10.71875 
Q 45.21875 4.9375 40.140625 1.859375 
Q 35.0625 -1.21875 28.609375 -1.21875 
Q 17.625 -1.21875 10.6875 6.859375 
Q 3.765625 14.9375 3.765625 33.5 
Q 3.765625 54.25 11.421875 63.671875 
Q 18.109375 71.875 29.4375 71.875 
Q 37.890625 71.875 43.28125 67.140625 
Q 48.6875 62.40625 49.75 54.046875 
z
M 13.875 23.1875 
Q 13.875 18.65625 15.796875 14.5 
Q 17.71875 10.359375 21.1875 8.171875 
Q 24.65625 6 28.46875 6 
Q 34.03125 6 38.03125 10.484375 
Q 42.046875 14.984375 42.046875 22.703125 
Q 42.046875 30.125 38.078125 34.390625 
Q 34.125 38.671875 28.125 38.671875 
Q 22.171875 38.671875 18.015625 34.390625 
Q 13.875 30.125 13.875 23.1875 
z
" id="ArialMT-54"/>
      </defs>
      <g style="fill:#262626;" transform="translate(475.270057 187.653594)scale(0.11 -0.11)">
       <use xlink:href="#ArialMT-57"/>
       <use x="55.615234" xlink:href="#ArialMT-51"/>
       <use x="111.230469" xlink:href="#ArialMT-54"/>
       <use x="166.845703" xlink:href="#ArialMT-48"/>
       <use x="222.460938" xlink:href="#ArialMT-48"/>
       <use x="278.076172" xlink:href="#ArialMT-48"/>
      </g>
     </g>
    </g>
    <g id="xtick_5">
     <g id="line2d_10">
      <path clip-path="url(#pa1c1c2bfc6)" d="M 636.814648 170.28 
L 636.814648 7.2 
" style="fill:none;stroke:#ffffff;stroke-linecap:round;"/>
     </g>
     <g id="line2d_11">
      <g>
       <use style="fill:#262626;stroke:#262626;stroke-width:1.25;" x="636.814648" xlink:href="#mcab4444179" y="170.28"/>
      </g>
     </g>
     <g id="text_5">
      <!-- 940000 -->
      <g style="fill:#262626;" transform="translate(618.463554 187.653594)scale(0.11 -0.11)">
       <use xlink:href="#ArialMT-57"/>
       <use x="55.615234" xlink:href="#ArialMT-52"/>
       <use x="111.230469" xlink:href="#ArialMT-48"/>
       <use x="166.845703" xlink:href="#ArialMT-48"/>
       <use x="222.460938" xlink:href="#ArialMT-48"/>
       <use x="278.076172" xlink:href="#ArialMT-48"/>
      </g>
     </g>
    </g>
    <g id="xtick_6">
     <g id="line2d_12">
      <path clip-path="url(#pa1c1c2bfc6)" d="M 780.008145 170.28 
L 780.008145 7.2 
" style="fill:none;stroke:#ffffff;stroke-linecap:round;"/>
     </g>
     <g id="line2d_13">
      <g>
       <use style="fill:#262626;stroke:#262626;stroke-width:1.25;" x="780.008145" xlink:href="#mcab4444179" y="170.28"/>
      </g>
     </g>
     <g id="text_6">
      <!-- 944000 -->
      <g style="fill:#262626;" transform="translate(761.657051 187.653594)scale(0.11 -0.11)">
       <use xlink:href="#ArialMT-57"/>
       <use x="55.615234" xlink:href="#ArialMT-52"/>
       <use x="111.230469" xlink:href="#ArialMT-52"/>
       <use x="166.845703" xlink:href="#ArialMT-48"/>
       <use x="222.460938" xlink:href="#ArialMT-48"/>
       <use x="278.076172" xlink:href="#ArialMT-48"/>
      </g>
     </g>
    </g>
    <g id="xtick_7">
     <g id="line2d_14">
      <path clip-path="url(#pa1c1c2bfc6)" d="M 923.201642 170.28 
L 923.201642 7.2 
" style="fill:none;stroke:#ffffff;stroke-linecap:round;"/>
     </g>
     <g id="line2d_15">
      <g>
       <use style="fill:#262626;stroke:#262626;stroke-width:1.25;" x="923.201642" xlink:href="#mcab4444179" y="170.28"/>
      </g>
     </g>
     <g id="text_7">
      <!-- 948000 -->
      <g style="fill:#262626;" transform="translate(904.850549 187.653594)scale(0.11 -0.11)">
       <use xlink:href="#ArialMT-57"/>
       <use x="55.615234" xlink:href="#ArialMT-52"/>
       <use x="111.230469" xlink:href="#ArialMT-56"/>
       <use x="166.845703" xlink:href="#ArialMT-48"/>
       <use x="222.460938" xlink:href="#ArialMT-48"/>
       <use x="278.076172" xlink:href="#ArialMT-48"/>
      </g>
     </g>
    </g>
    <g id="xtick_8">
     <g id="line2d_16">
      <path clip-path="url(#pa1c1c2bfc6)" d="M 1066.39514 170.28 
L 1066.39514 7.2 
" style="fill:none;stroke:#ffffff;stroke-linecap:round;"/>
     </g>
     <g id="line2d_17">
      <g>
       <use style="fill:#262626;stroke:#262626;stroke-width:1.25;" x="1066.39514" xlink:href="#mcab4444179" y="170.28"/>
      </g>
     </g>
     <g id="text_8">
      <!-- 952000 -->
      <defs>
       <path d="M 4.15625 18.75 
L 13.375 19.53125 
Q 14.40625 12.796875 18.140625 9.390625 
Q 21.875 6 27.15625 6 
Q 33.5 6 37.890625 10.78125 
Q 42.28125 15.578125 42.28125 23.484375 
Q 42.28125 31 38.0625 35.34375 
Q 33.84375 39.703125 27 39.703125 
Q 22.75 39.703125 19.328125 37.765625 
Q 15.921875 35.84375 13.96875 32.765625 
L 5.71875 33.84375 
L 12.640625 70.609375 
L 48.25 70.609375 
L 48.25 62.203125 
L 19.671875 62.203125 
L 15.828125 42.96875 
Q 22.265625 47.46875 29.34375 47.46875 
Q 38.71875 47.46875 45.15625 40.96875 
Q 51.609375 34.46875 51.609375 24.265625 
Q 51.609375 14.546875 45.953125 7.46875 
Q 39.0625 -1.21875 27.15625 -1.21875 
Q 17.390625 -1.21875 11.203125 4.25 
Q 5.03125 9.71875 4.15625 18.75 
z
" id="ArialMT-53"/>
      </defs>
      <g style="fill:#262626;" transform="translate(1048.044046 187.653594)scale(0.11 -0.11)">
       <use xlink:href="#ArialMT-57"/>
       <use x="55.615234" xlink:href="#ArialMT-53"/>
       <use x="111.230469" xlink:href="#ArialMT-50"/>
       <use x="166.845703" xlink:href="#ArialMT-48"/>
       <use x="222.460938" xlink:href="#ArialMT-48"/>
       <use x="278.076172" xlink:href="#ArialMT-48"/>
      </g>
     </g>
    </g>
   </g>
   <g id="line2d_18">
    <path clip-path="url(#pa1c1c2bfc6)" d="M 135.905895 88.74 
L 135.905895 143.1 
" style="fill:none;stroke:#1a1a1a;stroke-linecap:round;stroke-width:0.5;"/>
   </g>
   <g id="line2d_19">
    <path clip-path="url(#pa1c1c2bfc6)" d="M 162.87997 61.56 
L 162.87997 143.1 
" style="fill:none;stroke:#1a1a1a;stroke-linecap:round;stroke-width:0.5;"/>
   </g>
   <g id="line2d_20">
    <path clip-path="url(#pa1c1c2bfc6)" d="M 207.878527 34.38 
L 207.878527 143.1 
" style="fill:none;stroke:#1a1a1a;stroke-linecap:round;stroke-width:0.5;"/>
   </g>
   <g id="line2d_21">
    <path clip-path="url(#pa1c1c2bfc6)" d="M 250.049012 88.74 
L 250.049012 143.1 
" style="fill:none;stroke:#1a1a1a;stroke-linecap:round;stroke-width:0.5;"/>
   </g>
   <g id="line2d_22">
    <path clip-path="url(#pa1c1c2bfc6)" d="M 285.525201 61.56 
L 285.525201 143.1 
" style="fill:none;stroke:#1a1a1a;stroke-linecap:round;stroke-width:0.5;"/>
   </g>
   <g id="line2d_23">
    <path clip-path="url(#pa1c1c2bfc6)" d="M 323.883159 34.38 
L 323.883159 143.1 
" style="fill:none;stroke:#1a1a1a;stroke-linecap:round;stroke-width:0.5;"/>
   </g>
   <g id="line2d_24">
    <path clip-path="url(#pa1c1c2bfc6)" d="M 354.795055 88.74 
L 354.795055 115.92 
" style="fill:none;stroke:#1a1a1a;stroke-linecap:round;stroke-width:0.5;"/>
   </g>
   <g id="line2d_25">
    <path clip-path="url(#pa1c1c2bfc6)" d="M 395.42621 61.56 
L 395.42621 143.1 
" style="fill:none;stroke:#1a1a1a;stroke-linecap:round;stroke-width:0.5;"/>
   </g>
   <g id="line2d_26">
    <path clip-path="url(#pa1c1c2bfc6)" d="M 432.781813 34.38 
L 432.781813 143.1 
" style="fill:none;stroke:#1a1a1a;stroke-linecap:round;stroke-width:0.5;"/>
   </g>
   <g id="line2d_27">
    <path clip-path="url(#pa1c1c2bfc6)" d="M 473.896246 88.74 
L 473.896246 143.1 
" style="fill:none;stroke:#1a1a1a;stroke-linecap:round;stroke-width:0.5;"/>
   </g>
   <g id="line2d_28">
    <path clip-path="url(#pa1c1c2bfc6)" d="M 513.990426 61.56 
L 513.990426 143.1 
" style="fill:none;stroke:#1a1a1a;stroke-linecap:round;stroke-width:0.5;"/>
   </g>
   <g id="line2d_29">
    <path clip-path="url(#pa1c1c2bfc6)" d="M 559.25747 34.38 
L 559.25747 115.92 
" style="fill:none;stroke:#1a1a1a;stroke-linecap:round;stroke-width:0.5;"/>
   </g>
   <g id="line2d_30">
    <path clip-path="url(#pa1c1c2bfc6)" d="M 598.277698 88.74 
L 598.277698 143.1 
" style="fill:none;stroke:#1a1a1a;stroke-linecap:round;stroke-width:0.5;"/>
   </g>
   <g id="line2d_31">
    <path clip-path="url(#pa1c1c2bfc6)" d="M 645.907435 61.56 
L 645.907435 143.1 
" style="fill:none;stroke:#1a1a1a;stroke-linecap:round;stroke-width:0.5;"/>
   </g>
   <g id="line2d_32">
    <path clip-path="url(#pa1c1c2bfc6)" d="M 690.565907 88.74 
L 690.565907 143.1 
" style="fill:none;stroke:#1a1a1a;stroke-linecap:round;stroke-width:0.5;"/>
   </g>
   <g id="line2d_33">
    <path clip-path="url(#pa1c1c2bfc6)" d="M 771.613426 61.56 
L 771.613426 143.1 
" style="fill:none;stroke:#1a1a1a;stroke-linecap:round;stroke-width:0.5;"/>
   </g>
   <g id="line2d_34">
    <path clip-path="url(#pa1c1c2bfc6)" d="M 819.189466 88.74 
L 819.189466 143.1 
" style="fill:none;stroke:#1a1a1a;stroke-linecap:round;stroke-width:0.5;"/>
   </g>
   <g id="line2d_35">
    <path clip-path="url(#pa1c1c2bfc6)" d="M 876.055183 61.56 
L 876.055183 143.1 
" style="fill:none;stroke:#1a1a1a;stroke-linecap:round;stroke-width:0.5;"/>
   </g>
   <g id="line2d_36">
    <path clip-path="url(#pa1c1c2bfc6)" d="M 912.67692 88.74 
L 912.67692 115.92 
" style="fill:none;stroke:#1a1a1a;stroke-linecap:round;stroke-width:0.5;"/>
   </g>
   <g id="line2d_37">
    <path clip-path="url(#pa1c1c2bfc6)" d="M 964.835152 61.56 
L 964.835152 143.1 
" style="fill:none;stroke:#1a1a1a;stroke-linecap:round;stroke-width:0.5;"/>
   </g>
   <g id="text_9">
    <g id="patch_22">
     <path d="M 101.967458 97.136953 
L 169.844333 97.136953 
Q 173.144333 97.136953 173.144333 93.836953 
L 173.144333 83.643047 
Q 173.144333 80.343047 169.844333 80.343047 
L 101.967458 80.343047 
Q 98.667458 80.343047 98.667458 83.643047 
L 98.667458 93.836953 
Q 98.667458 97.136953 101.967458 97.136953 
z
" style="fill:#ffffff;stroke:#808080;stroke-linejoin:miter;"/>
    </g>
    <!-- MASE_04015 -->
    <defs>
     <path d="M 7.421875 0 
L 7.421875 71.578125 
L 21.6875 71.578125 
L 38.625 20.90625 
Q 40.96875 13.8125 42.046875 10.296875 
Q 43.265625 14.203125 45.84375 21.78125 
L 62.984375 71.578125 
L 75.734375 71.578125 
L 75.734375 0 
L 66.609375 0 
L 66.609375 59.90625 
L 45.796875 0 
L 37.25 0 
L 16.546875 60.9375 
L 16.546875 0 
z
" id="ArialMT-77"/>
     <path d="M -0.140625 0 
L 27.34375 71.578125 
L 37.546875 71.578125 
L 66.84375 0 
L 56.0625 0 
L 47.703125 21.6875 
L 17.78125 21.6875 
L 9.90625 0 
z
M 20.515625 29.390625 
L 44.78125 29.390625 
L 37.3125 49.21875 
Q 33.890625 58.25 32.234375 64.0625 
Q 30.859375 57.171875 28.375 50.390625 
z
" id="ArialMT-65"/>
     <path d="M 4.5 23 
L 13.421875 23.78125 
Q 14.0625 18.40625 16.375 14.96875 
Q 18.703125 11.53125 23.578125 9.40625 
Q 28.46875 7.28125 34.578125 7.28125 
Q 39.984375 7.28125 44.140625 8.890625 
Q 48.296875 10.5 50.3125 13.296875 
Q 52.34375 16.109375 52.34375 19.4375 
Q 52.34375 22.796875 50.390625 25.3125 
Q 48.4375 27.828125 43.953125 29.546875 
Q 41.0625 30.671875 31.203125 33.03125 
Q 21.34375 35.40625 17.390625 37.5 
Q 12.25 40.1875 9.734375 44.15625 
Q 7.234375 48.140625 7.234375 53.078125 
Q 7.234375 58.5 10.296875 63.203125 
Q 13.375 67.921875 19.28125 70.359375 
Q 25.203125 72.796875 32.421875 72.796875 
Q 40.375 72.796875 46.453125 70.234375 
Q 52.546875 67.671875 55.8125 62.6875 
Q 59.078125 57.71875 59.328125 51.421875 
L 50.25 50.734375 
Q 49.515625 57.515625 45.28125 60.984375 
Q 41.0625 64.453125 32.8125 64.453125 
Q 24.21875 64.453125 20.28125 61.296875 
Q 16.359375 58.15625 16.359375 53.71875 
Q 16.359375 49.859375 19.140625 47.359375 
Q 21.875 44.875 33.421875 42.265625 
Q 44.96875 39.65625 49.265625 37.703125 
Q 55.515625 34.8125 58.484375 30.390625 
Q 61.46875 25.984375 61.46875 20.21875 
Q 61.46875 14.5 58.203125 9.4375 
Q 54.9375 4.390625 48.796875 1.578125 
Q 42.671875 -1.21875 35.015625 -1.21875 
Q 25.296875 -1.21875 18.71875 1.609375 
Q 12.15625 4.4375 8.421875 10.125 
Q 4.6875 15.828125 4.5 23 
z
" id="ArialMT-83"/>
     <path d="M 7.90625 0 
L 7.90625 71.578125 
L 59.671875 71.578125 
L 59.671875 63.140625 
L 17.390625 63.140625 
L 17.390625 41.21875 
L 56.984375 41.21875 
L 56.984375 32.8125 
L 17.390625 32.8125 
L 17.390625 8.453125 
L 61.328125 8.453125 
L 61.328125 0 
z
" id="ArialMT-69"/>
     <path d="M -1.515625 -19.875 
L -1.515625 -13.53125 
L 56.734375 -13.53125 
L 56.734375 -19.875 
z
" id="ArialMT-95"/>
     <path d="M 37.25 0 
L 28.46875 0 
L 28.46875 56 
Q 25.296875 52.984375 20.140625 49.953125 
Q 14.984375 46.921875 10.890625 45.40625 
L 10.890625 53.90625 
Q 18.265625 57.375 23.78125 62.296875 
Q 29.296875 67.234375 31.59375 71.875 
L 37.25 71.875 
z
" id="ArialMT-49"/>
    </defs>
    <g style="fill:#262626;" transform="translate(101.967458 91.650703)scale(0.11 -0.11)">
     <use xlink:href="#ArialMT-77"/>
     <use x="83.300781" xlink:href="#ArialMT-65"/>
     <use x="150" xlink:href="#ArialMT-83"/>
     <use x="216.699219" xlink:href="#ArialMT-69"/>
     <use x="283.398438" xlink:href="#ArialMT-95"/>
     <use x="339.013672" xlink:href="#ArialMT-48"/>
     <use x="394.628906" xlink:href="#ArialMT-52"/>
     <use x="450.244141" xlink:href="#ArialMT-48"/>
     <use x="505.859375" xlink:href="#ArialMT-49"/>
     <use x="561.474609" xlink:href="#ArialMT-53"/>
    </g>
   </g>
   <g id="text_10">
    <g id="patch_23">
     <path d="M 128.941533 69.956953 
L 196.818408 69.956953 
Q 200.118408 69.956953 200.118408 66.656953 
L 200.118408 56.463047 
Q 200.118408 53.163047 196.818408 53.163047 
L 128.941533 53.163047 
Q 125.641533 53.163047 125.641533 56.463047 
L 125.641533 66.656953 
Q 125.641533 69.956953 128.941533 69.956953 
z
" style="fill:#ffffff;stroke:#808080;stroke-linejoin:miter;"/>
    </g>
    <!-- MASE_04020 -->
    <g style="fill:#262626;" transform="translate(128.941533 64.470703)scale(0.11 -0.11)">
     <use xlink:href="#ArialMT-77"/>
     <use x="83.300781" xlink:href="#ArialMT-65"/>
     <use x="150" xlink:href="#ArialMT-83"/>
     <use x="216.699219" xlink:href="#ArialMT-69"/>
     <use x="283.398438" xlink:href="#ArialMT-95"/>
     <use x="339.013672" xlink:href="#ArialMT-48"/>
     <use x="394.628906" xlink:href="#ArialMT-52"/>
     <use x="450.244141" xlink:href="#ArialMT-48"/>
     <use x="505.859375" xlink:href="#ArialMT-50"/>
     <use x="561.474609" xlink:href="#ArialMT-48"/>
    </g>
   </g>
   <g id="text_11">
    <g id="patch_24">
     <path d="M 173.940089 42.776953 
L 241.816964 42.776953 
Q 245.116964 42.776953 245.116964 39.476953 
L 245.116964 29.283047 
Q 245.116964 25.983047 241.816964 25.983047 
L 173.940089 25.983047 
Q 170.640089 25.983047 170.640089 29.283047 
L 170.640089 39.476953 
Q 170.640089 42.776953 173.940089 42.776953 
z
" style="fill:#ffffff;stroke:#808080;stroke-linejoin:miter;"/>
    </g>
    <!-- MASE_04025 -->
    <g style="fill:#262626;" transform="translate(173.940089 37.290703)scale(0.11 -0.11)">
     <use xlink:href="#ArialMT-77"/>
     <use x="83.300781" xlink:href="#ArialMT-65"/>
     <use x="150" xlink:href="#ArialMT-83"/>
     <use x="216.699219" xlink:href="#ArialMT-69"/>
     <use x="283.398438" xlink:href="#ArialMT-95"/>
     <use x="339.013672" xlink:href="#ArialMT-48"/>
     <use x="394.628906" xlink:href="#ArialMT-52"/>
     <use x="450.244141" xlink:href="#ArialMT-48"/>
     <use x="505.859375" xlink:href="#ArialMT-50"/>
     <use x="561.474609" xlink:href="#ArialMT-53"/>
    </g>
   </g>
   <g id="text_12">
    <g id="patch_25">
     <path d="M 216.110574 97.136953 
L 283.987449 97.136953 
Q 287.287449 97.136953 287.287449 93.836953 
L 287.287449 83.643047 
Q 287.287449 80.343047 283.987449 80.343047 
L 216.110574 80.343047 
Q 212.810574 80.343047 212.810574 83.643047 
L 212.810574 93.836953 
Q 212.810574 97.136953 216.110574 97.136953 
z
" style="fill:#ffffff;stroke:#808080;stroke-linejoin:miter;"/>
    </g>
    <!-- MASE_04030 -->
    <g style="fill:#262626;" transform="translate(216.110574 91.650703)scale(0.11 -0.11)">
     <use xlink:href="#ArialMT-77"/>
     <use x="83.300781" xlink:href="#ArialMT-65"/>
     <use x="150" xlink:href="#ArialMT-83"/>
     <use x="216.699219" xlink:href="#ArialMT-69"/>
     <use x="283.398438" xlink:href="#ArialMT-95"/>
     <use x="339.013672" xlink:href="#ArialMT-48"/>
     <use x="394.628906" xlink:href="#ArialMT-52"/>
     <use x="450.244141" xlink:href="#ArialMT-48"/>
     <use x="505.859375" xlink:href="#ArialMT-51"/>
     <use x="561.474609" xlink:href="#ArialMT-48"/>
    </g>
   </g>
   <g id="text_13">
    <g id="patch_26">
     <path d="M 251.586763 69.956953 
L 319.463638 69.956953 
Q 322.763638 69.956953 322.763638 66.656953 
L 322.763638 56.463047 
Q 322.763638 53.163047 319.463638 53.163047 
L 251.586763 53.163047 
Q 248.286763 53.163047 248.286763 56.463047 
L 248.286763 66.656953 
Q 248.286763 69.956953 251.586763 69.956953 
z
" style="fill:#ffffff;stroke:#808080;stroke-linejoin:miter;"/>
    </g>
    <!-- MASE_04035 -->
    <g style="fill:#262626;" transform="translate(251.586763 64.470703)scale(0.11 -0.11)">
     <use xlink:href="#ArialMT-77"/>
     <use x="83.300781" xlink:href="#ArialMT-65"/>
     <use x="150" xlink:href="#ArialMT-83"/>
     <use x="216.699219" xlink:href="#ArialMT-69"/>
     <use x="283.398438" xlink:href="#ArialMT-95"/>
     <use x="339.013672" xlink:href="#ArialMT-48"/>
     <use x="394.628906" xlink:href="#ArialMT-52"/>
     <use x="450.244141" xlink:href="#ArialMT-48"/>
     <use x="505.859375" xlink:href="#ArialMT-51"/>
     <use x="561.474609" xlink:href="#ArialMT-53"/>
    </g>
   </g>
   <g id="text_14">
    <g id="patch_27">
     <path d="M 289.944721 42.776953 
L 357.821596 42.776953 
Q 361.121596 42.776953 361.121596 39.476953 
L 361.121596 29.283047 
Q 361.121596 25.983047 357.821596 25.983047 
L 289.944721 25.983047 
Q 286.644721 25.983047 286.644721 29.283047 
L 286.644721 39.476953 
Q 286.644721 42.776953 289.944721 42.776953 
z
" style="fill:#ffffff;stroke:#808080;stroke-linejoin:miter;"/>
    </g>
    <!-- MASE_04040 -->
    <g style="fill:#262626;" transform="translate(289.944721 37.290703)scale(0.11 -0.11)">
     <use xlink:href="#ArialMT-77"/>
     <use x="83.300781" xlink:href="#ArialMT-65"/>
     <use x="150" xlink:href="#ArialMT-83"/>
     <use x="216.699219" xlink:href="#ArialMT-69"/>
     <use x="283.398438" xlink:href="#ArialMT-95"/>
     <use x="339.013672" xlink:href="#ArialMT-48"/>
     <use x="394.628906" xlink:href="#ArialMT-52"/>
     <use x="450.244141" xlink:href="#ArialMT-48"/>
     <use x="505.859375" xlink:href="#ArialMT-52"/>
     <use x="561.474609" xlink:href="#ArialMT-48"/>
    </g>
   </g>
   <g id="text_15">
    <g id="patch_28">
     <path d="M 320.856617 97.136953 
L 388.733492 97.136953 
Q 392.033492 97.136953 392.033492 93.836953 
L 392.033492 83.643047 
Q 392.033492 80.343047 388.733492 80.343047 
L 320.856617 80.343047 
Q 317.556617 80.343047 317.556617 83.643047 
L 317.556617 93.836953 
Q 317.556617 97.136953 320.856617 97.136953 
z
" style="fill:#ffffff;stroke:#808080;stroke-linejoin:miter;"/>
    </g>
    <!-- MASE_04045 -->
    <g style="fill:#262626;" transform="translate(320.856617 91.650703)scale(0.11 -0.11)">
     <use xlink:href="#ArialMT-77"/>
     <use x="83.300781" xlink:href="#ArialMT-65"/>
     <use x="150" xlink:href="#ArialMT-83"/>
     <use x="216.699219" xlink:href="#ArialMT-69"/>
     <use x="283.398438" xlink:href="#ArialMT-95"/>
     <use x="339.013672" xlink:href="#ArialMT-48"/>
     <use x="394.628906" xlink:href="#ArialMT-52"/>
     <use x="450.244141" xlink:href="#ArialMT-48"/>
     <use x="505.859375" xlink:href="#ArialMT-52"/>
     <use x="561.474609" xlink:href="#ArialMT-53"/>
    </g>
   </g>
   <g id="text_16">
    <g id="patch_29">
     <path d="M 361.487772 69.956953 
L 429.364647 69.956953 
Q 432.664647 69.956953 432.664647 66.656953 
L 432.664647 56.463047 
Q 432.664647 53.163047 429.364647 53.163047 
L 361.487772 53.163047 
Q 358.187772 53.163047 358.187772 56.463047 
L 358.187772 66.656953 
Q 358.187772 69.956953 361.487772 69.956953 
z
" style="fill:#ffffff;stroke:#808080;stroke-linejoin:miter;"/>
    </g>
    <!-- MASE_04050 -->
    <g style="fill:#262626;" transform="translate(361.487772 64.470703)scale(0.11 -0.11)">
     <use xlink:href="#ArialMT-77"/>
     <use x="83.300781" xlink:href="#ArialMT-65"/>
     <use x="150" xlink:href="#ArialMT-83"/>
     <use x="216.699219" xlink:href="#ArialMT-69"/>
     <use x="283.398438" xlink:href="#ArialMT-95"/>
     <use x="339.013672" xlink:href="#ArialMT-48"/>
     <use x="394.628906" xlink:href="#ArialMT-52"/>
     <use x="450.244141" xlink:href="#ArialMT-48"/>
     <use x="505.859375" xlink:href="#ArialMT-53"/>
     <use x="561.474609" xlink:href="#ArialMT-48"/>
    </g>
   </g>
   <g id="text_17">
    <g id="patch_30">
     <path d="M 398.843376 42.776953 
L 466.720251 42.776953 
Q 470.020251 42.776953 470.020251 39.476953 
L 470.020251 29.283047 
Q 470.020251 25.983047 466.720251 25.983047 
L 398.843376 25.983047 
Q 395.543376 25.983047 395.543376 29.283047 
L 395.543376 39.476953 
Q 395.543376 42.776953 398.843376 42.776953 
z
" style="fill:#ffffff;stroke:#808080;stroke-linejoin:miter;"/>
    </g>
    <!-- MASE_04055 -->
    <g style="fill:#262626;" transform="translate(398.843376 37.290703)scale(0.11 -0.11)">
     <use xlink:href="#ArialMT-77"/>
     <use x="83.300781" xlink:href="#ArialMT-65"/>
     <use x="150" xlink:href="#ArialMT-83"/>
     <use x="216.699219" xlink:href="#ArialMT-69"/>
     <use x="283.398438" xlink:href="#ArialMT-95"/>
     <use x="339.013672" xlink:href="#ArialMT-48"/>
     <use x="394.628906" xlink:href="#ArialMT-52"/>
     <use x="450.244141" xlink:href="#ArialMT-48"/>
     <use x="505.859375" xlink:href="#ArialMT-53"/>
     <use x="561.474609" xlink:href="#ArialMT-53"/>
    </g>
   </g>
   <g id="text_18">
    <g id="patch_31">
     <path d="M 439.957809 97.136953 
L 507.834684 97.136953 
Q 511.134684 97.136953 511.134684 93.836953 
L 511.134684 83.643047 
Q 511.134684 80.343047 507.834684 80.343047 
L 439.957809 80.343047 
Q 436.657809 80.343047 436.657809 83.643047 
L 436.657809 93.836953 
Q 436.657809 97.136953 439.957809 97.136953 
z
" style="fill:#ffffff;stroke:#808080;stroke-linejoin:miter;"/>
    </g>
    <!-- MASE_04060 -->
    <g style="fill:#262626;" transform="translate(439.957809 91.650703)scale(0.11 -0.11)">
     <use xlink:href="#ArialMT-77"/>
     <use x="83.300781" xlink:href="#ArialMT-65"/>
     <use x="150" xlink:href="#ArialMT-83"/>
     <use x="216.699219" xlink:href="#ArialMT-69"/>
     <use x="283.398438" xlink:href="#ArialMT-95"/>
     <use x="339.013672" xlink:href="#ArialMT-48"/>
     <use x="394.628906" xlink:href="#ArialMT-52"/>
     <use x="450.244141" xlink:href="#ArialMT-48"/>
     <use x="505.859375" xlink:href="#ArialMT-54"/>
     <use x="561.474609" xlink:href="#ArialMT-48"/>
    </g>
   </g>
   <g id="text_19">
    <g id="patch_32">
     <path d="M 480.051988 69.956953 
L 547.928863 69.956953 
Q 551.228863 69.956953 551.228863 66.656953 
L 551.228863 56.463047 
Q 551.228863 53.163047 547.928863 53.163047 
L 480.051988 53.163047 
Q 476.751988 53.163047 476.751988 56.463047 
L 476.751988 66.656953 
Q 476.751988 69.956953 480.051988 69.956953 
z
" style="fill:#ffffff;stroke:#808080;stroke-linejoin:miter;"/>
    </g>
    <!-- MASE_04065 -->
    <g style="fill:#262626;" transform="translate(480.051988 64.470703)scale(0.11 -0.11)">
     <use xlink:href="#ArialMT-77"/>
     <use x="83.300781" xlink:href="#ArialMT-65"/>
     <use x="150" xlink:href="#ArialMT-83"/>
     <use x="216.699219" xlink:href="#ArialMT-69"/>
     <use x="283.398438" xlink:href="#ArialMT-95"/>
     <use x="339.013672" xlink:href="#ArialMT-48"/>
     <use x="394.628906" xlink:href="#ArialMT-52"/>
     <use x="450.244141" xlink:href="#ArialMT-48"/>
     <use x="505.859375" xlink:href="#ArialMT-54"/>
     <use x="561.474609" xlink:href="#ArialMT-53"/>
    </g>
   </g>
   <g id="text_20">
    <g id="patch_33">
     <path d="M 525.319032 42.776953 
L 593.195907 42.776953 
Q 596.495907 42.776953 596.495907 39.476953 
L 596.495907 29.283047 
Q 596.495907 25.983047 593.195907 25.983047 
L 525.319032 25.983047 
Q 522.019032 25.983047 522.019032 29.283047 
L 522.019032 39.476953 
Q 522.019032 42.776953 525.319032 42.776953 
z
" style="fill:#ffffff;stroke:#808080;stroke-linejoin:miter;"/>
    </g>
    <!-- MASE_04070 -->
    <defs>
     <path d="M 4.734375 62.203125 
L 4.734375 70.65625 
L 51.078125 70.65625 
L 51.078125 63.8125 
Q 44.234375 56.546875 37.515625 44.484375 
Q 30.8125 32.421875 27.15625 19.671875 
Q 24.515625 10.6875 23.78125 0 
L 14.75 0 
Q 14.890625 8.453125 18.0625 20.40625 
Q 21.234375 32.375 27.171875 43.484375 
Q 33.109375 54.59375 39.796875 62.203125 
z
" id="ArialMT-55"/>
    </defs>
    <g style="fill:#262626;" transform="translate(525.319032 37.290703)scale(0.11 -0.11)">
     <use xlink:href="#ArialMT-77"/>
     <use x="83.300781" xlink:href="#ArialMT-65"/>
     <use x="150" xlink:href="#ArialMT-83"/>
     <use x="216.699219" xlink:href="#ArialMT-69"/>
     <use x="283.398438" xlink:href="#ArialMT-95"/>
     <use x="339.013672" xlink:href="#ArialMT-48"/>
     <use x="394.628906" xlink:href="#ArialMT-52"/>
     <use x="450.244141" xlink:href="#ArialMT-48"/>
     <use x="505.859375" xlink:href="#ArialMT-55"/>
     <use x="561.474609" xlink:href="#ArialMT-48"/>
    </g>
   </g>
   <g id="text_21">
    <g id="patch_34">
     <path d="M 564.33926 97.136953 
L 632.216135 97.136953 
Q 635.516135 97.136953 635.516135 93.836953 
L 635.516135 83.643047 
Q 635.516135 80.343047 632.216135 80.343047 
L 564.33926 80.343047 
Q 561.03926 80.343047 561.03926 83.643047 
L 561.03926 93.836953 
Q 561.03926 97.136953 564.33926 97.136953 
z
" style="fill:#ffffff;stroke:#808080;stroke-linejoin:miter;"/>
    </g>
    <!-- MASE_04075 -->
    <g style="fill:#262626;" transform="translate(564.33926 91.650703)scale(0.11 -0.11)">
     <use xlink:href="#ArialMT-77"/>
     <use x="83.300781" xlink:href="#ArialMT-65"/>
     <use x="150" xlink:href="#ArialMT-83"/>
     <use x="216.699219" xlink:href="#ArialMT-69"/>
     <use x="283.398438" xlink:href="#ArialMT-95"/>
     <use x="339.013672" xlink:href="#ArialMT-48"/>
     <use x="394.628906" xlink:href="#ArialMT-52"/>
     <use x="450.244141" xlink:href="#ArialMT-48"/>
     <use x="505.859375" xlink:href="#ArialMT-55"/>
     <use x="561.474609" xlink:href="#ArialMT-53"/>
    </g>
   </g>
   <g id="text_22">
    <g id="patch_35">
     <path d="M 611.968997 69.956953 
L 679.845872 69.956953 
Q 683.145872 69.956953 683.145872 66.656953 
L 683.145872 56.463047 
Q 683.145872 53.163047 679.845872 53.163047 
L 611.968997 53.163047 
Q 608.668997 53.163047 608.668997 56.463047 
L 608.668997 66.656953 
Q 608.668997 69.956953 611.968997 69.956953 
z
" style="fill:#ffffff;stroke:#808080;stroke-linejoin:miter;"/>
    </g>
    <!-- MASE_04080 -->
    <g style="fill:#262626;" transform="translate(611.968997 64.470703)scale(0.11 -0.11)">
     <use xlink:href="#ArialMT-77"/>
     <use x="83.300781" xlink:href="#ArialMT-65"/>
     <use x="150" xlink:href="#ArialMT-83"/>
     <use x="216.699219" xlink:href="#ArialMT-69"/>
     <use x="283.398438" xlink:href="#ArialMT-95"/>
     <use x="339.013672" xlink:href="#ArialMT-48"/>
     <use x="394.628906" xlink:href="#ArialMT-52"/>
     <use x="450.244141" xlink:href="#ArialMT-48"/>
     <use x="505.859375" xlink:href="#ArialMT-56"/>
     <use x="561.474609" xlink:href="#ArialMT-48"/>
    </g>
   </g>
   <g id="text_23">
    <g id="patch_36">
     <path d="M 656.627469 97.136953 
L 724.504344 97.136953 
Q 727.804344 97.136953 727.804344 93.836953 
L 727.804344 83.643047 
Q 727.804344 80.343047 724.504344 80.343047 
L 656.627469 80.343047 
Q 653.327469 80.343047 653.327469 83.643047 
L 653.327469 93.836953 
Q 653.327469 97.136953 656.627469 97.136953 
z
" style="fill:#ffffff;stroke:#808080;stroke-linejoin:miter;"/>
    </g>
    <!-- MASE_04085 -->
    <g style="fill:#262626;" transform="translate(656.627469 91.650703)scale(0.11 -0.11)">
     <use xlink:href="#ArialMT-77"/>
     <use x="83.300781" xlink:href="#ArialMT-65"/>
     <use x="150" xlink:href="#ArialMT-83"/>
     <use x="216.699219" xlink:href="#ArialMT-69"/>
     <use x="283.398438" xlink:href="#ArialMT-95"/>
     <use x="339.013672" xlink:href="#ArialMT-48"/>
     <use x="394.628906" xlink:href="#ArialMT-52"/>
     <use x="450.244141" xlink:href="#ArialMT-48"/>
     <use x="505.859375" xlink:href="#ArialMT-56"/>
     <use x="561.474609" xlink:href="#ArialMT-53"/>
    </g>
   </g>
   <g id="text_24">
    <g id="patch_37">
     <path d="M 737.674989 69.956953 
L 805.551864 69.956953 
Q 808.851864 69.956953 808.851864 66.656953 
L 808.851864 56.463047 
Q 808.851864 53.163047 805.551864 53.163047 
L 737.674989 53.163047 
Q 734.374989 53.163047 734.374989 56.463047 
L 734.374989 66.656953 
Q 734.374989 69.956953 737.674989 69.956953 
z
" style="fill:#ffffff;stroke:#808080;stroke-linejoin:miter;"/>
    </g>
    <!-- MASE_04100 -->
    <g style="fill:#262626;" transform="translate(737.674989 64.470703)scale(0.11 -0.11)">
     <use xlink:href="#ArialMT-77"/>
     <use x="83.300781" xlink:href="#ArialMT-65"/>
     <use x="150" xlink:href="#ArialMT-83"/>
     <use x="216.699219" xlink:href="#ArialMT-69"/>
     <use x="283.398438" xlink:href="#ArialMT-95"/>
     <use x="339.013672" xlink:href="#ArialMT-48"/>
     <use x="394.628906" xlink:href="#ArialMT-52"/>
     <use x="450.244141" xlink:href="#ArialMT-49"/>
     <use x="505.859375" xlink:href="#ArialMT-48"/>
     <use x="561.474609" xlink:href="#ArialMT-48"/>
    </g>
   </g>
   <g id="text_25">
    <g id="patch_38">
     <path d="M 785.251028 97.136953 
L 853.127903 97.136953 
Q 856.427903 97.136953 856.427903 93.836953 
L 856.427903 83.643047 
Q 856.427903 80.343047 853.127903 80.343047 
L 785.251028 80.343047 
Q 781.951028 80.343047 781.951028 83.643047 
L 781.951028 93.836953 
Q 781.951028 97.136953 785.251028 97.136953 
z
" style="fill:#ffffff;stroke:#808080;stroke-linejoin:miter;"/>
    </g>
    <!-- MASE_04105 -->
    <g style="fill:#262626;" transform="translate(785.251028 91.650703)scale(0.11 -0.11)">
     <use xlink:href="#ArialMT-77"/>
     <use x="83.300781" xlink:href="#ArialMT-65"/>
     <use x="150" xlink:href="#ArialMT-83"/>
     <use x="216.699219" xlink:href="#ArialMT-69"/>
     <use x="283.398438" xlink:href="#ArialMT-95"/>
     <use x="339.013672" xlink:href="#ArialMT-48"/>
     <use x="394.628906" xlink:href="#ArialMT-52"/>
     <use x="450.244141" xlink:href="#ArialMT-49"/>
     <use x="505.859375" xlink:href="#ArialMT-48"/>
     <use x="561.474609" xlink:href="#ArialMT-53"/>
    </g>
   </g>
   <g id="text_26">
    <g id="patch_39">
     <path d="M 842.122762 69.956953 
L 909.987605 69.956953 
Q 913.287605 69.956953 913.287605 66.656953 
L 913.287605 56.463047 
Q 913.287605 53.163047 909.987605 53.163047 
L 842.122762 53.163047 
Q 838.822762 53.163047 838.822762 56.463047 
L 838.822762 66.656953 
Q 838.822762 69.956953 842.122762 69.956953 
z
" style="fill:#ffffff;stroke:#808080;stroke-linejoin:miter;"/>
    </g>
    <!-- MASE_04110 -->
    <g style="fill:#262626;" transform="translate(842.122762 64.470703)scale(0.11 -0.11)">
     <use xlink:href="#ArialMT-77"/>
     <use x="83.300781" xlink:href="#ArialMT-65"/>
     <use x="150" xlink:href="#ArialMT-83"/>
     <use x="216.699219" xlink:href="#ArialMT-69"/>
     <use x="283.398438" xlink:href="#ArialMT-95"/>
     <use x="339.013672" xlink:href="#ArialMT-48"/>
     <use x="394.628906" xlink:href="#ArialMT-52"/>
     <use x="450.244141" xlink:href="#ArialMT-49"/>
     <use x="505.75" xlink:href="#ArialMT-49"/>
     <use x="561.365234" xlink:href="#ArialMT-48"/>
    </g>
   </g>
   <g id="text_27">
    <g id="patch_40">
     <path d="M 878.744498 97.136953 
L 946.609342 97.136953 
Q 949.909342 97.136953 949.909342 93.836953 
L 949.909342 83.643047 
Q 949.909342 80.343047 946.609342 80.343047 
L 878.744498 80.343047 
Q 875.444498 80.343047 875.444498 83.643047 
L 875.444498 93.836953 
Q 875.444498 97.136953 878.744498 97.136953 
z
" style="fill:#ffffff;stroke:#808080;stroke-linejoin:miter;"/>
    </g>
    <!-- MASE_04115 -->
    <g style="fill:#262626;" transform="translate(878.744498 91.650703)scale(0.11 -0.11)">
     <use xlink:href="#ArialMT-77"/>
     <use x="83.300781" xlink:href="#ArialMT-65"/>
     <use x="150" xlink:href="#ArialMT-83"/>
     <use x="216.699219" xlink:href="#ArialMT-69"/>
     <use x="283.398438" xlink:href="#ArialMT-95"/>
     <use x="339.013672" xlink:href="#ArialMT-48"/>
     <use x="394.628906" xlink:href="#ArialMT-52"/>
     <use x="450.244141" xlink:href="#ArialMT-49"/>
     <use x="505.75" xlink:href="#ArialMT-49"/>
     <use x="561.365234" xlink:href="#ArialMT-53"/>
    </g>
   </g>
   <g id="text_28">
    <g id="patch_41">
     <path d="M 930.896714 69.956953 
L 998.773589 69.956953 
Q 1002.073589 69.956953 1002.073589 66.656953 
L 1002.073589 56.463047 
Q 1002.073589 53.163047 998.773589 53.163047 
L 930.896714 53.163047 
Q 927.596714 53.163047 927.596714 56.463047 
L 927.596714 66.656953 
Q 927.596714 69.956953 930.896714 69.956953 
z
" style="fill:#ffecec;stroke:#808080;stroke-linejoin:miter;"/>
    </g>
    <!-- MASE_04120 -->
    <g style="fill:#262626;" transform="translate(930.896714 64.470703)scale(0.11 -0.11)">
     <use xlink:href="#ArialMT-77"/>
     <use x="83.300781" xlink:href="#ArialMT-65"/>
     <use x="150" xlink:href="#ArialMT-83"/>
     <use x="216.699219" xlink:href="#ArialMT-69"/>
     <use x="283.398438" xlink:href="#ArialMT-95"/>
     <use x="339.013672" xlink:href="#ArialMT-48"/>
     <use x="394.628906" xlink:href="#ArialMT-52"/>
     <use x="450.244141" xlink:href="#ArialMT-49"/>
     <use x="505.859375" xlink:href="#ArialMT-50"/>
     <use x="561.474609" xlink:href="#ArialMT-48"/>
    </g>
   </g>
  </g>
 </g>
 <defs>
  <clipPath id="pa1c1c2bfc6">
   <rect height="163.08" width="1116" x="7.2" y="7.2"/>
  </clipPath>
 </defs>
</svg>
