<?xml version="1.0" encoding="utf-8" standalone="no"?>
<!DOCTYPE svg PUBLIC "-//W3C//DTD SVG 1.1//EN"
  "http://www.w3.org/Graphics/SVG/1.1/DTD/svg11.dtd">
<!-- Created with matplotlib (https://matplotlib.org/) -->
<svg height="197.039844pt" version="1.1" viewBox="0 0 1130.4 197.039844" width="1130.4pt" xmlns="http://www.w3.org/2000/svg" xmlns:xlink="http://www.w3.org/1999/xlink">
 <defs>
  <style type="text/css">
*{stroke-linecap:butt;stroke-linejoin:round;}
  </style>
 </defs>
 <g id="figure_1">
  <g id="patch_1">
   <path d="M 0 197.039844 
L 1130.4 197.039844 
L 1130.4 0 
L 0 0 
z
" style="fill:#ffffff;"/>
  </g>
  <g id="axes_1">
   <g id="line2d_1">
    <path clip-path="url(#p7d79a48544)" d="M 7.2 143.1 
L 1123.2 143.1 
" style="fill:none;stroke:#1a1a1a;stroke-linecap:round;stroke-width:1.5;"/>
   </g>
   <g id="patch_2">
    <path clip-path="url(#p7d79a48544)" d="M 437.900981 150.1 
Q 420.479417 150.1 403.057853 150.1 
L 403.057853 150.1 
Q 398.857199 146.6 394.656545 143.1 
Q 398.857199 139.6 403.057853 136.1 
L 403.057853 136.1 
Q 420.479417 136.1 437.900981 136.1 
L 437.900981 150.1 
z
" style="fill:#003399;fill-opacity:0.85;stroke:#000000;stroke-linecap:round;"/>
   </g>
   <g id="patch_3">
    <path clip-path="url(#p7d79a48544)" d="M 521.740774 150.1 
Q 487.34978 150.1 452.958786 150.1 
L 452.958786 150.1 
Q 448.759132 146.6 444.559479 143.1 
Q 448.759132 139.6 452.958786 136.1 
L 452.958786 136.1 
Q 487.34978 136.1 521.740774 136.1 
L 521.740774 150.1 
z
" style="fill:#ff0000;fill-opacity:0.85;stroke:#000000;stroke-linecap:round;"/>
   </g>
   <g id="patch_4">
    <path clip-path="url(#p7d79a48544)" d="M 533.948019 136.1 
Q 537.140669 136.1 540.333318 136.1 
L 540.333318 136.1 
Q 544.533033 139.6 548.732748 143.1 
Q 544.533033 146.6 540.333318 150.1 
L 540.333318 150.1 
Q 537.140669 150.1 533.948019 150.1 
L 533.948019 136.1 
z
" style="fill:#ffffff;fill-opacity:0.85;stroke:#000000;stroke-linecap:round;"/>
   </g>
   <g id="patch_5">
    <path clip-path="url(#p7d79a48544)" d="M 590.688443 150.1 
Q 574.017812 150.1 557.347182 150.1 
L 557.347182 150.1 
Q 553.14736 146.6 548.947538 143.1 
Q 553.14736 139.6 557.347182 136.1 
L 557.347182 136.1 
Q 574.017812 136.1 590.688443 136.1 
L 590.688443 150.1 
z
" style="fill:#ffffff;fill-opacity:0.85;stroke:#000000;stroke-linecap:round;"/>
   </g>
   <g id="patch_6">
    <path clip-path="url(#p7d79a48544)" d="M 599.817028 136.1 
Q 631.629682 136.1 663.442337 136.1 
L 663.442337 136.1 
Q 667.642847 139.6 671.843357 143.1 
Q 667.642847 146.6 663.442337 150.1 
L 663.442337 150.1 
Q 631.629682 150.1 599.817028 150.1 
L 599.817028 136.1 
z
" style="fill:#ffffff;fill-opacity:0.85;stroke:#000000;stroke-linecap:round;"/>
   </g>
   <g id="patch_7">
    <path clip-path="url(#p7d79a48544)" d="M 700.732645 150.1 
Q 693.297775 150.1 685.862904 150.1 
L 685.862904 150.1 
Q 681.663303 146.6 677.463702 143.1 
Q 681.663303 139.6 685.862904 136.1 
L 685.862904 136.1 
Q 693.297775 136.1 700.732645 136.1 
L 700.732645 150.1 
z
" style="fill:#ffffff;fill-opacity:0.85;stroke:#000000;stroke-linecap:round;"/>
   </g>
   <g id="patch_8">
    <path clip-path="url(#p7d79a48544)" d="M 735.743455 150.1 
Q 723.960347 150.1 712.177239 150.1 
L 712.177239 150.1 
Q 707.976373 146.6 703.775507 143.1 
Q 707.976373 139.6 712.177239 136.1 
L 712.177239 136.1 
Q 723.960347 136.1 735.743455 136.1 
L 735.743455 150.1 
z
" style="fill:#999999;fill-opacity:0.85;stroke:#000000;stroke-linecap:round;"/>
   </g>
   <g id="matplotlib.axis_1">
    <g id="xtick_1">
     <g id="line2d_2">
      <path clip-path="url(#p7d79a48544)" d="M 142.653889 170.28 
L 142.653889 7.2 
" style="fill:none;stroke:#ffffff;stroke-linecap:round;"/>
     </g>
     <g id="line2d_3">
      <defs>
       <path d="M 0 0 
L 0 6 
" id="m49eb848149" style="stroke:#262626;stroke-width:1.25;"/>
      </defs>
      <g>
       <use style="fill:#262626;stroke:#262626;stroke-width:1.25;" x="142.653889" xlink:href="#m49eb848149" y="170.28"/>
      </g>
     </g>
     <g id="text_1">
      <!-- 740000 -->
      <defs>
       <path d="M 4.734375 62.203125 
L 4.734375 70.65625 
L 51.078125 70.65625 
L 51.078125 63.8125 
Q 44.234375 56.546875 37.515625 44.484375 
Q 30.8125 32.421875 27.15625 19.671875 
Q 24.515625 10.6875 23.78125 0 
L 14.75 0 
Q 14.890625 8.453125 18.0625 20.40625 
Q 21.234375 32.375 27.171875 43.484375 
Q 33.109375 54.59375 39.796875 62.203125 
z
" id="ArialMT-55"/>
       <path d="M 32.328125 0 
L 32.328125 17.140625 
L 1.265625 17.140625 
L 1.265625 25.203125 
L 33.9375 71.578125 
L 41.109375 71.578125 
L 41.109375 25.203125 
L 50.78125 25.203125 
L 50.78125 17.140625 
L 41.109375 17.140625 
L 41.109375 0 
z
M 32.328125 25.203125 
L 32.328125 57.46875 
L 9.90625 25.203125 
z
" id="ArialMT-52"/>
       <path d="M 4.15625 35.296875 
Q 4.15625 48 6.765625 55.734375 
Q 9.375 63.484375 14.515625 67.671875 
Q 19.671875 71.875 27.484375 71.875 
Q 33.25 71.875 37.59375 69.546875 
Q 41.9375 67.234375 44.765625 62.859375 
Q 47.609375 58.5 49.21875 52.21875 
Q 50.828125 45.953125 50.828125 35.296875 
Q 50.828125 22.703125 48.234375 14.96875 
Q 45.65625 7.234375 40.5 3 
Q 35.359375 -1.21875 27.484375 -1.21875 
Q 17.140625 -1.21875 11.234375 6.203125 
Q 4.15625 15.140625 4.15625 35.296875 
z
M 13.1875 35.296875 
Q 13.1875 17.671875 17.3125 11.828125 
Q 21.4375 6 27.484375 6 
Q 33.546875 6 37.671875 11.859375 
Q 41.796875 17.71875 41.796875 35.296875 
Q 41.796875 52.984375 37.671875 58.78125 
Q 33.546875 64.59375 27.390625 64.59375 
Q 21.34375 64.59375 17.71875 59.46875 
Q 13.1875 52.9375 13.1875 35.296875 
z
" id="ArialMT-48"/>
      </defs>
      <g style="fill:#262626;" transform="translate(124.302795 187.653594)scale(0.11 -0.11)">
       <use xlink:href="#ArialMT-55"/>
       <use x="55.615234" xlink:href="#ArialMT-52"/>
       <use x="111.230469" xlink:href="#ArialMT-48"/>
       <use x="166.845703" xlink:href="#ArialMT-48"/>
       <use x="222.460938" xlink:href="#ArialMT-48"/>
       <use x="278.076172" xlink:href="#ArialMT-48"/>
      </g>
     </g>
    </g>
    <g id="xtick_2">
     <g id="line2d_4">
      <path clip-path="url(#p7d79a48544)" d="M 285.847386 170.28 
L 285.847386 7.2 
" style="fill:none;stroke:#ffffff;stroke-linecap:round;"/>
     </g>
     <g id="line2d_5">
      <g>
       <use style="fill:#262626;stroke:#262626;stroke-width:1.25;" x="285.847386" xlink:href="#m49eb848149" y="170.28"/>
      </g>
     </g>
     <g id="text_2">
      <!-- 744000 -->
      <g style="fill:#262626;" transform="translate(267.496292 187.653594)scale(0.11 -0.11)">
       <use xlink:href="#ArialMT-55"/>
       <use x="55.615234" xlink:href="#ArialMT-52"/>
       <use x="111.230469" xlink:href="#ArialMT-52"/>
       <use x="166.845703" xlink:href="#ArialMT-48"/>
       <use x="222.460938" xlink:href="#ArialMT-48"/>
       <use x="278.076172" xlink:href="#ArialMT-48"/>
      </g>
     </g>
    </g>
    <g id="xtick_3">
     <g id="line2d_6">
      <path clip-path="url(#p7d79a48544)" d="M 429.040883 170.28 
L 429.040883 7.2 
" style="fill:none;stroke:#ffffff;stroke-linecap:round;"/>
     </g>
     <g id="line2d_7">
      <g>
       <use style="fill:#262626;stroke:#262626;stroke-width:1.25;" x="429.040883" xlink:href="#m49eb848149" y="170.28"/>
      </g>
     </g>
     <g id="text_3">
      <!-- 748000 -->
      <defs>
       <path d="M 17.671875 38.8125 
Q 12.203125 40.828125 9.5625 44.53125 
Q 6.9375 48.25 6.9375 53.421875 
Q 6.9375 61.234375 12.546875 66.546875 
Q 18.171875 71.875 27.484375 71.875 
Q 36.859375 71.875 42.578125 66.421875 
Q 48.296875 60.984375 48.296875 53.171875 
Q 48.296875 48.1875 45.671875 44.5 
Q 43.0625 40.828125 37.75 38.8125 
Q 44.34375 36.671875 47.78125 31.875 
Q 51.21875 27.09375 51.21875 20.453125 
Q 51.21875 11.28125 44.71875 5.03125 
Q 38.234375 -1.21875 27.640625 -1.21875 
Q 17.046875 -1.21875 10.546875 5.046875 
Q 4.046875 11.328125 4.046875 20.703125 
Q 4.046875 27.6875 7.59375 32.390625 
Q 11.140625 37.109375 17.671875 38.8125 
z
M 15.921875 53.71875 
Q 15.921875 48.640625 19.1875 45.40625 
Q 22.46875 42.1875 27.6875 42.1875 
Q 32.765625 42.1875 36.015625 45.375 
Q 39.265625 48.578125 39.265625 53.21875 
Q 39.265625 58.0625 35.90625 61.359375 
Q 32.5625 64.65625 27.59375 64.65625 
Q 22.5625 64.65625 19.234375 61.421875 
Q 15.921875 58.203125 15.921875 53.71875 
z
M 13.09375 20.65625 
Q 13.09375 16.890625 14.875 13.375 
Q 16.65625 9.859375 20.171875 7.921875 
Q 23.6875 6 27.734375 6 
Q 34.03125 6 38.125 10.046875 
Q 42.234375 14.109375 42.234375 20.359375 
Q 42.234375 26.703125 38.015625 30.859375 
Q 33.796875 35.015625 27.4375 35.015625 
Q 21.234375 35.015625 17.15625 30.90625 
Q 13.09375 26.8125 13.09375 20.65625 
z
" id="ArialMT-56"/>
      </defs>
      <g style="fill:#262626;" transform="translate(410.68979 187.653594)scale(0.11 -0.11)">
       <use xlink:href="#ArialMT-55"/>
       <use x="55.615234" xlink:href="#ArialMT-52"/>
       <use x="111.230469" xlink:href="#ArialMT-56"/>
       <use x="166.845703" xlink:href="#ArialMT-48"/>
       <use x="222.460938" xlink:href="#ArialMT-48"/>
       <use x="278.076172" xlink:href="#ArialMT-48"/>
      </g>
     </g>
    </g>
    <g id="xtick_4">
     <g id="line2d_8">
      <path clip-path="url(#p7d79a48544)" d="M 572.234381 170.28 
L 572.234381 7.2 
" style="fill:none;stroke:#ffffff;stroke-linecap:round;"/>
     </g>
     <g id="line2d_9">
      <g>
       <use style="fill:#262626;stroke:#262626;stroke-width:1.25;" x="572.234381" xlink:href="#m49eb848149" y="170.28"/>
      </g>
     </g>
     <g id="text_4">
      <!-- 752000 -->
      <defs>
       <path d="M 4.15625 18.75 
L 13.375 19.53125 
Q 14.40625 12.796875 18.140625 9.390625 
Q 21.875 6 27.15625 6 
Q 33.5 6 37.890625 10.78125 
Q 42.28125 15.578125 42.28125 23.484375 
Q 42.28125 31 38.0625 35.34375 
Q 33.84375 39.703125 27 39.703125 
Q 22.75 39.703125 19.328125 37.765625 
Q 15.921875 35.84375 13.96875 32.765625 
L 5.71875 33.84375 
L 12.640625 70.609375 
L 48.25 70.609375 
L 48.25 62.203125 
L 19.671875 62.203125 
L 15.828125 42.96875 
Q 22.265625 47.46875 29.34375 47.46875 
Q 38.71875 47.46875 45.15625 40.96875 
Q 51.609375 34.46875 51.609375 24.265625 
Q 51.609375 14.546875 45.953125 7.46875 
Q 39.0625 -1.21875 27.15625 -1.21875 
Q 17.390625 -1.21875 11.203125 4.25 
Q 5.03125 9.71875 4.15625 18.75 
z
" id="ArialMT-53"/>
       <path d="M 50.34375 8.453125 
L 50.34375 0 
L 3.03125 0 
Q 2.9375 3.171875 4.046875 6.109375 
Q 5.859375 10.9375 9.828125 15.625 
Q 13.8125 20.3125 21.34375 26.46875 
Q 33.015625 36.03125 37.109375 41.625 
Q 41.21875 47.21875 41.21875 52.203125 
Q 41.21875 57.421875 37.46875 61 
Q 33.734375 64.59375 27.734375 64.59375 
Q 21.390625 64.59375 17.578125 60.78125 
Q 13.765625 56.984375 13.71875 50.25 
L 4.6875 51.171875 
Q 5.609375 61.28125 11.65625 66.578125 
Q 17.71875 71.875 27.9375 71.875 
Q 38.234375 71.875 44.234375 66.15625 
Q 50.25 60.453125 50.25 52 
Q 50.25 47.703125 48.484375 43.546875 
Q 46.734375 39.40625 42.65625 34.8125 
Q 38.578125 30.21875 29.109375 22.21875 
Q 21.1875 15.578125 18.9375 13.203125 
Q 16.703125 10.84375 15.234375 8.453125 
z
" id="ArialMT-50"/>
      </defs>
      <g style="fill:#262626;" transform="translate(553.883287 187.653594)scale(0.11 -0.11)">
       <use xlink:href="#ArialMT-55"/>
       <use x="55.615234" xlink:href="#ArialMT-53"/>
       <use x="111.230469" xlink:href="#ArialMT-50"/>
       <use x="166.845703" xlink:href="#ArialMT-48"/>
       <use x="222.460938" xlink:href="#ArialMT-48"/>
       <use x="278.076172" xlink:href="#ArialMT-48"/>
      </g>
     </g>
    </g>
    <g id="xtick_5">
     <g id="line2d_10">
      <path clip-path="url(#p7d79a48544)" d="M 715.427878 170.28 
L 715.427878 7.2 
" style="fill:none;stroke:#ffffff;stroke-linecap:round;"/>
     </g>
     <g id="line2d_11">
      <g>
       <use style="fill:#262626;stroke:#262626;stroke-width:1.25;" x="715.427878" xlink:href="#m49eb848149" y="170.28"/>
      </g>
     </g>
     <g id="text_5">
      <!-- 756000 -->
      <defs>
       <path d="M 49.75 54.046875 
L 41.015625 53.375 
Q 39.84375 58.546875 37.703125 60.890625 
Q 34.125 64.65625 28.90625 64.65625 
Q 24.703125 64.65625 21.53125 62.3125 
Q 17.390625 59.28125 14.984375 53.46875 
Q 12.59375 47.65625 12.5 36.921875 
Q 15.671875 41.75 20.265625 44.09375 
Q 24.859375 46.4375 29.890625 46.4375 
Q 38.671875 46.4375 44.84375 39.96875 
Q 51.03125 33.5 51.03125 23.25 
Q 51.03125 16.5 48.125 10.71875 
Q 45.21875 4.9375 40.140625 1.859375 
Q 35.0625 -1.21875 28.609375 -1.21875 
Q 17.625 -1.21875 10.6875 6.859375 
Q 3.765625 14.9375 3.765625 33.5 
Q 3.765625 54.25 11.421875 63.671875 
Q 18.109375 71.875 29.4375 71.875 
Q 37.890625 71.875 43.28125 67.140625 
Q 48.6875 62.40625 49.75 54.046875 
z
M 13.875 23.1875 
Q 13.875 18.65625 15.796875 14.5 
Q 17.71875 10.359375 21.1875 8.171875 
Q 24.65625 6 28.46875 6 
Q 34.03125 6 38.03125 10.484375 
Q 42.046875 14.984375 42.046875 22.703125 
Q 42.046875 30.125 38.078125 34.390625 
Q 34.125 38.671875 28.125 38.671875 
Q 22.171875 38.671875 18.015625 34.390625 
Q 13.875 30.125 13.875 23.1875 
z
" id="ArialMT-54"/>
      </defs>
      <g style="fill:#262626;" transform="translate(697.076784 187.653594)scale(0.11 -0.11)">
       <use xlink:href="#ArialMT-55"/>
       <use x="55.615234" xlink:href="#ArialMT-53"/>
       <use x="111.230469" xlink:href="#ArialMT-54"/>
       <use x="166.845703" xlink:href="#ArialMT-48"/>
       <use x="222.460938" xlink:href="#ArialMT-48"/>
       <use x="278.076172" xlink:href="#ArialMT-48"/>
      </g>
     </g>
    </g>
    <g id="xtick_6">
     <g id="line2d_12">
      <path clip-path="url(#p7d79a48544)" d="M 858.621375 170.28 
L 858.621375 7.2 
" style="fill:none;stroke:#ffffff;stroke-linecap:round;"/>
     </g>
     <g id="line2d_13">
      <g>
       <use style="fill:#262626;stroke:#262626;stroke-width:1.25;" x="858.621375" xlink:href="#m49eb848149" y="170.28"/>
      </g>
     </g>
     <g id="text_6">
      <!-- 760000 -->
      <g style="fill:#262626;" transform="translate(840.270281 187.653594)scale(0.11 -0.11)">
       <use xlink:href="#ArialMT-55"/>
       <use x="55.615234" xlink:href="#ArialMT-54"/>
       <use x="111.230469" xlink:href="#ArialMT-48"/>
       <use x="166.845703" xlink:href="#ArialMT-48"/>
       <use x="222.460938" xlink:href="#ArialMT-48"/>
       <use x="278.076172" xlink:href="#ArialMT-48"/>
      </g>
     </g>
    </g>
    <g id="xtick_7">
     <g id="line2d_14">
      <path clip-path="url(#p7d79a48544)" d="M 1001.814872 170.28 
L 1001.814872 7.2 
" style="fill:none;stroke:#ffffff;stroke-linecap:round;"/>
     </g>
     <g id="line2d_15">
      <g>
       <use style="fill:#262626;stroke:#262626;stroke-width:1.25;" x="1001.814872" xlink:href="#m49eb848149" y="170.28"/>
      </g>
     </g>
     <g id="text_7">
      <!-- 764000 -->
      <g style="fill:#262626;" transform="translate(983.463779 187.653594)scale(0.11 -0.11)">
       <use xlink:href="#ArialMT-55"/>
       <use x="55.615234" xlink:href="#ArialMT-54"/>
       <use x="111.230469" xlink:href="#ArialMT-52"/>
       <use x="166.845703" xlink:href="#ArialMT-48"/>
       <use x="222.460938" xlink:href="#ArialMT-48"/>
       <use x="278.076172" xlink:href="#ArialMT-48"/>
      </g>
     </g>
    </g>
   </g>
   <g id="line2d_16">
    <path clip-path="url(#p7d79a48544)" d="M 416.296662 88.74 
L 416.296662 143.1 
" style="fill:none;stroke:#1a1a1a;stroke-linecap:round;stroke-width:0.5;"/>
   </g>
   <g id="line2d_17">
    <path clip-path="url(#p7d79a48544)" d="M 483.168025 61.56 
L 483.168025 143.1 
" style="fill:none;stroke:#1a1a1a;stroke-linecap:round;stroke-width:0.5;"/>
   </g>
   <g id="line2d_18">
    <path clip-path="url(#p7d79a48544)" d="M 541.358283 88.74 
L 541.358283 143.1 
" style="fill:none;stroke:#1a1a1a;stroke-linecap:round;stroke-width:0.5;"/>
   </g>
   <g id="line2d_19">
    <path clip-path="url(#p7d79a48544)" d="M 569.835889 34.38 
L 569.835889 143.1 
" style="fill:none;stroke:#1a1a1a;stroke-linecap:round;stroke-width:0.5;"/>
   </g>
   <g id="line2d_20">
    <path clip-path="url(#p7d79a48544)" d="M 635.848092 88.74 
L 635.848092 143.1 
" style="fill:none;stroke:#1a1a1a;stroke-linecap:round;stroke-width:0.5;"/>
   </g>
   <g id="line2d_21">
    <path clip-path="url(#p7d79a48544)" d="M 689.116073 61.56 
L 689.116073 143.1 
" style="fill:none;stroke:#1a1a1a;stroke-linecap:round;stroke-width:0.5;"/>
   </g>
   <g id="line2d_22">
    <path clip-path="url(#p7d79a48544)" d="M 719.77738 34.38 
L 719.77738 143.1 
" style="fill:none;stroke:#1a1a1a;stroke-linecap:round;stroke-width:0.5;"/>
   </g>
   <g id="text_8">
    <g id="patch_9">
     <path d="M 382.358225 97.136953 
L 450.2351 97.136953 
Q 453.5351 97.136953 453.5351 93.836953 
L 453.5351 83.643047 
Q 453.5351 80.343047 450.2351 80.343047 
L 382.358225 80.343047 
Q 379.058225 80.343047 379.058225 83.643047 
L 379.058225 93.836953 
Q 379.058225 97.136953 382.358225 97.136953 
z
" style="fill:#eef1f8;stroke:#808080;stroke-linejoin:miter;"/>
    </g>
    <!-- MASE_03255 -->
    <defs>
     <path d="M 7.421875 0 
L 7.421875 71.578125 
L 21.6875 71.578125 
L 38.625 20.90625 
Q 40.96875 13.8125 42.046875 10.296875 
Q 43.265625 14.203125 45.84375 21.78125 
L 62.984375 71.578125 
L 75.734375 71.578125 
L 75.734375 0 
L 66.609375 0 
L 66.609375 59.90625 
L 45.796875 0 
L 37.25 0 
L 16.546875 60.9375 
L 16.546875 0 
z
" id="ArialMT-77"/>
     <path d="M -0.140625 0 
L 27.34375 71.578125 
L 37.546875 71.578125 
L 66.84375 0 
L 56.0625 0 
L 47.703125 21.6875 
L 17.78125 21.6875 
L 9.90625 0 
z
M 20.515625 29.390625 
L 44.78125 29.390625 
L 37.3125 49.21875 
Q 33.890625 58.25 32.234375 64.0625 
Q 30.859375 57.171875 28.375 50.390625 
z
" id="ArialMT-65"/>
     <path d="M 4.5 23 
L 13.421875 23.78125 
Q 14.0625 18.40625 16.375 14.96875 
Q 18.703125 11.53125 23.578125 9.40625 
Q 28.46875 7.28125 34.578125 7.28125 
Q 39.984375 7.28125 44.140625 8.890625 
Q 48.296875 10.5 50.3125 13.296875 
Q 52.34375 16.109375 52.34375 19.4375 
Q 52.34375 22.796875 50.390625 25.3125 
Q 48.4375 27.828125 43.953125 29.546875 
Q 41.0625 30.671875 31.203125 33.03125 
Q 21.34375 35.40625 17.390625 37.5 
Q 12.25 40.1875 9.734375 44.15625 
Q 7.234375 48.140625 7.234375 53.078125 
Q 7.234375 58.5 10.296875 63.203125 
Q 13.375 67.921875 19.28125 70.359375 
Q 25.203125 72.796875 32.421875 72.796875 
Q 40.375 72.796875 46.453125 70.234375 
Q 52.546875 67.671875 55.8125 62.6875 
Q 59.078125 57.71875 59.328125 51.421875 
L 50.25 50.734375 
Q 49.515625 57.515625 45.28125 60.984375 
Q 41.0625 64.453125 32.8125 64.453125 
Q 24.21875 64.453125 20.28125 61.296875 
Q 16.359375 58.15625 16.359375 53.71875 
Q 16.359375 49.859375 19.140625 47.359375 
Q 21.875 44.875 33.421875 42.265625 
Q 44.96875 39.65625 49.265625 37.703125 
Q 55.515625 34.8125 58.484375 30.390625 
Q 61.46875 25.984375 61.46875 20.21875 
Q 61.46875 14.5 58.203125 9.4375 
Q 54.9375 4.390625 48.796875 1.578125 
Q 42.671875 -1.21875 35.015625 -1.21875 
Q 25.296875 -1.21875 18.71875 1.609375 
Q 12.15625 4.4375 8.421875 10.125 
Q 4.6875 15.828125 4.5 23 
z
" id="ArialMT-83"/>
     <path d="M 7.90625 0 
L 7.90625 71.578125 
L 59.671875 71.578125 
L 59.671875 63.140625 
L 17.390625 63.140625 
L 17.390625 41.21875 
L 56.984375 41.21875 
L 56.984375 32.8125 
L 17.390625 32.8125 
L 17.390625 8.453125 
L 61.328125 8.453125 
L 61.328125 0 
z
" id="ArialMT-69"/>
     <path d="M -1.515625 -19.875 
L -1.515625 -13.53125 
L 56.734375 -13.53125 
L 56.734375 -19.875 
z
" id="ArialMT-95"/>
     <path d="M 4.203125 18.890625 
L 12.984375 20.0625 
Q 14.5 12.59375 18.140625 9.296875 
Q 21.78125 6 27 6 
Q 33.203125 6 37.46875 10.296875 
Q 41.75 14.59375 41.75 20.953125 
Q 41.75 27 37.796875 30.921875 
Q 33.84375 34.859375 27.734375 34.859375 
Q 25.25 34.859375 21.53125 33.890625 
L 22.515625 41.609375 
Q 23.390625 41.5 23.921875 41.5 
Q 29.546875 41.5 34.03125 44.421875 
Q 38.53125 47.359375 38.53125 53.46875 
Q 38.53125 58.296875 35.25 61.46875 
Q 31.984375 64.65625 26.8125 64.65625 
Q 21.6875 64.65625 18.265625 61.421875 
Q 14.84375 58.203125 13.875 51.765625 
L 5.078125 53.328125 
Q 6.6875 62.15625 12.390625 67.015625 
Q 18.109375 71.875 26.609375 71.875 
Q 32.46875 71.875 37.390625 69.359375 
Q 42.328125 66.84375 44.9375 62.5 
Q 47.5625 58.15625 47.5625 53.265625 
Q 47.5625 48.640625 45.0625 44.828125 
Q 42.578125 41.015625 37.703125 38.765625 
Q 44.046875 37.3125 47.5625 32.6875 
Q 51.078125 28.078125 51.078125 21.140625 
Q 51.078125 11.765625 44.234375 5.25 
Q 37.40625 -1.265625 26.953125 -1.265625 
Q 17.53125 -1.265625 11.296875 4.34375 
Q 5.078125 9.96875 4.203125 18.890625 
z
" id="ArialMT-51"/>
    </defs>
    <g style="fill:#262626;" transform="translate(382.358225 91.650703)scale(0.11 -0.11)">
     <use xlink:href="#ArialMT-77"/>
     <use x="83.300781" xlink:href="#ArialMT-65"/>
     <use x="150" xlink:href="#ArialMT-83"/>
     <use x="216.699219" xlink:href="#ArialMT-69"/>
     <use x="283.398438" xlink:href="#ArialMT-95"/>
     <use x="339.013672" xlink:href="#ArialMT-48"/>
     <use x="394.628906" xlink:href="#ArialMT-51"/>
     <use x="450.244141" xlink:href="#ArialMT-50"/>
     <use x="505.859375" xlink:href="#ArialMT-53"/>
     <use x="561.474609" xlink:href="#ArialMT-53"/>
    </g>
   </g>
   <g id="text_9">
    <g id="patch_10">
     <path d="M 449.229588 69.956953 
L 517.106463 69.956953 
Q 520.406463 69.956953 520.406463 66.656953 
L 520.406463 56.463047 
Q 520.406463 53.163047 517.106463 53.163047 
L 449.229588 53.163047 
Q 445.929588 53.163047 445.929588 56.463047 
L 445.929588 66.656953 
Q 445.929588 69.956953 449.229588 69.956953 
z
" style="fill:#ffecec;stroke:#808080;stroke-linejoin:miter;"/>
    </g>
    <!-- MASE_03260 -->
    <g style="fill:#262626;" transform="translate(449.229588 64.470703)scale(0.11 -0.11)">
     <use xlink:href="#ArialMT-77"/>
     <use x="83.300781" xlink:href="#ArialMT-65"/>
     <use x="150" xlink:href="#ArialMT-83"/>
     <use x="216.699219" xlink:href="#ArialMT-69"/>
     <use x="283.398438" xlink:href="#ArialMT-95"/>
     <use x="339.013672" xlink:href="#ArialMT-48"/>
     <use x="394.628906" xlink:href="#ArialMT-51"/>
     <use x="450.244141" xlink:href="#ArialMT-50"/>
     <use x="505.859375" xlink:href="#ArialMT-54"/>
     <use x="561.474609" xlink:href="#ArialMT-48"/>
    </g>
   </g>
   <g id="text_10">
    <g id="patch_11">
     <path d="M 507.419845 97.136953 
L 575.29672 97.136953 
Q 578.59672 97.136953 578.59672 93.836953 
L 578.59672 83.643047 
Q 578.59672 80.343047 575.29672 80.343047 
L 507.419845 80.343047 
Q 504.119845 80.343047 504.119845 83.643047 
L 504.119845 93.836953 
Q 504.119845 97.136953 507.419845 97.136953 
z
" style="fill:#ffffff;stroke:#808080;stroke-linejoin:miter;"/>
    </g>
    <!-- MASE_03265 -->
    <g style="fill:#262626;" transform="translate(507.419845 91.650703)scale(0.11 -0.11)">
     <use xlink:href="#ArialMT-77"/>
     <use x="83.300781" xlink:href="#ArialMT-65"/>
     <use x="150" xlink:href="#ArialMT-83"/>
     <use x="216.699219" xlink:href="#ArialMT-69"/>
     <use x="283.398438" xlink:href="#ArialMT-95"/>
     <use x="339.013672" xlink:href="#ArialMT-48"/>
     <use x="394.628906" xlink:href="#ArialMT-51"/>
     <use x="450.244141" xlink:href="#ArialMT-50"/>
     <use x="505.859375" xlink:href="#ArialMT-54"/>
     <use x="561.474609" xlink:href="#ArialMT-53"/>
    </g>
   </g>
   <g id="text_11">
    <g id="patch_12">
     <path d="M 535.897452 42.776953 
L 603.774327 42.776953 
Q 607.074327 42.776953 607.074327 39.476953 
L 607.074327 29.283047 
Q 607.074327 25.983047 603.774327 25.983047 
L 535.897452 25.983047 
Q 532.597452 25.983047 532.597452 29.283047 
L 532.597452 39.476953 
Q 532.597452 42.776953 535.897452 42.776953 
z
" style="fill:#ffffff;stroke:#808080;stroke-linejoin:miter;"/>
    </g>
    <!-- MASE_03270 -->
    <g style="fill:#262626;" transform="translate(535.897452 37.290703)scale(0.11 -0.11)">
     <use xlink:href="#ArialMT-77"/>
     <use x="83.300781" xlink:href="#ArialMT-65"/>
     <use x="150" xlink:href="#ArialMT-83"/>
     <use x="216.699219" xlink:href="#ArialMT-69"/>
     <use x="283.398438" xlink:href="#ArialMT-95"/>
     <use x="339.013672" xlink:href="#ArialMT-48"/>
     <use x="394.628906" xlink:href="#ArialMT-51"/>
     <use x="450.244141" xlink:href="#ArialMT-50"/>
     <use x="505.859375" xlink:href="#ArialMT-55"/>
     <use x="561.474609" xlink:href="#ArialMT-48"/>
    </g>
   </g>
   <g id="text_12">
    <g id="patch_13">
     <path d="M 601.909654 97.136953 
L 669.786529 97.136953 
Q 673.086529 97.136953 673.086529 93.836953 
L 673.086529 83.643047 
Q 673.086529 80.343047 669.786529 80.343047 
L 601.909654 80.343047 
Q 598.609654 80.343047 598.609654 83.643047 
L 598.609654 93.836953 
Q 598.609654 97.136953 601.909654 97.136953 
z
" style="fill:#ffffff;stroke:#808080;stroke-linejoin:miter;"/>
    </g>
    <!-- MASE_03275 -->
    <g style="fill:#262626;" transform="translate(601.909654 91.650703)scale(0.11 -0.11)">
     <use xlink:href="#ArialMT-77"/>
     <use x="83.300781" xlink:href="#ArialMT-65"/>
     <use x="150" xlink:href="#ArialMT-83"/>
     <use x="216.699219" xlink:href="#ArialMT-69"/>
     <use x="283.398438" xlink:href="#ArialMT-95"/>
     <use x="339.013672" xlink:href="#ArialMT-48"/>
     <use x="394.628906" xlink:href="#ArialMT-51"/>
     <use x="450.244141" xlink:href="#ArialMT-50"/>
     <use x="505.859375" xlink:href="#ArialMT-55"/>
     <use x="561.474609" xlink:href="#ArialMT-53"/>
    </g>
   </g>
   <g id="text_13">
    <g id="patch_14">
     <path d="M 655.177635 69.956953 
L 723.05451 69.956953 
Q 726.35451 69.956953 726.35451 66.656953 
L 726.35451 56.463047 
Q 726.35451 53.163047 723.05451 53.163047 
L 655.177635 53.163047 
Q 651.877635 53.163047 651.877635 56.463047 
L 651.877635 66.656953 
Q 651.877635 69.956953 655.177635 69.956953 
z
" style="fill:#ffffff;stroke:#808080;stroke-linejoin:miter;"/>
    </g>
    <!-- MASE_03280 -->
    <g style="fill:#262626;" transform="translate(655.177635 64.470703)scale(0.11 -0.11)">
     <use xlink:href="#ArialMT-77"/>
     <use x="83.300781" xlink:href="#ArialMT-65"/>
     <use x="150" xlink:href="#ArialMT-83"/>
     <use x="216.699219" xlink:href="#ArialMT-69"/>
     <use x="283.398438" xlink:href="#ArialMT-95"/>
     <use x="339.013672" xlink:href="#ArialMT-48"/>
     <use x="394.628906" xlink:href="#ArialMT-51"/>
     <use x="450.244141" xlink:href="#ArialMT-50"/>
     <use x="505.859375" xlink:href="#ArialMT-56"/>
     <use x="561.474609" xlink:href="#ArialMT-48"/>
    </g>
   </g>
   <g id="text_14">
    <g id="patch_15">
     <path d="M 685.838943 42.776953 
L 753.715818 42.776953 
Q 757.015818 42.776953 757.015818 39.476953 
L 757.015818 29.283047 
Q 757.015818 25.983047 753.715818 25.983047 
L 685.838943 25.983047 
Q 682.538943 25.983047 682.538943 29.283047 
L 682.538943 39.476953 
Q 682.538943 42.776953 685.838943 42.776953 
z
" style="fill:#f2f2f2;stroke:#808080;stroke-linejoin:miter;"/>
    </g>
    <!-- MASE_03285 -->
    <g style="fill:#262626;" transform="translate(685.838943 37.290703)scale(0.11 -0.11)">
     <use xlink:href="#ArialMT-77"/>
     <use x="83.300781" xlink:href="#ArialMT-65"/>
     <use x="150" xlink:href="#ArialMT-83"/>
     <use x="216.699219" xlink:href="#ArialMT-69"/>
     <use x="283.398438" xlink:href="#ArialMT-95"/>
     <use x="339.013672" xlink:href="#ArialMT-48"/>
     <use x="394.628906" xlink:href="#ArialMT-51"/>
     <use x="450.244141" xlink:href="#ArialMT-50"/>
     <use x="505.859375" xlink:href="#ArialMT-56"/>
     <use x="561.474609" xlink:href="#ArialMT-53"/>
    </g>
   </g>
  </g>
 </g>
 <defs>
  <clipPath id="p7d79a48544">
   <rect height="163.08" width="1116" x="7.2" y="7.2"/>
  </clipPath>
 </defs>
</svg>
