<?xml version="1.0" encoding="utf-8" standalone="no"?>
<!DOCTYPE svg PUBLIC "-//W3C//DTD SVG 1.1//EN"
  "http://www.w3.org/Graphics/SVG/1.1/DTD/svg11.dtd">
<!-- Created with matplotlib (https://matplotlib.org/) -->
<svg height="218.783844pt" version="1.1" viewBox="0 0 1130.4 218.783844" width="1130.4pt" xmlns="http://www.w3.org/2000/svg" xmlns:xlink="http://www.w3.org/1999/xlink">
 <defs>
  <style type="text/css">
*{stroke-linecap:butt;stroke-linejoin:round;}
  </style>
 </defs>
 <g id="figure_1">
  <g id="patch_1">
   <path d="M 0 218.783844 
L 1130.4 218.783844 
L 1130.4 0 
L 0 0 
z
" style="fill:#ffffff;"/>
  </g>
  <g id="axes_1">
   <g id="line2d_1">
    <path clip-path="url(#p9d5099cfde)" d="M 7.2 165.620571 
L 1123.2 165.620571 
" style="fill:none;stroke:#1a1a1a;stroke-linecap:round;stroke-width:1.5;"/>
   </g>
   <g id="patch_2">
    <path clip-path="url(#p9d5099cfde)" d="M 209.364159 172.620571 
Q 188.718893 172.620571 168.073627 172.620571 
L 168.073627 172.620571 
Q 163.874822 169.120571 159.676016 165.620571 
Q 163.874822 162.120571 168.073627 158.620571 
L 168.073627 158.620571 
Q 188.718893 158.620571 209.364159 158.620571 
L 209.364159 172.620571 
z
" style="fill:#66cc99;fill-opacity:0.85;stroke:#000000;stroke-linecap:round;"/>
   </g>
   <g id="patch_3">
    <path clip-path="url(#p9d5099cfde)" d="M 219.853083 172.620571 
Q 219.025447 172.620571 218.19781 172.620571 
L 218.19781 172.620571 
Q 213.995775 169.120571 209.79374 165.620571 
Q 213.995775 162.120571 218.19781 158.620571 
L 218.19781 158.620571 
Q 219.025447 158.620571 219.853083 158.620571 
L 219.853083 172.620571 
z
" style="fill:#66cc99;fill-opacity:0.85;stroke:#000000;stroke-linecap:round;"/>
   </g>
   <g id="patch_4">
    <path clip-path="url(#p9d5099cfde)" d="M 261.379197 172.620571 
Q 244.870106 172.620571 228.361015 172.620571 
L 228.361015 172.620571 
Q 224.160747 169.120571 219.960478 165.620571 
Q 224.160747 162.120571 228.361015 158.620571 
L 228.361015 158.620571 
Q 244.870106 158.620571 261.379197 158.620571 
L 261.379197 172.620571 
z
" style="fill:#66cc99;fill-opacity:0.85;stroke:#000000;stroke-linecap:round;"/>
   </g>
   <g id="patch_5">
    <path clip-path="url(#p9d5099cfde)" d="M 280.781916 158.620571 
Q 328.598352 158.620571 376.414789 158.620571 
L 376.414789 158.620571 
Q 380.61339 162.120571 384.811992 165.620571 
Q 380.61339 169.120571 376.414789 172.620571 
L 376.414789 172.620571 
Q 328.598352 172.620571 280.781916 172.620571 
L 280.781916 158.620571 
z
" style="fill:#ff0000;fill-opacity:0.85;stroke:#000000;stroke-linecap:round;"/>
   </g>
   <g id="patch_6">
    <path clip-path="url(#p9d5099cfde)" d="M 387.854854 158.620571 
Q 411.722196 158.620571 435.589539 158.620571 
L 435.589539 158.620571 
Q 439.788122 162.120571 443.986705 165.620571 
Q 439.788122 169.120571 435.589539 172.620571 
L 435.589539 172.620571 
Q 411.722196 172.620571 387.854854 172.620571 
L 387.854854 158.620571 
z
" style="fill:#9966cc;fill-opacity:0.85;stroke:#000000;stroke-linecap:round;"/>
   </g>
   <g id="patch_7">
    <path clip-path="url(#p9d5099cfde)" d="M 444.953261 158.620571 
Q 454.052557 158.620571 463.151853 158.620571 
L 463.151853 158.620571 
Q 467.351653 162.120571 471.551453 165.620571 
Q 467.351653 169.120571 463.151853 172.620571 
L 463.151853 172.620571 
Q 454.052557 172.620571 444.953261 172.620571 
L 444.953261 158.620571 
z
" style="fill:#999999;fill-opacity:0.85;stroke:#000000;stroke-linecap:round;"/>
   </g>
   <g id="patch_8">
    <path clip-path="url(#p9d5099cfde)" d="M 470.799687 132.217143 
Q 479.254193 132.217143 487.708699 132.217143 
L 487.708699 132.217143 
Q 491.908918 135.717143 496.109138 139.217143 
Q 491.908918 142.717143 487.708699 146.217143 
L 487.708699 146.217143 
Q 479.254193 146.217143 470.799687 146.217143 
L 470.799687 132.217143 
z
" style="fill:#999999;fill-opacity:0.85;stroke:#000000;stroke-linecap:round;"/>
   </g>
   <g id="patch_9">
    <path clip-path="url(#p9d5099cfde)" d="M 551.381828 172.620571 
Q 529.823918 172.620571 508.266009 172.620571 
L 508.266009 172.620571 
Q 504.066988 169.120571 499.867967 165.620571 
Q 504.066988 162.120571 508.266009 158.620571 
L 508.266009 158.620571 
Q 529.823918 158.620571 551.381828 158.620571 
L 551.381828 172.620571 
z
" style="fill:#ccccff;fill-opacity:0.85;stroke:#000000;stroke-linecap:round;"/>
   </g>
   <g id="patch_10">
    <path clip-path="url(#p9d5099cfde)" d="M 583.564566 172.620571 
Q 571.674788 172.620571 559.785011 172.620571 
L 559.785011 172.620571 
Q 555.583419 169.120571 551.381828 165.620571 
Q 555.583419 162.120571 559.785011 158.620571 
L 559.785011 158.620571 
Q 571.674788 158.620571 583.564566 158.620571 
L 583.564566 172.620571 
z
" style="fill:#999999;fill-opacity:0.85;stroke:#000000;stroke-linecap:round;"/>
   </g>
   <g id="patch_11">
    <path clip-path="url(#p9d5099cfde)" d="M 612.919233 172.620571 
Q 602.907369 172.620571 592.895505 172.620571 
L 592.895505 172.620571 
Q 588.695414 169.120571 584.495324 165.620571 
Q 588.695414 162.120571 592.895505 158.620571 
L 592.895505 158.620571 
Q 602.907369 158.620571 612.919233 158.620571 
L 612.919233 172.620571 
z
" style="fill:#6699ff;fill-opacity:0.85;stroke:#000000;stroke-linecap:round;"/>
   </g>
   <g id="patch_12">
    <path clip-path="url(#p9d5099cfde)" d="M 621.009666 158.620571 
Q 658.460088 158.620571 695.910511 158.620571 
L 695.910511 158.620571 
Q 700.111497 162.120571 704.312483 165.620571 
Q 700.111497 169.120571 695.910511 172.620571 
L 695.910511 172.620571 
Q 658.460088 172.620571 621.009666 172.620571 
L 621.009666 158.620571 
z
" style="fill:#ff0000;fill-opacity:0.85;stroke:#000000;stroke-linecap:round;"/>
   </g>
   <g id="patch_13">
    <path clip-path="url(#p9d5099cfde)" d="M 706.889966 158.620571 
Q 707.613406 158.620571 708.336846 158.620571 
L 708.336846 158.620571 
Q 712.535682 162.120571 716.734518 165.620571 
Q 712.535682 169.120571 708.336846 172.620571 
L 708.336846 172.620571 
Q 707.613406 172.620571 706.889966 172.620571 
L 706.889966 158.620571 
z
" style="fill:#999999;fill-opacity:0.85;stroke:#000000;stroke-linecap:round;"/>
   </g>
   <g id="patch_14">
    <path clip-path="url(#p9d5099cfde)" d="M 828.497043 172.620571 
Q 777.459221 172.620571 726.421398 172.620571 
L 726.421398 172.620571 
Q 722.222329 169.120571 718.02326 165.620571 
Q 722.222329 162.120571 726.421398 158.620571 
L 726.421398 158.620571 
Q 777.459221 158.620571 828.497043 158.620571 
L 828.497043 172.620571 
z
" style="fill:#ff0000;fill-opacity:0.85;stroke:#000000;stroke-linecap:round;"/>
   </g>
   <g id="patch_15">
    <path clip-path="url(#p9d5099cfde)" d="M 838.842773 132.217143 
Q 845.202032 132.217143 851.561291 132.217143 
L 851.561291 132.217143 
Q 855.762552 135.717143 859.963814 139.217143 
Q 855.762552 142.717143 851.561291 146.217143 
L 851.561291 146.217143 
Q 845.202032 146.217143 838.842773 146.217143 
L 838.842773 132.217143 
z
" style="fill:#ffcc33;fill-opacity:0.85;stroke:#000000;stroke-linecap:round;"/>
   </g>
   <g id="patch_16">
    <path clip-path="url(#p9d5099cfde)" d="M 859.713226 158.620571 
Q 875.30732 158.620571 890.901414 158.620571 
L 890.901414 158.620571 
Q 895.103821 162.120571 899.306228 165.620571 
Q 895.103821 169.120571 890.901414 172.620571 
L 890.901414 172.620571 
Q 875.30732 172.620571 859.713226 172.620571 
L 859.713226 158.620571 
z
" style="fill:#ffcc33;fill-opacity:0.85;stroke:#000000;stroke-linecap:round;"/>
   </g>
   <g id="patch_17">
    <path clip-path="url(#p9d5099cfde)" d="M 905.606741 158.620571 
Q 914.759077 158.620571 923.911413 158.620571 
L 923.911413 158.620571 
Q 928.111871 162.120571 932.312329 165.620571 
Q 928.111871 169.120571 923.911413 172.620571 
L 923.911413 172.620571 
Q 914.759077 172.620571 905.606741 172.620571 
L 905.606741 158.620571 
z
" style="fill:#ffffff;fill-opacity:0.85;stroke:#000000;stroke-linecap:round;"/>
   </g>
   <g id="patch_18">
    <path clip-path="url(#p9d5099cfde)" d="M 945.700921 172.620571 
Q 944.873284 172.620571 944.045648 172.620571 
L 944.045648 172.620571 
Q 939.843613 169.120571 935.641577 165.620571 
Q 939.843613 162.120571 944.045648 158.620571 
L 944.045648 158.620571 
Q 944.873284 158.620571 945.700921 158.620571 
L 945.700921 172.620571 
z
" style="fill:#ffffff;fill-opacity:0.85;stroke:#000000;stroke-linecap:round;"/>
   </g>
   <g id="patch_19">
    <path clip-path="url(#p9d5099cfde)" d="M 953.683958 158.620571 
Q 958.004287 158.620571 962.324616 158.620571 
L 962.324616 158.620571 
Q 966.5243 162.120571 970.723984 165.620571 
Q 966.5243 169.120571 962.324616 172.620571 
L 962.324616 172.620571 
Q 958.004287 172.620571 953.683958 172.620571 
L 953.683958 158.620571 
z
" style="fill:#999999;fill-opacity:0.85;stroke:#000000;stroke-linecap:round;"/>
   </g>
   <g id="matplotlib.axis_1">
    <g id="xtick_1">
     <g id="line2d_2">
      <path clip-path="url(#p9d5099cfde)" d="M 93.610116 192.024 
L 93.610116 7.2 
" style="fill:none;stroke:#ffffff;stroke-linecap:round;"/>
     </g>
     <g id="line2d_3">
      <defs>
       <path d="M 0 0 
L 0 6 
" id="m231ae48e6d" style="stroke:#262626;stroke-width:1.25;"/>
      </defs>
      <g>
       <use style="fill:#262626;stroke:#262626;stroke-width:1.25;" x="93.610116" xlink:href="#m231ae48e6d" y="192.024"/>
      </g>
     </g>
     <g id="text_1">
      <!-- 4356000 -->
      <defs>
       <path d="M 32.328125 0 
L 32.328125 17.140625 
L 1.265625 17.140625 
L 1.265625 25.203125 
L 33.9375 71.578125 
L 41.109375 71.578125 
L 41.109375 25.203125 
L 50.78125 25.203125 
L 50.78125 17.140625 
L 41.109375 17.140625 
L 41.109375 0 
z
M 32.328125 25.203125 
L 32.328125 57.46875 
L 9.90625 25.203125 
z
" id="ArialMT-52"/>
       <path d="M 4.203125 18.890625 
L 12.984375 20.0625 
Q 14.5 12.59375 18.140625 9.296875 
Q 21.78125 6 27 6 
Q 33.203125 6 37.46875 10.296875 
Q 41.75 14.59375 41.75 20.953125 
Q 41.75 27 37.796875 30.921875 
Q 33.84375 34.859375 27.734375 34.859375 
Q 25.25 34.859375 21.53125 33.890625 
L 22.515625 41.609375 
Q 23.390625 41.5 23.921875 41.5 
Q 29.546875 41.5 34.03125 44.421875 
Q 38.53125 47.359375 38.53125 53.46875 
Q 38.53125 58.296875 35.25 61.46875 
Q 31.984375 64.65625 26.8125 64.65625 
Q 21.6875 64.65625 18.265625 61.421875 
Q 14.84375 58.203125 13.875 51.765625 
L 5.078125 53.328125 
Q 6.6875 62.15625 12.390625 67.015625 
Q 18.109375 71.875 26.609375 71.875 
Q 32.46875 71.875 37.390625 69.359375 
Q 42.328125 66.84375 44.9375 62.5 
Q 47.5625 58.15625 47.5625 53.265625 
Q 47.5625 48.640625 45.0625 44.828125 
Q 42.578125 41.015625 37.703125 38.765625 
Q 44.046875 37.3125 47.5625 32.6875 
Q 51.078125 28.078125 51.078125 21.140625 
Q 51.078125 11.765625 44.234375 5.25 
Q 37.40625 -1.265625 26.953125 -1.265625 
Q 17.53125 -1.265625 11.296875 4.34375 
Q 5.078125 9.96875 4.203125 18.890625 
z
" id="ArialMT-51"/>
       <path d="M 4.15625 18.75 
L 13.375 19.53125 
Q 14.40625 12.796875 18.140625 9.390625 
Q 21.875 6 27.15625 6 
Q 33.5 6 37.890625 10.78125 
Q 42.28125 15.578125 42.28125 23.484375 
Q 42.28125 31 38.0625 35.34375 
Q 33.84375 39.703125 27 39.703125 
Q 22.75 39.703125 19.328125 37.765625 
Q 15.921875 35.84375 13.96875 32.765625 
L 5.71875 33.84375 
L 12.640625 70.609375 
L 48.25 70.609375 
L 48.25 62.203125 
L 19.671875 62.203125 
L 15.828125 42.96875 
Q 22.265625 47.46875 29.34375 47.46875 
Q 38.71875 47.46875 45.15625 40.96875 
Q 51.609375 34.46875 51.609375 24.265625 
Q 51.609375 14.546875 45.953125 7.46875 
Q 39.0625 -1.21875 27.15625 -1.21875 
Q 17.390625 -1.21875 11.203125 4.25 
Q 5.03125 9.71875 4.15625 18.75 
z
" id="ArialMT-53"/>
       <path d="M 49.75 54.046875 
L 41.015625 53.375 
Q 39.84375 58.546875 37.703125 60.890625 
Q 34.125 64.65625 28.90625 64.65625 
Q 24.703125 64.65625 21.53125 62.3125 
Q 17.390625 59.28125 14.984375 53.46875 
Q 12.59375 47.65625 12.5 36.921875 
Q 15.671875 41.75 20.265625 44.09375 
Q 24.859375 46.4375 29.890625 46.4375 
Q 38.671875 46.4375 44.84375 39.96875 
Q 51.03125 33.5 51.03125 23.25 
Q 51.03125 16.5 48.125 10.71875 
Q 45.21875 4.9375 40.140625 1.859375 
Q 35.0625 -1.21875 28.609375 -1.21875 
Q 17.625 -1.21875 10.6875 6.859375 
Q 3.765625 14.9375 3.765625 33.5 
Q 3.765625 54.25 11.421875 63.671875 
Q 18.109375 71.875 29.4375 71.875 
Q 37.890625 71.875 43.28125 67.140625 
Q 48.6875 62.40625 49.75 54.046875 
z
M 13.875 23.1875 
Q 13.875 18.65625 15.796875 14.5 
Q 17.71875 10.359375 21.1875 8.171875 
Q 24.65625 6 28.46875 6 
Q 34.03125 6 38.03125 10.484375 
Q 42.046875 14.984375 42.046875 22.703125 
Q 42.046875 30.125 38.078125 34.390625 
Q 34.125 38.671875 28.125 38.671875 
Q 22.171875 38.671875 18.015625 34.390625 
Q 13.875 30.125 13.875 23.1875 
z
" id="ArialMT-54"/>
       <path d="M 4.15625 35.296875 
Q 4.15625 48 6.765625 55.734375 
Q 9.375 63.484375 14.515625 67.671875 
Q 19.671875 71.875 27.484375 71.875 
Q 33.25 71.875 37.59375 69.546875 
Q 41.9375 67.234375 44.765625 62.859375 
Q 47.609375 58.5 49.21875 52.21875 
Q 50.828125 45.953125 50.828125 35.296875 
Q 50.828125 22.703125 48.234375 14.96875 
Q 45.65625 7.234375 40.5 3 
Q 35.359375 -1.21875 27.484375 -1.21875 
Q 17.140625 -1.21875 11.234375 6.203125 
Q 4.15625 15.140625 4.15625 35.296875 
z
M 13.1875 35.296875 
Q 13.1875 17.671875 17.3125 11.828125 
Q 21.4375 6 27.484375 6 
Q 33.546875 6 37.671875 11.859375 
Q 41.796875 17.71875 41.796875 35.296875 
Q 41.796875 52.984375 37.671875 58.78125 
Q 33.546875 64.59375 27.390625 64.59375 
Q 21.34375 64.59375 17.71875 59.46875 
Q 13.1875 52.9375 13.1875 35.296875 
z
" id="ArialMT-48"/>
      </defs>
      <g style="fill:#262626;" transform="translate(72.200507 209.397594)scale(0.11 -0.11)">
       <use xlink:href="#ArialMT-52"/>
       <use x="55.615234" xlink:href="#ArialMT-51"/>
       <use x="111.230469" xlink:href="#ArialMT-53"/>
       <use x="166.845703" xlink:href="#ArialMT-54"/>
       <use x="222.460938" xlink:href="#ArialMT-48"/>
       <use x="278.076172" xlink:href="#ArialMT-48"/>
       <use x="333.691406" xlink:href="#ArialMT-48"/>
      </g>
     </g>
    </g>
    <g id="xtick_2">
     <g id="line2d_4">
      <path clip-path="url(#p9d5099cfde)" d="M 236.803613 192.024 
L 236.803613 7.2 
" style="fill:none;stroke:#ffffff;stroke-linecap:round;"/>
     </g>
     <g id="line2d_5">
      <g>
       <use style="fill:#262626;stroke:#262626;stroke-width:1.25;" x="236.803613" xlink:href="#m231ae48e6d" y="192.024"/>
      </g>
     </g>
     <g id="text_2">
      <!-- 4360000 -->
      <g style="fill:#262626;" transform="translate(215.394004 209.397594)scale(0.11 -0.11)">
       <use xlink:href="#ArialMT-52"/>
       <use x="55.615234" xlink:href="#ArialMT-51"/>
       <use x="111.230469" xlink:href="#ArialMT-54"/>
       <use x="166.845703" xlink:href="#ArialMT-48"/>
       <use x="222.460938" xlink:href="#ArialMT-48"/>
       <use x="278.076172" xlink:href="#ArialMT-48"/>
       <use x="333.691406" xlink:href="#ArialMT-48"/>
      </g>
     </g>
    </g>
    <g id="xtick_3">
     <g id="line2d_6">
      <path clip-path="url(#p9d5099cfde)" d="M 379.99711 192.024 
L 379.99711 7.2 
" style="fill:none;stroke:#ffffff;stroke-linecap:round;"/>
     </g>
     <g id="line2d_7">
      <g>
       <use style="fill:#262626;stroke:#262626;stroke-width:1.25;" x="379.99711" xlink:href="#m231ae48e6d" y="192.024"/>
      </g>
     </g>
     <g id="text_3">
      <!-- 4364000 -->
      <g style="fill:#262626;" transform="translate(358.587501 209.397594)scale(0.11 -0.11)">
       <use xlink:href="#ArialMT-52"/>
       <use x="55.615234" xlink:href="#ArialMT-51"/>
       <use x="111.230469" xlink:href="#ArialMT-54"/>
       <use x="166.845703" xlink:href="#ArialMT-52"/>
       <use x="222.460938" xlink:href="#ArialMT-48"/>
       <use x="278.076172" xlink:href="#ArialMT-48"/>
       <use x="333.691406" xlink:href="#ArialMT-48"/>
      </g>
     </g>
    </g>
    <g id="xtick_4">
     <g id="line2d_8">
      <path clip-path="url(#p9d5099cfde)" d="M 523.190608 192.024 
L 523.190608 7.2 
" style="fill:none;stroke:#ffffff;stroke-linecap:round;"/>
     </g>
     <g id="line2d_9">
      <g>
       <use style="fill:#262626;stroke:#262626;stroke-width:1.25;" x="523.190608" xlink:href="#m231ae48e6d" y="192.024"/>
      </g>
     </g>
     <g id="text_4">
      <!-- 4368000 -->
      <defs>
       <path d="M 17.671875 38.8125 
Q 12.203125 40.828125 9.5625 44.53125 
Q 6.9375 48.25 6.9375 53.421875 
Q 6.9375 61.234375 12.546875 66.546875 
Q 18.171875 71.875 27.484375 71.875 
Q 36.859375 71.875 42.578125 66.421875 
Q 48.296875 60.984375 48.296875 53.171875 
Q 48.296875 48.1875 45.671875 44.5 
Q 43.0625 40.828125 37.75 38.8125 
Q 44.34375 36.671875 47.78125 31.875 
Q 51.21875 27.09375 51.21875 20.453125 
Q 51.21875 11.28125 44.71875 5.03125 
Q 38.234375 -1.21875 27.640625 -1.21875 
Q 17.046875 -1.21875 10.546875 5.046875 
Q 4.046875 11.328125 4.046875 20.703125 
Q 4.046875 27.6875 7.59375 32.390625 
Q 11.140625 37.109375 17.671875 38.8125 
z
M 15.921875 53.71875 
Q 15.921875 48.640625 19.1875 45.40625 
Q 22.46875 42.1875 27.6875 42.1875 
Q 32.765625 42.1875 36.015625 45.375 
Q 39.265625 48.578125 39.265625 53.21875 
Q 39.265625 58.0625 35.90625 61.359375 
Q 32.5625 64.65625 27.59375 64.65625 
Q 22.5625 64.65625 19.234375 61.421875 
Q 15.921875 58.203125 15.921875 53.71875 
z
M 13.09375 20.65625 
Q 13.09375 16.890625 14.875 13.375 
Q 16.65625 9.859375 20.171875 7.921875 
Q 23.6875 6 27.734375 6 
Q 34.03125 6 38.125 10.046875 
Q 42.234375 14.109375 42.234375 20.359375 
Q 42.234375 26.703125 38.015625 30.859375 
Q 33.796875 35.015625 27.4375 35.015625 
Q 21.234375 35.015625 17.15625 30.90625 
Q 13.09375 26.8125 13.09375 20.65625 
z
" id="ArialMT-56"/>
      </defs>
      <g style="fill:#262626;" transform="translate(501.780998 209.397594)scale(0.11 -0.11)">
       <use xlink:href="#ArialMT-52"/>
       <use x="55.615234" xlink:href="#ArialMT-51"/>
       <use x="111.230469" xlink:href="#ArialMT-54"/>
       <use x="166.845703" xlink:href="#ArialMT-56"/>
       <use x="222.460938" xlink:href="#ArialMT-48"/>
       <use x="278.076172" xlink:href="#ArialMT-48"/>
       <use x="333.691406" xlink:href="#ArialMT-48"/>
      </g>
     </g>
    </g>
    <g id="xtick_5">
     <g id="line2d_10">
      <path clip-path="url(#p9d5099cfde)" d="M 666.384105 192.024 
L 666.384105 7.2 
" style="fill:none;stroke:#ffffff;stroke-linecap:round;"/>
     </g>
     <g id="line2d_11">
      <g>
       <use style="fill:#262626;stroke:#262626;stroke-width:1.25;" x="666.384105" xlink:href="#m231ae48e6d" y="192.024"/>
      </g>
     </g>
     <g id="text_5">
      <!-- 4372000 -->
      <defs>
       <path d="M 4.734375 62.203125 
L 4.734375 70.65625 
L 51.078125 70.65625 
L 51.078125 63.8125 
Q 44.234375 56.546875 37.515625 44.484375 
Q 30.8125 32.421875 27.15625 19.671875 
Q 24.515625 10.6875 23.78125 0 
L 14.75 0 
Q 14.890625 8.453125 18.0625 20.40625 
Q 21.234375 32.375 27.171875 43.484375 
Q 33.109375 54.59375 39.796875 62.203125 
z
" id="ArialMT-55"/>
       <path d="M 50.34375 8.453125 
L 50.34375 0 
L 3.03125 0 
Q 2.9375 3.171875 4.046875 6.109375 
Q 5.859375 10.9375 9.828125 15.625 
Q 13.8125 20.3125 21.34375 26.46875 
Q 33.015625 36.03125 37.109375 41.625 
Q 41.21875 47.21875 41.21875 52.203125 
Q 41.21875 57.421875 37.46875 61 
Q 33.734375 64.59375 27.734375 64.59375 
Q 21.390625 64.59375 17.578125 60.78125 
Q 13.765625 56.984375 13.71875 50.25 
L 4.6875 51.171875 
Q 5.609375 61.28125 11.65625 66.578125 
Q 17.71875 71.875 27.9375 71.875 
Q 38.234375 71.875 44.234375 66.15625 
Q 50.25 60.453125 50.25 52 
Q 50.25 47.703125 48.484375 43.546875 
Q 46.734375 39.40625 42.65625 34.8125 
Q 38.578125 30.21875 29.109375 22.21875 
Q 21.1875 15.578125 18.9375 13.203125 
Q 16.703125 10.84375 15.234375 8.453125 
z
" id="ArialMT-50"/>
      </defs>
      <g style="fill:#262626;" transform="translate(644.974496 209.397594)scale(0.11 -0.11)">
       <use xlink:href="#ArialMT-52"/>
       <use x="55.615234" xlink:href="#ArialMT-51"/>
       <use x="111.230469" xlink:href="#ArialMT-55"/>
       <use x="166.845703" xlink:href="#ArialMT-50"/>
       <use x="222.460938" xlink:href="#ArialMT-48"/>
       <use x="278.076172" xlink:href="#ArialMT-48"/>
       <use x="333.691406" xlink:href="#ArialMT-48"/>
      </g>
     </g>
    </g>
    <g id="xtick_6">
     <g id="line2d_12">
      <path clip-path="url(#p9d5099cfde)" d="M 809.577602 192.024 
L 809.577602 7.2 
" style="fill:none;stroke:#ffffff;stroke-linecap:round;"/>
     </g>
     <g id="line2d_13">
      <g>
       <use style="fill:#262626;stroke:#262626;stroke-width:1.25;" x="809.577602" xlink:href="#m231ae48e6d" y="192.024"/>
      </g>
     </g>
     <g id="text_6">
      <!-- 4376000 -->
      <g style="fill:#262626;" transform="translate(788.167993 209.397594)scale(0.11 -0.11)">
       <use xlink:href="#ArialMT-52"/>
       <use x="55.615234" xlink:href="#ArialMT-51"/>
       <use x="111.230469" xlink:href="#ArialMT-55"/>
       <use x="166.845703" xlink:href="#ArialMT-54"/>
       <use x="222.460938" xlink:href="#ArialMT-48"/>
       <use x="278.076172" xlink:href="#ArialMT-48"/>
       <use x="333.691406" xlink:href="#ArialMT-48"/>
      </g>
     </g>
    </g>
    <g id="xtick_7">
     <g id="line2d_14">
      <path clip-path="url(#p9d5099cfde)" d="M 952.7711 192.024 
L 952.7711 7.2 
" style="fill:none;stroke:#ffffff;stroke-linecap:round;"/>
     </g>
     <g id="line2d_15">
      <g>
       <use style="fill:#262626;stroke:#262626;stroke-width:1.25;" x="952.7711" xlink:href="#m231ae48e6d" y="192.024"/>
      </g>
     </g>
     <g id="text_7">
      <!-- 4380000 -->
      <g style="fill:#262626;" transform="translate(931.36149 209.397594)scale(0.11 -0.11)">
       <use xlink:href="#ArialMT-52"/>
       <use x="55.615234" xlink:href="#ArialMT-51"/>
       <use x="111.230469" xlink:href="#ArialMT-56"/>
       <use x="166.845703" xlink:href="#ArialMT-48"/>
       <use x="222.460938" xlink:href="#ArialMT-48"/>
       <use x="278.076172" xlink:href="#ArialMT-48"/>
       <use x="333.691406" xlink:href="#ArialMT-48"/>
      </g>
     </g>
    </g>
    <g id="xtick_8">
     <g id="line2d_16">
      <path clip-path="url(#p9d5099cfde)" d="M 1095.964597 192.024 
L 1095.964597 7.2 
" style="fill:none;stroke:#ffffff;stroke-linecap:round;"/>
     </g>
     <g id="line2d_17">
      <g>
       <use style="fill:#262626;stroke:#262626;stroke-width:1.25;" x="1095.964597" xlink:href="#m231ae48e6d" y="192.024"/>
      </g>
     </g>
     <g id="text_8">
      <!-- 4384000 -->
      <g style="fill:#262626;" transform="translate(1074.554987 209.397594)scale(0.11 -0.11)">
       <use xlink:href="#ArialMT-52"/>
       <use x="55.615234" xlink:href="#ArialMT-51"/>
       <use x="111.230469" xlink:href="#ArialMT-56"/>
       <use x="166.845703" xlink:href="#ArialMT-52"/>
       <use x="222.460938" xlink:href="#ArialMT-48"/>
       <use x="278.076172" xlink:href="#ArialMT-48"/>
       <use x="333.691406" xlink:href="#ArialMT-48"/>
      </g>
     </g>
    </g>
   </g>
   <g id="line2d_18">
    <path clip-path="url(#p9d5099cfde)" d="M 184.537987 112.813714 
L 184.537987 165.620571 
" style="fill:none;stroke:#1a1a1a;stroke-linecap:round;stroke-width:0.5;"/>
   </g>
   <g id="line2d_19">
    <path clip-path="url(#p9d5099cfde)" d="M 214.841311 86.410286 
L 214.841311 165.620571 
" style="fill:none;stroke:#1a1a1a;stroke-linecap:round;stroke-width:0.5;"/>
   </g>
   <g id="line2d_20">
    <path clip-path="url(#p9d5099cfde)" d="M 240.687737 60.006857 
L 240.687737 165.620571 
" style="fill:none;stroke:#1a1a1a;stroke-linecap:round;stroke-width:0.5;"/>
   </g>
   <g id="line2d_21">
    <path clip-path="url(#p9d5099cfde)" d="M 332.814853 112.813714 
L 332.814853 165.620571 
" style="fill:none;stroke:#1a1a1a;stroke-linecap:round;stroke-width:0.5;"/>
   </g>
   <g id="line2d_22">
    <path clip-path="url(#p9d5099cfde)" d="M 415.938678 86.410286 
L 415.938678 165.620571 
" style="fill:none;stroke:#1a1a1a;stroke-linecap:round;stroke-width:0.5;"/>
   </g>
   <g id="line2d_23">
    <path clip-path="url(#p9d5099cfde)" d="M 458.270256 112.813714 
L 458.270256 165.620571 
" style="fill:none;stroke:#1a1a1a;stroke-linecap:round;stroke-width:0.5;"/>
   </g>
   <g id="line2d_24">
    <path clip-path="url(#p9d5099cfde)" d="M 483.472311 60.006857 
L 483.472311 139.217143 
" style="fill:none;stroke:#1a1a1a;stroke-linecap:round;stroke-width:0.5;"/>
   </g>
   <g id="line2d_25">
    <path clip-path="url(#p9d5099cfde)" d="M 525.642796 86.410286 
L 525.642796 165.620571 
" style="fill:none;stroke:#1a1a1a;stroke-linecap:round;stroke-width:0.5;"/>
   </g>
   <g id="line2d_26">
    <path clip-path="url(#p9d5099cfde)" d="M 567.491096 112.813714 
L 567.491096 165.620571 
" style="fill:none;stroke:#1a1a1a;stroke-linecap:round;stroke-width:0.5;"/>
   </g>
   <g id="line2d_27">
    <path clip-path="url(#p9d5099cfde)" d="M 598.725178 60.006857 
L 598.725178 165.620571 
" style="fill:none;stroke:#1a1a1a;stroke-linecap:round;stroke-width:0.5;"/>
   </g>
   <g id="line2d_28">
    <path clip-path="url(#p9d5099cfde)" d="M 662.678973 112.813714 
L 662.678973 165.620571 
" style="fill:none;stroke:#1a1a1a;stroke-linecap:round;stroke-width:0.5;"/>
   </g>
   <g id="line2d_29">
    <path clip-path="url(#p9d5099cfde)" d="M 711.830141 86.410286 
L 711.830141 165.620571 
" style="fill:none;stroke:#1a1a1a;stroke-linecap:round;stroke-width:0.5;"/>
   </g>
   <g id="line2d_30">
    <path clip-path="url(#p9d5099cfde)" d="M 773.278051 112.813714 
L 773.278051 165.620571 
" style="fill:none;stroke:#1a1a1a;stroke-linecap:round;stroke-width:0.5;"/>
   </g>
   <g id="line2d_31">
    <path clip-path="url(#p9d5099cfde)" d="M 849.421193 86.410286 
L 849.421193 139.217143 
" style="fill:none;stroke:#1a1a1a;stroke-linecap:round;stroke-width:0.5;"/>
   </g>
   <g id="line2d_32">
    <path clip-path="url(#p9d5099cfde)" d="M 879.527626 112.813714 
L 879.527626 165.620571 
" style="fill:none;stroke:#1a1a1a;stroke-linecap:round;stroke-width:0.5;"/>
   </g>
   <g id="line2d_33">
    <path clip-path="url(#p9d5099cfde)" d="M 918.977434 60.006857 
L 918.977434 165.620571 
" style="fill:none;stroke:#1a1a1a;stroke-linecap:round;stroke-width:0.5;"/>
   </g>
   <g id="line2d_34">
    <path clip-path="url(#p9d5099cfde)" d="M 940.689148 86.410286 
L 940.689148 165.620571 
" style="fill:none;stroke:#1a1a1a;stroke-linecap:round;stroke-width:0.5;"/>
   </g>
   <g id="line2d_35">
    <path clip-path="url(#p9d5099cfde)" d="M 962.22187 33.603429 
L 962.22187 165.620571 
" style="fill:none;stroke:#1a1a1a;stroke-linecap:round;stroke-width:0.5;"/>
   </g>
   <g id="text_9">
    <g id="patch_20">
     <path d="M 150.599549 121.210667 
L 218.476424 121.210667 
Q 221.776424 121.210667 221.776424 117.910667 
L 221.776424 107.716761 
Q 221.776424 104.416761 218.476424 104.416761 
L 150.599549 104.416761 
Q 147.299549 104.416761 147.299549 107.716761 
L 147.299549 117.910667 
Q 147.299549 121.210667 150.599549 121.210667 
z
" style="fill:#ecf9f2;stroke:#808080;stroke-linejoin:miter;"/>
    </g>
    <!-- MASE_18595 -->
    <defs>
     <path d="M 7.421875 0 
L 7.421875 71.578125 
L 21.6875 71.578125 
L 38.625 20.90625 
Q 40.96875 13.8125 42.046875 10.296875 
Q 43.265625 14.203125 45.84375 21.78125 
L 62.984375 71.578125 
L 75.734375 71.578125 
L 75.734375 0 
L 66.609375 0 
L 66.609375 59.90625 
L 45.796875 0 
L 37.25 0 
L 16.546875 60.9375 
L 16.546875 0 
z
" id="ArialMT-77"/>
     <path d="M -0.140625 0 
L 27.34375 71.578125 
L 37.546875 71.578125 
L 66.84375 0 
L 56.0625 0 
L 47.703125 21.6875 
L 17.78125 21.6875 
L 9.90625 0 
z
M 20.515625 29.390625 
L 44.78125 29.390625 
L 37.3125 49.21875 
Q 33.890625 58.25 32.234375 64.0625 
Q 30.859375 57.171875 28.375 50.390625 
z
" id="ArialMT-65"/>
     <path d="M 4.5 23 
L 13.421875 23.78125 
Q 14.0625 18.40625 16.375 14.96875 
Q 18.703125 11.53125 23.578125 9.40625 
Q 28.46875 7.28125 34.578125 7.28125 
Q 39.984375 7.28125 44.140625 8.890625 
Q 48.296875 10.5 50.3125 13.296875 
Q 52.34375 16.109375 52.34375 19.4375 
Q 52.34375 22.796875 50.390625 25.3125 
Q 48.4375 27.828125 43.953125 29.546875 
Q 41.0625 30.671875 31.203125 33.03125 
Q 21.34375 35.40625 17.390625 37.5 
Q 12.25 40.1875 9.734375 44.15625 
Q 7.234375 48.140625 7.234375 53.078125 
Q 7.234375 58.5 10.296875 63.203125 
Q 13.375 67.921875 19.28125 70.359375 
Q 25.203125 72.796875 32.421875 72.796875 
Q 40.375 72.796875 46.453125 70.234375 
Q 52.546875 67.671875 55.8125 62.6875 
Q 59.078125 57.71875 59.328125 51.421875 
L 50.25 50.734375 
Q 49.515625 57.515625 45.28125 60.984375 
Q 41.0625 64.453125 32.8125 64.453125 
Q 24.21875 64.453125 20.28125 61.296875 
Q 16.359375 58.15625 16.359375 53.71875 
Q 16.359375 49.859375 19.140625 47.359375 
Q 21.875 44.875 33.421875 42.265625 
Q 44.96875 39.65625 49.265625 37.703125 
Q 55.515625 34.8125 58.484375 30.390625 
Q 61.46875 25.984375 61.46875 20.21875 
Q 61.46875 14.5 58.203125 9.4375 
Q 54.9375 4.390625 48.796875 1.578125 
Q 42.671875 -1.21875 35.015625 -1.21875 
Q 25.296875 -1.21875 18.71875 1.609375 
Q 12.15625 4.4375 8.421875 10.125 
Q 4.6875 15.828125 4.5 23 
z
" id="ArialMT-83"/>
     <path d="M 7.90625 0 
L 7.90625 71.578125 
L 59.671875 71.578125 
L 59.671875 63.140625 
L 17.390625 63.140625 
L 17.390625 41.21875 
L 56.984375 41.21875 
L 56.984375 32.8125 
L 17.390625 32.8125 
L 17.390625 8.453125 
L 61.328125 8.453125 
L 61.328125 0 
z
" id="ArialMT-69"/>
     <path d="M -1.515625 -19.875 
L -1.515625 -13.53125 
L 56.734375 -13.53125 
L 56.734375 -19.875 
z
" id="ArialMT-95"/>
     <path d="M 37.25 0 
L 28.46875 0 
L 28.46875 56 
Q 25.296875 52.984375 20.140625 49.953125 
Q 14.984375 46.921875 10.890625 45.40625 
L 10.890625 53.90625 
Q 18.265625 57.375 23.78125 62.296875 
Q 29.296875 67.234375 31.59375 71.875 
L 37.25 71.875 
z
" id="ArialMT-49"/>
     <path d="M 5.46875 16.546875 
L 13.921875 17.328125 
Q 14.984375 11.375 18.015625 8.6875 
Q 21.046875 6 25.78125 6 
Q 29.828125 6 32.875 7.859375 
Q 35.9375 9.71875 37.890625 12.8125 
Q 39.84375 15.921875 41.15625 21.1875 
Q 42.484375 26.46875 42.484375 31.9375 
Q 42.484375 32.515625 42.4375 33.6875 
Q 39.796875 29.5 35.234375 26.875 
Q 30.671875 24.265625 25.34375 24.265625 
Q 16.453125 24.265625 10.296875 30.703125 
Q 4.15625 37.15625 4.15625 47.703125 
Q 4.15625 58.59375 10.578125 65.234375 
Q 17 71.875 26.65625 71.875 
Q 33.640625 71.875 39.421875 68.109375 
Q 45.21875 64.359375 48.21875 57.390625 
Q 51.21875 50.4375 51.21875 37.25 
Q 51.21875 23.53125 48.234375 15.40625 
Q 45.265625 7.28125 39.375 3.03125 
Q 33.5 -1.21875 25.59375 -1.21875 
Q 17.1875 -1.21875 11.859375 3.4375 
Q 6.546875 8.109375 5.46875 16.546875 
z
M 41.453125 48.140625 
Q 41.453125 55.71875 37.421875 60.15625 
Q 33.40625 64.59375 27.734375 64.59375 
Q 21.875 64.59375 17.53125 59.8125 
Q 13.1875 55.03125 13.1875 47.40625 
Q 13.1875 40.578125 17.3125 36.296875 
Q 21.4375 32.03125 27.484375 32.03125 
Q 33.59375 32.03125 37.515625 36.296875 
Q 41.453125 40.578125 41.453125 48.140625 
z
" id="ArialMT-57"/>
    </defs>
    <g style="fill:#262626;" transform="translate(150.599549 115.724417)scale(0.11 -0.11)">
     <use xlink:href="#ArialMT-77"/>
     <use x="83.300781" xlink:href="#ArialMT-65"/>
     <use x="150" xlink:href="#ArialMT-83"/>
     <use x="216.699219" xlink:href="#ArialMT-69"/>
     <use x="283.398438" xlink:href="#ArialMT-95"/>
     <use x="339.013672" xlink:href="#ArialMT-49"/>
     <use x="394.628906" xlink:href="#ArialMT-56"/>
     <use x="450.244141" xlink:href="#ArialMT-53"/>
     <use x="505.859375" xlink:href="#ArialMT-57"/>
     <use x="561.474609" xlink:href="#ArialMT-53"/>
    </g>
   </g>
   <g id="text_10">
    <g id="patch_21">
     <path d="M 180.902873 94.807239 
L 248.779748 94.807239 
Q 252.079748 94.807239 252.079748 91.507239 
L 252.079748 81.313333 
Q 252.079748 78.013333 248.779748 78.013333 
L 180.902873 78.013333 
Q 177.602873 78.013333 177.602873 81.313333 
L 177.602873 91.507239 
Q 177.602873 94.807239 180.902873 94.807239 
z
" style="fill:#ecf9f2;stroke:#808080;stroke-linejoin:miter;"/>
    </g>
    <!-- MASE_18600 -->
    <g style="fill:#262626;" transform="translate(180.902873 89.320989)scale(0.11 -0.11)">
     <use xlink:href="#ArialMT-77"/>
     <use x="83.300781" xlink:href="#ArialMT-65"/>
     <use x="150" xlink:href="#ArialMT-83"/>
     <use x="216.699219" xlink:href="#ArialMT-69"/>
     <use x="283.398438" xlink:href="#ArialMT-95"/>
     <use x="339.013672" xlink:href="#ArialMT-49"/>
     <use x="394.628906" xlink:href="#ArialMT-56"/>
     <use x="450.244141" xlink:href="#ArialMT-54"/>
     <use x="505.859375" xlink:href="#ArialMT-48"/>
     <use x="561.474609" xlink:href="#ArialMT-48"/>
    </g>
   </g>
   <g id="text_11">
    <g id="patch_22">
     <path d="M 206.749299 68.40381 
L 274.626174 68.40381 
Q 277.926174 68.40381 277.926174 65.10381 
L 277.926174 54.909904 
Q 277.926174 51.609904 274.626174 51.609904 
L 206.749299 51.609904 
Q 203.449299 51.609904 203.449299 54.909904 
L 203.449299 65.10381 
Q 203.449299 68.40381 206.749299 68.40381 
z
" style="fill:#ecf9f2;stroke:#808080;stroke-linejoin:miter;"/>
    </g>
    <!-- MASE_18605 -->
    <g style="fill:#262626;" transform="translate(206.749299 62.91756)scale(0.11 -0.11)">
     <use xlink:href="#ArialMT-77"/>
     <use x="83.300781" xlink:href="#ArialMT-65"/>
     <use x="150" xlink:href="#ArialMT-83"/>
     <use x="216.699219" xlink:href="#ArialMT-69"/>
     <use x="283.398438" xlink:href="#ArialMT-95"/>
     <use x="339.013672" xlink:href="#ArialMT-49"/>
     <use x="394.628906" xlink:href="#ArialMT-56"/>
     <use x="450.244141" xlink:href="#ArialMT-54"/>
     <use x="505.859375" xlink:href="#ArialMT-48"/>
     <use x="561.474609" xlink:href="#ArialMT-53"/>
    </g>
   </g>
   <g id="text_12">
    <g id="patch_23">
     <path d="M 298.876416 121.210667 
L 366.753291 121.210667 
Q 370.053291 121.210667 370.053291 117.910667 
L 370.053291 107.716761 
Q 370.053291 104.416761 366.753291 104.416761 
L 298.876416 104.416761 
Q 295.576416 104.416761 295.576416 107.716761 
L 295.576416 117.910667 
Q 295.576416 121.210667 298.876416 121.210667 
z
" style="fill:#ffecec;stroke:#808080;stroke-linejoin:miter;"/>
    </g>
    <!-- MASE_18610 -->
    <g style="fill:#262626;" transform="translate(298.876416 115.724417)scale(0.11 -0.11)">
     <use xlink:href="#ArialMT-77"/>
     <use x="83.300781" xlink:href="#ArialMT-65"/>
     <use x="150" xlink:href="#ArialMT-83"/>
     <use x="216.699219" xlink:href="#ArialMT-69"/>
     <use x="283.398438" xlink:href="#ArialMT-95"/>
     <use x="339.013672" xlink:href="#ArialMT-49"/>
     <use x="394.628906" xlink:href="#ArialMT-56"/>
     <use x="450.244141" xlink:href="#ArialMT-54"/>
     <use x="505.859375" xlink:href="#ArialMT-49"/>
     <use x="561.474609" xlink:href="#ArialMT-48"/>
    </g>
   </g>
   <g id="text_13">
    <g id="patch_24">
     <path d="M 382.000241 94.807239 
L 449.877116 94.807239 
Q 453.177116 94.807239 453.177116 91.507239 
L 453.177116 81.313333 
Q 453.177116 78.013333 449.877116 78.013333 
L 382.000241 78.013333 
Q 378.700241 78.013333 378.700241 81.313333 
L 378.700241 91.507239 
Q 378.700241 94.807239 382.000241 94.807239 
z
" style="fill:#f2ecf9;stroke:#808080;stroke-linejoin:miter;"/>
    </g>
    <!-- MASE_18615 -->
    <g style="fill:#262626;" transform="translate(382.000241 89.320989)scale(0.11 -0.11)">
     <use xlink:href="#ArialMT-77"/>
     <use x="83.300781" xlink:href="#ArialMT-65"/>
     <use x="150" xlink:href="#ArialMT-83"/>
     <use x="216.699219" xlink:href="#ArialMT-69"/>
     <use x="283.398438" xlink:href="#ArialMT-95"/>
     <use x="339.013672" xlink:href="#ArialMT-49"/>
     <use x="394.628906" xlink:href="#ArialMT-56"/>
     <use x="450.244141" xlink:href="#ArialMT-54"/>
     <use x="505.859375" xlink:href="#ArialMT-49"/>
     <use x="561.474609" xlink:href="#ArialMT-53"/>
    </g>
   </g>
   <g id="text_14">
    <g id="patch_25">
     <path d="M 424.331818 121.210667 
L 492.208693 121.210667 
Q 495.508693 121.210667 495.508693 117.910667 
L 495.508693 107.716761 
Q 495.508693 104.416761 492.208693 104.416761 
L 424.331818 104.416761 
Q 421.031818 104.416761 421.031818 107.716761 
L 421.031818 117.910667 
Q 421.031818 121.210667 424.331818 121.210667 
z
" style="fill:#f2f2f2;stroke:#808080;stroke-linejoin:miter;"/>
    </g>
    <!-- MASE_18620 -->
    <g style="fill:#262626;" transform="translate(424.331818 115.724417)scale(0.11 -0.11)">
     <use xlink:href="#ArialMT-77"/>
     <use x="83.300781" xlink:href="#ArialMT-65"/>
     <use x="150" xlink:href="#ArialMT-83"/>
     <use x="216.699219" xlink:href="#ArialMT-69"/>
     <use x="283.398438" xlink:href="#ArialMT-95"/>
     <use x="339.013672" xlink:href="#ArialMT-49"/>
     <use x="394.628906" xlink:href="#ArialMT-56"/>
     <use x="450.244141" xlink:href="#ArialMT-54"/>
     <use x="505.859375" xlink:href="#ArialMT-50"/>
     <use x="561.474609" xlink:href="#ArialMT-48"/>
    </g>
   </g>
   <g id="text_15">
    <g id="patch_26">
     <path d="M 449.533874 68.40381 
L 517.410749 68.40381 
Q 520.710749 68.40381 520.710749 65.10381 
L 520.710749 54.909904 
Q 520.710749 51.609904 517.410749 51.609904 
L 449.533874 51.609904 
Q 446.233874 51.609904 446.233874 54.909904 
L 446.233874 65.10381 
Q 446.233874 68.40381 449.533874 68.40381 
z
" style="fill:#f2f2f2;stroke:#808080;stroke-linejoin:miter;"/>
    </g>
    <!-- MASE_18625 -->
    <g style="fill:#262626;" transform="translate(449.533874 62.91756)scale(0.11 -0.11)">
     <use xlink:href="#ArialMT-77"/>
     <use x="83.300781" xlink:href="#ArialMT-65"/>
     <use x="150" xlink:href="#ArialMT-83"/>
     <use x="216.699219" xlink:href="#ArialMT-69"/>
     <use x="283.398438" xlink:href="#ArialMT-95"/>
     <use x="339.013672" xlink:href="#ArialMT-49"/>
     <use x="394.628906" xlink:href="#ArialMT-56"/>
     <use x="450.244141" xlink:href="#ArialMT-54"/>
     <use x="505.859375" xlink:href="#ArialMT-50"/>
     <use x="561.474609" xlink:href="#ArialMT-53"/>
    </g>
   </g>
   <g id="text_16">
    <g id="patch_27">
     <path d="M 491.704359 94.807239 
L 559.581234 94.807239 
Q 562.881234 94.807239 562.881234 91.507239 
L 562.881234 81.313333 
Q 562.881234 78.013333 559.581234 78.013333 
L 491.704359 78.013333 
Q 488.404359 78.013333 488.404359 81.313333 
L 488.404359 91.507239 
Q 488.404359 94.807239 491.704359 94.807239 
z
" style="fill:#ececff;stroke:#808080;stroke-linejoin:miter;"/>
    </g>
    <!-- MASE_18630 -->
    <g style="fill:#262626;" transform="translate(491.704359 89.320989)scale(0.11 -0.11)">
     <use xlink:href="#ArialMT-77"/>
     <use x="83.300781" xlink:href="#ArialMT-65"/>
     <use x="150" xlink:href="#ArialMT-83"/>
     <use x="216.699219" xlink:href="#ArialMT-69"/>
     <use x="283.398438" xlink:href="#ArialMT-95"/>
     <use x="339.013672" xlink:href="#ArialMT-49"/>
     <use x="394.628906" xlink:href="#ArialMT-56"/>
     <use x="450.244141" xlink:href="#ArialMT-54"/>
     <use x="505.859375" xlink:href="#ArialMT-51"/>
     <use x="561.474609" xlink:href="#ArialMT-48"/>
    </g>
   </g>
   <g id="text_17">
    <g id="patch_28">
     <path d="M 533.552658 121.210667 
L 601.429533 121.210667 
Q 604.729533 121.210667 604.729533 117.910667 
L 604.729533 107.716761 
Q 604.729533 104.416761 601.429533 104.416761 
L 533.552658 104.416761 
Q 530.252658 104.416761 530.252658 107.716761 
L 530.252658 117.910667 
Q 530.252658 121.210667 533.552658 121.210667 
z
" style="fill:#f2f2f2;stroke:#808080;stroke-linejoin:miter;"/>
    </g>
    <!-- MASE_18635 -->
    <g style="fill:#262626;" transform="translate(533.552658 115.724417)scale(0.11 -0.11)">
     <use xlink:href="#ArialMT-77"/>
     <use x="83.300781" xlink:href="#ArialMT-65"/>
     <use x="150" xlink:href="#ArialMT-83"/>
     <use x="216.699219" xlink:href="#ArialMT-69"/>
     <use x="283.398438" xlink:href="#ArialMT-95"/>
     <use x="339.013672" xlink:href="#ArialMT-49"/>
     <use x="394.628906" xlink:href="#ArialMT-56"/>
     <use x="450.244141" xlink:href="#ArialMT-54"/>
     <use x="505.859375" xlink:href="#ArialMT-51"/>
     <use x="561.474609" xlink:href="#ArialMT-53"/>
    </g>
   </g>
   <g id="text_18">
    <g id="patch_29">
     <path d="M 564.78674 68.40381 
L 632.663615 68.40381 
Q 635.963615 68.40381 635.963615 65.10381 
L 635.963615 54.909904 
Q 635.963615 51.609904 632.663615 51.609904 
L 564.78674 51.609904 
Q 561.48674 51.609904 561.48674 54.909904 
L 561.48674 65.10381 
Q 561.48674 68.40381 564.78674 68.40381 
z
" style="fill:#e8f0ff;stroke:#808080;stroke-linejoin:miter;"/>
    </g>
    <!-- MASE_18640 -->
    <g style="fill:#262626;" transform="translate(564.78674 62.91756)scale(0.11 -0.11)">
     <use xlink:href="#ArialMT-77"/>
     <use x="83.300781" xlink:href="#ArialMT-65"/>
     <use x="150" xlink:href="#ArialMT-83"/>
     <use x="216.699219" xlink:href="#ArialMT-69"/>
     <use x="283.398438" xlink:href="#ArialMT-95"/>
     <use x="339.013672" xlink:href="#ArialMT-49"/>
     <use x="394.628906" xlink:href="#ArialMT-56"/>
     <use x="450.244141" xlink:href="#ArialMT-54"/>
     <use x="505.859375" xlink:href="#ArialMT-52"/>
     <use x="561.474609" xlink:href="#ArialMT-48"/>
    </g>
   </g>
   <g id="text_19">
    <g id="patch_30">
     <path d="M 628.740536 121.210667 
L 696.617411 121.210667 
Q 699.917411 121.210667 699.917411 117.910667 
L 699.917411 107.716761 
Q 699.917411 104.416761 696.617411 104.416761 
L 628.740536 104.416761 
Q 625.440536 104.416761 625.440536 107.716761 
L 625.440536 117.910667 
Q 625.440536 121.210667 628.740536 121.210667 
z
" style="fill:#ffecec;stroke:#808080;stroke-linejoin:miter;"/>
    </g>
    <!-- MASE_18645 -->
    <g style="fill:#262626;" transform="translate(628.740536 115.724417)scale(0.11 -0.11)">
     <use xlink:href="#ArialMT-77"/>
     <use x="83.300781" xlink:href="#ArialMT-65"/>
     <use x="150" xlink:href="#ArialMT-83"/>
     <use x="216.699219" xlink:href="#ArialMT-69"/>
     <use x="283.398438" xlink:href="#ArialMT-95"/>
     <use x="339.013672" xlink:href="#ArialMT-49"/>
     <use x="394.628906" xlink:href="#ArialMT-56"/>
     <use x="450.244141" xlink:href="#ArialMT-54"/>
     <use x="505.859375" xlink:href="#ArialMT-52"/>
     <use x="561.474609" xlink:href="#ArialMT-53"/>
    </g>
   </g>
   <g id="text_20">
    <g id="patch_31">
     <path d="M 677.891704 94.807239 
L 745.768579 94.807239 
Q 749.068579 94.807239 749.068579 91.507239 
L 749.068579 81.313333 
Q 749.068579 78.013333 745.768579 78.013333 
L 677.891704 78.013333 
Q 674.591704 78.013333 674.591704 81.313333 
L 674.591704 91.507239 
Q 674.591704 94.807239 677.891704 94.807239 
z
" style="fill:#f2f2f2;stroke:#808080;stroke-linejoin:miter;"/>
    </g>
    <!-- MASE_18650 -->
    <g style="fill:#262626;" transform="translate(677.891704 89.320989)scale(0.11 -0.11)">
     <use xlink:href="#ArialMT-77"/>
     <use x="83.300781" xlink:href="#ArialMT-65"/>
     <use x="150" xlink:href="#ArialMT-83"/>
     <use x="216.699219" xlink:href="#ArialMT-69"/>
     <use x="283.398438" xlink:href="#ArialMT-95"/>
     <use x="339.013672" xlink:href="#ArialMT-49"/>
     <use x="394.628906" xlink:href="#ArialMT-56"/>
     <use x="450.244141" xlink:href="#ArialMT-54"/>
     <use x="505.859375" xlink:href="#ArialMT-53"/>
     <use x="561.474609" xlink:href="#ArialMT-48"/>
    </g>
   </g>
   <g id="text_21">
    <g id="patch_32">
     <path d="M 739.339613 121.210667 
L 807.216488 121.210667 
Q 810.516488 121.210667 810.516488 117.910667 
L 810.516488 107.716761 
Q 810.516488 104.416761 807.216488 104.416761 
L 739.339613 104.416761 
Q 736.039613 104.416761 736.039613 107.716761 
L 736.039613 117.910667 
Q 736.039613 121.210667 739.339613 121.210667 
z
" style="fill:#ffecec;stroke:#808080;stroke-linejoin:miter;"/>
    </g>
    <!-- MASE_18655 -->
    <g style="fill:#262626;" transform="translate(739.339613 115.724417)scale(0.11 -0.11)">
     <use xlink:href="#ArialMT-77"/>
     <use x="83.300781" xlink:href="#ArialMT-65"/>
     <use x="150" xlink:href="#ArialMT-83"/>
     <use x="216.699219" xlink:href="#ArialMT-69"/>
     <use x="283.398438" xlink:href="#ArialMT-95"/>
     <use x="339.013672" xlink:href="#ArialMT-49"/>
     <use x="394.628906" xlink:href="#ArialMT-56"/>
     <use x="450.244141" xlink:href="#ArialMT-54"/>
     <use x="505.859375" xlink:href="#ArialMT-53"/>
     <use x="561.474609" xlink:href="#ArialMT-53"/>
    </g>
   </g>
   <g id="text_22">
    <g id="patch_33">
     <path d="M 815.482755 94.807239 
L 883.35963 94.807239 
Q 886.65963 94.807239 886.65963 91.507239 
L 886.65963 81.313333 
Q 886.65963 78.013333 883.35963 78.013333 
L 815.482755 78.013333 
Q 812.182755 78.013333 812.182755 81.313333 
L 812.182755 91.507239 
Q 812.182755 94.807239 815.482755 94.807239 
z
" style="fill:#fff7e0;stroke:#808080;stroke-linejoin:miter;"/>
    </g>
    <!-- MASE_18660 -->
    <g style="fill:#262626;" transform="translate(815.482755 89.320989)scale(0.11 -0.11)">
     <use xlink:href="#ArialMT-77"/>
     <use x="83.300781" xlink:href="#ArialMT-65"/>
     <use x="150" xlink:href="#ArialMT-83"/>
     <use x="216.699219" xlink:href="#ArialMT-69"/>
     <use x="283.398438" xlink:href="#ArialMT-95"/>
     <use x="339.013672" xlink:href="#ArialMT-49"/>
     <use x="394.628906" xlink:href="#ArialMT-56"/>
     <use x="450.244141" xlink:href="#ArialMT-54"/>
     <use x="505.859375" xlink:href="#ArialMT-54"/>
     <use x="561.474609" xlink:href="#ArialMT-48"/>
    </g>
   </g>
   <g id="text_23">
    <g id="patch_34">
     <path d="M 845.589188 121.210667 
L 913.466063 121.210667 
Q 916.766063 121.210667 916.766063 117.910667 
L 916.766063 107.716761 
Q 916.766063 104.416761 913.466063 104.416761 
L 845.589188 104.416761 
Q 842.289188 104.416761 842.289188 107.716761 
L 842.289188 117.910667 
Q 842.289188 121.210667 845.589188 121.210667 
z
" style="fill:#fff7e0;stroke:#808080;stroke-linejoin:miter;"/>
    </g>
    <!-- MASE_18665 -->
    <g style="fill:#262626;" transform="translate(845.589188 115.724417)scale(0.11 -0.11)">
     <use xlink:href="#ArialMT-77"/>
     <use x="83.300781" xlink:href="#ArialMT-65"/>
     <use x="150" xlink:href="#ArialMT-83"/>
     <use x="216.699219" xlink:href="#ArialMT-69"/>
     <use x="283.398438" xlink:href="#ArialMT-95"/>
     <use x="339.013672" xlink:href="#ArialMT-49"/>
     <use x="394.628906" xlink:href="#ArialMT-56"/>
     <use x="450.244141" xlink:href="#ArialMT-54"/>
     <use x="505.859375" xlink:href="#ArialMT-54"/>
     <use x="561.474609" xlink:href="#ArialMT-53"/>
    </g>
   </g>
   <g id="text_24">
    <g id="patch_35">
     <path d="M 885.038997 68.40381 
L 952.915872 68.40381 
Q 956.215872 68.40381 956.215872 65.10381 
L 956.215872 54.909904 
Q 956.215872 51.609904 952.915872 51.609904 
L 885.038997 51.609904 
Q 881.738997 51.609904 881.738997 54.909904 
L 881.738997 65.10381 
Q 881.738997 68.40381 885.038997 68.40381 
z
" style="fill:#ffffff;stroke:#808080;stroke-linejoin:miter;"/>
    </g>
    <!-- MASE_18670 -->
    <g style="fill:#262626;" transform="translate(885.038997 62.91756)scale(0.11 -0.11)">
     <use xlink:href="#ArialMT-77"/>
     <use x="83.300781" xlink:href="#ArialMT-65"/>
     <use x="150" xlink:href="#ArialMT-83"/>
     <use x="216.699219" xlink:href="#ArialMT-69"/>
     <use x="283.398438" xlink:href="#ArialMT-95"/>
     <use x="339.013672" xlink:href="#ArialMT-49"/>
     <use x="394.628906" xlink:href="#ArialMT-56"/>
     <use x="450.244141" xlink:href="#ArialMT-54"/>
     <use x="505.859375" xlink:href="#ArialMT-55"/>
     <use x="561.474609" xlink:href="#ArialMT-48"/>
    </g>
   </g>
   <g id="text_25">
    <g id="patch_36">
     <path d="M 906.750711 94.807239 
L 974.627586 94.807239 
Q 977.927586 94.807239 977.927586 91.507239 
L 977.927586 81.313333 
Q 977.927586 78.013333 974.627586 78.013333 
L 906.750711 78.013333 
Q 903.450711 78.013333 903.450711 81.313333 
L 903.450711 91.507239 
Q 903.450711 94.807239 906.750711 94.807239 
z
" style="fill:#ffffff;stroke:#808080;stroke-linejoin:miter;"/>
    </g>
    <!-- MASE_18675 -->
    <g style="fill:#262626;" transform="translate(906.750711 89.320989)scale(0.11 -0.11)">
     <use xlink:href="#ArialMT-77"/>
     <use x="83.300781" xlink:href="#ArialMT-65"/>
     <use x="150" xlink:href="#ArialMT-83"/>
     <use x="216.699219" xlink:href="#ArialMT-69"/>
     <use x="283.398438" xlink:href="#ArialMT-95"/>
     <use x="339.013672" xlink:href="#ArialMT-49"/>
     <use x="394.628906" xlink:href="#ArialMT-56"/>
     <use x="450.244141" xlink:href="#ArialMT-54"/>
     <use x="505.859375" xlink:href="#ArialMT-55"/>
     <use x="561.474609" xlink:href="#ArialMT-53"/>
    </g>
   </g>
   <g id="text_26">
    <g id="patch_37">
     <path d="M 928.283433 42.000382 
L 996.160308 42.000382 
Q 999.460308 42.000382 999.460308 38.700382 
L 999.460308 28.506475 
Q 999.460308 25.206475 996.160308 25.206475 
L 928.283433 25.206475 
Q 924.983433 25.206475 924.983433 28.506475 
L 924.983433 38.700382 
Q 924.983433 42.000382 928.283433 42.000382 
z
" style="fill:#f2f2f2;stroke:#808080;stroke-linejoin:miter;"/>
    </g>
    <!-- MASE_18680 -->
    <g style="fill:#262626;" transform="translate(928.283433 36.514132)scale(0.11 -0.11)">
     <use xlink:href="#ArialMT-77"/>
     <use x="83.300781" xlink:href="#ArialMT-65"/>
     <use x="150" xlink:href="#ArialMT-83"/>
     <use x="216.699219" xlink:href="#ArialMT-69"/>
     <use x="283.398438" xlink:href="#ArialMT-95"/>
     <use x="339.013672" xlink:href="#ArialMT-49"/>
     <use x="394.628906" xlink:href="#ArialMT-56"/>
     <use x="450.244141" xlink:href="#ArialMT-54"/>
     <use x="505.859375" xlink:href="#ArialMT-56"/>
     <use x="561.474609" xlink:href="#ArialMT-48"/>
    </g>
   </g>
  </g>
 </g>
 <defs>
  <clipPath id="p9d5099cfde">
   <rect height="184.824" width="1116" x="7.2" y="7.2"/>
  </clipPath>
 </defs>
</svg>
