<?xml version="1.0" encoding="utf-8" standalone="no"?>
<!DOCTYPE svg PUBLIC "-//W3C//DTD SVG 1.1//EN"
  "http://www.w3.org/Graphics/SVG/1.1/DTD/svg11.dtd">
<!-- Created with matplotlib (https://matplotlib.org/) -->
<svg height="197.039844pt" version="1.1" viewBox="0 0 1138.696665 197.039844" width="1138.696665pt" xmlns="http://www.w3.org/2000/svg" xmlns:xlink="http://www.w3.org/1999/xlink">
 <defs>
  <style type="text/css">
*{stroke-linecap:butt;stroke-linejoin:round;}
  </style>
 </defs>
 <g id="figure_1">
  <g id="patch_1">
   <path d="M 0 197.039844 
L 1138.696665 197.039844 
L 1138.696665 0 
L 0 0 
z
" style="fill:#ffffff;"/>
  </g>
  <g id="axes_1">
   <g id="line2d_1">
    <path clip-path="url(#p6e7bf668c3)" d="M 7.2 143.1 
L 1123.2 143.1 
" style="fill:none;stroke:#1a1a1a;stroke-linecap:round;stroke-width:1.5;"/>
   </g>
   <g id="patch_2">
    <path clip-path="url(#p6e7bf668c3)" d="M 290.286384 150.1 
Q 279.951745 150.1 269.617106 150.1 
L 269.617106 150.1 
Q 265.417605 146.6 261.218104 143.1 
Q 265.417605 139.6 269.617106 136.1 
L 269.617106 136.1 
Q 279.951745 136.1 290.286384 136.1 
L 290.286384 150.1 
z
" style="fill:#999999;fill-opacity:0.85;stroke:#000000;stroke-linecap:round;"/>
   </g>
   <g id="patch_3">
    <path clip-path="url(#p6e7bf668c3)" d="M 352.861943 150.1 
Q 329.211256 150.1 305.56057 150.1 
L 305.56057 150.1 
Q 301.360121 146.6 297.159672 143.1 
Q 301.360121 139.6 305.56057 136.1 
L 305.56057 136.1 
Q 329.211256 136.1 352.861943 136.1 
L 352.861943 150.1 
z
" style="fill:#999999;fill-opacity:0.85;stroke:#000000;stroke-linecap:round;"/>
   </g>
   <g id="patch_4">
    <path clip-path="url(#p6e7bf668c3)" d="M 368.147849 136.1 
Q 375.957804 136.1 383.76776 136.1 
L 383.76776 136.1 
Q 387.968159 139.6 392.168558 143.1 
Q 387.968159 146.6 383.76776 150.1 
L 383.76776 150.1 
Q 375.957804 150.1 368.147849 150.1 
L 368.147849 136.1 
z
" style="fill:#66cc99;fill-opacity:0.85;stroke:#000000;stroke-linecap:round;"/>
   </g>
   <g id="patch_5">
    <path clip-path="url(#p6e7bf668c3)" d="M 399.650418 136.1 
Q 425.611619 136.1 451.57282 136.1 
L 451.57282 136.1 
Q 455.771749 139.6 459.970679 143.1 
Q 455.771749 146.6 451.57282 150.1 
L 451.57282 150.1 
Q 425.611619 150.1 399.650418 150.1 
L 399.650418 136.1 
z
" style="fill:#ffffff;fill-opacity:0.85;stroke:#000000;stroke-linecap:round;"/>
   </g>
   <g id="patch_6">
    <path clip-path="url(#p6e7bf668c3)" d="M 556.697886 150.1 
Q 514.68092 150.1 472.663953 150.1 
L 472.663953 150.1 
Q 468.465218 146.6 464.266484 143.1 
Q 468.465218 139.6 472.663953 136.1 
L 472.663953 136.1 
Q 514.68092 136.1 556.697886 136.1 
L 556.697886 150.1 
z
" style="fill:#ffffff;fill-opacity:0.85;stroke:#000000;stroke-linecap:round;"/>
   </g>
   <g id="patch_7">
    <path clip-path="url(#p6e7bf668c3)" d="M 612.614947 150.1 
Q 594.763811 150.1 576.912676 150.1 
L 576.912676 150.1 
Q 572.712013 146.6 568.51135 143.1 
Q 572.712013 139.6 576.912676 136.1 
L 576.912676 136.1 
Q 594.763811 136.1 612.614947 136.1 
L 612.614947 150.1 
z
" style="fill:#ffffff;fill-opacity:0.85;stroke:#000000;stroke-linecap:round;"/>
   </g>
   <g id="patch_8">
    <path clip-path="url(#p6e7bf668c3)" d="M 626.599493 150.1 
Q 622.399493 146.6 618.199493 143.1 
Q 622.399493 139.6 626.599493 136.1 
z
" style="fill:#ffffff;fill-opacity:0.85;stroke:#000000;stroke-linecap:round;"/>
   </g>
   <g id="patch_9">
    <path clip-path="url(#p6e7bf668c3)" d="M 626.361523 136.1 
Q 632.239094 136.1 638.116665 136.1 
L 638.116665 136.1 
Q 642.316336 139.6 646.516007 143.1 
Q 642.316336 146.6 638.116665 150.1 
L 638.116665 150.1 
Q 632.239094 150.1 626.361523 150.1 
L 626.361523 136.1 
z
" style="fill:#ffffff;fill-opacity:0.85;stroke:#000000;stroke-linecap:round;"/>
   </g>
   <g id="patch_10">
    <path clip-path="url(#p6e7bf668c3)" d="M 652.243747 136.1 
Q 676.486292 136.1 700.728837 136.1 
L 700.728837 136.1 
Q 704.9281 139.6 709.127364 143.1 
Q 704.9281 146.6 700.728837 150.1 
L 700.728837 150.1 
Q 676.486292 150.1 652.243747 150.1 
L 652.243747 136.1 
z
" style="fill:#ffffff;fill-opacity:0.85;stroke:#000000;stroke-linecap:round;"/>
   </g>
   <g id="patch_11">
    <path clip-path="url(#p6e7bf668c3)" d="M 718.721328 136.1 
Q 753.217478 136.1 787.713627 136.1 
L 787.713627 136.1 
Q 791.91552 139.6 796.117414 143.1 
Q 791.91552 146.6 787.713627 150.1 
L 787.713627 150.1 
Q 753.217478 150.1 718.721328 150.1 
L 718.721328 136.1 
z
" style="fill:#ff0000;fill-opacity:0.85;stroke:#000000;stroke-linecap:round;"/>
   </g>
   <g id="patch_12">
    <path clip-path="url(#p6e7bf668c3)" d="M 796.475397 136.1 
Q 801.86966 136.1 807.263923 136.1 
L 807.263923 136.1 
Q 811.463624 139.6 815.663326 143.1 
Q 811.463624 146.6 807.263923 150.1 
L 807.263923 150.1 
Q 801.86966 150.1 796.475397 150.1 
L 796.475397 136.1 
z
" style="fill:#999999;fill-opacity:0.85;stroke:#000000;stroke-linecap:round;"/>
   </g>
   <g id="patch_13">
    <path clip-path="url(#p6e7bf668c3)" d="M 816.057108 136.1 
Q 838.418869 136.1 860.780631 136.1 
L 860.780631 136.1 
Q 864.981263 139.6 869.181896 143.1 
Q 864.981263 146.6 860.780631 150.1 
L 860.780631 150.1 
Q 838.418869 150.1 816.057108 150.1 
L 816.057108 136.1 
z
" style="fill:#003399;fill-opacity:0.85;stroke:#000000;stroke-linecap:round;"/>
   </g>
   <g id="matplotlib.axis_1">
    <g id="xtick_1">
     <g id="line2d_2">
      <path clip-path="url(#p6e7bf668c3)" d="M 107.732575 170.28 
L 107.732575 7.2 
" style="fill:none;stroke:#ffffff;stroke-linecap:round;"/>
     </g>
     <g id="line2d_3">
      <defs>
       <path d="M 0 0 
L 0 6 
" id="m802e366e51" style="stroke:#262626;stroke-width:1.25;"/>
      </defs>
      <g>
       <use style="fill:#262626;stroke:#262626;stroke-width:1.25;" x="107.732575" xlink:href="#m802e366e51" y="170.28"/>
      </g>
     </g>
     <g id="text_1">
      <!-- 1912000 -->
      <defs>
       <path d="M 37.25 0 
L 28.46875 0 
L 28.46875 56 
Q 25.296875 52.984375 20.140625 49.953125 
Q 14.984375 46.921875 10.890625 45.40625 
L 10.890625 53.90625 
Q 18.265625 57.375 23.78125 62.296875 
Q 29.296875 67.234375 31.59375 71.875 
L 37.25 71.875 
z
" id="ArialMT-49"/>
       <path d="M 5.46875 16.546875 
L 13.921875 17.328125 
Q 14.984375 11.375 18.015625 8.6875 
Q 21.046875 6 25.78125 6 
Q 29.828125 6 32.875 7.859375 
Q 35.9375 9.71875 37.890625 12.8125 
Q 39.84375 15.921875 41.15625 21.1875 
Q 42.484375 26.46875 42.484375 31.9375 
Q 42.484375 32.515625 42.4375 33.6875 
Q 39.796875 29.5 35.234375 26.875 
Q 30.671875 24.265625 25.34375 24.265625 
Q 16.453125 24.265625 10.296875 30.703125 
Q 4.15625 37.15625 4.15625 47.703125 
Q 4.15625 58.59375 10.578125 65.234375 
Q 17 71.875 26.65625 71.875 
Q 33.640625 71.875 39.421875 68.109375 
Q 45.21875 64.359375 48.21875 57.390625 
Q 51.21875 50.4375 51.21875 37.25 
Q 51.21875 23.53125 48.234375 15.40625 
Q 45.265625 7.28125 39.375 3.03125 
Q 33.5 -1.21875 25.59375 -1.21875 
Q 17.1875 -1.21875 11.859375 3.4375 
Q 6.546875 8.109375 5.46875 16.546875 
z
M 41.453125 48.140625 
Q 41.453125 55.71875 37.421875 60.15625 
Q 33.40625 64.59375 27.734375 64.59375 
Q 21.875 64.59375 17.53125 59.8125 
Q 13.1875 55.03125 13.1875 47.40625 
Q 13.1875 40.578125 17.3125 36.296875 
Q 21.4375 32.03125 27.484375 32.03125 
Q 33.59375 32.03125 37.515625 36.296875 
Q 41.453125 40.578125 41.453125 48.140625 
z
" id="ArialMT-57"/>
       <path d="M 50.34375 8.453125 
L 50.34375 0 
L 3.03125 0 
Q 2.9375 3.171875 4.046875 6.109375 
Q 5.859375 10.9375 9.828125 15.625 
Q 13.8125 20.3125 21.34375 26.46875 
Q 33.015625 36.03125 37.109375 41.625 
Q 41.21875 47.21875 41.21875 52.203125 
Q 41.21875 57.421875 37.46875 61 
Q 33.734375 64.59375 27.734375 64.59375 
Q 21.390625 64.59375 17.578125 60.78125 
Q 13.765625 56.984375 13.71875 50.25 
L 4.6875 51.171875 
Q 5.609375 61.28125 11.65625 66.578125 
Q 17.71875 71.875 27.9375 71.875 
Q 38.234375 71.875 44.234375 66.15625 
Q 50.25 60.453125 50.25 52 
Q 50.25 47.703125 48.484375 43.546875 
Q 46.734375 39.40625 42.65625 34.8125 
Q 38.578125 30.21875 29.109375 22.21875 
Q 21.1875 15.578125 18.9375 13.203125 
Q 16.703125 10.84375 15.234375 8.453125 
z
" id="ArialMT-50"/>
       <path d="M 4.15625 35.296875 
Q 4.15625 48 6.765625 55.734375 
Q 9.375 63.484375 14.515625 67.671875 
Q 19.671875 71.875 27.484375 71.875 
Q 33.25 71.875 37.59375 69.546875 
Q 41.9375 67.234375 44.765625 62.859375 
Q 47.609375 58.5 49.21875 52.21875 
Q 50.828125 45.953125 50.828125 35.296875 
Q 50.828125 22.703125 48.234375 14.96875 
Q 45.65625 7.234375 40.5 3 
Q 35.359375 -1.21875 27.484375 -1.21875 
Q 17.140625 -1.21875 11.234375 6.203125 
Q 4.15625 15.140625 4.15625 35.296875 
z
M 13.1875 35.296875 
Q 13.1875 17.671875 17.3125 11.828125 
Q 21.4375 6 27.484375 6 
Q 33.546875 6 37.671875 11.859375 
Q 41.796875 17.71875 41.796875 35.296875 
Q 41.796875 52.984375 37.671875 58.78125 
Q 33.546875 64.59375 27.390625 64.59375 
Q 21.34375 64.59375 17.71875 59.46875 
Q 13.1875 52.9375 13.1875 35.296875 
z
" id="ArialMT-48"/>
      </defs>
      <g style="fill:#262626;" transform="translate(86.322965 187.653594)scale(0.11 -0.11)">
       <use xlink:href="#ArialMT-49"/>
       <use x="55.615234" xlink:href="#ArialMT-57"/>
       <use x="111.230469" xlink:href="#ArialMT-49"/>
       <use x="166.845703" xlink:href="#ArialMT-50"/>
       <use x="222.460938" xlink:href="#ArialMT-48"/>
       <use x="278.076172" xlink:href="#ArialMT-48"/>
       <use x="333.691406" xlink:href="#ArialMT-48"/>
      </g>
     </g>
    </g>
    <g id="xtick_2">
     <g id="line2d_4">
      <path clip-path="url(#p6e7bf668c3)" d="M 250.926072 170.28 
L 250.926072 7.2 
" style="fill:none;stroke:#ffffff;stroke-linecap:round;"/>
     </g>
     <g id="line2d_5">
      <g>
       <use style="fill:#262626;stroke:#262626;stroke-width:1.25;" x="250.926072" xlink:href="#m802e366e51" y="170.28"/>
      </g>
     </g>
     <g id="text_2">
      <!-- 1916000 -->
      <defs>
       <path d="M 49.75 54.046875 
L 41.015625 53.375 
Q 39.84375 58.546875 37.703125 60.890625 
Q 34.125 64.65625 28.90625 64.65625 
Q 24.703125 64.65625 21.53125 62.3125 
Q 17.390625 59.28125 14.984375 53.46875 
Q 12.59375 47.65625 12.5 36.921875 
Q 15.671875 41.75 20.265625 44.09375 
Q 24.859375 46.4375 29.890625 46.4375 
Q 38.671875 46.4375 44.84375 39.96875 
Q 51.03125 33.5 51.03125 23.25 
Q 51.03125 16.5 48.125 10.71875 
Q 45.21875 4.9375 40.140625 1.859375 
Q 35.0625 -1.21875 28.609375 -1.21875 
Q 17.625 -1.21875 10.6875 6.859375 
Q 3.765625 14.9375 3.765625 33.5 
Q 3.765625 54.25 11.421875 63.671875 
Q 18.109375 71.875 29.4375 71.875 
Q 37.890625 71.875 43.28125 67.140625 
Q 48.6875 62.40625 49.75 54.046875 
z
M 13.875 23.1875 
Q 13.875 18.65625 15.796875 14.5 
Q 17.71875 10.359375 21.1875 8.171875 
Q 24.65625 6 28.46875 6 
Q 34.03125 6 38.03125 10.484375 
Q 42.046875 14.984375 42.046875 22.703125 
Q 42.046875 30.125 38.078125 34.390625 
Q 34.125 38.671875 28.125 38.671875 
Q 22.171875 38.671875 18.015625 34.390625 
Q 13.875 30.125 13.875 23.1875 
z
" id="ArialMT-54"/>
      </defs>
      <g style="fill:#262626;" transform="translate(229.516462 187.653594)scale(0.11 -0.11)">
       <use xlink:href="#ArialMT-49"/>
       <use x="55.615234" xlink:href="#ArialMT-57"/>
       <use x="111.230469" xlink:href="#ArialMT-49"/>
       <use x="166.845703" xlink:href="#ArialMT-54"/>
       <use x="222.460938" xlink:href="#ArialMT-48"/>
       <use x="278.076172" xlink:href="#ArialMT-48"/>
       <use x="333.691406" xlink:href="#ArialMT-48"/>
      </g>
     </g>
    </g>
    <g id="xtick_3">
     <g id="line2d_6">
      <path clip-path="url(#p6e7bf668c3)" d="M 394.119569 170.28 
L 394.119569 7.2 
" style="fill:none;stroke:#ffffff;stroke-linecap:round;"/>
     </g>
     <g id="line2d_7">
      <g>
       <use style="fill:#262626;stroke:#262626;stroke-width:1.25;" x="394.119569" xlink:href="#m802e366e51" y="170.28"/>
      </g>
     </g>
     <g id="text_3">
      <!-- 1920000 -->
      <g style="fill:#262626;" transform="translate(372.70996 187.653594)scale(0.11 -0.11)">
       <use xlink:href="#ArialMT-49"/>
       <use x="55.615234" xlink:href="#ArialMT-57"/>
       <use x="111.230469" xlink:href="#ArialMT-50"/>
       <use x="166.845703" xlink:href="#ArialMT-48"/>
       <use x="222.460938" xlink:href="#ArialMT-48"/>
       <use x="278.076172" xlink:href="#ArialMT-48"/>
       <use x="333.691406" xlink:href="#ArialMT-48"/>
      </g>
     </g>
    </g>
    <g id="xtick_4">
     <g id="line2d_8">
      <path clip-path="url(#p6e7bf668c3)" d="M 537.313066 170.28 
L 537.313066 7.2 
" style="fill:none;stroke:#ffffff;stroke-linecap:round;"/>
     </g>
     <g id="line2d_9">
      <g>
       <use style="fill:#262626;stroke:#262626;stroke-width:1.25;" x="537.313066" xlink:href="#m802e366e51" y="170.28"/>
      </g>
     </g>
     <g id="text_4">
      <!-- 1924000 -->
      <defs>
       <path d="M 32.328125 0 
L 32.328125 17.140625 
L 1.265625 17.140625 
L 1.265625 25.203125 
L 33.9375 71.578125 
L 41.109375 71.578125 
L 41.109375 25.203125 
L 50.78125 25.203125 
L 50.78125 17.140625 
L 41.109375 17.140625 
L 41.109375 0 
z
M 32.328125 25.203125 
L 32.328125 57.46875 
L 9.90625 25.203125 
z
" id="ArialMT-52"/>
      </defs>
      <g style="fill:#262626;" transform="translate(515.903457 187.653594)scale(0.11 -0.11)">
       <use xlink:href="#ArialMT-49"/>
       <use x="55.615234" xlink:href="#ArialMT-57"/>
       <use x="111.230469" xlink:href="#ArialMT-50"/>
       <use x="166.845703" xlink:href="#ArialMT-52"/>
       <use x="222.460938" xlink:href="#ArialMT-48"/>
       <use x="278.076172" xlink:href="#ArialMT-48"/>
       <use x="333.691406" xlink:href="#ArialMT-48"/>
      </g>
     </g>
    </g>
    <g id="xtick_5">
     <g id="line2d_10">
      <path clip-path="url(#p6e7bf668c3)" d="M 680.506564 170.28 
L 680.506564 7.2 
" style="fill:none;stroke:#ffffff;stroke-linecap:round;"/>
     </g>
     <g id="line2d_11">
      <g>
       <use style="fill:#262626;stroke:#262626;stroke-width:1.25;" x="680.506564" xlink:href="#m802e366e51" y="170.28"/>
      </g>
     </g>
     <g id="text_5">
      <!-- 1928000 -->
      <defs>
       <path d="M 17.671875 38.8125 
Q 12.203125 40.828125 9.5625 44.53125 
Q 6.9375 48.25 6.9375 53.421875 
Q 6.9375 61.234375 12.546875 66.546875 
Q 18.171875 71.875 27.484375 71.875 
Q 36.859375 71.875 42.578125 66.421875 
Q 48.296875 60.984375 48.296875 53.171875 
Q 48.296875 48.1875 45.671875 44.5 
Q 43.0625 40.828125 37.75 38.8125 
Q 44.34375 36.671875 47.78125 31.875 
Q 51.21875 27.09375 51.21875 20.453125 
Q 51.21875 11.28125 44.71875 5.03125 
Q 38.234375 -1.21875 27.640625 -1.21875 
Q 17.046875 -1.21875 10.546875 5.046875 
Q 4.046875 11.328125 4.046875 20.703125 
Q 4.046875 27.6875 7.59375 32.390625 
Q 11.140625 37.109375 17.671875 38.8125 
z
M 15.921875 53.71875 
Q 15.921875 48.640625 19.1875 45.40625 
Q 22.46875 42.1875 27.6875 42.1875 
Q 32.765625 42.1875 36.015625 45.375 
Q 39.265625 48.578125 39.265625 53.21875 
Q 39.265625 58.0625 35.90625 61.359375 
Q 32.5625 64.65625 27.59375 64.65625 
Q 22.5625 64.65625 19.234375 61.421875 
Q 15.921875 58.203125 15.921875 53.71875 
z
M 13.09375 20.65625 
Q 13.09375 16.890625 14.875 13.375 
Q 16.65625 9.859375 20.171875 7.921875 
Q 23.6875 6 27.734375 6 
Q 34.03125 6 38.125 10.046875 
Q 42.234375 14.109375 42.234375 20.359375 
Q 42.234375 26.703125 38.015625 30.859375 
Q 33.796875 35.015625 27.4375 35.015625 
Q 21.234375 35.015625 17.15625 30.90625 
Q 13.09375 26.8125 13.09375 20.65625 
z
" id="ArialMT-56"/>
      </defs>
      <g style="fill:#262626;" transform="translate(659.096954 187.653594)scale(0.11 -0.11)">
       <use xlink:href="#ArialMT-49"/>
       <use x="55.615234" xlink:href="#ArialMT-57"/>
       <use x="111.230469" xlink:href="#ArialMT-50"/>
       <use x="166.845703" xlink:href="#ArialMT-56"/>
       <use x="222.460938" xlink:href="#ArialMT-48"/>
       <use x="278.076172" xlink:href="#ArialMT-48"/>
       <use x="333.691406" xlink:href="#ArialMT-48"/>
      </g>
     </g>
    </g>
    <g id="xtick_6">
     <g id="line2d_12">
      <path clip-path="url(#p6e7bf668c3)" d="M 823.700061 170.28 
L 823.700061 7.2 
" style="fill:none;stroke:#ffffff;stroke-linecap:round;"/>
     </g>
     <g id="line2d_13">
      <g>
       <use style="fill:#262626;stroke:#262626;stroke-width:1.25;" x="823.700061" xlink:href="#m802e366e51" y="170.28"/>
      </g>
     </g>
     <g id="text_6">
      <!-- 1932000 -->
      <defs>
       <path d="M 4.203125 18.890625 
L 12.984375 20.0625 
Q 14.5 12.59375 18.140625 9.296875 
Q 21.78125 6 27 6 
Q 33.203125 6 37.46875 10.296875 
Q 41.75 14.59375 41.75 20.953125 
Q 41.75 27 37.796875 30.921875 
Q 33.84375 34.859375 27.734375 34.859375 
Q 25.25 34.859375 21.53125 33.890625 
L 22.515625 41.609375 
Q 23.390625 41.5 23.921875 41.5 
Q 29.546875 41.5 34.03125 44.421875 
Q 38.53125 47.359375 38.53125 53.46875 
Q 38.53125 58.296875 35.25 61.46875 
Q 31.984375 64.65625 26.8125 64.65625 
Q 21.6875 64.65625 18.265625 61.421875 
Q 14.84375 58.203125 13.875 51.765625 
L 5.078125 53.328125 
Q 6.6875 62.15625 12.390625 67.015625 
Q 18.109375 71.875 26.609375 71.875 
Q 32.46875 71.875 37.390625 69.359375 
Q 42.328125 66.84375 44.9375 62.5 
Q 47.5625 58.15625 47.5625 53.265625 
Q 47.5625 48.640625 45.0625 44.828125 
Q 42.578125 41.015625 37.703125 38.765625 
Q 44.046875 37.3125 47.5625 32.6875 
Q 51.078125 28.078125 51.078125 21.140625 
Q 51.078125 11.765625 44.234375 5.25 
Q 37.40625 -1.265625 26.953125 -1.265625 
Q 17.53125 -1.265625 11.296875 4.34375 
Q 5.078125 9.96875 4.203125 18.890625 
z
" id="ArialMT-51"/>
      </defs>
      <g style="fill:#262626;" transform="translate(802.290452 187.653594)scale(0.11 -0.11)">
       <use xlink:href="#ArialMT-49"/>
       <use x="55.615234" xlink:href="#ArialMT-57"/>
       <use x="111.230469" xlink:href="#ArialMT-51"/>
       <use x="166.845703" xlink:href="#ArialMT-50"/>
       <use x="222.460938" xlink:href="#ArialMT-48"/>
       <use x="278.076172" xlink:href="#ArialMT-48"/>
       <use x="333.691406" xlink:href="#ArialMT-48"/>
      </g>
     </g>
    </g>
    <g id="xtick_7">
     <g id="line2d_14">
      <path clip-path="url(#p6e7bf668c3)" d="M 966.893558 170.28 
L 966.893558 7.2 
" style="fill:none;stroke:#ffffff;stroke-linecap:round;"/>
     </g>
     <g id="line2d_15">
      <g>
       <use style="fill:#262626;stroke:#262626;stroke-width:1.25;" x="966.893558" xlink:href="#m802e366e51" y="170.28"/>
      </g>
     </g>
     <g id="text_7">
      <!-- 1936000 -->
      <g style="fill:#262626;" transform="translate(945.483949 187.653594)scale(0.11 -0.11)">
       <use xlink:href="#ArialMT-49"/>
       <use x="55.615234" xlink:href="#ArialMT-57"/>
       <use x="111.230469" xlink:href="#ArialMT-51"/>
       <use x="166.845703" xlink:href="#ArialMT-54"/>
       <use x="222.460938" xlink:href="#ArialMT-48"/>
       <use x="278.076172" xlink:href="#ArialMT-48"/>
       <use x="333.691406" xlink:href="#ArialMT-48"/>
      </g>
     </g>
    </g>
    <g id="xtick_8">
     <g id="line2d_16">
      <path clip-path="url(#p6e7bf668c3)" d="M 1110.087055 170.28 
L 1110.087055 7.2 
" style="fill:none;stroke:#ffffff;stroke-linecap:round;"/>
     </g>
     <g id="line2d_17">
      <g>
       <use style="fill:#262626;stroke:#262626;stroke-width:1.25;" x="1110.087055" xlink:href="#m802e366e51" y="170.28"/>
      </g>
     </g>
     <g id="text_8">
      <!-- 1940000 -->
      <g style="fill:#262626;" transform="translate(1088.677446 187.653594)scale(0.11 -0.11)">
       <use xlink:href="#ArialMT-49"/>
       <use x="55.615234" xlink:href="#ArialMT-57"/>
       <use x="111.230469" xlink:href="#ArialMT-52"/>
       <use x="166.845703" xlink:href="#ArialMT-48"/>
       <use x="222.460938" xlink:href="#ArialMT-48"/>
       <use x="278.076172" xlink:href="#ArialMT-48"/>
       <use x="333.691406" xlink:href="#ArialMT-48"/>
      </g>
     </g>
    </g>
   </g>
   <g id="line2d_18">
    <path clip-path="url(#p6e7bf668c3)" d="M 275.770144 88.74 
L 275.770144 143.1 
" style="fill:none;stroke:#1a1a1a;stroke-linecap:round;stroke-width:0.5;"/>
   </g>
   <g id="line2d_19">
    <path clip-path="url(#p6e7bf668c3)" d="M 325.028707 61.56 
L 325.028707 143.1 
" style="fill:none;stroke:#1a1a1a;stroke-linecap:round;stroke-width:0.5;"/>
   </g>
   <g id="line2d_20">
    <path clip-path="url(#p6e7bf668c3)" d="M 380.176102 88.74 
L 380.176102 143.1 
" style="fill:none;stroke:#1a1a1a;stroke-linecap:round;stroke-width:0.5;"/>
   </g>
   <g id="line2d_21">
    <path clip-path="url(#p6e7bf668c3)" d="M 429.828448 61.56 
L 429.828448 143.1 
" style="fill:none;stroke:#1a1a1a;stroke-linecap:round;stroke-width:0.5;"/>
   </g>
   <g id="line2d_22">
    <path clip-path="url(#p6e7bf668c3)" d="M 510.500084 88.74 
L 510.500084 143.1 
" style="fill:none;stroke:#1a1a1a;stroke-linecap:round;stroke-width:0.5;"/>
   </g>
   <g id="line2d_23">
    <path clip-path="url(#p6e7bf668c3)" d="M 590.581047 61.56 
L 590.581047 143.1 
" style="fill:none;stroke:#1a1a1a;stroke-linecap:round;stroke-width:0.5;"/>
   </g>
   <g id="line2d_24">
    <path clip-path="url(#p6e7bf668c3)" d="M 620.078908 88.74 
L 620.078908 143.1 
" style="fill:none;stroke:#1a1a1a;stroke-linecap:round;stroke-width:0.5;"/>
   </g>
   <g id="line2d_25">
    <path clip-path="url(#p6e7bf668c3)" d="M 636.456664 34.38 
L 636.456664 143.1 
" style="fill:none;stroke:#1a1a1a;stroke-linecap:round;stroke-width:0.5;"/>
   </g>
   <g id="line2d_26">
    <path clip-path="url(#p6e7bf668c3)" d="M 680.703455 61.56 
L 680.703455 143.1 
" style="fill:none;stroke:#1a1a1a;stroke-linecap:round;stroke-width:0.5;"/>
   </g>
   <g id="line2d_27">
    <path clip-path="url(#p6e7bf668c3)" d="M 757.43727 88.74 
L 757.43727 143.1 
" style="fill:none;stroke:#1a1a1a;stroke-linecap:round;stroke-width:0.5;"/>
   </g>
   <g id="line2d_28">
    <path clip-path="url(#p6e7bf668c3)" d="M 806.087261 61.56 
L 806.087261 143.1 
" style="fill:none;stroke:#1a1a1a;stroke-linecap:round;stroke-width:0.5;"/>
   </g>
   <g id="line2d_29">
    <path clip-path="url(#p6e7bf668c3)" d="M 842.637401 34.38 
L 842.637401 143.1 
" style="fill:none;stroke:#1a1a1a;stroke-linecap:round;stroke-width:0.5;"/>
   </g>
   <g id="text_9">
    <g id="patch_14">
     <path d="M 241.831706 97.136953 
L 309.708581 97.136953 
Q 313.008581 97.136953 313.008581 93.836953 
L 313.008581 83.643047 
Q 313.008581 80.343047 309.708581 80.343047 
L 241.831706 80.343047 
Q 238.531706 80.343047 238.531706 83.643047 
L 238.531706 93.836953 
Q 238.531706 97.136953 241.831706 97.136953 
z
" style="fill:#f2f2f2;stroke:#808080;stroke-linejoin:miter;"/>
    </g>
    <!-- MASE_08155 -->
    <defs>
     <path d="M 7.421875 0 
L 7.421875 71.578125 
L 21.6875 71.578125 
L 38.625 20.90625 
Q 40.96875 13.8125 42.046875 10.296875 
Q 43.265625 14.203125 45.84375 21.78125 
L 62.984375 71.578125 
L 75.734375 71.578125 
L 75.734375 0 
L 66.609375 0 
L 66.609375 59.90625 
L 45.796875 0 
L 37.25 0 
L 16.546875 60.9375 
L 16.546875 0 
z
" id="ArialMT-77"/>
     <path d="M -0.140625 0 
L 27.34375 71.578125 
L 37.546875 71.578125 
L 66.84375 0 
L 56.0625 0 
L 47.703125 21.6875 
L 17.78125 21.6875 
L 9.90625 0 
z
M 20.515625 29.390625 
L 44.78125 29.390625 
L 37.3125 49.21875 
Q 33.890625 58.25 32.234375 64.0625 
Q 30.859375 57.171875 28.375 50.390625 
z
" id="ArialMT-65"/>
     <path d="M 4.5 23 
L 13.421875 23.78125 
Q 14.0625 18.40625 16.375 14.96875 
Q 18.703125 11.53125 23.578125 9.40625 
Q 28.46875 7.28125 34.578125 7.28125 
Q 39.984375 7.28125 44.140625 8.890625 
Q 48.296875 10.5 50.3125 13.296875 
Q 52.34375 16.109375 52.34375 19.4375 
Q 52.34375 22.796875 50.390625 25.3125 
Q 48.4375 27.828125 43.953125 29.546875 
Q 41.0625 30.671875 31.203125 33.03125 
Q 21.34375 35.40625 17.390625 37.5 
Q 12.25 40.1875 9.734375 44.15625 
Q 7.234375 48.140625 7.234375 53.078125 
Q 7.234375 58.5 10.296875 63.203125 
Q 13.375 67.921875 19.28125 70.359375 
Q 25.203125 72.796875 32.421875 72.796875 
Q 40.375 72.796875 46.453125 70.234375 
Q 52.546875 67.671875 55.8125 62.6875 
Q 59.078125 57.71875 59.328125 51.421875 
L 50.25 50.734375 
Q 49.515625 57.515625 45.28125 60.984375 
Q 41.0625 64.453125 32.8125 64.453125 
Q 24.21875 64.453125 20.28125 61.296875 
Q 16.359375 58.15625 16.359375 53.71875 
Q 16.359375 49.859375 19.140625 47.359375 
Q 21.875 44.875 33.421875 42.265625 
Q 44.96875 39.65625 49.265625 37.703125 
Q 55.515625 34.8125 58.484375 30.390625 
Q 61.46875 25.984375 61.46875 20.21875 
Q 61.46875 14.5 58.203125 9.4375 
Q 54.9375 4.390625 48.796875 1.578125 
Q 42.671875 -1.21875 35.015625 -1.21875 
Q 25.296875 -1.21875 18.71875 1.609375 
Q 12.15625 4.4375 8.421875 10.125 
Q 4.6875 15.828125 4.5 23 
z
" id="ArialMT-83"/>
     <path d="M 7.90625 0 
L 7.90625 71.578125 
L 59.671875 71.578125 
L 59.671875 63.140625 
L 17.390625 63.140625 
L 17.390625 41.21875 
L 56.984375 41.21875 
L 56.984375 32.8125 
L 17.390625 32.8125 
L 17.390625 8.453125 
L 61.328125 8.453125 
L 61.328125 0 
z
" id="ArialMT-69"/>
     <path d="M -1.515625 -19.875 
L -1.515625 -13.53125 
L 56.734375 -13.53125 
L 56.734375 -19.875 
z
" id="ArialMT-95"/>
     <path d="M 4.15625 18.75 
L 13.375 19.53125 
Q 14.40625 12.796875 18.140625 9.390625 
Q 21.875 6 27.15625 6 
Q 33.5 6 37.890625 10.78125 
Q 42.28125 15.578125 42.28125 23.484375 
Q 42.28125 31 38.0625 35.34375 
Q 33.84375 39.703125 27 39.703125 
Q 22.75 39.703125 19.328125 37.765625 
Q 15.921875 35.84375 13.96875 32.765625 
L 5.71875 33.84375 
L 12.640625 70.609375 
L 48.25 70.609375 
L 48.25 62.203125 
L 19.671875 62.203125 
L 15.828125 42.96875 
Q 22.265625 47.46875 29.34375 47.46875 
Q 38.71875 47.46875 45.15625 40.96875 
Q 51.609375 34.46875 51.609375 24.265625 
Q 51.609375 14.546875 45.953125 7.46875 
Q 39.0625 -1.21875 27.15625 -1.21875 
Q 17.390625 -1.21875 11.203125 4.25 
Q 5.03125 9.71875 4.15625 18.75 
z
" id="ArialMT-53"/>
    </defs>
    <g style="fill:#262626;" transform="translate(241.831706 91.650703)scale(0.11 -0.11)">
     <use xlink:href="#ArialMT-77"/>
     <use x="83.300781" xlink:href="#ArialMT-65"/>
     <use x="150" xlink:href="#ArialMT-83"/>
     <use x="216.699219" xlink:href="#ArialMT-69"/>
     <use x="283.398438" xlink:href="#ArialMT-95"/>
     <use x="339.013672" xlink:href="#ArialMT-48"/>
     <use x="394.628906" xlink:href="#ArialMT-56"/>
     <use x="450.244141" xlink:href="#ArialMT-49"/>
     <use x="505.859375" xlink:href="#ArialMT-53"/>
     <use x="561.474609" xlink:href="#ArialMT-53"/>
    </g>
   </g>
   <g id="text_10">
    <g id="patch_15">
     <path d="M 291.090269 69.956953 
L 358.967144 69.956953 
Q 362.267144 69.956953 362.267144 66.656953 
L 362.267144 56.463047 
Q 362.267144 53.163047 358.967144 53.163047 
L 291.090269 53.163047 
Q 287.790269 53.163047 287.790269 56.463047 
L 287.790269 66.656953 
Q 287.790269 69.956953 291.090269 69.956953 
z
" style="fill:#f2f2f2;stroke:#808080;stroke-linejoin:miter;"/>
    </g>
    <!-- MASE_08160 -->
    <g style="fill:#262626;" transform="translate(291.090269 64.470703)scale(0.11 -0.11)">
     <use xlink:href="#ArialMT-77"/>
     <use x="83.300781" xlink:href="#ArialMT-65"/>
     <use x="150" xlink:href="#ArialMT-83"/>
     <use x="216.699219" xlink:href="#ArialMT-69"/>
     <use x="283.398438" xlink:href="#ArialMT-95"/>
     <use x="339.013672" xlink:href="#ArialMT-48"/>
     <use x="394.628906" xlink:href="#ArialMT-56"/>
     <use x="450.244141" xlink:href="#ArialMT-49"/>
     <use x="505.859375" xlink:href="#ArialMT-54"/>
     <use x="561.474609" xlink:href="#ArialMT-48"/>
    </g>
   </g>
   <g id="text_11">
    <g id="patch_16">
     <path d="M 346.237665 97.136953 
L 414.11454 97.136953 
Q 417.41454 97.136953 417.41454 93.836953 
L 417.41454 83.643047 
Q 417.41454 80.343047 414.11454 80.343047 
L 346.237665 80.343047 
Q 342.937665 80.343047 342.937665 83.643047 
L 342.937665 93.836953 
Q 342.937665 97.136953 346.237665 97.136953 
z
" style="fill:#ecf9f2;stroke:#808080;stroke-linejoin:miter;"/>
    </g>
    <!-- MASE_08165 -->
    <g style="fill:#262626;" transform="translate(346.237665 91.650703)scale(0.11 -0.11)">
     <use xlink:href="#ArialMT-77"/>
     <use x="83.300781" xlink:href="#ArialMT-65"/>
     <use x="150" xlink:href="#ArialMT-83"/>
     <use x="216.699219" xlink:href="#ArialMT-69"/>
     <use x="283.398438" xlink:href="#ArialMT-95"/>
     <use x="339.013672" xlink:href="#ArialMT-48"/>
     <use x="394.628906" xlink:href="#ArialMT-56"/>
     <use x="450.244141" xlink:href="#ArialMT-49"/>
     <use x="505.859375" xlink:href="#ArialMT-54"/>
     <use x="561.474609" xlink:href="#ArialMT-53"/>
    </g>
   </g>
   <g id="text_12">
    <g id="patch_17">
     <path d="M 395.89001 69.956953 
L 463.766885 69.956953 
Q 467.066885 69.956953 467.066885 66.656953 
L 467.066885 56.463047 
Q 467.066885 53.163047 463.766885 53.163047 
L 395.89001 53.163047 
Q 392.59001 53.163047 392.59001 56.463047 
L 392.59001 66.656953 
Q 392.59001 69.956953 395.89001 69.956953 
z
" style="fill:#ffffff;stroke:#808080;stroke-linejoin:miter;"/>
    </g>
    <!-- MASE_08170 -->
    <defs>
     <path d="M 4.734375 62.203125 
L 4.734375 70.65625 
L 51.078125 70.65625 
L 51.078125 63.8125 
Q 44.234375 56.546875 37.515625 44.484375 
Q 30.8125 32.421875 27.15625 19.671875 
Q 24.515625 10.6875 23.78125 0 
L 14.75 0 
Q 14.890625 8.453125 18.0625 20.40625 
Q 21.234375 32.375 27.171875 43.484375 
Q 33.109375 54.59375 39.796875 62.203125 
z
" id="ArialMT-55"/>
    </defs>
    <g style="fill:#262626;" transform="translate(395.89001 64.470703)scale(0.11 -0.11)">
     <use xlink:href="#ArialMT-77"/>
     <use x="83.300781" xlink:href="#ArialMT-65"/>
     <use x="150" xlink:href="#ArialMT-83"/>
     <use x="216.699219" xlink:href="#ArialMT-69"/>
     <use x="283.398438" xlink:href="#ArialMT-95"/>
     <use x="339.013672" xlink:href="#ArialMT-48"/>
     <use x="394.628906" xlink:href="#ArialMT-56"/>
     <use x="450.244141" xlink:href="#ArialMT-49"/>
     <use x="505.859375" xlink:href="#ArialMT-55"/>
     <use x="561.474609" xlink:href="#ArialMT-48"/>
    </g>
   </g>
   <g id="text_13">
    <g id="patch_18">
     <path d="M 476.561647 97.136953 
L 544.438522 97.136953 
Q 547.738522 97.136953 547.738522 93.836953 
L 547.738522 83.643047 
Q 547.738522 80.343047 544.438522 80.343047 
L 476.561647 80.343047 
Q 473.261647 80.343047 473.261647 83.643047 
L 473.261647 93.836953 
Q 473.261647 97.136953 476.561647 97.136953 
z
" style="fill:#ffffff;stroke:#808080;stroke-linejoin:miter;"/>
    </g>
    <!-- MASE_08175 -->
    <g style="fill:#262626;" transform="translate(476.561647 91.650703)scale(0.11 -0.11)">
     <use xlink:href="#ArialMT-77"/>
     <use x="83.300781" xlink:href="#ArialMT-65"/>
     <use x="150" xlink:href="#ArialMT-83"/>
     <use x="216.699219" xlink:href="#ArialMT-69"/>
     <use x="283.398438" xlink:href="#ArialMT-95"/>
     <use x="339.013672" xlink:href="#ArialMT-48"/>
     <use x="394.628906" xlink:href="#ArialMT-56"/>
     <use x="450.244141" xlink:href="#ArialMT-49"/>
     <use x="505.859375" xlink:href="#ArialMT-55"/>
     <use x="561.474609" xlink:href="#ArialMT-53"/>
    </g>
   </g>
   <g id="text_14">
    <g id="patch_19">
     <path d="M 556.64261 69.956953 
L 624.519485 69.956953 
Q 627.819485 69.956953 627.819485 66.656953 
L 627.819485 56.463047 
Q 627.819485 53.163047 624.519485 53.163047 
L 556.64261 53.163047 
Q 553.34261 53.163047 553.34261 56.463047 
L 553.34261 66.656953 
Q 553.34261 69.956953 556.64261 69.956953 
z
" style="fill:#ffffff;stroke:#808080;stroke-linejoin:miter;"/>
    </g>
    <!-- MASE_08180 -->
    <g style="fill:#262626;" transform="translate(556.64261 64.470703)scale(0.11 -0.11)">
     <use xlink:href="#ArialMT-77"/>
     <use x="83.300781" xlink:href="#ArialMT-65"/>
     <use x="150" xlink:href="#ArialMT-83"/>
     <use x="216.699219" xlink:href="#ArialMT-69"/>
     <use x="283.398438" xlink:href="#ArialMT-95"/>
     <use x="339.013672" xlink:href="#ArialMT-48"/>
     <use x="394.628906" xlink:href="#ArialMT-56"/>
     <use x="450.244141" xlink:href="#ArialMT-49"/>
     <use x="505.859375" xlink:href="#ArialMT-56"/>
     <use x="561.474609" xlink:href="#ArialMT-48"/>
    </g>
   </g>
   <g id="text_15">
    <g id="patch_20">
     <path d="M 586.14047 97.136953 
L 654.017345 97.136953 
Q 657.317345 97.136953 657.317345 93.836953 
L 657.317345 83.643047 
Q 657.317345 80.343047 654.017345 80.343047 
L 586.14047 80.343047 
Q 582.84047 80.343047 582.84047 83.643047 
L 582.84047 93.836953 
Q 582.84047 97.136953 586.14047 97.136953 
z
" style="fill:#ffffff;stroke:#808080;stroke-linejoin:miter;"/>
    </g>
    <!-- MASE_08185 -->
    <g style="fill:#262626;" transform="translate(586.14047 91.650703)scale(0.11 -0.11)">
     <use xlink:href="#ArialMT-77"/>
     <use x="83.300781" xlink:href="#ArialMT-65"/>
     <use x="150" xlink:href="#ArialMT-83"/>
     <use x="216.699219" xlink:href="#ArialMT-69"/>
     <use x="283.398438" xlink:href="#ArialMT-95"/>
     <use x="339.013672" xlink:href="#ArialMT-48"/>
     <use x="394.628906" xlink:href="#ArialMT-56"/>
     <use x="450.244141" xlink:href="#ArialMT-49"/>
     <use x="505.859375" xlink:href="#ArialMT-56"/>
     <use x="561.474609" xlink:href="#ArialMT-53"/>
    </g>
   </g>
   <g id="text_16">
    <g id="patch_21">
     <path d="M 602.518227 42.776953 
L 670.395102 42.776953 
Q 673.695102 42.776953 673.695102 39.476953 
L 673.695102 29.283047 
Q 673.695102 25.983047 670.395102 25.983047 
L 602.518227 25.983047 
Q 599.218227 25.983047 599.218227 29.283047 
L 599.218227 39.476953 
Q 599.218227 42.776953 602.518227 42.776953 
z
" style="fill:#ffffff;stroke:#808080;stroke-linejoin:miter;"/>
    </g>
    <!-- MASE_08190 -->
    <g style="fill:#262626;" transform="translate(602.518227 37.290703)scale(0.11 -0.11)">
     <use xlink:href="#ArialMT-77"/>
     <use x="83.300781" xlink:href="#ArialMT-65"/>
     <use x="150" xlink:href="#ArialMT-83"/>
     <use x="216.699219" xlink:href="#ArialMT-69"/>
     <use x="283.398438" xlink:href="#ArialMT-95"/>
     <use x="339.013672" xlink:href="#ArialMT-48"/>
     <use x="394.628906" xlink:href="#ArialMT-56"/>
     <use x="450.244141" xlink:href="#ArialMT-49"/>
     <use x="505.859375" xlink:href="#ArialMT-57"/>
     <use x="561.474609" xlink:href="#ArialMT-48"/>
    </g>
   </g>
   <g id="text_17">
    <g id="patch_22">
     <path d="M 646.765017 69.956953 
L 714.641892 69.956953 
Q 717.941892 69.956953 717.941892 66.656953 
L 717.941892 56.463047 
Q 717.941892 53.163047 714.641892 53.163047 
L 646.765017 53.163047 
Q 643.465017 53.163047 643.465017 56.463047 
L 643.465017 66.656953 
Q 643.465017 69.956953 646.765017 69.956953 
z
" style="fill:#ffffff;stroke:#808080;stroke-linejoin:miter;"/>
    </g>
    <!-- MASE_08195 -->
    <g style="fill:#262626;" transform="translate(646.765017 64.470703)scale(0.11 -0.11)">
     <use xlink:href="#ArialMT-77"/>
     <use x="83.300781" xlink:href="#ArialMT-65"/>
     <use x="150" xlink:href="#ArialMT-83"/>
     <use x="216.699219" xlink:href="#ArialMT-69"/>
     <use x="283.398438" xlink:href="#ArialMT-95"/>
     <use x="339.013672" xlink:href="#ArialMT-48"/>
     <use x="394.628906" xlink:href="#ArialMT-56"/>
     <use x="450.244141" xlink:href="#ArialMT-49"/>
     <use x="505.859375" xlink:href="#ArialMT-57"/>
     <use x="561.474609" xlink:href="#ArialMT-53"/>
    </g>
   </g>
   <g id="text_18">
    <g id="patch_23">
     <path d="M 723.498833 97.136953 
L 791.375708 97.136953 
Q 794.675708 97.136953 794.675708 93.836953 
L 794.675708 83.643047 
Q 794.675708 80.343047 791.375708 80.343047 
L 723.498833 80.343047 
Q 720.198833 80.343047 720.198833 83.643047 
L 720.198833 93.836953 
Q 720.198833 97.136953 723.498833 97.136953 
z
" style="fill:#ffecec;stroke:#808080;stroke-linejoin:miter;"/>
    </g>
    <!-- MASE_08200 -->
    <g style="fill:#262626;" transform="translate(723.498833 91.650703)scale(0.11 -0.11)">
     <use xlink:href="#ArialMT-77"/>
     <use x="83.300781" xlink:href="#ArialMT-65"/>
     <use x="150" xlink:href="#ArialMT-83"/>
     <use x="216.699219" xlink:href="#ArialMT-69"/>
     <use x="283.398438" xlink:href="#ArialMT-95"/>
     <use x="339.013672" xlink:href="#ArialMT-48"/>
     <use x="394.628906" xlink:href="#ArialMT-56"/>
     <use x="450.244141" xlink:href="#ArialMT-50"/>
     <use x="505.859375" xlink:href="#ArialMT-48"/>
     <use x="561.474609" xlink:href="#ArialMT-48"/>
    </g>
   </g>
   <g id="text_19">
    <g id="patch_24">
     <path d="M 772.148823 69.956953 
L 840.025698 69.956953 
Q 843.325698 69.956953 843.325698 66.656953 
L 843.325698 56.463047 
Q 843.325698 53.163047 840.025698 53.163047 
L 772.148823 53.163047 
Q 768.848823 53.163047 768.848823 56.463047 
L 768.848823 66.656953 
Q 768.848823 69.956953 772.148823 69.956953 
z
" style="fill:#f2f2f2;stroke:#808080;stroke-linejoin:miter;"/>
    </g>
    <!-- MASE_08205 -->
    <g style="fill:#262626;" transform="translate(772.148823 64.470703)scale(0.11 -0.11)">
     <use xlink:href="#ArialMT-77"/>
     <use x="83.300781" xlink:href="#ArialMT-65"/>
     <use x="150" xlink:href="#ArialMT-83"/>
     <use x="216.699219" xlink:href="#ArialMT-69"/>
     <use x="283.398438" xlink:href="#ArialMT-95"/>
     <use x="339.013672" xlink:href="#ArialMT-48"/>
     <use x="394.628906" xlink:href="#ArialMT-56"/>
     <use x="450.244141" xlink:href="#ArialMT-50"/>
     <use x="505.859375" xlink:href="#ArialMT-48"/>
     <use x="561.474609" xlink:href="#ArialMT-53"/>
    </g>
   </g>
   <g id="text_20">
    <g id="patch_25">
     <path d="M 808.698963 42.776953 
L 876.575838 42.776953 
Q 879.875838 42.776953 879.875838 39.476953 
L 879.875838 29.283047 
Q 879.875838 25.983047 876.575838 25.983047 
L 808.698963 25.983047 
Q 805.398963 25.983047 805.398963 29.283047 
L 805.398963 39.476953 
Q 805.398963 42.776953 808.698963 42.776953 
z
" style="fill:#eef1f8;stroke:#808080;stroke-linejoin:miter;"/>
    </g>
    <!-- MASE_08210 -->
    <g style="fill:#262626;" transform="translate(808.698963 37.290703)scale(0.11 -0.11)">
     <use xlink:href="#ArialMT-77"/>
     <use x="83.300781" xlink:href="#ArialMT-65"/>
     <use x="150" xlink:href="#ArialMT-83"/>
     <use x="216.699219" xlink:href="#ArialMT-69"/>
     <use x="283.398438" xlink:href="#ArialMT-95"/>
     <use x="339.013672" xlink:href="#ArialMT-48"/>
     <use x="394.628906" xlink:href="#ArialMT-56"/>
     <use x="450.244141" xlink:href="#ArialMT-50"/>
     <use x="505.859375" xlink:href="#ArialMT-49"/>
     <use x="561.474609" xlink:href="#ArialMT-48"/>
    </g>
   </g>
  </g>
 </g>
 <defs>
  <clipPath id="p6e7bf668c3">
   <rect height="163.08" width="1116" x="7.2" y="7.2"/>
  </clipPath>
 </defs>
</svg>
