<?xml version="1.0" encoding="utf-8" standalone="no"?>
<!DOCTYPE svg PUBLIC "-//W3C//DTD SVG 1.1//EN"
  "http://www.w3.org/Graphics/SVG/1.1/DTD/svg11.dtd">
<!-- Created with matplotlib (https://matplotlib.org/) -->
<svg height="218.783844pt" version="1.1" viewBox="0 0 1130.4 218.783844" width="1130.4pt" xmlns="http://www.w3.org/2000/svg" xmlns:xlink="http://www.w3.org/1999/xlink">
 <defs>
  <style type="text/css">
*{stroke-linecap:butt;stroke-linejoin:round;}
  </style>
 </defs>
 <g id="figure_1">
  <g id="patch_1">
   <path d="M 0 218.783844 
L 1130.4 218.783844 
L 1130.4 0 
L 0 0 
z
" style="fill:#ffffff;"/>
  </g>
  <g id="axes_1">
   <g id="line2d_1">
    <path clip-path="url(#p08aafa8a09)" d="M 7.2 165.620571 
L 1123.2 165.620571 
" style="fill:none;stroke:#1a1a1a;stroke-linecap:round;stroke-width:1.5;"/>
   </g>
   <g id="patch_2">
    <path clip-path="url(#p08aafa8a09)" d="M 199.984985 158.620571 
Q 216.063741 158.620571 232.142496 158.620571 
L 232.142496 158.620571 
Q 236.34352 162.120571 240.544543 165.620571 
Q 236.34352 169.120571 232.142496 172.620571 
L 232.142496 172.620571 
Q 216.063741 172.620571 199.984985 172.620571 
L 199.984985 158.620571 
z
" style="fill:#999999;fill-opacity:0.85;stroke:#000000;stroke-linecap:round;"/>
   </g>
   <g id="patch_3">
    <path clip-path="url(#p08aafa8a09)" d="M 310.243978 158.620571 
Q 343.506566 158.620571 376.769154 158.620571 
L 376.769154 158.620571 
Q 380.969565 162.120571 385.169976 165.620571 
Q 380.969565 169.120571 376.769154 172.620571 
L 376.769154 172.620571 
Q 343.506566 172.620571 310.243978 172.620571 
L 310.243978 158.620571 
z
" style="fill:#ff0000;fill-opacity:0.85;stroke:#000000;stroke-linecap:round;"/>
   </g>
   <g id="patch_4">
    <path clip-path="url(#p08aafa8a09)" d="M 391.184102 158.620571 
Q 396.47166 158.620571 401.759218 158.620571 
L 401.759218 158.620571 
Q 405.95823 162.120571 410.157241 165.620571 
Q 405.95823 169.120571 401.759218 172.620571 
L 401.759218 172.620571 
Q 396.47166 172.620571 391.184102 172.620571 
L 391.184102 158.620571 
z
" style="fill:#ffffff;fill-opacity:0.85;stroke:#000000;stroke-linecap:round;"/>
   </g>
   <g id="patch_5">
    <path clip-path="url(#p08aafa8a09)" d="M 411.0522 158.620571 
Q 416.286799 158.620571 421.521398 158.620571 
L 421.521398 158.620571 
Q 425.719671 162.120571 429.917943 165.620571 
Q 425.719671 169.120571 421.521398 172.620571 
L 421.521398 172.620571 
Q 416.286799 172.620571 411.0522 172.620571 
L 411.0522 158.620571 
z
" style="fill:#ffffff;fill-opacity:0.85;stroke:#000000;stroke-linecap:round;"/>
   </g>
   <g id="patch_6">
    <path clip-path="url(#p08aafa8a09)" d="M 476.24104 172.620571 
Q 458.603764 172.620571 440.966488 172.620571 
L 440.966488 172.620571 
Q 436.766755 169.120571 432.567023 165.620571 
Q 436.766755 162.120571 440.966488 158.620571 
L 440.966488 158.620571 
Q 458.603764 158.620571 476.24104 158.620571 
L 476.24104 172.620571 
z
" style="fill:#ffffff;fill-opacity:0.85;stroke:#000000;stroke-linecap:round;"/>
   </g>
   <g id="patch_7">
    <path clip-path="url(#p08aafa8a09)" d="M 483.901892 158.620571 
Q 496.222019 158.620571 508.542146 158.620571 
L 508.542146 158.620571 
Q 512.742969 162.120571 516.943791 165.620571 
Q 512.742969 169.120571 508.542146 172.620571 
L 508.542146 172.620571 
Q 496.222019 172.620571 483.901892 172.620571 
L 483.901892 158.620571 
z
" style="fill:#ffffff;fill-opacity:0.85;stroke:#000000;stroke-linecap:round;"/>
   </g>
   <g id="patch_8">
    <path clip-path="url(#p08aafa8a09)" d="M 521.561782 158.620571 
Q 530.984609 158.620571 540.407436 158.620571 
L 540.407436 158.620571 
Q 544.605891 162.120571 548.804345 165.620571 
Q 544.605891 169.120571 540.407436 172.620571 
L 540.407436 172.620571 
Q 530.984609 172.620571 521.561782 172.620571 
L 521.561782 158.620571 
z
" style="fill:#ffffff;fill-opacity:0.85;stroke:#000000;stroke-linecap:round;"/>
   </g>
   <g id="patch_9">
    <path clip-path="url(#p08aafa8a09)" d="M 556.465197 158.620571 
Q 577.056762 158.620571 597.648327 158.620571 
L 597.648327 158.620571 
Q 601.847136 162.120571 606.045945 165.620571 
Q 601.847136 169.120571 597.648327 172.620571 
L 597.648327 172.620571 
Q 577.056762 172.620571 556.465197 172.620571 
L 556.465197 158.620571 
z
" style="fill:#ffffff;fill-opacity:0.85;stroke:#000000;stroke-linecap:round;"/>
   </g>
   <g id="patch_10">
    <path clip-path="url(#p08aafa8a09)" d="M 606.15334 158.620571 
Q 621.856329 158.620571 637.559317 158.620571 
L 637.559317 158.620571 
Q 641.760225 162.120571 645.961132 165.620571 
Q 641.760225 169.120571 637.559317 172.620571 
L 637.559317 172.620571 
Q 621.856329 172.620571 606.15334 172.620571 
L 606.15334 158.620571 
z
" style="fill:#ffffff;fill-opacity:0.85;stroke:#000000;stroke-linecap:round;"/>
   </g>
   <g id="patch_11">
    <path clip-path="url(#p08aafa8a09)" d="M 693.393978 172.620571 
Q 675.648532 172.620571 657.903085 172.620571 
L 657.903085 172.620571 
Q 653.704128 169.120571 649.505172 165.620571 
Q 653.704128 162.120571 657.903085 158.620571 
L 657.903085 158.620571 
Q 675.648532 158.620571 693.393978 158.620571 
L 693.393978 172.620571 
z
" style="fill:#ffffff;fill-opacity:0.85;stroke:#000000;stroke-linecap:round;"/>
   </g>
   <g id="patch_12">
    <path clip-path="url(#p08aafa8a09)" d="M 742.187163 172.620571 
Q 726.108407 172.620571 710.029652 172.620571 
L 710.029652 172.620571 
Q 705.828628 169.120571 701.627605 165.620571 
Q 705.828628 162.120571 710.029652 158.620571 
L 710.029652 158.620571 
Q 726.108407 158.620571 742.187163 158.620571 
L 742.187163 172.620571 
z
" style="fill:#336633;fill-opacity:0.85;stroke:#000000;stroke-linecap:round;"/>
   </g>
   <g id="patch_13">
    <path clip-path="url(#p08aafa8a09)" d="M 769.644516 146.217143 
Q 760.063141 146.217143 750.481767 146.217143 
L 750.481767 146.217143 
Q 746.280767 142.717143 742.079768 139.217143 
Q 746.280767 135.717143 750.481767 132.217143 
L 750.481767 132.217143 
Q 760.063141 132.217143 769.644516 132.217143 
L 769.644516 146.217143 
z
" style="fill:#336633;fill-opacity:0.85;stroke:#000000;stroke-linecap:round;"/>
   </g>
   <g id="patch_14">
    <path clip-path="url(#p08aafa8a09)" d="M 778.116112 146.217143 
Q 773.916112 142.717143 769.716112 139.217143 
Q 773.916112 135.717143 778.116112 132.217143 
z
" style="fill:#336633;fill-opacity:0.85;stroke:#000000;stroke-linecap:round;"/>
   </g>
   <g id="patch_15">
    <path clip-path="url(#p08aafa8a09)" d="M 805.084906 172.620571 
Q 795.289283 172.620571 785.49366 172.620571 
L 785.49366 172.620571 
Q 781.292119 169.120571 777.090578 165.620571 
Q 781.292119 162.120571 785.49366 158.620571 
L 785.49366 158.620571 
Q 795.289283 158.620571 805.084906 158.620571 
L 805.084906 172.620571 
z
" style="fill:#336633;fill-opacity:0.85;stroke:#000000;stroke-linecap:round;"/>
   </g>
   <g id="patch_16">
    <path clip-path="url(#p08aafa8a09)" d="M 862.147515 146.217143 
Q 837.690409 146.217143 813.233304 146.217143 
L 813.233304 146.217143 
Q 809.033811 142.717143 804.834318 139.217143 
Q 809.033811 135.717143 813.233304 132.217143 
L 813.233304 132.217143 
Q 837.690409 132.217143 862.147515 132.217143 
L 862.147515 146.217143 
z
" style="fill:#336633;fill-opacity:0.85;stroke:#000000;stroke-linecap:round;"/>
   </g>
   <g id="patch_17">
    <path clip-path="url(#p08aafa8a09)" d="M 930.415015 172.620571 
Q 900.427966 172.620571 870.440917 172.620571 
L 870.440917 172.620571 
Q 866.240519 169.120571 862.04012 165.620571 
Q 866.240519 162.120571 870.440917 158.620571 
L 870.440917 158.620571 
Q 900.427966 158.620571 930.415015 158.620571 
L 930.415015 172.620571 
z
" style="fill:#336633;fill-opacity:0.85;stroke:#000000;stroke-linecap:round;"/>
   </g>
   <g id="matplotlib.axis_1">
    <g id="xtick_1">
     <g id="line2d_2">
      <path clip-path="url(#p08aafa8a09)" d="M 102.309121 192.024 
L 102.309121 7.2 
" style="fill:none;stroke:#ffffff;stroke-linecap:round;"/>
     </g>
     <g id="line2d_3">
      <defs>
       <path d="M 0 0 
L 0 6 
" id="ma9fea7a627" style="stroke:#262626;stroke-width:1.25;"/>
      </defs>
      <g>
       <use style="fill:#262626;stroke:#262626;stroke-width:1.25;" x="102.309121" xlink:href="#ma9fea7a627" y="192.024"/>
      </g>
     </g>
     <g id="text_1">
      <!-- 84000 -->
      <defs>
       <path d="M 17.671875 38.8125 
Q 12.203125 40.828125 9.5625 44.53125 
Q 6.9375 48.25 6.9375 53.421875 
Q 6.9375 61.234375 12.546875 66.546875 
Q 18.171875 71.875 27.484375 71.875 
Q 36.859375 71.875 42.578125 66.421875 
Q 48.296875 60.984375 48.296875 53.171875 
Q 48.296875 48.1875 45.671875 44.5 
Q 43.0625 40.828125 37.75 38.8125 
Q 44.34375 36.671875 47.78125 31.875 
Q 51.21875 27.09375 51.21875 20.453125 
Q 51.21875 11.28125 44.71875 5.03125 
Q 38.234375 -1.21875 27.640625 -1.21875 
Q 17.046875 -1.21875 10.546875 5.046875 
Q 4.046875 11.328125 4.046875 20.703125 
Q 4.046875 27.6875 7.59375 32.390625 
Q 11.140625 37.109375 17.671875 38.8125 
z
M 15.921875 53.71875 
Q 15.921875 48.640625 19.1875 45.40625 
Q 22.46875 42.1875 27.6875 42.1875 
Q 32.765625 42.1875 36.015625 45.375 
Q 39.265625 48.578125 39.265625 53.21875 
Q 39.265625 58.0625 35.90625 61.359375 
Q 32.5625 64.65625 27.59375 64.65625 
Q 22.5625 64.65625 19.234375 61.421875 
Q 15.921875 58.203125 15.921875 53.71875 
z
M 13.09375 20.65625 
Q 13.09375 16.890625 14.875 13.375 
Q 16.65625 9.859375 20.171875 7.921875 
Q 23.6875 6 27.734375 6 
Q 34.03125 6 38.125 10.046875 
Q 42.234375 14.109375 42.234375 20.359375 
Q 42.234375 26.703125 38.015625 30.859375 
Q 33.796875 35.015625 27.4375 35.015625 
Q 21.234375 35.015625 17.15625 30.90625 
Q 13.09375 26.8125 13.09375 20.65625 
z
" id="ArialMT-56"/>
       <path d="M 32.328125 0 
L 32.328125 17.140625 
L 1.265625 17.140625 
L 1.265625 25.203125 
L 33.9375 71.578125 
L 41.109375 71.578125 
L 41.109375 25.203125 
L 50.78125 25.203125 
L 50.78125 17.140625 
L 41.109375 17.140625 
L 41.109375 0 
z
M 32.328125 25.203125 
L 32.328125 57.46875 
L 9.90625 25.203125 
z
" id="ArialMT-52"/>
       <path d="M 4.15625 35.296875 
Q 4.15625 48 6.765625 55.734375 
Q 9.375 63.484375 14.515625 67.671875 
Q 19.671875 71.875 27.484375 71.875 
Q 33.25 71.875 37.59375 69.546875 
Q 41.9375 67.234375 44.765625 62.859375 
Q 47.609375 58.5 49.21875 52.21875 
Q 50.828125 45.953125 50.828125 35.296875 
Q 50.828125 22.703125 48.234375 14.96875 
Q 45.65625 7.234375 40.5 3 
Q 35.359375 -1.21875 27.484375 -1.21875 
Q 17.140625 -1.21875 11.234375 6.203125 
Q 4.15625 15.140625 4.15625 35.296875 
z
M 13.1875 35.296875 
Q 13.1875 17.671875 17.3125 11.828125 
Q 21.4375 6 27.484375 6 
Q 33.546875 6 37.671875 11.859375 
Q 41.796875 17.71875 41.796875 35.296875 
Q 41.796875 52.984375 37.671875 58.78125 
Q 33.546875 64.59375 27.390625 64.59375 
Q 21.34375 64.59375 17.71875 59.46875 
Q 13.1875 52.9375 13.1875 35.296875 
z
" id="ArialMT-48"/>
      </defs>
      <g style="fill:#262626;" transform="translate(87.016543 209.397594)scale(0.11 -0.11)">
       <use xlink:href="#ArialMT-56"/>
       <use x="55.615234" xlink:href="#ArialMT-52"/>
       <use x="111.230469" xlink:href="#ArialMT-48"/>
       <use x="166.845703" xlink:href="#ArialMT-48"/>
       <use x="222.460938" xlink:href="#ArialMT-48"/>
      </g>
     </g>
    </g>
    <g id="xtick_2">
     <g id="line2d_4">
      <path clip-path="url(#p08aafa8a09)" d="M 245.502618 192.024 
L 245.502618 7.2 
" style="fill:none;stroke:#ffffff;stroke-linecap:round;"/>
     </g>
     <g id="line2d_5">
      <g>
       <use style="fill:#262626;stroke:#262626;stroke-width:1.25;" x="245.502618" xlink:href="#ma9fea7a627" y="192.024"/>
      </g>
     </g>
     <g id="text_2">
      <!-- 88000 -->
      <g style="fill:#262626;" transform="translate(230.21004 209.397594)scale(0.11 -0.11)">
       <use xlink:href="#ArialMT-56"/>
       <use x="55.615234" xlink:href="#ArialMT-56"/>
       <use x="111.230469" xlink:href="#ArialMT-48"/>
       <use x="166.845703" xlink:href="#ArialMT-48"/>
       <use x="222.460938" xlink:href="#ArialMT-48"/>
      </g>
     </g>
    </g>
    <g id="xtick_3">
     <g id="line2d_6">
      <path clip-path="url(#p08aafa8a09)" d="M 388.696115 192.024 
L 388.696115 7.2 
" style="fill:none;stroke:#ffffff;stroke-linecap:round;"/>
     </g>
     <g id="line2d_7">
      <g>
       <use style="fill:#262626;stroke:#262626;stroke-width:1.25;" x="388.696115" xlink:href="#ma9fea7a627" y="192.024"/>
      </g>
     </g>
     <g id="text_3">
      <!-- 92000 -->
      <defs>
       <path d="M 5.46875 16.546875 
L 13.921875 17.328125 
Q 14.984375 11.375 18.015625 8.6875 
Q 21.046875 6 25.78125 6 
Q 29.828125 6 32.875 7.859375 
Q 35.9375 9.71875 37.890625 12.8125 
Q 39.84375 15.921875 41.15625 21.1875 
Q 42.484375 26.46875 42.484375 31.9375 
Q 42.484375 32.515625 42.4375 33.6875 
Q 39.796875 29.5 35.234375 26.875 
Q 30.671875 24.265625 25.34375 24.265625 
Q 16.453125 24.265625 10.296875 30.703125 
Q 4.15625 37.15625 4.15625 47.703125 
Q 4.15625 58.59375 10.578125 65.234375 
Q 17 71.875 26.65625 71.875 
Q 33.640625 71.875 39.421875 68.109375 
Q 45.21875 64.359375 48.21875 57.390625 
Q 51.21875 50.4375 51.21875 37.25 
Q 51.21875 23.53125 48.234375 15.40625 
Q 45.265625 7.28125 39.375 3.03125 
Q 33.5 -1.21875 25.59375 -1.21875 
Q 17.1875 -1.21875 11.859375 3.4375 
Q 6.546875 8.109375 5.46875 16.546875 
z
M 41.453125 48.140625 
Q 41.453125 55.71875 37.421875 60.15625 
Q 33.40625 64.59375 27.734375 64.59375 
Q 21.875 64.59375 17.53125 59.8125 
Q 13.1875 55.03125 13.1875 47.40625 
Q 13.1875 40.578125 17.3125 36.296875 
Q 21.4375 32.03125 27.484375 32.03125 
Q 33.59375 32.03125 37.515625 36.296875 
Q 41.453125 40.578125 41.453125 48.140625 
z
" id="ArialMT-57"/>
       <path d="M 50.34375 8.453125 
L 50.34375 0 
L 3.03125 0 
Q 2.9375 3.171875 4.046875 6.109375 
Q 5.859375 10.9375 9.828125 15.625 
Q 13.8125 20.3125 21.34375 26.46875 
Q 33.015625 36.03125 37.109375 41.625 
Q 41.21875 47.21875 41.21875 52.203125 
Q 41.21875 57.421875 37.46875 61 
Q 33.734375 64.59375 27.734375 64.59375 
Q 21.390625 64.59375 17.578125 60.78125 
Q 13.765625 56.984375 13.71875 50.25 
L 4.6875 51.171875 
Q 5.609375 61.28125 11.65625 66.578125 
Q 17.71875 71.875 27.9375 71.875 
Q 38.234375 71.875 44.234375 66.15625 
Q 50.25 60.453125 50.25 52 
Q 50.25 47.703125 48.484375 43.546875 
Q 46.734375 39.40625 42.65625 34.8125 
Q 38.578125 30.21875 29.109375 22.21875 
Q 21.1875 15.578125 18.9375 13.203125 
Q 16.703125 10.84375 15.234375 8.453125 
z
" id="ArialMT-50"/>
      </defs>
      <g style="fill:#262626;" transform="translate(373.403537 209.397594)scale(0.11 -0.11)">
       <use xlink:href="#ArialMT-57"/>
       <use x="55.615234" xlink:href="#ArialMT-50"/>
       <use x="111.230469" xlink:href="#ArialMT-48"/>
       <use x="166.845703" xlink:href="#ArialMT-48"/>
       <use x="222.460938" xlink:href="#ArialMT-48"/>
      </g>
     </g>
    </g>
    <g id="xtick_4">
     <g id="line2d_8">
      <path clip-path="url(#p08aafa8a09)" d="M 531.889613 192.024 
L 531.889613 7.2 
" style="fill:none;stroke:#ffffff;stroke-linecap:round;"/>
     </g>
     <g id="line2d_9">
      <g>
       <use style="fill:#262626;stroke:#262626;stroke-width:1.25;" x="531.889613" xlink:href="#ma9fea7a627" y="192.024"/>
      </g>
     </g>
     <g id="text_4">
      <!-- 96000 -->
      <defs>
       <path d="M 49.75 54.046875 
L 41.015625 53.375 
Q 39.84375 58.546875 37.703125 60.890625 
Q 34.125 64.65625 28.90625 64.65625 
Q 24.703125 64.65625 21.53125 62.3125 
Q 17.390625 59.28125 14.984375 53.46875 
Q 12.59375 47.65625 12.5 36.921875 
Q 15.671875 41.75 20.265625 44.09375 
Q 24.859375 46.4375 29.890625 46.4375 
Q 38.671875 46.4375 44.84375 39.96875 
Q 51.03125 33.5 51.03125 23.25 
Q 51.03125 16.5 48.125 10.71875 
Q 45.21875 4.9375 40.140625 1.859375 
Q 35.0625 -1.21875 28.609375 -1.21875 
Q 17.625 -1.21875 10.6875 6.859375 
Q 3.765625 14.9375 3.765625 33.5 
Q 3.765625 54.25 11.421875 63.671875 
Q 18.109375 71.875 29.4375 71.875 
Q 37.890625 71.875 43.28125 67.140625 
Q 48.6875 62.40625 49.75 54.046875 
z
M 13.875 23.1875 
Q 13.875 18.65625 15.796875 14.5 
Q 17.71875 10.359375 21.1875 8.171875 
Q 24.65625 6 28.46875 6 
Q 34.03125 6 38.03125 10.484375 
Q 42.046875 14.984375 42.046875 22.703125 
Q 42.046875 30.125 38.078125 34.390625 
Q 34.125 38.671875 28.125 38.671875 
Q 22.171875 38.671875 18.015625 34.390625 
Q 13.875 30.125 13.875 23.1875 
z
" id="ArialMT-54"/>
      </defs>
      <g style="fill:#262626;" transform="translate(516.597035 209.397594)scale(0.11 -0.11)">
       <use xlink:href="#ArialMT-57"/>
       <use x="55.615234" xlink:href="#ArialMT-54"/>
       <use x="111.230469" xlink:href="#ArialMT-48"/>
       <use x="166.845703" xlink:href="#ArialMT-48"/>
       <use x="222.460938" xlink:href="#ArialMT-48"/>
      </g>
     </g>
    </g>
    <g id="xtick_5">
     <g id="line2d_10">
      <path clip-path="url(#p08aafa8a09)" d="M 675.08311 192.024 
L 675.08311 7.2 
" style="fill:none;stroke:#ffffff;stroke-linecap:round;"/>
     </g>
     <g id="line2d_11">
      <g>
       <use style="fill:#262626;stroke:#262626;stroke-width:1.25;" x="675.08311" xlink:href="#ma9fea7a627" y="192.024"/>
      </g>
     </g>
     <g id="text_5">
      <!-- 100000 -->
      <defs>
       <path d="M 37.25 0 
L 28.46875 0 
L 28.46875 56 
Q 25.296875 52.984375 20.140625 49.953125 
Q 14.984375 46.921875 10.890625 45.40625 
L 10.890625 53.90625 
Q 18.265625 57.375 23.78125 62.296875 
Q 29.296875 67.234375 31.59375 71.875 
L 37.25 71.875 
z
" id="ArialMT-49"/>
      </defs>
      <g style="fill:#262626;" transform="translate(656.732016 209.397594)scale(0.11 -0.11)">
       <use xlink:href="#ArialMT-49"/>
       <use x="55.615234" xlink:href="#ArialMT-48"/>
       <use x="111.230469" xlink:href="#ArialMT-48"/>
       <use x="166.845703" xlink:href="#ArialMT-48"/>
       <use x="222.460938" xlink:href="#ArialMT-48"/>
       <use x="278.076172" xlink:href="#ArialMT-48"/>
      </g>
     </g>
    </g>
    <g id="xtick_6">
     <g id="line2d_12">
      <path clip-path="url(#p08aafa8a09)" d="M 818.276607 192.024 
L 818.276607 7.2 
" style="fill:none;stroke:#ffffff;stroke-linecap:round;"/>
     </g>
     <g id="line2d_13">
      <g>
       <use style="fill:#262626;stroke:#262626;stroke-width:1.25;" x="818.276607" xlink:href="#ma9fea7a627" y="192.024"/>
      </g>
     </g>
     <g id="text_6">
      <!-- 104000 -->
      <g style="fill:#262626;" transform="translate(799.925513 209.397594)scale(0.11 -0.11)">
       <use xlink:href="#ArialMT-49"/>
       <use x="55.615234" xlink:href="#ArialMT-48"/>
       <use x="111.230469" xlink:href="#ArialMT-52"/>
       <use x="166.845703" xlink:href="#ArialMT-48"/>
       <use x="222.460938" xlink:href="#ArialMT-48"/>
       <use x="278.076172" xlink:href="#ArialMT-48"/>
      </g>
     </g>
    </g>
    <g id="xtick_7">
     <g id="line2d_14">
      <path clip-path="url(#p08aafa8a09)" d="M 961.470105 192.024 
L 961.470105 7.2 
" style="fill:none;stroke:#ffffff;stroke-linecap:round;"/>
     </g>
     <g id="line2d_15">
      <g>
       <use style="fill:#262626;stroke:#262626;stroke-width:1.25;" x="961.470105" xlink:href="#ma9fea7a627" y="192.024"/>
      </g>
     </g>
     <g id="text_7">
      <!-- 108000 -->
      <g style="fill:#262626;" transform="translate(943.119011 209.397594)scale(0.11 -0.11)">
       <use xlink:href="#ArialMT-49"/>
       <use x="55.615234" xlink:href="#ArialMT-48"/>
       <use x="111.230469" xlink:href="#ArialMT-56"/>
       <use x="166.845703" xlink:href="#ArialMT-48"/>
       <use x="222.460938" xlink:href="#ArialMT-48"/>
       <use x="278.076172" xlink:href="#ArialMT-48"/>
      </g>
     </g>
    </g>
    <g id="xtick_8">
     <g id="line2d_16">
      <path clip-path="url(#p08aafa8a09)" d="M 1104.663602 192.024 
L 1104.663602 7.2 
" style="fill:none;stroke:#ffffff;stroke-linecap:round;"/>
     </g>
     <g id="line2d_17">
      <g>
       <use style="fill:#262626;stroke:#262626;stroke-width:1.25;" x="1104.663602" xlink:href="#ma9fea7a627" y="192.024"/>
      </g>
     </g>
     <g id="text_8">
      <!-- 112000 -->
      <g style="fill:#262626;" transform="translate(1086.318524 209.397594)scale(0.11 -0.11)">
       <use xlink:href="#ArialMT-49"/>
       <use x="55.505859" xlink:href="#ArialMT-49"/>
       <use x="111.121094" xlink:href="#ArialMT-50"/>
       <use x="166.736328" xlink:href="#ArialMT-48"/>
       <use x="222.351562" xlink:href="#ArialMT-48"/>
       <use x="277.966797" xlink:href="#ArialMT-48"/>
      </g>
     </g>
    </g>
   </g>
   <g id="line2d_18">
    <path clip-path="url(#p08aafa8a09)" d="M 220.282663 112.813714 
L 220.282663 165.620571 
" style="fill:none;stroke:#1a1a1a;stroke-linecap:round;stroke-width:0.5;"/>
   </g>
   <g id="line2d_19">
    <path clip-path="url(#p08aafa8a09)" d="M 347.724876 112.813714 
L 347.724876 165.620571 
" style="fill:none;stroke:#1a1a1a;stroke-linecap:round;stroke-width:0.5;"/>
   </g>
   <g id="line2d_20">
    <path clip-path="url(#p08aafa8a09)" d="M 400.688571 86.410286 
L 400.688571 165.620571 
" style="fill:none;stroke:#1a1a1a;stroke-linecap:round;stroke-width:0.5;"/>
   </g>
   <g id="line2d_21">
    <path clip-path="url(#p08aafa8a09)" d="M 420.502971 60.006857 
L 420.502971 165.620571 
" style="fill:none;stroke:#1a1a1a;stroke-linecap:round;stroke-width:0.5;"/>
   </g>
   <g id="line2d_22">
    <path clip-path="url(#p08aafa8a09)" d="M 454.421931 112.813714 
L 454.421931 165.620571 
" style="fill:none;stroke:#1a1a1a;stroke-linecap:round;stroke-width:0.5;"/>
   </g>
   <g id="line2d_23">
    <path clip-path="url(#p08aafa8a09)" d="M 500.440741 86.410286 
L 500.440741 165.620571 
" style="fill:none;stroke:#1a1a1a;stroke-linecap:round;stroke-width:0.5;"/>
   </g>
   <g id="line2d_24">
    <path clip-path="url(#p08aafa8a09)" d="M 535.200962 60.006857 
L 535.200962 165.620571 
" style="fill:none;stroke:#1a1a1a;stroke-linecap:round;stroke-width:0.5;"/>
   </g>
   <g id="line2d_25">
    <path clip-path="url(#p08aafa8a09)" d="M 581.27347 112.813714 
L 581.27347 165.620571 
" style="fill:none;stroke:#1a1a1a;stroke-linecap:round;stroke-width:0.5;"/>
   </g>
   <g id="line2d_26">
    <path clip-path="url(#p08aafa8a09)" d="M 626.075136 86.410286 
L 626.075136 165.620571 
" style="fill:none;stroke:#1a1a1a;stroke-linecap:round;stroke-width:0.5;"/>
   </g>
   <g id="line2d_27">
    <path clip-path="url(#p08aafa8a09)" d="M 671.467474 112.813714 
L 671.467474 165.620571 
" style="fill:none;stroke:#1a1a1a;stroke-linecap:round;stroke-width:0.5;"/>
   </g>
   <g id="line2d_28">
    <path clip-path="url(#p08aafa8a09)" d="M 721.925283 86.410286 
L 721.925283 165.620571 
" style="fill:none;stroke:#1a1a1a;stroke-linecap:round;stroke-width:0.5;"/>
   </g>
   <g id="line2d_29">
    <path clip-path="url(#p08aafa8a09)" d="M 755.880041 60.006857 
L 755.880041 139.217143 
" style="fill:none;stroke:#1a1a1a;stroke-linecap:round;stroke-width:0.5;"/>
   </g>
   <g id="line2d_30">
    <path clip-path="url(#p08aafa8a09)" d="M 773.474942 112.813714 
L 773.474942 139.217143 
" style="fill:none;stroke:#1a1a1a;stroke-linecap:round;stroke-width:0.5;"/>
   </g>
   <g id="line2d_31">
    <path clip-path="url(#p08aafa8a09)" d="M 791.105641 33.603429 
L 791.105641 165.620571 
" style="fill:none;stroke:#1a1a1a;stroke-linecap:round;stroke-width:0.5;"/>
   </g>
   <g id="line2d_32">
    <path clip-path="url(#p08aafa8a09)" d="M 833.508816 86.410286 
L 833.508816 139.217143 
" style="fill:none;stroke:#1a1a1a;stroke-linecap:round;stroke-width:0.5;"/>
   </g>
   <g id="line2d_33">
    <path clip-path="url(#p08aafa8a09)" d="M 896.245467 112.813714 
L 896.245467 165.620571 
" style="fill:none;stroke:#1a1a1a;stroke-linecap:round;stroke-width:0.5;"/>
   </g>
   <g id="text_9">
    <g id="patch_18">
     <path d="M 186.344226 121.210667 
L 254.221101 121.210667 
Q 257.521101 121.210667 257.521101 117.910667 
L 257.521101 107.716761 
Q 257.521101 104.416761 254.221101 104.416761 
L 186.344226 104.416761 
Q 183.044226 104.416761 183.044226 107.716761 
L 183.044226 117.910667 
Q 183.044226 121.210667 186.344226 121.210667 
z
" style="fill:#f2f2f2;stroke:#808080;stroke-linejoin:miter;"/>
    </g>
    <!-- MASE_00385 -->
    <defs>
     <path d="M 7.421875 0 
L 7.421875 71.578125 
L 21.6875 71.578125 
L 38.625 20.90625 
Q 40.96875 13.8125 42.046875 10.296875 
Q 43.265625 14.203125 45.84375 21.78125 
L 62.984375 71.578125 
L 75.734375 71.578125 
L 75.734375 0 
L 66.609375 0 
L 66.609375 59.90625 
L 45.796875 0 
L 37.25 0 
L 16.546875 60.9375 
L 16.546875 0 
z
" id="ArialMT-77"/>
     <path d="M -0.140625 0 
L 27.34375 71.578125 
L 37.546875 71.578125 
L 66.84375 0 
L 56.0625 0 
L 47.703125 21.6875 
L 17.78125 21.6875 
L 9.90625 0 
z
M 20.515625 29.390625 
L 44.78125 29.390625 
L 37.3125 49.21875 
Q 33.890625 58.25 32.234375 64.0625 
Q 30.859375 57.171875 28.375 50.390625 
z
" id="ArialMT-65"/>
     <path d="M 4.5 23 
L 13.421875 23.78125 
Q 14.0625 18.40625 16.375 14.96875 
Q 18.703125 11.53125 23.578125 9.40625 
Q 28.46875 7.28125 34.578125 7.28125 
Q 39.984375 7.28125 44.140625 8.890625 
Q 48.296875 10.5 50.3125 13.296875 
Q 52.34375 16.109375 52.34375 19.4375 
Q 52.34375 22.796875 50.390625 25.3125 
Q 48.4375 27.828125 43.953125 29.546875 
Q 41.0625 30.671875 31.203125 33.03125 
Q 21.34375 35.40625 17.390625 37.5 
Q 12.25 40.1875 9.734375 44.15625 
Q 7.234375 48.140625 7.234375 53.078125 
Q 7.234375 58.5 10.296875 63.203125 
Q 13.375 67.921875 19.28125 70.359375 
Q 25.203125 72.796875 32.421875 72.796875 
Q 40.375 72.796875 46.453125 70.234375 
Q 52.546875 67.671875 55.8125 62.6875 
Q 59.078125 57.71875 59.328125 51.421875 
L 50.25 50.734375 
Q 49.515625 57.515625 45.28125 60.984375 
Q 41.0625 64.453125 32.8125 64.453125 
Q 24.21875 64.453125 20.28125 61.296875 
Q 16.359375 58.15625 16.359375 53.71875 
Q 16.359375 49.859375 19.140625 47.359375 
Q 21.875 44.875 33.421875 42.265625 
Q 44.96875 39.65625 49.265625 37.703125 
Q 55.515625 34.8125 58.484375 30.390625 
Q 61.46875 25.984375 61.46875 20.21875 
Q 61.46875 14.5 58.203125 9.4375 
Q 54.9375 4.390625 48.796875 1.578125 
Q 42.671875 -1.21875 35.015625 -1.21875 
Q 25.296875 -1.21875 18.71875 1.609375 
Q 12.15625 4.4375 8.421875 10.125 
Q 4.6875 15.828125 4.5 23 
z
" id="ArialMT-83"/>
     <path d="M 7.90625 0 
L 7.90625 71.578125 
L 59.671875 71.578125 
L 59.671875 63.140625 
L 17.390625 63.140625 
L 17.390625 41.21875 
L 56.984375 41.21875 
L 56.984375 32.8125 
L 17.390625 32.8125 
L 17.390625 8.453125 
L 61.328125 8.453125 
L 61.328125 0 
z
" id="ArialMT-69"/>
     <path d="M -1.515625 -19.875 
L -1.515625 -13.53125 
L 56.734375 -13.53125 
L 56.734375 -19.875 
z
" id="ArialMT-95"/>
     <path d="M 4.203125 18.890625 
L 12.984375 20.0625 
Q 14.5 12.59375 18.140625 9.296875 
Q 21.78125 6 27 6 
Q 33.203125 6 37.46875 10.296875 
Q 41.75 14.59375 41.75 20.953125 
Q 41.75 27 37.796875 30.921875 
Q 33.84375 34.859375 27.734375 34.859375 
Q 25.25 34.859375 21.53125 33.890625 
L 22.515625 41.609375 
Q 23.390625 41.5 23.921875 41.5 
Q 29.546875 41.5 34.03125 44.421875 
Q 38.53125 47.359375 38.53125 53.46875 
Q 38.53125 58.296875 35.25 61.46875 
Q 31.984375 64.65625 26.8125 64.65625 
Q 21.6875 64.65625 18.265625 61.421875 
Q 14.84375 58.203125 13.875 51.765625 
L 5.078125 53.328125 
Q 6.6875 62.15625 12.390625 67.015625 
Q 18.109375 71.875 26.609375 71.875 
Q 32.46875 71.875 37.390625 69.359375 
Q 42.328125 66.84375 44.9375 62.5 
Q 47.5625 58.15625 47.5625 53.265625 
Q 47.5625 48.640625 45.0625 44.828125 
Q 42.578125 41.015625 37.703125 38.765625 
Q 44.046875 37.3125 47.5625 32.6875 
Q 51.078125 28.078125 51.078125 21.140625 
Q 51.078125 11.765625 44.234375 5.25 
Q 37.40625 -1.265625 26.953125 -1.265625 
Q 17.53125 -1.265625 11.296875 4.34375 
Q 5.078125 9.96875 4.203125 18.890625 
z
" id="ArialMT-51"/>
     <path d="M 4.15625 18.75 
L 13.375 19.53125 
Q 14.40625 12.796875 18.140625 9.390625 
Q 21.875 6 27.15625 6 
Q 33.5 6 37.890625 10.78125 
Q 42.28125 15.578125 42.28125 23.484375 
Q 42.28125 31 38.0625 35.34375 
Q 33.84375 39.703125 27 39.703125 
Q 22.75 39.703125 19.328125 37.765625 
Q 15.921875 35.84375 13.96875 32.765625 
L 5.71875 33.84375 
L 12.640625 70.609375 
L 48.25 70.609375 
L 48.25 62.203125 
L 19.671875 62.203125 
L 15.828125 42.96875 
Q 22.265625 47.46875 29.34375 47.46875 
Q 38.71875 47.46875 45.15625 40.96875 
Q 51.609375 34.46875 51.609375 24.265625 
Q 51.609375 14.546875 45.953125 7.46875 
Q 39.0625 -1.21875 27.15625 -1.21875 
Q 17.390625 -1.21875 11.203125 4.25 
Q 5.03125 9.71875 4.15625 18.75 
z
" id="ArialMT-53"/>
    </defs>
    <g style="fill:#262626;" transform="translate(186.344226 115.724417)scale(0.11 -0.11)">
     <use xlink:href="#ArialMT-77"/>
     <use x="83.300781" xlink:href="#ArialMT-65"/>
     <use x="150" xlink:href="#ArialMT-83"/>
     <use x="216.699219" xlink:href="#ArialMT-69"/>
     <use x="283.398438" xlink:href="#ArialMT-95"/>
     <use x="339.013672" xlink:href="#ArialMT-48"/>
     <use x="394.628906" xlink:href="#ArialMT-48"/>
     <use x="450.244141" xlink:href="#ArialMT-51"/>
     <use x="505.859375" xlink:href="#ArialMT-56"/>
     <use x="561.474609" xlink:href="#ArialMT-53"/>
    </g>
   </g>
   <g id="text_10">
    <g id="patch_19">
     <path d="M 313.786439 121.210667 
L 381.663314 121.210667 
Q 384.963314 121.210667 384.963314 117.910667 
L 384.963314 107.716761 
Q 384.963314 104.416761 381.663314 104.416761 
L 313.786439 104.416761 
Q 310.486439 104.416761 310.486439 107.716761 
L 310.486439 117.910667 
Q 310.486439 121.210667 313.786439 121.210667 
z
" style="fill:#ffecec;stroke:#808080;stroke-linejoin:miter;"/>
    </g>
    <!-- MASE_00400 -->
    <g style="fill:#262626;" transform="translate(313.786439 115.724417)scale(0.11 -0.11)">
     <use xlink:href="#ArialMT-77"/>
     <use x="83.300781" xlink:href="#ArialMT-65"/>
     <use x="150" xlink:href="#ArialMT-83"/>
     <use x="216.699219" xlink:href="#ArialMT-69"/>
     <use x="283.398438" xlink:href="#ArialMT-95"/>
     <use x="339.013672" xlink:href="#ArialMT-48"/>
     <use x="394.628906" xlink:href="#ArialMT-48"/>
     <use x="450.244141" xlink:href="#ArialMT-52"/>
     <use x="505.859375" xlink:href="#ArialMT-48"/>
     <use x="561.474609" xlink:href="#ArialMT-48"/>
    </g>
   </g>
   <g id="text_11">
    <g id="patch_20">
     <path d="M 366.750133 94.807239 
L 434.627008 94.807239 
Q 437.927008 94.807239 437.927008 91.507239 
L 437.927008 81.313333 
Q 437.927008 78.013333 434.627008 78.013333 
L 366.750133 78.013333 
Q 363.450133 78.013333 363.450133 81.313333 
L 363.450133 91.507239 
Q 363.450133 94.807239 366.750133 94.807239 
z
" style="fill:#ffffff;stroke:#808080;stroke-linejoin:miter;"/>
    </g>
    <!-- MASE_00405 -->
    <g style="fill:#262626;" transform="translate(366.750133 89.320989)scale(0.11 -0.11)">
     <use xlink:href="#ArialMT-77"/>
     <use x="83.300781" xlink:href="#ArialMT-65"/>
     <use x="150" xlink:href="#ArialMT-83"/>
     <use x="216.699219" xlink:href="#ArialMT-69"/>
     <use x="283.398438" xlink:href="#ArialMT-95"/>
     <use x="339.013672" xlink:href="#ArialMT-48"/>
     <use x="394.628906" xlink:href="#ArialMT-48"/>
     <use x="450.244141" xlink:href="#ArialMT-52"/>
     <use x="505.859375" xlink:href="#ArialMT-48"/>
     <use x="561.474609" xlink:href="#ArialMT-53"/>
    </g>
   </g>
   <g id="text_12">
    <g id="patch_21">
     <path d="M 386.564534 68.40381 
L 454.441409 68.40381 
Q 457.741409 68.40381 457.741409 65.10381 
L 457.741409 54.909904 
Q 457.741409 51.609904 454.441409 51.609904 
L 386.564534 51.609904 
Q 383.264534 51.609904 383.264534 54.909904 
L 383.264534 65.10381 
Q 383.264534 68.40381 386.564534 68.40381 
z
" style="fill:#ffffff;stroke:#808080;stroke-linejoin:miter;"/>
    </g>
    <!-- MASE_00410 -->
    <g style="fill:#262626;" transform="translate(386.564534 62.91756)scale(0.11 -0.11)">
     <use xlink:href="#ArialMT-77"/>
     <use x="83.300781" xlink:href="#ArialMT-65"/>
     <use x="150" xlink:href="#ArialMT-83"/>
     <use x="216.699219" xlink:href="#ArialMT-69"/>
     <use x="283.398438" xlink:href="#ArialMT-95"/>
     <use x="339.013672" xlink:href="#ArialMT-48"/>
     <use x="394.628906" xlink:href="#ArialMT-48"/>
     <use x="450.244141" xlink:href="#ArialMT-52"/>
     <use x="505.859375" xlink:href="#ArialMT-49"/>
     <use x="561.474609" xlink:href="#ArialMT-48"/>
    </g>
   </g>
   <g id="text_13">
    <g id="patch_22">
     <path d="M 420.483493 121.210667 
L 488.360368 121.210667 
Q 491.660368 121.210667 491.660368 117.910667 
L 491.660368 107.716761 
Q 491.660368 104.416761 488.360368 104.416761 
L 420.483493 104.416761 
Q 417.183493 104.416761 417.183493 107.716761 
L 417.183493 117.910667 
Q 417.183493 121.210667 420.483493 121.210667 
z
" style="fill:#ffffff;stroke:#808080;stroke-linejoin:miter;"/>
    </g>
    <!-- MASE_00415 -->
    <g style="fill:#262626;" transform="translate(420.483493 115.724417)scale(0.11 -0.11)">
     <use xlink:href="#ArialMT-77"/>
     <use x="83.300781" xlink:href="#ArialMT-65"/>
     <use x="150" xlink:href="#ArialMT-83"/>
     <use x="216.699219" xlink:href="#ArialMT-69"/>
     <use x="283.398438" xlink:href="#ArialMT-95"/>
     <use x="339.013672" xlink:href="#ArialMT-48"/>
     <use x="394.628906" xlink:href="#ArialMT-48"/>
     <use x="450.244141" xlink:href="#ArialMT-52"/>
     <use x="505.859375" xlink:href="#ArialMT-49"/>
     <use x="561.474609" xlink:href="#ArialMT-53"/>
    </g>
   </g>
   <g id="text_14">
    <g id="patch_23">
     <path d="M 466.502303 94.807239 
L 534.379178 94.807239 
Q 537.679178 94.807239 537.679178 91.507239 
L 537.679178 81.313333 
Q 537.679178 78.013333 534.379178 78.013333 
L 466.502303 78.013333 
Q 463.202303 78.013333 463.202303 81.313333 
L 463.202303 91.507239 
Q 463.202303 94.807239 466.502303 94.807239 
z
" style="fill:#ffffff;stroke:#808080;stroke-linejoin:miter;"/>
    </g>
    <!-- MASE_00420 -->
    <g style="fill:#262626;" transform="translate(466.502303 89.320989)scale(0.11 -0.11)">
     <use xlink:href="#ArialMT-77"/>
     <use x="83.300781" xlink:href="#ArialMT-65"/>
     <use x="150" xlink:href="#ArialMT-83"/>
     <use x="216.699219" xlink:href="#ArialMT-69"/>
     <use x="283.398438" xlink:href="#ArialMT-95"/>
     <use x="339.013672" xlink:href="#ArialMT-48"/>
     <use x="394.628906" xlink:href="#ArialMT-48"/>
     <use x="450.244141" xlink:href="#ArialMT-52"/>
     <use x="505.859375" xlink:href="#ArialMT-50"/>
     <use x="561.474609" xlink:href="#ArialMT-48"/>
    </g>
   </g>
   <g id="text_15">
    <g id="patch_24">
     <path d="M 501.262525 68.40381 
L 569.1394 68.40381 
Q 572.4394 68.40381 572.4394 65.10381 
L 572.4394 54.909904 
Q 572.4394 51.609904 569.1394 51.609904 
L 501.262525 51.609904 
Q 497.962525 51.609904 497.962525 54.909904 
L 497.962525 65.10381 
Q 497.962525 68.40381 501.262525 68.40381 
z
" style="fill:#ffffff;stroke:#808080;stroke-linejoin:miter;"/>
    </g>
    <!-- MASE_00425 -->
    <g style="fill:#262626;" transform="translate(501.262525 62.91756)scale(0.11 -0.11)">
     <use xlink:href="#ArialMT-77"/>
     <use x="83.300781" xlink:href="#ArialMT-65"/>
     <use x="150" xlink:href="#ArialMT-83"/>
     <use x="216.699219" xlink:href="#ArialMT-69"/>
     <use x="283.398438" xlink:href="#ArialMT-95"/>
     <use x="339.013672" xlink:href="#ArialMT-48"/>
     <use x="394.628906" xlink:href="#ArialMT-48"/>
     <use x="450.244141" xlink:href="#ArialMT-52"/>
     <use x="505.859375" xlink:href="#ArialMT-50"/>
     <use x="561.474609" xlink:href="#ArialMT-53"/>
    </g>
   </g>
   <g id="text_16">
    <g id="patch_25">
     <path d="M 547.335033 121.210667 
L 615.211908 121.210667 
Q 618.511908 121.210667 618.511908 117.910667 
L 618.511908 107.716761 
Q 618.511908 104.416761 615.211908 104.416761 
L 547.335033 104.416761 
Q 544.035033 104.416761 544.035033 107.716761 
L 544.035033 117.910667 
Q 544.035033 121.210667 547.335033 121.210667 
z
" style="fill:#ffffff;stroke:#808080;stroke-linejoin:miter;"/>
    </g>
    <!-- MASE_00430 -->
    <g style="fill:#262626;" transform="translate(547.335033 115.724417)scale(0.11 -0.11)">
     <use xlink:href="#ArialMT-77"/>
     <use x="83.300781" xlink:href="#ArialMT-65"/>
     <use x="150" xlink:href="#ArialMT-83"/>
     <use x="216.699219" xlink:href="#ArialMT-69"/>
     <use x="283.398438" xlink:href="#ArialMT-95"/>
     <use x="339.013672" xlink:href="#ArialMT-48"/>
     <use x="394.628906" xlink:href="#ArialMT-48"/>
     <use x="450.244141" xlink:href="#ArialMT-52"/>
     <use x="505.859375" xlink:href="#ArialMT-51"/>
     <use x="561.474609" xlink:href="#ArialMT-48"/>
    </g>
   </g>
   <g id="text_17">
    <g id="patch_26">
     <path d="M 592.136698 94.807239 
L 660.013573 94.807239 
Q 663.313573 94.807239 663.313573 91.507239 
L 663.313573 81.313333 
Q 663.313573 78.013333 660.013573 78.013333 
L 592.136698 78.013333 
Q 588.836698 78.013333 588.836698 81.313333 
L 588.836698 91.507239 
Q 588.836698 94.807239 592.136698 94.807239 
z
" style="fill:#ffffff;stroke:#808080;stroke-linejoin:miter;"/>
    </g>
    <!-- MASE_00435 -->
    <g style="fill:#262626;" transform="translate(592.136698 89.320989)scale(0.11 -0.11)">
     <use xlink:href="#ArialMT-77"/>
     <use x="83.300781" xlink:href="#ArialMT-65"/>
     <use x="150" xlink:href="#ArialMT-83"/>
     <use x="216.699219" xlink:href="#ArialMT-69"/>
     <use x="283.398438" xlink:href="#ArialMT-95"/>
     <use x="339.013672" xlink:href="#ArialMT-48"/>
     <use x="394.628906" xlink:href="#ArialMT-48"/>
     <use x="450.244141" xlink:href="#ArialMT-52"/>
     <use x="505.859375" xlink:href="#ArialMT-51"/>
     <use x="561.474609" xlink:href="#ArialMT-53"/>
    </g>
   </g>
   <g id="text_18">
    <g id="patch_27">
     <path d="M 637.529037 121.210667 
L 705.405912 121.210667 
Q 708.705912 121.210667 708.705912 117.910667 
L 708.705912 107.716761 
Q 708.705912 104.416761 705.405912 104.416761 
L 637.529037 104.416761 
Q 634.229037 104.416761 634.229037 107.716761 
L 634.229037 117.910667 
Q 634.229037 121.210667 637.529037 121.210667 
z
" style="fill:#ffffff;stroke:#808080;stroke-linejoin:miter;"/>
    </g>
    <!-- MASE_00440 -->
    <g style="fill:#262626;" transform="translate(637.529037 115.724417)scale(0.11 -0.11)">
     <use xlink:href="#ArialMT-77"/>
     <use x="83.300781" xlink:href="#ArialMT-65"/>
     <use x="150" xlink:href="#ArialMT-83"/>
     <use x="216.699219" xlink:href="#ArialMT-69"/>
     <use x="283.398438" xlink:href="#ArialMT-95"/>
     <use x="339.013672" xlink:href="#ArialMT-48"/>
     <use x="394.628906" xlink:href="#ArialMT-48"/>
     <use x="450.244141" xlink:href="#ArialMT-52"/>
     <use x="505.859375" xlink:href="#ArialMT-52"/>
     <use x="561.474609" xlink:href="#ArialMT-48"/>
    </g>
   </g>
   <g id="text_19">
    <g id="patch_28">
     <path d="M 687.986845 94.807239 
L 755.86372 94.807239 
Q 759.16372 94.807239 759.16372 91.507239 
L 759.16372 81.313333 
Q 759.16372 78.013333 755.86372 78.013333 
L 687.986845 78.013333 
Q 684.686845 78.013333 684.686845 81.313333 
L 684.686845 91.507239 
Q 684.686845 94.807239 687.986845 94.807239 
z
" style="fill:#f1f5f1;stroke:#808080;stroke-linejoin:miter;"/>
    </g>
    <!-- MASE_00445 -->
    <g style="fill:#262626;" transform="translate(687.986845 89.320989)scale(0.11 -0.11)">
     <use xlink:href="#ArialMT-77"/>
     <use x="83.300781" xlink:href="#ArialMT-65"/>
     <use x="150" xlink:href="#ArialMT-83"/>
     <use x="216.699219" xlink:href="#ArialMT-69"/>
     <use x="283.398438" xlink:href="#ArialMT-95"/>
     <use x="339.013672" xlink:href="#ArialMT-48"/>
     <use x="394.628906" xlink:href="#ArialMT-48"/>
     <use x="450.244141" xlink:href="#ArialMT-52"/>
     <use x="505.859375" xlink:href="#ArialMT-52"/>
     <use x="561.474609" xlink:href="#ArialMT-53"/>
    </g>
   </g>
   <g id="text_20">
    <g id="patch_29">
     <path d="M 721.941603 68.40381 
L 789.818478 68.40381 
Q 793.118478 68.40381 793.118478 65.10381 
L 793.118478 54.909904 
Q 793.118478 51.609904 789.818478 51.609904 
L 721.941603 51.609904 
Q 718.641603 51.609904 718.641603 54.909904 
L 718.641603 65.10381 
Q 718.641603 68.40381 721.941603 68.40381 
z
" style="fill:#f1f5f1;stroke:#808080;stroke-linejoin:miter;"/>
    </g>
    <!-- MASE_00450 -->
    <g style="fill:#262626;" transform="translate(721.941603 62.91756)scale(0.11 -0.11)">
     <use xlink:href="#ArialMT-77"/>
     <use x="83.300781" xlink:href="#ArialMT-65"/>
     <use x="150" xlink:href="#ArialMT-83"/>
     <use x="216.699219" xlink:href="#ArialMT-69"/>
     <use x="283.398438" xlink:href="#ArialMT-95"/>
     <use x="339.013672" xlink:href="#ArialMT-48"/>
     <use x="394.628906" xlink:href="#ArialMT-48"/>
     <use x="450.244141" xlink:href="#ArialMT-52"/>
     <use x="505.859375" xlink:href="#ArialMT-53"/>
     <use x="561.474609" xlink:href="#ArialMT-48"/>
    </g>
   </g>
   <g id="text_21">
    <g id="patch_30">
     <path d="M 739.536504 121.210667 
L 807.413379 121.210667 
Q 810.713379 121.210667 810.713379 117.910667 
L 810.713379 107.716761 
Q 810.713379 104.416761 807.413379 104.416761 
L 739.536504 104.416761 
Q 736.236504 104.416761 736.236504 107.716761 
L 736.236504 117.910667 
Q 736.236504 121.210667 739.536504 121.210667 
z
" style="fill:#f1f5f1;stroke:#808080;stroke-linejoin:miter;"/>
    </g>
    <!-- MASE_00455 -->
    <g style="fill:#262626;" transform="translate(739.536504 115.724417)scale(0.11 -0.11)">
     <use xlink:href="#ArialMT-77"/>
     <use x="83.300781" xlink:href="#ArialMT-65"/>
     <use x="150" xlink:href="#ArialMT-83"/>
     <use x="216.699219" xlink:href="#ArialMT-69"/>
     <use x="283.398438" xlink:href="#ArialMT-95"/>
     <use x="339.013672" xlink:href="#ArialMT-48"/>
     <use x="394.628906" xlink:href="#ArialMT-48"/>
     <use x="450.244141" xlink:href="#ArialMT-52"/>
     <use x="505.859375" xlink:href="#ArialMT-53"/>
     <use x="561.474609" xlink:href="#ArialMT-53"/>
    </g>
   </g>
   <g id="text_22">
    <g id="patch_31">
     <path d="M 757.167204 42.000382 
L 825.044079 42.000382 
Q 828.344079 42.000382 828.344079 38.700382 
L 828.344079 28.506475 
Q 828.344079 25.206475 825.044079 25.206475 
L 757.167204 25.206475 
Q 753.867204 25.206475 753.867204 28.506475 
L 753.867204 38.700382 
Q 753.867204 42.000382 757.167204 42.000382 
z
" style="fill:#f1f5f1;stroke:#808080;stroke-linejoin:miter;"/>
    </g>
    <!-- MASE_00460 -->
    <g style="fill:#262626;" transform="translate(757.167204 36.514132)scale(0.11 -0.11)">
     <use xlink:href="#ArialMT-77"/>
     <use x="83.300781" xlink:href="#ArialMT-65"/>
     <use x="150" xlink:href="#ArialMT-83"/>
     <use x="216.699219" xlink:href="#ArialMT-69"/>
     <use x="283.398438" xlink:href="#ArialMT-95"/>
     <use x="339.013672" xlink:href="#ArialMT-48"/>
     <use x="394.628906" xlink:href="#ArialMT-48"/>
     <use x="450.244141" xlink:href="#ArialMT-52"/>
     <use x="505.859375" xlink:href="#ArialMT-54"/>
     <use x="561.474609" xlink:href="#ArialMT-48"/>
    </g>
   </g>
   <g id="text_23">
    <g id="patch_32">
     <path d="M 799.570378 94.807239 
L 867.447253 94.807239 
Q 870.747253 94.807239 870.747253 91.507239 
L 870.747253 81.313333 
Q 870.747253 78.013333 867.447253 78.013333 
L 799.570378 78.013333 
Q 796.270378 78.013333 796.270378 81.313333 
L 796.270378 91.507239 
Q 796.270378 94.807239 799.570378 94.807239 
z
" style="fill:#f1f5f1;stroke:#808080;stroke-linejoin:miter;"/>
    </g>
    <!-- MASE_00465 -->
    <g style="fill:#262626;" transform="translate(799.570378 89.320989)scale(0.11 -0.11)">
     <use xlink:href="#ArialMT-77"/>
     <use x="83.300781" xlink:href="#ArialMT-65"/>
     <use x="150" xlink:href="#ArialMT-83"/>
     <use x="216.699219" xlink:href="#ArialMT-69"/>
     <use x="283.398438" xlink:href="#ArialMT-95"/>
     <use x="339.013672" xlink:href="#ArialMT-48"/>
     <use x="394.628906" xlink:href="#ArialMT-48"/>
     <use x="450.244141" xlink:href="#ArialMT-52"/>
     <use x="505.859375" xlink:href="#ArialMT-54"/>
     <use x="561.474609" xlink:href="#ArialMT-53"/>
    </g>
   </g>
   <g id="text_24">
    <g id="patch_33">
     <path d="M 862.307029 121.210667 
L 930.183904 121.210667 
Q 933.483904 121.210667 933.483904 117.910667 
L 933.483904 107.716761 
Q 933.483904 104.416761 930.183904 104.416761 
L 862.307029 104.416761 
Q 859.007029 104.416761 859.007029 107.716761 
L 859.007029 117.910667 
Q 859.007029 121.210667 862.307029 121.210667 
z
" style="fill:#f1f5f1;stroke:#808080;stroke-linejoin:miter;"/>
    </g>
    <!-- MASE_00470 -->
    <defs>
     <path d="M 4.734375 62.203125 
L 4.734375 70.65625 
L 51.078125 70.65625 
L 51.078125 63.8125 
Q 44.234375 56.546875 37.515625 44.484375 
Q 30.8125 32.421875 27.15625 19.671875 
Q 24.515625 10.6875 23.78125 0 
L 14.75 0 
Q 14.890625 8.453125 18.0625 20.40625 
Q 21.234375 32.375 27.171875 43.484375 
Q 33.109375 54.59375 39.796875 62.203125 
z
" id="ArialMT-55"/>
    </defs>
    <g style="fill:#262626;" transform="translate(862.307029 115.724417)scale(0.11 -0.11)">
     <use xlink:href="#ArialMT-77"/>
     <use x="83.300781" xlink:href="#ArialMT-65"/>
     <use x="150" xlink:href="#ArialMT-83"/>
     <use x="216.699219" xlink:href="#ArialMT-69"/>
     <use x="283.398438" xlink:href="#ArialMT-95"/>
     <use x="339.013672" xlink:href="#ArialMT-48"/>
     <use x="394.628906" xlink:href="#ArialMT-48"/>
     <use x="450.244141" xlink:href="#ArialMT-52"/>
     <use x="505.859375" xlink:href="#ArialMT-55"/>
     <use x="561.474609" xlink:href="#ArialMT-48"/>
    </g>
   </g>
  </g>
 </g>
 <defs>
  <clipPath id="p08aafa8a09">
   <rect height="184.824" width="1116" x="7.2" y="7.2"/>
  </clipPath>
 </defs>
</svg>
