<?xml version="1.0" encoding="utf-8" standalone="no"?>
<!DOCTYPE svg PUBLIC "-//W3C//DTD SVG 1.1//EN"
  "http://www.w3.org/Graphics/SVG/1.1/DTD/svg11.dtd">
<!-- Created with matplotlib (https://matplotlib.org/) -->
<svg height="197.039844pt" version="1.1" viewBox="0 0 1130.4 197.039844" width="1130.4pt" xmlns="http://www.w3.org/2000/svg" xmlns:xlink="http://www.w3.org/1999/xlink">
 <defs>
  <style type="text/css">
*{stroke-linecap:butt;stroke-linejoin:round;}
  </style>
 </defs>
 <g id="figure_1">
  <g id="patch_1">
   <path d="M 0 197.039844 
L 1130.4 197.039844 
L 1130.4 0 
L 0 0 
z
" style="fill:#ffffff;"/>
  </g>
  <g id="axes_1">
   <g id="line2d_1">
    <path clip-path="url(#pf4c33a7d4a)" d="M 7.2 143.1 
L 1123.2 143.1 
" style="fill:none;stroke:#1a1a1a;stroke-linecap:round;stroke-width:1.5;"/>
   </g>
   <g id="patch_2">
    <path clip-path="url(#pf4c33a7d4a)" d="M 244.732953 136.1 
Q 259.739851 136.1 274.746748 136.1 
L 274.746748 136.1 
Q 278.945678 139.6 283.144609 143.1 
Q 278.945678 146.6 274.746748 150.1 
L 274.746748 150.1 
Q 259.739851 150.1 244.732953 150.1 
L 244.732953 136.1 
z
" style="fill:#999999;fill-opacity:0.85;stroke:#000000;stroke-linecap:round;"/>
   </g>
   <g id="patch_3">
    <path clip-path="url(#pf4c33a7d4a)" d="M 325.136102 150.1 
Q 309.862362 150.1 294.588622 150.1 
L 294.588622 150.1 
Q 290.388046 146.6 286.187471 143.1 
Q 290.388046 139.6 294.588622 136.1 
L 294.588622 136.1 
Q 309.862362 136.1 325.136102 136.1 
L 325.136102 150.1 
z
" style="fill:#66cc99;fill-opacity:0.85;stroke:#000000;stroke-linecap:round;"/>
   </g>
   <g id="patch_4">
    <path clip-path="url(#pf4c33a7d4a)" d="M 435.001313 150.1 
Q 388.527203 150.1 342.053094 150.1 
L 342.053094 150.1 
Q 337.854604 146.6 333.656115 143.1 
Q 337.854604 139.6 342.053094 136.1 
L 342.053094 136.1 
Q 388.527203 136.1 435.001313 136.1 
L 435.001313 150.1 
z
" style="fill:#ffcc33;fill-opacity:0.85;stroke:#000000;stroke-linecap:round;"/>
   </g>
   <g id="patch_5">
    <path clip-path="url(#pf4c33a7d4a)" d="M 441.8746 136.1 
Q 458.436636 136.1 474.998672 136.1 
L 474.998672 136.1 
Q 479.199693 139.6 483.400715 143.1 
Q 479.199693 146.6 474.998672 150.1 
L 474.998672 150.1 
Q 458.436636 150.1 441.8746 150.1 
L 441.8746 136.1 
z
" style="fill:#ffffff;fill-opacity:0.85;stroke:#000000;stroke-linecap:round;"/>
   </g>
   <g id="patch_6">
    <path clip-path="url(#pf4c33a7d4a)" d="M 490.345599 136.1 
Q 525.004324 136.1 559.663049 136.1 
L 559.663049 136.1 
Q 563.863459 139.6 568.06387 143.1 
Q 563.863459 146.6 559.663049 150.1 
L 559.663049 150.1 
Q 525.004324 150.1 490.345599 150.1 
L 490.345599 136.1 
z
" style="fill:#ff0000;fill-opacity:0.85;stroke:#000000;stroke-linecap:round;"/>
   </g>
   <g id="patch_7">
    <path clip-path="url(#pf4c33a7d4a)" d="M 568.49345 136.1 
Q 574.264571 136.1 580.035691 136.1 
L 580.035691 136.1 
Q 584.234418 139.6 588.433145 143.1 
Q 584.234418 146.6 580.035691 150.1 
L 580.035691 150.1 
Q 574.264571 150.1 568.49345 150.1 
L 568.49345 136.1 
z
" style="fill:#999999;fill-opacity:0.85;stroke:#000000;stroke-linecap:round;"/>
   </g>
   <g id="patch_8">
    <path clip-path="url(#pf4c33a7d4a)" d="M 588.504742 136.1 
Q 610.008295 136.1 631.511848 136.1 
L 631.511848 136.1 
Q 635.711527 139.6 639.911207 143.1 
Q 635.711527 146.6 631.511848 150.1 
L 631.511848 150.1 
Q 610.008295 150.1 588.504742 150.1 
L 588.504742 136.1 
z
" style="fill:#003399;fill-opacity:0.85;stroke:#000000;stroke-linecap:round;"/>
   </g>
   <g id="patch_9">
    <path clip-path="url(#pf4c33a7d4a)" d="M 683.119845 150.1 
Q 668.168933 150.1 653.218021 150.1 
L 653.218021 150.1 
Q 649.016803 146.6 644.815584 143.1 
Q 649.016803 139.6 653.218021 136.1 
L 653.218021 136.1 
Q 668.168933 136.1 683.119845 136.1 
L 683.119845 150.1 
z
" style="fill:#66cc99;fill-opacity:0.85;stroke:#000000;stroke-linecap:round;"/>
   </g>
   <g id="patch_10">
    <path clip-path="url(#pf4c33a7d4a)" d="M 885.667047 150.1 
Q 837.423696 150.1 789.180345 150.1 
L 789.180345 150.1 
Q 784.979077 146.6 780.77781 143.1 
Q 784.979077 139.6 789.180345 136.1 
L 789.180345 136.1 
Q 837.423696 136.1 885.667047 136.1 
L 885.667047 150.1 
z
" style="fill:#999999;fill-opacity:0.85;stroke:#000000;stroke-linecap:round;"/>
   </g>
   <g id="matplotlib.axis_1">
    <g id="xtick_1">
     <g id="line2d_2">
      <path clip-path="url(#pf4c33a7d4a)" d="M 97.47634 170.28 
L 97.47634 7.2 
" style="fill:none;stroke:#ffffff;stroke-linecap:round;"/>
     </g>
     <g id="line2d_3">
      <defs>
       <path d="M 0 0 
L 0 6 
" id="ma17f88ff95" style="stroke:#262626;stroke-width:1.25;"/>
      </defs>
      <g>
       <use style="fill:#262626;stroke:#262626;stroke-width:1.25;" x="97.47634" xlink:href="#ma17f88ff95" y="170.28"/>
      </g>
     </g>
     <g id="text_1">
      <!-- 3536000 -->
      <defs>
       <path d="M 4.203125 18.890625 
L 12.984375 20.0625 
Q 14.5 12.59375 18.140625 9.296875 
Q 21.78125 6 27 6 
Q 33.203125 6 37.46875 10.296875 
Q 41.75 14.59375 41.75 20.953125 
Q 41.75 27 37.796875 30.921875 
Q 33.84375 34.859375 27.734375 34.859375 
Q 25.25 34.859375 21.53125 33.890625 
L 22.515625 41.609375 
Q 23.390625 41.5 23.921875 41.5 
Q 29.546875 41.5 34.03125 44.421875 
Q 38.53125 47.359375 38.53125 53.46875 
Q 38.53125 58.296875 35.25 61.46875 
Q 31.984375 64.65625 26.8125 64.65625 
Q 21.6875 64.65625 18.265625 61.421875 
Q 14.84375 58.203125 13.875 51.765625 
L 5.078125 53.328125 
Q 6.6875 62.15625 12.390625 67.015625 
Q 18.109375 71.875 26.609375 71.875 
Q 32.46875 71.875 37.390625 69.359375 
Q 42.328125 66.84375 44.9375 62.5 
Q 47.5625 58.15625 47.5625 53.265625 
Q 47.5625 48.640625 45.0625 44.828125 
Q 42.578125 41.015625 37.703125 38.765625 
Q 44.046875 37.3125 47.5625 32.6875 
Q 51.078125 28.078125 51.078125 21.140625 
Q 51.078125 11.765625 44.234375 5.25 
Q 37.40625 -1.265625 26.953125 -1.265625 
Q 17.53125 -1.265625 11.296875 4.34375 
Q 5.078125 9.96875 4.203125 18.890625 
z
" id="ArialMT-51"/>
       <path d="M 4.15625 18.75 
L 13.375 19.53125 
Q 14.40625 12.796875 18.140625 9.390625 
Q 21.875 6 27.15625 6 
Q 33.5 6 37.890625 10.78125 
Q 42.28125 15.578125 42.28125 23.484375 
Q 42.28125 31 38.0625 35.34375 
Q 33.84375 39.703125 27 39.703125 
Q 22.75 39.703125 19.328125 37.765625 
Q 15.921875 35.84375 13.96875 32.765625 
L 5.71875 33.84375 
L 12.640625 70.609375 
L 48.25 70.609375 
L 48.25 62.203125 
L 19.671875 62.203125 
L 15.828125 42.96875 
Q 22.265625 47.46875 29.34375 47.46875 
Q 38.71875 47.46875 45.15625 40.96875 
Q 51.609375 34.46875 51.609375 24.265625 
Q 51.609375 14.546875 45.953125 7.46875 
Q 39.0625 -1.21875 27.15625 -1.21875 
Q 17.390625 -1.21875 11.203125 4.25 
Q 5.03125 9.71875 4.15625 18.75 
z
" id="ArialMT-53"/>
       <path d="M 49.75 54.046875 
L 41.015625 53.375 
Q 39.84375 58.546875 37.703125 60.890625 
Q 34.125 64.65625 28.90625 64.65625 
Q 24.703125 64.65625 21.53125 62.3125 
Q 17.390625 59.28125 14.984375 53.46875 
Q 12.59375 47.65625 12.5 36.921875 
Q 15.671875 41.75 20.265625 44.09375 
Q 24.859375 46.4375 29.890625 46.4375 
Q 38.671875 46.4375 44.84375 39.96875 
Q 51.03125 33.5 51.03125 23.25 
Q 51.03125 16.5 48.125 10.71875 
Q 45.21875 4.9375 40.140625 1.859375 
Q 35.0625 -1.21875 28.609375 -1.21875 
Q 17.625 -1.21875 10.6875 6.859375 
Q 3.765625 14.9375 3.765625 33.5 
Q 3.765625 54.25 11.421875 63.671875 
Q 18.109375 71.875 29.4375 71.875 
Q 37.890625 71.875 43.28125 67.140625 
Q 48.6875 62.40625 49.75 54.046875 
z
M 13.875 23.1875 
Q 13.875 18.65625 15.796875 14.5 
Q 17.71875 10.359375 21.1875 8.171875 
Q 24.65625 6 28.46875 6 
Q 34.03125 6 38.03125 10.484375 
Q 42.046875 14.984375 42.046875 22.703125 
Q 42.046875 30.125 38.078125 34.390625 
Q 34.125 38.671875 28.125 38.671875 
Q 22.171875 38.671875 18.015625 34.390625 
Q 13.875 30.125 13.875 23.1875 
z
" id="ArialMT-54"/>
       <path d="M 4.15625 35.296875 
Q 4.15625 48 6.765625 55.734375 
Q 9.375 63.484375 14.515625 67.671875 
Q 19.671875 71.875 27.484375 71.875 
Q 33.25 71.875 37.59375 69.546875 
Q 41.9375 67.234375 44.765625 62.859375 
Q 47.609375 58.5 49.21875 52.21875 
Q 50.828125 45.953125 50.828125 35.296875 
Q 50.828125 22.703125 48.234375 14.96875 
Q 45.65625 7.234375 40.5 3 
Q 35.359375 -1.21875 27.484375 -1.21875 
Q 17.140625 -1.21875 11.234375 6.203125 
Q 4.15625 15.140625 4.15625 35.296875 
z
M 13.1875 35.296875 
Q 13.1875 17.671875 17.3125 11.828125 
Q 21.4375 6 27.484375 6 
Q 33.546875 6 37.671875 11.859375 
Q 41.796875 17.71875 41.796875 35.296875 
Q 41.796875 52.984375 37.671875 58.78125 
Q 33.546875 64.59375 27.390625 64.59375 
Q 21.34375 64.59375 17.71875 59.46875 
Q 13.1875 52.9375 13.1875 35.296875 
z
" id="ArialMT-48"/>
      </defs>
      <g style="fill:#262626;" transform="translate(76.066731 187.653594)scale(0.11 -0.11)">
       <use xlink:href="#ArialMT-51"/>
       <use x="55.615234" xlink:href="#ArialMT-53"/>
       <use x="111.230469" xlink:href="#ArialMT-51"/>
       <use x="166.845703" xlink:href="#ArialMT-54"/>
       <use x="222.460938" xlink:href="#ArialMT-48"/>
       <use x="278.076172" xlink:href="#ArialMT-48"/>
       <use x="333.691406" xlink:href="#ArialMT-48"/>
      </g>
     </g>
    </g>
    <g id="xtick_2">
     <g id="line2d_4">
      <path clip-path="url(#pf4c33a7d4a)" d="M 240.669838 170.28 
L 240.669838 7.2 
" style="fill:none;stroke:#ffffff;stroke-linecap:round;"/>
     </g>
     <g id="line2d_5">
      <g>
       <use style="fill:#262626;stroke:#262626;stroke-width:1.25;" x="240.669838" xlink:href="#ma17f88ff95" y="170.28"/>
      </g>
     </g>
     <g id="text_2">
      <!-- 3540000 -->
      <defs>
       <path d="M 32.328125 0 
L 32.328125 17.140625 
L 1.265625 17.140625 
L 1.265625 25.203125 
L 33.9375 71.578125 
L 41.109375 71.578125 
L 41.109375 25.203125 
L 50.78125 25.203125 
L 50.78125 17.140625 
L 41.109375 17.140625 
L 41.109375 0 
z
M 32.328125 25.203125 
L 32.328125 57.46875 
L 9.90625 25.203125 
z
" id="ArialMT-52"/>
      </defs>
      <g style="fill:#262626;" transform="translate(219.260228 187.653594)scale(0.11 -0.11)">
       <use xlink:href="#ArialMT-51"/>
       <use x="55.615234" xlink:href="#ArialMT-53"/>
       <use x="111.230469" xlink:href="#ArialMT-52"/>
       <use x="166.845703" xlink:href="#ArialMT-48"/>
       <use x="222.460938" xlink:href="#ArialMT-48"/>
       <use x="278.076172" xlink:href="#ArialMT-48"/>
       <use x="333.691406" xlink:href="#ArialMT-48"/>
      </g>
     </g>
    </g>
    <g id="xtick_3">
     <g id="line2d_6">
      <path clip-path="url(#pf4c33a7d4a)" d="M 383.863335 170.28 
L 383.863335 7.2 
" style="fill:none;stroke:#ffffff;stroke-linecap:round;"/>
     </g>
     <g id="line2d_7">
      <g>
       <use style="fill:#262626;stroke:#262626;stroke-width:1.25;" x="383.863335" xlink:href="#ma17f88ff95" y="170.28"/>
      </g>
     </g>
     <g id="text_3">
      <!-- 3544000 -->
      <g style="fill:#262626;" transform="translate(362.453726 187.653594)scale(0.11 -0.11)">
       <use xlink:href="#ArialMT-51"/>
       <use x="55.615234" xlink:href="#ArialMT-53"/>
       <use x="111.230469" xlink:href="#ArialMT-52"/>
       <use x="166.845703" xlink:href="#ArialMT-52"/>
       <use x="222.460938" xlink:href="#ArialMT-48"/>
       <use x="278.076172" xlink:href="#ArialMT-48"/>
       <use x="333.691406" xlink:href="#ArialMT-48"/>
      </g>
     </g>
    </g>
    <g id="xtick_4">
     <g id="line2d_8">
      <path clip-path="url(#pf4c33a7d4a)" d="M 527.056832 170.28 
L 527.056832 7.2 
" style="fill:none;stroke:#ffffff;stroke-linecap:round;"/>
     </g>
     <g id="line2d_9">
      <g>
       <use style="fill:#262626;stroke:#262626;stroke-width:1.25;" x="527.056832" xlink:href="#ma17f88ff95" y="170.28"/>
      </g>
     </g>
     <g id="text_4">
      <!-- 3548000 -->
      <defs>
       <path d="M 17.671875 38.8125 
Q 12.203125 40.828125 9.5625 44.53125 
Q 6.9375 48.25 6.9375 53.421875 
Q 6.9375 61.234375 12.546875 66.546875 
Q 18.171875 71.875 27.484375 71.875 
Q 36.859375 71.875 42.578125 66.421875 
Q 48.296875 60.984375 48.296875 53.171875 
Q 48.296875 48.1875 45.671875 44.5 
Q 43.0625 40.828125 37.75 38.8125 
Q 44.34375 36.671875 47.78125 31.875 
Q 51.21875 27.09375 51.21875 20.453125 
Q 51.21875 11.28125 44.71875 5.03125 
Q 38.234375 -1.21875 27.640625 -1.21875 
Q 17.046875 -1.21875 10.546875 5.046875 
Q 4.046875 11.328125 4.046875 20.703125 
Q 4.046875 27.6875 7.59375 32.390625 
Q 11.140625 37.109375 17.671875 38.8125 
z
M 15.921875 53.71875 
Q 15.921875 48.640625 19.1875 45.40625 
Q 22.46875 42.1875 27.6875 42.1875 
Q 32.765625 42.1875 36.015625 45.375 
Q 39.265625 48.578125 39.265625 53.21875 
Q 39.265625 58.0625 35.90625 61.359375 
Q 32.5625 64.65625 27.59375 64.65625 
Q 22.5625 64.65625 19.234375 61.421875 
Q 15.921875 58.203125 15.921875 53.71875 
z
M 13.09375 20.65625 
Q 13.09375 16.890625 14.875 13.375 
Q 16.65625 9.859375 20.171875 7.921875 
Q 23.6875 6 27.734375 6 
Q 34.03125 6 38.125 10.046875 
Q 42.234375 14.109375 42.234375 20.359375 
Q 42.234375 26.703125 38.015625 30.859375 
Q 33.796875 35.015625 27.4375 35.015625 
Q 21.234375 35.015625 17.15625 30.90625 
Q 13.09375 26.8125 13.09375 20.65625 
z
" id="ArialMT-56"/>
      </defs>
      <g style="fill:#262626;" transform="translate(505.647223 187.653594)scale(0.11 -0.11)">
       <use xlink:href="#ArialMT-51"/>
       <use x="55.615234" xlink:href="#ArialMT-53"/>
       <use x="111.230469" xlink:href="#ArialMT-52"/>
       <use x="166.845703" xlink:href="#ArialMT-56"/>
       <use x="222.460938" xlink:href="#ArialMT-48"/>
       <use x="278.076172" xlink:href="#ArialMT-48"/>
       <use x="333.691406" xlink:href="#ArialMT-48"/>
      </g>
     </g>
    </g>
    <g id="xtick_5">
     <g id="line2d_10">
      <path clip-path="url(#pf4c33a7d4a)" d="M 670.250329 170.28 
L 670.250329 7.2 
" style="fill:none;stroke:#ffffff;stroke-linecap:round;"/>
     </g>
     <g id="line2d_11">
      <g>
       <use style="fill:#262626;stroke:#262626;stroke-width:1.25;" x="670.250329" xlink:href="#ma17f88ff95" y="170.28"/>
      </g>
     </g>
     <g id="text_5">
      <!-- 3552000 -->
      <defs>
       <path d="M 50.34375 8.453125 
L 50.34375 0 
L 3.03125 0 
Q 2.9375 3.171875 4.046875 6.109375 
Q 5.859375 10.9375 9.828125 15.625 
Q 13.8125 20.3125 21.34375 26.46875 
Q 33.015625 36.03125 37.109375 41.625 
Q 41.21875 47.21875 41.21875 52.203125 
Q 41.21875 57.421875 37.46875 61 
Q 33.734375 64.59375 27.734375 64.59375 
Q 21.390625 64.59375 17.578125 60.78125 
Q 13.765625 56.984375 13.71875 50.25 
L 4.6875 51.171875 
Q 5.609375 61.28125 11.65625 66.578125 
Q 17.71875 71.875 27.9375 71.875 
Q 38.234375 71.875 44.234375 66.15625 
Q 50.25 60.453125 50.25 52 
Q 50.25 47.703125 48.484375 43.546875 
Q 46.734375 39.40625 42.65625 34.8125 
Q 38.578125 30.21875 29.109375 22.21875 
Q 21.1875 15.578125 18.9375 13.203125 
Q 16.703125 10.84375 15.234375 8.453125 
z
" id="ArialMT-50"/>
      </defs>
      <g style="fill:#262626;" transform="translate(648.84072 187.653594)scale(0.11 -0.11)">
       <use xlink:href="#ArialMT-51"/>
       <use x="55.615234" xlink:href="#ArialMT-53"/>
       <use x="111.230469" xlink:href="#ArialMT-53"/>
       <use x="166.845703" xlink:href="#ArialMT-50"/>
       <use x="222.460938" xlink:href="#ArialMT-48"/>
       <use x="278.076172" xlink:href="#ArialMT-48"/>
       <use x="333.691406" xlink:href="#ArialMT-48"/>
      </g>
     </g>
    </g>
    <g id="xtick_6">
     <g id="line2d_12">
      <path clip-path="url(#pf4c33a7d4a)" d="M 813.443827 170.28 
L 813.443827 7.2 
" style="fill:none;stroke:#ffffff;stroke-linecap:round;"/>
     </g>
     <g id="line2d_13">
      <g>
       <use style="fill:#262626;stroke:#262626;stroke-width:1.25;" x="813.443827" xlink:href="#ma17f88ff95" y="170.28"/>
      </g>
     </g>
     <g id="text_6">
      <!-- 3556000 -->
      <g style="fill:#262626;" transform="translate(792.034217 187.653594)scale(0.11 -0.11)">
       <use xlink:href="#ArialMT-51"/>
       <use x="55.615234" xlink:href="#ArialMT-53"/>
       <use x="111.230469" xlink:href="#ArialMT-53"/>
       <use x="166.845703" xlink:href="#ArialMT-54"/>
       <use x="222.460938" xlink:href="#ArialMT-48"/>
       <use x="278.076172" xlink:href="#ArialMT-48"/>
       <use x="333.691406" xlink:href="#ArialMT-48"/>
      </g>
     </g>
    </g>
    <g id="xtick_7">
     <g id="line2d_14">
      <path clip-path="url(#pf4c33a7d4a)" d="M 956.637324 170.28 
L 956.637324 7.2 
" style="fill:none;stroke:#ffffff;stroke-linecap:round;"/>
     </g>
     <g id="line2d_15">
      <g>
       <use style="fill:#262626;stroke:#262626;stroke-width:1.25;" x="956.637324" xlink:href="#ma17f88ff95" y="170.28"/>
      </g>
     </g>
     <g id="text_7">
      <!-- 3560000 -->
      <g style="fill:#262626;" transform="translate(935.227715 187.653594)scale(0.11 -0.11)">
       <use xlink:href="#ArialMT-51"/>
       <use x="55.615234" xlink:href="#ArialMT-53"/>
       <use x="111.230469" xlink:href="#ArialMT-54"/>
       <use x="166.845703" xlink:href="#ArialMT-48"/>
       <use x="222.460938" xlink:href="#ArialMT-48"/>
       <use x="278.076172" xlink:href="#ArialMT-48"/>
       <use x="333.691406" xlink:href="#ArialMT-48"/>
      </g>
     </g>
    </g>
    <g id="xtick_8">
     <g id="line2d_16">
      <path clip-path="url(#pf4c33a7d4a)" d="M 1099.830821 170.28 
L 1099.830821 7.2 
" style="fill:none;stroke:#ffffff;stroke-linecap:round;"/>
     </g>
     <g id="line2d_17">
      <g>
       <use style="fill:#262626;stroke:#262626;stroke-width:1.25;" x="1099.830821" xlink:href="#ma17f88ff95" y="170.28"/>
      </g>
     </g>
     <g id="text_8">
      <!-- 3564000 -->
      <g style="fill:#262626;" transform="translate(1078.421212 187.653594)scale(0.11 -0.11)">
       <use xlink:href="#ArialMT-51"/>
       <use x="55.615234" xlink:href="#ArialMT-53"/>
       <use x="111.230469" xlink:href="#ArialMT-54"/>
       <use x="166.845703" xlink:href="#ArialMT-52"/>
       <use x="222.460938" xlink:href="#ArialMT-48"/>
       <use x="278.076172" xlink:href="#ArialMT-48"/>
       <use x="333.691406" xlink:href="#ArialMT-48"/>
      </g>
     </g>
    </g>
   </g>
   <g id="line2d_18">
    <path clip-path="url(#pf4c33a7d4a)" d="M 263.95668 88.74 
L 263.95668 143.1 
" style="fill:none;stroke:#1a1a1a;stroke-linecap:round;stroke-width:0.5;"/>
   </g>
   <g id="line2d_19">
    <path clip-path="url(#pf4c33a7d4a)" d="M 305.679685 61.56 
L 305.679685 143.1 
" style="fill:none;stroke:#1a1a1a;stroke-linecap:round;stroke-width:0.5;"/>
   </g>
   <g id="line2d_20">
    <path clip-path="url(#pf4c33a7d4a)" d="M 384.346613 88.74 
L 384.346613 143.1 
" style="fill:none;stroke:#1a1a1a;stroke-linecap:round;stroke-width:0.5;"/>
   </g>
   <g id="line2d_21">
    <path clip-path="url(#pf4c33a7d4a)" d="M 462.655557 61.56 
L 462.655557 143.1 
" style="fill:none;stroke:#1a1a1a;stroke-linecap:round;stroke-width:0.5;"/>
   </g>
   <g id="line2d_22">
    <path clip-path="url(#pf4c33a7d4a)" d="M 529.222634 88.74 
L 529.222634 143.1 
" style="fill:none;stroke:#1a1a1a;stroke-linecap:round;stroke-width:0.5;"/>
   </g>
   <g id="line2d_23">
    <path clip-path="url(#pf4c33a7d4a)" d="M 578.481197 61.56 
L 578.481197 143.1 
" style="fill:none;stroke:#1a1a1a;stroke-linecap:round;stroke-width:0.5;"/>
   </g>
   <g id="line2d_24">
    <path clip-path="url(#pf4c33a7d4a)" d="M 614.225874 34.38 
L 614.225874 143.1 
" style="fill:none;stroke:#1a1a1a;stroke-linecap:round;stroke-width:0.5;"/>
   </g>
   <g id="line2d_25">
    <path clip-path="url(#pf4c33a7d4a)" d="M 663.985614 88.74 
L 663.985614 143.1 
" style="fill:none;stroke:#1a1a1a;stroke-linecap:round;stroke-width:0.5;"/>
   </g>
   <g id="line2d_26">
    <path clip-path="url(#pf4c33a7d4a)" d="M 833.240328 88.74 
L 833.240328 143.1 
" style="fill:none;stroke:#1a1a1a;stroke-linecap:round;stroke-width:0.5;"/>
   </g>
   <g id="text_9">
    <g id="patch_11">
     <path d="M 230.018243 97.136953 
L 297.895118 97.136953 
Q 301.195118 97.136953 301.195118 93.836953 
L 301.195118 83.643047 
Q 301.195118 80.343047 297.895118 80.343047 
L 230.018243 80.343047 
Q 226.718243 80.343047 226.718243 83.643047 
L 226.718243 93.836953 
Q 226.718243 97.136953 230.018243 97.136953 
z
" style="fill:#f2f2f2;stroke:#808080;stroke-linejoin:miter;"/>
    </g>
    <!-- MASE_15225 -->
    <defs>
     <path d="M 7.421875 0 
L 7.421875 71.578125 
L 21.6875 71.578125 
L 38.625 20.90625 
Q 40.96875 13.8125 42.046875 10.296875 
Q 43.265625 14.203125 45.84375 21.78125 
L 62.984375 71.578125 
L 75.734375 71.578125 
L 75.734375 0 
L 66.609375 0 
L 66.609375 59.90625 
L 45.796875 0 
L 37.25 0 
L 16.546875 60.9375 
L 16.546875 0 
z
" id="ArialMT-77"/>
     <path d="M -0.140625 0 
L 27.34375 71.578125 
L 37.546875 71.578125 
L 66.84375 0 
L 56.0625 0 
L 47.703125 21.6875 
L 17.78125 21.6875 
L 9.90625 0 
z
M 20.515625 29.390625 
L 44.78125 29.390625 
L 37.3125 49.21875 
Q 33.890625 58.25 32.234375 64.0625 
Q 30.859375 57.171875 28.375 50.390625 
z
" id="ArialMT-65"/>
     <path d="M 4.5 23 
L 13.421875 23.78125 
Q 14.0625 18.40625 16.375 14.96875 
Q 18.703125 11.53125 23.578125 9.40625 
Q 28.46875 7.28125 34.578125 7.28125 
Q 39.984375 7.28125 44.140625 8.890625 
Q 48.296875 10.5 50.3125 13.296875 
Q 52.34375 16.109375 52.34375 19.4375 
Q 52.34375 22.796875 50.390625 25.3125 
Q 48.4375 27.828125 43.953125 29.546875 
Q 41.0625 30.671875 31.203125 33.03125 
Q 21.34375 35.40625 17.390625 37.5 
Q 12.25 40.1875 9.734375 44.15625 
Q 7.234375 48.140625 7.234375 53.078125 
Q 7.234375 58.5 10.296875 63.203125 
Q 13.375 67.921875 19.28125 70.359375 
Q 25.203125 72.796875 32.421875 72.796875 
Q 40.375 72.796875 46.453125 70.234375 
Q 52.546875 67.671875 55.8125 62.6875 
Q 59.078125 57.71875 59.328125 51.421875 
L 50.25 50.734375 
Q 49.515625 57.515625 45.28125 60.984375 
Q 41.0625 64.453125 32.8125 64.453125 
Q 24.21875 64.453125 20.28125 61.296875 
Q 16.359375 58.15625 16.359375 53.71875 
Q 16.359375 49.859375 19.140625 47.359375 
Q 21.875 44.875 33.421875 42.265625 
Q 44.96875 39.65625 49.265625 37.703125 
Q 55.515625 34.8125 58.484375 30.390625 
Q 61.46875 25.984375 61.46875 20.21875 
Q 61.46875 14.5 58.203125 9.4375 
Q 54.9375 4.390625 48.796875 1.578125 
Q 42.671875 -1.21875 35.015625 -1.21875 
Q 25.296875 -1.21875 18.71875 1.609375 
Q 12.15625 4.4375 8.421875 10.125 
Q 4.6875 15.828125 4.5 23 
z
" id="ArialMT-83"/>
     <path d="M 7.90625 0 
L 7.90625 71.578125 
L 59.671875 71.578125 
L 59.671875 63.140625 
L 17.390625 63.140625 
L 17.390625 41.21875 
L 56.984375 41.21875 
L 56.984375 32.8125 
L 17.390625 32.8125 
L 17.390625 8.453125 
L 61.328125 8.453125 
L 61.328125 0 
z
" id="ArialMT-69"/>
     <path d="M -1.515625 -19.875 
L -1.515625 -13.53125 
L 56.734375 -13.53125 
L 56.734375 -19.875 
z
" id="ArialMT-95"/>
     <path d="M 37.25 0 
L 28.46875 0 
L 28.46875 56 
Q 25.296875 52.984375 20.140625 49.953125 
Q 14.984375 46.921875 10.890625 45.40625 
L 10.890625 53.90625 
Q 18.265625 57.375 23.78125 62.296875 
Q 29.296875 67.234375 31.59375 71.875 
L 37.25 71.875 
z
" id="ArialMT-49"/>
    </defs>
    <g style="fill:#262626;" transform="translate(230.018243 91.650703)scale(0.11 -0.11)">
     <use xlink:href="#ArialMT-77"/>
     <use x="83.300781" xlink:href="#ArialMT-65"/>
     <use x="150" xlink:href="#ArialMT-83"/>
     <use x="216.699219" xlink:href="#ArialMT-69"/>
     <use x="283.398438" xlink:href="#ArialMT-95"/>
     <use x="339.013672" xlink:href="#ArialMT-49"/>
     <use x="394.628906" xlink:href="#ArialMT-53"/>
     <use x="450.244141" xlink:href="#ArialMT-50"/>
     <use x="505.859375" xlink:href="#ArialMT-50"/>
     <use x="561.474609" xlink:href="#ArialMT-53"/>
    </g>
   </g>
   <g id="text_10">
    <g id="patch_12">
     <path d="M 271.741248 69.956953 
L 339.618123 69.956953 
Q 342.918123 69.956953 342.918123 66.656953 
L 342.918123 56.463047 
Q 342.918123 53.163047 339.618123 53.163047 
L 271.741248 53.163047 
Q 268.441248 53.163047 268.441248 56.463047 
L 268.441248 66.656953 
Q 268.441248 69.956953 271.741248 69.956953 
z
" style="fill:#ecf9f2;stroke:#808080;stroke-linejoin:miter;"/>
    </g>
    <!-- MASE_15230 -->
    <g style="fill:#262626;" transform="translate(271.741248 64.470703)scale(0.11 -0.11)">
     <use xlink:href="#ArialMT-77"/>
     <use x="83.300781" xlink:href="#ArialMT-65"/>
     <use x="150" xlink:href="#ArialMT-83"/>
     <use x="216.699219" xlink:href="#ArialMT-69"/>
     <use x="283.398438" xlink:href="#ArialMT-95"/>
     <use x="339.013672" xlink:href="#ArialMT-49"/>
     <use x="394.628906" xlink:href="#ArialMT-53"/>
     <use x="450.244141" xlink:href="#ArialMT-50"/>
     <use x="505.859375" xlink:href="#ArialMT-51"/>
     <use x="561.474609" xlink:href="#ArialMT-48"/>
    </g>
   </g>
   <g id="text_11">
    <g id="patch_13">
     <path d="M 350.408175 97.136953 
L 418.28505 97.136953 
Q 421.58505 97.136953 421.58505 93.836953 
L 421.58505 83.643047 
Q 421.58505 80.343047 418.28505 80.343047 
L 350.408175 80.343047 
Q 347.108175 80.343047 347.108175 83.643047 
L 347.108175 93.836953 
Q 347.108175 97.136953 350.408175 97.136953 
z
" style="fill:#fff7e0;stroke:#808080;stroke-linejoin:miter;"/>
    </g>
    <!-- MASE_15235 -->
    <g style="fill:#262626;" transform="translate(350.408175 91.650703)scale(0.11 -0.11)">
     <use xlink:href="#ArialMT-77"/>
     <use x="83.300781" xlink:href="#ArialMT-65"/>
     <use x="150" xlink:href="#ArialMT-83"/>
     <use x="216.699219" xlink:href="#ArialMT-69"/>
     <use x="283.398438" xlink:href="#ArialMT-95"/>
     <use x="339.013672" xlink:href="#ArialMT-49"/>
     <use x="394.628906" xlink:href="#ArialMT-53"/>
     <use x="450.244141" xlink:href="#ArialMT-50"/>
     <use x="505.859375" xlink:href="#ArialMT-51"/>
     <use x="561.474609" xlink:href="#ArialMT-53"/>
    </g>
   </g>
   <g id="text_12">
    <g id="patch_14">
     <path d="M 428.717119 69.956953 
L 496.593994 69.956953 
Q 499.893994 69.956953 499.893994 66.656953 
L 499.893994 56.463047 
Q 499.893994 53.163047 496.593994 53.163047 
L 428.717119 53.163047 
Q 425.417119 53.163047 425.417119 56.463047 
L 425.417119 66.656953 
Q 425.417119 69.956953 428.717119 69.956953 
z
" style="fill:#ffffff;stroke:#808080;stroke-linejoin:miter;"/>
    </g>
    <!-- MASE_15240 -->
    <g style="fill:#262626;" transform="translate(428.717119 64.470703)scale(0.11 -0.11)">
     <use xlink:href="#ArialMT-77"/>
     <use x="83.300781" xlink:href="#ArialMT-65"/>
     <use x="150" xlink:href="#ArialMT-83"/>
     <use x="216.699219" xlink:href="#ArialMT-69"/>
     <use x="283.398438" xlink:href="#ArialMT-95"/>
     <use x="339.013672" xlink:href="#ArialMT-49"/>
     <use x="394.628906" xlink:href="#ArialMT-53"/>
     <use x="450.244141" xlink:href="#ArialMT-50"/>
     <use x="505.859375" xlink:href="#ArialMT-52"/>
     <use x="561.474609" xlink:href="#ArialMT-48"/>
    </g>
   </g>
   <g id="text_13">
    <g id="patch_15">
     <path d="M 495.284196 97.136953 
L 563.161071 97.136953 
Q 566.461071 97.136953 566.461071 93.836953 
L 566.461071 83.643047 
Q 566.461071 80.343047 563.161071 80.343047 
L 495.284196 80.343047 
Q 491.984196 80.343047 491.984196 83.643047 
L 491.984196 93.836953 
Q 491.984196 97.136953 495.284196 97.136953 
z
" style="fill:#ffecec;stroke:#808080;stroke-linejoin:miter;"/>
    </g>
    <!-- MASE_15245 -->
    <g style="fill:#262626;" transform="translate(495.284196 91.650703)scale(0.11 -0.11)">
     <use xlink:href="#ArialMT-77"/>
     <use x="83.300781" xlink:href="#ArialMT-65"/>
     <use x="150" xlink:href="#ArialMT-83"/>
     <use x="216.699219" xlink:href="#ArialMT-69"/>
     <use x="283.398438" xlink:href="#ArialMT-95"/>
     <use x="339.013672" xlink:href="#ArialMT-49"/>
     <use x="394.628906" xlink:href="#ArialMT-53"/>
     <use x="450.244141" xlink:href="#ArialMT-50"/>
     <use x="505.859375" xlink:href="#ArialMT-52"/>
     <use x="561.474609" xlink:href="#ArialMT-53"/>
    </g>
   </g>
   <g id="text_14">
    <g id="patch_16">
     <path d="M 544.542759 69.956953 
L 612.419634 69.956953 
Q 615.719634 69.956953 615.719634 66.656953 
L 615.719634 56.463047 
Q 615.719634 53.163047 612.419634 53.163047 
L 544.542759 53.163047 
Q 541.242759 53.163047 541.242759 56.463047 
L 541.242759 66.656953 
Q 541.242759 69.956953 544.542759 69.956953 
z
" style="fill:#f2f2f2;stroke:#808080;stroke-linejoin:miter;"/>
    </g>
    <!-- MASE_15250 -->
    <g style="fill:#262626;" transform="translate(544.542759 64.470703)scale(0.11 -0.11)">
     <use xlink:href="#ArialMT-77"/>
     <use x="83.300781" xlink:href="#ArialMT-65"/>
     <use x="150" xlink:href="#ArialMT-83"/>
     <use x="216.699219" xlink:href="#ArialMT-69"/>
     <use x="283.398438" xlink:href="#ArialMT-95"/>
     <use x="339.013672" xlink:href="#ArialMT-49"/>
     <use x="394.628906" xlink:href="#ArialMT-53"/>
     <use x="450.244141" xlink:href="#ArialMT-50"/>
     <use x="505.859375" xlink:href="#ArialMT-53"/>
     <use x="561.474609" xlink:href="#ArialMT-48"/>
    </g>
   </g>
   <g id="text_15">
    <g id="patch_17">
     <path d="M 580.287436 42.776953 
L 648.164311 42.776953 
Q 651.464311 42.776953 651.464311 39.476953 
L 651.464311 29.283047 
Q 651.464311 25.983047 648.164311 25.983047 
L 580.287436 25.983047 
Q 576.987436 25.983047 576.987436 29.283047 
L 576.987436 39.476953 
Q 576.987436 42.776953 580.287436 42.776953 
z
" style="fill:#eef1f8;stroke:#808080;stroke-linejoin:miter;"/>
    </g>
    <!-- MASE_15255 -->
    <g style="fill:#262626;" transform="translate(580.287436 37.290703)scale(0.11 -0.11)">
     <use xlink:href="#ArialMT-77"/>
     <use x="83.300781" xlink:href="#ArialMT-65"/>
     <use x="150" xlink:href="#ArialMT-83"/>
     <use x="216.699219" xlink:href="#ArialMT-69"/>
     <use x="283.398438" xlink:href="#ArialMT-95"/>
     <use x="339.013672" xlink:href="#ArialMT-49"/>
     <use x="394.628906" xlink:href="#ArialMT-53"/>
     <use x="450.244141" xlink:href="#ArialMT-50"/>
     <use x="505.859375" xlink:href="#ArialMT-53"/>
     <use x="561.474609" xlink:href="#ArialMT-53"/>
    </g>
   </g>
   <g id="text_16">
    <g id="patch_18">
     <path d="M 630.047176 97.136953 
L 697.924051 97.136953 
Q 701.224051 97.136953 701.224051 93.836953 
L 701.224051 83.643047 
Q 701.224051 80.343047 697.924051 80.343047 
L 630.047176 80.343047 
Q 626.747176 80.343047 626.747176 83.643047 
L 626.747176 93.836953 
Q 626.747176 97.136953 630.047176 97.136953 
z
" style="fill:#ecf9f2;stroke:#808080;stroke-linejoin:miter;"/>
    </g>
    <!-- MASE_15260 -->
    <g style="fill:#262626;" transform="translate(630.047176 91.650703)scale(0.11 -0.11)">
     <use xlink:href="#ArialMT-77"/>
     <use x="83.300781" xlink:href="#ArialMT-65"/>
     <use x="150" xlink:href="#ArialMT-83"/>
     <use x="216.699219" xlink:href="#ArialMT-69"/>
     <use x="283.398438" xlink:href="#ArialMT-95"/>
     <use x="339.013672" xlink:href="#ArialMT-49"/>
     <use x="394.628906" xlink:href="#ArialMT-53"/>
     <use x="450.244141" xlink:href="#ArialMT-50"/>
     <use x="505.859375" xlink:href="#ArialMT-54"/>
     <use x="561.474609" xlink:href="#ArialMT-48"/>
    </g>
   </g>
   <g id="text_17">
    <g id="patch_19">
     <path d="M 799.30189 97.136953 
L 867.178765 97.136953 
Q 870.478765 97.136953 870.478765 93.836953 
L 870.478765 83.643047 
Q 870.478765 80.343047 867.178765 80.343047 
L 799.30189 80.343047 
Q 796.00189 80.343047 796.00189 83.643047 
L 796.00189 93.836953 
Q 796.00189 97.136953 799.30189 97.136953 
z
" style="fill:#f2f2f2;stroke:#808080;stroke-linejoin:miter;"/>
    </g>
    <!-- MASE_15275 -->
    <defs>
     <path d="M 4.734375 62.203125 
L 4.734375 70.65625 
L 51.078125 70.65625 
L 51.078125 63.8125 
Q 44.234375 56.546875 37.515625 44.484375 
Q 30.8125 32.421875 27.15625 19.671875 
Q 24.515625 10.6875 23.78125 0 
L 14.75 0 
Q 14.890625 8.453125 18.0625 20.40625 
Q 21.234375 32.375 27.171875 43.484375 
Q 33.109375 54.59375 39.796875 62.203125 
z
" id="ArialMT-55"/>
    </defs>
    <g style="fill:#262626;" transform="translate(799.30189 91.650703)scale(0.11 -0.11)">
     <use xlink:href="#ArialMT-77"/>
     <use x="83.300781" xlink:href="#ArialMT-65"/>
     <use x="150" xlink:href="#ArialMT-83"/>
     <use x="216.699219" xlink:href="#ArialMT-69"/>
     <use x="283.398438" xlink:href="#ArialMT-95"/>
     <use x="339.013672" xlink:href="#ArialMT-49"/>
     <use x="394.628906" xlink:href="#ArialMT-53"/>
     <use x="450.244141" xlink:href="#ArialMT-50"/>
     <use x="505.859375" xlink:href="#ArialMT-55"/>
     <use x="561.474609" xlink:href="#ArialMT-53"/>
    </g>
   </g>
  </g>
 </g>
 <defs>
  <clipPath id="pf4c33a7d4a">
   <rect height="163.08" width="1116" x="7.2" y="7.2"/>
  </clipPath>
 </defs>
</svg>
