<?xml version="1.0" encoding="utf-8" standalone="no"?>
<!DOCTYPE svg PUBLIC "-//W3C//DTD SVG 1.1//EN"
  "http://www.w3.org/Graphics/SVG/1.1/DTD/svg11.dtd">
<!-- Created with matplotlib (https://matplotlib.org/) -->
<svg height="218.783844pt" version="1.1" viewBox="0 0 1130.4 218.783844" width="1130.4pt" xmlns="http://www.w3.org/2000/svg" xmlns:xlink="http://www.w3.org/1999/xlink">
 <defs>
  <style type="text/css">
*{stroke-linecap:butt;stroke-linejoin:round;}
  </style>
 </defs>
 <g id="figure_1">
  <g id="patch_1">
   <path d="M 0 218.783844 
L 1130.4 218.783844 
L 1130.4 0 
L 0 0 
z
" style="fill:#ffffff;"/>
  </g>
  <g id="axes_1">
   <g id="line2d_1">
    <path clip-path="url(#p904434d797)" d="M 7.2 165.620571 
L 1123.2 165.620571 
" style="fill:none;stroke:#1a1a1a;stroke-linecap:round;stroke-width:1.5;"/>
   </g>
   <g id="patch_2">
    <path clip-path="url(#p904434d797)" d="M 294.403197 172.620571 
Q 273.596593 172.620571 252.789989 172.620571 
L 252.789989 172.620571 
Q 248.591429 169.120571 244.392869 165.620571 
Q 248.591429 162.120571 252.789989 158.620571 
L 252.789989 158.620571 
Q 273.596593 158.620571 294.403197 158.620571 
L 294.403197 172.620571 
z
" style="fill:#66cc99;fill-opacity:0.85;stroke:#000000;stroke-linecap:round;"/>
   </g>
   <g id="patch_3">
    <path clip-path="url(#p904434d797)" d="M 328.26846 172.620571 
Q 317.557341 172.620571 306.846222 172.620571 
L 306.846222 172.620571 
Q 302.647318 169.120571 298.448414 165.620571 
Q 302.647318 162.120571 306.846222 158.620571 
L 306.846222 158.620571 
Q 317.557341 158.620571 328.26846 158.620571 
L 328.26846 172.620571 
z
" style="fill:#6699ff;fill-opacity:0.85;stroke:#000000;stroke-linecap:round;"/>
   </g>
   <g id="patch_4">
    <path clip-path="url(#p904434d797)" d="M 372.336258 172.620571 
Q 355.503577 172.620571 338.670896 172.620571 
L 338.670896 172.620571 
Q 334.472032 169.120571 330.273169 165.620571 
Q 334.472032 162.120571 338.670896 158.620571 
L 338.670896 158.620571 
Q 355.503577 158.620571 372.336258 158.620571 
L 372.336258 172.620571 
z
" style="fill:#ccccff;fill-opacity:0.85;stroke:#000000;stroke-linecap:round;"/>
   </g>
   <g id="patch_5">
    <path clip-path="url(#p904434d797)" d="M 390.056454 146.217143 
Q 387.993197 146.217143 385.929939 146.217143 
L 385.929939 146.217143 
Q 381.728481 142.717143 377.527023 139.217143 
Q 381.728481 135.717143 385.929939 132.217143 
L 385.929939 132.217143 
Q 387.993197 132.217143 390.056454 132.217143 
L 390.056454 146.217143 
z
" style="fill:#999999;fill-opacity:0.85;stroke:#000000;stroke-linecap:round;"/>
   </g>
   <g id="patch_6">
    <path clip-path="url(#p904434d797)" d="M 446.94007 172.620571 
Q 422.644799 172.620571 398.349528 172.620571 
L 398.349528 172.620571 
Q 394.149293 169.120571 389.949059 165.620571 
Q 394.149293 162.120571 398.349528 158.620571 
L 398.349528 158.620571 
Q 422.644799 158.620571 446.94007 158.620571 
L 446.94007 172.620571 
z
" style="fill:#003399;fill-opacity:0.85;stroke:#000000;stroke-linecap:round;"/>
   </g>
   <g id="patch_7">
    <path clip-path="url(#p904434d797)" d="M 458.681937 146.217143 
Q 457.477037 146.217143 456.272137 146.217143 
L 456.272137 146.217143 
Q 452.071482 142.717143 447.870828 139.217143 
Q 452.071482 135.717143 456.272137 132.217143 
L 456.272137 132.217143 
Q 457.477037 132.217143 458.681937 132.217143 
L 458.681937 146.217143 
z
" style="fill:#999999;fill-opacity:0.85;stroke:#000000;stroke-linecap:round;"/>
   </g>
   <g id="patch_8">
    <path clip-path="url(#p904434d797)" d="M 507.72571 172.620571 
Q 487.351555 172.620571 466.9774 172.620571 
L 466.9774 172.620571 
Q 462.775971 169.120571 458.574542 165.620571 
Q 462.775971 162.120571 466.9774 158.620571 
L 466.9774 158.620571 
Q 487.351555 158.620571 507.72571 158.620571 
L 507.72571 172.620571 
z
" style="fill:#999999;fill-opacity:0.85;stroke:#000000;stroke-linecap:round;"/>
   </g>
   <g id="patch_9">
    <path clip-path="url(#p904434d797)" d="M 532.677177 172.620571 
Q 525.780527 172.620571 518.883878 172.620571 
L 518.883878 172.620571 
Q 514.683031 169.120571 510.482185 165.620571 
Q 514.683031 162.120571 518.883878 158.620571 
L 518.883878 158.620571 
Q 525.780527 158.620571 532.677177 158.620571 
L 532.677177 172.620571 
z
" style="fill:#ff6600;fill-opacity:0.85;stroke:#000000;stroke-linecap:round;"/>
   </g>
   <g id="patch_10">
    <path clip-path="url(#p904434d797)" d="M 547.927284 172.620571 
Q 544.841488 172.620571 541.755692 172.620571 
L 541.755692 172.620571 
Q 537.556519 169.120571 533.357346 165.620571 
Q 537.556519 162.120571 541.755692 158.620571 
L 541.755692 158.620571 
Q 544.841488 158.620571 547.927284 158.620571 
L 547.927284 172.620571 
z
" style="fill:#ff6600;fill-opacity:0.85;stroke:#000000;stroke-linecap:round;"/>
   </g>
   <g id="patch_11">
    <path clip-path="url(#p904434d797)" d="M 561.852852 172.620571 
Q 559.142183 172.620571 556.431513 172.620571 
L 556.431513 172.620571 
Q 552.233096 169.120571 548.03468 165.620571 
Q 552.233096 162.120571 556.431513 158.620571 
L 556.431513 158.620571 
Q 559.142183 158.620571 561.852852 158.620571 
L 561.852852 172.620571 
z
" style="fill:#ff6600;fill-opacity:0.85;stroke:#000000;stroke-linecap:round;"/>
   </g>
   <g id="patch_12">
    <path clip-path="url(#p904434d797)" d="M 611.111415 172.620571 
Q 590.680716 172.620571 570.250018 172.620571 
L 570.250018 172.620571 
Q 566.051435 169.120571 561.852852 165.620571 
Q 566.051435 162.120571 570.250018 158.620571 
L 570.250018 158.620571 
Q 590.680716 158.620571 611.111415 158.620571 
L 611.111415 172.620571 
z
" style="fill:#ff6600;fill-opacity:0.85;stroke:#000000;stroke-linecap:round;"/>
   </g>
   <g id="patch_13">
    <path clip-path="url(#p904434d797)" d="M 638.783558 146.217143 
Q 629.093613 146.217143 619.403668 146.217143 
L 619.403668 146.217143 
Q 615.203844 142.717143 611.00402 139.217143 
Q 615.203844 135.717143 619.403668 132.217143 
L 619.403668 132.217143 
Q 629.093613 132.217143 638.783558 132.217143 
L 638.783558 146.217143 
z
" style="fill:#999999;fill-opacity:0.85;stroke:#000000;stroke-linecap:round;"/>
   </g>
   <g id="patch_14">
    <path clip-path="url(#p904434d797)" d="M 724.484867 172.620571 
Q 687.678898 172.620571 650.872929 172.620571 
L 650.872929 172.620571 
Q 646.67186 169.120571 642.470791 165.620571 
Q 646.67186 162.120571 650.872929 158.620571 
L 650.872929 158.620571 
Q 687.678898 158.620571 724.484867 158.620571 
L 724.484867 172.620571 
z
" style="fill:#ff0000;fill-opacity:0.85;stroke:#000000;stroke-linecap:round;"/>
   </g>
   <g id="patch_15">
    <path clip-path="url(#p904434d797)" d="M 737.83766 158.620571 
Q 753.271302 158.620571 768.704944 158.620571 
L 768.704944 158.620571 
Q 772.90671 162.120571 777.108477 165.620571 
Q 772.90671 169.120571 768.704944 172.620571 
L 768.704944 172.620571 
Q 753.271302 172.620571 737.83766 172.620571 
L 737.83766 158.620571 
z
" style="fill:#66cc99;fill-opacity:0.85;stroke:#000000;stroke-linecap:round;"/>
   </g>
   <g id="patch_16">
    <path clip-path="url(#p904434d797)" d="M 803.491879 172.620571 
Q 795.52071 172.620571 787.549541 172.620571 
L 787.549541 172.620571 
Q 783.349263 169.120571 779.148984 165.620571 
Q 783.349263 162.120571 787.549541 158.620571 
L 787.549541 158.620571 
Q 795.52071 158.620571 803.491879 158.620571 
L 803.491879 172.620571 
z
" style="fill:#66cc99;fill-opacity:0.85;stroke:#000000;stroke-linecap:round;"/>
   </g>
   <g id="patch_17">
    <path clip-path="url(#p904434d797)" d="M 886.007131 172.620571 
Q 850.595701 172.620571 815.184271 172.620571 
L 815.184271 172.620571 
Q 810.9848 169.120571 806.785329 165.620571 
Q 810.9848 162.120571 815.184271 158.620571 
L 815.184271 158.620571 
Q 850.595701 158.620571 886.007131 158.620571 
L 886.007131 172.620571 
z
" style="fill:#ff0000;fill-opacity:0.85;stroke:#000000;stroke-linecap:round;"/>
   </g>
   <g id="matplotlib.axis_1">
    <g id="xtick_1">
     <g id="line2d_2">
      <path clip-path="url(#p904434d797)" d="M 131.431098 192.024 
L 131.431098 7.2 
" style="fill:none;stroke:#ffffff;stroke-linecap:round;"/>
     </g>
     <g id="line2d_3">
      <defs>
       <path d="M 0 0 
L 0 6 
" id="md5295cfce1" style="stroke:#262626;stroke-width:1.25;"/>
      </defs>
      <g>
       <use style="fill:#262626;stroke:#262626;stroke-width:1.25;" x="131.431098" xlink:href="#md5295cfce1" y="192.024"/>
      </g>
     </g>
     <g id="text_1">
      <!-- 4080000 -->
      <defs>
       <path d="M 32.328125 0 
L 32.328125 17.140625 
L 1.265625 17.140625 
L 1.265625 25.203125 
L 33.9375 71.578125 
L 41.109375 71.578125 
L 41.109375 25.203125 
L 50.78125 25.203125 
L 50.78125 17.140625 
L 41.109375 17.140625 
L 41.109375 0 
z
M 32.328125 25.203125 
L 32.328125 57.46875 
L 9.90625 25.203125 
z
" id="ArialMT-52"/>
       <path d="M 4.15625 35.296875 
Q 4.15625 48 6.765625 55.734375 
Q 9.375 63.484375 14.515625 67.671875 
Q 19.671875 71.875 27.484375 71.875 
Q 33.25 71.875 37.59375 69.546875 
Q 41.9375 67.234375 44.765625 62.859375 
Q 47.609375 58.5 49.21875 52.21875 
Q 50.828125 45.953125 50.828125 35.296875 
Q 50.828125 22.703125 48.234375 14.96875 
Q 45.65625 7.234375 40.5 3 
Q 35.359375 -1.21875 27.484375 -1.21875 
Q 17.140625 -1.21875 11.234375 6.203125 
Q 4.15625 15.140625 4.15625 35.296875 
z
M 13.1875 35.296875 
Q 13.1875 17.671875 17.3125 11.828125 
Q 21.4375 6 27.484375 6 
Q 33.546875 6 37.671875 11.859375 
Q 41.796875 17.71875 41.796875 35.296875 
Q 41.796875 52.984375 37.671875 58.78125 
Q 33.546875 64.59375 27.390625 64.59375 
Q 21.34375 64.59375 17.71875 59.46875 
Q 13.1875 52.9375 13.1875 35.296875 
z
" id="ArialMT-48"/>
       <path d="M 17.671875 38.8125 
Q 12.203125 40.828125 9.5625 44.53125 
Q 6.9375 48.25 6.9375 53.421875 
Q 6.9375 61.234375 12.546875 66.546875 
Q 18.171875 71.875 27.484375 71.875 
Q 36.859375 71.875 42.578125 66.421875 
Q 48.296875 60.984375 48.296875 53.171875 
Q 48.296875 48.1875 45.671875 44.5 
Q 43.0625 40.828125 37.75 38.8125 
Q 44.34375 36.671875 47.78125 31.875 
Q 51.21875 27.09375 51.21875 20.453125 
Q 51.21875 11.28125 44.71875 5.03125 
Q 38.234375 -1.21875 27.640625 -1.21875 
Q 17.046875 -1.21875 10.546875 5.046875 
Q 4.046875 11.328125 4.046875 20.703125 
Q 4.046875 27.6875 7.59375 32.390625 
Q 11.140625 37.109375 17.671875 38.8125 
z
M 15.921875 53.71875 
Q 15.921875 48.640625 19.1875 45.40625 
Q 22.46875 42.1875 27.6875 42.1875 
Q 32.765625 42.1875 36.015625 45.375 
Q 39.265625 48.578125 39.265625 53.21875 
Q 39.265625 58.0625 35.90625 61.359375 
Q 32.5625 64.65625 27.59375 64.65625 
Q 22.5625 64.65625 19.234375 61.421875 
Q 15.921875 58.203125 15.921875 53.71875 
z
M 13.09375 20.65625 
Q 13.09375 16.890625 14.875 13.375 
Q 16.65625 9.859375 20.171875 7.921875 
Q 23.6875 6 27.734375 6 
Q 34.03125 6 38.125 10.046875 
Q 42.234375 14.109375 42.234375 20.359375 
Q 42.234375 26.703125 38.015625 30.859375 
Q 33.796875 35.015625 27.4375 35.015625 
Q 21.234375 35.015625 17.15625 30.90625 
Q 13.09375 26.8125 13.09375 20.65625 
z
" id="ArialMT-56"/>
      </defs>
      <g style="fill:#262626;" transform="translate(110.021489 209.397594)scale(0.11 -0.11)">
       <use xlink:href="#ArialMT-52"/>
       <use x="55.615234" xlink:href="#ArialMT-48"/>
       <use x="111.230469" xlink:href="#ArialMT-56"/>
       <use x="166.845703" xlink:href="#ArialMT-48"/>
       <use x="222.460938" xlink:href="#ArialMT-48"/>
       <use x="278.076172" xlink:href="#ArialMT-48"/>
       <use x="333.691406" xlink:href="#ArialMT-48"/>
      </g>
     </g>
    </g>
    <g id="xtick_2">
     <g id="line2d_4">
      <path clip-path="url(#p904434d797)" d="M 274.624596 192.024 
L 274.624596 7.2 
" style="fill:none;stroke:#ffffff;stroke-linecap:round;"/>
     </g>
     <g id="line2d_5">
      <g>
       <use style="fill:#262626;stroke:#262626;stroke-width:1.25;" x="274.624596" xlink:href="#md5295cfce1" y="192.024"/>
      </g>
     </g>
     <g id="text_2">
      <!-- 4084000 -->
      <g style="fill:#262626;" transform="translate(253.214986 209.397594)scale(0.11 -0.11)">
       <use xlink:href="#ArialMT-52"/>
       <use x="55.615234" xlink:href="#ArialMT-48"/>
       <use x="111.230469" xlink:href="#ArialMT-56"/>
       <use x="166.845703" xlink:href="#ArialMT-52"/>
       <use x="222.460938" xlink:href="#ArialMT-48"/>
       <use x="278.076172" xlink:href="#ArialMT-48"/>
       <use x="333.691406" xlink:href="#ArialMT-48"/>
      </g>
     </g>
    </g>
    <g id="xtick_3">
     <g id="line2d_6">
      <path clip-path="url(#p904434d797)" d="M 417.818093 192.024 
L 417.818093 7.2 
" style="fill:none;stroke:#ffffff;stroke-linecap:round;"/>
     </g>
     <g id="line2d_7">
      <g>
       <use style="fill:#262626;stroke:#262626;stroke-width:1.25;" x="417.818093" xlink:href="#md5295cfce1" y="192.024"/>
      </g>
     </g>
     <g id="text_3">
      <!-- 4088000 -->
      <g style="fill:#262626;" transform="translate(396.408484 209.397594)scale(0.11 -0.11)">
       <use xlink:href="#ArialMT-52"/>
       <use x="55.615234" xlink:href="#ArialMT-48"/>
       <use x="111.230469" xlink:href="#ArialMT-56"/>
       <use x="166.845703" xlink:href="#ArialMT-56"/>
       <use x="222.460938" xlink:href="#ArialMT-48"/>
       <use x="278.076172" xlink:href="#ArialMT-48"/>
       <use x="333.691406" xlink:href="#ArialMT-48"/>
      </g>
     </g>
    </g>
    <g id="xtick_4">
     <g id="line2d_8">
      <path clip-path="url(#p904434d797)" d="M 561.01159 192.024 
L 561.01159 7.2 
" style="fill:none;stroke:#ffffff;stroke-linecap:round;"/>
     </g>
     <g id="line2d_9">
      <g>
       <use style="fill:#262626;stroke:#262626;stroke-width:1.25;" x="561.01159" xlink:href="#md5295cfce1" y="192.024"/>
      </g>
     </g>
     <g id="text_4">
      <!-- 4092000 -->
      <defs>
       <path d="M 5.46875 16.546875 
L 13.921875 17.328125 
Q 14.984375 11.375 18.015625 8.6875 
Q 21.046875 6 25.78125 6 
Q 29.828125 6 32.875 7.859375 
Q 35.9375 9.71875 37.890625 12.8125 
Q 39.84375 15.921875 41.15625 21.1875 
Q 42.484375 26.46875 42.484375 31.9375 
Q 42.484375 32.515625 42.4375 33.6875 
Q 39.796875 29.5 35.234375 26.875 
Q 30.671875 24.265625 25.34375 24.265625 
Q 16.453125 24.265625 10.296875 30.703125 
Q 4.15625 37.15625 4.15625 47.703125 
Q 4.15625 58.59375 10.578125 65.234375 
Q 17 71.875 26.65625 71.875 
Q 33.640625 71.875 39.421875 68.109375 
Q 45.21875 64.359375 48.21875 57.390625 
Q 51.21875 50.4375 51.21875 37.25 
Q 51.21875 23.53125 48.234375 15.40625 
Q 45.265625 7.28125 39.375 3.03125 
Q 33.5 -1.21875 25.59375 -1.21875 
Q 17.1875 -1.21875 11.859375 3.4375 
Q 6.546875 8.109375 5.46875 16.546875 
z
M 41.453125 48.140625 
Q 41.453125 55.71875 37.421875 60.15625 
Q 33.40625 64.59375 27.734375 64.59375 
Q 21.875 64.59375 17.53125 59.8125 
Q 13.1875 55.03125 13.1875 47.40625 
Q 13.1875 40.578125 17.3125 36.296875 
Q 21.4375 32.03125 27.484375 32.03125 
Q 33.59375 32.03125 37.515625 36.296875 
Q 41.453125 40.578125 41.453125 48.140625 
z
" id="ArialMT-57"/>
       <path d="M 50.34375 8.453125 
L 50.34375 0 
L 3.03125 0 
Q 2.9375 3.171875 4.046875 6.109375 
Q 5.859375 10.9375 9.828125 15.625 
Q 13.8125 20.3125 21.34375 26.46875 
Q 33.015625 36.03125 37.109375 41.625 
Q 41.21875 47.21875 41.21875 52.203125 
Q 41.21875 57.421875 37.46875 61 
Q 33.734375 64.59375 27.734375 64.59375 
Q 21.390625 64.59375 17.578125 60.78125 
Q 13.765625 56.984375 13.71875 50.25 
L 4.6875 51.171875 
Q 5.609375 61.28125 11.65625 66.578125 
Q 17.71875 71.875 27.9375 71.875 
Q 38.234375 71.875 44.234375 66.15625 
Q 50.25 60.453125 50.25 52 
Q 50.25 47.703125 48.484375 43.546875 
Q 46.734375 39.40625 42.65625 34.8125 
Q 38.578125 30.21875 29.109375 22.21875 
Q 21.1875 15.578125 18.9375 13.203125 
Q 16.703125 10.84375 15.234375 8.453125 
z
" id="ArialMT-50"/>
      </defs>
      <g style="fill:#262626;" transform="translate(539.601981 209.397594)scale(0.11 -0.11)">
       <use xlink:href="#ArialMT-52"/>
       <use x="55.615234" xlink:href="#ArialMT-48"/>
       <use x="111.230469" xlink:href="#ArialMT-57"/>
       <use x="166.845703" xlink:href="#ArialMT-50"/>
       <use x="222.460938" xlink:href="#ArialMT-48"/>
       <use x="278.076172" xlink:href="#ArialMT-48"/>
       <use x="333.691406" xlink:href="#ArialMT-48"/>
      </g>
     </g>
    </g>
    <g id="xtick_5">
     <g id="line2d_10">
      <path clip-path="url(#p904434d797)" d="M 704.205087 192.024 
L 704.205087 7.2 
" style="fill:none;stroke:#ffffff;stroke-linecap:round;"/>
     </g>
     <g id="line2d_11">
      <g>
       <use style="fill:#262626;stroke:#262626;stroke-width:1.25;" x="704.205087" xlink:href="#md5295cfce1" y="192.024"/>
      </g>
     </g>
     <g id="text_5">
      <!-- 4096000 -->
      <defs>
       <path d="M 49.75 54.046875 
L 41.015625 53.375 
Q 39.84375 58.546875 37.703125 60.890625 
Q 34.125 64.65625 28.90625 64.65625 
Q 24.703125 64.65625 21.53125 62.3125 
Q 17.390625 59.28125 14.984375 53.46875 
Q 12.59375 47.65625 12.5 36.921875 
Q 15.671875 41.75 20.265625 44.09375 
Q 24.859375 46.4375 29.890625 46.4375 
Q 38.671875 46.4375 44.84375 39.96875 
Q 51.03125 33.5 51.03125 23.25 
Q 51.03125 16.5 48.125 10.71875 
Q 45.21875 4.9375 40.140625 1.859375 
Q 35.0625 -1.21875 28.609375 -1.21875 
Q 17.625 -1.21875 10.6875 6.859375 
Q 3.765625 14.9375 3.765625 33.5 
Q 3.765625 54.25 11.421875 63.671875 
Q 18.109375 71.875 29.4375 71.875 
Q 37.890625 71.875 43.28125 67.140625 
Q 48.6875 62.40625 49.75 54.046875 
z
M 13.875 23.1875 
Q 13.875 18.65625 15.796875 14.5 
Q 17.71875 10.359375 21.1875 8.171875 
Q 24.65625 6 28.46875 6 
Q 34.03125 6 38.03125 10.484375 
Q 42.046875 14.984375 42.046875 22.703125 
Q 42.046875 30.125 38.078125 34.390625 
Q 34.125 38.671875 28.125 38.671875 
Q 22.171875 38.671875 18.015625 34.390625 
Q 13.875 30.125 13.875 23.1875 
z
" id="ArialMT-54"/>
      </defs>
      <g style="fill:#262626;" transform="translate(682.795478 209.397594)scale(0.11 -0.11)">
       <use xlink:href="#ArialMT-52"/>
       <use x="55.615234" xlink:href="#ArialMT-48"/>
       <use x="111.230469" xlink:href="#ArialMT-57"/>
       <use x="166.845703" xlink:href="#ArialMT-54"/>
       <use x="222.460938" xlink:href="#ArialMT-48"/>
       <use x="278.076172" xlink:href="#ArialMT-48"/>
       <use x="333.691406" xlink:href="#ArialMT-48"/>
      </g>
     </g>
    </g>
    <g id="xtick_6">
     <g id="line2d_12">
      <path clip-path="url(#p904434d797)" d="M 847.398585 192.024 
L 847.398585 7.2 
" style="fill:none;stroke:#ffffff;stroke-linecap:round;"/>
     </g>
     <g id="line2d_13">
      <g>
       <use style="fill:#262626;stroke:#262626;stroke-width:1.25;" x="847.398585" xlink:href="#md5295cfce1" y="192.024"/>
      </g>
     </g>
     <g id="text_6">
      <!-- 4100000 -->
      <defs>
       <path d="M 37.25 0 
L 28.46875 0 
L 28.46875 56 
Q 25.296875 52.984375 20.140625 49.953125 
Q 14.984375 46.921875 10.890625 45.40625 
L 10.890625 53.90625 
Q 18.265625 57.375 23.78125 62.296875 
Q 29.296875 67.234375 31.59375 71.875 
L 37.25 71.875 
z
" id="ArialMT-49"/>
      </defs>
      <g style="fill:#262626;" transform="translate(825.988975 209.397594)scale(0.11 -0.11)">
       <use xlink:href="#ArialMT-52"/>
       <use x="55.615234" xlink:href="#ArialMT-49"/>
       <use x="111.230469" xlink:href="#ArialMT-48"/>
       <use x="166.845703" xlink:href="#ArialMT-48"/>
       <use x="222.460938" xlink:href="#ArialMT-48"/>
       <use x="278.076172" xlink:href="#ArialMT-48"/>
       <use x="333.691406" xlink:href="#ArialMT-48"/>
      </g>
     </g>
    </g>
    <g id="xtick_7">
     <g id="line2d_14">
      <path clip-path="url(#p904434d797)" d="M 990.592082 192.024 
L 990.592082 7.2 
" style="fill:none;stroke:#ffffff;stroke-linecap:round;"/>
     </g>
     <g id="line2d_15">
      <g>
       <use style="fill:#262626;stroke:#262626;stroke-width:1.25;" x="990.592082" xlink:href="#md5295cfce1" y="192.024"/>
      </g>
     </g>
     <g id="text_7">
      <!-- 4104000 -->
      <g style="fill:#262626;" transform="translate(969.182473 209.397594)scale(0.11 -0.11)">
       <use xlink:href="#ArialMT-52"/>
       <use x="55.615234" xlink:href="#ArialMT-49"/>
       <use x="111.230469" xlink:href="#ArialMT-48"/>
       <use x="166.845703" xlink:href="#ArialMT-52"/>
       <use x="222.460938" xlink:href="#ArialMT-48"/>
       <use x="278.076172" xlink:href="#ArialMT-48"/>
       <use x="333.691406" xlink:href="#ArialMT-48"/>
      </g>
     </g>
    </g>
   </g>
   <g id="line2d_16">
    <path clip-path="url(#p904434d797)" d="M 269.415932 112.813714 
L 269.415932 165.620571 
" style="fill:none;stroke:#1a1a1a;stroke-linecap:round;stroke-width:0.5;"/>
   </g>
   <g id="line2d_17">
    <path clip-path="url(#p904434d797)" d="M 313.376336 86.410286 
L 313.376336 165.620571 
" style="fill:none;stroke:#1a1a1a;stroke-linecap:round;stroke-width:0.5;"/>
   </g>
   <g id="line2d_18">
    <path clip-path="url(#p904434d797)" d="M 351.322613 60.006857 
L 351.322613 165.620571 
" style="fill:none;stroke:#1a1a1a;stroke-linecap:round;stroke-width:0.5;"/>
   </g>
   <g id="line2d_19">
    <path clip-path="url(#p904434d797)" d="M 383.809637 112.813714 
L 383.809637 139.217143 
" style="fill:none;stroke:#1a1a1a;stroke-linecap:round;stroke-width:0.5;"/>
   </g>
   <g id="line2d_20">
    <path clip-path="url(#p904434d797)" d="M 418.462464 86.410286 
L 418.462464 165.620571 
" style="fill:none;stroke:#1a1a1a;stroke-linecap:round;stroke-width:0.5;"/>
   </g>
   <g id="line2d_21">
    <path clip-path="url(#p904434d797)" d="M 453.294282 60.006857 
L 453.294282 139.217143 
" style="fill:none;stroke:#1a1a1a;stroke-linecap:round;stroke-width:0.5;"/>
   </g>
   <g id="line2d_22">
    <path clip-path="url(#p904434d797)" d="M 483.168025 112.813714 
L 483.168025 165.620571 
" style="fill:none;stroke:#1a1a1a;stroke-linecap:round;stroke-width:0.5;"/>
   </g>
   <g id="line2d_23">
    <path clip-path="url(#p904434d797)" d="M 521.59758 86.410286 
L 521.59758 165.620571 
" style="fill:none;stroke:#1a1a1a;stroke-linecap:round;stroke-width:0.5;"/>
   </g>
   <g id="line2d_24">
    <path clip-path="url(#p904434d797)" d="M 540.660214 33.603429 
L 540.660214 165.620571 
" style="fill:none;stroke:#1a1a1a;stroke-linecap:round;stroke-width:0.5;"/>
   </g>
   <g id="line2d_25">
    <path clip-path="url(#p904434d797)" d="M 554.961665 60.006857 
L 554.961665 165.620571 
" style="fill:none;stroke:#1a1a1a;stroke-linecap:round;stroke-width:0.5;"/>
   </g>
   <g id="line2d_26">
    <path clip-path="url(#p904434d797)" d="M 586.500033 112.813714 
L 586.500033 165.620571 
" style="fill:none;stroke:#1a1a1a;stroke-linecap:round;stroke-width:0.5;"/>
   </g>
   <g id="line2d_27">
    <path clip-path="url(#p904434d797)" d="M 624.911688 86.410286 
L 624.911688 139.217143 
" style="fill:none;stroke:#1a1a1a;stroke-linecap:round;stroke-width:0.5;"/>
   </g>
   <g id="line2d_28">
    <path clip-path="url(#p904434d797)" d="M 683.495728 112.813714 
L 683.495728 165.620571 
" style="fill:none;stroke:#1a1a1a;stroke-linecap:round;stroke-width:0.5;"/>
   </g>
   <g id="line2d_29">
    <path clip-path="url(#p904434d797)" d="M 757.490968 86.410286 
L 757.490968 165.620571 
" style="fill:none;stroke:#1a1a1a;stroke-linecap:round;stroke-width:0.5;"/>
   </g>
   <g id="line2d_30">
    <path clip-path="url(#p904434d797)" d="M 791.338331 112.813714 
L 791.338331 165.620571 
" style="fill:none;stroke:#1a1a1a;stroke-linecap:round;stroke-width:0.5;"/>
   </g>
   <g id="line2d_31">
    <path clip-path="url(#p904434d797)" d="M 846.414129 86.410286 
L 846.414129 165.620571 
" style="fill:none;stroke:#1a1a1a;stroke-linecap:round;stroke-width:0.5;"/>
   </g>
   <g id="text_8">
    <g id="patch_18">
     <path d="M 235.477495 121.210667 
L 303.35437 121.210667 
Q 306.65437 121.210667 306.65437 117.910667 
L 306.65437 107.716761 
Q 306.65437 104.416761 303.35437 104.416761 
L 235.477495 104.416761 
Q 232.177495 104.416761 232.177495 107.716761 
L 232.177495 117.910667 
Q 232.177495 121.210667 235.477495 121.210667 
z
" style="fill:#ecf9f2;stroke:#808080;stroke-linejoin:miter;"/>
    </g>
    <!-- MASE_17425 -->
    <defs>
     <path d="M 7.421875 0 
L 7.421875 71.578125 
L 21.6875 71.578125 
L 38.625 20.90625 
Q 40.96875 13.8125 42.046875 10.296875 
Q 43.265625 14.203125 45.84375 21.78125 
L 62.984375 71.578125 
L 75.734375 71.578125 
L 75.734375 0 
L 66.609375 0 
L 66.609375 59.90625 
L 45.796875 0 
L 37.25 0 
L 16.546875 60.9375 
L 16.546875 0 
z
" id="ArialMT-77"/>
     <path d="M -0.140625 0 
L 27.34375 71.578125 
L 37.546875 71.578125 
L 66.84375 0 
L 56.0625 0 
L 47.703125 21.6875 
L 17.78125 21.6875 
L 9.90625 0 
z
M 20.515625 29.390625 
L 44.78125 29.390625 
L 37.3125 49.21875 
Q 33.890625 58.25 32.234375 64.0625 
Q 30.859375 57.171875 28.375 50.390625 
z
" id="ArialMT-65"/>
     <path d="M 4.5 23 
L 13.421875 23.78125 
Q 14.0625 18.40625 16.375 14.96875 
Q 18.703125 11.53125 23.578125 9.40625 
Q 28.46875 7.28125 34.578125 7.28125 
Q 39.984375 7.28125 44.140625 8.890625 
Q 48.296875 10.5 50.3125 13.296875 
Q 52.34375 16.109375 52.34375 19.4375 
Q 52.34375 22.796875 50.390625 25.3125 
Q 48.4375 27.828125 43.953125 29.546875 
Q 41.0625 30.671875 31.203125 33.03125 
Q 21.34375 35.40625 17.390625 37.5 
Q 12.25 40.1875 9.734375 44.15625 
Q 7.234375 48.140625 7.234375 53.078125 
Q 7.234375 58.5 10.296875 63.203125 
Q 13.375 67.921875 19.28125 70.359375 
Q 25.203125 72.796875 32.421875 72.796875 
Q 40.375 72.796875 46.453125 70.234375 
Q 52.546875 67.671875 55.8125 62.6875 
Q 59.078125 57.71875 59.328125 51.421875 
L 50.25 50.734375 
Q 49.515625 57.515625 45.28125 60.984375 
Q 41.0625 64.453125 32.8125 64.453125 
Q 24.21875 64.453125 20.28125 61.296875 
Q 16.359375 58.15625 16.359375 53.71875 
Q 16.359375 49.859375 19.140625 47.359375 
Q 21.875 44.875 33.421875 42.265625 
Q 44.96875 39.65625 49.265625 37.703125 
Q 55.515625 34.8125 58.484375 30.390625 
Q 61.46875 25.984375 61.46875 20.21875 
Q 61.46875 14.5 58.203125 9.4375 
Q 54.9375 4.390625 48.796875 1.578125 
Q 42.671875 -1.21875 35.015625 -1.21875 
Q 25.296875 -1.21875 18.71875 1.609375 
Q 12.15625 4.4375 8.421875 10.125 
Q 4.6875 15.828125 4.5 23 
z
" id="ArialMT-83"/>
     <path d="M 7.90625 0 
L 7.90625 71.578125 
L 59.671875 71.578125 
L 59.671875 63.140625 
L 17.390625 63.140625 
L 17.390625 41.21875 
L 56.984375 41.21875 
L 56.984375 32.8125 
L 17.390625 32.8125 
L 17.390625 8.453125 
L 61.328125 8.453125 
L 61.328125 0 
z
" id="ArialMT-69"/>
     <path d="M -1.515625 -19.875 
L -1.515625 -13.53125 
L 56.734375 -13.53125 
L 56.734375 -19.875 
z
" id="ArialMT-95"/>
     <path d="M 4.734375 62.203125 
L 4.734375 70.65625 
L 51.078125 70.65625 
L 51.078125 63.8125 
Q 44.234375 56.546875 37.515625 44.484375 
Q 30.8125 32.421875 27.15625 19.671875 
Q 24.515625 10.6875 23.78125 0 
L 14.75 0 
Q 14.890625 8.453125 18.0625 20.40625 
Q 21.234375 32.375 27.171875 43.484375 
Q 33.109375 54.59375 39.796875 62.203125 
z
" id="ArialMT-55"/>
     <path d="M 4.15625 18.75 
L 13.375 19.53125 
Q 14.40625 12.796875 18.140625 9.390625 
Q 21.875 6 27.15625 6 
Q 33.5 6 37.890625 10.78125 
Q 42.28125 15.578125 42.28125 23.484375 
Q 42.28125 31 38.0625 35.34375 
Q 33.84375 39.703125 27 39.703125 
Q 22.75 39.703125 19.328125 37.765625 
Q 15.921875 35.84375 13.96875 32.765625 
L 5.71875 33.84375 
L 12.640625 70.609375 
L 48.25 70.609375 
L 48.25 62.203125 
L 19.671875 62.203125 
L 15.828125 42.96875 
Q 22.265625 47.46875 29.34375 47.46875 
Q 38.71875 47.46875 45.15625 40.96875 
Q 51.609375 34.46875 51.609375 24.265625 
Q 51.609375 14.546875 45.953125 7.46875 
Q 39.0625 -1.21875 27.15625 -1.21875 
Q 17.390625 -1.21875 11.203125 4.25 
Q 5.03125 9.71875 4.15625 18.75 
z
" id="ArialMT-53"/>
    </defs>
    <g style="fill:#262626;" transform="translate(235.477495 115.724417)scale(0.11 -0.11)">
     <use xlink:href="#ArialMT-77"/>
     <use x="83.300781" xlink:href="#ArialMT-65"/>
     <use x="150" xlink:href="#ArialMT-83"/>
     <use x="216.699219" xlink:href="#ArialMT-69"/>
     <use x="283.398438" xlink:href="#ArialMT-95"/>
     <use x="339.013672" xlink:href="#ArialMT-49"/>
     <use x="394.628906" xlink:href="#ArialMT-55"/>
     <use x="450.244141" xlink:href="#ArialMT-52"/>
     <use x="505.859375" xlink:href="#ArialMT-50"/>
     <use x="561.474609" xlink:href="#ArialMT-53"/>
    </g>
   </g>
   <g id="text_9">
    <g id="patch_19">
     <path d="M 279.437898 94.807239 
L 347.314773 94.807239 
Q 350.614773 94.807239 350.614773 91.507239 
L 350.614773 81.313333 
Q 350.614773 78.013333 347.314773 78.013333 
L 279.437898 78.013333 
Q 276.137898 78.013333 276.137898 81.313333 
L 276.137898 91.507239 
Q 276.137898 94.807239 279.437898 94.807239 
z
" style="fill:#e8f0ff;stroke:#808080;stroke-linejoin:miter;"/>
    </g>
    <!-- MASE_17430 -->
    <defs>
     <path d="M 4.203125 18.890625 
L 12.984375 20.0625 
Q 14.5 12.59375 18.140625 9.296875 
Q 21.78125 6 27 6 
Q 33.203125 6 37.46875 10.296875 
Q 41.75 14.59375 41.75 20.953125 
Q 41.75 27 37.796875 30.921875 
Q 33.84375 34.859375 27.734375 34.859375 
Q 25.25 34.859375 21.53125 33.890625 
L 22.515625 41.609375 
Q 23.390625 41.5 23.921875 41.5 
Q 29.546875 41.5 34.03125 44.421875 
Q 38.53125 47.359375 38.53125 53.46875 
Q 38.53125 58.296875 35.25 61.46875 
Q 31.984375 64.65625 26.8125 64.65625 
Q 21.6875 64.65625 18.265625 61.421875 
Q 14.84375 58.203125 13.875 51.765625 
L 5.078125 53.328125 
Q 6.6875 62.15625 12.390625 67.015625 
Q 18.109375 71.875 26.609375 71.875 
Q 32.46875 71.875 37.390625 69.359375 
Q 42.328125 66.84375 44.9375 62.5 
Q 47.5625 58.15625 47.5625 53.265625 
Q 47.5625 48.640625 45.0625 44.828125 
Q 42.578125 41.015625 37.703125 38.765625 
Q 44.046875 37.3125 47.5625 32.6875 
Q 51.078125 28.078125 51.078125 21.140625 
Q 51.078125 11.765625 44.234375 5.25 
Q 37.40625 -1.265625 26.953125 -1.265625 
Q 17.53125 -1.265625 11.296875 4.34375 
Q 5.078125 9.96875 4.203125 18.890625 
z
" id="ArialMT-51"/>
    </defs>
    <g style="fill:#262626;" transform="translate(279.437898 89.320989)scale(0.11 -0.11)">
     <use xlink:href="#ArialMT-77"/>
     <use x="83.300781" xlink:href="#ArialMT-65"/>
     <use x="150" xlink:href="#ArialMT-83"/>
     <use x="216.699219" xlink:href="#ArialMT-69"/>
     <use x="283.398438" xlink:href="#ArialMT-95"/>
     <use x="339.013672" xlink:href="#ArialMT-49"/>
     <use x="394.628906" xlink:href="#ArialMT-55"/>
     <use x="450.244141" xlink:href="#ArialMT-52"/>
     <use x="505.859375" xlink:href="#ArialMT-51"/>
     <use x="561.474609" xlink:href="#ArialMT-48"/>
    </g>
   </g>
   <g id="text_10">
    <g id="patch_20">
     <path d="M 317.384175 68.40381 
L 385.26105 68.40381 
Q 388.56105 68.40381 388.56105 65.10381 
L 388.56105 54.909904 
Q 388.56105 51.609904 385.26105 51.609904 
L 317.384175 51.609904 
Q 314.084175 51.609904 314.084175 54.909904 
L 314.084175 65.10381 
Q 314.084175 68.40381 317.384175 68.40381 
z
" style="fill:#ececff;stroke:#808080;stroke-linejoin:miter;"/>
    </g>
    <!-- MASE_17435 -->
    <g style="fill:#262626;" transform="translate(317.384175 62.91756)scale(0.11 -0.11)">
     <use xlink:href="#ArialMT-77"/>
     <use x="83.300781" xlink:href="#ArialMT-65"/>
     <use x="150" xlink:href="#ArialMT-83"/>
     <use x="216.699219" xlink:href="#ArialMT-69"/>
     <use x="283.398438" xlink:href="#ArialMT-95"/>
     <use x="339.013672" xlink:href="#ArialMT-49"/>
     <use x="394.628906" xlink:href="#ArialMT-55"/>
     <use x="450.244141" xlink:href="#ArialMT-52"/>
     <use x="505.859375" xlink:href="#ArialMT-51"/>
     <use x="561.474609" xlink:href="#ArialMT-53"/>
    </g>
   </g>
   <g id="text_11">
    <g id="patch_21">
     <path d="M 349.8712 121.210667 
L 417.748075 121.210667 
Q 421.048075 121.210667 421.048075 117.910667 
L 421.048075 107.716761 
Q 421.048075 104.416761 417.748075 104.416761 
L 349.8712 104.416761 
Q 346.5712 104.416761 346.5712 107.716761 
L 346.5712 117.910667 
Q 346.5712 121.210667 349.8712 121.210667 
z
" style="fill:#f2f2f2;stroke:#808080;stroke-linejoin:miter;"/>
    </g>
    <!-- MASE_17440 -->
    <g style="fill:#262626;" transform="translate(349.8712 115.724417)scale(0.11 -0.11)">
     <use xlink:href="#ArialMT-77"/>
     <use x="83.300781" xlink:href="#ArialMT-65"/>
     <use x="150" xlink:href="#ArialMT-83"/>
     <use x="216.699219" xlink:href="#ArialMT-69"/>
     <use x="283.398438" xlink:href="#ArialMT-95"/>
     <use x="339.013672" xlink:href="#ArialMT-49"/>
     <use x="394.628906" xlink:href="#ArialMT-55"/>
     <use x="450.244141" xlink:href="#ArialMT-52"/>
     <use x="505.859375" xlink:href="#ArialMT-52"/>
     <use x="561.474609" xlink:href="#ArialMT-48"/>
    </g>
   </g>
   <g id="text_12">
    <g id="patch_22">
     <path d="M 384.524026 94.807239 
L 452.400901 94.807239 
Q 455.700901 94.807239 455.700901 91.507239 
L 455.700901 81.313333 
Q 455.700901 78.013333 452.400901 78.013333 
L 384.524026 78.013333 
Q 381.224026 78.013333 381.224026 81.313333 
L 381.224026 91.507239 
Q 381.224026 94.807239 384.524026 94.807239 
z
" style="fill:#eef1f8;stroke:#808080;stroke-linejoin:miter;"/>
    </g>
    <!-- MASE_17445 -->
    <g style="fill:#262626;" transform="translate(384.524026 89.320989)scale(0.11 -0.11)">
     <use xlink:href="#ArialMT-77"/>
     <use x="83.300781" xlink:href="#ArialMT-65"/>
     <use x="150" xlink:href="#ArialMT-83"/>
     <use x="216.699219" xlink:href="#ArialMT-69"/>
     <use x="283.398438" xlink:href="#ArialMT-95"/>
     <use x="339.013672" xlink:href="#ArialMT-49"/>
     <use x="394.628906" xlink:href="#ArialMT-55"/>
     <use x="450.244141" xlink:href="#ArialMT-52"/>
     <use x="505.859375" xlink:href="#ArialMT-52"/>
     <use x="561.474609" xlink:href="#ArialMT-53"/>
    </g>
   </g>
   <g id="text_13">
    <g id="patch_23">
     <path d="M 419.355844 68.40381 
L 487.232719 68.40381 
Q 490.532719 68.40381 490.532719 65.10381 
L 490.532719 54.909904 
Q 490.532719 51.609904 487.232719 51.609904 
L 419.355844 51.609904 
Q 416.055844 51.609904 416.055844 54.909904 
L 416.055844 65.10381 
Q 416.055844 68.40381 419.355844 68.40381 
z
" style="fill:#f2f2f2;stroke:#808080;stroke-linejoin:miter;"/>
    </g>
    <!-- MASE_17450 -->
    <g style="fill:#262626;" transform="translate(419.355844 62.91756)scale(0.11 -0.11)">
     <use xlink:href="#ArialMT-77"/>
     <use x="83.300781" xlink:href="#ArialMT-65"/>
     <use x="150" xlink:href="#ArialMT-83"/>
     <use x="216.699219" xlink:href="#ArialMT-69"/>
     <use x="283.398438" xlink:href="#ArialMT-95"/>
     <use x="339.013672" xlink:href="#ArialMT-49"/>
     <use x="394.628906" xlink:href="#ArialMT-55"/>
     <use x="450.244141" xlink:href="#ArialMT-52"/>
     <use x="505.859375" xlink:href="#ArialMT-53"/>
     <use x="561.474609" xlink:href="#ArialMT-48"/>
    </g>
   </g>
   <g id="text_14">
    <g id="patch_24">
     <path d="M 449.229588 121.210667 
L 517.106463 121.210667 
Q 520.406463 121.210667 520.406463 117.910667 
L 520.406463 107.716761 
Q 520.406463 104.416761 517.106463 104.416761 
L 449.229588 104.416761 
Q 445.929588 104.416761 445.929588 107.716761 
L 445.929588 117.910667 
Q 445.929588 121.210667 449.229588 121.210667 
z
" style="fill:#f2f2f2;stroke:#808080;stroke-linejoin:miter;"/>
    </g>
    <!-- MASE_17455 -->
    <g style="fill:#262626;" transform="translate(449.229588 115.724417)scale(0.11 -0.11)">
     <use xlink:href="#ArialMT-77"/>
     <use x="83.300781" xlink:href="#ArialMT-65"/>
     <use x="150" xlink:href="#ArialMT-83"/>
     <use x="216.699219" xlink:href="#ArialMT-69"/>
     <use x="283.398438" xlink:href="#ArialMT-95"/>
     <use x="339.013672" xlink:href="#ArialMT-49"/>
     <use x="394.628906" xlink:href="#ArialMT-55"/>
     <use x="450.244141" xlink:href="#ArialMT-52"/>
     <use x="505.859375" xlink:href="#ArialMT-53"/>
     <use x="561.474609" xlink:href="#ArialMT-53"/>
    </g>
   </g>
   <g id="text_15">
    <g id="patch_25">
     <path d="M 487.659143 94.807239 
L 555.536018 94.807239 
Q 558.836018 94.807239 558.836018 91.507239 
L 558.836018 81.313333 
Q 558.836018 78.013333 555.536018 78.013333 
L 487.659143 78.013333 
Q 484.359143 78.013333 484.359143 81.313333 
L 484.359143 91.507239 
Q 484.359143 94.807239 487.659143 94.807239 
z
" style="fill:#fff1e7;stroke:#808080;stroke-linejoin:miter;"/>
    </g>
    <!-- MASE_17460 -->
    <g style="fill:#262626;" transform="translate(487.659143 89.320989)scale(0.11 -0.11)">
     <use xlink:href="#ArialMT-77"/>
     <use x="83.300781" xlink:href="#ArialMT-65"/>
     <use x="150" xlink:href="#ArialMT-83"/>
     <use x="216.699219" xlink:href="#ArialMT-69"/>
     <use x="283.398438" xlink:href="#ArialMT-95"/>
     <use x="339.013672" xlink:href="#ArialMT-49"/>
     <use x="394.628906" xlink:href="#ArialMT-55"/>
     <use x="450.244141" xlink:href="#ArialMT-52"/>
     <use x="505.859375" xlink:href="#ArialMT-54"/>
     <use x="561.474609" xlink:href="#ArialMT-48"/>
    </g>
   </g>
   <g id="text_16">
    <g id="patch_26">
     <path d="M 506.721777 42.000382 
L 574.598652 42.000382 
Q 577.898652 42.000382 577.898652 38.700382 
L 577.898652 28.506475 
Q 577.898652 25.206475 574.598652 25.206475 
L 506.721777 25.206475 
Q 503.421777 25.206475 503.421777 28.506475 
L 503.421777 38.700382 
Q 503.421777 42.000382 506.721777 42.000382 
z
" style="fill:#fff1e7;stroke:#808080;stroke-linejoin:miter;"/>
    </g>
    <!-- MASE_17465 -->
    <g style="fill:#262626;" transform="translate(506.721777 36.514132)scale(0.11 -0.11)">
     <use xlink:href="#ArialMT-77"/>
     <use x="83.300781" xlink:href="#ArialMT-65"/>
     <use x="150" xlink:href="#ArialMT-83"/>
     <use x="216.699219" xlink:href="#ArialMT-69"/>
     <use x="283.398438" xlink:href="#ArialMT-95"/>
     <use x="339.013672" xlink:href="#ArialMT-49"/>
     <use x="394.628906" xlink:href="#ArialMT-55"/>
     <use x="450.244141" xlink:href="#ArialMT-52"/>
     <use x="505.859375" xlink:href="#ArialMT-54"/>
     <use x="561.474609" xlink:href="#ArialMT-53"/>
    </g>
   </g>
   <g id="text_17">
    <g id="patch_27">
     <path d="M 521.023227 68.40381 
L 588.900102 68.40381 
Q 592.200102 68.40381 592.200102 65.10381 
L 592.200102 54.909904 
Q 592.200102 51.609904 588.900102 51.609904 
L 521.023227 51.609904 
Q 517.723227 51.609904 517.723227 54.909904 
L 517.723227 65.10381 
Q 517.723227 68.40381 521.023227 68.40381 
z
" style="fill:#fff1e7;stroke:#808080;stroke-linejoin:miter;"/>
    </g>
    <!-- MASE_17470 -->
    <g style="fill:#262626;" transform="translate(521.023227 62.91756)scale(0.11 -0.11)">
     <use xlink:href="#ArialMT-77"/>
     <use x="83.300781" xlink:href="#ArialMT-65"/>
     <use x="150" xlink:href="#ArialMT-83"/>
     <use x="216.699219" xlink:href="#ArialMT-69"/>
     <use x="283.398438" xlink:href="#ArialMT-95"/>
     <use x="339.013672" xlink:href="#ArialMT-49"/>
     <use x="394.628906" xlink:href="#ArialMT-55"/>
     <use x="450.244141" xlink:href="#ArialMT-52"/>
     <use x="505.859375" xlink:href="#ArialMT-55"/>
     <use x="561.474609" xlink:href="#ArialMT-48"/>
    </g>
   </g>
   <g id="text_18">
    <g id="patch_28">
     <path d="M 552.561595 121.210667 
L 620.43847 121.210667 
Q 623.73847 121.210667 623.73847 117.910667 
L 623.73847 107.716761 
Q 623.73847 104.416761 620.43847 104.416761 
L 552.561595 104.416761 
Q 549.261595 104.416761 549.261595 107.716761 
L 549.261595 117.910667 
Q 549.261595 121.210667 552.561595 121.210667 
z
" style="fill:#fff1e7;stroke:#808080;stroke-linejoin:miter;"/>
    </g>
    <!-- MASE_17475 -->
    <g style="fill:#262626;" transform="translate(552.561595 115.724417)scale(0.11 -0.11)">
     <use xlink:href="#ArialMT-77"/>
     <use x="83.300781" xlink:href="#ArialMT-65"/>
     <use x="150" xlink:href="#ArialMT-83"/>
     <use x="216.699219" xlink:href="#ArialMT-69"/>
     <use x="283.398438" xlink:href="#ArialMT-95"/>
     <use x="339.013672" xlink:href="#ArialMT-49"/>
     <use x="394.628906" xlink:href="#ArialMT-55"/>
     <use x="450.244141" xlink:href="#ArialMT-52"/>
     <use x="505.859375" xlink:href="#ArialMT-55"/>
     <use x="561.474609" xlink:href="#ArialMT-53"/>
    </g>
   </g>
   <g id="text_19">
    <g id="patch_29">
     <path d="M 590.973251 94.807239 
L 658.850126 94.807239 
Q 662.150126 94.807239 662.150126 91.507239 
L 662.150126 81.313333 
Q 662.150126 78.013333 658.850126 78.013333 
L 590.973251 78.013333 
Q 587.673251 78.013333 587.673251 81.313333 
L 587.673251 91.507239 
Q 587.673251 94.807239 590.973251 94.807239 
z
" style="fill:#f2f2f2;stroke:#808080;stroke-linejoin:miter;"/>
    </g>
    <!-- MASE_17480 -->
    <g style="fill:#262626;" transform="translate(590.973251 89.320989)scale(0.11 -0.11)">
     <use xlink:href="#ArialMT-77"/>
     <use x="83.300781" xlink:href="#ArialMT-65"/>
     <use x="150" xlink:href="#ArialMT-83"/>
     <use x="216.699219" xlink:href="#ArialMT-69"/>
     <use x="283.398438" xlink:href="#ArialMT-95"/>
     <use x="339.013672" xlink:href="#ArialMT-49"/>
     <use x="394.628906" xlink:href="#ArialMT-55"/>
     <use x="450.244141" xlink:href="#ArialMT-52"/>
     <use x="505.859375" xlink:href="#ArialMT-56"/>
     <use x="561.474609" xlink:href="#ArialMT-48"/>
    </g>
   </g>
   <g id="text_20">
    <g id="patch_30">
     <path d="M 649.55729 121.210667 
L 717.434165 121.210667 
Q 720.734165 121.210667 720.734165 117.910667 
L 720.734165 107.716761 
Q 720.734165 104.416761 717.434165 104.416761 
L 649.55729 104.416761 
Q 646.25729 104.416761 646.25729 107.716761 
L 646.25729 117.910667 
Q 646.25729 121.210667 649.55729 121.210667 
z
" style="fill:#ffecec;stroke:#808080;stroke-linejoin:miter;"/>
    </g>
    <!-- MASE_17485 -->
    <g style="fill:#262626;" transform="translate(649.55729 115.724417)scale(0.11 -0.11)">
     <use xlink:href="#ArialMT-77"/>
     <use x="83.300781" xlink:href="#ArialMT-65"/>
     <use x="150" xlink:href="#ArialMT-83"/>
     <use x="216.699219" xlink:href="#ArialMT-69"/>
     <use x="283.398438" xlink:href="#ArialMT-95"/>
     <use x="339.013672" xlink:href="#ArialMT-49"/>
     <use x="394.628906" xlink:href="#ArialMT-55"/>
     <use x="450.244141" xlink:href="#ArialMT-52"/>
     <use x="505.859375" xlink:href="#ArialMT-56"/>
     <use x="561.474609" xlink:href="#ArialMT-53"/>
    </g>
   </g>
   <g id="text_21">
    <g id="patch_31">
     <path d="M 723.55253 94.807239 
L 791.429405 94.807239 
Q 794.729405 94.807239 794.729405 91.507239 
L 794.729405 81.313333 
Q 794.729405 78.013333 791.429405 78.013333 
L 723.55253 78.013333 
Q 720.25253 78.013333 720.25253 81.313333 
L 720.25253 91.507239 
Q 720.25253 94.807239 723.55253 94.807239 
z
" style="fill:#ecf9f2;stroke:#808080;stroke-linejoin:miter;"/>
    </g>
    <!-- MASE_17490 -->
    <g style="fill:#262626;" transform="translate(723.55253 89.320989)scale(0.11 -0.11)">
     <use xlink:href="#ArialMT-77"/>
     <use x="83.300781" xlink:href="#ArialMT-65"/>
     <use x="150" xlink:href="#ArialMT-83"/>
     <use x="216.699219" xlink:href="#ArialMT-69"/>
     <use x="283.398438" xlink:href="#ArialMT-95"/>
     <use x="339.013672" xlink:href="#ArialMT-49"/>
     <use x="394.628906" xlink:href="#ArialMT-55"/>
     <use x="450.244141" xlink:href="#ArialMT-52"/>
     <use x="505.859375" xlink:href="#ArialMT-57"/>
     <use x="561.474609" xlink:href="#ArialMT-48"/>
    </g>
   </g>
   <g id="text_22">
    <g id="patch_32">
     <path d="M 757.399893 121.210667 
L 825.276768 121.210667 
Q 828.576768 121.210667 828.576768 117.910667 
L 828.576768 107.716761 
Q 828.576768 104.416761 825.276768 104.416761 
L 757.399893 104.416761 
Q 754.099893 104.416761 754.099893 107.716761 
L 754.099893 117.910667 
Q 754.099893 121.210667 757.399893 121.210667 
z
" style="fill:#ecf9f2;stroke:#808080;stroke-linejoin:miter;"/>
    </g>
    <!-- MASE_17495 -->
    <g style="fill:#262626;" transform="translate(757.399893 115.724417)scale(0.11 -0.11)">
     <use xlink:href="#ArialMT-77"/>
     <use x="83.300781" xlink:href="#ArialMT-65"/>
     <use x="150" xlink:href="#ArialMT-83"/>
     <use x="216.699219" xlink:href="#ArialMT-69"/>
     <use x="283.398438" xlink:href="#ArialMT-95"/>
     <use x="339.013672" xlink:href="#ArialMT-49"/>
     <use x="394.628906" xlink:href="#ArialMT-55"/>
     <use x="450.244141" xlink:href="#ArialMT-52"/>
     <use x="505.859375" xlink:href="#ArialMT-57"/>
     <use x="561.474609" xlink:href="#ArialMT-53"/>
    </g>
   </g>
   <g id="text_23">
    <g id="patch_33">
     <path d="M 812.475692 94.807239 
L 880.352567 94.807239 
Q 883.652567 94.807239 883.652567 91.507239 
L 883.652567 81.313333 
Q 883.652567 78.013333 880.352567 78.013333 
L 812.475692 78.013333 
Q 809.175692 78.013333 809.175692 81.313333 
L 809.175692 91.507239 
Q 809.175692 94.807239 812.475692 94.807239 
z
" style="fill:#ffecec;stroke:#808080;stroke-linejoin:miter;"/>
    </g>
    <!-- MASE_17500 -->
    <g style="fill:#262626;" transform="translate(812.475692 89.320989)scale(0.11 -0.11)">
     <use xlink:href="#ArialMT-77"/>
     <use x="83.300781" xlink:href="#ArialMT-65"/>
     <use x="150" xlink:href="#ArialMT-83"/>
     <use x="216.699219" xlink:href="#ArialMT-69"/>
     <use x="283.398438" xlink:href="#ArialMT-95"/>
     <use x="339.013672" xlink:href="#ArialMT-49"/>
     <use x="394.628906" xlink:href="#ArialMT-55"/>
     <use x="450.244141" xlink:href="#ArialMT-53"/>
     <use x="505.859375" xlink:href="#ArialMT-48"/>
     <use x="561.474609" xlink:href="#ArialMT-48"/>
    </g>
   </g>
  </g>
 </g>
 <defs>
  <clipPath id="p904434d797">
   <rect height="184.824" width="1116" x="7.2" y="7.2"/>
  </clipPath>
 </defs>
</svg>
